<svg width="32" height="32" viewBox="0 0 32 32" fill="none" xmlns="http://www.w3.org/2000/svg">
    <path d="M2.388 14.06c.494 0 .895-.134.895-.298 0-.164-.4-.297-.895-.297s-.896.133-.896.297c0 .164.401.298.896.298zM1.095 15.52c.494 0 .895-.137.895-.304 0-.168-.4-.304-.895-.304s-.896.136-.896.304c0 .167.401.303.896.303zM1.095 17.256c.604 0 1.094-.164 1.094-.367 0-.203-.49-.368-1.094-.368-.605 0-1.095.165-1.095.368 0 .203.49.367 1.095.367zM2.557 19.183c.698 0 1.265-.187 1.265-.418 0-.23-.567-.418-1.265-.418s-1.264.187-1.264.418c0 .231.566.418 1.264.418zM24.063 20.746c.687 0 1.244-.131 1.244-.293 0-.161-.557-.292-1.244-.292-.687 0-1.244.131-1.244.292 0 .162.557.293 1.244.293zM5.65 20.578c.759 0 1.373-.187 1.373-.418 0-.231-.614-.418-1.373-.418-.758 0-1.373.187-1.373.418 0 .23.615.418 1.373.418zM19.517 21.582c.758 0 1.373-.187 1.373-.418 0-.23-.615-.418-1.373-.418s-1.373.187-1.373.418c0 .23.615.418 1.373.418zM31.655 18.687c-.2.055-.408.08-.615.078-.494 0-.895-.125-.895-.281 0-.156.4-.281.895-.281.175-.001.35.016.522.053a7.503 7.503 0 0 1-.05-.93v-4.75a4.886 4.886 0 0 0-.288-1.596 3.06 3.06 0 0 0-.79-1.291 3.559 3.559 0 0 0-1.783-.866 15.499 15.499 0 0 0-2.833-.209 11.456 11.456 0 0 0-2.043.172 4.667 4.667 0 0 0-1.484.487 3.419 3.419 0 0 0-1.15 1.028 4.568 4.568 0 0 0-.613 1.632l3.749.415c.096-.379.31-.713.607-.95.444-.248.944-.36 1.445-.326.374-.04.75.068 1.05.305.23.299.337.681.3 1.063-.454.19-.918.354-1.388.49-.439.126-1.394.344-2.865.655A4.519 4.519 0 0 0 20.9 14.76a2.97 2.97 0 0 0-.684 2.017c-.006.417.076.83.24 1.21.165.38.406.717.709.988.79.648 1.78.965 2.78.89a6.113 6.113 0 0 0 2.418-.445c.12-.05.227-.11.339-.174a.407.407 0 0 1 .086-.05 5.714 5.714 0 0 0 1.107-.89c.028.231.073.46.134.684 0 .014.016.036.02.051.61.02 1.083.14 1.083.289 0 .125-.345.233-.822.274l.008.018H32a5.93 5.93 0 0 1-.345-.935zm-3.977-3.514c.017.432-.066.862-.239 1.255a1.979 1.979 0 0 1-.8.816 2.353 2.353 0 0 1-1.218.334 1.32 1.32 0 0 1-.95-.31 1.056 1.056 0 0 1-.24-.352 1.102 1.102 0 0 1 0-.85c.056-.133.138-.253.24-.352.455-.33.97-.554 1.513-.66a17.88 17.88 0 0 0 1.687-.537l.007.656zM18.215 18.608V8.81h-3.538v1.534a4.234 4.234 0 0 0-1.4-1.358 3.923 3.923 0 0 0-1.9-.41 3.62 3.62 0 0 0-1.59.3 3.79 3.79 0 0 0-1.327.97 5.44 5.44 0 0 0-1.116 3.692 6.033 6.033 0 0 0 .866 3.41 3.82 3.82 0 0 0 1.374 1.344c.559.318 1.186.48 1.822.473a3.53 3.53 0 0 0 1.67-.371 3.72 3.72 0 0 0 1.33-1.124v1.573a2.448 2.448 0 0 1-.404 1.603 1.574 1.574 0 0 1-.563.367c-.21.08-.435.11-.658.092a1.743 1.743 0 0 1-1.05-.304 1.267 1.267 0 0 1-.428-.742l-3.67-.439c-.013.221-.018.397-.018.527-.016.481.076.959.269 1.395.193.436.48.819.84 1.116a6.523 6.523 0 0 0 4.085.938c.775.01 1.55-.072 2.309-.244.603-.13 1.172-.4 1.663-.792a3.894 3.894 0 0 0 1.05-1.431 4.52 4.52 0 0 0 .394-1.86l-.01-.46zm-8.488 2.808c-.894 0-1.619-.188-1.619-.419 0-.231.725-.418 1.62-.418.893 0 1.618.187 1.618.418 0 .23-.722.42-1.619.42zm4.23-5.93a1.62 1.62 0 0 1-.538.415 1.547 1.547 0 0 1-1.305.01 1.619 1.619 0 0 1-.545-.405 2.553 2.553 0 0 1-.454-1.665 3.023 3.023 0 0 1 .43-1.832c.14-.18.317-.323.518-.42.2-.095.42-.14.64-.133.235-.002.466.051.678.155.212.104.4.257.549.446a2.64 2.64 0 0 1 .5 1.734 2.565 2.565 0 0 1-.473 1.696zm.497 6.431c-.895 0-1.62-.206-1.62-.46 0-.253.725-.46 1.62-.46.894 0 1.618.206 1.618.46 0 .255-.724.46-1.618.46z" fill="#90949C"/>
</svg>
