<svg xmlns="http://www.w3.org/2000/svg" viewBox="0 0 20 20"><defs><style>.cls-1{fill:#ff5e00;}.cls-2{fill:none;}</style></defs><g id="Layer_2" data-name="Layer 2"><g id="Layer_1-2" data-name="Layer 1"><path class="cls-1" d="M16.44,5.91a1.86,1.86,0,0,1,1.88,1.76,1.83,1.83,0,0,1-1.77,1.9H11.8a1.71,1.71,0,0,0-1.66,1.36,1.53,1.53,0,0,0,0,.3h0L7.26,5.07a1.47,1.47,0,0,0-1.94-.74,1.43,1.43,0,0,0-.75.74L.13,14.46l0,.12a.61.61,0,0,0,0,.12.78.78,0,0,0,0,.22.86.86,0,0,0,.08.36h0a.85.85,0,0,0,1.13.4.86.86,0,0,0,.4-.4L1.76,15v0L5.91,6.23l4,8.58.22.44h0l.06.11a.88.88,0,0,0,1.19.33.9.9,0,0,0,.42-.6.28.28,0,0,0,0-.09v-.07h0V11.27h4.68A3.54,3.54,0,0,0,20,7.73V7.66a3.56,3.56,0,0,0-3.58-3.45H11.84a1.7,1.7,0,0,0-1.69,1.7h6.29Z"/><rect class="cls-2" width="20" height="20"/></g></g></svg>