<svg xmlns="http://www.w3.org/2000/svg" viewBox="0 0 450 56"><defs><style>.cls-1{fill:#ff5e00;}.cls-2{fill:#afaeae;}.cls-3{fill:none;}</style></defs><g id="Layer_2" data-name="Layer 2"><g id="Layer_1-2" data-name="Layer 1"><g id="Layer_2-2" data-name="Layer 2"><g id="Layer_1-2-2" data-name="Layer 1-2"><path class="cls-1" d="M82.36,8.3a9,9,0,0,1,9,8.51A8.82,8.82,0,0,1,82.92,26H60a8.19,8.19,0,0,0-8,6.49,9.3,9.3,0,0,0-.16,1.49h0L38.12,4.25a7.09,7.09,0,0,0-13,0L3.77,49.5l-.27.59a4.12,4.12,0,0,0-.23.58,3.67,3.67,0,0,0-.14,1,4.11,4.11,0,0,0,.39,1.76h0A4.09,4.09,0,0,0,9,55.38a4.16,4.16,0,0,0,1.91-1.91l.72-1.53v-.06l20-42.05L50.85,51.17l1,2.16h0A4.22,4.22,0,0,0,60,52.58a3,3,0,0,0,.06-.42v-18H82.59a17,17,0,0,0,17-17v-.36A17.21,17.21,0,0,0,82.26.14h-22A8.16,8.16,0,0,0,52.05,8.3Z"/><polygon class="cls-1" points="184.44 55.78 165.4 16.75 170.96 16.75 173.11 21.21 185.12 45.81 199.31 16.75 204.85 16.75 185.79 55.78 184.44 55.78"/><polygon class="cls-1" points="264.1 55.78 264.1 48.76 239.28 23.97 239.28 55.78 234.34 55.78 234.34 16.75 239.07 16.75 264.1 41.78 264.1 16.75 269.06 16.75 269.06 55.78 264.1 55.78"/><polygon class="cls-1" points="287.85 55.78 287.85 21.71 272.95 21.71 272.95 16.75 307.7 16.75 307.7 21.71 292.81 21.71 292.81 55.78 287.85 55.78"/><path class="cls-1" d="M132.09,55.78v-39h15.48A19.23,19.23,0,0,1,166.77,36v.58a19.24,19.24,0,0,1-19.22,19.23ZM137,50.91h10.21a14.6,14.6,0,0,0,.73-29.2c-.24,0-.49,0-.73,0H137Z"/><polygon class="cls-1" points="122.7 55.78 117.85 45.78 105.14 45.78 107.3 41.3 115.66 41.3 108.54 26.71 94.36 55.78 88.81 55.78 107.86 16.75 109.22 16.75 128.25 55.78 122.7 55.78"/><polygon class="cls-1" points="225.6 55.78 220.74 45.78 208.04 45.78 210.19 41.3 218.55 41.3 211.44 26.71 197.25 55.78 191.7 55.78 210.77 16.75 212.11 16.75 231.15 55.78 225.6 55.78"/><polygon class="cls-2" points="417.01 55.78 412.15 45.78 399.45 45.78 401.62 41.3 409.97 41.3 402.86 26.71 388.66 55.78 383.12 55.78 402.18 16.75 403.53 16.75 422.56 55.78 417.01 55.78"/><polygon class="cls-2" points="426.43 55.78 426.43 37.15 410.93 16.75 417.15 16.75 428.91 32.21 440.64 16.75 446.87 16.75 431.39 37.13 431.39 55.78 426.43 55.78"/><path class="cls-2" d="M314.93,55.78v-39H333.7a11.39,11.39,0,1,1,0,22.78H319.89V55.78Zm5-21.09H334a6.5,6.5,0,0,0,0-13H319.89Z"/><polygon class="cls-2" points="348.99 55.78 348.99 16.75 353.96 16.75 353.96 50.81 379.31 50.81 379.31 55.78 354.82 55.78 348.99 55.78"/></g></g><rect class="cls-3" width="450" height="56"/></g></g></svg>