<?xml version="1.0" encoding="UTF-8"?>
<svg id="Layer_2" data-name="Layer 2" xmlns="http://www.w3.org/2000/svg" xmlns:xlink="http://www.w3.org/1999/xlink" viewBox="0 0 238.72 56">
  <defs>
    <style>
      .cls-1 {
        fill: url(#linear-gradient);
      }

      .cls-2 {
        fill: #fff;
      }

      .cls-3 {
        fill: #ffcb05;
      }

      .cls-4 {
        fill: #b28f04;
      }

      .cls-5 {
        fill: #b1b3b6;
      }

      .cls-6 {
        fill: #231f20;
      }

      .cls-7 {
        fill: url(#linear-gradient-3);
      }

      .cls-8 {
        fill: url(#linear-gradient-4);
      }

      .cls-9 {
        fill: url(#linear-gradient-2);
      }

      .cls-10 {
        fill: url(#Unbenannter_Verlauf_18);
      }
    </style>
    <linearGradient id="linear-gradient" x1="72.07" y1="34.45" x2="72.07" y2="0" gradientUnits="userSpaceOnUse">
      <stop offset="0" stop-color="#44c8f5"/>
      <stop offset="1" stop-color="#4495d1"/>
    </linearGradient>
    <linearGradient id="linear-gradient-2" x1="89.34" y1="33.95" x2="89.34" y2=".1" xlink:href="#linear-gradient"/>
    <linearGradient id="linear-gradient-3" x1="105.89" x2="105.89" y2="7.77" xlink:href="#linear-gradient"/>
    <linearGradient id="linear-gradient-4" x1="130.66" x2="130.66" y2="7.18" xlink:href="#linear-gradient"/>
    <radialGradient id="Unbenannter_Verlauf_18" data-name="Unbenannter Verlauf 18" cx="23.12" cy="20.84" fx="23.12" fy="20.84" r="19.01" gradientUnits="userSpaceOnUse">
      <stop offset="0" stop-color="#fff"/>
      <stop offset="1" stop-color="#fff0a5"/>
    </radialGradient>
  </defs>
  <g id="Layer_1-2" data-name="Layer 1">
    <g>
      <g>
        <g>
          <path class="cls-5" d="m169.69,33.95v-12.7c0-2.56.38-4.71,1.13-6.45.75-1.74,1.79-3.13,3.1-4.18,1.24-.98,2.71-1.71,4.38-2.17,1.67-.46,3.39-.69,5.17-.69h.98v6.99h-2.26c-1.9,0-3.31.46-4.23,1.38-.92.92-1.38,2.36-1.38,4.33v13.48h-6.89Z"/>
          <path class="cls-5" d="m186.49.1h3.54c.92,0,1.71.33,2.36.98.65.66.98,1.44.98,2.36v2.07h-6.89V.1Zm0,7.68h3.54c.92,0,1.71.33,2.36.98.65.66.98,1.44.98,2.36v22.83h-6.89V7.77Z"/>
          <path class="cls-5" d="m218.02,33.95h-3.44c-.99,0-1.79-.31-2.41-.94-.63-.62-.94-1.43-.94-2.41v-13.39c0-1.57-.48-2.72-1.43-3.44-.95-.72-2.02-1.08-3.2-1.08s-2.23.36-3.15,1.08c-.92.72-1.38,1.87-1.38,3.44v16.73h-6.89v-15.35c0-4.46,1.16-7.45,3.49-8.96,2.33-1.51,4.91-2.33,7.73-2.46,2.89,0,5.54.75,7.97,2.26,2.43,1.51,3.64,4.56,3.64,9.15v15.35Z"/>
          <path class="cls-5" d="m230.71,33.95c-2.17.13-4.51.1-7.04-.1-2.53-.2-3.79-1.8-3.79-4.82V.1h3.54c.85,0,1.61.33,2.26.98.65.66.98,1.44.98,2.36v4.43h4.04v1.38c0,.98-.33,1.79-.98,2.41-.66.62-1.44.93-2.36.93h-.69v14.57c0,1.12.66,1.67,1.97,1.67h2.07v5.12Z"/>
          <path class="cls-5" d="m150.49,40.25c0,.92-.33,1.71-.98,2.36-.66.65-1.44.98-2.36.98h-3.35v-24.51c0-4.59,1.34-7.73,4.04-9.4,2.69-1.67,5.61-2.51,8.76-2.51,1.64,0,3.3.31,4.97.94,1.67.62,3,1.53,3.99,2.71,1.97,2.56,2.95,5.84,2.95,9.84s-.98,7.48-2.95,10.04c-1.97,2.49-4.49,3.74-7.58,3.74-1.64,0-3.09-.29-4.33-.89-1.31-.66-2.36-1.67-3.15-3.05v9.74Zm11.22-19.29c0-2.56-.49-4.53-1.48-5.91-.98-1.38-2.4-2.07-4.23-2.07s-3.15.69-4.13,2.07c-.92,1.25-1.38,3.22-1.38,5.91,0,2.49.49,4.37,1.48,5.61.98,1.38,2.39,2.07,4.23,2.07,1.71,0,3.05-.69,4.04-2.07.98-1.38,1.48-3.25,1.48-5.61Z"/>
        </g>
        <g>
          <path class="cls-1" d="m73.89,7.18c-1.71,0-3.15.33-4.33.98-1.38.79-2.43,1.81-3.15,3.05V3.35c0-.92-.33-1.7-.98-2.36-.66-.66-1.44-.98-2.36-.98h-3.35v22.54c0,4.66,1.34,7.81,4.03,9.45,2.69,1.64,5.61,2.46,8.76,2.46,1.64,0,3.3-.28,4.97-.84,1.67-.56,3-1.46,3.98-2.71,1.97-2.56,2.95-5.87,2.95-9.94s-.98-7.38-2.95-9.94c-1.97-2.56-4.49-3.84-7.58-3.84Zm2.26,19.49c-.98,1.38-2.39,2.07-4.23,2.07s-3.15-.69-4.13-2.07c-.92-1.25-1.38-3.25-1.38-6,0-2.36.49-4.23,1.48-5.61.98-1.31,2.39-1.97,4.23-1.97,1.71,0,3.05.69,4.03,2.07.98,1.31,1.48,3.15,1.48,5.51,0,2.62-.49,4.63-1.48,6Z"/>
          <path class="cls-9" d="m89.44.1h-3.54v33.86h6.89V3.35c0-.92-.33-1.69-.98-2.31-.66-.62-1.44-.94-2.36-.94Z"/>
          <path class="cls-7" d="m111.45,8.76c-.62.66-.93,1.44-.93,2.36v13.39c0,1.57-.48,2.72-1.43,3.44-.95.72-2.02,1.08-3.2,1.08s-2.23-.36-3.15-1.08c-.92-.72-1.38-1.87-1.38-3.44V7.77h-6.89v15.35c0,4.53,1.16,7.51,3.49,8.96,2.33,1.44,4.9,2.23,7.73,2.36,2.89,0,5.54-.72,7.97-2.17,2.43-1.44,3.64-4.49,3.64-9.15V7.77h-3.44c-.98,0-1.79.33-2.41.98Z"/>
          <path class="cls-8" d="m139.57,10.73c-2.17-2.36-5.22-3.54-9.15-3.54s-6.66,1.21-8.76,3.64c-2.03,2.36-3.05,5.64-3.05,9.84s1.05,7.77,3.15,10.14c2.1,2.43,5.02,3.64,8.76,3.64,3.08,0,5.64-.75,7.68-2.26,2.03-1.44,3.41-3.54,4.13-6.3h-4.92c-.79,0-1.39.16-1.82.49-.43.33-1.21,1.33-1.82,1.67-.8.44-1.74.69-2.85.69-1.71,0-2.99-.52-3.84-1.57-.92-.98-1.41-2.49-1.48-4.53h17.03c.07-.13.1-.36.1-.69v-1.08c0-4.33-1.05-7.71-3.15-10.14Zm-13.98,7.48c.06-1.71.56-3.02,1.48-3.94.92-.92,2.1-1.38,3.54-1.38,1.57,0,2.79.46,3.64,1.38.79.85,1.24,2.17,1.38,3.94h-10.04Z"/>
        </g>
        <g>
          <path class="cls-5" d="m168.7,47.85c0,.05,0,.14.01.25,0,.11.01.19.01.25,0,.64-.06,1.23-.17,1.77-.12.54-.29,1.06-.53,1.54-.7,1.39-1.65,2.46-2.85,3.21-1.2.75-2.56,1.13-4.07,1.13-1.12,0-2.15-.21-3.09-.64-.95-.43-1.8-1.06-2.56-1.9-.63-.7-1.11-1.5-1.44-2.39-.33-.89-.5-1.84-.5-2.84s.2-2,.6-2.93c.4-.92.98-1.76,1.76-2.52.73-.72,1.54-1.26,2.44-1.61.9-.35,1.89-.53,2.98-.53,1.59,0,2.96.39,4.12,1.17,1.16.78,2.05,1.91,2.68,3.41h-3.51c-.43-.53-.93-.94-1.51-1.2-.58-.27-1.23-.4-1.94-.4-1.27,0-2.34.46-3.22,1.37-.88.91-1.32,2.02-1.32,3.33s.44,2.44,1.33,3.35c.89.91,1.98,1.36,3.28,1.36.9,0,1.72-.24,2.45-.73.73-.49,1.28-1.14,1.63-1.97h-5.8v-2.48h9.22Z"/>
          <path class="cls-5" d="m171.62,52.61l-1.15,3.09h-2.99l5.73-14.77h2.5l5.65,14.77h-3.09l-1.17-3.09h-5.48Zm4.52-2.74l-1.74-4.76-1.79,4.76h3.53Z"/>
          <path class="cls-5" d="m185,55.71h-2.86v-14.77h3.82l3.75,10.74,3.74-10.74h3.82v14.77h-2.85l.1-10.72-3.73,10.72h-2.18l-3.74-10.72.12,10.72Z"/>
          <path class="cls-5" d="m198.72,55.71v-14.77h2.89v14.77h-2.89Z"/>
          <path class="cls-5" d="m205.88,55.71h-2.84v-14.77h2.74l6.11,9.43v-9.43h2.83v14.77h-2.68l-6.16-9.72v9.72Z"/>
          <path class="cls-5" d="m230.69,47.85c0,.05,0,.14.01.25,0,.11.01.19.01.25,0,.64-.06,1.23-.17,1.77-.12.54-.29,1.06-.53,1.54-.7,1.39-1.64,2.46-2.85,3.21-1.2.75-2.56,1.13-4.07,1.13-1.12,0-2.15-.21-3.09-.64-.95-.43-1.8-1.06-2.56-1.9-.63-.7-1.11-1.5-1.44-2.39-.33-.89-.5-1.84-.5-2.84s.2-2,.6-2.93c.4-.92.98-1.76,1.76-2.52.73-.72,1.54-1.26,2.44-1.61.9-.35,1.89-.53,2.98-.53,1.59,0,2.96.39,4.12,1.17,1.16.78,2.05,1.91,2.68,3.41h-3.51c-.43-.53-.93-.94-1.51-1.2-.58-.27-1.23-.4-1.94-.4-1.27,0-2.34.46-3.22,1.37-.88.91-1.32,2.02-1.32,3.33s.44,2.44,1.33,3.35c.89.91,1.98,1.36,3.28,1.36.9,0,1.72-.24,2.45-.73.73-.49,1.28-1.14,1.63-1.97h-5.8v-2.48h9.22Z"/>
        </g>
        <g>
          <path class="cls-5" d="m232.73,41.2h-.46v-4.2h-.93v-.46h2.32v.46h-.93v4.2Z"/>
          <path class="cls-5" d="m234.16,41.2v-4.66h.67l1.61,4.05,1.61-4.05h.67v4.66h-.44v-4.11l-1.64,4.11h-.41l-1.64-4.11v4.11h-.44Z"/>
        </g>
      </g>
      <g>
        <path class="cls-3" d="m55.02,22.89l-12.93-.76,7.94-10.36-12.35,5.48,2.77-11.21-7.06,6.42-.71-10.72-6.43,11.54-6.54-9.68,1,12.15-10.76-7.9,4.79,11.16-10.06-2.17,9.17,8.81-12.83,2.51,11.06,3.83-9.27,5.53,12.48-1.53-7.85,10.16,11.86-5.68-2.11,13.17,7.22-8.74,2.97,8.99,3.18-9.02,7.56,9.45-1.21-13.98,10.69,6.92-4.87-12.15,10.85-.19-10.44-4.42,11.88-7.61Zm-26.65,19.97c-7.92,0-14.36-6.44-14.36-14.36s6.44-14.36,14.36-14.36,14.36,6.44,14.36,14.36-6.44,14.36-14.36,14.36Z"/>
        <g>
          <path class="cls-4" d="m28.37,14.13c-7.92,0-14.36,6.44-14.36,14.36s6.44,14.36,14.36,14.36,14.36-6.44,14.36-14.36-6.44-14.36-14.36-14.36Zm14.09,14.39c0,7.79-6.32,14.11-14.11,14.11s-14.11-6.32-14.11-14.11c0-5.37,3-10.03,7.41-12.42,2-1.09,4.29-1.71,6.72-1.71,7.77,0,14.09,6.32,14.09,14.09,0,0,0,.01,0,.02s0,.01,0,.02Z"/>
          <path class="cls-4" d="m43.72,30.45l12.15-7.78-13.25-.78,8.27-10.8-12.81,5.69,2.85-11.53-7.3,6.64-.73-11.08-6.66,11.95-6.87-10.17,1.04,12.58L9.32,7.03l4.97,11.59-10.48-2.26,9.48,9.11L0,28.08l11.46,3.97-9.87,5.89,13.1-1.6-8.15,10.55,12.42-5.95-2.18,13.64,7.53-9.13,3.07,9.28,3.28-9.3,7.81,9.77-1.24-14.32,10.94,7.08-5.04-12.57,11.73-.21-11.14-4.72Zm3.89,16.81l-10.69-6.92,1.21,13.98-7.56-9.45-3.18,9.02-2.97-8.99-7.22,8.74,2.11-13.17-11.86,5.68,7.85-10.16-12.48,1.53,9.27-5.53-11.06-3.83,12.83-2.51-9.17-8.81,10.06,2.17-4.79-11.16,10.76,7.9-1-12.15,6.54,9.68,6.43-11.54.71,10.72,7.06-6.42-2.77,11.21,12.35-5.48-7.94,10.36,12.93.76-11.88,7.61,10.44,4.42-10.85.19,4.87,12.15Z"/>
        </g>
        <path class="cls-10" d="m28.39,15c7.44,0,13.49,6.05,13.49,13.49s-6.05,13.49-13.49,13.49-13.49-6.05-13.49-13.49,6.06-13.49,13.49-13.49Z"/>
        <path class="cls-6" d="m38.36,32.76c-1.21-1.13-1.54-2.57-1.54-2.57-.07-.23-.22-.19-.22-.19-.16.03-.09.21-.09.21.27,1.05.4,1.31.4,1.31-9.27,1.97-17.61-.2-17.61-.2.38-.6.64-1.26.64-1.26.06-.2-.05-.24-.05-.24-.16-.05-.2.12-.2.12-.88,1.67-2.1,2.28-2.1,2.28h0s-.24.14-.16.26c0,0,.06.1.36-.01h0c.57-.3,1.18-.79,1.18-.79.94,1.71,2.45,3.37,2.45,3.37,1.67,1.85,3.47,2.52,3.47,2.52,1.19.63,2.81.65,2.81.65,6.47.34,9.41-6.22,9.41-6.22.29.49,1.01,1.01,1.01,1.01.39.12.24-.24.24-.24Zm-10.38,4.99c-5.4-.06-8.37-5.91-8.37-5.91l.42.09c4.75,1.09,8.6.93,9.1.91-1.18.04,3.36.04,6.96-.71l.48-.09s-2.85,5.78-8.59,5.71Z"/>
        <path class="cls-6" d="m25.99,28.38c.1.01,1.97.03,1.97.03.52-.08.28.55.28.55-.18.23.04.3.04.3.3,0,.4-.61.4-.61.08-.67-.48-.56-.48-.56,0,.01-2.05-.04-2.05-.04-2-.17-1.88-2.17-1.88-2.17.01-1.31,1.25-2.45,1.25-2.45.99-.92,2.77-1.43,2.77-1.43.25-.11.16-.17.16-.17-.06-.19-1.03.16-1.03.16,0,0-3.39.98-3.61,3.82,0,0-.18,2.35,2.17,2.6"/>
        <path class="cls-6" d="m17.14,23.91s1.16-2.35,3.12-1.84c1.96.51,1.95,2.9,1.95,2.9,0,0,.34-2.82-1.85-3.38-2.46-.63-3.22,2.32-3.22,2.32Z"/>
        <path class="cls-6" d="m35.17,22.37c2.84.22,2.84,3.35,2.84,3.35,0,0-.45-2.75-2.84-2.97-1.66-.15-2.58,1.91-2.58,1.91,0,0,.52-2.46,2.58-2.3Z"/>
        <g>
          <g>
            <path class="cls-6" d="m19.54,23.9s-.02,0,0,0h0Z"/>
            <path class="cls-6" d="m19.59,23.89s0,0,0,0c0,0,0,0,0,0Z"/>
            <path class="cls-6" d="m19.58,23.89s-.03,0-.04,0c0,0,.02,0,.04,0Z"/>
            <path class="cls-6" d="m19.59,23.89c-1.39.01-2.04,4.17-.41,4.32,1.6.15,2.13-4.45.41-4.32Z"/>
          </g>
          <path class="cls-2" d="m19.21,24.5s-.38.2-.47.85c-.1.65-.09.8-.09.8,0,0,.13.11.31.07.18-.03.35-.2.35-.2,0,0-.07-.18.04-.69.11-.51.24-.79.24-.79,0,0-.08-.04-.18-.05-.1-.01-.2.01-.2.01Z"/>
        </g>
        <g>
          <path class="cls-6" d="m36.14,26.15c-.03-.56-.16-1.15-.47-1.39,0,0-.18-.14-.27-.17-.08-.03-.27-.06-.27-.06-1.42-.09-2.08,4.41-.65,4.57,1.03.12,1.75-1.65,1.66-2.95Z"/>
          <path class="cls-2" d="m34.79,25.09s-.38.2-.47.85c-.1.65-.09.8-.09.8,0,0,.13.11.31.07.18-.03.35-.2.35-.2,0,0-.07-.18.04-.69.11-.51.24-.79.24-.79,0,0-.08-.04-.18-.05-.1-.01-.2.01-.2.01Z"/>
        </g>
      </g>
    </g>
  </g>
</svg>