<svg width="40" height="40" viewBox="0 0 40 40" fill="none" xmlns="http://www.w3.org/2000/svg">
    <path d="M13.258 3.136h-.337v.512h.253c.253 0 .421-.17.421-.256 0-.17-.084-.341-.337-.256zM13.595 2.539c0-.17-.084-.256-.42-.256h-.254v.512h.337c.253 0 .338-.17.338-.256zM15.112 3.392c.253 0 .422-.17.422-.512V2.54c0-.341-.085-.512-.337-.427-.253 0-.337.171-.337.512v.342c0 .341.084.426.252.426zM18.989 2.453c.337 0 .421-.085.421-.256 0-.17-.168-.256-.337-.256h-.253v.512h.169zM26.994 3.648s.085 0 0 0c.253 0 .337-.17.337-.427v-.34c0-.342-.084-.513-.337-.513-.252 0-.337.086-.337.427v.341c0 .341.085.512.337.512zM7.528 3.307c-.084 0-.084 0 0 0-.168.256-.168.597-.253.853.169 0 .253-.085.422-.085-.085-.256-.085-.512-.169-.768z" fill="#90949C"/>
    <path d="M5 2.112v10.837c0 .598 0 1.28.084 2.048.169 2.475.759 5.888 2.107 9.472 2.022 5.12 5.562 10.667 12.05 15.019L20 40l.758-.512 1.77-1.28c5.056-3.84 8.09-8.448 9.86-12.715.168-.341.253-.597.337-.938.084-.342.252-.598.337-.939 1.6-4.693 1.938-8.79 1.938-11.008V2.112a54.323 54.323 0 0 0-30 0zm26.798.683h.421s.084 0 .084.085v.768c.253.085.422.085.675.17v-.767s0-.086.084 0c.084 0 .253.085.337.085 0 0 .084 0 .084.085v1.963s0 .085-.084.085-.253-.085-.337-.085c0 0-.084 0-.084-.085v-.854c-.253-.085-.422-.085-.675-.17v.853s0 .085-.084.085-.253-.085-.337-.085c0 0-.084 0-.084-.085V2.795zm-5.646-.086c0-.597.337-.853.674-.853h.168c.422.085.843.341.843 1.024v.341c0 .683-.337.854-.843.768-.421-.085-.842-.341-.842-1.024V2.71zm-2.276 15.616c-.42.086-.842.171-1.264.171-.421 0-.842-.085-1.264-.17L20 16.191l-2.36-.683c-.42-.768-.758-1.621-.842-2.474l1.432-1.963-.168-2.475.253-.256a6.75 6.75 0 0 1 1.77-1.28l2.275.854 2.19-.854a6.751 6.751 0 0 1 1.77 1.28c.084.086.169.171.253.342l-.084 2.474 1.517 1.963c-.085.939-.337 1.792-.759 2.475l-2.36.682-1.01 2.048zm1.18.427v3.072l-.168-.17-2.023-2.39h.253c.59-.085 1.348-.341 1.938-.512zM23.961 1.771c0-.086 0-.086.084-.086h.253c.084 0 .084 0 .084.086.169.256.253.597.421.853.169-.256.253-.512.422-.768 0-.085.084-.085.084-.085h.253c.084 0 .084.085.084.085v1.963H25.225s-.085 0-.085-.086V2.624c-.084.17-.168.256-.252.427 0 0-.085.085-.085 0h-.252s-.085 0-.085-.086l-.253-.512v1.195s0 .085-.084.085H23.708V1.771h.253zm-1.686.341c0-.512.253-.597.59-.597h.084c.337 0 .422.085.506.085l.084.085v.256s0 .086-.084.086h-.59c-.168 0-.168 0-.168.17v.256h.758s.084 0 .084.086v.256s0 .085-.084.085h-.758v.341c0 .171.084.171.168.171h.59c.084-.085.084 0 .084 0v.256s0 .085-.084.085h-.506c-.337 0-.674-.085-.674-.682v-.939zM20.253 1.6c0-.085.084-.085.084-.085h.253c.084 0 .084 0 .084.085.253.427.422.768.674 1.195V1.6s0-.085.085-.085h.337s.084 0 .084.085v1.963c0 .085-.084.085-.084.085h-.253c-.084 0-.084 0-.169-.085-.252-.342-.421-.768-.674-1.11v1.11s0 .085-.084.085h-.337s-.084 0-.084-.085V1.6h.084zm-1.938.085c0-.085 0-.085.168-.17.169 0 .337-.086.59-.086.506 0 .843.171.843.683 0 .341-.169.512-.337.597.168.256.252.512.421.768h-.421l-.085-.085c-.084-.256-.252-.512-.337-.683h-.168v.683s0 .085-.085.085h-.337s-.084 0-.084-.085V1.685h-.168zm-1.939 0s0-.085 0 0c.169-.085.337-.085.422-.085 0 0 .084 0 .084.085v1.28c0 .256.084.427.337.427s.337-.17.337-.427V1.6s0-.085.084-.085h.337s.085 0 .085.085v1.28c0 .683-.337.853-.843.853-.421 0-.843-.085-.843-.768v-1.28zM14.354 2.71c0-.682.337-.938.843-1.024h.084c.421 0 .758.256.758.854v.341c0 .683-.337.939-.842.939-.506 0-.843-.171-.843-.854V2.71zM12.5 2.197c0-.085 0-.17.168-.17.085 0 .338-.086.506-.086h.253c.421 0 .59.171.59.512v.086a.47.47 0 0 1-.253.426c.169.086.253.171.253.427 0 .512-.421.683-.843.768h-.505c-.085 0-.169 0-.169-.17V2.196zm-2.36 1.024c0-.682.422-.938.843-1.024h.337s.085 0 .085.086v.256s0 .085-.085.085H10.9c-.169 0-.337.17-.337.512v.341c0 .342.168.427.337.427.168 0 .337-.085.421-.085 0 0 .085 0 .085.085v.256s0 .085-.085.085c0 0-.084.086-.337.086-.421.085-.843-.086-.843-.768V3.22zm-1.516 0c0-.512.337-.682.674-.768.337-.085.421-.085.505-.085 0 0 .085 0 .085.085v.256s0 .086-.085.086c-.168.085-.337.085-.59.17-.168 0-.168.086-.168.256v.171c.253 0 .506-.085.758-.085 0 0 .085 0 .085.085v.256s0 .085-.085.085c-.252 0-.505 0-.758.086v.853s0 .085-.084.085c-.085 0-.253.086-.337.086 0 0-.085 0-.085-.086V3.221h.085zM6.6 5.184c.169-.597.253-1.195.421-1.877.085-.256.253-.342.506-.427h.169c.168 0 .252.085.252.256.169.512.253 1.11.422 1.621 0 0 0 .086-.084.086-.169 0-.253.085-.422.085h-.084c0-.17-.084-.256-.084-.427-.169 0-.337.086-.59.171 0 .17-.085.341-.085.512 0 0 0 .085-.084.085 0-.085-.168-.085-.337-.085.084 0 0 0 0 0zm2.36 19.2c-.085-.17-.085-.341-.169-.427-.758-1.962-1.264-3.925-1.601-5.632-.337-1.962-.506-3.584-.506-4.864V6.805c5.9-1.536 12.22-1.962 18.371-1.45v1.024c-.758-.342-1.77-.598-2.528-.598-3.623 0-6.404 2.987-6.32 6.742 0 1.536.506 2.986 1.432 4.096-.337.256-.59.512-.758.682l-3.202-.085-.085 1.195h-.674c-.421 0-.674.341-.758.682-.169 0-.337 0-.59.086-.337.085-.506.426-.59.768-.421 0-1.011.17-1.348.512-.422.597-.422 1.536 0 2.133.337.512 2.275 3.328 2.78 4.352.338.768.506 3.243.506 4.437-1.77-2.304-3.033-4.693-3.96-6.997zM20 37.696c-2.528-1.707-4.635-3.755-6.489-5.973 0-.512-.084-3.926-.59-5.035-.59-1.28-2.78-4.437-2.865-4.523-.253-.341-.168-1.024 0-1.28.169-.17.759-.341 1.18-.341h.337v-.341c0-.086 0-.342.084-.427.253-.085.422-.085.59-.085H12.668v-.342s0-.341.17-.426h1.179l.084-1.28 2.95.085.084-.17c.084-.171.421-.513.758-.683.927 1.024 2.191 1.792 3.624 2.048l.843 1.45v.854l.337.938v.683l-.169.341-.253.256-.421.342c-.169.085-.421.085-.59.085h-.421c-.337 0-.506-.085-.506-.085h-.168l-2.697 2.389 1.264 1.365.421.086h.085c.084 0 .337.085.505.085.169.085.337.17.422.341 0 .086.084.256.084.427 0 .17 0 .341-.084.512-.085.17-.169.256-.253.341-.422.256-.759.256-1.096.256h-.758l-.59.512 5.056 5.974c-1.011.512-1.77 1.109-2.528 1.621zm-1.18-11.947.927 1.11c-.253-.086-.505-.086-.59-.086h-.084l-.59-.682.337-.342zm4.298 9.899-4.466-5.205h.421l4.298 5.034c-.084 0-.169.086-.253.171zm.674-.597-4.045-4.779c.084-.085.253-.085.337-.17l3.96 4.693-.252.256zm.759-.683L20.59 29.76c.084-.085.168-.17.168-.256l3.961 4.693-.168.171zm.674-.683-4.214-4.864v-.597l4.466 5.205c-.168.086-.252.171-.252.256zm.59-.682-6.49-7.68.254-.256 6.488 7.594c-.084.171-.168.256-.252.342zm.674-.768L20 24.725l.253-.256 6.404 7.51c0 .085-.084.17-.168.256zm.59-.768-5.983-6.998H21.517l5.73 6.742c0 .085-.084.17-.168.256zm.59-.768-5.478-6.4.253-.086h.084l5.31 6.23c0 .085-.085.17-.17.256zm.59-.854-5.225-6.144s0-.085.084-.085l.084-.256 5.31 6.144c-.17.17-.254.256-.254.341zm.505-.768-5.477-6.4v-.426l-.085-.256 5.73 6.741c0 .085-.084.17-.168.341zm.506-.853-6.32-7.339v-.426l-.59-.854 7.078 8.278c0 .085-.084.17-.168.341zm.253-1.28-2.192-2.475v-7.253c1.096-1.195 1.602-2.816 1.602-4.608 0-1.707-.506-3.243-1.602-4.523V5.611c.59.085 1.517.256 2.192.341v20.992zm.252-23.296c0 .683-.337.768-.842.683-.422-.086-.843-.256-.843-.939V2.197s0-.085.084-.085.253 0 .337.085c0 0 .085 0 .085.086v1.28c0 .256.084.426.337.426.252 0 .337-.085.337-.341v-1.28s0-.085.084-.085.253 0 .337.085c0 0 .084 0 .084.085v1.195zm1.77-.597s-.084 0 0 0c-.169 0-.337 0-.506-.086v1.622s0 .085-.084.085-.253-.085-.337-.085c0 0-.084 0-.084-.086V2.88c-.169 0-.337-.085-.422-.085 0 0-.084 0-.084-.086v-.256s0-.085.084-.085c.422.085.927.17 1.349.256 0 0 .084 0 .084.085v.342zm.168 19.797V6.378c.59.171 1.096.257 1.686.427v6.656a34.136 34.136 0 0 1-1.686 9.387z" fill="#90949C"/>
    <path d="m20.169 11.84.927 2.987h3.033l.927-2.987-2.528-1.877-2.36 1.877z" fill="#90949C"/>
</svg>
