<svg width="32" height="32" viewBox="0 0 32 32" fill="none" xmlns="http://www.w3.org/2000/svg">
<path d="M16.3132 30.0188C24.0807 30.0188 30.3775 23.5973 30.3775 15.676C30.3775 7.75468 24.0807 1.33319 16.3132 1.33319C8.5457 1.33319 2.2489 7.75468 2.2489 15.676C2.2489 23.5973 8.5457 30.0188 16.3132 30.0188Z" fill="white"/>
<path d="M15.0602 1.05506C22.9974 0.358809 29.96 6.34658 30.6562 14.4231C31.074 19.1576 29.1245 23.8922 25.504 26.9557C20.3517 31.4117 12.8322 31.4117 7.54064 27.2342C1.27437 22.3604 0.160361 13.1699 5.03413 6.76433C7.40139 3.56157 11.1612 1.47281 15.0602 1.05506ZM15.1994 1.61206C7.54064 2.16907 1.83137 8.99234 2.52762 16.7904C3.22387 24.5884 9.76865 30.4369 17.4274 29.7407C25.0862 29.0444 30.7955 22.3604 30.0992 14.5624C29.6815 10.1063 27.3142 6.20733 23.6937 3.70082C21.1872 2.16907 18.2629 1.33356 15.1994 1.61206Z" fill="#E40707"/>
<path d="M14.364 2.30836C21.048 1.33361 27.3143 5.51113 29.1245 12.0559C30.0993 15.6764 29.5423 19.8539 27.4535 22.9174C25.504 23.7529 23.4153 23.8922 21.4658 23.8922C18.1238 23.7529 14.7817 22.7782 11.3005 22.7782C9.35097 22.7782 7.40147 22.9174 5.59121 23.7529C1.27445 17.7652 2.5277 9.27089 8.37622 4.81487C10.1865 3.56162 12.136 2.72612 14.364 2.30836ZM16.3135 2.58687C16.035 3.42237 15.7565 4.25787 15.478 5.09337C14.6425 5.09337 13.807 5.09337 12.8322 5.09337C13.5285 5.65038 14.2247 6.06813 14.921 6.62513C14.7817 7.46063 14.5032 8.29614 14.2247 9.27089C14.921 8.71389 15.6172 8.29614 16.3135 7.73913C17.0098 8.29614 17.706 8.71389 18.4023 9.27089C18.1238 8.43539 17.8453 7.59988 17.5668 6.76438C18.263 6.20738 18.9593 5.78963 19.6555 5.23263C18.82 5.23263 17.9845 5.23263 17.0098 5.23263C16.8705 4.25787 16.592 3.42237 16.3135 2.58687ZM10.3257 5.92888C10.1865 6.34663 10.1865 6.76438 10.0472 7.18213L8.79397 7.32138L9.90798 8.01763C9.76873 8.29614 9.76873 8.85314 9.62948 9.27089C10.0472 8.85314 10.3257 8.57464 10.6042 8.29614C11.022 8.57464 11.3005 8.71389 11.7182 8.85314C11.579 8.57464 11.4397 8.15689 11.1612 7.73913C11.4397 7.46063 11.8575 7.18213 12.136 6.90363C11.7182 6.90363 11.3005 6.90363 10.8827 7.04288C10.6042 6.62513 10.465 6.20738 10.3257 5.92888ZM21.7443 7.04288L20.491 6.90363C20.7695 7.18213 21.048 7.46063 21.4658 7.73913C21.3265 8.15689 21.048 8.57464 20.9088 8.85314L22.0228 8.29614C22.3013 8.57464 22.719 8.85314 22.9975 9.13164C22.8583 8.85314 22.8583 8.43539 22.719 8.01763C23.1368 7.87838 23.4153 7.59988 23.833 7.32138L22.5798 7.18213C22.4405 6.76438 22.4405 6.34663 22.3013 5.92888C22.162 6.20738 22.0228 6.62513 21.7443 7.04288ZM6.28746 8.85314C6.28746 9.13164 6.28746 9.41014 6.28746 9.68864L5.59121 9.96714L6.28746 10.1064C6.28746 10.3849 6.28746 10.6634 6.28746 10.9419C6.42671 10.6634 6.56596 10.5241 6.70521 10.2456L7.54072 10.5241L6.98372 9.82789L7.40147 9.13164L6.70521 9.54939C6.56596 9.27089 6.42671 9.13164 6.28746 8.85314ZM25.9218 9.54939L25.2255 9.27089L25.6433 9.82789C25.504 9.96714 25.3648 10.2456 25.0863 10.3849L25.7825 10.2456L26.2003 10.9419V10.1064L27.0358 9.96714L26.3395 9.68864V8.85314L25.9218 9.54939ZM8.23697 10.8026C7.40147 11.0811 6.56596 11.6381 6.14821 12.3344C6.14821 14.9802 6.14821 17.6259 6.14821 20.2717C6.70521 20.6894 7.40147 20.9679 8.09772 21.1072C8.93322 21.3857 9.76873 21.2464 10.6042 21.2464C11.4397 21.2464 12.2752 20.9679 12.9715 20.4109C13.9462 19.5754 14.2247 18.0437 13.6677 16.7904C13.3892 16.0942 12.8322 15.6764 12.136 15.3979C12.9715 14.9802 13.3892 14.2839 13.3892 13.4484C13.3892 12.0559 12.136 10.8026 10.8827 10.6634C9.90798 10.6634 9.07247 10.6634 8.23697 10.8026ZM11.8575 10.6634C12.8322 11.0811 13.3892 11.9166 13.807 12.8914C14.2247 12.8914 14.6425 12.8914 15.0602 12.8914C15.0602 15.6764 15.0602 18.6007 15.0602 21.3857H17.2883C17.2883 18.6007 17.2883 15.6764 17.2883 12.8914C17.706 12.8914 18.1238 12.8914 18.5415 12.8914C19.2378 11.9166 20.0733 11.0811 21.1873 10.6634C17.9845 10.6634 14.921 10.6634 11.8575 10.6634ZM21.3265 10.9419C20.2125 11.3596 19.2378 12.1952 18.6808 13.3092C18.1238 14.5624 17.9845 15.9549 18.1238 17.3474C18.263 18.6007 18.9593 19.8539 19.934 20.5502C20.9088 21.2464 22.162 21.5249 23.276 21.3857C24.39 21.2464 25.6433 20.9679 26.618 20.1324C26.618 18.4614 26.618 16.7904 26.618 14.9802C25.504 14.9802 24.2508 14.9802 23.1368 14.9802C23.1368 15.6764 23.1368 16.2334 23.1368 16.9297H24.5293C24.5293 17.6259 24.5293 18.1829 24.5293 18.8792C23.833 19.4362 22.8583 19.4362 22.0228 19.0184C21.1873 18.6007 20.491 17.7652 20.3518 16.9297C20.2125 15.9549 20.2125 14.9802 20.6303 14.1447C20.9088 13.3092 21.605 12.6129 22.4405 12.4737C23.5545 12.1951 24.5293 12.6129 25.3648 13.3092C25.6433 12.7522 25.9218 12.0559 26.3395 11.4989C25.0863 10.5241 22.9975 10.3849 21.3265 10.9419Z" fill="#E40707"/>
<path d="M8.79385 13.1699C9.35085 12.4737 10.6041 12.6129 11.0219 13.4484C11.1611 13.8662 11.0219 14.5624 10.4649 14.7017C9.7686 14.8409 9.2116 14.7017 8.6546 14.7017C8.6546 14.1447 8.51535 13.5877 8.79385 13.1699ZM8.6546 16.5119C9.35085 16.5119 10.1864 16.3727 10.8826 16.6512C11.9966 17.0689 11.8574 18.8792 10.7434 19.2969C10.0471 19.4362 9.2116 19.4362 8.51535 19.1577C8.6546 18.1829 8.6546 17.3474 8.6546 16.5119ZM12.6929 23.3352C16.5919 23.753 20.3516 24.7277 24.2507 24.31C25.2254 24.1707 26.0609 24.0315 26.8964 23.6137C26.2002 24.4492 25.5039 25.424 24.5292 26.1202C23.8329 26.2595 23.1366 26.1202 22.4404 26.1202C20.3516 25.8417 18.4021 25.1455 16.3134 24.5885C15.3386 24.1707 14.0854 23.6137 12.6929 23.3352ZM10.1864 24.1707C11.8574 24.1707 13.3891 24.7277 15.0601 25.2847C17.7059 26.1202 20.2124 27.2342 22.9974 27.3735C21.8834 28.0697 20.6301 28.6267 19.2376 28.9052C19.0984 28.9052 18.9591 28.766 18.6806 28.766C17.0096 27.7912 15.4779 26.8165 13.8069 25.8417C12.6929 25.1455 11.5789 24.4492 10.1864 24.1707ZM8.0976 26.3987C9.2116 26.538 10.4649 26.6772 11.4396 27.095C12.6929 27.652 13.6676 28.3482 14.7816 29.1837C12.4144 28.9052 10.1864 27.9305 8.0976 26.3987Z" fill="#E40707"/>
</svg>
