<svg width="170" height="56" viewBox="0 0 170 56" fill="none" xmlns="http://www.w3.org/2000/svg">
<path d="M20.0083 6.08436C32.1683 5.01769 42.835 14.191 43.9016 26.5644C44.5416 33.8177 41.555 41.071 36.0083 45.7644C28.115 52.591 16.595 52.591 8.48832 46.191C-1.11168 38.7244 -2.81835 24.6444 4.64832 14.831C8.27498 9.92436 14.035 6.72436 20.0083 6.08436ZM20.2216 6.93769C8.48832 7.79102 -0.258347 18.2444 0.808319 30.191C1.87499 42.1377 11.9017 51.0977 23.635 50.031C35.3683 48.9644 44.115 38.7244 43.0483 26.7777C42.4083 19.951 38.7816 13.9777 33.235 10.1377C29.395 7.79102 24.915 6.51102 20.2216 6.93769Z" fill="#E40707"/>
<path d="M18.941 8.00423C29.181 6.5109 38.781 12.9109 41.5544 22.9376C43.0477 28.4842 42.1944 34.8842 38.9944 39.5775C36.0077 40.8575 32.8077 41.0709 29.821 41.0709C24.701 40.8575 19.581 39.3642 14.2477 39.3642C11.2611 39.3642 8.27439 39.5775 5.50106 40.8575C-1.11227 31.6842 0.807732 18.6709 9.76772 11.8442C12.5411 9.92423 15.5277 8.64423 18.941 8.00423ZM21.9277 8.4309C21.501 9.7109 21.0744 10.9909 20.6477 12.2709C19.3677 12.2709 18.0877 12.2709 16.5944 12.2709C17.6611 13.1242 18.7277 13.7642 19.7944 14.6176C19.581 15.8976 19.1544 17.1776 18.7277 18.6709C19.7944 17.8176 20.861 17.1776 21.9277 16.3242C22.9944 17.1776 24.061 17.8176 25.1277 18.6709C24.701 17.3909 24.2744 16.1109 23.8477 14.8309C24.9144 13.9776 25.981 13.3376 27.0477 12.4842C25.7677 12.4842 24.4877 12.4842 22.9944 12.4842C22.781 10.9909 22.3544 9.7109 21.9277 8.4309ZM12.7544 13.5509C12.5411 14.1909 12.5411 14.8309 12.3277 15.4709L10.4077 15.6842L12.1144 16.7509C11.9011 17.1776 11.9011 18.0309 11.6877 18.6709C12.3277 18.0309 12.7544 17.6042 13.1811 17.1776C13.8211 17.6042 14.2477 17.8176 14.8877 18.0309C14.6744 17.6042 14.4611 16.9642 14.0344 16.3242C14.4611 15.8976 15.1011 15.4709 15.5277 15.0442C14.8877 15.0442 14.2477 15.0442 13.6077 15.2576C13.1811 14.6176 12.9677 13.9776 12.7544 13.5509ZM30.2477 15.2576L28.3277 15.0442C28.7544 15.4709 29.181 15.8976 29.821 16.3242C29.6077 16.9642 29.181 17.6042 28.9677 18.0309L30.6744 17.1776C31.101 17.6042 31.741 18.0309 32.1677 18.4576C31.9544 18.0309 31.9544 17.3909 31.741 16.7509C32.381 16.5376 32.8077 16.1109 33.4477 15.6842L31.5277 15.4709C31.3144 14.8309 31.3144 14.1909 31.101 13.5509C30.8877 13.9776 30.6744 14.6176 30.2477 15.2576ZM6.56773 18.0309C6.56773 18.4576 6.56773 18.8842 6.56773 19.3109L5.50106 19.7376L6.56773 19.9509C6.56773 20.3776 6.56773 20.8042 6.56773 21.2309C6.78106 20.8042 6.99439 20.5909 7.20773 20.1642L8.48772 20.5909L7.63439 19.5242L8.27439 18.4576L7.20773 19.0976C6.99439 18.6709 6.78106 18.4576 6.56773 18.0309ZM36.6477 19.0976L35.581 18.6709L36.221 19.5242C36.0077 19.7376 35.7944 20.1642 35.3677 20.3776L36.4344 20.1642L37.0744 21.2309V19.9509L38.3544 19.7376L37.2877 19.3109V18.0309L36.6477 19.0976ZM9.55439 21.0176C8.27439 21.4442 6.99439 22.2976 6.35439 23.3642C6.35439 27.4176 6.35439 31.4709 6.35439 35.5242C7.20773 36.1642 8.27439 36.5909 9.34106 36.8042C10.6211 37.2309 11.9011 37.0175 13.1811 37.0175C14.4611 37.0175 15.7411 36.5909 16.8077 35.7375C18.301 34.4575 18.7277 32.1109 17.8744 30.1909C17.4477 29.1242 16.5944 28.4842 15.5277 28.0576C16.8077 27.4176 17.4477 26.3509 17.4477 25.0709C17.4477 22.9376 15.5277 21.0176 13.6077 20.8042C12.1144 20.8042 10.8344 20.8042 9.55439 21.0176ZM15.1011 20.8042C16.5944 21.4442 17.4477 22.7242 18.0877 24.2176C18.7277 24.2176 19.3677 24.2176 20.0077 24.2176C20.0077 28.4842 20.0077 32.9642 20.0077 37.2309H23.421C23.421 32.9642 23.421 28.4842 23.421 24.2176C24.061 24.2176 24.701 24.2176 25.341 24.2176C26.4077 22.7242 27.6877 21.4442 29.3944 20.8042C24.4877 20.8042 19.7944 20.8042 15.1011 20.8042ZM29.6077 21.2309C27.901 21.8709 26.4077 23.1509 25.5544 24.8576C24.701 26.7776 24.4877 28.9109 24.701 31.0442C24.9144 32.9642 25.981 34.8842 27.4744 35.9509C28.9677 37.0175 30.8877 37.4442 32.5944 37.2309C34.301 37.0175 36.221 36.5909 37.7144 35.3109C37.7144 32.7509 37.7144 30.1909 37.7144 27.4176C36.0077 27.4176 34.0877 27.4176 32.381 27.4176C32.381 28.4842 32.381 29.3376 32.381 30.4042H34.5144C34.5144 31.4709 34.5144 32.3242 34.5144 33.3909C33.4477 34.2442 31.9544 34.2442 30.6744 33.6042C29.3944 32.9642 28.3277 31.6842 28.1144 30.4042C27.901 28.9109 27.901 27.4176 28.541 26.1376C28.9677 24.8576 30.0344 23.7909 31.3144 23.5776C33.021 23.1509 34.5144 23.7909 35.7944 24.8576C36.221 24.0042 36.6477 22.9376 37.2877 22.0842C35.3677 20.5909 32.1677 20.3776 29.6077 21.2309Z" fill="#E40707"/>
<path d="M68.2216 26.7773C68.6483 27.2039 69.2883 27.6306 69.715 28.0573C69.2883 28.2706 69.075 28.4839 68.6483 28.6973C69.2883 29.7639 69.2883 31.2573 68.8616 32.3239C68.2216 33.3906 66.9416 34.0306 65.6616 34.0306C65.0216 34.0306 64.595 33.8173 63.955 34.2439C63.7417 34.2439 63.315 34.6706 63.7416 34.8839C64.1683 35.0973 64.595 34.8839 65.0217 34.8839C66.3017 34.6706 67.5817 34.6706 68.6483 35.3106C69.9283 36.1639 69.715 38.5106 68.435 39.3639C66.3016 40.8573 63.1017 40.6439 60.9683 39.1506C61.395 38.5106 62.035 38.0839 62.4616 37.4439C63.7416 38.5106 65.4483 38.7239 66.9416 38.0839C67.3683 37.8706 67.3683 37.4439 67.155 37.2306C67.155 37.0173 66.9416 37.0173 66.7283 36.8039C65.4483 36.3773 64.1683 37.0173 62.8883 36.8039C62.2483 36.8039 61.395 36.3773 61.395 35.5239C61.1816 34.6706 62.035 34.0306 62.675 33.8173C60.9683 32.9639 60.5417 30.6173 61.6083 29.1239C62.8883 27.4173 65.235 27.2039 67.155 28.0573L68.2216 26.7773ZM64.595 29.3373C63.5283 29.7639 63.315 31.4706 64.1683 32.1106C64.595 32.5373 65.4483 32.7506 66.0883 32.5373C67.155 32.1106 67.3683 30.8306 66.7283 29.9773C66.3016 29.1239 65.235 29.1239 64.595 29.3373ZM166.995 27.8439C167.208 27.6306 167.635 27.2039 167.848 26.7773C168.275 27.2039 168.915 27.6306 169.342 28.0573C168.915 28.2706 168.702 28.4839 168.275 28.6973C168.915 29.7639 168.915 30.8306 168.488 31.8973C168.062 32.9639 166.995 33.8173 165.928 33.8173C165.288 34.0306 164.648 33.8173 164.222 33.8173C163.795 34.0306 163.368 34.0306 163.368 34.4573C163.795 34.8839 164.222 34.6706 164.648 34.6706C165.928 34.4573 167.208 34.4573 168.275 35.0973C169.555 35.9506 169.555 38.0839 168.488 38.9373C167.422 39.7906 165.928 40.2173 164.435 40.0039C163.155 40.0039 161.875 39.5773 160.808 38.7239C161.235 38.0839 161.875 37.6573 162.302 37.0173C163.155 37.6573 164.222 38.0839 165.288 38.0839C165.928 38.0839 166.782 37.8706 166.995 37.2306C167.208 36.8039 166.782 36.1639 166.355 36.1639C165.075 35.9506 163.582 36.5906 162.088 36.1639C161.448 35.9506 161.022 35.5239 161.022 34.8839C161.022 34.0306 161.662 33.6039 162.302 33.1773C160.595 32.3239 160.168 29.9773 161.235 28.4839C162.728 27.2039 165.288 26.9906 166.995 27.8439ZM164.222 29.3373C162.942 29.7639 162.942 31.8973 164.008 32.3239C164.648 32.7506 165.928 32.5373 166.355 31.8973C166.782 31.2573 166.782 30.1906 166.142 29.5506C165.715 29.1239 164.862 29.1239 164.222 29.3373ZM87.8483 28.2706C89.3416 26.9906 91.6883 26.9906 93.1816 28.2706C94.4616 27.2039 96.595 26.9906 98.0883 27.8439C98.9416 28.4839 99.3683 29.5506 99.3683 30.4039C99.3683 32.5373 99.3683 34.4573 99.3683 36.5906H97.0216C97.0216 34.6706 97.0216 32.9639 97.0216 31.0439C97.0216 30.4039 97.0216 29.7639 96.3816 29.5506C95.5283 28.9106 94.2483 29.1239 93.6083 30.1906C93.6083 32.3239 93.6083 34.6706 93.6083 36.8039H91.2616C91.2616 34.6706 91.2616 32.7506 91.2616 30.6173C91.2616 29.3373 89.7683 28.9106 88.915 29.5506C88.4883 29.7639 88.0616 29.9773 88.0616 30.6173C88.0616 32.7506 88.0616 34.8839 88.0616 37.0173H85.715V27.8439H87.4216L87.8483 28.2706ZM101.288 29.1239C102.995 27.2039 106.195 26.9906 108.115 28.4839C109.395 29.5506 109.822 31.2573 109.395 32.9639C107.048 32.9639 104.702 32.9639 102.568 32.9639C102.568 33.8173 103.208 34.6706 104.062 35.0973C105.342 35.5239 106.622 35.3106 107.688 34.4573C107.902 35.0973 108.328 35.5239 108.542 36.1639C107.262 37.0173 105.555 37.2306 104.062 37.0173C102.568 36.8039 101.075 35.7373 100.435 34.2439C99.795 32.5373 100.008 30.4039 101.288 29.1239ZM104.062 29.3373C103.208 29.5506 102.782 30.4039 102.568 31.2573C104.062 31.2573 105.768 31.2573 107.262 31.2573C107.048 30.6173 107.048 29.9773 106.408 29.7639C105.768 29.1239 104.915 29.1239 104.062 29.3373ZM123.688 27.8439C125.395 27.2039 127.102 27.2039 128.808 27.6306C129.875 28.0573 130.515 28.9106 130.515 29.9773C130.942 31.6839 130.515 33.1773 130.728 34.8839C130.728 35.5239 130.942 35.9506 131.368 36.3773C130.942 37.0173 130.302 37.0173 129.662 37.0173C129.235 36.8039 128.808 36.3773 128.595 35.9506C127.955 36.5906 126.888 37.0173 126.035 37.0173C124.968 37.0173 123.902 36.8039 123.262 36.1639C122.408 35.3106 122.408 34.2439 122.622 33.1773C122.835 32.1106 123.902 31.4706 124.755 31.2573C125.822 30.8306 127.102 30.8306 128.168 31.0439C128.168 30.4039 127.955 29.9773 127.315 29.7639C126.248 29.3373 124.968 29.5506 123.902 29.9773C123.902 29.1239 123.688 28.4839 123.688 27.8439ZM125.608 32.7506C124.755 33.1773 124.755 34.6706 125.608 35.0973C126.462 35.3106 127.315 35.3106 127.955 34.6706C128.595 34.0306 128.382 33.1773 128.382 32.3239C127.528 32.3239 126.462 32.3239 125.608 32.7506ZM134.142 28.2706C135.635 26.9906 137.982 26.9906 139.475 28.2706C140.755 27.2039 142.888 26.9906 144.382 27.8439C145.235 28.4839 145.662 29.5506 145.662 30.4039C145.662 32.5373 145.662 34.4573 145.662 36.5906H143.315C143.315 34.6706 143.315 32.9639 143.315 31.0439C143.315 30.4039 143.315 29.7639 142.675 29.3373C141.822 28.6973 140.542 28.9106 139.902 29.9773C139.902 32.1106 139.902 34.4573 139.902 36.5906H137.555C137.555 34.4573 137.555 32.5373 137.555 30.4039C137.555 29.1239 136.062 28.6973 134.995 29.3373C134.995 29.5506 134.355 29.9773 134.355 30.4039C134.355 32.5373 134.355 34.6706 134.355 36.8039H132.008C132.008 33.8173 132.008 30.6173 132.008 27.6306H133.502C133.928 27.8439 134.142 28.0573 134.142 28.2706ZM153.768 28.4839C154.835 27.4173 156.542 27.2039 158.035 27.6306C159.315 28.0573 160.168 29.3373 160.168 30.6173C160.168 32.7506 160.168 34.6706 160.168 36.8039H157.822C157.822 35.0973 157.822 33.1773 157.822 31.4706C157.822 30.8306 157.608 29.9773 156.968 29.5506C155.902 28.9106 154.622 29.3373 153.768 30.1906C153.768 32.3239 153.768 34.6706 153.768 36.8039H151.422C151.422 33.8173 151.422 30.6173 151.422 27.6306H153.128C153.555 27.8439 153.555 28.0573 153.768 28.4839ZM56.7017 27.6306H60.3283C60.3283 30.6173 60.3283 33.8173 60.3283 36.8039H57.9817C57.9817 34.2439 57.9817 31.8973 57.9817 29.3373H56.7017C56.7017 28.6973 56.7017 28.2706 56.7017 27.6306ZM80.595 27.6306H84.2216V36.8039H81.875C81.875 34.2439 81.875 31.8973 81.875 29.3373C81.4483 29.3373 81.0216 29.3373 80.595 29.3373V27.6306ZM146.515 27.6306H150.142C150.142 30.6173 150.142 33.8173 150.142 36.8039H147.795C147.795 34.2439 147.795 31.8973 147.795 29.3373H146.515C146.515 28.6973 146.515 28.2706 146.515 27.6306ZM113.662 25.2839C114.942 24.2173 116.862 24.0039 118.568 24.0039C119.635 24.0039 120.702 24.4306 121.768 25.2839C121.342 25.9239 121.128 26.5639 120.702 26.9906C119.635 26.1373 118.142 25.7106 116.862 26.1373C115.368 26.3506 114.302 27.6306 113.875 29.1239C113.662 30.4039 113.662 32.1106 114.302 33.3906C115.368 35.0973 118.142 35.7373 119.848 34.4573C119.848 33.6039 119.848 32.7506 119.848 31.8973H117.928C117.928 31.2573 117.928 30.6173 117.928 29.9773C119.422 29.9773 120.702 29.9773 122.195 29.9773C122.195 31.8973 122.195 33.8173 122.195 35.5239C120.702 36.5906 118.995 36.8039 117.288 36.8039C115.582 36.8039 113.875 36.1639 112.808 35.0973C111.315 33.6039 110.888 31.2573 111.315 29.1239C111.742 27.6306 112.382 26.3506 113.662 25.2839ZM47.5283 24.2173C48.8083 24.2173 50.0883 24.0039 51.3683 24.0039C52.435 24.0039 53.715 24.2173 54.5683 24.8573C55.4217 25.4973 55.8483 26.7773 55.4217 27.8439C55.2083 28.6973 54.5683 29.1239 53.9283 29.5506C54.7817 29.7639 55.635 30.4039 56.0617 31.2573C56.7017 32.5373 56.4883 34.0306 55.635 35.0973C54.5683 36.1639 53.075 36.5906 51.795 36.5906C50.3017 36.5906 49.0217 36.5906 47.5283 36.5906V24.2173ZM49.875 25.9239C49.875 26.9906 49.875 27.8439 49.875 28.9106C50.7283 28.9106 51.795 29.1239 52.435 28.6973C53.2883 28.2706 53.5017 26.7773 52.6483 26.1373C51.795 25.9239 50.7283 25.9239 49.875 25.9239ZM49.875 30.8306C49.875 32.1106 49.875 33.6039 49.875 34.8839C50.9417 34.8839 51.795 35.0973 52.8617 34.6706C54.355 34.2439 54.5683 31.4706 52.8617 31.0439C51.795 30.6173 50.9417 30.8306 49.875 30.8306ZM56.7017 24.2173H60.115C60.115 24.8573 60.115 25.4973 60.115 26.1373C58.835 26.1373 57.7683 26.1373 56.4883 26.1373C56.7017 25.4973 56.7017 24.8573 56.7017 24.2173ZM70.5683 24.2173C73.7683 24.2173 76.755 24.2173 79.955 24.2173C79.955 24.8573 79.955 25.4973 79.955 26.1373H77.1816C77.1816 29.5506 77.1816 33.1773 77.1816 36.8039C76.3283 36.8039 75.6883 36.8039 74.835 36.8039C74.835 33.1773 74.835 29.7639 74.835 26.1373H70.5683V24.2173ZM80.595 26.1373C80.595 25.4973 80.595 24.8573 80.595 24.2173C81.6616 24.2173 82.9416 24.2173 84.0083 24.2173V26.1373C82.9416 26.1373 81.875 26.1373 80.595 26.1373ZM146.515 24.2173C147.582 24.2173 148.862 24.2173 150.142 24.2173C150.142 24.8573 150.142 25.4973 150.142 26.1373C149.075 26.1373 147.795 26.1373 146.728 26.1373C146.515 25.4973 146.515 24.8573 146.515 24.2173Z" fill="#E40707"/>
<path d="M10.4075 24.6444C11.2608 23.5777 13.1808 23.791 13.8208 25.071C14.0342 25.711 13.8208 26.7777 12.9675 26.9911C11.9008 27.2044 11.0475 26.9911 10.1942 26.9911C10.1942 26.1377 9.98082 25.2844 10.4075 24.6444ZM10.1942 29.7644C11.2608 29.7644 12.5408 29.551 13.6075 29.9777C15.3142 30.6177 15.1008 33.3911 13.3942 34.0311C12.3275 34.2444 11.0475 34.2444 9.98082 33.8177C10.1942 32.3244 10.1942 31.0444 10.1942 29.7644ZM16.3808 40.2177C22.3541 40.8577 28.1141 42.3511 34.0875 41.7111C35.5808 41.4977 36.8608 41.2844 38.1408 40.6444C37.0741 41.9244 36.0075 43.4177 34.5141 44.4844C33.4475 44.6977 32.3808 44.4844 31.3141 44.4844C28.1141 44.0577 25.1275 42.9911 21.9275 42.1377C20.4342 41.4977 18.5142 40.6444 16.3808 40.2177ZM12.5408 41.4977C15.1008 41.4977 17.4475 42.3511 20.0075 43.2044C24.0608 44.4844 27.9008 46.1911 32.1675 46.4044C30.4608 47.4711 28.5408 48.3244 26.4075 48.7511C26.1941 48.7511 25.9808 48.5377 25.5541 48.5377C22.9941 47.0444 20.6475 45.5511 18.0875 44.0577C16.3808 42.9911 14.6742 41.9244 12.5408 41.4977ZM9.34082 44.9111C11.0475 45.1244 12.9675 45.3377 14.4608 45.9777C16.3808 46.8311 17.8742 47.8977 19.5808 49.1777C15.9542 48.7511 12.5408 47.2577 9.34082 44.9111Z" fill="#E40707"/>
</svg>
