<svg width="32" height="32" viewBox="0 0 32 32" fill="none" xmlns="http://www.w3.org/2000/svg">
<path d="M16 32C24.8366 32 32 24.8366 32 16C32 7.16344 24.8366 0 16 0C7.16344 0 0 7.16344 0 16C0 24.8366 7.16344 32 16 32Z" fill="url(#paint0_linear_1987_4836)"/>
<path d="M30.5536 13.3786C30.0113 11.7514 28.3842 10.4859 26.5762 10.4859C24.226 10.4859 22.4181 12.3842 22.4181 14.6441C22.4181 16.904 24.3164 18.8023 26.5762 18.8023C27.4802 18.8023 28.2938 18.5311 29.0169 18.0791C28.8361 18.3503 28.6553 18.7119 28.3842 18.8927C27.5706 19.6158 26.4859 20.0678 25.2203 19.9774C24.4972 19.9774 23.774 19.7966 23.1412 19.4351L20.7909 18.0791L20.5197 18.1695C20.7909 17.5367 20.9717 16.8136 20.9717 16.0904C20.9717 13.1978 18.6214 10.7571 15.6384 10.7571C12.6553 10.7571 10.3051 13.1074 10.3051 16.0904C10.3051 16.8136 10.3955 17.4464 10.6666 17.9887V18.0791L8.40675 19.3447C7.77399 19.7062 7.05082 19.9774 6.23726 19.9774C4.06777 19.9774 2.25986 18.1695 2.25986 16C2.25986 13.8305 4.06777 12.0226 6.23726 12.0226C7.32201 12.0226 8.40675 12.4746 9.12992 13.1978L10.0339 12.113C9.22031 11.2091 7.86438 10.5763 6.41805 10.5763C3.435 10.5763 0.994324 13.017 0.994324 16C0.994324 18.9831 3.435 21.4238 6.41805 21.4238C7.4124 21.4238 8.31636 21.1526 9.12992 20.7006L11.4802 19.3447C12.4746 20.6102 14.0113 21.4238 15.7288 21.4238C17.3559 21.4238 18.8926 20.7006 19.7966 19.4351V19.3447L19.887 19.4351L22.0565 20.7006C22.1469 20.7006 22.2373 20.791 22.3277 20.791C23.1412 21.243 24.0452 21.5142 25.0395 21.5142C25.1299 21.5142 25.2203 21.5142 25.2203 21.5142C26.8474 21.5142 28.2034 20.9718 29.1977 19.9774C30.2825 18.8927 30.9152 17.356 30.9152 15.6384C31.0056 14.8249 30.8248 14.1017 30.5536 13.3786ZM15.6384 19.9774C13.4689 19.9774 11.7514 18.2599 11.7514 16.0904C11.7514 13.9209 13.4689 12.2034 15.6384 12.2034C17.8079 12.2034 19.5254 13.9209 19.5254 16.0904C19.5254 16.6328 19.435 17.1752 19.2542 17.6271C18.1695 16.9944 16.9943 16.7232 15.7288 16.7232C14.7344 16.7232 13.7401 16.904 12.8361 17.1752C13.0169 17.6271 13.2881 18.0791 13.6497 18.4407C14.2825 18.2599 15.0056 18.1695 15.7288 18.1695C16.6327 18.1695 17.6271 18.4407 18.4407 18.8927V18.9831C17.8079 19.5254 16.8135 19.9774 15.6384 19.9774ZM26.5762 17.5367C25.0395 17.5367 23.774 16.2712 23.774 14.7345C23.774 13.1978 25.0395 11.9322 26.5762 11.9322C28.113 11.9322 29.3785 13.1978 29.3785 14.7345C29.3785 16.2712 28.113 17.5367 26.5762 17.5367Z" fill="#231F20"/>
<path d="M3.97743 18.3503C3.88703 18.3503 3.88703 18.2599 3.79664 18.2599C3.70624 18.1695 3.70624 18.1695 3.70624 18.0791C3.70624 17.9887 3.61584 17.9887 3.61584 17.8983C3.61584 17.8079 3.61584 17.8079 3.61584 17.7175C3.61584 17.6271 3.61584 17.6271 3.70624 17.5368C3.70624 17.4464 3.79664 17.4464 3.88703 17.356C3.97743 17.356 3.97743 17.2656 4.06782 17.2656C4.15822 17.2656 4.15822 17.2656 4.24861 17.2656C4.33901 17.2656 4.33901 17.2656 4.4294 17.356C4.5198 17.356 4.5198 17.4464 4.6102 17.5368C4.6102 17.6271 4.70059 17.6271 4.70059 17.7175C4.70059 17.8079 4.70059 17.8079 4.70059 17.8983H4.5198V17.8079C4.5198 17.8079 4.5198 17.7175 4.4294 17.7175L4.33901 17.6271H4.24861H4.15822C4.15822 17.6271 4.06782 17.6271 4.06782 17.7175L3.97743 17.8079C3.97743 17.8079 3.97743 17.8983 3.88703 17.8983V17.9887C3.88703 17.9887 3.88703 18.0791 3.97743 18.0791L4.06782 18.1695C4.06782 18.1695 4.15822 18.1695 4.15822 18.2599L4.24861 18.1695L4.15822 17.9887V17.8079L4.33901 18.0791L3.97743 18.3503Z" fill="#231F20"/>
<path d="M4.97177 17.9887L5.15256 18.0791L4.97177 19.0735L4.79097 18.9831L4.88137 18.8023L4.61018 18.6215L4.2486 18.7119L4.06781 18.6215L4.97177 17.9887ZM4.88137 18.2599L4.61018 18.4407L4.79097 18.5311L4.88137 18.2599Z" fill="#231F20"/>
<path d="M5.33341 18.3503L5.6046 18.4407L5.69499 19.0735L6.05657 18.5311L6.32776 18.6215L6.14697 19.5255L5.96618 19.4351L6.14697 18.7119L5.69499 19.3447H5.5142L5.4238 18.6215L5.24301 19.3447L5.15262 19.2543L5.33341 18.3503Z" fill="#231F20"/>
<path d="M6.59888 18.6215H6.77967L6.96046 19.5255H6.77967L6.59888 18.6215Z" fill="#231F20"/>
<path d="M7.05084 18.5311L7.32203 18.4407L7.9548 18.8927L7.68361 18.2599L7.8644 18.1695L8.22598 18.9831L7.9548 19.0734L7.32203 18.6215L7.59322 19.2542L7.41242 19.3446L7.05084 18.5311Z" fill="#231F20"/>
<path d="M9.22037 18.4407C9.22037 18.5311 9.12997 18.5311 9.03958 18.6215C8.94918 18.6215 8.94918 18.7119 8.85878 18.7119C8.85878 18.7119 8.76839 18.7119 8.67799 18.7119C8.5876 18.7119 8.5876 18.7119 8.4972 18.7119C8.40681 18.7119 8.40681 18.6215 8.31641 18.6215C8.22602 18.6215 8.22602 18.5311 8.22602 18.4407C8.22602 18.3503 8.13562 18.3503 8.13562 18.2599C8.13562 18.1695 8.13562 18.1695 8.13562 18.0791C8.13562 17.9887 8.22602 17.9887 8.22602 17.8983C8.22602 17.8079 8.31641 17.8079 8.40681 17.8079C8.4972 17.8079 8.4972 17.7175 8.5876 17.7175C8.67799 17.7175 8.67799 17.7175 8.76839 17.7175V17.8983H8.67799H8.5876C8.5876 17.8983 8.4972 17.8983 8.4972 17.9887C8.4972 17.9887 8.4972 18.0791 8.40681 18.0791V18.1695V18.2599C8.40681 18.2599 8.40681 18.3503 8.4972 18.3503L8.5876 18.4407H8.67799H8.76839C8.76839 18.4407 8.85878 18.4407 8.85878 18.3503C8.85878 18.3503 8.85878 18.3503 8.94918 18.2599L8.85878 18.0791L8.76839 18.2599L8.67799 18.0791L9.03958 17.8983L9.22037 18.4407Z" fill="#231F20"/>
<defs>
<linearGradient id="paint0_linear_1987_4836" x1="15.9971" y1="0.344407" x2="15.9971" y2="31.3773" gradientUnits="userSpaceOnUse">
<stop stop-color="#FDD500"/>
<stop offset="0.0114528" stop-color="#FDD401"/>
<stop offset="0.2474" stop-color="#FAB90D"/>
<stop offset="0.4885" stop-color="#F8A616"/>
<stop offset="0.7362" stop-color="#F79B1B"/>
<stop offset="1" stop-color="#F7971D"/>
</linearGradient>
</defs>
</svg>
