<svg width="90" height="56" viewBox="0 0 90 56" fill="none" xmlns="http://www.w3.org/2000/svg">
<path d="M88.658 19.9653C86.8966 14.8953 82.1994 11.2001 76.6636 11.2001C69.7018 11.2001 64.082 16.9577 64.082 24.0901C64.082 31.2226 69.7018 36.9802 76.6636 36.9802C79.3476 36.9802 81.8639 36.1208 83.877 34.66C83.3737 35.6052 82.7027 36.4646 81.9478 37.238C79.5993 39.5582 76.3281 40.7612 72.3858 40.5894C70.1212 40.5034 67.9404 39.9019 66.0951 38.8707L59.0494 34.7459L58.63 34.574C59.4688 32.5976 59.972 30.3633 59.972 28.0431C59.972 19.0201 52.8425 11.7157 44.0354 11.7157C35.2283 11.7157 28.0988 19.0201 28.0988 28.0431C28.0988 30.1055 28.5182 32.1679 29.1892 33.9725L29.2731 34.1444L22.5629 38.1832C20.7176 39.3863 18.4529 40.1597 16.1044 40.1597C9.56198 40.1597 4.19385 34.66 4.19385 27.9572C4.19385 21.2543 9.56198 15.6687 16.1044 15.6687C19.4595 15.6687 22.479 17.1295 24.6598 19.3638L27.4278 16.1843C24.4921 13.2625 20.466 11.372 16.1044 11.372C7.21342 11.372 0 18.7623 0 27.9572C0 37.0661 7.21342 44.4564 16.1044 44.4564C19.124 44.4564 21.8919 43.5971 24.3243 42.1362L31.37 37.9254C34.3057 41.8784 38.835 44.3705 44.0354 44.3705C48.9842 44.3705 53.4296 42.0503 56.3653 38.3551L56.4492 38.1832L56.8686 38.3551L63.411 42.1362C63.6626 42.3081 63.8304 42.394 64.082 42.5659C66.5145 43.9408 69.3663 44.7142 72.302 44.8001C72.5536 44.8001 72.7213 44.8001 72.973 44.8001C77.754 44.8001 81.8639 43.2533 84.8835 40.1597C88.1547 36.8942 90 32.082 90 26.6682C90 24.4339 89.4967 22.1137 88.658 19.9653ZM44.0354 40.1597C37.5769 40.1597 32.2926 34.7459 32.2926 28.129C32.2926 21.5121 37.5769 16.0983 44.0354 16.0983C50.4939 16.0983 55.7782 21.5121 55.7782 28.129C55.7782 29.7618 55.4427 31.3086 54.8555 32.7694C51.5843 30.8789 47.9776 29.9336 44.287 29.9336C41.2675 29.9336 38.3318 30.4492 35.7316 31.3086C36.2349 32.7694 36.9898 34.0584 38.0802 35.0896C40.0932 34.4881 42.1901 34.2303 44.3709 34.2303C47.1389 34.2303 49.9907 35.0037 52.5909 36.3786L52.507 36.5505C50.2423 38.7848 47.3066 40.1597 44.0354 40.1597ZM76.6636 32.7694C72.0503 32.7694 68.2759 28.9024 68.2759 24.1761C68.2759 19.4497 72.0503 15.5827 76.6636 15.5827C81.2768 15.5827 85.0513 19.4497 85.0513 24.1761C85.1351 28.9024 81.3607 32.7694 76.6636 32.7694Z" fill="url(#paint0_linear_267_3519)"/>
<path d="M8.89095 35.1756C8.72319 35.0897 8.55544 34.9178 8.38769 34.8319C8.21993 34.66 8.13606 34.4882 7.9683 34.3163C7.88442 34.1444 7.80055 33.9726 7.71667 33.7148C7.63279 33.5429 7.63279 33.2851 7.71667 33.1132C7.71667 32.9414 7.80055 32.7695 7.9683 32.5976C8.05218 32.4258 8.21993 32.2539 8.38769 32.168C8.55544 32.082 8.72319 31.9961 8.97483 31.9102C9.14258 31.9102 9.39421 31.9102 9.56196 31.9102C9.72972 31.9102 9.89747 31.9961 10.0652 32.168C10.233 32.2539 10.4007 32.4258 10.4846 32.5976C10.5685 32.7695 10.7362 32.9414 10.7362 33.1992C10.8201 33.371 10.8201 33.5429 10.8201 33.8007L10.1491 33.7148C10.1491 33.6288 10.1491 33.457 10.1491 33.371C10.1491 33.2851 10.0652 33.1132 9.98135 33.0273C9.89747 32.9414 9.8136 32.8554 9.72972 32.7695C9.64584 32.6836 9.56196 32.6836 9.39421 32.6836C9.31033 32.6836 9.14258 32.6836 9.0587 32.6836C8.97483 32.6836 8.80707 32.7695 8.72319 32.8554C8.63932 32.9414 8.55544 33.0273 8.47156 33.1132C8.38769 33.1132 8.38769 33.1992 8.38769 33.2851C8.38769 33.371 8.38769 33.5429 8.38769 33.6288C8.38769 33.7148 8.47156 33.8866 8.55544 33.9726C8.63932 34.0585 8.72319 34.1444 8.80707 34.2304C8.89095 34.3163 8.97483 34.3163 8.97483 34.4022L9.31033 34.1444L9.0587 33.7148L9.56196 33.371L10.1491 34.3163L8.89095 35.1756Z" fill="#F7971D"/>
<path d="M11.9105 34.2304L12.3299 34.5741L11.6589 37.5818L11.0717 37.1521L11.2395 36.5506L10.3168 35.8631L9.81359 36.2068L9.22645 35.7772L11.9105 34.2304ZM11.575 35.0038L10.8201 35.5194L11.4073 35.949L11.575 35.0038Z" fill="#F7971D"/>
<path d="M13.0848 35.1757L14.0075 35.4335L14.1752 37.41L15.2656 35.7772L16.1883 36.035L15.5173 38.699L14.9301 38.5271L15.4334 36.3788L14.1752 38.3552L13.7558 38.2693L13.5881 35.9491L13.0848 38.0974L12.4977 37.9256L13.0848 35.1757Z" fill="#F7971D"/>
<path d="M16.7754 35.949L17.3625 35.8631L17.7819 38.6989L17.1948 38.7848L16.7754 35.949Z" fill="#F7971D"/>
<path d="M18.0336 35.6053L18.7885 35.2616L20.6338 36.6365L19.8789 34.8319L20.466 34.5741L21.5564 37.2381L20.8015 37.5818L18.9562 36.1209L19.7111 38.0115L19.124 38.2693L18.0336 35.6053Z" fill="#F7971D"/>
<path d="M24.576 35.3475C24.4921 35.5193 24.3243 35.6912 24.1566 35.7771C23.9888 35.8631 23.8211 36.0349 23.6533 36.1209C23.4856 36.2068 23.2339 36.2927 23.0662 36.2927C22.8984 36.2927 22.6468 36.2927 22.479 36.2068C22.3113 36.1209 22.1435 36.0349 21.9758 35.949C21.808 35.7771 21.7241 35.6053 21.6403 35.4334C21.5564 35.2615 21.4725 35.0037 21.4725 34.8319C21.4725 34.66 21.4725 34.4022 21.5564 34.2303C21.6403 34.0585 21.7241 33.8866 21.8919 33.7147C22.0596 33.5429 22.2274 33.4569 22.3952 33.371C22.5629 33.2851 22.8145 33.1991 22.9823 33.1991C23.15 33.1991 23.4017 33.1991 23.5694 33.1991L23.4017 33.8007C23.3178 33.8007 23.15 33.7147 23.0662 33.7147C22.9823 33.7147 22.8145 33.8007 22.6468 33.8007C22.5629 33.8866 22.3952 33.9725 22.3952 34.0585C22.3113 34.1444 22.2274 34.2303 22.2274 34.3163C22.2274 34.4022 22.1435 34.5741 22.2274 34.66C22.2274 34.7459 22.3113 34.9178 22.3113 35.0037C22.3952 35.0897 22.479 35.2615 22.5629 35.3475C22.6468 35.4334 22.7307 35.5193 22.8145 35.5193C22.8984 35.5193 23.0662 35.6053 23.15 35.6053C23.2339 35.6053 23.4017 35.6053 23.4856 35.5193C23.5694 35.4334 23.7372 35.4334 23.7372 35.3475C23.8211 35.2615 23.9049 35.1756 23.9049 35.1756L23.7372 34.7459L23.3178 35.0037L23.0662 34.4881L24.0727 33.9725L24.576 35.3475Z" fill="#F7971D"/>
<defs>
<linearGradient id="paint0_linear_267_3519" x1="44.9867" y1="18.3392" x2="44.9867" y2="62.8028" gradientUnits="userSpaceOnUse">
<stop stop-color="#FDD500"/>
<stop offset="0.0114528" stop-color="#FDD401"/>
<stop offset="0.2474" stop-color="#FAB90D"/>
<stop offset="0.4885" stop-color="#F8A616"/>
<stop offset="0.7362" stop-color="#F79B1B"/>
<stop offset="1" stop-color="#F7971D"/>
</linearGradient>
</defs>
</svg>
