<svg width="40" height="40" viewBox="0 0 40 40" fill="none" xmlns="http://www.w3.org/2000/svg">
    <path d="M19.345 33.766a.38.38 0 0 0 .212-.063.427.427 0 0 1-.36.26l.024.137a.55.55 0 0 0 .358-.17.53.53 0 0 0 .145-.364c0-.241-.135-.369-.329-.369a.302.302 0 0 0-.225.081.289.289 0 0 0-.09.218.238.238 0 0 0 .068.196.248.248 0 0 0 .197.074zm.048-.44c.106 0 .177.09.177.248a.274.274 0 0 1-.177.06.136.136 0 0 1-.154-.151.144.144 0 0 1 .042-.111.153.153 0 0 1 .112-.045zM18.7 33.377v.706h.167v-.867h-.147l-.219.098.02.129.18-.066zM20.26 34.098c.209 0 .352-.16.352-.45 0-.29-.143-.449-.352-.449s-.352.163-.352.449c0 .286.14.45.352.45zm0-.768c.119 0 .188.113.188.318 0 .205-.064.32-.188.32s-.189-.113-.189-.32c0-.207.069-.318.189-.318zM21.392 33.801a.249.249 0 0 0-.083-.197.26.26 0 0 0-.207-.065.498.498 0 0 0-.134.016l.017-.2h.376l-.022-.14h-.494l-.032.457.113.024a.342.342 0 0 1 .138-.026c.104 0 .162.053.162.139 0 .084-.077.15-.188.15a.487.487 0 0 1-.245-.066l-.025.142a.575.575 0 0 0 .268.063.307.307 0 0 0 .25-.065.296.296 0 0 0 .105-.232zM26.91 21.378c-.027.01-.228.057-.403.096l-.187-.103-.174-.096-.029-.015-.39-.216-.114-.063-.03.01h-.023l.011.008.042.036.766.653c.334.37.509.739.189.94l-.029.014-.04.02c.156.025.316.001.457-.068a.98.98 0 0 0 .363-.26c.188-.242-.138-1.05-.14-1.076a.736.736 0 0 1-.268.12z" fill="#90949C"/>
    <path d="m25.82 21.404.07.205.013.038.049.15.2.16.276.22.055.044s-.124-.236-.147-.275a1.65 1.65 0 0 0-.516-.542zM23.602 20.24l.066.065s-.01-.035-.066-.064z" fill="#90949C"/>
    <path d="M18.53 23.312c.05-.586.243-1.152.564-1.65a2.206 2.206 0 0 0 1.67-.185 2.69 2.69 0 0 0 .652 2.315 3.964 3.964 0 0 1 .256-2.03c.134-.34.363-.638.659-.859.19-.14.398-.255.62-.34l-.392-.154a2.217 2.217 0 0 1-.763-.414 1.752 1.752 0 0 1-.271-.282c.42.22.881.353 1.356.393.252-.006.5.047.728.153-.292-.279-.904-.84-.904-.84.626.136 1.226.37 1.775.696l-.74-.842.905.447.354.626c.382.34.81.627 1.274.85a1.893 1.893 0 0 1-.345-.435c.124.073.27.102.413.083a.5.5 0 0 1-.26-.258.488.488 0 0 1-.013-.364s-.118-.247-.169-.343c0 0-.15-.37-.04-.524.132.258.53.996.639 1.262.03.074.06.148.086.224l.023.096c.027-.011.122-.067.171-.274v-.01c.03-.156.036-.315.016-.471l.065.142c.04.093.077.189.108.286a.963.963 0 0 1 .056.306.24.24 0 0 1-.055.185.166.166 0 0 0 .038-.022.976.976 0 0 0 .215-.275 1.6 1.6 0 0 0 .087-.534c-.013-.05-.033-.1-.052-.151a9.037 9.037 0 0 0-1.289-2.058l.015.208.027.45a8.588 8.588 0 0 0-1.931-1.54c-.026.306-.053.77-.081 1.074a3.415 3.415 0 0 0-.79-1.35c.026.309.052.617.08.923-.6-1.514-3.822-4.655-4.659-6.63-.037-.087-.125-.085-.246-.165-6.287-4.227-4.615-9.08-4.519-9.34-2.418 6.056 1.838 8.897 1.838 8.897a8.548 8.548 0 0 1-2.5-2.077 16.25 16.25 0 0 1-1.068-1.696 13.697 13.697 0 0 1-.942-2.112A8.929 8.929 0 0 1 10.717.71a9.542 9.542 0 0 0 .122 5.753 9.732 9.732 0 0 0 3.418 4.678v-.01a13.49 13.49 0 0 0 1.883 1.293c.429.244.892.425 1.318.681a10.93 10.93 0 0 1 4.33 4.8l-.062-.048a13.882 13.882 0 0 0-7.422-3.82 29.288 29.288 0 0 1 4.707 2.7c-.5.059-.968.272-1.337.608.569-.11 1.155-.1 1.72.032.35.09.69.214 1.015.369a4.423 4.423 0 0 0-2.985.637 5.157 5.157 0 0 1-1.802.577c.842.21 1.729.16 2.54-.142a4.156 4.156 0 0 1 2.768.148 4.183 4.183 0 0 0-.264-.02 5.322 5.322 0 0 0-3.172 1.017c-.04.027-.081.055-.119.085l2.374.196-1.633 1.135c-.012.16-.012.321 0 .482.02.432.123.857.304 1.251.033.069.07.136.11.201zM31.365 36.43l-.028.022a.183.183 0 0 0-.064.14.182.182 0 0 0 .036.135c.06.048.265 0 .416-.028.07-.015.14-.03.206-.04.302-.05.612-.034.907.047l.022-.308a5.589 5.589 0 0 0-.892-.085 1.15 1.15 0 0 0-.603.116zM7.212 36.25l.01.309c.145-.037.293-.055.443-.052a2.366 2.366 0 0 1 .668.096c.149.039.352.094.415.048a.199.199 0 0 0 .041-.135.174.174 0 0 0-.068-.155 2.614 2.614 0 0 0-1.509-.11zM31.83 36.01a6.522 6.522 0 0 1 1.618.185c.275.088.573.084.846-.01a.215.215 0 0 0 .084-.141 4.454 4.454 0 0 0-2.082-.803c-.101.285-.26.546-.465.77zM5.735 35.91c.015.025.034.048.058.067.267.109.563.127.842.052a6.601 6.601 0 0 1 1.61-.12 3.885 3.885 0 0 1-.462-.604 5.974 5.974 0 0 0-2.048.604z" fill="#90949C"/>
    <path d="M36.12 33.354a6.312 6.312 0 0 0-1.506-.76v-4.816l.31-.115v-.69l-.31-.137v-.48l.31-.114v-.823l-1.02-.95v-.224a.268.268 0 0 0-.11-.154.275.275 0 0 0-.186-.044h-.303s-.235.034-.235.198v.21l-1.047.967v.824l.31.107v.48l-.316.135v.334a19.333 19.333 0 0 1-5.967 4.448v-1.094h-2.49a3.384 3.384 0 0 0-.6-1.556.399.399 0 0 0 0-.076c.294-.199.501-.498.58-.84a1.182 1.182 0 0 0-.152-.975.22.22 0 0 0-.038-.044c-.042-.037-.147-.118-.27-.214-.167-.13-.448-.345-.504-.408a1.768 1.768 0 0 1-.337-.637.232.232 0 0 0 .171-.09.222.222 0 0 0 .04-.187l-.03-.13c-.048-.2-.103-.425-.146-.675v-.01h.032a.236.236 0 0 0 .2-.115.226.226 0 0 0 .032-.114.224.224 0 0 0-.032-.113l-.256-.678.049.054c.064.063.217.175.303.144.087-.031.088-.185.096-.283.04-.237.129-.465.261-.668.133-.203.306-.378.51-.513a.82.82 0 0 0 .046.113c.04.075.043.241.13.241.087 0 .153-.121.281-.249.12-.153.278-.274.46-.35l.798.315c.059.194.17.368.322.504.18.135.368.258.564.37l.089.055a.74.74 0 0 1-.081.033c-.09.033-.354.118-.354.212s.26.185.352.214c.18.066.373.1.565.1a1.238 1.238 0 0 0 .942-.37.858.858 0 0 0 .188-.723l-.145-.878.216-.695a.204.204 0 0 0 .012-.066 2.673 2.673 0 0 0-.285-1.09l-.01-.027a.211.211 0 0 0-.039-.072l-.03-.057a2.446 2.446 0 0 0-.188-.334 9.347 9.347 0 0 0-1.422-1.711c-.07-.063-.205-.174-.29-.135-.084.039-.105.222-.1.314v.05a3.184 3.184 0 0 0-.316-.42 1.38 1.38 0 0 1-.207-.415 11.494 11.494 0 0 1 2.812-5.215.23.23 0 0 0 .067-.138c.456-4.462 5.65-6.426 5.706-6.444.058-.018.115-.038.17-.061.189-.131.21-.233.19-.279-.061-.184-.377-.32-1.648-.32-.498 0-.96.02-.965.02a.306.306 0 0 0-.058.01 6.906 6.906 0 0 0-2.22.525 8.09 8.09 0 0 1 3.156-2.062.584.584 0 0 0 .189-.115c.041-.064.11-.122.052-.225-.098-.185-.484-.223-.742-.223-.39.01-.78.046-1.164.11a6.756 6.756 0 0 0-.689.111h-.028a6.744 6.744 0 0 0-2.992 1.503l.624-1.04c.321-.519.683-1.012 1.084-1.476a.212.212 0 0 0 .051-.104c.015-.073.103-.184.054-.253a.292.292 0 0 0-.231-.1c-.112 0-.484.038-1.91 1.108a11.886 11.886 0 0 0-3.332 3.452 12.068 12.068 0 0 0-1.13 2.465c-.011-.078-.023-.155-.03-.231a9.93 9.93 0 0 1-.063-1.015c0-.456.015-.866.034-1.128 0-.111-.013-.37-.122-.395-.11-.026-.275.184-.32.288a10.29 10.29 0 0 0-.919 3.644l-.254 2.285c-.03.159-.151.923-.151.923a6.76 6.76 0 0 1-.478-.934l-.018-.035-.221-.344-.02-.027c-.3-.333-.658-.61-1.058-.818a8.199 8.199 0 0 1-2.234-1.874 7.78 7.78 0 0 1-1.412-2.79 12.38 12.38 0 0 1 .1-5.697.641.641 0 0 0 .016-.43.254.254 0 0 0-.2-.1c-.149 0-.284.127-1.216 1.58v.011a8.915 8.915 0 0 0-1.35 3.888 11.878 11.878 0 0 1-.535-1.628A10.262 10.262 0 0 1 11.278.37c0-.068.022-.25-.029-.299A.262.262 0 0 0 11.063 0c-.205 0-.522.26-1.179 1.98a9.68 9.68 0 0 0-.631 4.78 8.96 8.96 0 0 1-1.318-3.323c-.071-.284-.142-.563-.217-.83-.036-.133-.135-.458-.26-.397l-.024.015-.013.01-.017.013c-.025.024-.115.307-.13.338a.886.886 0 0 0-.08.336v.366c-.167 1.86.184 3.73 1.012 5.412l.026.06.048.106c.128.262.27.502.408.739.045.077.09.151.133.227.125.218.276.422.447.607a59.702 59.702 0 0 0-2.1-.392.237.237 0 0 0-.25.144.223.223 0 0 0 .09.272 19.212 19.212 0 0 1 1.856 1.565l1.328 1.213.123.11c.434.403.885.815 1.318 1.199l-.911-.087a.232.232 0 0 0-.143.03.224.224 0 0 0-.094.109.22.22 0 0 0 .068.262l2.123 1.685.928.726.02.018 1.595 1.259c.04.03.087.047.137.05l.408.009a3.51 3.51 0 0 1-2.583.06 6.593 6.593 0 0 1-1.976-1.057c-.08-.065-.29-.184-.376-.124-.084.061-.02.29.019.388.207.435.496.828.85 1.16a11.12 11.12 0 0 1-3.242-.953c-.096-.04-.267-.151-.334-.074-.068.078-.012.32.043.404.389.623.838 1.206 1.342 1.743.387.397.818.752 1.283 1.058.053.031.188.116.88.116.259 0 .545-.013.786-.035l.088-.01a4.184 4.184 0 0 1-1.852.259c-.117-.017-.377 0-.412.105-.036.105.187.294.306.332.766.275 1.56.47 2.37.578.567.155 1.147.261 1.733.318.049.003.098.003.147 0l.189.018c.295.026.564.052.871.052.247 0 .493-.02.737-.057.003.03.011.06.025.086l.133.259a.233.233 0 0 0-.17.124.222.222 0 0 0 .005.206l.289.528.022.035.021.024-.036.02a.22.22 0 0 0-.09.242 1.447 1.447 0 0 0 .651.947.563.563 0 0 1 .279.325c.037.12.082.24.132.355.111.27.277.677.173.838-.095.16-.23.292-.393.384a3.089 3.089 0 0 0-.376.279.896.896 0 0 0-.075 1.255v.016a3.417 3.417 0 0 0-.838 1.855h-2.51v1.042a21.079 21.079 0 0 1-5.86-4.479v-.25l-.312-.132v-.483l.311-.107v-.824l-1.047-.967v-.21c0-.165-.235-.198-.235-.198h-.302a.276.276 0 0 0-.186.044.265.265 0 0 0-.11.153v.226l-1.022.949v.823l.311.114v.48l-.31.137v.69l.31.115v4.936c-.467.145-.924.319-1.369.52l-.482.23.376.37a4.72 4.72 0 0 1 1.204 3.039.727.727 0 0 0 .297.574 1.7 1.7 0 0 0 1.216.16l.022.86.551-.312a1.33 1.33 0 0 1 .753-.038l.174.042a1.003 1.003 0 0 0 .868-.033.665.665 0 0 0 .262-.533.69.69 0 0 0-.255-.58.63.63 0 0 0-.104-.061 4.375 4.375 0 0 1-.376-.434 7.636 7.636 0 0 1 2.392.397c1.014.358 1.994.801 2.93 1.325A11.514 11.514 0 0 0 19.732 40c.228 0 .461 0 .704-.02a15.678 15.678 0 0 0 6.298-1.902c.706-.341 1.375-.666 2.072-.923l.176-.068a7.68 7.68 0 0 1 2.512-.587c-.013.011-.03.02-.037.035-.162.229-.346.44-.552.631a.697.697 0 0 0-.188.488.647.647 0 0 0 .236.553 1.007 1.007 0 0 0 .866.076c.058-.013.118-.028.174-.035.253-.05.516-.024.753.074l.54.34.06-.862c.406.119.844.082 1.224-.104a.743.743 0 0 0 .325-.554 6.134 6.134 0 0 1 1.263-3.212l.272-.308-.31-.268zm-22.783-.32v.154c-.113-.051-.232-.097-.347-.147v-.49h.348l-.002.482zm-.553-.078a19.665 19.665 0 0 0-1.086-.412h1.086v.412zm1.808.184h-.506v-1.244h.506v1.244zm1.09.198v.941l-.348-.164v-.777h.348zm-.342-.198v-1.244h.34v1.244h-.34zm1.005 0h-.453v-1.244h.453v1.244zm0 .198v1.242l-.457-.208v-1.034h.457zm-1.215-.198h-.346v-1.244h.346v1.244zm0 .198v.68l-.203-.097-.143-.068v-.515h.346zm9.512 0v1.124c-.117.057-.234.12-.349.174v-1.293l.349-.005zm-.349-.198v-1.244h.349v1.244h-.349zm1.102.587v-.389h.451v.469c-.154.09-.302.171-.453.256l.002-.336zm0-.587v-1.244h.451v1.244h-.451zm-.207 0h-.347v-1.244h.347v1.244zm0 .198v.842l-.349.184v-1.026h.349zm1.443-.272v-.522h.347v.593c-.124.064-.237.129-.344.184l-.003-.255zm.548-.022v-.5h1.389a9.027 9.027 0 0 0-1.386.51l-.003-.01zm4.99-5.497c.074-.033.153-.063.234-.09v.184l-.233-.094zm.654 1.477v1.465c-.116.02-.23.048-.342.084v-1.477c.113-.027.228-.049.343-.065l-.001-.007zm-.342-.085v-1.506c.112-.035.226-.062.342-.083v1.506a2.708 2.708 0 0 0-.34.09l-.002-.007zm0 3.112V30.76s.221-.063.34-.085v1.516a6.968 6.968 0 0 0-.34-.03c.003-.083.002-.101.002-.101l-.002-.008zm.884-3.084v1.465c-.115.003-.23.012-.345.026v-1.465c.115-.012.231-.019.347-.019l-.002-.007zm-.345-.14V27.32c.114-.015.23-.024.345-.026v1.507a3.01 3.01 0 0 0-.343.033l-.002-.008zm0 3.027v-1.217s.226-.022.345-.026v1.653c-.117-.02-.233-.041-.352-.058a9.12 9.12 0 0 0 .01-.345l-.003-.007zm.887-2.861v1.465a3.485 3.485 0 0 0-.344-.026v-1.465c.12.01.233.02.354.033l-.01-.007zm-.344-.185v-1.506h.167l.178.018v1.506a3.02 3.02 0 0 0-.343-.018h-.002zm.344 1.837v1.74c-.114-.027-.23-.057-.344-.08v-1.686s.235.011.354.026h-.01zm.189 1.79v-1.761s.233.05.342.085v1.78a5.852 5.852 0 0 0-.333-.104h-.009zm.345-3.489a3.125 3.125 0 0 0-.343-.083v-1.506c.116.021.23.049.343.083v1.506zm0 .168v1.466a2.444 2.444 0 0 0-.343-.083V29.03c.119.02.237.048.352.083h-.01zm.077-1.467v-.185c.081.028.162.06.237.093l-.237.092zm0-1.423v-.185c.08.027.16.057.237.092l-.237.093zm-1.328-1.972c0-.063.13-.063.166-.063h.2c.035 0 .167 0 .167.063v.159c-.087 0-.176-.01-.266-.01-.09 0-.188 0-.267.01v-.159zm0 .268c.087 0 .177-.01.267-.01.09 0 .18 0 .266.01l1.032.962a3.387 3.387 0 0 0-2.593 0l1.028-.962zm-1.028 1.107a3.393 3.393 0 0 1 2.593 0v.327a3.412 3.412 0 0 0-2.593 0v-.327zm2.279.394v.784a2.74 2.74 0 0 0-.343-.083v-.785c.119.02.236.047.352.08l-.01.004zm-.54-.113v.783a4.156 4.156 0 0 0-.346-.026v-.783c.129 0 .241.01.362.022l-.017.004zm-.543-.028v.785c-.119 0-.234.013-.345.026v-.783c.117-.016.235-.026.354-.031l-.01.003zm-.543.058v.784a2.6 2.6 0 0 0-.343.083v-.784c.116-.037.233-.067.352-.09l-.009.006zm-.653.199c.076-.035.154-.065.233-.09v.184l-.233-.094zm0 .923a3.19 3.19 0 0 1 1.295-.257c.446-.004.889.083 1.298.257v.327a3.398 3.398 0 0 0-2.593 0v-.327zm-.924 2.071v-.618l.796-.789v.885a5.255 5.255 0 0 1-.796.91v-.388zm-.407-.259v1.007a13.725 13.725 0 0 1-2.614 1.661 7.558 7.558 0 0 0 2.614-1.252v.506h.407v-.777c.25-.172.515-.36.796-.572v2.691a11.584 11.584 0 0 0-2.575.209h-3.417v-.42a20.432 20.432 0 0 0 4.798-3.053h-.009zm-4.79 3.681h.378v.909l-.377.23v-1.139zM23.58 30.85h2.259v.858h-2.26v-.858zm0 1.055h.505v1.245h-.505v-1.244zm0 1.442h.505v1.386c-.168.076-.34.148-.507.215v-1.6h.002zm-2.876-21.483a4.267 4.267 0 0 0 1.335 1.573 11.058 11.058 0 0 1-1.276-2.4c.015-.229.037-.502.079-.868.03-1.335.34-2.65.907-3.865-.02.294-.041.7-.036 1.148 0 .34.021.68.063 1.038h.137v.827c.041.184.09.387.152.598.2.608.437 1.203.712 1.781a14.511 14.511 0 0 1-.414-1.765c-.086-.613-.105-1.072-.105-1.072V8.79a11.73 11.73 0 0 1 1.108-2.449 11.658 11.658 0 0 1 3.264-3.376c1.8-1.34 1.729-.975 1.729-.975-.439.507-.834 1.05-1.182 1.62-3.182 3.224-2.972 5.666-2.972 5.666a12.21 12.21 0 0 1 1.94-3.546 5.963 5.963 0 0 1 1.13-1.156 6.536 6.536 0 0 1 3.27-1.31c1.722-.253 1.546.014 1.546.014a7.1 7.1 0 0 0-3.766 2.891 6.49 6.49 0 0 1 3.012-.923h-.038s2.593-.112 2.154.202c0 0-5.379 1.973-5.855 6.632a11.605 11.605 0 0 0-2.885 5.375c.048.196.133.38.25.545-.226-.155-.499-.36-.804-.615a22.215 22.215 0 0 1 2.959-9.564 11.833 11.833 0 0 0-3.152 5.492c-.206.603-.38 1.216-.519 1.837a6.893 6.893 0 0 0-.564-.619v1.621A19.507 19.507 0 0 1 20.5 12.94c.093-.354.165-.713.213-1.076h-.01zm-3.261 15.83c.376-.328.544-.298.808-.71.224-.349-.173-1.008-.279-1.375-.156-.554-.7-.37-.928-1.266.2.16.42.292.657.395l-.098-.31a2.899 2.899 0 0 1-.497-.458l-.289-.528.439.194-.404-.78c.23-.13.454-.273.67-.426a6.43 6.43 0 0 1-2.985.185c.377-.33.72-.59 1.032-.844l.267-.216c.155-.129.306-.258.457-.397-.26.142-.493.262-.721.37a20 20 0 0 1-.49.238c-.322.151-.657.303-1.064.485a1.073 1.073 0 0 1-.699.1 11.174 11.174 0 0 1-2.666-.604c.819.061 1.64-.088 2.382-.432.171-.074.34-.151.503-.232.275-.139.537-.29.778-.441.035-.024-.63.158-1.182.282a6.81 6.81 0 0 1-.442.089 2.85 2.85 0 0 1-.268.033 4.562 4.562 0 0 1-1.527-.048 7.578 7.578 0 0 1-1.233-1.021 11.18 11.18 0 0 1-1.318-1.71c1.24.585 2.582.937 3.954 1.036a5.46 5.46 0 0 1-1.252-1.536 6.71 6.71 0 0 0 2.049 1.095 3.946 3.946 0 0 0 3.551-.478l-1.299-.035-1.457-1.148-.136-.107c.257-.062.517-.11.78-.143a5.265 5.265 0 0 1 1.677.146 4.602 4.602 0 0 0-1.254-.443 7.057 7.057 0 0 0-1.545-.144l-.415-.013-2.31-1.833 1.606.155h.009a79.611 79.611 0 0 1-1.838-1.66l-.393-.37c1.41.114 2.79.466 4.078 1.039a10.784 10.784 0 0 0-4.865-1.766 21.803 21.803 0 0 0-2.148-1.83c.723.105 2.7.513 2.733.517a9.308 9.308 0 0 1-.845-1.07c-.177-.303-.377-.608-.533-.948-.026-.051-.049-.107-.073-.16a10.009 10.009 0 0 1-.994-5.31c0-.115.014-.232.014-.348a.716.716 0 0 1 .057-.251l.017-.026a9.055 9.055 0 0 0 2.092 4.776 9.423 9.423 0 0 1 .51-5.378c.73-1.912.941-1.71.941-1.71-.11 1.2-.01 2.409.293 3.577.22.885.542 1.744.958 2.56-.017-.56.027-1.12.13-1.67a8.694 8.694 0 0 1 1.226-3.094c1.203-1.876.98-1.245.98-1.245a12.605 12.605 0 0 0-.105 5.82A8.06 8.06 0 0 0 16 9.16c1.74 1.971 2.533 1.803 3.293 2.691l.221.345a15.209 15.209 0 0 0 2.474 3.692 16.868 16.868 0 0 0 3.766 2.89l-.027-.344-.012-.222c.526.499.99 1.056 1.381 1.662.068.099.128.202.18.31l.066.13v-.027l.013.04c.161.315.253.66.27 1.01l-.024.069v.016l-.045.152-.158.504s.111.684.153.932c.118.703-.724.998-1.39.753a.5.5 0 0 0 .352-.297c-.47-.295-.664-.404-.853-.554a1.037 1.037 0 0 1-.274-.498l-.117-.047-.44-.173-.419-.164a.946.946 0 0 0-.686.493.707.707 0 0 1-.069-.37 2.094 2.094 0 0 0-.784.622 2.04 2.04 0 0 0-.4.909s-.425-.44-.28-.739c-.03.061-.054.124-.077.185l-.01.039c-.02.05-.036.103-.048.156v.028c-.013.06-.026.116-.036.175v.012a2.26 2.26 0 0 0-.026.194l.32.849a2.125 2.125 0 0 1-.315-.166c0 .05.01.097.016.145v.035c0 .048.013.094.018.14v.038l.081-.026.021.009-.102.017.016.085c.055.313.126.598.178.817-.101 0-.225-.039-.327-.044.097.38.268.737.503 1.054.111.127.687.554.792.642.141.25.182.543.114.821a1.15 1.15 0 0 1-.477.684 1.532 1.532 0 0 0-.215-1.542c.051.163.147.838-.188 1.097.045-.639 0-.809-.546-1.133a2.469 2.469 0 0 1-.425-.46 2.412 2.412 0 0 0-1.28-.303c.754-.627 1.13-.101 1.176-.223a.724.724 0 0 0-.15-.554 1.491 1.491 0 0 0-.583-.299 2.101 2.101 0 0 1-.676-.798l.682.185c-.015-.039-.41-.37-.43-.41a4.38 4.38 0 0 1-.174-.601 2.198 2.198 0 0 0-.42-.33 1.49 1.49 0 0 0-.208 1.336l.13.515a.81.81 0 0 1-.376-.102c.053.21.137.554.2.864a1.223 1.223 0 0 1-.55-.157c.045.21.17.604.482.631.635.03 1.265.12 1.883.27a1.427 1.427 0 0 1 .527 1.05c-.565-.639-.639-.886-1.787-.962.65.185.819.168 1.145.687a1.96 1.96 0 0 0-2.153.11 3.402 3.402 0 0 0-.34.125 2.688 2.688 0 0 0-.5.062 1.058 1.058 0 0 0-.55.606c-.038.035-.076.07-.112.107a.682.682 0 0 1 .058-.91h-.01zm-.906 3.407a3.3 3.3 0 0 1 .836-2.193.22.22 0 0 0 .098.012.231.231 0 0 0 .189-.184.523.523 0 0 1 .115-.222c.215-.174.45-.321.702-.439a.785.785 0 0 0 .527-.159.379.379 0 0 1 .124-.072 3.458 3.458 0 0 1 3.252.879 3.321 3.321 0 0 1 1.002 2.372v.61h-.623a2.79 2.79 0 0 0-.786-2.547 2.904 2.904 0 0 0-2.033-.826c-.763 0-1.494.297-2.033.825a2.79 2.79 0 0 0-.786 2.547h-.584v-.603zm4.208-2.215a3.48 3.48 0 0 0-1.95 1.371.089.089 0 0 1-.066.035.104.104 0 0 1-.064-.024 1.826 1.826 0 0 1-.565-.85.085.085 0 0 1 .025-.082 2.615 2.615 0 0 1 1.228-.675c.465-.11.952-.093 1.408.051.019.006.036.017.048.032a.09.09 0 0 1 0 .109.093.093 0 0 1-.048.033h-.016zm.592.11c.018.001.035.007.049.017.34.221.622.518.823.866a.087.087 0 0 1 .013.04.086.086 0 0 1-.038.075.092.092 0 0 1-.041.016 3.45 3.45 0 0 0-2.058 1.096.095.095 0 0 1-.07.03.103.103 0 0 1-.041 0 6.08 6.08 0 0 1-1.03-.62.09.09 0 0 1-.017-.122c.36-.51.855-.915 1.43-1.174.309-.146.646-.224.99-.23l-.01.006zm-2.802 1.412c.424.372.902.68 1.42.912a.092.092 0 0 1 .047.055c.101.35.148.712.137 1.075a.085.085 0 0 1-.034.066.09.09 0 0 1-.058.019h-.017a4.118 4.118 0 0 1-1.195-.415 3.144 3.144 0 0 1-1.414-1.477.086.086 0 0 1 0-.058c.075-.33.215-.644.412-.922a.09.09 0 0 1 .129-.021.09.09 0 0 1 .029.035c.134.275.322.522.553.726l-.01.005zm-1.118.75a.09.09 0 0 1 .105.037c.333.48.788.868 1.318 1.128.373.186.772.319 1.184.393a.098.098 0 0 1 .061.039c.013.02.018.043.013.066-.054.3-.188.58-.388.812a.092.092 0 0 1-.068.032h-.011a2.615 2.615 0 0 1-1.245-.493 2.545 2.545 0 0 1-.827-1.038c-.122-.28-.19-.58-.203-.884a.091.091 0 0 1 .017-.061.095.095 0 0 1 .053-.037l-.01.006zm2.59 2.385c.115-.175.198-.368.247-.57.059-.235.085-.476.077-.717a3.501 3.501 0 0 0-.148-.923.085.085 0 0 1-.002-.044.088.088 0 0 1 .02-.039 3.257 3.257 0 0 1 1.13-.821.09.09 0 0 1 .074 0 .09.09 0 0 1 .05.054c.127.388.19.793.188 1.201 0 .318-.054.633-.163.932-.126.335-.33.637-.597.88a.101.101 0 0 1-.03.02c-.248.092-.51.147-.774.162a.095.095 0 0 1-.08-.043.087.087 0 0 1 .018-.098l-.01.006zm1.563-.644c.08-.165.143-.337.188-.514.069-.285.096-.58.081-.873a4.197 4.197 0 0 0-.203-1.107.089.089 0 0 1 0-.069.087.087 0 0 1 .053-.044c.192-.059.39-.1.59-.125a.094.094 0 0 1 .097.059 2.494 2.494 0 0 1-.692 2.789.095.095 0 0 1-.087-.01.092.092 0 0 1-.028-.054.092.092 0 0 1 .011-.058l-.01.006zm-5.033-.988h.633a2.82 2.82 0 0 0 1.032 1.485c.5.371 1.11.572 1.738.572.627 0 1.237-.2 1.737-.572a2.82 2.82 0 0 0 1.033-1.485h.672v3.118a8.74 8.74 0 0 1-3.06.57h-.025a9.414 9.414 0 0 1-3.754-.923v-2.769l-.006.004zm-2.46-1.056h2.26v.858h-2.26v-.858zm.498 2.498v.419a31.04 31.04 0 0 0-.497-.237v-.184l.497.002zm-.699-.135v.225l-.345-.159v-.725h.345v.659zm-5.895-4.8v-.697l.796.79v1.006a5.313 5.313 0 0 1-.796-.91v-.189zm0 1.023c.28.212.546.4.796.572v.778h.407v-.505a7.57 7.57 0 0 0 2.612 1.25 13.657 13.657 0 0 1-2.612-1.661v-1.004a20.621 20.621 0 0 0 4.692 3.009v.461s-2 .01-2.84 0a8.756 8.756 0 0 0-3.055-.184v-2.718.002zm-2.062-.411v1.465c-.116.02-.23.048-.342.083v-1.477c.118-.02.233-.047.352-.07l-.01-.001zm-.342-.085v-1.507c.112-.034.226-.061.342-.083v1.506a2.82 2.82 0 0 0-.333.085l-.01-.001zm.884.027v1.466c-.117 0-.23.011-.344.026v-1.466a3.49 3.49 0 0 1 .354-.024l-.01-.002zm-.344-.14v-1.506c.115-.016.229-.024.344-.026v1.506a3.072 3.072 0 0 0-.335.028l-.009-.002zm0 2.942v-1.131s.224-.022.342-.026v1.803l-.35.087.008-.733zm1.425-2.662v1.466a2.443 2.443 0 0 0-.343-.083V29.03c.12.02.24.048.356.084l-.013-.002zm-.343-.25v-1.507c.116.021.23.049.343.083v1.507a3.12 3.12 0 0 0-.332-.082l-.01-.002zm.345 1.895v1.462c-.115.017-.23.033-.343.054v-1.6s.245.058.354.086l-.01-.002zm.076-3.112v-.185c.082.028.162.06.237.093l-.237.092zm-.618 1.187a2.98 2.98 0 0 0-.343-.026V27.3h.168l.175.018v1.514zm0 .166v1.466a3.45 3.45 0 0 0-.343-.026v-1.466c.126.006.243.015.354.028l-.011-.002zm0 1.645v1.661l-.343.07v-1.76s.243.016.354.03l-.011-.001zm.618-4.43v-.185c.08.026.16.057.237.092l-.237.093zM6.292 24.24c0-.063.132-.063.167-.063h.2c.034 0 .166 0 .166.063v.159c-.086 0-.175-.01-.265-.01-.09 0-.189 0-.268.01v-.159zm0 .268c.087 0 .175-.01.266-.01.09 0 .188 0 .267.01l1.03.961a3.384 3.384 0 0 0-2.59 0l1.027-.961zm-1.028 1.107a3.385 3.385 0 0 1 2.591 0v.327a3.407 3.407 0 0 0-2.59 0v-.327zm2.277.393v.785a2.634 2.634 0 0 0-.343-.083v-.784c.12.023.24.053.357.09l-.014-.008zM7 25.897v.783a4.17 4.17 0 0 0-.343-.026v-.783c.128.011.245.02.356.033L7 25.897zm-.543-.028v.785c-.116 0-.231.013-.344.026v-.783c.121-.009.242-.015.358-.02l-.014-.008zm-.542.058v.784c-.116.02-.23.048-.342.083v-.785a3.22 3.22 0 0 1 .356-.077l-.014-.005zm-.65.199a2.2 2.2 0 0 1 .23-.09v.184l-.23-.094zm0 .923a3.177 3.177 0 0 1 1.293-.257c.446-.005.888.083 1.297.257v.327a3.394 3.394 0 0 0-2.59 0v-.327zm0 .496c.073-.033.15-.062.23-.09v.185l-.23-.095zm.308 4.395v-1.192s.223-.063.342-.085v1.888c-.117.034-.233.065-.34.098l-.002-.709zm30.432 1.808a6.368 6.368 0 0 0-1.318 3.335.517.517 0 0 1-.231.4c-.35.148-.741.168-1.104.056l-.188-.046-.055.751-.222-.14a1.51 1.51 0 0 0-.915-.105c-.06.01-.122.024-.188.037a.826.826 0 0 1-.68-.032.453.453 0 0 1-.152-.369.469.469 0 0 1 .169-.369l.02-.016v-.012l.02-.01c.35-.245.626-.578.797-.964a7.404 7.404 0 0 0-3.046.602l-.175.066c-.699.258-1.373.583-2.083.923a15.439 15.439 0 0 1-6.213 1.88c-.237.012-.466.02-.686.02a11.33 11.33 0 0 1-5.75-1.721c-.947-.53-1.94-.978-2.966-1.338a7.613 7.613 0 0 0-2.92-.386c.234.339.518.642.843.899v.01a.482.482 0 0 1 .136.35.456.456 0 0 1-.17.369.814.814 0 0 1-.681 0c-.064-.017-.127-.033-.189-.046a1.518 1.518 0 0 0-.916.063l-.23.13-.02-.752-.201.036a1.6 1.6 0 0 1-1.096-.108.528.528 0 0 1-.21-.41 4.959 4.959 0 0 0-1.27-3.186l-.16-.154.202-.096a11.362 11.362 0 0 1 6.957-.83l1.19.402c.887.345 1.713.739 2.52 1.128.805.39 1.574.751 2.361 1.049l.218.097.102.022a8.391 8.391 0 0 0 2.787.517h.027a12.414 12.414 0 0 0 6.388-2.263c.225-.131.459-.247.7-.347l.106-.048a9.732 9.732 0 0 1 8.473.38l.14.1-.121.126z" fill="#90949C"/>
    <path d="M26.879 32.762a12.917 12.917 0 0 1-6.551 2.31h-.029c-1.98-.137-3.899-.725-5.605-1.718a27.715 27.715 0 0 0-3.346-1.425 10.74 10.74 0 0 0-6.854.641 5.37 5.37 0 0 1 1.192 3.014 7.125 7.125 0 0 1 5.46-.22c1.043.369 2.051.824 3.014 1.361a10.765 10.765 0 0 0 6.267 1.662 14.987 14.987 0 0 0 6.094-1.846c.687-.35 1.393-.664 2.113-.942l.17-.064a5.993 5.993 0 0 1 5.618.184 6.71 6.71 0 0 1 1.24-3.073 9.597 9.597 0 0 0-4.406-1.005 9.588 9.588 0 0 0-4.377 1.121zM7.44 34.379a.957.957 0 0 1-.77-.148.929.929 0 0 1-.389-.67.925.925 0 0 1 .123-.773.955.955 0 0 1 .677-.416c.174-.037.354-.032.525.015l.02.519a.65.65 0 0 0-.415-.072c-.272.052-.41.284-.346.616a.465.465 0 0 0 .18.347.485.485 0 0 0 .384.096.791.791 0 0 0 .377-.2l.166.451a1.2 1.2 0 0 1-.532.235zm1.861-.059-.332-.654h-.09l-.037.611-.591-.035.12-1.971.77.046c.518.031.8.273.775.696a.59.59 0 0 1-.376.554l.405.707-.644.046zm1.815-.37-.188.682-.579-.155.189-.668-.338-1.357.634.087.164.83.555-.618.599.16-1.036 1.04zm1.631.025c.36.312.47.53.342.827a.637.637 0 0 1-.404.369.661.661 0 0 1-.548-.068c-.243-.101-.46-.25-.64-.44l.273-.406c.15.184.339.333.553.438.108.046.189.038.229-.041.04-.08-.001-.131-.212-.325-.32-.29-.438-.484-.299-.801a.615.615 0 0 1 .387-.342.644.644 0 0 1 .519.061c.218.081.411.214.564.386l-.273.403a1.28 1.28 0 0 0-.454-.37c-.111-.046-.188-.03-.207.032-.019.063-.01.112.17.27v.007zm1.147 1.95-.531-.274.704-1.318-.478-.246.231-.43 1.435.739-.159.467-.498-.255-.704 1.316zm2.195 1.035-.582-.185.056-.37-.564-.278-.24.253-.517-.255 1.53-1.464.596.294-.279 2.005zm1.506.565-1.187-.37.62-1.875.564.184-.464 1.405.543.172-.076.484zm1.835-.37h-.092l-.021.591-.595-.019.068-1.975.696.024c.52.017.83.248.815.704-.015.456-.366.677-.882.66l.01.015zm2.368.453-.164-.335-.628.085-.053.342-.565.077.414-2.058.663-.089.926 1.806-.593.172zm1.002-.227-.595-1.887.565-.173.444 1.41.544-.165.228.453-1.186.361zm2.74-1-.253-.272-.578.254.05.342-.528.234-.2-2.087.61-.27 1.411 1.477-.512.323zm1.527-.723a.956.956 0 0 1-1.123-.158.921.921 0 0 1-.216-.333.929.929 0 0 1 .121-1.123.962.962 0 0 1 .335-.23c.158-.079.334-.12.512-.12l.154.495a.643.643 0 0 0-.416.037.552.552 0 0 0-.146.678.56.56 0 0 0 .27.255.575.575 0 0 0 .373.032.794.794 0 0 0 .31-.29l.281.393c-.121.152-.28.272-.46.35l.005.014zm.717-.369-.753-1.828 1.228-.492.18.426-.69.275.109.262.521-.207.243.394-.59.236.123.292.712-.286.177.426-1.26.502zm2.588-.89-.58.12-.415-1.932 1.247-.255.1.469-.665.136.066.312.48-.098.189.45-.566.115.144.683zm.835-.125a.29.29 0 0 1-.276-.15.274.274 0 0 1 .036-.309.284.284 0 0 1 .305-.084c.053.017.101.05.136.093a.275.275 0 0 1 .06.15c0 .071-.028.139-.077.19a.285.285 0 0 1-.187.088l.003.022zm2.277-.277a.289.289 0 0 1 .275.151.275.275 0 0 1-.176.395.288.288 0 0 1-.3-.095.276.276 0 0 1-.061-.15.275.275 0 0 1 .058-.217.285.285 0 0 1 .2-.106l.004.022zm-1.883-.773a.93.93 0 0 1 .348-.704.968.968 0 0 1 .77-.205c.178.016.348.072.5.164l-.138.5a.622.622 0 0 0-.377-.184c-.275-.028-.478.155-.514.491a.464.464 0 0 0 .07.386.48.48 0 0 0 .343.201c.146.01.29-.02.421-.085l.023.48a1.21 1.21 0 0 1-.582.07.952.952 0 0 1-.708-.373.915.915 0 0 1-.156-.773v.032z" fill="#90949C"/>
    <path d="M19.433 36.184h-.073l-.017.53h.065c.2 0 .311-.076.317-.262.005-.187-.094-.26-.292-.268zM24.636 35.892l.338-.149-.427-.497.09.646zM15.652 35.946l.125-.637-.457.473.332.164zM21.068 36.883l.367-.05-.266-.594-.101.645zM9.05 32.732h-.12l-.033.528h.124a.266.266 0 0 0 .218-.053.257.257 0 0 0 .096-.202c.01-.162-.085-.26-.285-.273z" fill="#90949C"/>
</svg>
