<svg width="32" height="32" viewBox="0 0 32 32" fill="none" xmlns="http://www.w3.org/2000/svg">
    <path fill-rule="evenodd" clip-rule="evenodd" d="M30 16c0 7.732-6.268 14-14 14S2 23.732 2 16 8.268 2 16 2s14 6.268 14 14zm2 0c0 8.837-7.163 16-16 16S0 24.837 0 16 7.163 0 16 0s16 7.163 16 16zm-10.95 3.833a3.72 3.72 0 0 0 1.145.167 3.72 3.72 0 0 0 1.143-.167c.346-.11.64-.266.885-.467.248-.204.439-.45.572-.736.137-.287.205-.605.205-.956 0-.212-.025-.41-.076-.597-.05-.19-.129-.362-.237-.516a1.619 1.619 0 0 0-.41-.419 2.284 2.284 0 0 0-.599-.306c.356-.161.622-.385.799-.671.176-.287.264-.63.264-1.032 0-.304-.063-.586-.189-.843a2.015 2.015 0 0 0-.529-.677 2.52 2.52 0 0 0-.809-.446 2.997 2.997 0 0 0-1.02-.167c-.37 0-.712.056-1.025.167a2.53 2.53 0 0 0-.803.446c-.227.19-.403.415-.53.677a1.896 1.896 0 0 0-.188.843c0 .401.086.745.259 1.032.176.286.444.51.804.671a2.36 2.36 0 0 0-.61.306 1.743 1.743 0 0 0-.41.42 1.679 1.679 0 0 0-.232.515c-.047.186-.07.385-.07.597 0 .35.067.67.2.956.136.287.327.532.572.736.248.2.544.356.89.467zm1.63-1.176a1.251 1.251 0 0 1-.485.086c-.191 0-.355-.029-.492-.086a.979.979 0 0 1-.334-.231 1.008 1.008 0 0 1-.194-.35 1.555 1.555 0 0 1-.06-.435c0-.168.019-.322.054-.462a.87.87 0 0 1 .178-.354.791.791 0 0 1 .33-.231c.14-.058.313-.086.518-.086.204 0 .375.028.512.086.14.053.252.13.334.23a.87.87 0 0 1 .179.355c.036.14.053.294.053.462 0 .154-.021.3-.064.436a.904.904 0 0 1-.194.349.912.912 0 0 1-.335.23zm-.027-3.509c-.119.061-.271.092-.458.092-.188 0-.34-.03-.46-.092a.74.74 0 0 1-.28-.241.913.913 0 0 1-.14-.344 2.069 2.069 0 0 1-.038-.398c0-.122.017-.24.049-.354a.804.804 0 0 1 .156-.301.826.826 0 0 1 .286-.215c.115-.054.258-.08.427-.08a.99.99 0 0 1 .42.08.764.764 0 0 1 .286.215c.076.086.13.186.162.3.033.115.049.233.049.355 0 .136-.013.269-.038.398a.913.913 0 0 1-.14.344.74.74 0 0 1-.28.241zm-8.487 3.563h1.51v-3.95c0-.193.006-.395.017-.606l-.89.736a.624.624 0 0 1-.173.102.562.562 0 0 1-.421-.033.576.576 0 0 1-.162-.134l-.529-.698 2.45-2.047h1.38v6.63h1.296v1.203h-4.478V18.71zm-3.821-5.131v2.127h1.996V16.9h-1.996v2.138h-1.36V16.9H7v-1.193h1.985V13.58h1.36z" fill="#90949C"/>
</svg>
