<?xml version="1.0" encoding="utf-8"?>
<!-- Generator: Adobe Illustrator 26.4.1, SVG Export Plug-In . SVG Version: 6.00 Build 0)  -->
<svg version="1.1" id="圖層_1" xmlns="http://www.w3.org/2000/svg" xmlns:xlink="http://www.w3.org/1999/xlink" x="0px" y="0px"
	 viewBox="0 0 555.1 192" style="enable-background:new 0 0 555.1 192;" xml:space="preserve">
<style type="text/css">
	.st0{fill:#FFFFFF;}
	.st1{fill:#222939;}
	.st2{fill:#C9334E;}
	.st3{fill:#F7F8F8;}
	.st4{fill:#727171;}
	.st5{fill:#3E3A39;}
	.st6{fill:#9F6430;}
	.st7{opacity:0.5;}
	.st8{fill:#6A3513;}
	.st9{fill:#CAAB72;}
	.st10{fill:none;}
	.st11{fill:#A2A2A2;}
</style>
<g>
	<g id="_圖層_1">
		<g>
			<path class="st0" d="M550.7,49.36c-3.39-3.9-8.26-6.05-13.72-6.05H185.65c-1.01-7.56-6.11-14.21-13.4-16.99l-36.21-13.81
				l-1.96-0.75c-0.7-1.1-1.51-2.14-2.4-3.1c-3.87-4.15-9.13-6.55-14.8-6.75L77.15,0.54l-15.2-0.53C61.7,0.01,61.46,0,61.21,0
				C49.7,0,40.37,9.01,39.97,20.51l-0.4,11.66c-11.1,3.13-19.1,13.42-19.1,25.2v37.84C5.41,106.56-1.89,121.86,0.42,137.33
				c1.74,11.63,8.82,21.8,20.05,28.85C20.66,180.45,32.33,192,46.64,192h69.67c7.58,0,14.61-3.19,19.58-8.83h259.09
				c6.48,0,12.27-5.06,13.18-11.52l5.37-38.2c0.22-1.57,0.13-3.13-0.26-4.59H526.1c10.81,0,20.85-8.78,22.36-19.58L554.82,64
				c0.77-5.5-0.69-10.71-4.11-14.65L550.7,49.36z"/>
			<path class="st1" d="M544.46,108.73l6.36-45.28c1.25-8.9-4.95-16.11-13.85-16.11H46.42v77.5h479.67
				C534.99,124.84,543.21,117.63,544.46,108.73z"/>
			<path class="st2" d="M394.98,179.15H102.25c-4.45,0-7.55-3.61-6.92-8.06l5.37-38.2c0.63-4.45,4.74-8.06,9.19-8.06h292.72
				c4.45,0,7.55,3.61,6.92,8.06l-5.37,38.2C403.53,175.54,399.42,179.15,394.98,179.15L394.98,179.15z"/>
			<g>
				<path class="st1" d="M184.62,84.57c-0.5-1.91-1.3-3.69-2.4-5.32c-1.15-1.7-2.56-3.16-4.21-4.34c-1.52-1.09-3.2-1.97-5-2.62
					l7.68-20.15c3.36-8.81-1.07-18.7-9.88-22.06L134.6,16.27l-3.27-1.25c-0.7-1.29-1.56-2.51-2.59-3.61
					c-3.14-3.37-7.4-5.31-11.99-5.47L77.01,4.56L61.82,4.03c-0.2,0-0.4-0.01-0.6-0.01l0,0c-9.33,0-16.89,7.3-17.21,16.62l-0.51,14.8
					c-10.72,1.54-18.99,10.78-18.99,21.92v39.92c-0.31,0.2-0.62,0.41-0.92,0.63C9.29,108.39,2.3,122.53,4.42,136.72
					c1.66,11.16,8.85,20.75,20.09,27.17v1.92c0,12.21,9.94,22.15,22.15,22.15h69.65c9.69,0,17.95-6.26,20.94-14.94
					c1.48,0.4,3.02,0.6,4.61,0.6c4.96,0,9.83-2.08,13.36-5.71c0.7-0.72,1.34-1.52,1.9-2.36l3.08-4.65c3.01-4.41,4.64-9.41,4.7-14.46
					c0-0.19,0-0.38,0-0.57c3.9-5.22,4.73-12.2,2.02-18.13c0.69-2.94,0.65-6.02-0.18-8.96l5-3.83c3.79-2.9,7.38-7.18,9.85-11.75
					c3.47-6.41,4.51-12.85,3.02-18.64L184.62,84.57z"/>
				<g>
					<g>
						<path class="st2" d="M113.09,69.69c-0.87-0.33-1.3-1.3-0.97-2.17l0,0c-0.54-0.21-1.07-0.41-1.6-0.61l0,0
							c-0.33,0.87-1.3,1.3-2.17,0.97l-4.75-1.81c-0.87-0.33-1.3-1.3-0.97-2.17l0,0c-0.54-0.21-1.08-0.41-1.6-0.61l0,0
							c-0.33,0.87-1.3,1.3-2.17,0.97l-3.36-1.28l-32.37,84.89c-0.99,2.6,0.32,5.53,2.92,6.52l13.96,5.32l34.17-89.61l-1.07-0.41
							L113.09,69.69z"/>
						<path class="st2" d="M101.02,63.29l1.6,0.61c0.33-0.87,1.3-1.3,2.17-0.97l4.75,1.81c0.87,0.33,1.3,1.3,0.97,2.17
							c0.53,0.2,1.06,0.41,1.6,0.61c0.33-0.87,1.3-1.3,2.17-0.97l1.07,0.41L130.59,27l-13.96-5.32c-2.6-0.99-5.53,0.32-6.52,2.92
							L96.67,59.84l3.36,1.28c0.87,0.33,1.3,1.3,0.97,2.17H101.02z"/>
						<path class="st3" d="M150.09,82L150.09,82c-0.52-0.2-1.06-0.4-1.6-0.61l0,0c-0.33,0.87-1.3,1.3-2.17,0.97l-4.75-1.81
							c-0.87-0.33-1.3-1.3-0.97-2.17l0,0c-0.53-0.2-1.06-0.41-1.6-0.61l0,0c-0.33,0.87-1.3,1.3-2.17,0.97l-4.75-1.81
							c-0.87-0.33-1.3-1.3-0.97-2.17l0,0c-0.53-0.2-1.07-0.41-1.6-0.61l0,0c-0.33,0.87-1.3,1.3-2.17,0.97l-4.75-1.81
							c-0.87-0.33-1.3-1.3-0.97-2.17l0,0c-0.54-0.2-1.07-0.41-1.6-0.61l0,0c-0.33,0.87-1.3,1.3-2.17,0.97l-3.67-1.4l-34.17,89.61
							l36.51,13.92c2.6,0.99,5.53-0.32,6.52-2.92l32.37-84.89l-4.32-1.65c-0.87-0.33-1.3-1.3-0.97-2.17L150.09,82z"/>
						<path class="st3" d="M119.03,68.36c0.87,0.33,1.3,1.3,0.97,2.17l1.6,0.61c0.33-0.87,1.3-1.3,2.17-0.97l4.75,1.81
							c0.87,0.33,1.3,1.3,0.97,2.17l1.6,0.61c0.33-0.87,1.3-1.3,2.17-0.97l4.75,1.81c0.87,0.33,1.3,1.3,0.97,2.17l1.6,0.61
							c0.33-0.87,1.3-1.3,2.17-0.97l4.75,1.81c0.87,0.33,1.3,1.3,0.97,2.17c0.54,0.21,1.08,0.41,1.6,0.61
							c0.33-0.87,1.3-1.3,2.17-0.97l4.32,1.65L170,47.44c0.99-2.6-0.32-5.53-2.92-6.52L130.57,27l-15.24,39.96l3.67,1.4H119.03z"/>
					</g>
					<path class="st4" d="M133.56,34.58l0.04,0.01c1.43,0.55,2.15,2.15,1.61,3.59l-9.02,23.65c-0.55,1.43-2.15,2.15-3.59,1.61
						l-0.04-0.01c-1.43-0.55-2.15-2.15-1.61-3.59l9.02-23.65C130.52,34.75,132.13,34.03,133.56,34.58z"/>
					<path class="st4" d="M137.35,45.48l0.04,0.01c1.43,0.55,2.15,2.15,1.61,3.59l-5.87,15.4c-0.55,1.43-2.15,2.15-3.59,1.61
						l-0.04-0.01c-1.43-0.55-2.15-2.15-1.61-3.59l5.87-15.4C134.31,45.65,135.91,44.93,137.35,45.48z"/>
					<g>
						
							<rect x="149.44" y="67.57" transform="matrix(0.3564 -0.9343 0.9343 0.3564 27.8434 187.9911)" class="st5" width="1.88" height="12.42"/>
						
							<rect x="150.89" y="65.52" transform="matrix(0.3564 -0.9343 0.9343 0.3564 30.2762 187.4101)" class="st5" width="0.56" height="12.42"/>
						
							<rect x="151.33" y="64.34" transform="matrix(0.3564 -0.9343 0.9343 0.3564 31.6584 187.0563)" class="st5" width="0.56" height="12.42"/>
						
							<rect x="151.48" y="62.24" transform="matrix(0.3564 -0.9343 0.9343 0.3564 34.1388 186.4599)" class="st5" width="1.88" height="12.42"/>
						
							<rect x="152.89" y="59.7" transform="matrix(0.3564 -0.9343 0.9343 0.3564 37.129 185.7305)" class="st5" width="0.98" height="12.42"/>
						
							<rect x="153.52" y="56.9" transform="matrix(0.3564 -0.9343 0.9343 0.3564 40.4419 184.9296)" class="st5" width="1.88" height="12.42"/>
						
							<rect x="155.14" y="54.24" transform="matrix(0.3564 -0.9343 0.9343 0.3564 43.5898 184.1715)" class="st5" width="0.68" height="12.42"/>
						
							<rect x="155.55" y="51.56" transform="matrix(0.3564 -0.9343 0.9343 0.3564 46.7373 183.3985)" class="st5" width="1.88" height="12.42"/>
						
							<rect x="156.7" y="49.73" transform="matrix(0.3564 -0.9343 0.9343 0.3564 48.8989 182.8679)" class="st5" width="0.98" height="12.42"/>
						
							<rect x="157.28" y="48.19" transform="matrix(0.3564 -0.9343 0.9343 0.3564 50.7183 182.4213)" class="st5" width="0.98" height="12.42"/>
						
							<rect x="157.59" y="46.21" transform="matrix(0.3564 -0.9343 0.9343 0.3564 53.049 181.8584)" class="st5" width="1.88" height="12.42"/>
						
							<rect x="158.78" y="44.39" transform="matrix(0.3564 -0.9343 0.9343 0.3564 55.2013 181.3343)" class="st5" width="0.9" height="12.42"/>
						
							<rect x="159.35" y="42.87" transform="matrix(0.3564 -0.9343 0.9343 0.3564 56.991 180.8896)" class="st5" width="0.9" height="12.42"/>
						
							<rect x="159.63" y="40.88" transform="matrix(0.3564 -0.9343 0.9343 0.3564 59.3403 180.3276)" class="st5" width="1.88" height="12.42"/>
					</g>
				</g>
				<g>
					<g>
						<path class="st2" d="M73.62,63.26c-0.95-0.03-1.7-0.83-1.67-1.79l0,0c-0.59-0.02-1.18-0.04-1.76-0.06l0,0
							c-0.03,0.95-0.83,1.7-1.79,1.67l-5.21-0.18c-0.95-0.03-1.7-0.83-1.67-1.79l0,0c-0.6-0.02-1.18-0.04-1.76-0.06l0,0
							c-0.03,0.95-0.83,1.7-1.79,1.67l-3.69-0.13l-3.24,93.18c-0.1,2.85,2.15,5.26,5,5.36l15.32,0.53l3.42-98.36l-1.18-0.04
							L73.62,63.26z"/>
						<path class="st2" d="M59.77,61.05c0.57,0.02,1.16,0.04,1.76,0.06c0.03-0.95,0.83-1.7,1.79-1.67l5.21,0.18
							c0.95,0.03,1.7,0.83,1.67,1.79l1.76,0.06c0.03-0.95,0.83-1.7,1.79-1.67l1.18,0.04l1.52-43.87l-15.32-0.53
							c-2.85-0.1-5.26,2.15-5.36,5l-1.34,38.69l3.69,0.13c0.95,0.03,1.7,0.83,1.67,1.79L59.77,61.05z"/>
						<path class="st0" d="M113.64,62.92L113.64,62.92c-0.57-0.02-1.16-0.04-1.76-0.06l0,0c-0.03,0.95-0.83,1.7-1.79,1.67
							l-5.21-0.18c-0.95-0.03-1.7-0.83-1.67-1.79l0,0c-0.58-0.02-1.17-0.04-1.76-0.06l0,0c-0.03,0.95-0.83,1.7-1.79,1.67l-5.21-0.18
							c-0.95-0.03-1.7-0.83-1.67-1.79l0,0c-0.58-0.02-1.17-0.04-1.76-0.06l0,0c-0.03,0.95-0.83,1.7-1.79,1.67l-5.21-0.18
							c-0.95-0.03-1.7-0.83-1.67-1.79l0,0c-0.59-0.02-1.17-0.04-1.76-0.06l0,0c-0.03,0.95-0.83,1.7-1.79,1.67l-4.03-0.14
							l-3.42,98.36l40.07,1.39c2.85,0.1,5.26-2.15,5.36-5l3.24-93.18l-4.74-0.16c-0.95-0.03-1.7-0.83-1.67-1.79L113.64,62.92z"/>
						<path class="st0" d="M78.95,59.99c0.95,0.03,1.7,0.83,1.67,1.79c0.58,0.02,1.17,0.04,1.76,0.06c0.03-0.95,0.83-1.7,1.79-1.67
							l5.21,0.18c0.95,0.03,1.7,0.83,1.67,1.79l1.76,0.06c0.03-0.95,0.83-1.7,1.79-1.67l5.21,0.18c0.95,0.03,1.7,0.83,1.67,1.79
							l1.76,0.06c0.03-0.95,0.83-1.7,1.79-1.67l5.21,0.18c0.95,0.03,1.7,0.83,1.67,1.79l1.76,0.06c0.03-0.95,0.83-1.7,1.79-1.67
							l4.74,0.16l1.34-38.69c0.1-2.85-2.15-5.26-5-5.36l-40.07-1.39l-1.52,43.87l4.03,0.14L78.95,59.99z"/>
						<path class="st1" d="M60.94,15.45c0.06,0,0.12,0,0.18,0l15.32,0.53l40.07,1.39c2.85,0.1,5.1,2.51,5,5.36l-1.34,38.69
							l-4.74-0.16c0,0-0.04,0-0.06,0c-0.93,0-1.69,0.73-1.73,1.67c-0.57-0.02-1.16-0.04-1.76-0.06c0.03-0.95-0.71-1.75-1.67-1.79
							L105,60.9c0,0-0.04,0-0.06,0c-0.93,0-1.69,0.73-1.73,1.67c-0.58-0.02-1.17-0.04-1.76-0.06c0.03-0.95-0.71-1.75-1.67-1.79
							l-5.21-0.18c0,0-0.04,0-0.06,0c-0.93,0-1.69,0.73-1.73,1.67c-0.58-0.02-1.17-0.04-1.76-0.06c0.03-0.95-0.71-1.75-1.67-1.79
							l-5.21-0.18c0,0-0.04,0-0.06,0c-0.93,0-1.69,0.73-1.73,1.67c-0.59-0.02-1.17-0.04-1.76-0.06c0.03-0.95-0.71-1.75-1.67-1.79
							l-4.03-0.14l-1.18-0.04c0,0-0.04,0-0.06,0c-0.93,0-1.69,0.73-1.73,1.67c-0.59-0.02-1.18-0.04-1.76-0.06
							c0.03-0.95-0.71-1.75-1.67-1.79l-5.21-0.18c0,0-0.04,0-0.06,0c-0.93,0-1.69,0.73-1.73,1.67c-0.6-0.02-1.18-0.04-1.76-0.06
							c0.03-0.95-0.71-1.75-1.67-1.79l-3.69-0.13l1.34-38.69c0.1-2.79,2.41-5,5.18-5 M60.89,11.46c-4.97,0-9,3.89-9.18,8.86
							l-1.34,38.69c-0.08,2.21,1.65,4.06,3.86,4.14l2.12,0.07c0.69,1.07,1.87,1.79,3.23,1.84l0.8,0.03l0.96,0.03c0,0,0.09,0,0.14,0
							c1.31,0,2.48-0.63,3.21-1.61l2.08,0.07c0.69,1.07,1.87,1.79,3.23,1.84l1.75,0.06c0,0,0.1,0,0.14,0c1.31,0,2.48-0.63,3.21-1.61
							l2.08,0.07c0.69,1.07,1.87,1.79,3.23,1.84l1.08,0.04l0.67,0.02c0,0,0.09,0,0.14,0c1.01,0,1.99-0.38,2.73-1.07
							c0.18-0.17,0.34-0.35,0.48-0.54l2.08,0.07c0.69,1.07,1.87,1.79,3.23,1.84l0.79,0.03l0.97,0.03c0,0,0.09,0,0.14,0
							c1.01,0,1.99-0.38,2.73-1.07c0.18-0.17,0.34-0.35,0.48-0.54l2.08,0.07c0.13,0.2,0.28,0.39,0.44,0.57
							c0.72,0.78,1.73,1.23,2.79,1.27l0.54,0.02l1.21,0.04c0,0,0.09,0,0.14,0c1.01,0,1.99-0.38,2.73-1.07
							c0.18-0.17,0.34-0.35,0.48-0.54l2.08,0.07c0.69,1.07,1.87,1.79,3.23,1.84l1.24,0.04l0.52,0.02c0,0,0.09,0,0.14,0
							c1.01,0,1.99-0.38,2.73-1.07c0.18-0.17,0.34-0.35,0.48-0.54l3.18,0.11c0,0,0.09,0,0.14,0c1.01,0,1.99-0.38,2.73-1.08
							c0.78-0.72,1.23-1.73,1.27-2.79l1.34-38.69c0.08-2.45-0.79-4.78-2.47-6.58c-1.68-1.8-3.95-2.83-6.39-2.92l-40.07-1.39
							l-15.32-0.53c-0.11,0-0.21,0-0.32,0l0,0L60.89,11.46z"/>
					</g>
					<path class="st4" d="M81.83,22.36h0.05c1.57,0.05,2.8,1.37,2.75,2.95l-0.9,25.96c-0.05,1.57-1.37,2.8-2.95,2.75h-0.05
						c-1.57-0.05-2.8-1.37-2.75-2.95l0.9-25.96C78.94,23.54,80.26,22.3,81.83,22.36z"/>
					<path class="st4" d="M89.14,31.68h0.05c1.57,0.05,2.8,1.37,2.75,2.95l-0.59,16.91c-0.05,1.57-1.37,2.8-2.95,2.75h-0.05
						c-1.57-0.05-2.8-1.37-2.75-2.95l0.59-16.91C86.24,32.86,87.56,31.63,89.14,31.68z"/>
					<g>
						
							<rect x="110.21" y="48.46" transform="matrix(0.0347 -0.9994 0.9994 0.0347 52.5218 164.0417)" class="st5" width="1.93" height="12.75"/>
						
							<rect x="110.98" y="46.2" transform="matrix(0.0347 -0.9994 0.9994 0.0347 54.8585 161.953)" class="st5" width="0.58" height="12.75"/>
						
							<rect x="111.01" y="44.89" transform="matrix(0.0347 -0.9994 0.9994 0.0347 56.2073 160.7234)" class="st5" width="0.58" height="12.75"/>
						
							<rect x="110.42" y="42.6" transform="matrix(0.0347 -0.9994 0.9994 0.0347 58.5677 158.5959)" class="st5" width="1.93" height="12.75"/>
						
							<rect x="110.99" y="39.82" transform="matrix(0.0347 -0.9994 0.9994 0.0347 61.4495 156.0174)" class="st5" width="1" height="12.75"/>
						
							<rect x="110.62" y="36.73" transform="matrix(0.0347 -0.9994 0.9994 0.0347 64.6338 153.1311)" class="st5" width="1.93" height="12.75"/>
						
							<rect x="111.34" y="33.83" transform="matrix(0.0347 -0.9994 0.9994 0.0347 67.6319 150.4216)" class="st5" width="0.69" height="12.75"/>
						
							<rect x="110.83" y="30.88" transform="matrix(0.0347 -0.9994 0.9994 0.0347 70.6797 147.6852)" class="st5" width="1.93" height="12.75"/>
						
							<rect x="111.37" y="28.87" transform="matrix(0.0347 -0.9994 0.9994 0.0347 72.7594 145.8269)" class="st5" width="1" height="12.75"/>
						
							<rect x="111.42" y="27.18" transform="matrix(0.0347 -0.9994 0.9994 0.0347 74.5044 144.2418)" class="st5" width="1" height="12.75"/>
						
							<rect x="111.03" y="25.03" transform="matrix(0.0347 -0.9994 0.9994 0.0347 76.7254 142.2394)" class="st5" width="1.93" height="12.75"/>
						
							<rect x="111.6" y="23.02" transform="matrix(0.0347 -0.9994 0.9994 0.0347 78.8004 140.3761)" class="st5" width="0.93" height="12.75"/>
						
							<rect x="111.66" y="21.34" transform="matrix(0.0347 -0.9994 0.9994 0.0347 80.5442 138.8109)" class="st5" width="0.93" height="12.75"/>
						
							<rect x="111.23" y="19.15" transform="matrix(0.0347 -0.9994 0.9994 0.0347 82.7917 136.7745)" class="st5" width="1.93" height="12.75"/>
					</g>
				</g>
				<g>
					<path class="st6" d="M46.25,44.91h70.24c6.71,0,12.15,5.44,12.15,12.15V166.4c0,6.71-5.44,12.15-12.15,12.15H46.25
						c-6.71,0-12.15-5.44-12.15-12.15V57.06C34.1,50.35,39.54,44.91,46.25,44.91z"/>
					<path class="st1" d="M116.48,46.91c5.6,0,10.15,4.55,10.15,10.15V166.4c0,5.6-4.55,10.15-10.15,10.15H46.24
						c-5.6,0-10.15-4.55-10.15-10.15V57.06c0-5.6,4.55-10.15,10.15-10.15L116.48,46.91 M116.48,42.91H46.24
						c-7.8,0-14.15,6.35-14.15,14.15V166.4c0,7.8,6.35,14.15,14.15,14.15h70.24c7.8,0,14.15-6.35,14.15-14.15V57.06
						C130.63,49.26,124.28,42.91,116.48,42.91L116.48,42.91z"/>
				</g>
				<g class="st7">
					<path class="st8" d="M81.36,86.08c-14.15,0-25.65,11.51-25.65,25.65s11.51,25.65,25.65,25.65s25.65-11.51,25.65-25.65
						S95.5,86.08,81.36,86.08z M74.89,90.19c-1,1.12-1.92,2.52-2.75,4.17c-0.51,1.03-0.97,2.13-1.38,3.29
						c-1.91-0.48-3.7-1.09-5.29-1.82C68.07,93.24,71.29,91.27,74.89,90.19z M64.34,97.05c1.77,0.85,3.77,1.56,5.93,2.11
						c-1.06,3.55-1.66,7.58-1.72,11.79h-9.66c0.18-5.3,2.21-10.14,5.45-13.89V97.05z M58.89,112.52h9.66
						c0.07,4.21,0.66,8.24,1.72,11.79c-2.16,0.55-4.16,1.25-5.93,2.11c-3.24-3.76-5.27-8.59-5.45-13.89
						C58.89,112.53,58.89,112.52,58.89,112.52z M65.47,127.63c1.6-0.73,3.38-1.34,5.29-1.82c0.41,1.16,0.87,2.27,1.38,3.29
						c0.82,1.65,1.75,3.04,2.75,4.17C71.29,132.19,68.06,130.22,65.47,127.63z M80.57,134.21c-0.84-0.03-1.67-0.1-2.49-0.22
						c-1.67-1.07-3.22-2.97-4.53-5.58c-0.46-0.92-0.87-1.91-1.25-2.94c2.6-0.54,5.39-0.84,8.26-0.89L80.57,134.21L80.57,134.21z
						 M80.57,122.99c-3.04,0.05-6,0.38-8.76,0.97c-1.04-3.42-1.62-7.33-1.69-11.43h10.45C80.57,112.53,80.57,122.99,80.57,122.99z
						 M80.57,110.95H70.12c0.07-4.1,0.65-8.01,1.69-11.43c2.76,0.58,5.72,0.92,8.76,0.97C80.57,100.49,80.57,110.95,80.57,110.95z
						 M80.57,98.91c-2.86-0.05-5.66-0.35-8.26-0.89c0.37-1.04,0.79-2.02,1.25-2.94c1.31-2.62,2.86-4.51,4.53-5.58
						c0.82-0.12,1.64-0.19,2.49-0.22L80.57,98.91L80.57,98.91z M97.25,95.84c-1.6,0.73-3.38,1.34-5.29,1.82
						c-0.41-1.16-0.87-2.27-1.38-3.29c-0.82-1.65-1.75-3.04-2.75-4.17C91.43,91.28,94.66,93.25,97.25,95.84z M82.15,89.26
						c0.84,0.03,1.67,0.1,2.49,0.22c1.67,1.07,3.22,2.97,4.53,5.58c0.46,0.92,0.87,1.91,1.25,2.94c-2.6,0.54-5.39,0.84-8.26,0.89
						L82.15,89.26L82.15,89.26z M82.15,100.48c3.04-0.05,6-0.38,8.76-0.97c1.04,3.42,1.62,7.33,1.69,11.43H82.15V100.48z
						 M82.15,112.52H92.6c-0.07,4.1-0.65,8.01-1.69,11.43c-2.76-0.58-5.72-0.92-8.76-0.97C82.15,122.98,82.15,112.52,82.15,112.52z
						 M84.64,133.98c-0.82,0.12-1.64,0.19-2.49,0.22v-9.64c2.86,0.05,5.66,0.35,8.26,0.89c-0.37,1.04-0.79,2.02-1.25,2.94
						C87.85,131.01,86.3,132.9,84.64,133.98L84.64,133.98z M87.83,133.27c1-1.12,1.93-2.52,2.75-4.17c0.51-1.03,0.97-2.13,1.38-3.29
						c1.91,0.48,3.7,1.09,5.29,1.82C94.65,130.22,91.43,132.19,87.83,133.27z M98.38,126.41c-1.77-0.85-3.77-1.56-5.93-2.11
						c1.06-3.55,1.66-7.58,1.72-11.79h9.66c-0.18,5.3-2.21,10.14-5.45,13.89L98.38,126.41z M94.17,110.94
						c-0.07-4.21-0.66-8.24-1.72-11.79c2.16-0.55,4.16-1.25,5.93-2.11c3.24,3.76,5.27,8.6,5.45,13.89h-9.66V110.94z"/>
					<path class="st8" d="M99.13,67.01c0.39,0,0.64,0.07,0.73,0.21c0.09,0.14,0.14,0.5,0.14,1.09v3.64h2.65v-2.89
						c0-0.88-0.02-1.43-0.07-1.62c-0.05-0.2-0.17-0.41-0.36-0.65c-0.19-0.23-0.57-0.42-1.14-0.56c0.62-0.06,1.04-0.23,1.25-0.53
						c0.21-0.29,0.32-0.87,0.32-1.72c0-0.93-0.15-1.62-0.45-2.04c-0.3-0.43-0.69-0.69-1.17-0.8c-0.48-0.1-1.39-0.16-2.73-0.16h-2.02
						v10.97h2.85C99.13,71.95,99.13,67.01,99.13,67.01z M99.13,62.87c0.33,0,0.56,0.05,0.68,0.16s0.19,0.34,0.19,0.68v0.6
						c0,0.48-0.06,0.77-0.19,0.86c-0.13,0.09-0.35,0.13-0.67,0.13v-2.44L99.13,62.87z"/>
					<path class="st8" d="M89.2,71.03c0.28,0.38,0.66,0.67,1.13,0.86c0.47,0.19,0.99,0.29,1.58,0.29c0.62,0,1.16-0.1,1.63-0.3
						c0.46-0.2,0.83-0.49,1.11-0.87c0.27-0.38,0.44-0.8,0.49-1.26c0.05-0.46,0.08-1.24,0.08-2.34v-1.88c0-1.13-0.03-1.92-0.08-2.37
						s-0.22-0.87-0.51-1.25c-0.28-0.38-0.66-0.67-1.13-0.86s-0.99-0.29-1.58-0.29c-0.62,0-1.16,0.1-1.63,0.3
						c-0.47,0.2-0.83,0.49-1.11,0.87s-0.44,0.8-0.49,1.26c-0.05,0.46-0.08,1.24-0.08,2.34v1.88c0,1.13,0.03,1.92,0.08,2.37
						C88.74,70.23,88.91,70.65,89.2,71.03z M91.46,63.8c0-0.56,0.04-0.9,0.12-1.02s0.19-0.17,0.34-0.17c0.18,0,0.29,0.07,0.35,0.21
						s0.08,0.47,0.08,0.98v5.04c0,0.65-0.03,1.05-0.08,1.23c-0.05,0.17-0.18,0.26-0.37,0.26s-0.31-0.07-0.36-0.22
						s-0.08-0.54-0.08-1.18v-5.12L91.46,63.8z"/>
					<path class="st8" d="M84.58,67.53h0.77c0.62,0,1.13-0.09,1.51-0.26c0.39-0.17,0.65-0.42,0.8-0.74s0.22-0.83,0.22-1.53v-0.95
						c0-0.69-0.04-1.19-0.11-1.52s-0.22-0.61-0.43-0.84s-0.52-0.41-0.94-0.53c-0.42-0.12-1.01-0.18-1.79-0.18h-2.87v10.97h2.85
						L84.58,67.53L84.58,67.53z M84.58,62.86c0.37,0,0.61,0.06,0.73,0.17c0.12,0.11,0.18,0.36,0.18,0.73v0.9
						c0,0.41-0.05,0.67-0.15,0.8c-0.1,0.13-0.28,0.19-0.55,0.19c-0.06,0-0.13,0-0.21,0V62.86z"/>
					<path class="st8" d="M75.12,66.15c0.23,0.21,0.7,0.55,1.41,1.02c0.71,0.47,1.15,0.8,1.33,1s0.26,0.62,0.26,1.27
						c0,0.29-0.05,0.51-0.14,0.66s-0.23,0.22-0.42,0.22s-0.32-0.06-0.4-0.18c-0.07-0.12-0.11-0.38-0.11-0.79v-1.33H74.4v0.72
						c0,0.82,0.08,1.46,0.25,1.9c0.17,0.45,0.52,0.82,1.06,1.1s1.19,0.43,1.95,0.43c0.7,0,1.3-0.13,1.83-0.38
						c0.52-0.25,0.88-0.56,1.06-0.93s0.27-0.95,0.27-1.73c0-1.07-0.16-1.85-0.49-2.34c-0.33-0.48-1.13-1.1-2.4-1.85
						c-0.44-0.26-0.71-0.49-0.81-0.67c-0.1-0.19-0.15-0.46-0.15-0.83c0-0.28,0.04-0.5,0.13-0.64s0.22-0.21,0.39-0.21
						c0.16,0,0.27,0.05,0.34,0.16c0.07,0.1,0.1,0.35,0.1,0.72v0.81h2.65v-0.43c0-0.87-0.08-1.49-0.25-1.85
						c-0.17-0.36-0.51-0.66-1.04-0.9c-0.52-0.24-1.15-0.36-1.89-0.36c-0.68,0-1.26,0.11-1.73,0.33c-0.48,0.22-0.83,0.52-1.04,0.91
						s-0.32,1-0.32,1.84c0,0.58,0.08,1.06,0.23,1.44c0.15,0.37,0.34,0.67,0.57,0.88L75.12,66.15z"/>
					<path class="st8" d="M67.95,66.15c0.23,0.21,0.7,0.55,1.41,1.02c0.71,0.47,1.15,0.8,1.33,1s0.26,0.62,0.26,1.27
						c0,0.29-0.05,0.51-0.14,0.66s-0.23,0.22-0.42,0.22s-0.32-0.06-0.4-0.18c-0.07-0.12-0.11-0.38-0.11-0.79v-1.33h-2.65v0.72
						c0,0.82,0.08,1.46,0.25,1.9c0.17,0.45,0.52,0.82,1.06,1.1s1.19,0.43,1.95,0.43c0.7,0,1.3-0.13,1.83-0.38
						c0.52-0.25,0.88-0.56,1.06-0.93s0.27-0.95,0.27-1.73c0-1.07-0.16-1.85-0.49-2.34c-0.33-0.48-1.13-1.1-2.4-1.85
						c-0.44-0.26-0.71-0.49-0.81-0.67c-0.1-0.19-0.15-0.46-0.15-0.83c0-0.28,0.04-0.5,0.13-0.64s0.22-0.21,0.39-0.21
						c0.16,0,0.27,0.05,0.34,0.16c0.07,0.1,0.1,0.35,0.1,0.72v0.81h2.65v-0.43c0-0.87-0.08-1.49-0.25-1.85
						c-0.17-0.36-0.51-0.66-1.04-0.9c-0.52-0.24-1.15-0.36-1.89-0.36c-0.68,0-1.26,0.11-1.73,0.33c-0.48,0.22-0.83,0.52-1.04,0.91
						s-0.32,1-0.32,1.84c0,0.58,0.08,1.06,0.23,1.44c0.15,0.37,0.34,0.67,0.57,0.88L67.95,66.15z"/>
					<path class="st8" d="M62.65,71.95l0.17-1.97h1.02l0.15,1.97h2.91l-1.63-10.97h-4.12L59.7,71.95H62.65z M63.33,63.43
						c0.15,1.83,0.29,3.36,0.43,4.61h-0.98C62.85,67.07,63.04,65.53,63.33,63.43z"/>
					<path class="st8" d="M56.58,67.53h0.77c0.62,0,1.13-0.09,1.51-0.26c0.39-0.17,0.65-0.42,0.8-0.74
						c0.14-0.32,0.22-0.83,0.22-1.53v-0.95c0-0.69-0.04-1.19-0.11-1.52s-0.22-0.61-0.43-0.84s-0.52-0.41-0.94-0.53
						s-1.01-0.18-1.79-0.18h-2.87v10.97h2.85L56.58,67.53L56.58,67.53z M56.58,62.86c0.37,0,0.61,0.06,0.73,0.17
						c0.12,0.11,0.18,0.36,0.18,0.73v0.9c0,0.41-0.05,0.67-0.15,0.8c-0.1,0.13-0.28,0.19-0.55,0.19c-0.06,0-0.13,0-0.21,0V62.86z"/>
					<path class="st8" d="M88.08,155.23H74.65c-1.31,0-2.37,1.06-2.37,2.37s1.06,2.37,2.37,2.37h13.43c1.31,0,2.37-1.06,2.37-2.37
						S89.39,155.23,88.08,155.23z"/>
					<polygon class="st8" points="103.26,60.98 103.26,63.18 104.94,63.18 104.94,71.95 107.79,71.95 107.79,63.18 109.49,63.18 
						109.49,60.98 					"/>
				</g>
				<g>
					<path class="st9" d="M101.75,143.37l-1.24-3.32l-2.86-2.59c-3.18,1.74-6.65,3.31-10.39,4.68c-24.72,9.03-51.4,5.46-59.6-7.97
						c-4.46-7.31-2.52-16.03,4.15-23.92c-9.2,6.74-14.36,15.41-13.07,24.02c2.36,15.82,25.58,25.47,51.85,21.54
						C83.06,153.95,93.97,149.36,101.75,143.37z"/>
					<path class="st1" d="M31.82,110.25c-6.67,7.89-8.61,16.61-4.15,23.92c5.13,8.41,17.52,12.96,32.14,12.96
						c8.71,0,18.22-1.61,27.45-4.99c3.74-1.36,7.21-2.94,10.39-4.68l2.86,2.59l1.24,3.32c-7.78,5.99-18.69,10.58-31.16,12.44
						c-3.96,0.59-7.85,0.87-11.61,0.87c-21.19,0-38.23-8.98-40.24-22.42c-1.29-8.61,3.87-17.27,13.07-24.02 M31.81,106.15
						c-0.84,0-1.69,0.26-2.41,0.79c-10.81,7.92-16.17,18.1-14.7,27.92c2.28,15.25,20.49,25.9,44.28,25.9
						c4.02,0,8.13-0.31,12.21-0.92c12.69-1.89,24.43-6.6,33.05-13.24c1.42-1.09,1.96-2.99,1.34-4.67l-1.24-3.32
						c-0.23-0.61-0.6-1.16-1.09-1.6l-2.86-2.59c-0.77-0.7-1.75-1.06-2.75-1.06c-0.67,0-1.34,0.16-1.96,0.5
						c-3.08,1.68-6.38,3.17-9.83,4.43c-8.49,3.1-17.5,4.74-26.05,4.74c-13.53,0-24.51-4.21-28.65-11
						c-4.53-7.42,0.43-15.18,3.78-19.14c1.34-1.58,1.28-3.91-0.13-5.43C34,106.6,32.91,106.16,31.81,106.15L31.81,106.15
						L31.81,106.15z M31.81,114.33L31.81,114.33z"/>
				</g>
				<g>
					<path class="st0" d="M171,87.4c-0.03-0.13-0.09-0.25-0.16-0.35s-0.16-0.2-0.26-0.28c-3.18-2.29-10.64-0.24-14.69,2.87
						l-17.16,13.13l-6.24-3.2l1.62-1.24c0.84-0.64,1.11-1.77,0.61-2.52l-1.11-1.65c-0.5-0.75-1.6-0.83-2.43-0.19l-3.86,2.95
						l-4.66-2.39l1.41-1.08c0.84-0.64,1.11-1.77,0.61-2.52l-1.11-1.65c-0.5-0.75-1.6-0.83-2.43-0.19l-3.64,2.79l-5.96-3.06
						c-1.72-0.59-3.76-0.53-5.8,0.17l-5.38,1.7c-1.62,0.9-2.01,2.98-0.68,3.61l20.95,22.35l-11.93,9.13
						c-0.41,0.32-0.91,0.47-1.38,0.44l-5.42-0.43c-0.22-0.02-0.45,0-0.67,0.07l-4.25,1.26c-1.31,0.39-2.01,1.95-1.33,2.96l8.65,7.84
						l0.09,0.13l4.19,11.25c0.68,1.01,2.29,0.8,3.05-0.4l2.48-3.9c0.13-0.21,0.23-0.43,0.28-0.66l1.35-5.61
						c0.12-0.49,0.42-0.94,0.83-1.25l11.93-9.13l13.15,28.32c0.14,1.55,2.11,1.82,3.43,0.47l3.23-4.89c1.27-1.84,1.98-3.88,2-5.81
						l-0.81-7.01l3.64-2.79c0.84-0.64,1.11-1.77,0.61-2.52l-1.11-1.65c-0.5-0.75-1.6-0.83-2.43-0.19l-1.41,1.08l-0.63-5.48
						l3.86-2.95c0.84-0.64,1.11-1.77,0.61-2.52l-1.11-1.65c-0.5-0.75-1.6-0.83-2.43-0.19l-1.62,1.24l-0.85-7.33l17.16-13.13
						c4.05-3.1,8.26-9.98,7.25-13.93L171,87.4z"/>
					<path class="st1" d="M166.8,85.8c1.5,0,2.82,0.3,3.77,0.98c0.1,0.07,0.19,0.17,0.26,0.28s0.13,0.22,0.16,0.35
						c1.02,3.95-3.19,10.83-7.25,13.93l-17.16,13.13l0.85,7.33l1.62-1.24c0.38-0.29,0.8-0.43,1.21-0.43c0.49,0,0.95,0.21,1.23,0.62
						l1.11,1.65c0.5,0.75,0.23,1.88-0.61,2.52l-3.86,2.95l0.63,5.48l1.41-1.08c0.38-0.29,0.8-0.43,1.21-0.43
						c0.49,0,0.95,0.21,1.23,0.62l1.11,1.65c0.5,0.75,0.23,1.88-0.61,2.52l-3.64,2.79l0.81,7.01c-0.02,1.93-0.73,3.97-2,5.81
						l-3.23,4.89c-0.57,0.59-1.27,0.87-1.89,0.87c-0.8,0-1.46-0.47-1.54-1.34l-13.15-28.32l-11.93,9.13
						c-0.41,0.32-0.71,0.77-0.83,1.25l-1.35,5.61c-0.05,0.23-0.15,0.45-0.28,0.66l-2.48,3.9c-0.43,0.68-1.14,1.04-1.8,1.04
						c-0.5,0-0.96-0.21-1.26-0.64l-4.19-11.25l-0.09-0.13l-8.65-7.84c-0.68-1.01,0.03-2.57,1.33-2.96l4.25-1.26
						c0.18-0.05,0.36-0.08,0.54-0.08c0.05,0,0.09,0,0.14,0l5.42,0.43c0,0,0.09,0,0.14,0c0.43,0,0.87-0.16,1.24-0.44l11.93-9.13
						L99.65,94.28c-1.33-0.63-0.94-2.72,0.68-3.61l5.38-1.7c1.11-0.38,2.22-0.57,3.27-0.57c0.89,0,1.74,0.13,2.52,0.41l5.96,3.06
						l3.64-2.79c0.38-0.29,0.8-0.43,1.21-0.43c0.49,0,0.95,0.21,1.23,0.62l1.11,1.65c0.5,0.75,0.23,1.88-0.61,2.52l-1.41,1.08
						l4.66,2.39l3.86-2.95c0.38-0.29,0.8-0.43,1.21-0.43c0.49,0,0.95,0.21,1.23,0.62l1.11,1.65c0.5,0.75,0.23,1.88-0.61,2.52
						l-1.62,1.24l6.24,3.2l17.16-13.13C158.72,87.45,163.25,85.79,166.8,85.8 M166.8,81.7c-4.36,0-9.75,1.88-13.41,4.69L139.01,97.4
						c0.17-1.34-0.12-2.71-0.91-3.88l-1.11-1.65c-1.02-1.52-2.75-2.43-4.62-2.43c-1.23,0-2.47,0.4-3.5,1.13
						c-0.15-0.68-0.42-1.33-0.82-1.93l-1.11-1.65c-1.02-1.52-2.75-2.43-4.62-2.43c-1.31,0-2.62,0.45-3.69,1.27l-1.59,1.22
						l-3.66-1.88c-0.17-0.09-0.35-0.16-0.54-0.23c-1.21-0.42-2.51-0.63-3.86-0.63c-1.5,0-3.04,0.26-4.55,0.78l-5.34,1.69
						c-0.26,0.08-0.51,0.19-0.75,0.32c-2.25,1.25-3.66,3.62-3.59,6.05c0.05,1.75,0.9,3.33,2.26,4.32l17.51,18.68l-7.74,5.93
						l-4.59-0.36c-0.15-0.01-0.3-0.02-0.46-0.02c-0.57,0-1.14,0.08-1.69,0.25l-4.25,1.26c-1.92,0.57-3.48,2.04-4.16,3.94
						c-0.65,1.79-0.43,3.7,0.6,5.22c0.18,0.27,0.4,0.53,0.65,0.75l7.97,7.22l3.87,10.4c0.11,0.3,0.26,0.59,0.44,0.85
						c1.03,1.53,2.77,2.45,4.65,2.45c2.08,0,4.1-1.13,5.25-2.94l2.48-3.9c0.37-0.59,0.64-1.22,0.81-1.89l1.2-4.96l7.38-5.65
						l10.79,23.24c0.61,2.46,2.78,4.17,5.46,4.17c1.76,0,3.52-0.77,4.82-2.1c0.18-0.18,0.34-0.38,0.48-0.6l3.21-4.86
						c1.74-2.52,2.67-5.3,2.7-8.05c0-0.17,0-0.35-0.03-0.52l-0.54-4.7l1.8-1.38c2.56-1.96,3.23-5.5,1.51-8.05l-1.11-1.65
						c-0.49-0.73-1.14-1.32-1.89-1.73l0.37-0.29c2.56-1.96,3.23-5.5,1.51-8.05l-1.11-1.65c-0.86-1.27-2.2-2.11-3.71-2.36
						l15.06-11.53c4.69-3.59,10.34-11.92,8.72-18.2c-0.15-0.58-0.4-1.12-0.73-1.62c-0.35-0.52-0.77-0.96-1.27-1.31
						c-1.61-1.16-3.68-1.75-6.16-1.75l0,0L166.8,81.7z"/>
				</g>
			</g>
			<path class="st10" d="M149.29,23.99c0,0,0.1,0,0.15,0c-0.02,0-0.05-0.01-0.07-0.01C149.34,23.98,149.32,23.99,149.29,23.99
				L149.29,23.99z"/>
		</g>
	</g>
</g>
<g>
	<g>
		<path class="st11" d="M217.92,65.7l-0.95,6.78h-20.31l-1.79,12.71h16l-0.92,6.56h-16l-1.82,12.96h20.31l-0.96,6.81h-28.9
			l6.44-45.82C189.02,65.7,217.92,65.7,217.92,65.7z"/>
		<path class="st11" d="M228.37,104.49h18.35l-0.99,7.03h-26.87l6.44-45.82h8.52L228.37,104.49z"/>
		<path class="st11" d="M296.88,100.72c0.46,0,0.84,0.18,1.13,0.54l2.85,3.64c-2.18,2.3-4.72,4.07-7.61,5.29
			c-2.89,1.23-6.23,1.84-10.03,1.84c-3.4,0-6.38-0.58-8.93-1.74c-2.55-1.16-4.64-2.78-6.27-4.85c-1.63-2.07-2.76-4.54-3.38-7.42
			s-0.69-6.01-0.21-9.41c0.48-3.44,1.5-6.6,3.04-9.46s3.5-5.33,5.86-7.4s5.07-3.68,8.11-4.83c3.05-1.15,6.31-1.73,9.8-1.73
			c3.4,0,6.3,0.54,8.69,1.63s4.37,2.53,5.94,4.33l-3.41,3.96c-0.21,0.25-0.45,0.47-0.74,0.67c-0.29,0.19-0.67,0.29-1.13,0.29
			c-0.49,0-0.96-0.19-1.41-0.57s-1.04-0.79-1.76-1.24c-0.72-0.44-1.65-0.86-2.79-1.24s-2.63-0.57-4.47-0.57
			c-2.15,0-4.19,0.38-6.1,1.12c-1.91,0.75-3.62,1.82-5.11,3.22c-1.5,1.39-2.75,3.09-3.76,5.09c-1.01,2-1.69,4.24-2.04,6.73
			c-0.36,2.58-0.32,4.87,0.13,6.88c0.45,2.01,1.2,3.7,2.25,5.07s2.37,2.42,3.96,3.15s3.35,1.09,5.3,1.09c1.16,0,2.22-0.06,3.18-0.19
			c0.96-0.13,1.85-0.33,2.68-0.6s1.63-0.63,2.4-1.06s1.55-0.97,2.33-1.6c0.24-0.19,0.48-0.34,0.73-0.46
			C296.34,100.78,296.6,100.72,296.88,100.72z"/>
		<path class="st11" d="M315.87,104.49h18.35l-0.99,7.03h-26.87l6.44-45.82h8.52L315.87,104.49z"/>
		<path class="st11" d="M379.39,111.52h-6.59c-0.74,0-1.32-0.18-1.74-0.55s-0.7-0.83-0.83-1.38l-2.11-9.35h-18.98l-4.74,9.35
			c-0.24,0.49-0.63,0.93-1.19,1.33c-0.55,0.4-1.19,0.6-1.91,0.6h-6.62l24.44-45.82h8.71L379.39,111.52z M352.17,94.22h14.61
			l-3.43-15.24c-0.16-0.68-0.33-1.47-0.5-2.39c-0.18-0.92-0.34-1.92-0.48-2.99c-0.45,1.08-0.88,2.08-1.29,3.01
			c-0.42,0.93-0.81,1.74-1.18,2.44L352.17,94.22z"/>
		<path class="st11" d="M413.94,74.04c-0.3,0.46-0.61,0.79-0.95,0.98c-0.33,0.19-0.71,0.29-1.13,0.29s-0.88-0.16-1.36-0.49
			c-0.48-0.33-1.06-0.69-1.72-1.09c-0.66-0.4-1.45-0.77-2.37-1.09c-0.92-0.33-2.03-0.49-3.34-0.49c-1.18,0-2.23,0.14-3.15,0.43
			c-0.92,0.29-1.71,0.68-2.38,1.19s-1.21,1.11-1.6,1.82c-0.4,0.71-0.65,1.48-0.77,2.33c-0.15,1.08,0.02,1.98,0.53,2.69
			s1.21,1.33,2.13,1.84s1.99,0.96,3.2,1.36c1.21,0.4,2.44,0.83,3.7,1.28s2.48,0.98,3.66,1.58s2.21,1.36,3.07,2.28
			c0.86,0.92,1.5,2.04,1.92,3.38c0.42,1.33,0.49,2.95,0.22,4.85c-0.29,2.07-0.92,4.01-1.88,5.81c-0.96,1.81-2.22,3.38-3.77,4.72
			s-3.36,2.4-5.44,3.17s-4.38,1.16-6.91,1.16c-1.46,0-2.88-0.14-4.25-0.43s-2.67-0.69-3.9-1.22c-1.23-0.53-2.35-1.16-3.38-1.9
			s-1.92-1.56-2.68-2.47l3.05-4.09c0.27-0.29,0.59-0.54,0.94-0.74c0.36-0.2,0.73-0.3,1.14-0.3c0.53,0,1.07,0.22,1.62,0.65
			s1.21,0.91,1.97,1.44s1.67,1.01,2.74,1.44c1.07,0.43,2.4,0.65,3.98,0.65c2.43,0,4.39-0.58,5.88-1.73s2.39-2.8,2.69-4.96
			c0.17-1.2,0.01-2.19-0.49-2.95s-1.2-1.4-2.12-1.92c-0.92-0.52-1.99-0.96-3.21-1.31c-1.22-0.36-2.45-0.75-3.7-1.17
			s-2.47-0.93-3.65-1.52s-2.21-1.36-3.07-2.31c-0.86-0.95-1.49-2.14-1.89-3.56s-0.46-3.18-0.16-5.28c0.23-1.67,0.8-3.3,1.68-4.88
			c0.89-1.58,2.06-2.99,3.51-4.21s3.16-2.21,5.12-2.95s4.14-1.11,6.53-1.11c2.7,0,5.14,0.42,7.3,1.27c2.16,0.84,3.94,2.03,5.33,3.55
			L413.94,74.04z"/>
		<path class="st11" d="M427.72,111.52h-8.56l6.44-45.82h8.56L427.72,111.52z"/>
		<path class="st11" d="M471.04,100.72c0.46,0,0.84,0.18,1.13,0.54l2.85,3.64c-2.18,2.3-4.72,4.07-7.61,5.29
			c-2.89,1.23-6.23,1.84-10.03,1.84c-3.4,0-6.38-0.58-8.93-1.74c-2.55-1.16-4.64-2.78-6.27-4.85c-1.63-2.07-2.76-4.54-3.38-7.42
			s-0.69-6.01-0.21-9.41c0.48-3.44,1.5-6.6,3.04-9.46s3.5-5.33,5.86-7.4s5.06-3.68,8.11-4.83s6.31-1.73,9.8-1.73
			c3.4,0,6.3,0.54,8.69,1.63s4.37,2.53,5.93,4.33l-3.41,3.96c-0.21,0.25-0.45,0.47-0.74,0.67c-0.29,0.19-0.67,0.29-1.13,0.29
			c-0.49,0-0.96-0.19-1.41-0.57s-1.04-0.79-1.76-1.24c-0.72-0.44-1.65-0.86-2.79-1.24s-2.63-0.57-4.47-0.57
			c-2.15,0-4.19,0.38-6.1,1.12c-1.91,0.75-3.62,1.82-5.11,3.22c-1.5,1.39-2.75,3.09-3.76,5.09c-1.01,2-1.69,4.24-2.04,6.73
			c-0.36,2.58-0.32,4.87,0.13,6.88c0.45,2.01,1.2,3.7,2.25,5.07s2.37,2.42,3.96,3.15s3.35,1.09,5.3,1.09c1.16,0,2.22-0.06,3.18-0.19
			c0.96-0.13,1.85-0.33,2.68-0.6s1.63-0.63,2.4-1.06s1.55-0.97,2.33-1.6c0.24-0.19,0.48-0.34,0.73-0.46
			C470.5,100.78,470.76,100.72,471.04,100.72z"/>
		<path class="st11" d="M527.68,88.61c-0.47,3.36-1.47,6.47-2.99,9.33s-3.44,5.34-5.77,7.43s-4.99,3.72-8.01,4.9
			c-3.02,1.17-6.26,1.76-9.72,1.76s-6.55-0.59-9.24-1.76c-2.7-1.17-4.92-2.8-6.66-4.9c-1.75-2.09-2.98-4.57-3.69-7.43
			c-0.72-2.86-0.84-5.97-0.37-9.33s1.47-6.47,2.99-9.33s3.45-5.34,5.78-7.43c2.33-2.09,5.01-3.72,8.04-4.9
			c3.03-1.17,6.27-1.76,9.74-1.76c3.46,0,6.54,0.59,9.22,1.77c2.69,1.18,4.9,2.81,6.63,4.9c1.74,2.08,2.96,4.55,3.68,7.42
			C528.03,82.14,528.16,85.25,527.68,88.61z M518.94,88.61c0.35-2.51,0.34-4.77-0.05-6.77c-0.38-2-1.1-3.69-2.15-5.09
			c-1.05-1.39-2.42-2.46-4.1-3.2s-3.64-1.11-5.88-1.11s-4.31,0.37-6.21,1.11s-3.58,1.81-5.03,3.2s-2.66,3.09-3.61,5.09
			c-0.96,2-1.61,4.25-1.96,6.77c-0.35,2.51-0.33,4.77,0.06,6.77c0.4,2,1.12,3.69,2.19,5.07s2.44,2.44,4.13,3.18s3.66,1.11,5.9,1.11
			s4.3-0.37,6.19-1.11s3.55-1.8,5-3.18c1.44-1.38,2.63-3.07,3.58-5.07C517.93,93.38,518.58,91.13,518.94,88.61z"/>
	</g>
	<g>
		<path class="st0" d="M217.92,65.7l-0.95,6.78h-20.31l-1.79,12.71h16l-0.92,6.56h-16l-1.82,12.96h20.31l-0.96,6.81h-28.9
			l6.44-45.82C189.02,65.7,217.92,65.7,217.92,65.7z"/>
		<path class="st0" d="M228.37,104.49h18.35l-0.99,7.03h-26.87l6.44-45.82h8.52L228.37,104.49z"/>
		<path class="st0" d="M296.88,100.72c0.46,0,0.84,0.18,1.13,0.54l2.85,3.64c-2.18,2.3-4.72,4.07-7.61,5.29
			c-2.89,1.23-6.23,1.84-10.03,1.84c-3.4,0-6.38-0.58-8.93-1.74c-2.55-1.16-4.64-2.78-6.27-4.85c-1.63-2.07-2.76-4.54-3.38-7.42
			s-0.69-6.01-0.21-9.41c0.48-3.44,1.5-6.6,3.04-9.46s3.5-5.33,5.86-7.4s5.07-3.68,8.11-4.83c3.05-1.15,6.31-1.73,9.8-1.73
			c3.4,0,6.3,0.54,8.69,1.63s4.37,2.53,5.94,4.33l-3.41,3.96c-0.21,0.25-0.45,0.47-0.74,0.67c-0.29,0.19-0.67,0.29-1.13,0.29
			c-0.49,0-0.96-0.19-1.41-0.57s-1.04-0.79-1.76-1.24c-0.72-0.44-1.65-0.86-2.79-1.24s-2.63-0.57-4.47-0.57
			c-2.15,0-4.19,0.38-6.1,1.12c-1.91,0.75-3.62,1.82-5.11,3.22c-1.5,1.39-2.75,3.09-3.76,5.09c-1.01,2-1.69,4.24-2.04,6.73
			c-0.36,2.58-0.32,4.87,0.13,6.88c0.45,2.01,1.2,3.7,2.25,5.07s2.37,2.42,3.96,3.15s3.35,1.09,5.3,1.09c1.16,0,2.22-0.06,3.18-0.19
			c0.96-0.13,1.85-0.33,2.68-0.6s1.63-0.63,2.4-1.06s1.55-0.97,2.33-1.6c0.24-0.19,0.48-0.34,0.73-0.46
			C296.34,100.78,296.6,100.72,296.88,100.72z"/>
		<path class="st0" d="M315.87,104.49h18.35l-0.99,7.03h-26.87l6.44-45.82h8.52L315.87,104.49z"/>
		<path class="st0" d="M379.39,111.52h-6.59c-0.74,0-1.32-0.18-1.74-0.55s-0.7-0.83-0.83-1.38l-2.11-9.35h-18.98l-4.74,9.35
			c-0.24,0.49-0.63,0.93-1.19,1.33c-0.55,0.4-1.19,0.6-1.91,0.6h-6.62l24.44-45.82h8.71L379.39,111.52z M352.17,94.22h14.61
			l-3.43-15.24c-0.16-0.68-0.33-1.47-0.5-2.39c-0.18-0.92-0.34-1.92-0.48-2.99c-0.45,1.08-0.88,2.08-1.29,3.01
			c-0.42,0.93-0.81,1.74-1.18,2.44L352.17,94.22z"/>
		<path class="st0" d="M413.94,74.04c-0.3,0.46-0.61,0.79-0.95,0.98c-0.33,0.19-0.71,0.29-1.13,0.29s-0.88-0.16-1.36-0.49
			c-0.48-0.33-1.06-0.69-1.72-1.09c-0.66-0.4-1.45-0.77-2.37-1.09c-0.92-0.33-2.03-0.49-3.34-0.49c-1.18,0-2.23,0.14-3.15,0.43
			c-0.92,0.29-1.71,0.68-2.38,1.19s-1.21,1.11-1.6,1.82c-0.4,0.71-0.65,1.48-0.77,2.33c-0.15,1.08,0.02,1.98,0.53,2.69
			s1.21,1.33,2.13,1.84s1.99,0.96,3.2,1.36c1.21,0.4,2.44,0.83,3.7,1.28s2.48,0.98,3.66,1.58s2.21,1.36,3.07,2.28
			c0.86,0.92,1.5,2.04,1.92,3.38c0.42,1.33,0.49,2.95,0.22,4.85c-0.29,2.07-0.92,4.01-1.88,5.81c-0.96,1.81-2.22,3.38-3.77,4.72
			s-3.36,2.4-5.44,3.17s-4.38,1.16-6.91,1.16c-1.46,0-2.88-0.14-4.25-0.43s-2.67-0.69-3.9-1.22c-1.23-0.53-2.35-1.16-3.38-1.9
			s-1.92-1.56-2.68-2.47l3.05-4.09c0.27-0.29,0.59-0.54,0.94-0.74c0.36-0.2,0.73-0.3,1.14-0.3c0.53,0,1.07,0.22,1.62,0.65
			s1.21,0.91,1.97,1.44s1.67,1.01,2.74,1.44c1.07,0.43,2.4,0.65,3.98,0.65c2.43,0,4.39-0.58,5.88-1.73s2.39-2.8,2.69-4.96
			c0.17-1.2,0.01-2.19-0.49-2.95s-1.2-1.4-2.12-1.92c-0.92-0.52-1.99-0.96-3.21-1.31c-1.22-0.36-2.45-0.75-3.7-1.17
			s-2.47-0.93-3.65-1.52s-2.21-1.36-3.07-2.31c-0.86-0.95-1.49-2.14-1.89-3.56s-0.46-3.18-0.16-5.28c0.23-1.67,0.8-3.3,1.68-4.88
			c0.89-1.58,2.06-2.99,3.51-4.21s3.16-2.21,5.12-2.95s4.14-1.11,6.53-1.11c2.7,0,5.14,0.42,7.3,1.27c2.16,0.84,3.94,2.03,5.33,3.55
			L413.94,74.04z"/>
		<path class="st0" d="M427.72,111.52h-8.56l6.44-45.82h8.56L427.72,111.52z"/>
		<path class="st0" d="M471.04,100.72c0.46,0,0.84,0.18,1.13,0.54l2.85,3.64c-2.18,2.3-4.72,4.07-7.61,5.29
			c-2.89,1.23-6.23,1.84-10.03,1.84c-3.4,0-6.38-0.58-8.93-1.74c-2.55-1.16-4.64-2.78-6.27-4.85c-1.63-2.07-2.76-4.54-3.38-7.42
			s-0.69-6.01-0.21-9.41c0.48-3.44,1.5-6.6,3.04-9.46s3.5-5.33,5.86-7.4s5.06-3.68,8.11-4.83s6.31-1.73,9.8-1.73
			c3.4,0,6.3,0.54,8.69,1.63s4.37,2.53,5.93,4.33l-3.41,3.96c-0.21,0.25-0.45,0.47-0.74,0.67c-0.29,0.19-0.67,0.29-1.13,0.29
			c-0.49,0-0.96-0.19-1.41-0.57s-1.04-0.79-1.76-1.24c-0.72-0.44-1.65-0.86-2.79-1.24s-2.63-0.57-4.47-0.57
			c-2.15,0-4.19,0.38-6.1,1.12c-1.91,0.75-3.62,1.82-5.11,3.22c-1.5,1.39-2.75,3.09-3.76,5.09c-1.01,2-1.69,4.24-2.04,6.73
			c-0.36,2.58-0.32,4.87,0.13,6.88c0.45,2.01,1.2,3.7,2.25,5.07s2.37,2.42,3.96,3.15s3.35,1.09,5.3,1.09c1.16,0,2.22-0.06,3.18-0.19
			c0.96-0.13,1.85-0.33,2.68-0.6s1.63-0.63,2.4-1.06s1.55-0.97,2.33-1.6c0.24-0.19,0.48-0.34,0.73-0.46
			C470.5,100.78,470.76,100.72,471.04,100.72z"/>
		<path class="st0" d="M527.68,88.61c-0.47,3.36-1.47,6.47-2.99,9.33s-3.44,5.34-5.77,7.43s-4.99,3.72-8.01,4.9
			c-3.02,1.17-6.26,1.76-9.72,1.76s-6.55-0.59-9.24-1.76c-2.7-1.17-4.92-2.8-6.66-4.9c-1.75-2.09-2.98-4.57-3.69-7.43
			c-0.72-2.86-0.84-5.97-0.37-9.33s1.47-6.47,2.99-9.33s3.45-5.34,5.78-7.43c2.33-2.09,5.01-3.72,8.04-4.9
			c3.03-1.17,6.27-1.76,9.74-1.76c3.46,0,6.54,0.59,9.22,1.77c2.69,1.18,4.9,2.81,6.63,4.9c1.74,2.08,2.96,4.55,3.68,7.42
			C528.03,82.14,528.16,85.25,527.68,88.61z M518.94,88.61c0.35-2.51,0.34-4.77-0.05-6.77c-0.38-2-1.1-3.69-2.15-5.09
			c-1.05-1.39-2.42-2.46-4.1-3.2s-3.64-1.11-5.88-1.11s-4.31,0.37-6.21,1.11s-3.58,1.81-5.03,3.2s-2.66,3.09-3.61,5.09
			c-0.96,2-1.61,4.25-1.96,6.77c-0.35,2.51-0.33,4.77,0.06,6.77c0.4,2,1.12,3.69,2.19,5.07s2.44,2.44,4.13,3.18s3.66,1.11,5.9,1.11
			s4.3-0.37,6.19-1.11s3.55-1.8,5-3.18c1.44-1.38,2.63-3.07,3.58-5.07C517.93,93.38,518.58,91.13,518.94,88.61z"/>
	</g>
</g>
<g>
	<g>
		<path d="M200.98,154.68c-0.37,2.63-1.23,5-2.6,7.12c-1.36,2.12-3.02,3.76-4.98,4.95c-1.57,0.96-3.13,1.58-4.68,1.87
			s-3.5,0.44-5.83,0.44h-6.63l2.01-14.31h-3.25l0.39-2.77h3.25l1.65-11.72h6.56c2.71,0,4.8,0.2,6.29,0.61s2.72,0.96,3.7,1.67
			c1.68,1.22,2.89,2.85,3.63,4.88C201.2,149.45,201.37,151.87,200.98,154.68z M197,154.63c0.31-2.22,0.21-4.11-0.3-5.68
			s-1.43-2.79-2.75-3.67c-0.93-0.62-1.96-1.06-3.08-1.33c-1.12-0.27-2.55-0.41-4.27-0.41h-2.92l-1.19,8.43h6.32l-0.39,2.77h-6.32
			l-1.55,11.02h2.92c1.7,0,3.21-0.14,4.53-0.42s2.55-0.78,3.71-1.5c1.45-0.9,2.62-2.11,3.5-3.61
			C196.09,158.74,196.68,156.87,197,154.63z"/>
		<path d="M227.06,143.56c0.92,1.26,1.55,2.83,1.89,4.7c0.34,1.87,0.35,4,0.01,6.4c-0.33,2.33-0.92,4.44-1.78,6.32
			c-0.86,1.88-1.94,3.46-3.24,4.74c-1.36,1.34-2.87,2.33-4.53,2.97c-1.66,0.64-3.43,0.96-5.31,0.96c-1.95,0-3.65-0.33-5.12-0.99
			c-1.47-0.66-2.67-1.64-3.61-2.94c-0.93-1.28-1.56-2.85-1.89-4.72s-0.33-3.98,0-6.34c0.34-2.42,0.94-4.55,1.8-6.38
			c0.86-1.83,1.93-3.4,3.23-4.72c1.29-1.28,2.76-2.25,4.42-2.91c1.66-0.67,3.46-1,5.39-1c1.96,0,3.68,0.34,5.16,1.02
			C224.96,141.36,226.15,142.32,227.06,143.56z M224.98,154.66c0.27-1.91,0.3-3.6,0.09-5.07c-0.21-1.47-0.62-2.69-1.23-3.66
			c-0.62-0.99-1.44-1.74-2.44-2.23c-1.01-0.5-2.18-0.75-3.52-0.75c-1.39,0-2.64,0.24-3.75,0.73c-1.11,0.48-2.13,1.24-3.07,2.25
			c-0.9,0.98-1.65,2.21-2.27,3.69c-0.61,1.48-1.05,3.16-1.32,5.03c-0.53,3.78-0.14,6.67,1.16,8.67c1.3,2,3.29,3.01,5.96,3.01
			s4.93-1,6.8-3.01C223.25,161.33,224.45,158.44,224.98,154.66z M215.01,176.44h-4.14l0.53-3.77h4.14L215.01,176.44z M225.14,136.75
			h-3.08l-2.88-4.95l-4.26,4.95h-3l5.44-7.33h4.39L225.14,136.75z"/>
		<path d="M242.32,169.58c-1.88,0-3.57-0.32-5.06-0.95c-1.49-0.63-2.72-1.57-3.69-2.82c-0.97-1.25-1.64-2.81-2.01-4.68
			c-0.37-1.87-0.38-4.02-0.04-6.44c0.34-2.41,0.94-4.51,1.8-6.31s1.98-3.35,3.34-4.68c1.33-1.29,2.83-2.27,4.5-2.95
			c1.67-0.68,3.48-1.02,5.42-1.02c0.97,0,1.86,0.07,2.69,0.21c0.82,0.14,1.58,0.32,2.27,0.54c0.59,0.19,1.19,0.44,1.8,0.73
			s1.21,0.61,1.79,0.96l-0.65,4.62h-0.31c-0.29-0.31-0.67-0.68-1.14-1.12c-0.47-0.44-1.05-0.87-1.75-1.3
			c-0.68-0.4-1.43-0.73-2.26-0.99c-0.83-0.26-1.81-0.39-2.94-0.39c-1.22,0-2.42,0.25-3.59,0.75c-1.17,0.5-2.23,1.24-3.19,2.22
			c-0.95,0.98-1.75,2.21-2.41,3.69c-0.66,1.48-1.12,3.15-1.38,5.01c-0.28,1.97-0.28,3.67,0,5.1c0.28,1.42,0.76,2.63,1.45,3.61
			c0.67,0.95,1.51,1.67,2.52,2.16c1.01,0.48,2.13,0.73,3.34,0.73c1.11,0,2.15-0.14,3.13-0.41s1.87-0.61,2.66-1.03
			c0.77-0.4,1.44-0.81,2.01-1.23s1.03-0.78,1.37-1.07h0.29l-0.64,4.56c-0.67,0.3-1.31,0.58-1.91,0.85c-0.6,0.27-1.32,0.54-2.15,0.79
			c-0.88,0.27-1.68,0.48-2.42,0.62C244.41,169.51,243.47,169.58,242.32,169.58z"/>
		<path d="M290.24,176.09c-0.72,0.18-1.47,0.32-2.25,0.41c-0.78,0.09-1.55,0.14-2.31,0.14c-2.15,0-3.82-0.61-5-1.82
			s-1.67-2.94-1.49-5.18c-0.17,0-0.33,0-0.48,0s-0.29,0-0.41,0c-1.95,0-3.66-0.33-5.13-1c-1.47-0.66-2.67-1.63-3.6-2.91
			c-0.93-1.28-1.56-2.85-1.89-4.72s-0.33-3.98,0-6.34c0.34-2.42,0.94-4.55,1.8-6.38c0.86-1.83,1.93-3.4,3.23-4.72
			c1.29-1.28,2.76-2.25,4.42-2.91c1.66-0.67,3.46-1,5.39-1c1.96,0,3.68,0.34,5.16,1.02c1.48,0.68,2.67,1.64,3.58,2.88
			c0.92,1.26,1.55,2.83,1.89,4.7c0.34,1.87,0.35,4,0.01,6.4c-0.52,3.73-1.68,6.8-3.48,9.23s-4.02,4.07-6.67,4.93
			c-0.04,0.72,0,1.37,0.1,1.94c0.11,0.57,0.28,1.03,0.53,1.36c0.29,0.4,0.67,0.69,1.14,0.88c0.47,0.19,1.14,0.28,2,0.28
			c0.52,0,1.13-0.08,1.85-0.24c0.72-0.16,1.24-0.31,1.57-0.44h0.52L290.24,176.09z M289.17,154.66c0.27-1.91,0.3-3.6,0.09-5.07
			c-0.21-1.47-0.62-2.69-1.23-3.66c-0.62-0.99-1.44-1.74-2.44-2.23c-1.01-0.5-2.18-0.75-3.52-0.75c-1.39,0-2.64,0.24-3.75,0.73
			c-1.11,0.48-2.13,1.24-3.07,2.25c-0.9,0.98-1.65,2.21-2.27,3.69c-0.61,1.48-1.05,3.16-1.32,5.03c-0.53,3.78-0.14,6.67,1.16,8.68
			c1.3,2.01,3.29,3.02,5.96,3.02c2.67,0,4.94-1.01,6.8-3.02C287.45,161.34,288.64,158.44,289.17,154.66z"/>
		<path d="M305.31,169.65c-1.69,0-3.13-0.22-4.33-0.67c-1.2-0.45-2.18-1.11-2.95-1.98c-0.86-1.01-1.41-2.21-1.62-3.61
			c-0.22-1.4-0.18-3.12,0.11-5.17l2.53-17.97h3.83l-2.53,17.97c-0.19,1.33-0.26,2.45-0.22,3.36s0.25,1.72,0.64,2.45
			c0.41,0.77,1.02,1.36,1.85,1.76s1.88,0.6,3.16,0.6c1.2,0,2.29-0.2,3.28-0.6s1.79-0.99,2.41-1.76c0.58-0.74,1.02-1.55,1.32-2.44
			c0.3-0.89,0.54-1.98,0.72-3.27l2.54-18.06h3.83l-2.53,17.97c-0.28,2-0.72,3.71-1.33,5.14c-0.61,1.43-1.49,2.64-2.65,3.64
			c-1.04,0.89-2.2,1.55-3.48,1.99C308.6,169.43,307.07,169.65,305.31,169.65z"/>
		<path d="M345.51,140.26l-11.98,16.05l-1.79,12.75h-3.83l1.73-12.34l-7.42-16.46h4.25l5.64,12.71l9.33-12.71H345.51z"/>
		<path d="M344.13,169.05l4.05-28.8h18.01l-0.48,3.4h-14.18l-1.11,7.89h13.21l-0.48,3.4h-13.21l-1.5,10.7h14.18l-0.48,3.4H344.13z
			 M352.21,134.57h-2.49l-3.49-5.14h4.31L352.21,134.57z M364.34,136.75h-3.08l-2.88-4.95l-4.25,4.95h-3l5.44-7.33h4.39
			L364.34,136.75z"/>
		<path d="M386.95,169.05h-4.29l-9.24-24.83l-3.49,24.83h-3.58l4.05-28.8h5.43l8.38,22.8l3.2-22.8H391L386.95,169.05z"/>
	</g>
	<g>
		<path class="st0" d="M200.98,154.68c-0.37,2.63-1.23,5-2.6,7.12c-1.36,2.12-3.02,3.76-4.98,4.95c-1.57,0.96-3.13,1.58-4.68,1.87
			s-3.5,0.44-5.83,0.44h-6.63l2.01-14.31h-3.25l0.39-2.77h3.25l1.65-11.72h6.56c2.71,0,4.8,0.2,6.29,0.61s2.72,0.96,3.7,1.67
			c1.68,1.22,2.89,2.85,3.63,4.88C201.2,149.45,201.37,151.87,200.98,154.68z M197,154.63c0.31-2.22,0.21-4.11-0.3-5.68
			s-1.43-2.79-2.75-3.67c-0.93-0.62-1.96-1.06-3.08-1.33c-1.12-0.27-2.55-0.41-4.27-0.41h-2.92l-1.19,8.43h6.32l-0.39,2.77h-6.32
			l-1.55,11.02h2.92c1.7,0,3.21-0.14,4.53-0.42s2.55-0.78,3.71-1.5c1.45-0.9,2.62-2.11,3.5-3.61
			C196.09,158.74,196.68,156.87,197,154.63z"/>
		<path class="st0" d="M227.06,143.56c0.92,1.26,1.55,2.83,1.89,4.7c0.34,1.87,0.35,4,0.01,6.4c-0.33,2.33-0.92,4.44-1.78,6.32
			c-0.86,1.88-1.94,3.46-3.24,4.74c-1.36,1.34-2.87,2.33-4.53,2.97c-1.66,0.64-3.43,0.96-5.31,0.96c-1.95,0-3.65-0.33-5.12-0.99
			c-1.47-0.66-2.67-1.64-3.61-2.94c-0.93-1.28-1.56-2.85-1.89-4.72s-0.33-3.98,0-6.34c0.34-2.42,0.94-4.55,1.8-6.38
			c0.86-1.83,1.93-3.4,3.23-4.72c1.29-1.28,2.76-2.25,4.42-2.91c1.66-0.67,3.46-1,5.39-1c1.96,0,3.68,0.34,5.16,1.02
			C224.96,141.36,226.15,142.32,227.06,143.56z M224.98,154.66c0.27-1.91,0.3-3.6,0.09-5.07c-0.21-1.47-0.62-2.69-1.23-3.66
			c-0.62-0.99-1.44-1.74-2.44-2.23c-1.01-0.5-2.18-0.75-3.52-0.75c-1.39,0-2.64,0.24-3.75,0.73c-1.11,0.48-2.13,1.24-3.07,2.25
			c-0.9,0.98-1.65,2.21-2.27,3.69c-0.61,1.48-1.05,3.16-1.32,5.03c-0.53,3.78-0.14,6.67,1.16,8.67c1.3,2,3.29,3.01,5.96,3.01
			s4.93-1,6.8-3.01C223.25,161.33,224.45,158.44,224.98,154.66z M215.01,176.44h-4.14l0.53-3.77h4.14L215.01,176.44z M225.14,136.75
			h-3.08l-2.88-4.95l-4.26,4.95h-3l5.44-7.33h4.39L225.14,136.75z"/>
		<path class="st0" d="M242.32,169.58c-1.88,0-3.57-0.32-5.06-0.95c-1.49-0.63-2.72-1.57-3.69-2.82c-0.97-1.25-1.64-2.81-2.01-4.68
			c-0.37-1.87-0.38-4.02-0.04-6.44c0.34-2.41,0.94-4.51,1.8-6.31s1.98-3.35,3.34-4.68c1.33-1.29,2.83-2.27,4.5-2.95
			c1.67-0.68,3.48-1.02,5.42-1.02c0.97,0,1.86,0.07,2.69,0.21c0.82,0.14,1.58,0.32,2.27,0.54c0.59,0.19,1.19,0.44,1.8,0.73
			s1.21,0.61,1.79,0.96l-0.65,4.62h-0.31c-0.29-0.31-0.67-0.68-1.14-1.12c-0.47-0.44-1.05-0.87-1.75-1.3
			c-0.68-0.4-1.43-0.73-2.26-0.99c-0.83-0.26-1.81-0.39-2.94-0.39c-1.22,0-2.42,0.25-3.59,0.75c-1.17,0.5-2.23,1.24-3.19,2.22
			c-0.95,0.98-1.75,2.21-2.41,3.69c-0.66,1.48-1.12,3.15-1.38,5.01c-0.28,1.97-0.28,3.67,0,5.1c0.28,1.42,0.76,2.63,1.45,3.61
			c0.67,0.95,1.51,1.67,2.52,2.16c1.01,0.48,2.13,0.73,3.34,0.73c1.11,0,2.15-0.14,3.13-0.41s1.87-0.61,2.66-1.03
			c0.77-0.4,1.44-0.81,2.01-1.23s1.03-0.78,1.37-1.07h0.29l-0.64,4.56c-0.67,0.3-1.31,0.58-1.91,0.85c-0.6,0.27-1.32,0.54-2.15,0.79
			c-0.88,0.27-1.68,0.48-2.42,0.62C244.41,169.51,243.47,169.58,242.32,169.58z"/>
		<path class="st0" d="M290.24,176.09c-0.72,0.18-1.47,0.32-2.25,0.41c-0.78,0.09-1.55,0.14-2.31,0.14c-2.15,0-3.82-0.61-5-1.82
			s-1.67-2.94-1.49-5.18c-0.17,0-0.33,0-0.48,0s-0.29,0-0.41,0c-1.95,0-3.66-0.33-5.13-1c-1.47-0.66-2.67-1.63-3.6-2.91
			c-0.93-1.28-1.56-2.85-1.89-4.72s-0.33-3.98,0-6.34c0.34-2.42,0.94-4.55,1.8-6.38c0.86-1.83,1.93-3.4,3.23-4.72
			c1.29-1.28,2.76-2.25,4.42-2.91c1.66-0.67,3.46-1,5.39-1c1.96,0,3.68,0.34,5.16,1.02c1.48,0.68,2.67,1.64,3.58,2.88
			c0.92,1.26,1.55,2.83,1.89,4.7c0.34,1.87,0.35,4,0.01,6.4c-0.52,3.73-1.68,6.8-3.48,9.23s-4.02,4.07-6.67,4.93
			c-0.04,0.72,0,1.37,0.1,1.94c0.11,0.57,0.28,1.03,0.53,1.36c0.29,0.4,0.67,0.69,1.14,0.88c0.47,0.19,1.14,0.28,2,0.28
			c0.52,0,1.13-0.08,1.85-0.24c0.72-0.16,1.24-0.31,1.57-0.44h0.52L290.24,176.09z M289.17,154.66c0.27-1.91,0.3-3.6,0.09-5.07
			c-0.21-1.47-0.62-2.69-1.23-3.66c-0.62-0.99-1.44-1.74-2.44-2.23c-1.01-0.5-2.18-0.75-3.52-0.75c-1.39,0-2.64,0.24-3.75,0.73
			c-1.11,0.48-2.13,1.24-3.07,2.25c-0.9,0.98-1.65,2.21-2.27,3.69c-0.61,1.48-1.05,3.16-1.32,5.03c-0.53,3.78-0.14,6.67,1.16,8.68
			c1.3,2.01,3.29,3.02,5.96,3.02c2.67,0,4.94-1.01,6.8-3.02C287.45,161.34,288.64,158.44,289.17,154.66z"/>
		<path class="st0" d="M305.31,169.65c-1.69,0-3.13-0.22-4.33-0.67c-1.2-0.45-2.18-1.11-2.95-1.98c-0.86-1.01-1.41-2.21-1.62-3.61
			c-0.22-1.4-0.18-3.12,0.11-5.17l2.53-17.97h3.83l-2.53,17.97c-0.19,1.33-0.26,2.45-0.22,3.36s0.25,1.72,0.64,2.45
			c0.41,0.77,1.02,1.36,1.85,1.76s1.88,0.6,3.16,0.6c1.2,0,2.29-0.2,3.28-0.6s1.79-0.99,2.41-1.76c0.58-0.74,1.02-1.55,1.32-2.44
			c0.3-0.89,0.54-1.98,0.72-3.27l2.54-18.06h3.83l-2.53,17.97c-0.28,2-0.72,3.71-1.33,5.14c-0.61,1.43-1.49,2.64-2.65,3.64
			c-1.04,0.89-2.2,1.55-3.48,1.99C308.6,169.43,307.07,169.65,305.31,169.65z"/>
		<path class="st0" d="M345.51,140.26l-11.98,16.05l-1.79,12.75h-3.83l1.73-12.34l-7.42-16.46h4.25l5.64,12.71l9.33-12.71H345.51z"
			/>
		<path class="st0" d="M344.13,169.05l4.05-28.8h18.01l-0.48,3.4h-14.18l-1.11,7.89h13.21l-0.48,3.4h-13.21l-1.5,10.7h14.18
			l-0.48,3.4H344.13z M352.21,134.57h-2.49l-3.49-5.14h4.31L352.21,134.57z M364.34,136.75h-3.08l-2.88-4.95l-4.25,4.95h-3
			l5.44-7.33h4.39L364.34,136.75z"/>
		<path class="st0" d="M386.95,169.05h-4.29l-9.24-24.83l-3.49,24.83h-3.58l4.05-28.8h5.43l8.38,22.8l3.2-22.8H391L386.95,169.05z"
			/>
	</g>
</g>
</svg>
