<?xml version="1.0" encoding="iso-8859-1"?>
<!-- Generator: Adobe Illustrator 26.4.1, SVG Export Plug-In . SVG Version: 6.00 Build 0)  -->
<svg version="1.1" xmlns="http://www.w3.org/2000/svg" xmlns:xlink="http://www.w3.org/1999/xlink" x="0px" y="0px"
	 viewBox="0 0 235 47.97079" style="enable-background:new 0 0 235 47.97079;" xml:space="preserve">
<style type="text/css">
	.st0{display:none;}
	.st1{display:inline;}
	.st2{fill:#9FA0A0;}
	.st3{fill:none;}
	.st4{fill:#A7A9B0;}
	.st5{fill:#FF6D2D;}
	.st6{fill:#191970;}
	.st7{fill:#FFFFFF;}
	.st8{fill:#E0E0E0;}
	.st9{clip-path:url(#SVGID_00000110458187234220208390000014207606027104275644_);}
	.st10{clip-path:url(#SVGID_00000044862685327449191030000013159001936312438953_);}
	.st11{clip-path:url(#SVGID_00000099633502956712295620000017704323694279978890_);}
	.st12{clip-path:url(#SVGID_00000147205460988961616350000017188214634159425967_);}
	.st13{clip-path:url(#SVGID_00000140014042726266103360000004091117909473127608_);}
	.st14{clip-path:url(#SVGID_00000118383819746620279630000014059250689626295196_);}
</style>
<g id="info" class="st0">
	<rect x="-1394.23279" y="-476.01462" class="st1" width="3000" height="1000"/>
</g>
<g id="logo">
	<g>
		<g>
			<path class="st4" d="M118.3658,13.85268l-0.94112,4.33191h-9.30059l-0.78886,3.62613h9.09298l-0.89964,4.11053h-9.1345
				l-1.66081,8.22107h-6.26958l4.33195-20.28964H118.3658z"/>
			<path class="st4" d="M136.95096,34.14232h-6.14505l-0.27679-3.32163h-6.61561l-1.57777,3.32163h-6.75398l11.45965-20.28964
				h6.68478L136.95096,34.14232z M130.12776,26.51638l-0.6228-7.39059h-0.05537l-3.48771,7.39059H130.12776z"/>
			<path class="st4" d="M169.2688,20.50974l-5.75749,0.65049V21.0495c0-0.9872-0.29539-1.72065-0.88576-2.20053
				c-0.59061-0.47964-1.24106-0.71974-1.95148-0.71974c-0.92276,0-1.82234,0.33909-2.69882,1.01726
				c-0.87671,0.67817-1.58015,1.71408-2.11063,3.10715c-0.53069,1.39331-0.79581,2.74966-0.79581,4.06897
				c0,1.00584,0.27206,1.84765,0.81659,2.52582c0.54428,0.67818,1.33771,1.01726,2.38048,1.01726
				c0.95952,0,1.76915-0.3045,2.42897-0.91343c0.65958-0.60893,1.23868-1.54537,1.73692-2.80954L168.3,27.05615
				c-0.60896,2.09465-1.78777,3.85687-3.53615,5.28699c-1.74861,1.43027-4.02533,2.14517-6.83012,2.14517
				c-2.92503,0-5.16023-0.77954-6.70557-2.33895c-1.54556-1.55917-2.31821-3.63525-2.31821-6.22811
				c0-1.98368,0.45886-3.97663,1.37709-5.97896c0.918-2.002,2.25809-3.57529,4.02055-4.71946
				c1.76225-1.14401,3.87527-1.71622,6.33878-1.71622c2.55569,0,4.5742,0.64146,6.05508,1.92379
				C168.18237,16.713,169.03807,18.40605,169.2688,20.50974z"/>
			<path class="st4" d="M195.64595,13.85268l-4.35966,20.28964h-6.29727l1.75771-8.24875h-6.79552l-1.73001,8.24875h-6.35263
				l4.35962-20.28964h6.29732l-1.53629,7.16914h6.78166l1.59166-7.16914H195.64595z"/>
			<path class="st4" d="M217.49734,34.14232h-6.14507l-0.27678-3.32163h-6.61562l-1.57776,3.32163h-6.75398l11.45964-20.28964
				h6.68477L217.49734,34.14232z M210.67415,26.51638l-0.6228-7.39059h-0.05537l-3.48772,7.39059H210.67415z"/>
			<path class="st4" d="M233.03761,13.85268l-4.34583,20.28964h-6.3526l4.34579-20.28964H233.03761z"/>
		</g>
		<g>
			<path class="st5" d="M83.92446,2.46838c-2.44986-1.61652-5.38687-2.47092-8.49332-2.47092H9.99437
				c-2.07189,0-3.9084,1.16381-4.79251,3.0372c-0.88503,1.8747-0.61588,4.0329,0.70198,5.63178l1.63769,1.98836L0.95727,47.99746
				h25.14648L28.2093,35.9957h14.03764c0.10357,0.57451,0.23907,1.13935,0.40584,1.69168
				c0.03271,0.10774,0.0677,0.21374,0.10193,0.31468l0.01932,0.0575c0.7325,2.21199,1.98563,4.22055,3.62267,5.80799
				c0.19223,0.18655,0.39281,0.37042,0.59624,0.5462c0.34024,0.29428,0.69935,0.57405,1.0961,0.85429
				c0.13958,0.09875,0.28133,0.19418,0.42813,0.29053c0.26489,0.17336,0.54686,0.34409,0.83949,0.50847
				c1.53358,0.85976,3.21364,1.43997,4.99363,1.7248c0.77124,0.12354,1.57869,0.19114,2.3994,0.20122
				c0.03555,0.00043,0.08437,0.00111,11.82991,0.00441h0.00067c2.76871,0,5.60994-0.68577,8.21737-1.98354
				c0.57909-0.28859,1.17114-0.62257,1.7597-0.99321c0.43624-0.27496,0.86131-0.56485,1.26266-0.86154
				c0.82094-0.60653,1.59908-1.27406,2.31335-1.98418l0.05795-0.05706c2.8747-2.88194,4.82553-6.56333,5.49331-10.3656
				l1.44151-8.21089l1.00922-5.74445C91.22532,11.58941,88.84545,5.71582,83.92446,2.46838z M88.4754,17.50554L86.02459,31.461
				c-0.60839,3.46491-2.39352,6.82711-5.02647,9.46669l-0.0493,0.04833c-0.65498,0.65194-1.37293,1.26817-2.13026,1.82767
				c-0.3677,0.27186-0.75776,0.53793-1.15926,0.79087c-0.5409,0.3407-1.08369,0.64725-1.61338,0.91096
				c-2.37482,1.18201-4.95634,1.80665-7.46564,1.80665c-11.73476-0.00314-11.78789-0.00395-11.81062-0.00446
				c-0.73837-0.00895-1.46328-0.06934-2.15324-0.17993c-1.58314-0.25349-3.07549-0.76832-4.43555-1.53058
				c-0.25906-0.14577-0.50799-0.29657-0.74059-0.44865c-0.12906-0.08484-0.25426-0.16916-0.37767-0.25612
				c-0.35355-0.2498-0.67013-0.49645-0.96768-0.75387c-0.17967-0.15523-0.35625-0.31702-0.52454-0.48068
				c-1.44345-1.3995-2.54897-3.17307-3.19646-5.12812l-0.02199-0.06516c-0.02962-0.08773-0.05903-0.17598-0.08623-0.26582
				c-0.27994-0.92696-0.46074-1.89595-0.5392-2.88832H26.79394l-2.10557,12.00171H2.96579L9.33607,10.1828L7.2047,7.59521
				C6.30583,6.5046,6.12232,5.03286,6.72584,3.75417c0.60297-1.27762,1.85538-2.07142,3.2685-2.07142h65.4368
				c2.77537,0,5.39131,0.75805,7.56506,2.19225h0.00006C87.34801,6.7468,89.44746,11.96975,88.4754,17.50554z"/>
			<path class="st6" d="M82.99626,3.87501H82.9962c-2.17374-1.4342-4.78969-2.19225-7.56506-2.19225H9.99435
				c-1.41312,0-2.66553,0.79379-3.2685,2.07142C6.12232,5.03286,6.30583,6.5046,7.2047,7.59521l2.13137,2.58759L2.96579,46.31217
				h21.72258l2.10557-12.00171h16.93257c0.07847,0.99237,0.25927,1.96136,0.5392,2.88832
				c0.02719,0.08984,0.0566,0.17809,0.08623,0.26582l0.02199,0.06516c0.64749,1.95505,1.753,3.72862,3.19646,5.12812
				c0.16829,0.16366,0.34487,0.32545,0.52454,0.48068c0.29755,0.25742,0.61413,0.50407,0.96768,0.75387
				c0.1234,0.08696,0.24861,0.17128,0.37767,0.25612c0.2326,0.15208,0.48153,0.30287,0.74059,0.44865
				c1.36006,0.76226,2.85241,1.27709,4.43555,1.53058c0.68996,0.11059,1.41487,0.17099,2.15324,0.17993
				c0.02273,0.00051,0.07586,0.00132,11.81062,0.00446c2.50931,0,5.09082-0.62464,7.46564-1.80665
				c0.52969-0.26371,1.07248-0.57027,1.61338-0.91096c0.4015-0.25294,0.79156-0.51901,1.15926-0.79087
				c0.75732-0.55951,1.47528-1.17573,2.13026-1.82767l0.0493-0.04833c2.63296-2.63958,4.41808-6.00178,5.02647-9.46669
				l2.45081-13.95546C89.44746,11.96975,87.34801,6.7468,82.99626,3.87501z M54.1054,23.99744h9.15396l-2.56875,14.6294
				L71.93568,28.0356h11.83857v0.00004l-0.36013,2.05075l-0.15607,0.88859c-0.53156,3.02711-2.08839,5.80352-4.2487,7.96919
				c-0.00635,0.00628-0.01296,0.01222-0.01929,0.01849c-0.57355,0.57311-1.19044,1.10155-1.84067,1.58187
				c-0.3209,0.23713-0.6504,0.46127-0.98714,0.67331c-0.44453,0.27996-0.90047,0.5402-1.36884,0.77338
				c-1.93733,0.9643-4.05962,1.51208-6.21314,1.51208c0,0-11.72228-0.00334-11.77406-0.00396
				c-0.60019-0.0074-1.18361-0.05518-1.74596-0.14516c-1.28347-0.2054-2.46-0.62088-3.50577-1.20725
				c-0.19677-0.11031-0.3889-0.22634-0.57602-0.34875c-0.09912-0.06482-0.1972-0.13084-0.29357-0.19894
				c-0.26054-0.18406-0.51287-0.37772-0.75238-0.58486c-0.13905-0.12026-0.27433-0.24429-0.40604-0.37193
				c-0.92108-0.8932-1.65629-1.96609-2.17322-3.17131c-0.00636-0.01483-0.01226-0.02994-0.01857-0.04479
				c-0.0314-0.0742-0.06253-0.14857-0.09227-0.22374c-0.01403-0.03539-0.02706-0.07138-0.04071-0.10697
				c-0.02137-0.05581-0.04314-0.11137-0.06359-0.1677c-0.02945-0.08102-0.05756-0.16278-0.08507-0.24487
				c-0.00407-0.01214-0.00855-0.02407-0.01258-0.03624c-0.02581-0.07805-0.05283-0.15543-0.07738-0.23416
				c-0.0028-0.00892-0.00589-0.01769-0.00861-0.02668c-0.3092-1.02374-0.47064-2.12444-0.46516-3.27911
				c0.00328-0.69283,0.06667-1.40508,0.19426-2.13181l3.71621-21.1624C50.40429,9.7871,50.40722,9.7615,50.409,9.73594
				c0.00508-0.07651-0.00184-0.15275-0.01732-0.22713l0.00067,0.00081c-0.00087-0.00415-0.0013-0.0084-0.00221-0.01253
				c-0.01481-0.06634-0.0352-0.13142-0.06617-0.19223c-0.02626-0.05175-0.05819-0.10094-0.09555-0.1465L48.0779,6.54239h-0.00002
				l-1.6859-2.05078V4.4916h29.03921c2.30756,0,4.35645,0.63146,6.01807,1.72797c0.00053,0.00036,0.00107,0.00076,0.00163,0.00112
				c0.09272,0.06121,0.18388,0.1243,0.27415,0.1884c0.02925,0.02077,0.05803,0.04207,0.08704,0.06313
				c0.06182,0.04494,0.12311,0.09047,0.18375,0.13675c0.03256,0.02486,0.06506,0.04978,0.09728,0.07502
				c0.05922,0.0464,0.11761,0.09365,0.17564,0.14133c0.02905,0.02386,0.05848,0.04731,0.08723,0.07148
				c0.079,0.06649,0.1569,0.13414,0.2336,0.20301c0.03677,0.03298,0.0726,0.06692,0.10883,0.10043
				c0.04244,0.03928,0.08482,0.0786,0.12652,0.11862c0.04223,0.04047,0.08386,0.08147,0.12532,0.12269
				c0.03304,0.03288,0.06574,0.06606,0.0983,0.0994c0.04501,0.04608,0.08994,0.09221,0.13402,0.13918
				c0.01938,0.02067,0.03822,0.0418,0.05742,0.06264c0.11069,0.12,0.21861,0.24249,0.32313,0.36798
				c0.0018,0.00216,0.00368,0.00427,0.00547,0.00645c0.05355,0.06439,0.10582,0.12982,0.15771,0.19562
				c0.0113,0.01434,0.02264,0.02865,0.03386,0.04305c0.05281,0.06775,0.10484,0.13614,0.15586,0.20533
				c0.00277,0.00375,0.00546,0.00756,0.00822,0.01132c0.22284,0.30304,0.42847,0.61972,0.6163,0.94896
				c0.0002,0.00033,0.0004,0.00067,0.00059,0.001c-0.00002-0.00002-0.00004-0.00004-0.00005-0.00006
				c1.1922,2.09022,1.66165,4.68459,1.16765,7.49737l-0.36967,2.10497H71.80288h-1.91631h-0.00002l1.68675-9.73692L54.1054,23.99744
				z M43.96902,21.74848v0.00002h0.00002l-0.36039,2.05075l-1.35344,7.70217H24.43488l-2.10555,12.0019H8.23589H6.31328H6.31326
				L9.76991,23.8989l2.49264-14.13713c0.00126-0.007,0.00154-0.01404,0.0017-0.02108
				c0.00016-0.00664,0.00023-0.01328,0.00108-0.01988c0.00263-0.02095,0.0037-0.04191,0.00468-0.06287
				c0.00176-0.05982-0.00403-0.11924-0.0141-0.17782l0.0046,0.00553c-0.02244-0.13661-0.07922-0.26651-0.16916-0.37586
				l-1.52456-1.85094l-0.09383-0.11383L9.97659,6.54239H9.97657l-0.1644-0.19962L9.37281,5.80931
				c-0.2166-0.26275-0.23139-0.59221-0.10689-0.85592c0.07059-0.14956,0.18605-0.2779,0.33477-0.36108
				c0.06435-0.03597,0.13484-0.0636,0.21074-0.08068c0.05799-0.01306,0.1191-0.02001,0.18291-0.02001h0.00002h32.07731
				l0.188,0.22912l3.87053,4.71705l-0.85542,4.80674H27.48034l-1.32846,7.50396H43.96902z"/>
			<g>
				<path class="st7" d="M84.54107,9.52242c-0.46385-0.4652-0.97497-0.8853-1.53078-1.25208
					c-1.66161-1.09649-3.7105-1.72794-6.01804-1.72794H48.0779l2.15052,2.61597c0.03736,0.04556,0.06929,0.09475,0.09555,0.1465
					c0.03097,0.06081,0.05135,0.12588,0.06617,0.19223c0.00091,0.00413,0.00134,0.00838,0.00221,0.01253l1.39713,1.69948
					c0.03735,0.04559,0.06929,0.0948,0.09557,0.14653c0.03093,0.06079,0.05135,0.12591,0.06617,0.19223
					c0.02275,0.10286,0.02824,0.20952,0.00958,0.31557l-3.71616,21.16238c-0.34028,1.93795-0.22387,3.77293,0.27087,5.41089
					c0.0266,0.08807,0.05728,0.17398,0.08601,0.26086c0.21439,0.64743,0.49165,1.26038,0.82056,1.83725l0.10438,0.10763
					c0.13171,0.12763,0.267,0.25166,0.40604,0.37193c0.23951,0.20714,0.49184,0.4008,0.75238,0.58486
					c0.09636,0.0681,0.19444,0.13412,0.29357,0.19894c0.18711,0.12241,0.37924,0.23845,0.57602,0.34875
					c1.04577,0.58636,2.2223,1.00185,3.50577,1.20725c0.56235,0.08998,1.14577,0.13776,1.74596,0.14516
					c0.05178,0.00061,11.77406,0.00396,11.77406,0.00396c2.15353,0,4.27581-0.54778,6.21314-1.51208
					c0.46836-0.23318,0.9243-0.49342,1.36884-0.77338c0.33674-0.21204,0.66624-0.43618,0.98714-0.67331
					c0.65023-0.48033,1.26711-1.00876,1.84067-1.58187c0.00633-0.00626,0.01295-0.01221,0.01929-0.01849
					c2.16032-2.16568,3.71715-4.94209,4.2487-7.96919l0.15607-0.88859h-9.91738L62.25168,40.67763l-1.56107-2.05079
					l2.20866-12.57866h-7.23283l-1.56104-2.05075L71.5733,9.38784l1.56104,2.0508l-1.33146,7.68612h13.53617l0.36967-2.10497
					C86.20272,14.20701,85.73327,11.61264,84.54107,9.52242z"/>
				<path class="st7" d="M9.97659,6.54239l0.49637,0.60263l0.09383,0.11383l1.52456,1.85094
					c0.08994,0.10936,0.14672,0.23925,0.16916,0.37586l1.39186,1.6749c0.14074,0.17104,0.20127,0.3922,0.17404,0.61097
					c-0.00176,0.01361-0.00034,0.02738-0.00281,0.04101L8.23589,43.50331h14.09343l2.10555-12.0019h17.82034l1.35344-7.70217
					H27.71292l-1.56104-2.05076l1.32846-7.50396h17.79443l0.85542-4.80674l-2.37582-2.89539H9.97659z"/>
				<path class="st7" d="M12.26533,9.72081c-0.00085,0.00659-0.00092,0.01323-0.00108,0.01988
					c0.00016-0.00664,0.00023-0.01329,0.00111-0.0199c0.0026-0.02097,0.00407-0.04193,0.00466-0.06284
					C12.26902,9.6789,12.26796,9.69986,12.26533,9.72081z"/>
			</g>
			<g>
				<path class="st8" d="M12.26051,9.48566l-0.0046-0.00553c0.01007,0.05858,0.01586,0.118,0.0141,0.17782
					c-0.00059,0.02091-0.00206,0.04187-0.00466,0.06284c-0.00087,0.00661-0.00095,0.01326-0.00111,0.0199
					c-0.00015,0.00704-0.00044,0.01408-0.0017,0.02107L9.76991,23.8989L6.31328,43.50331h1.92261l5.58772-31.69077
					c0.00247-0.01363,0.00104-0.02739,0.00281-0.04101c0.02723-0.21878-0.03331-0.43993-0.17404-0.61097L12.26051,9.48566z"/>
				<polygon class="st8" points="26.15188,21.74848 27.71292,23.79925 43.60866,23.79925 43.96904,21.7485 43.96902,21.7485 				"/>
				<path class="st8" d="M9.81218,6.34277l0.1644,0.19962h0.00002h33.77779l-1.49472-1.82166l-0.188-0.22912H9.99435H9.99433
					c-0.06381,0-0.12492,0.00696-0.18291,0.02001c-0.0759,0.01708-0.14639,0.04471-0.21074,0.08068
					C9.45197,4.67549,9.33653,4.80383,9.26596,4.9534C9.14142,5.21712,9.15623,5.54656,9.37281,5.80927L9.81218,6.34277z"/>
				<polygon class="st8" points="60.69061,38.62685 62.25168,40.67763 73.49673,30.08639 83.41412,30.08639 83.77425,28.03564 
					71.93568,28.03564 				"/>
				<path class="st8" d="M51.88506,11.35563c-0.02628-0.05173-0.05822-0.10094-0.09557-0.14653l-1.39713-1.69948l-0.00067-0.00081
					c0.01548,0.07438,0.0224,0.15061,0.01732,0.22713c-0.0017,0.02556-0.00472,0.05118-0.00922,0.07675l-3.71619,21.16238
					c-0.12761,0.72673-0.191,1.43898-0.19428,2.13181c-0.00138,0.28867,0.00768,0.57396,0.02688,0.85552
					c0.05757,0.84469,0.20637,1.65579,0.43827,2.42359c0.00273,0.00899,0.00581,0.01776,0.00861,0.02668
					c0.02455,0.07869,0.05157,0.15609,0.07738,0.23418c0.00403,0.01217,0.00851,0.02407,0.01258,0.03622
					c0.02752,0.08209,0.05564,0.16383,0.08507,0.24487c0.02046,0.0563,0.04222,0.1119,0.06359,0.1677
					c0.01365,0.03561,0.0267,0.07155,0.04071,0.10697c0.02978,0.07514,0.06081,0.14956,0.09227,0.22374
					c0.0063,0.01488,0.01221,0.02996,0.01857,0.04479c0.49737,1.1576,1.19763,2.1919,2.06884,3.06368
					c-0.32892-0.57687-0.60618-1.18982-0.82056-1.83725c-0.02873-0.08688-0.05941-0.17279-0.08601-0.26086
					c-0.49475-1.63796-0.61115-3.47294-0.27087-5.41089l3.71616-21.16238c0.01867-0.10605,0.01317-0.21271-0.00958-0.31557
					C51.93641,11.48154,51.91599,11.41642,51.88506,11.35563z"/>
				<path class="st8" d="M84.54053,9.52147c-0.18783-0.3292-0.39362-0.64586-0.6163-0.94896
					c-0.00277-0.00375-0.00546-0.00756-0.00822-0.01132c-0.05101-0.06922-0.1031-0.13756-0.15586-0.20533
					c-0.01122-0.01441-0.02256-0.02872-0.03386-0.04305c-0.05184-0.06582-0.1042-0.13122-0.15771-0.19562
					c-0.00179-0.00218-0.00367-0.00429-0.00547-0.00645c-0.10443-0.12554-0.2125-0.24792-0.32313-0.36798
					c-0.01922-0.02082-0.03802-0.04199-0.05742-0.06264c-0.04404-0.04698-0.08904-0.09307-0.13402-0.13918
					c-0.03257-0.03331-0.06524-0.06654-0.0983-0.0994c-0.04142-0.04123-0.08313-0.0822-0.12532-0.12269
					c-0.04171-0.04-0.08406-0.07936-0.12652-0.11862c-0.03622-0.03354-0.07207-0.06744-0.10883-0.10043
					c-0.07674-0.06884-0.15459-0.13655-0.2336-0.20301c-0.02876-0.0242-0.0582-0.0476-0.08723-0.07148
					C82.21069,6.77767,82.15232,6.73037,82.0931,6.684c-0.03221-0.02524-0.06472-0.05016-0.09728-0.07502
					c-0.06064-0.04627-0.12193-0.09183-0.18375-0.13675c-0.02899-0.02107-0.05781-0.04236-0.08704-0.06313
					c-0.09029-0.06409-0.18143-0.12719-0.27415-0.1884c-0.00056-0.00036-0.00109-0.00075-0.00163-0.0011
					c-1.66163-1.09649-3.71049-1.72798-6.01807-1.72798H46.39198l1.6859,2.05078h0.00002h28.91435
					c2.30754,0,4.35643,0.63145,6.01804,1.72794c0.55581,0.36678,1.06693,0.78689,1.53078,1.25208
					c0.00002,0.00002,0.00004,0.00004,0.00005,0.00006C84.54093,9.52215,84.54073,9.5218,84.54053,9.52147z"/>
				<polygon class="st8" points="63.25936,23.99744 54.1054,23.99744 55.66644,26.04819 62.89927,26.04819 				"/>
				<polygon class="st8" points="71.5733,9.38784 69.88657,19.12476 71.80288,19.12476 73.13434,11.43864 				"/>
			</g>
		</g>
	</g>
	<rect x="-1393.34485" y="-476.01462" class="st3" width="3000" height="1000"/>
</g>
</svg>
