<?xml version="1.0" encoding="iso-8859-1"?>
<!-- Generator: Adobe Illustrator 26.4.1, SVG Export Plug-In . SVG Version: 6.00 Build 0)  -->
<svg version="1.1" xmlns="http://www.w3.org/2000/svg" xmlns:xlink="http://www.w3.org/1999/xlink" x="0px" y="0px"
	 viewBox="0 0 24 24" style="enable-background:new 0 0 24 24;" xml:space="preserve">
<style type="text/css">
	.st0{display:none;}
	.st1{display:inline;}
	.st2{fill:#9FA0A0;}
	.st3{fill:none;}
	.st4{clip-path:url(#SVGID_00000160154435900519177310000007271176923383423140_);}
	.st5{fill:#FFFFFF;}
	.st6{fill:#FF6D2D;}
	.st7{fill:#191970;}
	.st8{fill:#E0E0E0;}
	.st9{clip-path:url(#SVGID_00000073002117454247249460000015272855766158173601_);}
	.st10{clip-path:url(#SVGID_00000122686963915739977480000011214401837663078812_);}
	.st11{clip-path:url(#SVGID_00000173860362071651245080000012265083140123415962_);}
	.st12{clip-path:url(#SVGID_00000134238897167880621660000013095245293940343217_);}
	.st13{clip-path:url(#SVGID_00000157285237938427445140000003806728941387086740_);}
	.st14{clip-path:url(#SVGID_00000054977701444408611030000006913678014411524537_);}
</style>
<g id="info" class="st0">
</g>
<g id="logo">
	<g>
		<g>
			<g>
				<g>
					<path class="st5" d="M21.50391,5.03601c-0.42542-0.28074-0.94999-0.44241-1.54079-0.44241h-7.43481l0.98223,1.19482
						c0.00956,0.01166,0.01774,0.02426,0.02446,0.03751c0.00793,0.01557,0.01316,0.03223,0.01694,0.04921
						c0.00583,0.02634,0.00724,0.05365,0.00247,0.08079l-0.95145,5.41814c-0.08712,0.49617-0.05731,0.96597,0.06935,1.38533
						c0.00681,0.02255,0.01466,0.04454,0.02202,0.06679c0.13082,0.39504,0.34814,0.74336,0.63649,1.02299
						c0.03372,0.03267,0.06836,0.06443,0.10396,0.09522c0.06132,0.05303,0.12592,0.10262,0.19263,0.14974
						c0.02467,0.01743,0.04979,0.03434,0.07516,0.05094c0.04791,0.03134,0.09711,0.06105,0.14748,0.08929
						c0.26774,0.15012,0.56896,0.2565,0.89756,0.30909c0.14398,0.02304,0.29335,0.03527,0.44701,0.03716
						c0.01327,0.00016,3.01448,0.00101,3.01448,0.00101c0.55136,0,1.09472-0.14025,1.59074-0.38713
						c0.1199-0.0597,0.23663-0.12633,0.35046-0.198c0.08621-0.05429,0.17057-0.11167,0.25272-0.17239
						c0.16649-0.12297,0.32443-0.25827,0.47126-0.405c0.00163-0.0016,0.00333-0.00313,0.00496-0.00473
						c0.55309-0.55447,0.95168-1.2653,1.08777-2.04032l0.13216-0.75257h-3.03099l-2.87904,2.71164l0.65767-3.74552h-2.34367
						l4.47225-3.74044l-0.43185,2.49291h3.95626l0.09464-0.53893C22.80138,6.62288,22.34894,5.59363,21.50391,5.03601z"/>
				</g>
				<g>
					<path class="st5" d="M3.20954,4.59361c-0.08713,0-0.15464,0.05071-0.18649,0.11822
						c-0.03187,0.06752-0.0281,0.15187,0.02736,0.21914l0.28167,0.34198L3.35611,5.3021l0.39033,0.47389
						C3.78245,5.81978,3.79795,5.8764,3.79098,5.93242C3.79054,5.9359,3.79089,5.93943,3.79027,5.94291l-1.52318,8.63874h4.10053
						l0.53907-3.07281h4.5625l0.43878-2.49701H7.3463l0.34013-1.92121h4.55585l0.21901-1.23066l-1.0391-1.26635H3.20954z"/>
				</g>
				<g>
					<path class="st6" d="M22.13763,4.07561c-0.62723-0.41387-1.37919-0.63262-2.17451-0.63262H3.20956
						c-0.53047,0-1.00066,0.29797-1.22701,0.77761C1.75594,4.70056,1.82486,5.25312,2.16226,5.66247l0.41929,0.50908
						L0.0451,20.55702h21.47798l1.94632-11.08614l0.25839-1.47074C24.00684,6.41083,23.39754,4.90704,22.13763,4.07561z
						 M23.33426,7.70921c-0.00864,0.07187-0.01876,0.14395-0.03147,0.21631l-0.26867,1.52991l-1.00472,5.84536H1.41004
						L3.04101,6.0507L2.49532,5.38822C2.26519,5.10899,2.2182,4.73218,2.37272,4.4048
						C2.49814,4.13903,2.73335,3.95503,3.0112,3.89538c0.06412-0.01377,0.13051-0.02091,0.19834-0.02091h16.75357
						c0.71057,0,1.38032,0.19408,1.93686,0.56127h0.00001c1.01325,0.66865,1.54937,1.83519,1.45103,3.10703l0.01171,0.00086
						L23.33426,7.70921z"/>
				</g>
			</g>
			<g>
				<g>
					<path class="st7" d="M23.35102,7.54276c0.09833-1.27184-0.43779-2.43837-1.45103-3.10703h-0.00001
						c-0.55654-0.36719-1.22629-0.56127-1.93686-0.56127H3.20954c-0.06783,0-0.13423,0.00714-0.19834,0.02091
						C2.73335,3.95503,2.49815,4.13903,2.37272,4.4048C2.2182,4.73218,2.26519,5.10899,2.49532,5.38822L3.04101,6.0507
						l-1.63097,9.25009H22.0294l1.00472-5.84536l0.26867-1.52991c0.01271-0.07236,0.02283-0.14444,0.03147-0.21631l0.02847-0.16559
						L23.35102,7.54276z M12.24228,7.09062H7.68642L7.3463,9.01183h4.56168l-0.43878,2.49701H6.9067l-0.53907,3.07281H2.26709
						l1.52318-8.63874c0.00063-0.00348,0.00027-0.007,0.00071-0.01049C3.79795,5.8764,3.78245,5.81978,3.74643,5.77599
						L3.35611,5.3021L3.33208,5.27296L3.05041,4.93097C2.99495,4.86371,2.99118,4.77935,3.02305,4.71183
						c0.03186-0.06751,0.09936-0.11822,0.18649-0.11822h8.21265l1.0391,1.26635L12.24228,7.09062z M22.59444,7.80116
						l-0.09464,0.53893h-3.95626l0.43185-2.49291l-4.47225,3.74044h2.34367l-0.65767,3.74552l2.87904-2.71164h3.03099
						l-0.13216,0.75257c-0.13609,0.77502-0.53469,1.48585-1.08777,2.04032c-0.00163,0.00161-0.00333,0.00313-0.00496,0.00473
						c-0.14683,0.14673-0.30477,0.28203-0.47126,0.405c-0.08215,0.06072-0.16651,0.11811-0.25272,0.17239
						c-0.11382,0.07167-0.23055,0.1383-0.35046,0.198c-0.49602,0.24688-1.03938,0.38713-1.59074,0.38713
						c0,0-3.00121-0.00085-3.01448-0.00101c-0.15366-0.00189-0.30304-0.01412-0.44701-0.03716
						c-0.3286-0.0526-0.62982-0.15897-0.89756-0.30909c-0.05038-0.02824-0.09957-0.05795-0.14748-0.08929
						c-0.02537-0.0166-0.05049-0.03351-0.07516-0.05094c-0.06671-0.04712-0.13131-0.09671-0.19263-0.14974
						c-0.0356-0.03079-0.07024-0.06254-0.10396-0.09522c-0.28835-0.27963-0.50567-0.62795-0.63649-1.02299
						c-0.00736-0.02225-0.01521-0.04424-0.02202-0.06679c-0.12666-0.41936-0.15647-0.88917-0.06935-1.38533l0.95145-5.41814
						c0.00477-0.02715,0.00336-0.05446-0.00247-0.08079C13.54816,5.85816,13.54294,5.8415,13.535,5.82593
						c-0.00673-0.01325-0.0149-0.02585-0.02446-0.03751l-0.98223-1.19482h7.43481c0.5908,0,1.11537,0.16167,1.54079,0.44241
						C22.34894,5.59363,22.80138,6.62288,22.59444,7.80116z"/>
				</g>
			</g>
			<g>
				<g>
					<path class="st8" d="M4.19065,6.45746C4.19762,6.40145,4.18212,6.34483,4.1461,6.30104L3.78856,5.8708
						c0.00348,0.02024,0.005,0.04087,0.00241,0.06162C3.79053,5.9359,3.79089,5.93943,3.79026,5.94291l-1.52318,8.63874h0.49224
						l1.43061-8.11369C4.19057,6.46447,4.1902,6.46095,4.19065,6.45746z"/>
				</g>
				<g>
					<polygon class="st8" points="11.8157,9.53687 11.90797,9.01183 7.3463,9.01183 7.74597,9.53687 					"/>
				</g>
				<g>
					<path class="st8" d="M11.42219,4.59361H3.20954c-0.08713,0-0.15463,0.05071-0.18649,0.11823
						C2.99117,4.77936,2.99496,4.8637,3.05041,4.93097l0.15458,0.18769h8.64802L11.42219,4.59361z"/>
				</g>
				<g>
					<polygon class="st8" points="19.46785,11.14655 22.00697,11.14655 22.09917,10.62151 19.06818,10.62151 16.18914,13.33314 
						16.58882,13.85819 					"/>
				</g>
				<g>
					<path class="st8" d="M13.07199,13.28446c-0.12666-0.41937-0.15647-0.88917-0.06935-1.38534l0.95144-5.41814
						c0.00478-0.02715,0.00337-0.05446-0.00246-0.08079c-0.00379-0.01698-0.00902-0.03365-0.01694-0.04922
						c-0.00673-0.01325-0.0149-0.02585-0.02447-0.03752l-0.35787-0.43532c0.00529,0.02541,0.00667,0.05166,0.00207,0.0778
						l-0.95144,5.41814c-0.08713,0.49617-0.05732,0.96598,0.06935,1.38534c0.0068,0.02254,0.01466,0.04453,0.02202,0.06679
						c0.12665,0.38244,0.33501,0.72049,0.60975,0.99543c-0.08421-0.14769-0.15519-0.30462-0.21008-0.47038
						C13.08665,13.329,13.0788,13.30701,13.07199,13.28446z"/>
				</g>
				<g>
					<path class="st8" d="M21.90358,5.56106c0.1423,0.09391,0.27317,0.20147,0.39193,0.32058
						c-0.19418-0.34044-0.46303-0.62882-0.7916-0.84563c-0.42542-0.28073-0.94999-0.4424-1.54079-0.4424h-7.43481l0.43163,0.52505
						h7.40285C20.95359,5.11866,21.47816,5.28033,21.90358,5.56106z"/>
				</g>
				<g>
					<polygon class="st8" points="16.75462,10.11267 16.84681,9.58763 14.50315,9.58763 14.90282,10.11267 					"/>
				</g>
				<g>
					<g>
						<polygon class="st8" points="18.9754,5.84718 18.54355,8.34009 19.03418,8.34009 19.37507,6.37223 						"/>
					</g>
				</g>
			</g>
		</g>
		<g>
			<path class="st5" d="M4.51955,16.3498l-0.14784,0.6805h-1.461L2.7868,17.59992h1.42838l-0.14131,0.64571H2.63895
				l-0.26088,1.29142H1.39319l0.6805-3.18725H4.51955z"/>
			<path class="st5" d="M7.17187,19.53704h-0.9653l-0.04348-0.52179H5.12386l-0.24785,0.52179H3.81505l1.80016-3.18725H6.6653
				L7.17187,19.53704z M6.10003,18.33912L6.0022,17.17813H5.99351l-0.54787,1.16099H6.10003z"/>
			<path class="st5" d="M11.71427,17.39555l-0.90442,0.1022v-0.01741c0-0.15507-0.04641-0.27031-0.13914-0.34567
				c-0.09278-0.07534-0.19496-0.11304-0.30656-0.11304c-0.14494,0-0.28627,0.05326-0.42394,0.15979
				c-0.13772,0.10651-0.24823,0.26925-0.33156,0.48808c-0.08336,0.21886-0.12501,0.43193-0.12501,0.63917
				c0,0.15801,0.04273,0.29025,0.12827,0.39678c0.0855,0.10651,0.21013,0.15979,0.37394,0.15979
				c0.15073,0,0.27792-0.04783,0.38156-0.1435c0.10361-0.09566,0.19458-0.24275,0.27285-0.44134l0.92181,0.14349
				c-0.09566,0.32904-0.28083,0.60586-0.55548,0.8305c-0.27468,0.22467-0.63233,0.33697-1.07292,0.33697
				c-0.45949,0-0.8106-0.12245-1.05335-0.36742c-0.24279-0.24492-0.36417-0.57104-0.36417-0.97834
				c0-0.31161,0.07209-0.62468,0.21632-0.93921c0.14421-0.3145,0.35473-0.56164,0.63158-0.74137
				c0.27683-0.17971,0.60875-0.26959,0.99575-0.26959c0.40146,0,0.71854,0.10075,0.95117,0.3022
				C11.5436,16.79914,11.67802,17.06509,11.71427,17.39555z"/>
			<path class="st5" d="M15.59061,16.3498l-0.68484,3.18725h-0.98922l0.27612-1.29576h-1.0675l-0.27175,1.29576H11.8555
				l0.68484-3.18725h0.98922l-0.24133,1.1262h1.06531l0.25002-1.1262H15.59061z"/>
			<path class="st5" d="M18.75601,19.53704h-0.9653l-0.04348-0.52179H16.708l-0.24785,0.52179h-1.06096l1.80016-3.18725h1.05009
				L18.75601,19.53704z M17.68417,18.33912l-0.09783-1.16099h-0.00869l-0.54788,1.16099H17.68417z"/>
			<path class="st5" d="M20.93003,16.3498l-0.68267,3.18725h-0.99791l0.68267-3.18725H20.93003z"/>
		</g>
	</g>
</g>
</svg>
