<?xml version="1.0" encoding="utf-8"?>
<!-- Generator: Adobe Illustrator 24.3.1, SVG Export Plug-In . SVG Version: 6.00 Build 0)  -->
<svg version="1.1" id="圖層_1" xmlns="http://www.w3.org/2000/svg" xmlns:xlink="http://www.w3.org/1999/xlink" x="0px" y="0px"
	 viewBox="0 0 779.5 192" style="enable-background:new 0 0 779.5 192;" xml:space="preserve">
<style type="text/css">
	.st0{fill:#FFFFFF;}
	.st1{fill:#222939;}
	.st2{fill:#C9334E;}
	.st3{fill:#A07333;}
	.st4{fill:#CAAB72;}
	.st5{opacity:0.5;fill:#A07333;enable-background:new    ;}
	.st6{fill:url(#SVGID_1_);}
	.st7{fill:#7A1D10;}
	.st8{opacity:0.4;fill:url(#SVGID_2_);enable-background:new    ;}
	.st9{fill:url(#SVGID_3_);}
	.st10{fill:#FFA726;}
	.st11{fill:none;stroke:#FFC400;stroke-linecap:round;stroke-miterlimit:10;}
	.st12{fill:#AB1A38;}
	.st13{fill:#F2DD1D;}
	.st14{fill:#F7931E;}
	.st15{fill:#D17519;}
	.st16{fill:#FFD740;}
	.st17{opacity:7.000000e-02;enable-background:new    ;}
	.st18{fill:#FFCE31;}
</style>
<g>
	<path class="st0" d="M775.3,32.9c-3.4-3.9-8.4-6.1-13.6-6h-601C124.9-8.6,67-8.4,31.5,27.4C10.3,48.7,1,79,6.5,108.4
		c-1.1,1.1-2,2.3-2.7,3.7c-3.3,5.8-3.1,13,0.6,18.6c0.2,0.4,0.5,0.7,0.7,1.1c-0.7,4.4,0.3,8.8,2.7,12.5
		c31.8,48.7,97.1,62.3,145.8,30.4c4.3-2.8,8.4-5.9,12.2-9.3h391c6.6-0.1,12.1-5,13.1-11.5l5.3-37.8c0.2-1.5,0.1-3.1-0.2-4.6h175.9
		c10.7,0,20.7-8.7,22.2-19.4l6.3-44.9C780.1,42.2,778.7,36.9,775.3,32.9z"/>
	<path class="st1" d="M769.1,91.5l6.3-44.9c1.2-8.8-4.9-16-13.8-16h-679v76.8h668.2C759.6,107.5,767.8,100.4,769.1,91.5z"/>
	<path class="st2" d="M556.8,161.4H117c-3.7,0.1-6.9-2.8-7-6.6c0-0.5,0-0.9,0.1-1.4l5.3-37.8c0.7-4.5,4.6-7.9,9.1-8h439.8
		c3.8-0.1,6.9,2.9,7,6.6c0,0.5,0,0.9-0.1,1.4l-5.3,37.8C565.1,157.9,561.2,161.2,556.8,161.4z"/>
	<path class="st1" d="M181.8,110.5c10.4-47.1-19.4-93.8-66.6-104.2S21.4,25.7,11,72.8C9.6,79,8.9,85.3,8.9,91.7
		c0,6.1,0.6,12.2,1.9,18.2c-5.8,4.4-7.2,12.6-3.2,18.6c0.5,0.8,1.1,1.6,1.6,2.4l-0.1,0.4c-0.9,3.7-0.2,7.6,1.9,10.8
		c30.6,46.8,93.4,60,140.2,29.3c11.7-7.7,21.7-17.7,29.3-29.3c2.1-3.2,2.8-7.1,1.9-10.9c0-0.1,0-0.2-0.1-0.3
		c0.6-0.8,1.1-1.6,1.6-2.4C187.8,122.7,186.8,115.1,181.8,110.5z"/>
	<path class="st3" d="M96.2,160.2c-37.9,0-68.6-30.7-68.6-68.6S58.3,23,96.2,23s68.6,30.7,68.6,68.6l0,0
		C164.8,129.4,134.1,160.2,96.2,160.2z"/>
	<path class="st4" d="M96.4,16.2C54.7,16.2,21,49.9,21,91.6S54.7,167,96.4,167s75.4-33.7,75.4-75.4l0,0C171.8,50,138,16.2,96.4,16.2
		z M96.2,160.2c-37.9,0-68.6-30.7-68.6-68.6S58.3,23,96.2,23s68.6,30.7,68.6,68.6l0,0C164.8,129.4,134.1,160.2,96.2,160.2z"/>
	<path class="st5" d="M96.4,25c37.5,0,68,30.1,68.6,67.6c0-0.3,0-0.7,0-1c0-38-30.7-68.6-68.6-68.6S27.8,53.7,27.8,91.6
		c0,0.3,0,0.7,0,1C28.4,55.1,58.9,25.1,96.4,25z"/>
	
		<linearGradient id="SVGID_1_" gradientUnits="userSpaceOnUse" x1="40.6014" y1="744.2643" x2="28.8682" y2="720.3185" gradientTransform="matrix(1 0 0 1 0 -612)">
		<stop  offset="0" style="stop-color:#942639"/>
		<stop  offset="1" style="stop-color:#C9334E"/>
	</linearGradient>
	<path class="st6" d="M41.3,106.1c-0.3-0.5-0.7-0.8-1.3-0.8l0,0c-0.6,0.1-1.1,0.5-1.3,1.1l-5.1,13.2L21,118.9
		c-0.8,0-1.5,0.9-1.5,1.9c0,0.4,0.1,0.7,0.2,1c7.2,13.7,17.3,24.7,29,32.2v-37.4C46,113.4,43.4,109.9,41.3,106.1z"/>
	<polygon class="st7" points="45.2,119.8 49.2,116.8 49.3,130.4 44.9,126.4 	"/>
	
		<linearGradient id="SVGID_2_" gradientUnits="userSpaceOnUse" x1="95.35" y1="773.5093" x2="95.35" y2="705.6093" gradientTransform="matrix(1 0 0 1 0 -612)">
		<stop  offset="0" style="stop-color:#000000"/>
		<stop  offset="0.59" style="stop-color:#000000;stop-opacity:0"/>
	</linearGradient>
	<polygon class="st8" points="48.3,84.2 48.2,142.2 95.4,152.1 142.4,143.8 142.5,84.2 	"/>
	
		<linearGradient id="SVGID_3_" gradientUnits="userSpaceOnUse" x1="148.2103" y1="748.1492" x2="162.4494" y2="725.3798" gradientTransform="matrix(1 0 0 1 0 -612)">
		<stop  offset="0" style="stop-color:#942639"/>
		<stop  offset="1" style="stop-color:#C9334E"/>
	</linearGradient>
	<path class="st9" d="M172.1,120.6c-0.2-0.6-0.8-1-1.2-1l-12.2,0.7l-4.9-13.2c-0.2-0.6-0.7-1-1.2-1.1h-0.1c-0.5,0-0.9,0.3-1.2,0.8
		c-2,3.8-4.4,7.4-7.1,10.5v37.4c11.3-7.5,20.9-18.6,27.9-32.1C172.4,122,172.4,121.2,172.1,120.6z"/>
	<polygon class="st7" points="149.6,120.4 141.6,116.3 139.7,129.7 149.3,127 	"/>
	<g>
		<polygon class="st10" points="151.4,156.3 41.5,156.3 41.5,79.4 43.1,79.2 147.5,79.2 151.4,79.4 		"/>
		<path class="st10" d="M41.5,79.4l48.7-43.9c3.7-3.3,8.7-3.3,12.4,0l48.7,43.9H41.5z"/>
		<line class="st11" x1="46.7" y1="79.8" x2="146.2" y2="79.8"/>
		<g>
			<ellipse class="st2" cx="95.2" cy="91.7" rx="40.7" ry="41.2"/>
			<path class="st12" d="M135.9,91.7c0-3.2-0.4-6.3-1.1-9.3c-0.1-0.1-0.2-0.1-0.3-0.2s-0.2-0.1-0.3-0.2s-0.2-0.1-0.3-0.2
				s-0.2-0.1-0.3-0.2s-0.2-0.1-0.3-0.2s-0.2-0.1-0.3-0.2s-0.2-0.1-0.3-0.2s-0.2-0.1-0.3-0.2s-0.2-0.1-0.3-0.2s-0.2-0.1-0.3-0.2
				s-0.2-0.1-0.3-0.2s-0.2-0.1-0.3-0.2s-0.2-0.1-0.3-0.2s-0.2-0.1-0.3-0.2s-0.2-0.1-0.3-0.2s-0.2-0.1-0.3-0.2s-0.2-0.1-0.3-0.2
				s-0.2-0.1-0.3-0.2s-0.2-0.1-0.3-0.2s-0.2-0.1-0.3-0.2s-0.2-0.1-0.3-0.2s-0.2-0.1-0.3-0.2s-0.2-0.1-0.3-0.2
				c-0.1-0.1-0.2-0.1-0.3-0.2c-0.1-0.1-0.2-0.1-0.3-0.2c-0.1-0.1-0.2-0.1-0.3-0.2c-0.1-0.1-0.2-0.1-0.3-0.2
				c-0.1-0.1-0.2-0.1-0.3-0.2c-0.1-0.1-0.2-0.1-0.3-0.2c-0.1-0.1-0.2-0.1-0.3-0.2c-0.1-0.1-0.2-0.1-0.3-0.2
				c-0.1-0.1-0.2-0.1-0.3-0.2c-0.1-0.1-0.2-0.1-0.3-0.2c-0.1-0.1-0.2-0.1-0.3-0.2c-0.1-0.1-0.2-0.1-0.3-0.2
				c-0.1-0.1-0.2-0.1-0.3-0.2c-0.1-0.1-0.2-0.1-0.3-0.2c-0.1-0.1-0.2-0.1-0.3-0.2c-0.1-0.1-0.2-0.1-0.3-0.2
				c-0.1-0.1-0.2-0.1-0.3-0.2c-0.1-0.1-0.2-0.1-0.3-0.2c-0.1-0.1-0.2-0.1-0.3-0.2c-0.1-0.1-0.2-0.1-0.3-0.2
				c-0.1-0.1-0.2-0.1-0.3-0.2c-0.1-0.1-0.2-0.1-0.3-0.2c-0.1-0.1-0.2-0.1-0.3-0.2c-0.1-0.1-0.2-0.1-0.3-0.2
				c-0.1-0.1-0.2-0.1-0.3-0.2c-0.1-0.1-0.2-0.1-0.3-0.2c-0.1-0.1-0.2-0.1-0.3-0.2c-0.1-0.1-0.2-0.1-0.3-0.2
				c-0.1-0.1-0.2-0.1-0.3-0.2c-0.1-0.1-0.2-0.1-0.3-0.2c-0.1-0.1-0.2-0.1-0.3-0.2c-0.1-0.1-0.2-0.1-0.3-0.2
				c-0.1-0.1-0.2-0.1-0.3-0.2c-0.1-0.1-0.2-0.1-0.3-0.2c-0.1-0.1-0.2-0.1-0.3-0.2c-0.1-0.1-0.2-0.1-0.3-0.2
				c-0.1-0.1-0.2-0.1-0.3-0.2c-0.1-0.1-0.2-0.1-0.3-0.2c-0.1-0.1-0.2-0.1-0.3-0.2c-0.1-0.1-0.2-0.1-0.3-0.2
				c-0.1-0.1-0.2-0.1-0.3-0.2c-0.1-0.1-0.2-0.1-0.3-0.2c-0.1-0.1-0.2-0.1-0.3-0.2c-0.1-0.1-0.2-0.1-0.3-0.2
				c-0.1-0.1-0.2-0.1-0.3-0.2c-0.1-0.1-0.2-0.1-0.3-0.2c-0.1-0.1-0.2-0.1-0.3-0.2c-0.1-0.1-0.2-0.1-0.3-0.2
				c-0.1-0.1-0.2-0.1-0.3-0.2c-0.1-0.1-0.2-0.1-0.3-0.2c-0.1-0.1-0.2-0.1-0.3-0.2c-0.1-0.1-0.2-0.1-0.3-0.2
				c-0.1-0.1-0.2-0.1-0.3-0.2c-0.1-0.1-0.2-0.1-0.3-0.2c-0.1-0.1-0.2-0.1-0.3-0.2c-0.1-0.1-0.2-0.1-0.3-0.2
				c-0.1-0.1-0.2-0.1-0.3-0.2c-0.1-0.1-0.2-0.1-0.3-0.2c-0.1-0.1-0.2-0.1-0.3-0.2c-0.1-0.1-0.2-0.1-0.3-0.2
				c-0.1-0.1-0.2-0.1-0.3-0.2c-0.1-0.1-0.2-0.1-0.3-0.2c-3.6-1.9-7.8-3-12.2-3c-14.5,0-26.3,11.9-26.3,26.7
				c0,10.4,5.9,19.4,14.5,23.8c0.1,0.1,0.2,0.1,0.3,0.2c0.1,0.1,0.2,0.1,0.3,0.2c0.1,0.1,0.2,0.1,0.3,0.2c0.1,0.1,0.2,0.1,0.3,0.2
				c0.1,0.1,0.2,0.1,0.3,0.2c0.1,0.1,0.2,0.1,0.3,0.2c0.1,0.1,0.2,0.1,0.3,0.2c0.1,0.1,0.2,0.1,0.3,0.2c0.1,0.1,0.2,0.1,0.3,0.2
				c0.1,0.1,0.2,0.1,0.3,0.2c0.1,0.1,0.2,0.1,0.3,0.2c0.1,0.1,0.2,0.1,0.3,0.2c0.1,0.1,0.2,0.1,0.3,0.2c0.1,0.1,0.2,0.1,0.3,0.2
				c0.1,0.1,0.2,0.1,0.3,0.2c0.1,0.1,0.2,0.1,0.3,0.2c0.1,0.1,0.2,0.1,0.3,0.2c0.1,0.1,0.2,0.1,0.3,0.2c0.1,0.1,0.2,0.1,0.3,0.2
				c0.1,0.1,0.2,0.1,0.3,0.2c0.1,0.1,0.2,0.1,0.3,0.2c0.1,0.1,0.2,0.1,0.3,0.2c0.1,0.1,0.2,0.1,0.3,0.2c0.1,0.1,0.2,0.1,0.3,0.2
				c0.1,0.1,0.2,0.1,0.3,0.2c0.1,0.1,0.2,0.1,0.3,0.2c0.1,0.1,0.2,0.1,0.3,0.2c0.1,0.1,0.2,0.1,0.3,0.2c0.1,0.1,0.2,0.1,0.3,0.2
				c0.1,0.1,0.2,0.1,0.3,0.2c0.1,0.1,0.2,0.1,0.3,0.2c0.1,0.1,0.2,0.1,0.3,0.2c0.1,0.1,0.2,0.1,0.3,0.2c0.1,0.1,0.2,0.1,0.3,0.2
				c0.1,0.1,0.2,0.1,0.3,0.2c0.1,0.1,0.2,0.1,0.3,0.2c0.1,0.1,0.2,0.1,0.3,0.2c0.1,0.1,0.2,0.1,0.3,0.2c0.1,0.1,0.2,0.1,0.3,0.2
				c0.1,0.1,0.2,0.1,0.3,0.2c0.1,0.1,0.2,0.1,0.3,0.2c0.1,0.1,0.2,0.1,0.3,0.2c0.1,0.1,0.2,0.1,0.3,0.2c0.1,0.1,0.2,0.1,0.3,0.2
				c0.1,0.1,0.2,0.1,0.3,0.2c0.1,0.1,0.2,0.1,0.3,0.2c0.1,0.1,0.2,0.1,0.3,0.2c0.1,0.1,0.2,0.1,0.3,0.2c0.1,0.1,0.2,0.1,0.3,0.2
				c0.1,0.1,0.2,0.1,0.3,0.2c0.1,0.1,0.2,0.1,0.3,0.2c0.1,0.1,0.2,0.1,0.3,0.2c0.1,0.1,0.2,0.1,0.3,0.2c0.1,0.1,0.2,0.1,0.3,0.2
				c0.1,0.1,0.2,0.1,0.3,0.2c0.1,0.1,0.2,0.1,0.3,0.2c0.1,0.1,0.2,0.1,0.3,0.2c0.1,0.1,0.2,0.1,0.3,0.2c0.1,0.1,0.2,0.1,0.3,0.2
				c0.1,0.1,0.2,0.1,0.3,0.2c0.1,0.1,0.2,0.1,0.3,0.2c0.1,0.1,0.2,0.1,0.3,0.2c0.1,0.1,0.2,0.1,0.3,0.2c0.1,0.1,0.2,0.1,0.3,0.2
				c0.1,0.1,0.2,0.1,0.3,0.2c0.1,0.1,0.2,0.1,0.3,0.2c0.1,0.1,0.2,0.1,0.3,0.2c0.1,0.1,0.2,0.1,0.3,0.2c0.1,0.1,0.2,0.1,0.3,0.2
				c0.1,0.1,0.2,0.1,0.3,0.2c0.1,0.1,0.2,0.1,0.3,0.2c0.1,0.1,0.2,0.1,0.3,0.2c0.1,0.1,0.2,0.1,0.3,0.2c0.1,0.1,0.2,0.1,0.3,0.2
				c0.1,0.1,0.2,0.1,0.3,0.2c0.1,0.1,0.2,0.1,0.3,0.2c0.1,0.1,0.2,0.1,0.3,0.2c0.1,0.1,0.2,0.1,0.3,0.2c0.1,0.1,0.2,0.1,0.3,0.2
				c0.1,0.1,0.2,0.1,0.3,0.2c0.1,0.1,0.2,0.1,0.3,0.2c0.1,0.1,0.2,0.1,0.3,0.2c0.1,0.1,0.2,0.1,0.3,0.2c0.1,0.1,0.2,0.1,0.3,0.2
				c0.1,0,0.1,0.1,0.2,0.1C125.5,123.6,135.9,108.8,135.9,91.7z"/>
			<ellipse class="st13" cx="95.6" cy="91.8" rx="33.3" ry="33.8"/>
			<path class="st14" d="M95.6,58L95.6,58L95.6,58L95.6,58L95.6,58L95.6,58L95.6,58L95.6,58L95.6,58L95.6,58
				C95.5,58,95.5,58,95.6,58C95.5,58,95.5,58,95.6,58C95.5,58,95.5,58,95.6,58L95.6,58L95.6,58L95.6,58L95.6,58L95.6,58L95.6,58
				L95.6,58L95.6,58L95.6,58L95.6,58L95.6,58L95.6,58L95.6,58L95.6,58L95.6,58L95.6,58L95.6,58L95.6,58L95.6,58L95.6,58L95.6,58
				L95.6,58L95.6,58L95.6,58L95.6,58L95.6,58L95.6,58L95.6,58L95.6,58L95.6,58L95.6,58L95.6,58L95.6,58L95.6,58L95.6,58L95.6,58
				L95.6,58L95.6,58L95.6,58L95.6,58L95.6,58L95.6,58L95.6,58L95.6,58L95.6,58L95.6,58L95.6,58L95.6,58L95.6,58L95.6,58L95.6,58
				L95.6,58L95.6,58L95.6,58L95.6,58L95.6,58L95.6,58L95.6,58L95.6,58L95.6,58L95.6,58L95.6,58L95.6,58L95.6,58L95.6,58L95.6,58
				L95.6,58L95.6,58L95.6,58L95.6,58L95.6,58L95.6,58L95.6,58L95.6,58L95.6,58L95.6,58L95.6,58L95.6,58L95.6,58L95.6,58L95.6,58
				L95.6,58L95.6,58L95.6,58L95.6,58L95.6,58L95.6,58L95.6,58L95.6,58L95.6,58L95.6,58L95.6,58L95.6,58L95.6,58L95.6,58L95.6,58
				L95.6,58L95.6,58L95.6,58L95.6,58L95.6,58L95.6,58L95.6,58L95.6,58L95.6,58L95.6,58L95.6,58L95.6,58L95.6,58L95.6,58L95.6,58
				L95.6,58L95.6,58L95.6,58L95.6,58L95.6,58L95.6,58L95.6,58L95.6,58L95.6,58L95.6,58L95.6,58L95.6,58L95.6,58L95.6,58L95.6,58
				L95.6,58L95.6,58L95.6,58L95.6,58L95.6,58L95.6,58L95.6,58L95.6,58L95.6,58L95.6,58L95.6,58L95.6,58L95.6,58L95.6,58L95.6,58
				L95.6,58L95.6,58L95.6,58L95.6,58L95.6,58L95.6,58L95.6,58L95.6,58L95.6,58L95.6,58L95.6,58L95.6,58L95.6,58L95.6,58L95.6,58
				c-0.3,0-0.5,0-0.8,0l0.1,1.9c0.7,0,1.3-0.1,2-0.1V58H95.6L95.6,58z M91.2,58.3c-0.1,0-0.1,0-0.2,0l0,0l0,0l0,0l0,0l0,0l0,0l0,0
				l0,0l0,0l0,0l0,0l0,0l0,0l0,0l0,0l0,0c-0.6,0.1-1.1,0.2-1.7,0.3l0.4,1.9c0.6-0.1,1.3-0.2,2-0.3L91.2,58.3L91.2,58.3z M86.8,59.2
				c-0.2,0-0.3,0.1-0.5,0.1l0,0l0,0l0,0l0,0l0,0l0,0l0,0l0,0l0,0l0,0l0,0l0,0l0,0l0,0l0,0l0,0l0,0l0,0l0,0l0,0l0,0l0,0l0,0l0,0l0,0
				l0,0l0,0l0,0l0,0l0,0l0,0l0,0l0,0l0,0l0,0l0,0l0,0l0,0l0,0l0,0l0,0l0,0l0,0l0,0l0,0l0,0l0,0l0,0l0,0l0,0l0,0l0,0l0,0l0,0l0,0l0,0
				l0,0l0,0l0,0l0,0l0,0l0,0l0,0l0,0l0,0l0,0l0,0l0,0l0,0l0,0l0,0l0,0l0,0l0,0l0,0l0,0l0,0l0,0l0,0l0,0l0,0l0,0l0,0l0,0l0,0
				c-0.3,0.1-0.5,0.2-0.8,0.3l0.6,1.8c0.6-0.2,1.3-0.4,1.9-0.6L86.8,59.2L86.8,59.2z M82.6,60.7c-0.1,0-0.2,0.1-0.3,0.1l0,0l0,0l0,0
				l0,0l0,0l0,0l0,0l0,0l0,0l0,0l0,0l0,0l0,0l0,0c-0.5,0.2-0.9,0.4-1.4,0.6l0,0l0,0l0,0l0,0l0,0l0,0l0,0l0,0l0,0l0,0h-0.1l0.8,1.7
				c0.6-0.3,1.2-0.6,1.8-0.9L82.6,60.7L82.6,60.7z M78.6,62.8c-0.2,0.1-0.4,0.2-0.6,0.4l0,0l0,0l0,0l0,0l0,0l0,0l0,0l0,0l0,0l0,0
				l0,0l0,0l0,0l0,0l0,0l0,0l0,0l0,0l0,0l0,0l0,0l0,0l0,0l0,0l0,0l0,0l0,0l0,0l0,0l0,0l0,0l0,0l0,0l0,0l0,0l0,0l0,0l0,0l0,0l0,0l0,0
				l0,0l0,0l0,0c-0.1,0.1-0.3,0.2-0.4,0.3l0,0l0,0l0,0l0,0l0,0l0,0l0,0l0,0l0,0l0,0l0,0l0,0l0,0l0,0l0,0l0,0l0,0l0,0l0,0l0,0l0,0
				l0,0l0,0l0,0l0,0l0,0l0,0l0,0l0,0l0,0l0,0l0,0l0,0l0,0l0,0l0,0l0,0l0,0c-0.1,0-0.1,0.1-0.2,0.1l1.1,1.6c0.5-0.4,1.1-0.7,1.7-1.1
				L78.6,62.8L78.6,62.8z M74.9,65.3c-0.2,0.1-0.3,0.3-0.5,0.4l0,0l0,0l0,0l0,0l0,0l0,0l0,0l0,0l0,0l0,0l0,0l0,0l0,0l0,0l0,0l0,0
				l0,0l0,0l0,0l0,0l0,0l0,0l0,0l0,0l0,0l0,0l0,0l0,0l0,0l0,0l0,0l0,0c-0.3,0.2-0.6,0.5-0.9,0.8l1.3,1.4c0.5-0.5,1-0.9,1.5-1.3
				L74.9,65.3L74.9,65.3z M71.6,68.4c-0.1,0.1-0.3,0.3-0.4,0.4l0,0l0,0l0,0l0,0l0,0l0,0l0,0l0,0l0,0l0,0l0,0l0,0l0,0l0,0l0,0l0,0
				l0,0l0,0l0,0l0,0l0,0l0,0l0,0l0,0l0,0l0,0c-0.3,0.3-0.5,0.6-0.8,0.9l1.4,1.2c0.4-0.5,0.9-1,1.3-1.5L71.6,68.4L71.6,68.4z
				 M68.7,71.8c-0.2,0.2-0.3,0.4-0.5,0.7l0,0l0,0l0,0l0,0l0,0l0,0l0,0l0,0l0,0l0,0l0,0l0,0l0,0l0,0l0,0l0,0l0,0l0,0l0,0l0,0l0,0l0,0
				l0,0l0,0l0,0l0,0l0,0l0,0l0,0l0,0l0,0l0,0l0,0l0,0l0,0l0,0l0,0l0,0l0,0l0,0l0,0l0,0l0,0l0,0l0,0l0,0l0,0l0,0l0,0l0,0l0,0l0,0l0,0
				l0,0l0,0l0,0l0,0l0,0l0,0l0,0l0,0l0,0l0,0l0,0l0,0l0,0l0,0l0,0l0,0l0,0l0,0l0,0l0,0l0,0l0,0l0,0l0,0l0,0l0,0l0,0l0,0l0,0l0,0l0,0
				l0,0l0,0l0,0l0,0l0,0l0,0l0,0l0,0l0,0l0,0l0,0l0,0l0,0l0,0l0,0l0,0l0,0l0,0l0,0l0,0l0,0l0,0l0,0l0,0l0,0l0,0l0,0l0,0l0,0l0,0l0,0
				l0,0l0,0l0,0l0,0l0,0l0,0l0,0l0,0l0,0l0,0l0,0l0,0l0,0l0,0l0,0l0,0l0,0l0,0l0,0l0,0l0,0l0,0l0,0l0,0l0,0l0,0l0,0l0,0l0,0l0,0l0,0
				l1.6,1c0.4-0.6,0.7-1.1,1.1-1.7H68.7L68.7,71.8z M66.3,75.6c-0.1,0.1-0.1,0.2-0.2,0.3l0,0l0,0l0,0l0,0l0,0l0,0l0,0l0,0l0,0l0,0
				l0,0l0,0l0,0l0,0l0,0l0,0c-0.3,0.5-0.5,1-0.7,1.5l1.7,0.8c0.3-0.6,0.6-1.2,0.9-1.8L66.3,75.6L66.3,75.6z M64.5,79.8
				c-0.1,0.2-0.2,0.4-0.2,0.7l0,0l0,0l0,0l0,0l0,0l0,0l0,0l0,0l0,0l0,0l0,0l0,0l0,0l0,0l0,0l0,0l0,0l0,0l0,0l0,0l0,0l0,0l0,0l0,0
				l0,0l0,0c-0.1,0.4-0.3,0.8-0.4,1.1l1.8,0.6c0.2-0.6,0.4-1.3,0.7-1.9L64.5,79.8L64.5,79.8z M63.2,84.1c-0.1,0.2-0.1,0.5-0.2,0.7
				l0,0l0,0l0,0l0,0l0,0l0,0l0,0l0,0l0,0l0,0l0,0l0,0l0,0l0,0l0,0l0,0l0,0l0,0l0,0l0,0l0,0l0,0l0,0l0,0l0,0l0,0l0,0l0,0l0,0l0,0l0,0
				l0,0l0,0l0,0l0,0l0,0l0,0l0,0l0,0l0,0l0,0l0,0l0,0l0,0l0,0l0,0l0,0l0,0c-0.1,0.3-0.1,0.6-0.2,0.9l1.9,0.3c0.1-0.7,0.2-1.3,0.4-2
				L63.2,84.1L63.2,84.1z M62.4,88.5c0,0.2,0,0.4-0.1,0.7l0,0l0,0l0,0l0,0l0,0l0,0l0,0l0,0l0,0l0,0l0,0l0,0l0,0l0,0l0,0l0,0l0,0l0,0
				l0,0l0,0l0,0l0,0l0,0l0,0l0,0l0,0l0,0l0,0l0,0l0,0l0,0l0,0c0,0,0,0,0,0.1l0,0l0,0l0,0c0,0.3,0,0.5,0,0.8l0,0c0,0,0,0,0,0.1l0,0
				l0,0l0,0l0,0l0,0l0,0l0,0l0,0l0,0l0,0l0,0l0,0l0,0l0,0l0,0l0,0l0,0l0,0l0,0l0,0v0.1l1.9,0.1c0-0.7,0.1-1.4,0.1-2L62.4,88.5
				L62.4,88.5z M64.2,93l-1.9,0.1c0,0.3,0,0.5,0,0.8l0,0l0,0l0,0l0,0l0,0l0,0l0,0l0,0l0,0l0,0l0,0l0,0l0,0l0,0l0,0l0,0l0,0l0,0l0,0
				l0,0l0,0l0,0l0,0l0,0l0,0l0,0l0,0l0,0c0,0.4,0.1,0.7,0.1,1.1l1.9-0.2C64.3,94.4,64.2,93.7,64.2,93L64.2,93z M64.6,97.2l-1.9,0.3
				c0,0.1,0,0.1,0,0.2l0,0l0,0l0,0c0,0,0,0,0,0.1l0,0l0,0l0,0l0,0l0,0l0,0l0,0l0,0l0,0l0,0l0,0l0,0l0,0l0,0l0,0l0,0l0,0l0,0l0,0l0,0
				l0,0l0,0l0,0l0,0l0,0l0,0l0,0l0,0l0,0l0,0l0,0l0,0l0,0l0,0l0,0l0,0l0,0l0,0l0,0l0,0l0,0l0,0l0,0l0,0l0,0l0,0l0,0l0,0l0,0l0,0l0,0
				l0,0l0,0l0,0l0,0l0,0l0,0l0,0l0,0l0,0l0,0l0,0l0,0l0,0l0,0l0,0l0,0l0,0l0,0l0,0l0,0l0,0l0,0l0,0l0,0l0,0l0,0l0,0l0,0l0,0l0,0l0,0
				l0,0l0,0l0,0l0,0l0,0l0,0l0,0l0,0l0,0l0,0l0,0l0,0l0,0l0,0l0,0l0,0l0,0l0,0l0,0l0,0l0,0l0,0l0,0l0,0l0,0l0,0l0,0l0,0l0,0l0,0l0,0
				l0,0l0,0l0,0l0,0l0,0l0,0l0,0l0,0l0,0l0,0l0,0l0,0l0,0l0,0l0,0l0,0l0,0l0,0l0,0l0,0l0,0l0,0l0,0l0,0l0,0l0,0l0,0l0,0l0,0l0,0l0,0
				l0,0l0,0l0,0c0,0.2,0.1,0.4,0.1,0.5l1.8-0.4C64.9,98.6,64.7,97.9,64.6,97.2L64.6,97.2z M65.6,101.4l-1.8,0.6
				c0.1,0.2,0.1,0.3,0.2,0.5l0,0l0,0l0,0l0,0l0,0l0,0l0,0l0,0l0,0l0,0l0,0l0,0l0,0l0,0l0,0l0,0l0,0l0,0l0,0l0,0l0,0l0,0l0,0l0,0l0,0
				l0,0l0,0l0,0l0,0l0,0l0,0l0,0l0,0l0,0l0,0l0,0l0,0l0,0l0,0l0,0c0.1,0.4,0.3,0.7,0.4,1.1l1.8-0.7C66,102.7,65.8,102,65.6,101.4
				L65.6,101.4z M67.1,105.4l-1.7,0.8c0.1,0.2,0.2,0.5,0.3,0.7l0,0l0,0l0,0l0,0l0,0l0,0l0,0l0,0l0,0l0,0l0,0l0,0l0,0l0,0l0,0l0,0
				l0,0l0,0l0,0l0,0l0,0l0,0l0,0l0,0l0,0l0,0l0,0l0,0l0,0l0,0l0,0l0,0l0,0l0,0l0,0l0,0l0,0l0,0l0,0l0,0l0,0l0,0l0,0l0,0l0,0l0,0l0,0
				l0,0l0,0l0,0l0,0l0,0l0,0l0,0l0,0l0,0l0,0l0,0l0,0l0,0l0,0l0,0l0,0l0,0l0,0l0,0l0,0l0,0l0,0l0,0l0,0l0,0l0,0l0,0l0,0l0,0l0,0l0,0
				l0,0l0,0l0,0l0,0l0,0l0,0l0,0l0,0l0,0l0,0l0,0l0,0l0,0l0,0l0,0l0,0l0,0l0,0l0,0l0,0l0,0l0,0l0,0l0,0l0,0l0,0l0,0
				c0,0.1,0.1,0.2,0.1,0.2l1.6-0.9C67.7,106.6,67.4,106,67.1,105.4L67.1,105.4z M69.2,109.1l-1.6,1l0,0c0,0,0,0.1,0.1,0.1l0,0l0,0
				l0,0l0,0l0,0l0,0l0,0l0,0l0,0l0,0l0,0l0,0l0,0l0,0l0,0l0,0l0,0l0,0l0,0l0,0l0,0l0,0l0,0l0,0l0,0l0,0l0,0l0,0l0,0l0,0l0,0l0,0l0,0
				l0,0l0,0l0,0l0,0l0,0l0,0l0,0l0,0l0,0l0,0l0,0l0,0l0,0l0,0l0,0l0,0l0,0l0,0l0,0l0,0l0,0l0,0l0,0l0,0l0,0l0,0l0,0l0,0l0,0l0,0l0,0
				l0,0l0,0l0,0l0,0l0,0l0,0l0,0l0,0l0,0l0,0l0,0l0,0l0,0l0,0l0,0l0,0l0,0l0,0l0,0l0,0l0,0l0,0l0,0l0,0l0,0l0,0l0,0l0,0l0,0l0,0l0,0
				l0,0l0,0l0,0l0,0l0,0l0,0l0,0l0,0l0,0l0,0l0,0l0,0l0,0l0,0l0,0l0,0l0,0l0,0l0,0l0,0l0,0l0,0l0,0l0,0l0,0l0,0l0,0l0,0l0,0l0,0l0,0
				l0,0l0,0l0,0l0,0l0,0l0,0l0,0l0,0l0,0l0,0l0,0l0,0l0,0l0,0l0,0l0,0l0,0l0,0l0,0l0,0l0,0l0,0l0,0l0,0l0,0l0,0l0,0l0,0l0,0l0,0l0,0
				l0,0l0,0l0,0l0,0l0,0l0,0l0,0l0,0l0,0l0,0l0,0l0,0L69.2,109.1C69.9,110.2,69.6,109.7,69.2,109.1L69.2,109.1z M71.7,112.5
				l-1.4,1.2l0,0l0,0l0,0l0,0l0,0l0,0l0,0l0,0l0,0l0,0l0,0c0.4,0.5,0.9,1,1.4,1.5l1.3-1.3C72.6,113.5,72.1,113,71.7,112.5
				L71.7,112.5z M74.7,115.6l-1.3,1.4l0.1,0.1l0,0l0,0l0,0l0,0l0,0l0,0l0,0l0,0l0,0l0,0l0,0l0,0l0,0l0,0l0,0l0,0l0,0l0,0l0,0l0,0
				l0,0l0,0l0,0l0,0l0,0l0,0l0,0l0,0l0,0l0,0l0,0l0,0l0,0l0,0l0,0l0,0l0,0l0,0l0,0l0,0l0,0l0,0l0,0l0,0l0,0l0,0l0,0l0,0l0,0l0,0l0,0
				l0,0l0,0l0,0l0,0l0,0l0,0l0,0l0,0l0,0l0,0l0,0l0,0l0,0l0,0l0,0l0,0l0,0l0,0l0,0l0,0l0,0l0,0l0,0l0,0l0,0l0,0l0,0l0,0l0,0l0,0l0,0
				l0,0l0,0l0,0l0,0l0,0l0,0l0,0l0,0l0,0l0,0l0,0l0,0l0,0l0,0l0,0l0,0l0,0l0,0l0,0l0,0l0,0l0,0l0,0l0,0l0,0l0,0l0,0l0,0l0,0l0,0l0,0
				l0,0l0,0l0,0l0,0l0,0l0,0l0,0l0,0l0,0l0,0l0,0l0,0l0,0l0,0l0,0l0,0l0,0l0,0l0,0l0,0l0,0l0,0l0,0l0,0l0,0l0,0l0,0l0,0l0,0l0,0l0,0
				l0,0l0,0l0,0l0,0l0,0l0,0l0,0l0,0l0,0l0,0l0,0l0,0l0,0l0,0l0,0l0,0l0,0l0,0l0,0l0,0l0,0l0,0l0,0l0,0l0,0l0,0l0,0l0,0l0,0l0,0l0,0
				l0,0l0,0l0,0l0,0l0,0l0,0l0,0l0,0l0,0l0,0l0,0l0,0l0.1,0.1L74.7,115.6C75.7,116.5,75.2,116,74.7,115.6L74.7,115.6z M78,118.2
				l-1.1,1.6c0,0,0,0,0.1,0.1l0,0l0,0l0,0l0,0l0,0l0,0l0,0l0,0l0,0l0,0l0,0l0,0l0,0l0,0l0,0l0,0l0,0l0,0l0,0l0,0l0,0l0,0l0,0l0,0
				l0,0l0,0l0,0l0,0l0,0l0,0l0,0l0,0l0,0l0,0l0,0l0,0l0,0l0,0l0,0l0,0l0,0l0,0l0,0l0,0l0,0l0,0l0,0l0,0l0,0l0,0l0,0l0,0l0,0l0,0l0,0
				l0,0l0,0l0,0l0,0l0,0l0,0l0,0l0,0l0,0l0,0l0,0l0,0l0,0l0,0l0,0l0,0l0,0l0,0l0,0l0,0l0,0l0,0l0,0l0,0l0,0l0,0l0,0l0,0l0,0l0,0l0,0
				l0,0l0,0l0,0l0,0l0,0l0,0l0,0l0,0l0,0l0,0l0,0l0,0l0,0l0,0l0,0l0,0l0,0l0,0l0,0l0,0l0,0l0,0l0,0l0,0l0,0l0,0l0,0l0,0l0,0l0,0l0,0
				l0,0l0,0l0,0l0,0l0,0l0,0l0,0l0,0l0,0l0,0l0,0l0,0l0,0l0,0l0,0l0,0l0,0l0,0l0,0l0,0l0,0c0.1,0.1,0.3,0.2,0.4,0.2l1-1.6
				C79.1,118.9,78.5,118.6,78,118.2L78,118.2z M81.6,120.4l-0.8,1.7c0.6,0.3,1.2,0.6,1.8,0.8l0,0l0,0l0,0l0,0l0,0l0,0l0,0l0,0l0,0
				l0,0l0,0l0,0l0,0l0,0l0,0l0,0l0,0l0,0l0.7-1.8C82.8,120.9,82.2,120.7,81.6,120.4L81.6,120.4z M85.5,122l-0.6,1.8
				c0.7,0.2,1.3,0.4,2,0.6l0.5-1.8C86.8,122.4,86.1,122.2,85.5,122L85.5,122z M89.6,123.1l-0.4,1.9c0.7,0.1,1.4,0.2,2.1,0.3l0.2-1.9
				C90.9,123.3,90.2,123.2,89.6,123.1L89.6,123.1z M93.8,123.6l-0.1,1.9c0.2,0,0.3,0,0.5,0l0,0l0,0l0,0l0,0l0,0l0,0l0,0l0,0l0,0l0,0
				l0,0l0,0l0,0l0,0l0,0l0,0l0,0l0,0l0,0l0,0l0,0l0,0l0,0l0,0l0,0l0,0l0,0l0,0l0,0l0,0l0,0l0,0l0,0l0,0l0,0l0,0l0,0l0,0l0,0l0,0l0,0
				l0,0l0,0l0,0l0,0l0,0l0,0l0,0l0,0l0,0l0,0l0,0l0,0l0,0l0,0l0,0l0,0l0,0l0,0l0,0l0,0l0,0l0,0l0,0l0,0l0,0l0,0l0,0l0,0l0,0l0,0l0,0
				l0,0l0,0l0,0l0,0l0,0l0,0l0,0l0,0l0,0l0,0l0,0l0,0l0,0l0,0l0,0l0,0l0,0l0,0l0,0l0,0l0,0l0,0l0,0l0,0l0,0l0,0l0,0l0,0l0,0l0,0l0,0
				l0,0l0,0l0,0l0,0l0,0l0,0l0,0l0,0l0,0l0,0l0,0l0,0l0,0l0,0l0,0l0,0l0,0l0,0l0,0l0,0l0,0l0,0l0,0l0,0l0,0l0,0l0,0l0,0l0,0l0,0l0,0
				l0,0l0,0l0,0l0,0l0,0l0,0l0,0l0,0l0,0l0,0l0,0l0,0l0,0l0,0l0,0l0,0l0,0l0,0l0,0l0,0l0,0l0,0l0,0l0,0l0,0l0,0l0,0l0,0l0,0l0,0l0,0
				l0,0l0,0l0,0l0,0l0,0l0,0l0,0l0,0l0,0l0,0l0,0l0,0l0,0l0,0l0,0l0,0l0,0l0,0l0,0l0,0l0,0h0.1v-1.9h-0.1
				C95,123.7,94.4,123.7,93.8,123.6L93.8,123.6z M100,123.4c-0.7,0.1-1.3,0.2-2,0.2l0.1,1.9c0.7-0.1,1.4-0.1,2.1-0.2L100,123.4
				L100,123.4z M104.1,122.5c-0.6,0.2-1.3,0.3-1.9,0.5l0.4,1.9c0.7-0.1,1.4-0.3,2.1-0.5L104.1,122.5L104.1,122.5z M108.1,121.1
				c-0.6,0.3-1.2,0.5-1.9,0.7l0.6,1.8c0.3-0.1,0.7-0.2,1-0.4l0,0l0,0l0,0l0,0l0,0l0,0l0,0l0,0l0,0l0,0l0,0l0,0l0,0l0,0l0,0l0,0l0,0
				l0,0l0,0l0,0c0.3-0.1,0.6-0.2,0.8-0.3L108.1,121.1L108.1,121.1z M111.8,119.1c-0.6,0.3-1.2,0.7-1.7,1l0.9,1.7l0,0
				c0.6-0.3,1.2-0.7,1.8-1L111.8,119.1L111.8,119.1z M115.3,116.7c-0.5,0.4-1.1,0.8-1.6,1.2l1.1,1.6c0.4-0.3,0.7-0.5,1.1-0.8l0,0
				l0,0l0,0c0,0,0,0,0.1,0l0,0l0,0l0,0l0,0l0,0l0,0l0,0c0.1-0.1,0.3-0.2,0.4-0.3L115.3,116.7L115.3,116.7z M118.4,113.8
				c-0.5,0.5-0.9,1-1.4,1.4l1.3,1.4c0.1-0.1,0.2-0.2,0.3-0.3l0,0l0,0l0,0l0,0l0,0l0,0l0,0l0,0l0,0l0,0l0,0l0,0l0,0l0,0l0,0l0,0l0,0
				l0,0l0,0l0,0l0,0l0,0l0,0l0,0l0,0l0,0l0,0l0,0l0,0l0,0l0,0l0,0l0,0l0,0l0,0l0,0l0,0l0,0l0,0l0,0l0,0l0,0l0,0l0,0l0,0l0,0l0,0l0,0
				l0,0l0,0l0,0l0,0l0,0l0,0l0,0l0,0l0,0l0,0l0,0l0,0l0,0l0,0l0,0l0,0l0,0l0,0l0,0l0,0l0,0l0,0l0,0l0,0l0,0l0,0l0,0l0,0l0,0l0,0l0,0
				l0,0l0,0l0,0l0,0l0,0l0,0l0,0l0,0l0,0l0,0l0,0l0,0l0,0l0,0l0,0l0,0l0,0l0,0l0,0l0,0l0,0l0,0l0,0l0,0l0,0l0,0l0,0l0,0l0,0l0,0l0,0
				l0,0l0,0l0,0l0,0l0,0l0,0l0,0l0,0l0,0l0,0l0,0l0,0l0,0l0,0l0,0c0.1-0.1,0.2-0.2,0.3-0.3L118.4,113.8L118.4,113.8z M121.1,110.5
				c-0.4,0.5-0.8,1.1-1.2,1.6l1.4,1.2c0.2-0.2,0.4-0.5,0.6-0.7l0,0l0,0l0,0l0,0l0,0l0,0l0,0l0,0l0,0l0,0l0,0l0,0l0,0l0,0l0,0l0,0
				l0,0l0,0l0,0l0,0l0,0l0,0l0,0l0,0l0,0l0,0l0,0l0,0l0,0l0,0l0,0l0,0l0,0l0,0l0,0l0,0l0,0l0,0l0,0l0,0l0,0l0,0l0,0l0,0l0,0l0,0l0,0
				l0,0l0,0l0,0l0,0l0,0l0,0l0,0l0,0l0,0l0,0l0,0l0,0l0,0l0,0l0,0l0,0l0,0l0,0l0,0l0,0l0,0l0,0l0,0l0,0l0,0l0,0l0,0l0,0l0,0l0,0l0,0
				l0,0l0,0l0,0l0,0l0,0l0,0l0,0l0,0l0,0l0,0l0,0l0,0l0,0l0,0l0,0l0,0l0,0l0,0l0,0l0,0l0,0l0,0l0,0L121.1,110.5L121.1,110.5z
				 M123.3,106.9c-0.3,0.6-0.7,1.2-1,1.7l1.6,1c0.3-0.5,0.6-1.1,0.9-1.6l0,0l0,0l0,0l0,0l0,0l0,0l0,0l0,0l0,0l0,0l0,0l0,0l0,0l0,0
				l0,0l0,0l0,0l0,0l0,0l0,0l0,0l0,0l0,0L123.3,106.9L123.3,106.9z M125.1,103c-0.2,0.6-0.5,1.3-0.8,1.9l1.7,0.8
				c0.1-0.2,0.2-0.4,0.2-0.5l0,0l0,0l0,0l0,0l0,0l0,0l0,0l0,0l0,0l0,0l0,0l0,0l0,0l0,0l0,0l0,0l0,0l0,0l0,0l0,0l0,0l0,0l0,0l0,0l0,0
				l0,0l0,0l0,0l0,0l0,0l0,0l0,0l0,0l0,0l0,0l0,0l0,0l0,0l0,0l0,0l0,0l0,0l0,0l0,0l0,0l0,0l0,0l0,0l0,0l0,0l0,0l0,0l0,0l0,0l0,0l0,0
				l0,0l0,0l0,0l0,0l0,0l0,0l0,0l0,0l0,0l0,0l0,0l0,0l0,0l0,0l0,0l0,0l0,0l0,0l0,0l0,0l0,0l0,0l0,0l0,0l0,0l0,0l0,0l0,0l0,0l0,0l0,0
				l0,0l0,0l0,0l0,0l0,0l0,0l0,0l0,0l0,0l0,0l0,0l0,0l0,0l0,0l0,0l0,0l0,0l0,0l0,0l0,0l0,0l0,0l0,0l0,0l0,0l0,0l0,0l0,0l0,0l0,0l0,0
				l0,0l0,0l0,0l0,0l0,0c0.1-0.1,0.1-0.3,0.2-0.4L125.1,103L125.1,103z M126.3,99c-0.1,0.7-0.3,1.3-0.5,2l1.8,0.5
				c0.1-0.3,0.2-0.6,0.3-0.9l0,0l0,0l0,0l0,0l0,0l0,0l0,0l0,0l0,0l0,0l0,0l0,0l0,0l0,0l0,0l0,0l0,0l0,0l0,0l0,0l0,0l0,0l0,0l0,0l0,0
				l0,0l0,0l0,0l0,0l0,0l0,0l0,0l0,0l0,0l0,0l0,0l0,0l0,0l0,0l0,0l0,0l0,0l0,0l0,0l0,0l0,0l0,0l0,0l0,0l0,0l0,0l0,0l0,0l0,0l0,0l0,0
				l0,0l0,0l0,0l0,0l0,0l0,0l0,0l0,0l0,0l0,0l0,0l0,0l0,0l0,0l0,0l0,0l0,0l0,0l0,0l0,0l0,0l0,0l0,0l0,0l0,0l0,0l0,0l0,0l0,0l0,0l0,0
				l0,0l0,0l0,0l0,0l0,0l0,0l0,0l0,0c0-0.1,0.1-0.2,0.1-0.4L126.3,99L126.3,99z M127,94.7c-0.1,0.7-0.1,1.3-0.2,2l1.9,0.3
				c0-0.1,0-0.2,0-0.2l0,0l0,0l0,0l0,0l0,0l0,0l0,0l0,0l0,0l0,0l0,0l0,0l0,0l0,0l0,0l0,0l0,0l0,0l0,0l0,0l0,0l0,0l0,0l0,0
				c0.1-0.5,0.1-1.1,0.2-1.6L127,94.7L127,94.7z M128.9,90.4l-1.9,0.1c0,0.4,0,0.9,0,1.3c0,0.2,0,0.5,0,0.7h1.9c0-0.2,0-0.4,0-0.6
				l0,0l0,0l0,0l0,0l0,0l0,0l0,0l0,0l0,0l0,0l0,0l0,0l0,0l0,0l0,0l0,0l0,0l0,0l0,0l0,0l0,0l0,0l0,0l0,0l0,0l0,0l0,0l0,0l0,0l0,0l0,0
				l0,0l0,0l0,0l0,0l0,0l0,0l0,0l0,0l0,0l0,0l0,0l0,0l0,0l0,0l0,0l0,0l0,0l0,0l0,0l0,0l0,0l0,0l0,0l0,0l0,0l0,0l0,0l0,0l0,0l0,0l0,0
				l0,0l0,0C129,91.1,129,90.8,128.9,90.4L128.9,90.4z M128.5,85.9l-1.9,0.3c0.1,0.7,0.2,1.3,0.3,2l1.9-0.2c0-0.1,0-0.2,0-0.3l0,0
				l0,0l0,0l0,0l0,0l0,0l0,0l0,0l0,0l0,0l0,0l0,0l0,0l0,0l0,0l0,0l0,0l0,0l0,0l0,0l0,0l0,0l0,0l0,0l0,0l0,0l0,0l0,0l0,0l0,0l0,0l0,0
				l0,0l0,0l0,0l0,0l0,0l0,0l0,0l0,0l0,0l0,0l0,0l0,0l0,0l0,0l0,0l0,0l0,0l0,0l0,0l0,0l0,0l0,0c0-0.1,0-0.3-0.1-0.4l0,0l0,0l0,0l0,0
				l0,0l0,0l0,0l0,0l0,0l0,0l0,0l0,0l0,0l0,0l0,0l0,0l0,0l0,0l0,0l0,0l0,0l0,0l0,0l0,0l0,0l0,0l0,0l0,0l0,0l0,0l0,0l0,0l0,0l0,0
				C128.5,86.2,128.5,86.1,128.5,85.9L128.5,85.9z M127.4,81.5l-1.8,0.6c0.2,0.6,0.4,1.3,0.5,1.9l1.8-0.5c-0.1-0.6-0.3-1.1-0.5-1.7
				l0,0l0,0l0,0l0,0l0,0l0,0l0,0l0,0l0,0l0,0l0,0l0,0l0,0l0,0l0,0l0,0l0,0l0,0l0,0l0,0l0,0l0,0l0,0l0,0l0,0l0,0l0,0l0,0l0,0
				C127.4,81.6,127.4,81.6,127.4,81.5L127.4,81.5C127.4,81.6,127.4,81.6,127.4,81.5C127.4,81.6,127.4,81.6,127.4,81.5
				C127.4,81.6,127.4,81.6,127.4,81.5C127.4,81.6,127.4,81.6,127.4,81.5C127.4,81.6,127.4,81.6,127.4,81.5
				C127.4,81.6,127.4,81.5,127.4,81.5L127.4,81.5L127.4,81.5L127.4,81.5L127.4,81.5L127.4,81.5L127.4,81.5L127.4,81.5z M125.7,77.3
				l-1.7,0.8c0.3,0.6,0.6,1.2,0.8,1.9l1.7-0.7c-0.2-0.4-0.3-0.8-0.5-1.1l0,0l0,0l0,0l0,0l0,0l0,0l0,0l0,0l0,0l0,0l0,0l0,0l0,0l0,0
				l0,0l0,0l0,0l0,0l0,0l0,0l0,0l0,0l0,0l0,0l0,0l0,0l0,0l0,0l0,0l0,0l0,0l0,0l0,0l0,0l0,0l0,0l0,0l0,0l0,0l0,0l0,0l0,0l0,0l0,0l0,0
				l0,0l0,0l0,0l0,0l0,0l0,0l0,0l0,0l0,0l0,0l0,0l0,0l0,0l0,0l0,0l0,0l0,0l0,0l0,0l0,0l0,0l0,0l0,0l0,0l0,0l0,0l0,0l0,0l0,0l0,0l0,0
				l0,0l0,0l0,0C125.8,77.4,125.8,77.3,125.7,77.3L125.7,77.3z M123.6,73.3l-1.6,1c0.4,0.6,0.7,1.1,1,1.7l1.6-0.9l0,0l0,0l0,0l0,0
				l0,0l0,0l0,0l0,0l0,0l0,0l0,0l0,0l0,0C124.3,74.5,123.9,73.9,123.6,73.3L123.6,73.3z M120.9,69.7l-1.4,1.2c0.4,0.5,0.9,1,1.3,1.6
				l1.5-1.2c-0.2-0.2-0.3-0.4-0.5-0.6l0,0l0,0l0,0l0,0l0,0l0,0l0,0l0,0l0,0l0,0l0,0l0,0l0,0l0,0l0,0l0,0l0,0l0,0l0,0l0,0l0,0l0,0
				l0,0l0,0l0,0l0,0l0,0l0,0l0,0l0,0l0,0l0,0l0,0l0,0l0,0l0,0l0,0l0,0l0,0l0,0l0,0l0,0l0,0l0,0l0,0l0,0l0,0l0,0l0,0l0,0l0,0l0,0l0,0
				l0,0l0,0l0,0l0,0l0,0l0,0l0,0l0,0l0,0l0,0l0,0l0,0l0,0l0,0l0,0l0,0l0,0l0,0l0,0l0,0l0,0l0,0l0,0l0,0l0,0l0,0l0,0l0,0l0,0l0,0l0,0
				l0,0l0,0l0,0l0,0l0,0l0,0l0,0l0,0l0,0C121.1,70,121,69.9,120.9,69.7L120.9,69.7z M117.7,66.5l-1.2,1.4c0.5,0.4,1,0.9,1.5,1.4
				l1.3-1.3c-0.3-0.3-0.7-0.7-1-1l0,0l0,0l0,0l0,0l0,0l0,0l0,0l0,0l0,0l0,0l0,0l0,0l0,0l0,0l0,0l0,0l0,0l0,0l0,0l0,0l0,0l0,0l0,0
				l0,0l0,0l0,0l0,0l0,0l0,0l0,0l0,0l0,0l0,0l0,0C117.9,66.7,117.8,66.6,117.7,66.5L117.7,66.5z M114.2,63.7l-1,1.6
				c0.5,0.4,1.1,0.8,1.6,1.2l1.1-1.5l-0.1-0.1l0,0l0,0l0,0l0,0l0,0l0,0l0,0l0,0l0,0l0,0l0,0l0,0l0,0l0,0l0,0l0,0l0,0l0,0l0,0l0,0
				l0,0l0,0l0,0l0,0l0,0l0,0l0,0l0,0l0,0l0,0l0,0l0,0l0,0l0,0l0,0l0,0l0,0l0,0l0,0l0,0l0,0l0,0l0,0l0,0l0,0l0,0l0,0l0,0l0,0l0,0l0,0
				l0,0l0,0l0,0l0,0l0,0l0,0l0,0l0,0l0,0l0,0l0,0l0,0l0,0l0,0l0,0l0,0l0,0l0,0l0,0l0,0l0,0l0,0l0,0l0,0l0,0l0,0l0,0l0,0l0,0l0,0l0,0
				l0,0l0,0l0,0l0,0l0,0l0,0l0,0l0,0l0,0l0,0l0,0l0,0l0,0C114.8,64.2,114.5,64,114.2,63.7L114.2,63.7z M110.3,61.5l-0.8,1.7
				c0.6,0.3,1.2,0.6,1.8,1l0.9-1.7C111.6,62.1,111,61.8,110.3,61.5L110.3,61.5z M106.2,59.8l-0.6,1.8c0.6,0.2,1.3,0.4,1.9,0.7
				l0.7-1.8c0,0-0.1,0-0.1-0.1l0,0l0,0l0,0l0,0l0,0l0,0l0,0l0,0l0,0l0,0l0,0l0,0l0,0l0,0l0,0l0,0l0,0l0,0l0,0l0,0l0,0l0,0l0,0l0,0
				l0,0l0,0l0,0l0,0l0,0l0,0l0,0l0,0l0,0l0,0l0,0l0,0l0,0l0,0l0,0l0,0l0,0l0,0l0,0l0,0l0,0l0,0l0,0l0,0l0,0l0,0l0,0l0,0l0,0l0,0l0,0
				l0,0l0,0l0,0l0,0l0,0l0,0l0,0l0,0l0,0l0,0l0,0l0,0l0,0l0,0l0,0l0,0l0,0l0,0l0,0l0,0l0,0l0,0l0,0l0,0l0,0l0,0l0,0l0,0
				C107,60,106.6,59.9,106.2,59.8L106.2,59.8z M101.9,58.6l-0.4,1.9c0.7,0.1,1.3,0.3,1.9,0.4l0.5-1.8
				C103.3,58.9,102.6,58.7,101.9,58.6L101.9,58.6z M97.5,58.1L97.4,60c0.7,0,1.3,0.1,2,0.2l0.2-1.9c-0.2,0-0.5-0.1-0.7-0.1l0,0l0,0
				l0,0l0,0l0,0l0,0l0,0l0,0l0,0l0,0l0,0l0,0l0,0l0,0l0,0l0,0l0,0l0,0l0,0l0,0l0,0l0,0l0,0l0,0l0,0l0,0l0,0c-0.1,0-0.3,0-0.4,0l0,0
				l0,0l0,0l0,0l0,0l0,0l0,0l0,0l0,0l0,0l0,0l0,0l0,0l0,0l0,0l0,0l0,0l0,0l0,0l0,0l0,0l0,0l0,0l0,0l0,0l0,0l0,0l0,0l0,0l0,0l0,0l0,0
				l0,0l0,0l0,0l0,0C97.6,58.1,97.5,58.1,97.5,58.1L97.5,58.1z"/>
			<g>
				<path class="st14" d="M119,91.8c0,13.1-10.4,23.6-23.3,23.6s-23.3-10.6-23.3-23.6c0-13.1,10.4-23.6,23.3-23.6
					C108.5,68.2,119,78.7,119,91.8z"/>
				<path class="st15" d="M73.5,92.3c0-13.1,10.4-23.6,23.3-23.6c3.1,0,6.1,0.6,8.8,1.7c-3-1.5-6.4-2.3-10-2.3
					c-12.9,0-23.3,10.6-23.3,23.6c0,9.9,6,18.4,14.5,21.9C79,109.9,73.5,101.8,73.5,92.3z"/>
			</g>
			<g>
				<path class="st16" d="M97.9,106.8v4.5H96h-1.9v-4.5c-5.6-0.6-9-3.3-10.3-8.2l6.4-1.5c0.7,2.8,2.7,4.2,6,4.2
					c1.6,0,2.8-0.3,3.6-0.9c0.8-0.6,1.2-1.4,1.2-2.2c0-0.9-0.4-1.6-1.1-2.1s-2.1-0.9-4.1-1.3c-4.4-0.9-7.3-2.2-8.6-3.7
					c-1.3-1.6-1.9-3.4-1.9-5.5c0-2.5,0.8-4.6,2.4-6.3c1.6-1.7,3.7-2.8,6.3-3.1v-3.7h2h1.9V76c4.8,0.5,8,2.8,9.4,7l-5.9,2
					c-0.8-2.4-2.5-3.6-5.1-3.6c-2.7,0-4.1,0.9-4.1,2.7c0,0.7,0.3,1.3,0.8,1.8s1.7,0.9,3.5,1.3c3,0.6,5.2,1.2,6.6,1.9
					c1.4,0.6,2.6,1.7,3.6,3.1s1.4,3,1.4,4.7c0,2.4-0.9,4.6-2.6,6.5C103.9,105.4,101.3,106.5,97.9,106.8z"/>
			</g>
		</g>
		<path class="st17" d="M104,114.6l-1.3-1.2c-3.7-3.1-8.7-3.1-12.4,0l-1.3,1.2L41.5,79.3v77.1h109.8V79.3L104,114.6z"/>
		<polygon class="st16" points="151.4,79.4 96.5,122.4 151.4,156.3 		"/>
		<polygon class="st16" points="41.5,79.4 96.4,122.4 41.5,156.3 		"/>
		<path class="st16" d="M41.5,156.3L89.3,116l0.9-0.7c3.7-3.1,8.7-3.1,12.4,0l48.7,41H41.5z"/>
		<path class="st18" d="M104,116.5l47.3,39.8l0.1-1.3C151.4,155,107,117.6,104,116.5z"/>
		<path class="st18" d="M89.3,116l-47.8,40.3v-1.1C41.5,155.2,87.5,116.7,89.3,116z"/>
	</g>
	<path class="st2" d="M96.9,175.8c-30.1,0-58.3-15.2-74.7-40.4c-0.3-0.4-0.4-1-0.2-1.5c0.1-0.5,0.4-0.9,0.9-1.2L45,120
		c0.3-0.2,0.6-0.3,1-0.3c0.6,0,1.2,0.3,1.6,0.8c18.7,27.2,56,34.2,83.2,15.6c6.1-4.2,11.4-9.5,15.6-15.6c0.4-0.5,0.9-0.8,1.6-0.8
		c0.4,0,0.7,0.1,1,0.3l22.3,12.9c0.5,0.3,0.8,0.7,0.9,1.2c0.1,0.5,0,1-0.2,1.5C155.2,160.7,127.1,175.9,96.9,175.8z"/>
	<path class="st0" d="M45.9,133.1l2.1,1.5c0.2,0.1,0.3,0.3,0.4,0.5c0.1,0.2,0.1,0.4,0,0.6l-3.5,9.6c-0.1,0.2-0.2,0.5-0.3,0.8
		s-0.2,0.5-0.4,0.8c0.2-0.2,0.5-0.4,0.7-0.6c0.2-0.2,0.4-0.4,0.7-0.5l8.3-6.1c0.4-0.3,0.9-0.3,1.2,0l0.7,0.5
		c0.2,0.1,0.3,0.3,0.4,0.5c0.1,0.2,0.1,0.4,0,0.6l-3.1,9.8c-0.2,0.5-0.4,1.1-0.6,1.6l0.6-0.6c0.2-0.2,0.4-0.4,0.6-0.5l8-6.3
		c0.2-0.1,0.4-0.2,0.6-0.2c0.2,0,0.5,0.1,0.7,0.2l2,1.4l-13.7,10.4l-2.2-1.6l3.6-11.2c0-0.1,0.1-0.3,0.2-0.5l0.2-0.5l-0.4,0.4
		l-0.4,0.3l-9.5,7l-2.2-1.6L45.9,133.1z"/>
	<path class="st0" d="M76.3,150.5l-0.9,2.3l-6.8-2.6l-1.7,4.2l5.3,2.1l-0.8,2.2l-5.3-2.1l-1.7,4.4l6.8,2.6l-0.9,2.3l-9.6-3.8l6-15.3
		L76.3,150.5z"/>
	<path class="st0" d="M79.2,165.3l6.4,1.3l-0.5,2.5l-9.4-1.9l3.2-16.1l3,0.6L79.2,165.3z"/>
	<path class="st0" d="M100.6,165.9c0.2,0,0.3,0.1,0.4,0.2l1.2,1.3c-0.7,0.8-1.5,1.4-2.5,1.9c-1.1,0.5-2.3,0.7-3.5,0.6
		c-1.1,0-2.2-0.2-3.3-0.7c-0.9-0.4-1.8-1-2.5-1.8s-1.2-1.7-1.5-2.7c-0.4-1.1-0.5-2.2-0.5-3.4s0.2-2.3,0.7-3.4c0.4-1,1-1.9,1.8-2.6
		c0.8-0.7,1.7-1.3,2.7-1.7c1.1-0.4,2.3-0.6,3.4-0.6s2.2,0.2,3.2,0.6c0.9,0.4,1.6,0.9,2.3,1.6l-1,1.4c-0.1,0.1-0.1,0.2-0.2,0.2
		c-0.1,0.1-0.3,0.1-0.4,0.1c-0.2,0-0.4-0.1-0.5-0.2c-0.2-0.2-0.4-0.3-0.7-0.5c-0.3-0.2-0.7-0.3-1.1-0.5c-0.5-0.2-1.1-0.2-1.6-0.2
		c-0.7,0-1.5,0.1-2.1,0.4c-0.6,0.2-1.2,0.6-1.7,1.1s-0.9,1.1-1.1,1.8c-0.3,0.8-0.4,1.6-0.4,2.4c0,0.8,0.1,1.7,0.3,2.5
		c0.2,0.7,0.6,1.3,1,1.8s0.9,0.9,1.5,1.2s1.3,0.4,1.9,0.4c0.4,0,0.8,0,1.1,0s0.6-0.1,0.9-0.2c0.3-0.1,0.6-0.2,0.8-0.4
		c0.3-0.2,0.5-0.4,0.8-0.6c0.1-0.1,0.2-0.1,0.2-0.2C100.4,166,100.5,165.9,100.6,165.9z"/>
	<path class="st0" d="M121.6,158c0.3,1.1,0.3,2.3,0.1,3.4c-0.2,1-0.5,2.1-1.1,2.9c-0.6,0.9-1.3,1.7-2.2,2.3c-1,0.6-2,1.1-3.2,1.3
		c-1.1,0.3-2.3,0.3-3.5,0.1c-1-0.2-2.1-0.6-2.9-1.2c-0.9-0.6-1.6-1.4-2.2-2.2c-1.2-1.9-1.8-4.3-1.4-6.5c0.2-1,0.5-2,1.1-2.9
		s1.3-1.7,2.2-2.3c2-1.3,4.3-1.8,6.7-1.4c2.1,0.4,4,1.6,5.1,3.4C120.9,155.8,121.4,156.9,121.6,158z M118.6,158.7
		c-0.2-0.8-0.4-1.6-0.8-2.3c-0.4-0.6-0.8-1.1-1.4-1.6c-0.5-0.4-1.2-0.7-1.8-0.8c-0.7-0.1-1.5-0.1-2.2,0.1c-0.7,0.1-1.4,0.4-2,0.8
		s-1,0.9-1.4,1.5c-0.3,0.6-0.6,1.3-0.6,2c-0.1,1.6,0.2,3.3,1,4.7c0.3,0.6,0.8,1.1,1.4,1.6c0.5,0.4,1.2,0.7,1.8,0.8
		c0.7,0.1,1.5,0.1,2.2-0.1c0.7-0.1,1.4-0.4,2-0.8c0.6-0.4,1-0.9,1.3-1.4c0.3-0.6,0.6-1.3,0.6-2C118.8,160.3,118.7,159.5,118.6,158.7
		L118.6,158.7z"/>
	<path class="st0" d="M146.5,132.3l1.6,1.8l-5.5,4.8l3,3.4l4.3-3.8l1.5,1.8l-4.3,3.8l3,3.5l5.5-4.8l1.6,1.8l-7.8,6.8L138.6,139
		L146.5,132.3z"/>
	<g>
		<path class="st0" d="M133.2,154.1c0.2,0.2,0.4,0.4,0.6,0.5c0-0.3-0.1-0.6-0.1-0.9c0-0.3,0-0.6,0-0.8l0.1-10.1c0-0.1,0-0.2,0-0.3
			s0.1-0.2,0.1-0.2c0.1-0.1,0.1-0.1,0.2-0.2c0.1-0.1,0.2-0.1,0.3-0.2l2-1l7.5,14.3l-2.3,1.2l-4.8-9.2c-0.1-0.2-0.2-0.4-0.3-0.6
			c-0.1-0.2-0.2-0.4-0.3-0.6l-0.1,10.4c0,0.2-0.1,0.4-0.2,0.6c-0.1,0.2-0.3,0.3-0.5,0.4l-0.4,0.2c-0.2,0.1-0.4,0.2-0.6,0.1
			c-0.2,0-0.4-0.1-0.6-0.2l-8.6-5.9c0.1,0.2,0.3,0.4,0.4,0.6s0.2,0.4,0.3,0.6l4.8,9.2l-2.3,1.2L121,149l2-1c0.1-0.1,0.2-0.1,0.3-0.2
			c0.1,0,0.2-0.1,0.3-0.1c0.1,0,0.2,0,0.3,0c0.1,0,0.2,0.1,0.3,0.2l8.4,5.7C132.8,153.8,133,153.9,133.2,154.1z"/>
	</g>
	<g>
		<path class="st0" d="M197.2,93.1l6.7-29.6h-10.8l1.6-7h30.8l-1.6,7h-10.8l-6.7,29.6H197.2z"/>
		<path class="st0" d="M251.8,93.1h-9.2l3.7-16.2h-12.5l-3.7,16.3H221l8.4-36.6h9.2L235.5,70H248l3.1-13.4h9.2L251.8,93.1z"/>
		<path class="st0" d="M274,93.9c-4.9,0-8.4-1.2-10.5-3.6S261,84.5,262,80l5.3-23.3h9.2l-5.2,22.8c-0.5,2.5-0.5,4.4,0.1,5.7
			c0.6,1.2,2.1,1.9,4.3,1.9c2.1,0,3.8-0.6,5.1-1.8c1.3-1.2,2.2-3.1,2.8-5.8l5.2-22.8h9.2c1.3,0,2.4-0.3,3-1c0.7-0.7,1.2-1.6,1.4-2.7
			c0.1-0.7,0.2-1.3,0.1-1.9c-0.1-0.6-0.1-1.2-0.2-1.6l0.1-0.5h4.9c0.1,0.6,0,1.3-0.1,2.4c-0.2,1-0.2,1.8-0.4,2.4
			c-0.5,2.5-1.7,4.4-3.5,5.7c-1.8,1.2-3.9,1.9-6.6,1.9h-0.1L292.5,80c-1,4.5-3.1,8-6.2,10.4C283.2,92.7,279.1,93.9,274,93.9z"/>
		<path class="st0" d="M336.6,74.9c-1.3,5.9-4,10.6-7.9,14c-4,3.4-8.6,5.1-14.1,5.1s-9.5-1.7-11.8-5.2c-2.3-3.4-2.9-8.1-1.6-13.9
			c1.3-5.9,3.9-10.6,7.9-14c4-3.4,8.6-5.1,14.1-5.1c3.5,0,6.3,0.7,8.5,2c2.2,1.3,3.7,3.2,4.7,5.7h1.1c1.3,0,2.4-0.3,3-1
			c0.7-0.7,1.2-1.6,1.4-2.7c0.1-0.7,0.2-1.3,0.1-1.9c-0.1-0.6-0.1-1.2-0.2-1.6l0.1-0.5h4.9c0.1,0.6,0,1.3-0.1,2.4
			c-0.2,1-0.2,1.8-0.4,2.4c-0.5,2.5-1.7,4.4-3.4,5.6s-3.6,1.8-5.8,1.9c0,1,0,2.1-0.1,3.3C337,72.5,336.8,73.7,336.6,74.9z
			 M327.1,74.9c0.5-2.2,0.7-4,0.6-5.6c-0.1-1.5-0.5-2.8-0.9-3.8c-0.5-1-1.3-1.7-2.2-2.2c-0.9-0.4-1.9-0.7-3-0.7s-2.2,0.2-3.2,0.6
			c-1,0.4-2.1,1.1-3.1,2.2c-0.9,1-1.9,2.2-2.7,3.8c-0.8,1.6-1.5,3.5-2,5.6c-0.5,2.2-0.7,4.1-0.6,5.6c0.1,1.5,0.5,2.7,1,3.7
			s1.3,1.7,2.2,2.2c0.9,0.4,1.9,0.7,3,0.7c1.1,0,2.2-0.2,3.3-0.7c1.1-0.5,2.2-1.2,3.1-2.2c1.1-1.1,1.9-2.3,2.7-3.7
			C325.9,79.1,326.6,77.2,327.1,74.9z M330.5,46.7c-0.3,1.2-0.8,2.1-1.5,2.7c-0.7,0.6-1.7,1.1-2.7,1.4l-0.4,1.5h-4.4l0.6-2.8
			c0.8-0.2,1.4-0.5,1.9-0.9c0.5-0.4,0.8-0.9,1-1.6c0.1-0.4,0-0.7-0.3-0.9s-0.7-0.4-1.2-0.4s-0.9,0-1.2,0.1c-0.3,0.1-0.7,0.2-1.1,0.3
			h-0.1l0.6-2.8c0.3-0.1,0.8-0.2,1.5-0.3s1.3-0.1,2-0.1c2,0,3.4,0.4,4.1,1.1C330.4,44.8,330.7,45.7,330.5,46.7z"/>
		<path class="st0" d="M372.7,93.1h-8.9l-8.2-25.4l-5.8,25.5h-8.4l8.4-36.6h11.3l6.9,20.9l4.8-20.9h8.4L372.7,93.1z"/>
		<path class="st0" d="M411.1,91c-1.7,0.7-4,1.3-6.7,1.9c-2.7,0.6-5.3,1-7.7,1c-5.8,0-10-1.7-12.6-5s-3.3-8-1.9-14.1
			c1.3-5.7,4-10.4,8.3-13.8c4.2-3.5,9.2-5.2,15.2-5.2c3.1,0,5.5,0.3,7.2,0.9c1.8,0.6,3.6,1.4,5.4,2.4l-1.9,8.6h-0.8
			c-0.4-0.3-0.9-0.8-1.6-1.5s-1.3-1.2-2-1.6c-0.8-0.5-1.7-1-2.8-1.4c-1.1-0.4-2.4-0.6-3.7-0.6c-1.6,0-3.1,0.2-4.4,0.7
			c-1.4,0.5-2.8,1.2-4,2.3c-1.1,1-2.2,2.2-3.2,3.7c-0.9,1.5-1.6,3.3-2.1,5.3c-1,4.3-0.6,7.4,1.1,9.5c1.7,2,4.4,3.1,8.1,3.1
			c0.3,0,0.7,0,1.2,0c0.4,0,0.8,0,1.2-0.1l1.4-7.2h-7.1l1.6-6.9h16L411.1,91z"/>
		<path class="st0" d="M448,93.9c-5.5,0-9.5-1.7-11.9-5c-2.4-3.3-3-8-1.7-14c1.3-5.8,4-10.4,8-13.9c4.1-3.5,8.7-5.2,14.2-5.2
			c1.5,0,2.8,0.1,3.9,0.2c1.1,0.2,2.2,0.4,3.2,0.7c0.8,0.2,1.6,0.6,2.5,1c0.9,0.4,1.6,0.8,2.1,1.1l-2,8.7h-0.9
			c-0.4-0.4-0.8-0.9-1.3-1.4c-0.6-0.5-1.1-1.1-1.9-1.6c-0.8-0.5-1.5-1-2.5-1.3c-1-0.4-2-0.6-3.1-0.6c-1.3,0-2.6,0.2-3.8,0.6
			c-1.2,0.4-2.5,1.1-3.6,2.2c-1.1,0.9-2.2,2.2-3.1,3.8c-1,1.6-1.7,3.5-2.2,5.6c-0.5,2.3-0.6,4.2-0.4,5.7c0.2,1.6,0.8,2.8,1.5,3.8
			c0.8,0.9,1.6,1.6,2.7,2c1.1,0.4,2.2,0.6,3.4,0.6c1.2,0,2.4-0.2,3.6-0.6c1.2-0.4,2.2-0.8,3.1-1.3c0.9-0.5,1.7-1,2.5-1.6
			c0.7-0.5,1.3-1,2-1.4h0.8l-1.9,8.6c-0.7,0.3-1.6,0.7-2.6,1.1c-1,0.4-1.9,0.7-2.9,1c-1.2,0.3-2.3,0.6-3.4,0.8
			C451.1,93.8,449.7,93.9,448,93.9z"/>
		<path class="st0" d="M496.8,93.1h-9.2l3.7-16.3h-12.6L475,93.1h-9.2l8.4-36.6h9.2L480.3,70h12.5l3.1-13.4h9.2L496.8,93.1z"/>
		<path class="st0" d="M500.4,93.1l20.8-36.6h10l4,36.6h-9.5l-0.6-7.5h-11.5l-4,7.5H500.4z M532.3,52.5h-5.9l-5.2-9.7h8.2
			L532.3,52.5z M524.6,79.1l-1-12.1l-6.5,12.1H524.6z"/>
		<path class="st0" d="M576.2,74.9c-1.3,5.9-4,10.6-7.9,14c-4,3.4-8.6,5.1-14.1,5.1c-5.5,0-9.5-1.7-11.8-5.2
			c-2.3-3.4-2.9-8.1-1.6-13.9c1.3-5.9,3.9-10.6,7.9-14c4-3.4,8.6-5.1,14.1-5.1c5.5,0,9.5,1.7,11.8,5.1
			C577.1,64.3,577.6,69,576.2,74.9z M566.8,74.9c0.5-2.2,0.7-4,0.6-5.6c-0.1-1.5-0.5-2.8-0.9-3.8c-0.5-1-1.3-1.7-2.2-2.2
			c-0.9-0.4-1.9-0.7-3-0.7c-1.1,0-2.2,0.2-3.2,0.6c-1,0.4-2.1,1.1-3.1,2.2c-0.9,1-1.9,2.2-2.7,3.8c-0.8,1.6-1.5,3.5-2,5.6
			c-0.5,2.2-0.7,4.1-0.6,5.6c0.1,1.5,0.5,2.7,1,3.7s1.3,1.7,2.2,2.2c0.9,0.4,1.9,0.7,3,0.7s2.2-0.2,3.3-0.7s2.2-1.2,3.1-2.2
			c1.1-1.1,1.9-2.3,2.7-3.7C565.6,79.1,566.2,77.2,566.8,74.9z"/>
		<path class="st0" d="M629.5,93.1h-9.2l5.6-24.2l-10.2,15.7h-6.3l-3.1-15.7l-5.6,24.2h-8.7l8.4-36.6h10.6l3.9,18.1l12.2-18.1h10.6
			L629.5,93.1z"/>
		<path class="st0" d="M651.7,93.9c-4.9,0-8.4-1.2-10.5-3.6c-2.1-2.4-2.6-5.9-1.6-10.4l5.3-23.3h9.2L649,79.5
			c-0.5,2.5-0.5,4.4,0.1,5.7c0.6,1.2,2.1,1.9,4.3,1.9c2.1,0,3.8-0.6,5.1-1.8c1.3-1.2,2.2-3.1,2.8-5.8l5.2-22.8h9.2
			c1.3,0,2.4-0.3,3-1c0.7-0.7,1.2-1.6,1.4-2.7c0.1-0.7,0.2-1.3,0.1-1.9c-0.1-0.6-0.1-1.2-0.2-1.6l0.1-0.5h4.9c0.1,0.6,0,1.3-0.1,2.4
			c-0.2,1-0.2,1.8-0.4,2.4c-0.5,2.5-1.7,4.4-3.5,5.7c-1.8,1.2-3.9,1.9-6.6,1.9h-0.1l-4,18.7c-1,4.5-3.1,8-6.2,10.4
			C660.9,92.7,656.8,93.9,651.7,93.9z M666,52.5h-5.9l-5.2-9.7h8.2L666,52.5z"/>
		<path class="st0" d="M708.1,93.1h-8.9L691,67.6l-5.8,25.5h-8.4l8.4-36.6h11.3l6.9,20.9l4.8-20.9h8.4L708.1,93.1z"/>
		<path class="st0" d="M746.5,91c-1.7,0.7-4,1.3-6.7,1.9s-5.3,0.9-7.8,0.9c-5.8,0-10-1.7-12.6-5s-3.3-8-1.9-14.1
			c1.3-5.7,4-10.4,8.3-13.8c4.2-3.5,9.2-5.2,15.2-5.2c3.1,0,5.5,0.3,7.2,0.9c1.8,0.6,3.6,1.4,5.4,2.4l-1.9,8.6h-0.8
			c-0.4-0.3-0.9-0.8-1.6-1.5s-1.3-1.2-2-1.6c-0.8-0.5-1.7-1-2.8-1.4c-1.1-0.4-2.4-0.6-3.7-0.6c-1.6,0-3.1,0.2-4.4,0.7
			c-1.4,0.5-2.8,1.2-4,2.3c-1.1,1-2.2,2.2-3.2,3.7c-0.9,1.5-1.6,3.3-2.1,5.3c-1,4.3-0.6,7.4,1.1,9.5c1.7,2,4.4,3.1,8.1,3.1
			c0.3,0,0.7,0,1.2,0c0.4,0,0.8,0,1.2-0.1l1.7-7.2h-7.1l1.6-6.9h16L746.5,91z"/>
	</g>
	<g>
		<path class="st0" d="M214.4,136.5c-0.5,2.2-1.4,4.3-2.7,6c-1.3,1.8-2.8,3.2-4.6,4.2c-1.4,0.8-2.7,1.3-4,1.6c-1.3,0.3-3,0.4-5,0.4
			h-5.6l2.8-12.1h-2.8l0.5-2.4h2.8l2.3-9.9h5.5c2.3,0,4,0.2,5.2,0.5c1.3,0.3,2.2,0.8,3,1.4c1.3,1,2.3,2.4,2.7,4.2
			C215,132,214.9,134.1,214.4,136.5z M211,136.5c0.4-1.9,0.5-3.5,0.1-4.7s-1-2.4-2-3.1c-0.8-0.5-1.5-0.9-2.5-1.1
			c-0.9-0.2-2.2-0.3-3.5-0.3h-2.5l-1.7,7.1h5.3l-0.5,2.4h-5.3l-2.2,9.3h2.5c1.5,0,2.7-0.1,3.9-0.4c1.1-0.2,2.2-0.7,3.2-1.3
			c1.3-0.8,2.4-1.8,3.2-3.1C210,140,210.6,138.4,211,136.5z"/>
		<path class="st0" d="M237.2,127.1c0.6,1.1,1.1,2.4,1.3,4c0.1,1.6,0,3.4-0.5,5.4c-0.5,2-1.1,3.8-2,5.3c-0.9,1.6-1.9,2.9-3.1,4
			c-1.2,1.1-2.6,2-4,2.5c-1.4,0.5-2.9,0.8-4.6,0.8c-1.7,0-3.1-0.3-4.2-0.8c-1.2-0.5-2.1-1.4-2.8-2.5c-0.7-1.1-1.1-2.4-1.3-4
			c-0.1-1.6,0-3.4,0.5-5.3c0.5-2.1,1.1-3.9,2-5.3c0.9-1.6,1.9-2.9,3.1-4c1.1-1.1,2.5-1.9,4-2.5s3-0.8,4.6-0.8c1.7,0,3.1,0.3,4.3,0.9
			C235.6,125.3,236.5,126.1,237.2,127.1z M234.7,136.5c0.4-1.6,0.6-3.1,0.4-4.3c-0.1-1.2-0.3-2.3-0.7-3.1s-1.1-1.5-1.9-1.9
			c-0.8-0.4-1.7-0.6-2.9-0.6s-2.3,0.2-3.2,0.6c-1,0.4-1.9,1.1-2.8,1.9s-1.6,1.9-2.1,3.1c-0.7,1.3-1.1,2.7-1.5,4.3
			c-0.8,3.2-0.6,5.6,0.3,7.3c0.9,1.7,2.5,2.6,4.8,2.6c2.3,0,4.2-0.9,6-2.6C232.7,142.1,233.9,139.7,234.7,136.5z M224.6,154.8h-3.5
			l0.8-3.2h3.5L224.6,154.8z M236.1,121.3h-2.6l-2.1-4.2l-4,4.2h-2.6l5.2-6.1h3.7L236.1,121.3z"/>
		<path class="st0" d="M248.2,149.1c-1.6,0-3-0.3-4.2-0.8c-1.3-0.5-2.2-1.3-2.9-2.4c-0.7-1.1-1.2-2.4-1.4-4s0-3.4,0.5-5.4
			s1.1-3.8,2-5.3c0.9-1.6,1.9-2.9,3.2-4c1.2-1.1,2.6-1.9,4-2.5c1.4-0.6,3-0.9,4.7-0.9c0.8,0,1.6,0.1,2.3,0.2
			c0.7,0.1,1.3,0.3,1.9,0.5c0.5,0.2,1,0.4,1.5,0.6s1,0.5,1.4,0.8l-0.9,3.9h-0.3c-0.2-0.3-0.6-0.6-0.8-1c-0.4-0.4-0.9-0.7-1.4-1.1
			c-0.6-0.3-1.2-0.6-1.8-0.8c-0.7-0.2-1.5-0.3-2.5-0.3c-1,0-2.1,0.2-3.1,0.6s-1.9,1.1-2.9,1.9c-0.8,0.8-1.7,1.9-2.3,3.1
			c-0.7,1.3-1.2,2.7-1.5,4.3c-0.4,1.7-0.5,3.1-0.4,4.3c0.1,1.2,0.5,2.2,0.9,3.1c0.5,0.8,1.1,1.4,2,1.8c0.9,0.4,1.7,0.6,2.7,0.6
			c0.9,0,1.8-0.1,2.7-0.3c0.8-0.2,1.6-0.5,2.3-0.9c0.7-0.3,1.2-0.7,1.8-1c0.5-0.4,0.9-0.7,1.2-0.9h0.2l-0.9,3.9
			c-0.6,0.3-1.1,0.5-1.7,0.7c-0.5,0.2-1.1,0.5-1.9,0.7c-0.8,0.2-1.4,0.4-2.1,0.5C250,149,249.2,149.1,248.2,149.1z"/>
		<path class="st0" d="M288.1,154.5c-0.6,0.2-1.3,0.3-1.9,0.3s-1.3,0.1-2,0.1c-1.8,0-3.1-0.5-4.1-1.5c-0.9-1-1.2-2.5-0.9-4.4
			c-0.1,0-0.3,0-0.4,0c-0.1,0-0.2,0-0.3,0c-1.7,0-3.1-0.3-4.2-0.8c-1.2-0.6-2.1-1.4-2.8-2.5c-0.7-1.1-1.1-2.4-1.3-4
			c-0.1-1.6,0-3.4,0.5-5.3c0.5-2.1,1.1-3.9,2-5.3c0.9-1.6,1.9-2.9,3.1-4c1.1-1.1,2.5-1.9,4-2.5s3-0.8,4.6-0.8c1.7,0,3.1,0.3,4.3,0.9
			c1.2,0.6,2.1,1.4,2.8,2.5c0.6,1.1,1.1,2.4,1.3,4c0.1,1.6,0,3.4-0.5,5.4c-0.8,3.2-1.9,5.7-3.6,7.8c-1.7,2.1-3.6,3.5-6,4.2
			c-0.1,0.6-0.1,1.2-0.1,1.7c0.1,0.5,0.2,0.9,0.3,1.2c0.2,0.3,0.6,0.6,0.8,0.8c0.4,0.2,1,0.2,1.7,0.2c0.4,0,1-0.1,1.6-0.2
			c0.6-0.1,1.1-0.3,1.4-0.4h0.4L288.1,154.5z M288.7,136.5c0.4-1.6,0.6-3.1,0.4-4.3c-0.1-1.2-0.3-2.3-0.7-3.1
			c-0.5-0.8-1.1-1.5-1.9-1.9c-0.8-0.4-1.7-0.6-2.9-0.6c-1.2,0-2.3,0.2-3.2,0.6c-1,0.4-1.9,1.1-2.8,1.9s-1.6,1.9-2.1,3.1
			c-0.7,1.3-1.1,2.7-1.5,4.3c-0.8,3.2-0.6,5.6,0.3,7.3c0.9,1.7,2.5,2.6,4.8,2.6c2.3,0,4.2-0.9,6-2.6
			C286.8,142.1,288,139.7,288.7,136.5z"/>
		<path class="st0" d="M301.2,149.1c-1.4,0-2.7-0.2-3.6-0.6c-1-0.4-1.7-0.9-2.4-1.7c-0.6-0.9-1-1.9-1.1-3.1c0-1.2,0-2.7,0.4-4.4
			l3.5-15.1h3.3l-3.5,15.1c-0.3,1.1-0.4,2.1-0.4,2.9c0,0.8,0.1,1.5,0.4,2.1c0.3,0.7,0.7,1.2,1.4,1.5c0.7,0.3,1.6,0.5,2.6,0.5
			c1,0,2-0.2,2.8-0.5c0.9-0.3,1.6-0.8,2.2-1.5c0.5-0.6,1-1.3,1.3-2.1c0.3-0.8,0.6-1.7,0.8-2.8l3.5-15.2h3.3l-3.5,15.1
			c-0.4,1.7-0.9,3.2-1.5,4.4s-1.5,2.3-2.5,3.1c-0.9,0.8-1.9,1.3-3.1,1.7C304,149,302.7,149.1,301.2,149.1z"/>
		<path class="st0" d="M337.3,124.3L326,137.9l-2.4,10.8h-3.3l2.4-10.4l-5-13.9h3.6l3.8,10.7l8.8-10.7L337.3,124.3L337.3,124.3z"/>
		<path class="st0" d="M334,148.7l5.5-24.2h15.1l-0.6,2.9h-12l-1.5,6.6h11.2l-0.6,2.9h-11.2l-2.1,9h12l-0.6,2.9H334z M343.4,119.6
			h-2.2l-2.5-4.4h3.7L343.4,119.6z M353.4,121.3h-2.6l-2.1-4.2l-4,4.2h-2.6l5.2-6.1h3.7L353.4,121.3z"/>
		<path class="st0" d="M370.1,148.7h-3.7l-5.9-21l-4.8,21h-3l5.5-24.2h4.6l5.3,19.2l4.4-19.2h3L370.1,148.7z"/>
		<path class="st0" d="M391.2,148.7l4.9-21.4h-8.1l0.6-2.9h19.5l-0.6,2.9h-8.1l-4.9,21.4H391.2z"/>
		<path class="st0" d="M422.6,148.7h-3.3l2.7-11.9h-11.2l-2.7,11.9H405l5.5-24.2h3.3l-2.2,9.5h11.2l2.2-9.5h3.3L422.6,148.7z"/>
		<path class="st0" d="M427.5,148.7l5.5-24.2h15.1l-0.6,2.9h-12l-1.5,6.6h11.2l-0.6,2.9h-11.2l-2.1,9h12l-0.6,2.9H427.5z
			 M446.9,121.8h-2.6l-2.3-3.4l-3.7,3.4h-2.6l4.9-5.3h3.7L446.9,121.8z M452.7,117.6c-0.1,0.7-0.5,1.3-0.9,1.7c-0.4,0.4-1,0.8-1.8,1
			l-0.3,1.1H448l0.5-2c0.5-0.1,1-0.3,1.3-0.5s0.5-0.5,0.6-1c0-0.3,0-0.5-0.2-0.7s-0.4-0.3-0.8-0.3c-0.3,0-0.6,0-0.8,0.1
			c-0.2,0-0.5,0.1-0.7,0.2l0,0l0.4-1.7c0.2-0.1,0.5-0.1,1-0.2c0.4-0.1,0.8-0.1,1.2-0.1c0.9,0,1.6,0.2,1.9,0.7
			C452.8,116.4,452.9,116.9,452.7,117.6z"/>
		<path class="st0" d="M462.4,148.7l4.9-21.4h-8.1l0.6-2.9h19.5l-0.6,2.9h-8.2l-4.9,21.4H462.4z"/>
		<path class="st0" d="M493.8,148.7h-3.3l2.7-11.9H482l-2.7,11.9h-3.3l5.5-24.2h3.3l-2.2,9.5h11.2l2.2-9.5h3.3L493.8,148.7z"/>
		<path class="st0" d="M496.1,148.7l13.7-24.2h4l2.6,24.2h-3.4l-0.6-6.8h-9.3l-3.7,6.8H496.1z M512.2,139.1l-1.2-11.5l-6.3,11.5
			H512.2z"/>
		<path class="st0" d="M540.8,127.1c0.6,1.1,1.1,2.4,1.3,4c0.1,1.6,0,3.4-0.5,5.4c-0.5,2-1.1,3.8-2,5.3c-0.9,1.6-1.9,2.9-3.1,4
			c-1.2,1.1-2.6,2-4,2.5c-1.4,0.5-2.9,0.8-4.6,0.8s-3.1-0.3-4.2-0.8c-1.2-0.5-2.1-1.4-2.8-2.5c-0.7-1.1-1.1-2.4-1.3-4
			c-0.1-1.6,0-3.4,0.5-5.3c0.5-2.1,1.1-3.9,2-5.3c0.9-1.6,1.9-2.9,3.1-4c1.1-1.1,2.5-1.9,4-2.5s3-0.8,4.6-0.8c1.7,0,3.1,0.3,4.3,0.9
			C539.2,125.3,540.2,126.1,540.8,127.1z M538.2,136.5c0.4-1.6,0.6-3.1,0.4-4.3s-0.3-2.3-0.7-3.1c-0.5-0.8-1.1-1.5-1.9-1.9
			s-1.7-0.6-2.9-0.6s-2.3,0.2-3.2,0.6s-1.9,1.1-2.8,1.9c-0.8,0.8-1.6,1.9-2.1,3.1c-0.7,1.3-1.1,2.7-1.5,4.3
			c-0.8,3.2-0.6,5.6,0.3,7.3c0.9,1.7,2.5,2.6,4.8,2.6c2.3,0,4.2-0.9,6-2.6S537.6,139.7,538.2,136.5z"/>
	</g>
</g>
</svg>
