<svg width="160" height="56" viewBox="0 0 160 56" fill="none" xmlns="http://www.w3.org/2000/svg">
<path d="M154.18 27.4037H153.252V24.7601H152.409V23.9925H155.108V24.7601H154.18V27.4037Z" fill="#F79826"/>
<path d="M159.916 27.4032H158.988L159.072 24.7596L158.229 27.4032H157.47L156.626 24.7596L156.711 27.4032H155.783V23.9068H157.217L157.891 26.1241L158.482 23.9068H160V27.4032H159.916Z" fill="#F79826"/>
<path d="M47.1482 38.4042H43.2684V32.6052H38.2077V38.4042H34.3279V23.6509H38.2077V29.1941H43.2684V23.6509H47.1482V38.4042Z" fill="#F79826"/>
<path d="M53.3896 35.8458L52.7148 38.4042H48.6664L53.0522 23.6509H58.9563L63.4265 38.4042H59.4623L58.7033 35.8458H53.3896ZM56.0042 26.6356L54.233 33.0316H57.8598L56.0042 26.6356Z" fill="#F79826"/>
<path d="M64.7759 23.6509H72.7042C74.0537 23.6509 75.0658 23.9067 75.9093 24.4184C76.6684 24.9301 77.0901 25.9534 77.0901 27.4032C77.0901 28.256 77.0057 29.0235 76.7527 29.6204C76.4997 30.2174 75.9093 30.6438 74.8128 30.8143V30.8996C75.8249 30.9849 76.4997 31.326 76.8371 31.8377C77.1744 32.3494 77.3431 33.1169 77.3431 34.0549C77.3431 35.6753 77.0057 36.7839 76.331 37.3808C75.6562 37.9778 74.4754 38.2336 72.7886 38.2336H64.7759V23.6509ZM71.186 29.5351C71.2704 29.5351 71.2704 29.5351 71.3547 29.5351C71.4391 29.5351 71.4391 29.5351 71.5234 29.5351C72.0295 29.5351 72.3668 29.4499 72.7042 29.3646C73.0416 29.2793 73.2103 28.9382 73.2103 28.256C73.2103 27.7443 73.1259 27.4032 72.9573 27.1473C72.7886 26.9768 72.4512 26.8915 71.8608 26.8915H68.6557V29.5351H71.186ZM71.3547 35.1636C71.9451 35.1636 72.4512 35.1636 72.8729 34.993C73.2946 34.9077 73.4633 34.4813 73.4633 33.7138C73.4633 33.0316 73.2946 32.6052 72.9573 32.5199C72.6199 32.4346 72.1982 32.3494 71.6077 32.3494H68.7401V35.1636H71.3547Z" fill="#F79826"/>
<path d="M82.4882 35.8458L81.8135 38.4042H77.765L82.1508 23.6509H88.0549L92.5251 38.4042H88.561L87.8019 35.8458H82.4882ZM85.1029 26.6356L83.3317 33.0316H86.9584L85.1029 26.6356Z" fill="#F79826"/>
<path d="M108.044 38.4042H101.466L97.3327 27.062H97.164L97.3327 38.4042H93.5372V23.6509H100.116L104.249 34.8225H104.418L104.249 23.6509H108.129V38.4042H108.044Z" fill="#F79826"/>
<path d="M113.864 29.5351H120.105V32.2641H113.864V35.1636H120.611V38.4042H109.9V23.6509H120.443V26.8915H113.78V29.5351H113.864Z" fill="#F79826"/>
<path d="M122.467 23.6509H129.805C131.661 23.6509 133.01 23.992 133.769 24.589C134.528 25.1859 134.95 26.5504 134.95 28.5118C134.95 29.6204 134.866 30.4732 134.613 31.1554C134.36 31.8377 133.601 32.3494 132.251 32.6052V32.7758C133.179 32.861 133.854 33.1169 134.275 33.6285C134.697 34.1402 134.95 34.8225 134.95 35.6752V38.3189H130.902V36.3575C130.902 35.7605 130.817 35.3341 130.564 34.993C130.311 34.6519 129.889 34.4813 129.299 34.4813H126.431V38.4042H122.467V23.6509ZM129.468 31.1554C130.142 31.1554 130.648 30.9849 130.733 30.6438C130.902 30.3027 130.986 29.791 130.986 29.194C130.986 28.5118 130.902 27.9148 130.733 27.5737C130.564 27.2326 130.058 27.062 129.215 27.062H126.347V31.1554H129.468Z" fill="#F79826"/>
<path d="M136.552 30.2174C136.552 29.8763 136.552 29.6204 136.552 29.3646C136.552 29.1087 136.552 28.7676 136.637 28.5118C136.637 28.1707 136.721 27.9148 136.721 27.659C136.974 26.0387 137.733 24.9301 138.914 24.4184C140.095 23.9067 141.444 23.6509 142.794 23.6509C142.878 23.6509 142.963 23.6509 143.047 23.6509C143.131 23.6509 143.216 23.6509 143.3 23.6509C145.83 23.6509 147.601 24.0773 148.614 24.9301C149.626 25.7829 150.132 27.5737 150.132 30.2174C150.132 32.9463 149.879 34.993 149.288 36.4428C148.698 37.8925 146.758 38.5747 143.469 38.5747C143.216 38.5747 142.963 38.5747 142.709 38.5747C142.456 38.5747 142.203 38.5747 141.95 38.5747C140.854 38.4895 139.842 38.3189 138.83 37.8925C137.818 37.4661 137.227 36.6986 136.805 35.4194C136.637 34.9077 136.552 34.3961 136.552 33.8844C136.552 33.3727 136.468 32.861 136.468 32.3494V31.2407C136.552 30.8143 136.552 30.5585 136.552 30.2174ZM140.517 31.0702V31.923C140.517 32.9463 140.601 33.7991 140.854 34.3108C141.107 34.8225 141.782 35.1636 142.963 35.1636C144.312 35.1636 145.155 34.9077 145.493 34.4813C145.83 34.0549 145.999 33.2022 145.999 31.923C145.999 31.7524 145.999 31.5818 145.999 31.4113C145.999 31.2407 145.999 31.0702 145.999 30.8996C145.999 30.7291 145.999 30.5585 145.999 30.3879C145.999 30.2174 145.999 30.0468 145.999 29.8763C145.999 28.8529 145.83 28.1707 145.577 27.7443C145.324 27.3179 144.649 27.062 143.553 27.062C142.035 27.062 141.107 27.2326 140.854 27.659C140.685 28.0001 140.601 29.1087 140.517 31.0702C140.517 30.9849 140.517 30.9849 140.517 31.0702Z" fill="#F79826"/>
<path fill-rule="evenodd" clip-rule="evenodd" d="M12.5671 15.7199C12.9888 15.7199 13.3262 15.3788 13.3262 14.9524V12.8204C13.3262 12.394 12.9888 12.0529 12.5671 12.0529C12.1454 12.0529 11.808 12.394 11.808 12.8204V14.9524C11.808 15.3788 12.1454 15.7199 12.5671 15.7199Z" fill="url(#paint0_linear_267_3516)"/>
<path fill-rule="evenodd" clip-rule="evenodd" d="M9.61514 17.6814C10.0369 17.6814 10.3742 17.3403 10.3742 16.9139V14.7819C10.3742 14.3555 10.0369 14.0144 9.61514 14.0144C9.19342 14.0144 8.85605 14.3555 8.85605 14.7819V16.9139C8.94039 17.3403 9.27777 17.6814 9.61514 17.6814Z" fill="url(#paint1_linear_267_3516)"/>
<path fill-rule="evenodd" clip-rule="evenodd" d="M9.61514 12.7351C10.0369 12.7351 10.3742 12.394 10.3742 11.9676C10.3742 11.5412 10.0369 11.2001 9.61514 11.2001C9.19342 11.2001 8.85605 11.5412 8.85605 11.9676C8.94039 12.394 9.27777 12.7351 9.61514 12.7351Z" fill="url(#paint2_linear_267_3516)"/>
<path fill-rule="evenodd" clip-rule="evenodd" d="M15.4348 18.1931C15.8565 18.1931 16.1939 17.8519 16.1939 17.4255C16.1939 16.9992 15.8565 16.658 15.4348 16.658C15.0131 16.658 14.6757 16.9992 14.6757 17.4255C14.7601 17.9372 15.0974 18.1931 15.4348 18.1931Z" fill="url(#paint3_linear_267_3516)"/>
<path fill-rule="evenodd" clip-rule="evenodd" d="M21.2546 23.6509C20.8329 23.6509 20.4955 23.992 20.4955 24.4184V24.7596V24.8448C20.4955 25.2712 20.1581 25.5271 19.7364 25.5271C19.3147 25.5271 18.9773 25.1859 18.9773 24.7596V23.992V22.9687C18.9773 22.5423 18.64 22.2012 18.2182 22.2012C17.7965 22.2012 17.4591 22.5423 17.4591 22.9687C17.4591 23.3951 17.1218 23.7362 16.7001 23.7362C16.2783 23.7362 15.941 23.3951 15.941 22.9687V22.2865V19.8986C15.941 19.4722 15.6036 19.1311 15.1819 19.1311C14.7601 19.1311 14.4228 19.4722 14.4228 19.8986V21.0925C14.4228 21.5189 14.0854 21.8601 13.6637 21.8601C13.242 21.8601 12.9046 21.5189 12.9046 21.0925V20.5809V17.7667C12.9046 17.3403 12.5672 16.9991 12.1455 16.9991C11.7238 16.9991 11.3864 17.3403 11.3864 17.7667V19.7281V20.6662C11.3864 21.0925 11.049 21.4337 10.6273 21.4337C10.2056 21.4337 9.86821 21.0925 9.86821 20.6662V19.7281V19.5575C9.86821 19.1311 9.53084 18.79 9.10912 18.79C8.6874 18.79 8.35002 19.1311 8.35002 19.5575V20.4956V21.7748C8.35002 22.2012 8.01265 22.5423 7.59093 22.5423C7.16921 22.5423 6.83184 22.2012 6.83184 21.7748V21.3484V18.7047C6.83184 18.2783 6.49446 17.9372 6.07275 17.9372C5.65103 17.9372 5.31365 18.2783 5.31365 18.7047V22.2012V23.3951C5.31365 23.8215 4.97628 24.1626 4.55456 24.1626C4.13284 24.1626 3.79547 23.8215 3.79547 23.3951V23.054V22.1159C3.79547 21.6895 3.45809 21.3484 3.03637 21.3484C2.61465 21.3484 2.27728 21.6895 2.27728 22.1159V23.9068V25.6123C2.27728 26.0387 1.9399 26.3799 1.51819 26.3799C1.09647 26.3799 0.759093 26.0387 0.759093 25.6123V24.7596V24.5037C0.759093 24.0773 0.421718 23.7362 0 23.7362C0.506062 23.7362 0.168687 24.0773 0.168687 24.5037V25.6123V38.4042L11.1334 44.8002L22.098 38.4042V30.3027V24.4184C22.0137 23.992 21.6763 23.6509 21.2546 23.6509ZM16.2783 36.187H12.8202V33.5433H9.36215V36.187H5.90406V27.9149H9.36215V30.7291H12.8202V27.9149H16.2783V36.187Z" fill="url(#paint4_linear_267_3516)"/>
<defs>
<linearGradient id="paint0_linear_267_3516" x1="0.498667" y1="13.9103" x2="22.0827" y2="13.9103" gradientUnits="userSpaceOnUse">
<stop stop-color="#ED334D"/>
<stop offset="1" stop-color="#F79826"/>
</linearGradient>
<linearGradient id="paint1_linear_267_3516" x1="1.28241" y1="15.8651" x2="22.6776" y2="15.8651" gradientUnits="userSpaceOnUse">
<stop stop-color="#ED334D"/>
<stop offset="1" stop-color="#F79826"/>
</linearGradient>
<linearGradient id="paint2_linear_267_3516" x1="0.797772" y1="12.0141" x2="22.281" y2="12.0141" gradientUnits="userSpaceOnUse">
<stop stop-color="#ED334D"/>
<stop offset="1" stop-color="#F79826"/>
</linearGradient>
<linearGradient id="paint3_linear_267_3516" x1="0.683978" y1="17.5014" x2="21.9725" y2="17.5014" gradientUnits="userSpaceOnUse">
<stop stop-color="#ED334D"/>
<stop offset="1" stop-color="#F79826"/>
</linearGradient>
<linearGradient id="paint4_linear_267_3516" x1="0.168687" y1="30.8869" x2="22.0205" y2="30.8869" gradientUnits="userSpaceOnUse">
<stop stop-color="#ED334D"/>
<stop offset="1" stop-color="#F79826"/>
</linearGradient>
</defs>
</svg>
