<svg width="162" height="56" viewBox="0 0 162 56" fill="none" xmlns="http://www.w3.org/2000/svg">
<path d="M61.5204 30.0188L46.5185 29.4608C47.0744 30.6574 47.7724 31.7246 48.6316 32.6496C50.8042 34.9834 53.4795 36.1524 56.6598 36.1524C58.0113 36.1524 59.5388 35.8087 61.2446 35.1213L61.5204 30.0188ZM22.9283 28.5846L21.231 35.6538H29.1679L29.7938 32.0428H34.9684L35.5391 35.6538H43.4761L42.131 29.2974L22.9283 28.5846ZM30.7973 6.51555L25.663 27.8993L44.8658 28.6122L40.1897 6.51555H30.7973ZM33.5597 25.2579L34.332 20.7983L34.8666 17.3528C34.8793 17.2912 34.9027 17.113 34.9409 16.8181C34.9769 16.5232 35.0384 15.9949 35.1254 15.2333C35.1742 14.8535 35.2209 14.5034 35.2633 14.1831C35.3058 13.8627 35.3397 13.5742 35.3652 13.3174L35.6049 16.0077C35.6664 16.5593 35.7152 17.0175 35.7534 17.3803C35.7895 17.7431 35.8213 18.0274 35.8447 18.2375C36.078 20.1045 36.2075 21.1738 36.2308 21.4432C36.2669 21.7636 36.2923 21.9291 36.305 21.9418L36.8015 25.26H33.5597V25.2579ZM64.2552 29.3356L64.4228 26.2169C63.0841 27.4453 61.7538 28.0605 60.4278 28.0605C59.6534 28.0605 58.966 27.8951 58.3656 27.562C57.7652 27.231 57.2581 26.7515 56.8465 26.1235C56.4349 25.4976 56.1188 24.7296 55.8982 23.8194C55.6775 22.9093 55.5672 21.8782 55.5672 20.724C55.5672 18.3414 56.0085 16.4744 56.8932 15.1229C57.7779 13.7842 59.0042 13.1138 60.5763 13.1138C61.7793 13.1138 62.9525 13.6845 64.0939 14.828V6.70013C62.8019 6.23338 61.5374 6 60.2963 6C56.4774 6 53.4286 7.35147 51.1457 10.0544C48.8629 12.7701 47.7215 16.3704 47.7215 20.8534C47.7215 23.951 48.237 26.5881 49.2533 28.7776L64.2552 29.3356ZM91.9168 19.5911C92.2838 20.2488 92.7633 20.8874 93.3531 21.5069C93.9429 22.1285 94.6558 22.7501 95.4896 23.3781L96.7413 24.3541C97.6494 25.0797 98.1034 25.8222 98.1034 26.5839C98.1034 27.1122 97.8955 27.5514 97.4775 27.9014C97.0596 28.2515 96.5207 28.4276 95.8566 28.4276C94.102 28.4276 92.4684 27.3965 90.9578 25.3321V30.3285L104.608 30.8356C105.395 29.3865 105.801 27.7147 105.801 25.8116C105.801 24.1653 105.444 22.7289 104.733 21.5005C104.033 20.2721 102.873 19.0734 101.254 17.9065L100.038 17.0048C98.9945 16.2559 98.4726 15.5006 98.4726 14.7368C98.4726 14.2701 98.6699 13.8712 99.0624 13.5381C99.4421 13.1944 99.928 13.0225 100.518 13.0225C101.29 13.0225 102.077 13.3026 102.875 13.8606C103.673 14.4207 104.386 15.1845 105.011 16.1562V7.45755C103.155 6.48585 101.313 6 99.4846 6C97.4351 6 95.6848 6.61527 94.2357 7.84368C93.7074 8.27437 93.2407 8.76871 92.8354 9.32669C92.4302 9.8868 92.0738 10.5021 91.7683 11.1789C91.153 12.6279 90.8475 14.0176 90.8475 15.3436C90.8475 16.118 90.9324 16.8542 91.1042 17.5543C91.2761 18.2566 91.5476 18.9334 91.9168 19.5911ZM7.67812 28.0181L0 27.7317V35.6538H7.67812V28.0181ZM10.4129 23.5245H14.0769V27.4686L21.755 27.755V6.51555H14.0769V16.5784H10.4129V6.51555H2.73476V27.0485L10.4129 27.3349V23.5245ZM11.3421 35.6538H19.0203V28.4382L11.3421 28.1518V35.6538V35.6538ZM80.0739 6.51555L75.5443 18.7148L75.7458 6.51555H68.0677V29.4757L75.6652 29.7578L75.5443 21.8485L78.6631 29.8703L86.687 30.1694L82.0449 20.2466L88.1785 6.51767H80.0739V6.51555ZM113.644 6.51555L107.778 30.9523L128.37 31.7182L123.034 6.51555H113.644ZM116.407 25.2579L117.181 20.7983L117.716 17.3528C117.728 17.2912 117.752 17.113 117.79 16.8181C117.826 16.5232 117.887 15.9949 117.974 15.2333C118.023 14.8535 118.07 14.5034 118.112 14.1831C118.155 13.8627 118.189 13.5742 118.212 13.3174L118.452 16.0077C118.513 16.5593 118.562 17.0175 118.6 17.3803C118.636 17.7431 118.668 18.0274 118.692 18.2375C118.925 20.1045 119.054 21.1738 119.078 21.4432C119.114 21.7636 119.139 21.9291 119.152 21.9418L119.648 25.26H116.407V25.2579ZM132.898 35.6538H140.374L140.754 32.9636L132.23 32.6475L132.898 35.6538ZM65.3351 30.1609V35.6538H73.0132L72.9326 30.4431L65.3351 30.1609ZM153.936 6.51555L152.536 15.3436C152.338 16.572 152.16 17.9426 152.001 19.4532C151.842 20.9637 151.693 22.6971 151.56 24.649C151.106 20.2997 150.571 16.5338 149.958 13.3514L148.67 6.51555H142.059L140.623 14.6413C140.217 16.9878 139.886 19.4638 139.628 22.0691L139.388 24.2989L139.131 21.6999C138.947 19.9199 138.616 17.4673 138.136 14.3464L136.884 6.51555H129.297L134.962 31.9622L143.487 32.2783L144.562 24.649C144.686 23.7897 144.79 22.9729 144.876 22.1985C144.961 21.4241 145.036 20.6879 145.097 19.9878C145.22 18.6109 145.311 17.671 145.373 17.1682C145.396 17.4143 145.439 17.7707 145.502 18.2375C145.564 18.7042 145.638 19.2877 145.723 19.9878C145.895 21.4008 146.152 23.0705 146.495 24.9991L147.815 32.4396L156.117 32.7472L161.429 6.51555H153.936ZM153.382 33.4325L145.082 33.1248L145.53 35.6538H152.932L153.382 33.4325ZM117.826 32.1107L118.386 35.6538H126.323L125.636 32.4014L117.826 32.1107ZM88.2231 34.9537C90.2853 35.7514 92.2181 36.1524 94.0235 36.1524C96.6374 36.1524 98.7993 35.2422 100.505 33.424C101.052 32.8405 101.502 32.2019 101.874 31.5188L88.2231 31.0117V34.9537V34.9537ZM75.9283 30.5534L77.9099 35.6538H86.1969L83.9501 30.8526L75.9283 30.5534ZM104.078 35.6538H112.015L112.641 32.0428L105.043 31.6376L104.078 35.6538ZM7.56992 47.0575H9.63849C9.59606 47.3396 9.51331 47.5815 9.3945 47.7767C9.27357 47.974 9.12294 48.1352 8.93836 48.2583C8.75378 48.3835 8.54586 48.4726 8.3146 48.5277C8.08335 48.5829 7.8436 48.6105 7.59538 48.6105C7.1753 48.6105 6.80614 48.5405 6.49002 48.3983C6.1739 48.2562 5.90657 48.0568 5.69441 47.8C5.48013 47.5433 5.31888 47.2399 5.2128 46.8877C5.1046 46.5356 5.05156 46.1558 5.05156 45.7442C5.05156 45.2902 5.11309 44.8786 5.23826 44.5094C5.36344 44.1424 5.53317 43.8263 5.75169 43.5632C5.97022 43.3022 6.2333 43.1007 6.54306 42.9585C6.85069 42.8185 7.19439 42.7463 7.56992 42.7463C8.02394 42.7463 8.42917 42.8609 8.78348 43.0943C9.13991 43.3256 9.42845 43.7074 9.65122 44.2378L12.0423 43.2471C11.5967 42.3284 10.9921 41.6516 10.2304 41.2145C9.46876 40.7775 8.58193 40.559 7.56992 40.559C6.79128 40.559 6.08267 40.6841 5.4483 40.9324C4.81394 41.1806 4.27293 41.5285 3.82315 41.9741C3.37337 42.4196 3.02754 42.9585 2.78144 43.5886C2.53745 44.2188 2.4144 44.9104 2.4144 45.6657C2.4144 46.4295 2.53957 47.1254 2.7878 47.7555C3.03603 48.3856 3.38397 48.9266 3.82951 49.3764C4.27505 49.8262 4.80758 50.1762 5.42921 50.4245C6.05084 50.6727 6.73824 50.7979 7.49142 50.7979C8.03879 50.7979 8.56283 50.73 9.05929 50.5921C9.55575 50.4542 10.0119 50.2569 10.4277 49.9938C10.8436 49.7328 11.2042 49.4061 11.514 49.0157C11.8216 48.6253 12.0656 48.1777 12.246 47.6727C12.3754 47.3121 12.4602 46.9217 12.5027 46.5016C12.5451 46.0815 12.5663 45.6148 12.5663 45.0992H7.56992V47.0575ZM35.0724 40.8327L31.385 50.5306H34.071L34.6502 48.846H38.2484L38.8276 50.5306H41.5136L37.8241 40.8327H35.0724ZM35.3164 46.9281L36.4472 43.699L37.578 46.9281H35.3164ZM68.6915 40.8327L66.7629 46.003L64.8217 40.8327H62.3288L60.6845 50.5306H63.1901L64.0261 44.9486L66.1986 50.5306H67.2021L69.4892 44.9486L70.3251 50.5306H72.8307L71.1865 40.8327H68.6915ZM92.9309 50.5284H95.4493V40.8305H92.9309V50.5284ZM123.155 46.7604L118.503 40.8305H115.984V50.5284H118.503V44.5985L123.155 50.5284H125.661V40.8305H123.155V46.7604ZM151.097 47.0575H153.166C153.123 47.3396 153.04 47.5815 152.922 47.7767C152.801 47.974 152.65 48.1352 152.466 48.2583C152.281 48.3835 152.073 48.4726 151.842 48.5277C151.61 48.5829 151.371 48.6105 151.123 48.6105C150.702 48.6105 150.333 48.5405 150.017 48.3983C149.701 48.2562 149.434 48.0568 149.219 47.8C149.005 47.5433 148.844 47.2399 148.738 46.8877C148.63 46.5356 148.577 46.1558 148.577 45.7442C148.577 45.2902 148.638 44.8786 148.763 44.5094C148.886 44.1424 149.058 43.8263 149.277 43.5632C149.495 43.3022 149.758 43.1007 150.068 42.9585C150.376 42.8185 150.719 42.7463 151.097 42.7463C151.551 42.7463 151.956 42.8609 152.311 43.0943C152.667 43.3256 152.956 43.7074 153.178 44.2378L155.569 43.2471C155.124 42.3284 154.519 41.6516 153.758 41.2145C152.996 40.7775 152.109 40.559 151.097 40.559C150.316 40.559 149.61 40.6841 148.975 40.9324C148.341 41.1806 147.8 41.5285 147.35 41.9741C146.901 42.4196 146.553 42.9585 146.309 43.5886C146.065 44.2188 145.942 44.9104 145.942 45.6657C145.942 46.4295 146.067 47.1254 146.315 47.7555C146.563 48.3856 146.911 48.9266 147.355 49.3764C147.8 49.8262 148.335 50.1762 148.954 50.4245C149.576 50.6727 150.263 50.7979 151.016 50.7979C151.564 50.7979 152.088 50.73 152.584 50.5921C153.081 50.4542 153.537 50.2569 153.953 49.9938C154.369 49.7328 154.731 49.4061 155.039 49.0157C155.347 48.6253 155.593 48.1777 155.771 47.6727C155.9 47.3121 155.985 46.9217 156.028 46.5016C156.07 46.0815 156.091 45.6148 156.091 45.0992H151.093V47.0575H151.097Z" fill="#2AACE3"/>
</svg>
