<svg width="32" height="32" viewBox="0 0 32 32" fill="none" xmlns="http://www.w3.org/2000/svg">
<path d="M17.6949 9.15002C25.3673 6.86251 31.24 12.5813 31.7136 21.2547C32.9449 13.5344 30.0086 7.5297 26.6934 4.67031C25.0831 4.47969 23.1887 4.47969 21.5785 4.28906C20.6313 5.3375 18.6422 8.10158 17.6949 9.15002Z" fill="#A31E22"/>
<path d="M30.9557 11.1516C27.451 4.1938 21.1047 7.33913 17.7895 9.43601C10.6855 14.1063 6.99139 3.81255 15.4215 1.14379C20.347 -0.285898 29.156 4.09849 30.9557 11.1516Z" fill="#EC1C24"/>
<path d="M20.9155 21.1595C19.2105 28.8798 11.3487 31.358 3.39221 27.4501C9.73848 32.2158 16.3689 32.597 20.5366 31.072C21.4838 29.7376 22.431 28.1173 23.3782 26.7829C22.9046 25.5439 21.3891 22.3986 20.9155 21.1595Z" fill="#659941"/>
<path d="M12.6746 31.6439C20.5364 32.0251 20.8205 24.8766 20.5364 21.0641C19.8733 12.6766 30.6715 14.3922 28.9665 22.9704C28.0193 28.022 19.7786 33.4548 12.6746 31.6439Z" fill="#A6CE38"/>
<path d="M8.60164 18.1094C2.91841 12.5813 5.00226 4.67033 12.4852 0C5.09698 2.76407 1.21345 8.10159 0.360962 12.486C1.02401 13.9157 1.87649 15.6313 2.53953 17.1563C3.7709 17.3469 7.27556 17.8235 8.60164 18.1094Z" fill="#116D98"/>
<path d="M4.05512 5.62341C-0.396743 12.0094 5.47593 16.1078 8.98058 17.8235C16.5582 21.7313 9.26474 29.9282 2.91847 23.9235C-0.965066 20.3969 -1.34395 10.5797 4.05512 5.62341Z" fill="#28ABE2"/>
</svg>
