<svg width="32" height="32" viewBox="0 0 32 32" fill="none" xmlns="http://www.w3.org/2000/svg">
<g clip-path="url(#clip0_64_5908)">
<path fill-rule="evenodd" clip-rule="evenodd" d="M4.76979 7.23895L1.45419 3.87895L3.30831 2L29.0843 28.1284L27.2302 30L22.9912 25.6969L22.3731 25.0705C20.4026 25.8737 18.2504 26.3158 15.9964 26.3158C8.72527 26.3158 2.51581 21.7326 0 15.2632C1.13429 12.338 3.03203 9.81056 5.43148 7.9095L4.76979 7.23895ZM11.7428 14.2979L9.49603 12.0211C9.01614 13.0084 8.72527 14.099 8.72527 15.2632C8.72527 19.3305 11.9827 22.6316 15.9964 22.6316C17.1452 22.6316 18.2213 22.3369 19.1884 21.8505L16.9416 19.5737C16.6362 19.64 16.3236 19.6842 15.9964 19.6842C13.5896 19.6842 11.6337 17.7021 11.6337 15.2632C11.6337 14.9316 11.6773 14.6148 11.7428 14.2979ZM15.9964 7.89483C20.01 7.89483 23.2674 11.1959 23.2674 15.2633C23.2674 16.2138 23.0784 17.1201 22.7512 17.9527L27.0048 22.2633C29.2006 20.4064 30.9312 18.0043 32 15.2633C29.477 8.79383 23.2747 4.21064 15.9964 4.21064C13.9605 4.21064 12.0119 4.57904 10.2014 5.2422L13.3425 8.41797C14.1641 8.09378 15.0584 7.89483 15.9964 7.89483ZM15.7564 10.8641L20.3372 15.5063L20.359 15.2631C20.359 12.8241 18.4031 10.842 15.9964 10.842L15.7564 10.8641Z" fill="#222939"/>
</g>
<defs>
<clipPath id="clip0_64_5908">
<rect width="32" height="32" fill="white"/>
</clipPath>
</defs>
</svg>
