<?xml version="1.0" encoding="UTF-8"?><svg id="Layer_1" xmlns="http://www.w3.org/2000/svg" viewBox="0 0 20 20"><defs><style>.cls-1{fill:#1b1819;}</style></defs><circle class="cls-1" cx="3.52" cy="3.93" r="2.5"/><path class="cls-1" d="m18.98,3.93c0,1.38-1.11,2.5-2.5,2.5s-2.5-1.11-2.5-2.5,1.11-2.5,2.5-2.5,2.5,1.11,2.5,2.5Z"/><circle class="cls-1" cx="3.52" cy="16.07" r="2.5"/><path class="cls-1" d="m18.98,16.07c0,1.38-1.11,2.5-2.5,2.5s-2.5-1.11-2.5-2.5,1.11-2.5,2.5-2.5,2.5,1.11,2.5,2.5Z"/><path class="cls-1" d="m12.49,9.99c0,1.38-1.11,2.5-2.5,2.5s-2.5-1.11-2.5-2.5,1.11-2.5,2.5-2.5,2.5,1.11,2.5,2.5Z"/></svg>