<svg width="108" height="24" viewBox="0 0 108 24" fill="none" xmlns="http://www.w3.org/2000/svg">
<g clip-path="url(#clip0_5631_3455)">
<path d="M51.2192 15.6996V5.42578H54.0366V15.9438H59.0138V18.5733H52.8533L51.7451 17.2022C51.3695 16.7139 51.2192 16.2631 51.2192 15.6996Z" fill="white"/>
<path d="M60.5351 16.4321L63.5778 5.42578H66.8083C67.4093 5.42578 67.785 5.70748 67.954 6.30852L70.7526 16.4321C70.884 16.8829 70.9028 17.1834 70.9028 17.7657V18.5733H68.4048L67.4093 14.5727L63.3712 16.6387L62.8828 18.5733H60.3848V17.7657C60.3848 17.1834 60.4036 16.8829 60.5351 16.4321ZM67.2779 14.0656L65.7941 8.05528H65.4935L64.0098 14.0656H67.2779Z" fill="white"/>
<path d="M72.1802 15.6996V5.42578H74.9975V15.9438H79.9748V18.5733H73.8142L72.7061 17.2022C72.3305 16.7139 72.1802 16.2631 72.1802 15.6996Z" fill="white"/>
<path d="M81.5713 5.42578H84.3887V18.5733H81.5713L81.5713 5.42578Z" fill="white"/>
<path d="M86.3042 14.3994V9.59922C86.3042 6.80067 87.8256 5.2793 90.6241 5.2793H91.8574C94.6184 5.2793 96.1773 6.68794 96.1773 9.186H93.36V8.66009C93.36 8.17176 93.097 7.90879 92.6087 7.90879H89.8728C89.3845 7.90879 89.1215 8.17176 89.1215 8.66009V15.3385C89.1215 15.8268 89.3845 16.0898 89.8728 16.0898H92.6087C93.097 16.0898 93.36 15.8268 93.36 15.3385V13.6857H91.4066V11.0562H94.5433L95.6514 12.4273C96.027 12.8968 96.1773 13.3288 96.1773 13.9299V14.3994C96.1773 17.198 94.6559 18.7193 91.8574 18.7193H90.6241C87.8255 18.7193 86.3042 17.198 86.3042 14.3994Z" fill="white"/>
<path d="M97.1766 16.4321L100.219 5.42578H103.45C104.051 5.42578 104.427 5.70748 104.596 6.30852L107.394 16.4321C107.526 16.8829 107.544 17.1834 107.544 17.7657V18.5733H105.046L104.051 14.5727L100.013 16.6387L99.5244 18.5733H97.0264V17.7657C97.0264 17.1834 97.0451 16.8829 97.1766 16.4321ZM103.919 14.0656L102.436 8.05528H102.135L100.651 14.0656H103.919Z" fill="white"/>
<path d="M43.827 0H43.251V24H43.827V0Z" fill="white"/>
<path d="M24.0968 8.46448C25.8661 8.20079 26.2534 7.28311 26.2534 5.71143V4.05538C26.2534 2.31495 24.8611 1.43945 22.0659 1.43945C19.2708 1.43945 17.8784 2.31495 17.8784 4.05538V6.00677C17.8784 7.37803 18.182 8.09531 19.7942 8.36956C18.182 8.7282 17.8784 9.73024 17.8784 11.1964V13.3377C17.8784 15.0992 19.2708 15.9747 22.0659 15.9747C24.8611 15.9747 26.2534 15.0992 26.2534 13.3377V11.2175C26.2534 9.60368 25.8661 8.68601 24.0968 8.46448ZM22.0449 7.5468C21.4274 7.5468 21.1237 7.25145 21.1237 6.67132V3.88663C21.1237 3.31702 21.4274 3.04277 22.0449 3.04277C22.673 3.04277 22.9872 3.32756 22.9872 3.88663V6.67132C22.9872 7.25145 22.673 7.5468 22.0449 7.5468ZM22.0449 14.287C21.4274 14.287 21.1237 13.9917 21.1237 13.4116V10.2577C21.1237 9.65642 21.4274 9.36109 22.0449 9.36109C22.673 9.36109 22.9872 9.65642 22.9872 10.2577V13.4116C22.9872 13.9917 22.673 14.287 22.0449 14.287Z" fill="white"/>
<path d="M33.7005 8.46448C35.471 8.20079 35.8588 7.28311 35.8588 5.71143V4.05538C35.8588 2.31495 34.4652 1.43945 31.6678 1.43945C28.8704 1.43945 27.4771 2.31495 27.4771 4.05538V6.00677C27.4771 7.37803 27.7808 8.09531 29.3944 8.36956C27.7808 8.7282 27.4771 9.73024 27.4771 11.1964V13.3377C27.4771 15.0992 28.8704 15.9747 31.6678 15.9747C34.4652 15.9747 35.8588 15.0992 35.8588 13.3377V11.2175C35.8588 9.60368 35.471 8.68601 33.7005 8.46448ZM31.647 7.5468C31.0287 7.5468 30.725 7.25145 30.725 6.67132V3.88663C30.725 3.31702 31.0287 3.04277 31.647 3.04277C32.2755 3.04277 32.5899 3.32756 32.5899 3.88663V6.67132C32.6003 7.25145 32.2861 7.5468 31.647 7.5468ZM31.647 14.287C31.0287 14.287 30.725 13.9917 30.725 13.4116V10.2577C30.725 9.65642 31.0287 9.36109 31.647 9.36109C32.2755 9.36109 32.5899 9.65642 32.5899 10.2577V13.4116C32.6003 13.9917 32.2861 14.287 31.647 14.287Z" fill="white"/>
<path d="M6.48868 22.4436V22.1729C5.8876 22.1109 5.84907 22.0569 5.83365 21.3452L5.7643 18.4525C5.74888 17.8105 5.77972 17.7486 6.39621 17.6867V17.416H4.84725L3.33683 20.8038L1.84952 17.416H0.254323V17.6867C0.91705 17.7486 0.971002 17.8569 0.90935 18.7387L0.786048 20.2624C0.732096 21.0745 0.670464 21.4767 0.624211 21.7243C0.577978 21.9949 0.431558 22.1341 0 22.1729V22.4436H1.84952V22.1729C1.34091 22.1264 1.18679 22.0569 1.15596 21.7088C1.12514 21.469 1.12514 21.1055 1.15596 20.4635L1.24842 18.4447H1.27924L2.85132 22.3894H3.0671L4.77018 18.3674H4.80872L4.82413 21.3452C4.83183 22.0569 4.7856 22.1109 4.20764 22.1729V22.4436H6.48868Z" fill="white"/>
<path d="M11.9963 22.4444V22.1737C11.5108 22.1117 11.4106 22.0112 11.1486 21.3306C10.6477 20.0002 10.1699 18.6544 9.67672 17.3008L9.28369 17.4013L7.70392 21.377C7.44959 22.0267 7.35713 22.1117 6.84852 22.1737L6.84082 22.4444H8.56703V22.1737C8.00446 22.1039 7.98906 21.9957 8.09696 21.6245C8.18943 21.3151 8.28961 21.0367 8.37438 20.7969H9.85399C9.96958 21.114 10.0852 21.4388 10.1622 21.6709C10.2855 22.0112 10.247 22.1039 9.79234 22.1737V22.4444H11.9963ZM9.70753 20.3869H8.50534C8.70572 19.8378 8.89837 19.2809 9.11416 18.7162H9.13727L9.70753 20.3869Z" fill="white"/>
<path d="M17.7226 17.416H15.8423V17.6868C16.4048 17.7177 16.5667 17.8492 16.6052 18.1818C16.6206 18.4061 16.6669 18.7696 16.6669 19.4503V20.8116H16.636L13.6923 17.416H12.2666V17.6867C12.5903 17.7177 12.7675 17.7795 12.9062 17.9652C13.0526 18.1431 13.068 18.29 13.068 18.7928V20.4094C13.068 21.09 13.0218 21.4304 12.991 21.6856C12.9601 22.0182 12.7829 22.1419 12.3514 22.1729V22.4436H14.2394V22.1729C13.6691 22.1497 13.5381 22.0027 13.4996 21.6624C13.4765 21.4304 13.4379 21.09 13.4379 20.4094V18.669H13.461L16.6668 22.5209H17.0367V19.4502C17.0367 18.7696 17.083 18.4061 17.1061 18.1663C17.1446 17.8105 17.3064 17.7099 17.7226 17.6867L17.7226 17.416Z" fill="white"/>
<path d="M21.2535 18.6157C21.1918 18.1361 21.1379 17.7958 21.107 17.5096C20.9683 17.4555 20.529 17.3008 20.0359 17.3008C18.9416 17.3008 18.2711 17.966 18.2711 18.8168C18.2711 19.5593 18.8183 19.977 19.612 20.3792C20.19 20.6886 20.529 20.9748 20.529 21.4311C20.529 21.9185 20.2285 22.2432 19.7584 22.2432C19.0187 22.2432 18.564 21.377 18.4099 20.882L18.1401 20.9671C18.1941 21.4389 18.2943 22.0887 18.3636 22.282C18.4715 22.3284 18.6179 22.3902 18.8337 22.4522C19.0649 22.5217 19.3346 22.5604 19.612 22.5604C20.7371 22.5604 21.4847 21.872 21.4847 20.9903C21.4847 20.2246 20.9298 19.7914 20.1207 19.3969C19.4425 19.0566 19.1651 18.8091 19.1651 18.3837C19.1651 17.9428 19.481 17.618 19.9126 17.618C20.5445 17.618 20.8297 18.1903 20.9914 18.6776L21.2535 18.6157Z" fill="white"/>
<path d="M24.2451 22.4436V22.1729C23.6747 22.1187 23.6054 22.0646 23.6054 21.4149V18.4525C23.6054 17.795 23.6747 17.7409 24.2451 17.6867V17.416H21.9331V17.6867C22.5035 17.7409 22.5728 17.795 22.5728 18.4525V21.4149C22.5728 22.0646 22.5035 22.1187 21.9331 22.1729V22.4436H24.2451Z" fill="white"/>
<path d="M27.5061 17.3008C25.7413 17.3008 24.8013 18.608 24.8013 19.9383C24.8013 21.4234 25.8724 22.5604 27.4135 22.5604C28.8624 22.5604 30.0568 21.5472 30.0568 19.8765C30.0568 18.345 28.9087 17.3008 27.5061 17.3008ZM27.3673 17.6256C28.2537 17.6256 28.8779 18.5538 28.8779 20.093C28.8779 21.5162 28.2845 22.2354 27.5524 22.2354C26.5659 22.2354 25.9802 21.114 25.9802 19.7914C25.9802 18.4532 26.5891 17.6256 27.3673 17.6256Z" fill="white"/>
<path d="M35.8592 17.416H33.9788V17.6868C34.5415 17.7177 34.7034 17.8492 34.7419 18.1818C34.7571 18.4061 34.8034 18.7696 34.8034 19.4503V20.8116H34.7727L31.8289 17.416H30.4033V17.6867C30.7268 17.7177 30.9042 17.7795 31.0428 17.9652C31.1892 18.1431 31.2047 18.29 31.2047 18.7928V20.4094C31.2047 21.09 31.1584 21.4304 31.1276 21.6856C31.0969 22.0182 30.9195 22.1419 30.4879 22.1729V22.4436H32.3761V22.1729C31.8057 22.1497 31.6748 22.0027 31.6363 21.6624C31.613 21.4304 31.5745 21.09 31.5745 20.4094V18.669H31.5977L34.8034 22.5209H35.1734V19.4502C35.1734 18.7696 35.2195 18.4061 35.2428 18.1663C35.2813 17.8105 35.4431 17.7099 35.8592 17.6867V17.416Z" fill="white"/>
<path d="M0.224629 1.64893C0.224629 1.53323 0.318344 1.43945 0.433947 1.43945H16.4465C16.5621 1.43945 16.6558 1.53325 16.6558 1.64893V15.8672C16.6558 15.9829 16.5621 16.0767 16.4465 16.0767H0.433928C0.318325 16.0767 0.224609 15.9829 0.224609 15.8672L0.224629 1.64893Z" fill="#D3B271"/>
<path d="M1.03613 2.4624C1.03613 2.3467 1.12985 2.25293 1.24545 2.25293H15.6352C15.7508 2.25293 15.8445 2.34672 15.8445 2.4624V15.0543C15.8445 15.17 15.7508 15.2638 15.6352 15.2638H1.24545C1.12985 15.2638 1.03613 15.17 1.03613 15.0543V2.4624Z" fill="#BE181B"/>
<path fill-rule="evenodd" clip-rule="evenodd" d="M6.57258 8.70142V13.3119C6.57258 13.4124 6.54657 13.4756 6.45702 13.4756C6.36747 13.4756 6.3299 13.4124 6.3299 13.3119V12.7033H6.10165C5.93756 12.7033 5.40897 13.1099 5.07295 13.3684C4.96526 13.4513 4.87728 13.5189 4.82748 13.5531C4.45765 13.3378 3.99827 13.1224 3.65443 13.0076C3.59284 13.0651 3.53639 13.1172 3.48524 13.1644C3.37809 13.2633 3.29415 13.3407 3.23551 13.4009C3.2136 13.4227 3.19481 13.4422 3.17837 13.4593C3.12757 13.5121 3.09919 13.5416 3.07081 13.5416C3.00724 13.5416 2.92925 13.4669 2.92925 13.4009C2.92925 13.3378 3.07081 13.1856 3.7209 12.5224C4.16585 12.066 4.34498 11.5205 4.34498 10.6823C4.34498 9.29854 3.7469 8.11578 3.05925 8.11578C2.831 8.11578 2.71544 8.20477 2.67788 8.43444C2.66633 8.54928 2.61431 8.58658 2.5623 8.58658C2.46119 8.58658 2.40918 8.42008 2.40918 8.14162C2.40918 7.50718 2.85412 6.99905 3.40309 6.99905C3.65806 6.99905 3.83088 7.11097 3.98026 7.2077C4.10677 7.28962 4.21646 7.36066 4.34498 7.34356V6.41627C4.34498 6.17512 4.25541 5.97131 4.07628 5.81917C3.92316 5.69284 3.13438 5.15889 2.83968 5.15889C2.78327 5.15889 2.74215 5.17048 2.70578 5.18075C2.67696 5.18889 2.6511 5.19619 2.62299 5.19619C2.58542 5.19619 2.57098 5.18471 2.57098 5.15889C2.57098 5.12578 2.59143 5.10171 2.64847 5.0346C2.65575 5.02604 2.6636 5.01679 2.6721 5.00671L3.67757 4.01629C3.68681 4.00967 3.69512 4.00341 3.70286 3.99759C3.7387 3.9706 3.76192 3.95312 3.80471 3.95312C4.00791 3.95312 4.57135 4.33515 5.03226 4.64765C5.35127 4.86392 5.62113 5.04691 5.68852 5.04691C5.81048 5.04691 6.17205 4.8221 6.56345 4.57876C7.02509 4.29174 7.52817 3.97895 7.72833 3.97895C7.82331 3.97895 7.92083 4.05746 8.57388 4.58313L8.57706 4.58571C8.61836 4.61896 8.66189 4.654 8.70778 4.69092C8.73932 4.71586 8.7787 4.74873 8.82359 4.78625C8.95964 4.8999 9.14654 5.05597 9.3203 5.16173C9.52545 5.28806 9.53701 5.31389 9.53701 5.55504C9.66413 5.52921 9.80569 5.42872 10.606 4.77992C10.8343 4.59045 11.5103 4.04212 11.5624 4.04212C11.6259 4.04212 12.1864 4.27179 13.0156 4.61341C13.2583 4.71387 13.2959 4.73973 13.2959 4.89187V11.4602C13.2959 11.6756 13.3219 11.7531 13.4115 11.8277C13.7929 12.1579 14.024 12.2842 14.1511 12.2842C14.1887 12.2842 14.2407 12.2698 14.2782 12.2325C14.3418 12.1435 14.3562 12.132 14.3938 12.132C14.4314 12.132 14.4718 12.1837 14.4718 12.2325C14.4718 12.31 13.8997 13.0191 13.3132 13.4784C12.9578 13.3521 12.3453 12.933 12.0015 12.577C11.8859 12.4507 11.8628 12.4248 11.8628 12.2095V7.50718C11.8628 6.96171 12.0391 6.59138 12.6776 5.74162C13.0098 5.31101 13.033 5.18183 12.9694 5.18183C12.9384 5.18183 12.6501 5.38047 12.3897 5.55992C12.2129 5.6817 12.049 5.79465 11.987 5.83064C11.9594 5.81481 11.9325 5.79942 11.9063 5.78444C11.2826 5.42738 11.0794 5.31101 10.7244 5.31101C10.5222 5.31101 10.3806 5.41148 10.3806 5.54068V13.3521C10.3806 13.4526 10.3286 13.5301 10.2535 13.5301C10.1899 13.5301 10.1523 13.467 10.1523 13.3665V12.7808C9.79352 12.839 9.47912 13.1302 9.26888 13.325C9.15752 13.4282 9.07536 13.5042 9.03132 13.5042C8.89266 13.5042 8.06343 12.5138 8.06343 12.4363V8.7014L6.57258 8.70142ZM6.34146 5.46317C6.34146 5.20767 6.31546 5.12154 6.26633 5.12154C6.15366 5.12154 5.74338 5.37704 5.74338 5.46317V8.9799C5.74338 10.6862 5.5488 10.8902 5.10789 11.3524L5.08172 11.3799C4.87659 11.5952 4.82748 11.6469 4.67436 11.8249C4.94304 12.1923 5.83294 12.3588 6.34435 12.333V5.46317H6.34146ZM8.06345 7.49568H6.57258V5.36267C6.57258 5.19615 6.64771 5.10718 6.7893 5.10718C7.10709 5.10718 8.06345 5.83062 8.06345 6.09759V7.49568ZM10.1524 5.68996C10.1524 5.66411 10.1408 5.65263 10.1004 5.65263C10.0628 5.65263 9.99925 5.67846 9.95879 5.70432L9.66697 5.8823C9.50229 5.98276 9.45028 6.03444 9.45028 6.11195V7.38084C9.45028 7.46985 9.56585 7.533 9.65541 7.533H10.1524V5.68996ZM9.66697 8.67558H10.1495V12.3588C9.67853 12.3215 9.46184 12.0803 9.46184 11.5722V8.96838C9.46184 8.77891 9.52827 8.67558 9.66697 8.67558Z" fill="white"/>
</g>
<defs>
<clipPath id="clip0_5631_3455">
<rect width="108" height="24" fill="white"/>
</clipPath>
</defs>
</svg>
