<svg width="32" height="32" viewBox="0 0 32 32" fill="none" xmlns="http://www.w3.org/2000/svg">
<path fill-rule="evenodd" clip-rule="evenodd" d="M17.5115 4.30458C17.9313 4.30458 18.2672 3.97971 18.2672 3.57362V1.54316C18.2672 1.13707 17.9313 0.812195 17.5115 0.812195C17.0916 0.812195 16.7557 1.13707 16.7557 1.54316V3.57362C16.7557 3.97971 17.0916 4.30458 17.5115 4.30458Z" fill="url(#paint0_linear_152_3223)"/>
<path fill-rule="evenodd" clip-rule="evenodd" d="M14.5725 6.17262C14.9924 6.17262 15.3282 5.84775 15.3282 5.44166V3.4112C15.3282 3.00511 14.9924 2.68024 14.5725 2.68024C14.1527 2.68024 13.8168 3.00511 13.8168 3.4112V5.44166C13.9008 5.84775 14.2366 6.17262 14.5725 6.17262Z" fill="url(#paint1_linear_152_3223)"/>
<path fill-rule="evenodd" clip-rule="evenodd" d="M14.5725 1.46193C14.9924 1.46193 15.3282 1.13706 15.3282 0.730965C15.3282 0.324873 14.9924 0 14.5725 0C14.1527 0 13.8168 0.324873 13.8168 0.730965C13.9008 1.13706 14.2366 1.46193 14.5725 1.46193Z" fill="url(#paint2_linear_152_3223)"/>
<path fill-rule="evenodd" clip-rule="evenodd" d="M20.3664 6.65993C20.7863 6.65993 21.1222 6.33505 21.1222 5.92896C21.1222 5.52287 20.7863 5.198 20.3664 5.198C19.9466 5.198 19.6107 5.52287 19.6107 5.92896C19.6947 6.41627 20.0305 6.65993 20.3664 6.65993Z" fill="url(#paint3_linear_152_3223)"/>
<path fill-rule="evenodd" clip-rule="evenodd" d="M26.1603 11.8579C25.7405 11.8579 25.4046 12.1828 25.4046 12.5889V12.9138V12.995C25.4046 13.4011 25.0687 13.6447 24.6489 13.6447C24.229 13.6447 23.8931 13.3198 23.8931 12.9138V12.1828V11.2082C23.8931 10.8021 23.5573 10.4772 23.1374 10.4772C22.7176 10.4772 22.3817 10.8021 22.3817 11.2082C22.3817 11.6143 22.0458 11.9391 21.626 11.9391C21.2061 11.9391 20.8702 11.6143 20.8702 11.2082V10.5584V8.28431C20.8702 7.87822 20.5344 7.55335 20.1145 7.55335C19.6947 7.55335 19.3588 7.87822 19.3588 8.28431V9.42137C19.3588 9.82746 19.0229 10.1523 18.6031 10.1523C18.1832 10.1523 17.8473 9.82746 17.8473 9.42137V8.93406V6.25385C17.8473 5.84776 17.5114 5.52289 17.0916 5.52289C16.6718 5.52289 16.3359 5.84776 16.3359 6.25385V8.12187V9.01528C16.3359 9.42137 16 9.74624 15.5802 9.74624C15.1603 9.74624 14.8244 9.42137 14.8244 9.01528V8.12187V7.95944C14.8244 7.55335 14.4885 7.22847 14.0687 7.22847C13.6489 7.22847 13.313 7.55335 13.313 7.95944V8.85284V10.0711C13.313 10.4772 12.9771 10.8021 12.5573 10.8021C12.1374 10.8021 11.8015 10.4772 11.8015 10.0711V9.66502V7.14725C11.8015 6.74116 11.4656 6.41629 11.0458 6.41629C10.626 6.41629 10.2901 6.74116 10.2901 7.14725V10.4772V11.6143C10.2901 12.0204 9.9542 12.3452 9.53435 12.3452C9.1145 12.3452 8.77863 12.0204 8.77863 11.6143V11.2894V10.396C8.77863 9.98989 8.44275 9.66502 8.0229 9.66502C7.60305 9.66502 7.26718 9.98989 7.26718 10.396V12.1016V13.7259C7.26718 14.132 6.9313 14.4569 6.51145 14.4569C6.0916 14.4569 5.75573 14.132 5.75573 13.7259V12.9138V12.6701C5.75573 12.264 5.41985 11.9391 5 11.9391C5.50382 11.9391 5.16794 12.264 5.16794 12.6701V13.7259V25.9087L16.084 32.0001L27 25.9087V18.1929V12.5889C26.916 12.1828 26.5802 11.8579 26.1603 11.8579ZM21.2061 23.797H17.7634V21.2792H14.3206V23.797H10.8779V15.9188H14.3206V18.599H17.7634V15.9188H21.2061V23.797Z" fill="url(#paint4_linear_152_3223)"/>
<defs>
<linearGradient id="paint0_linear_152_3223" x1="5.4966" y1="2.58121" x2="26.9848" y2="2.58121" gradientUnits="userSpaceOnUse">
<stop stop-color="#ED334D"/>
<stop offset="1" stop-color="#F79826"/>
</linearGradient>
<linearGradient id="paint1_linear_152_3223" x1="6.27676" y1="4.44284" x2="27.577" y2="4.44284" gradientUnits="userSpaceOnUse">
<stop stop-color="#ED334D"/>
<stop offset="1" stop-color="#F79826"/>
</linearGradient>
<linearGradient id="paint2_linear_152_3223" x1="5.79427" y1="0.775229" x2="27.1822" y2="0.775229" gradientUnits="userSpaceOnUse">
<stop stop-color="#ED334D"/>
<stop offset="1" stop-color="#F79826"/>
</linearGradient>
<linearGradient id="paint3_linear_152_3223" x1="5.68101" y1="6.00117" x2="26.8752" y2="6.00117" gradientUnits="userSpaceOnUse">
<stop stop-color="#ED334D"/>
<stop offset="1" stop-color="#F79826"/>
</linearGradient>
<linearGradient id="paint4_linear_152_3223" x1="5.16794" y1="18.7494" x2="26.9228" y2="18.7494" gradientUnits="userSpaceOnUse">
<stop stop-color="#ED334D"/>
<stop offset="1" stop-color="#F79826"/>
</linearGradient>
</defs>
</svg>
