<?xml version="1.0" encoding="UTF-8"?><svg id="_ÎÓÈ_1" xmlns="http://www.w3.org/2000/svg" viewBox="0 0 50.95 43.16"><g><path d="M25.48,0c-8.79,0-15.92,7.13-15.92,15.92s7.13,15.92,15.92,15.92,15.92-7.13,15.92-15.92S34.27,0,25.48,0Zm0,30.47c-8.02,0-14.55-6.53-14.55-14.55S17.45,1.37,25.48,1.37s14.55,6.53,14.55,14.55-6.53,14.55-14.55,14.55Z" fill="#d3d4d7"/><g><path d="M27.67,17.86c-.28-.1-.66-.24-1.51-.43v4.83c1.02-.05,1.78-.3,2.31-.74,.6-.5,.91-1.09,.91-1.76,0-.43-.14-.8-.39-1.1-.25-.3-.69-.57-1.33-.79Z" fill="#d3d4d7"/><path d="M22.41,11.33c0,.43,.21,.8,.57,1.11,.29,.24,.79,.49,1.64,.74v-3.58c-.68,.1-1.19,.29-1.6,.6-.39,.28-.61,.66-.61,1.13Z" fill="#d3d4d7"/><path d="M25.48,1.89c-7.74,0-14.04,6.3-14.04,14.04s6.3,14.04,14.04,14.04,14.04-6.3,14.04-14.04S33.22,1.89,25.48,1.89Zm6.73,20.79c-.58,.91-1.42,1.59-2.48,2.04-.97,.4-2.03,.62-3.56,.66v1.67h-1.53v-1.72c-1.71-.16-3.14-.67-4.16-1.55-1.24-1.07-1.99-2.62-2.23-4.66l3.58-.35c.22,1.2,.68,2.09,1.34,2.65,.4,.34,.79,.58,1.47,.71v-5.11c-2.05-.48-3.26-1.07-4.03-1.77-1.12-1-1.7-2.23-1.7-3.67,0-.93,.26-1.8,.79-2.61,.53-.81,1.31-1.43,2.3-1.85,.75-.32,1.62-.52,2.64-.6v-1.99h1.53v1.96c2.05,.09,3.51,.58,4.56,1.49,1.16,1,1.76,2.35,1.82,4.02l-3.68,.16c-.16-.94-.51-1.61-1.03-2.02-.4-.32-.99-.51-1.67-.58v4.05s.12,.03,.18,.04c1.79,.42,3.12,.86,3.98,1.31,.86,.45,1.54,1.07,2.02,1.86,.49,.78,.74,1.75,.74,2.91,0,1.05-.28,2.03-.87,2.94Z" fill="#d3d4d7"/></g></g><path d="M19.16,37.35c0-.25,.09-.86,.9-1.24l2.55-1.2c-16.89-.64-20.82-7.05-14.46-11.05,.6-.38,1.29-.73,2.04-1.05-.13-.3-.26-.59-.37-.9-1.75,.54-3.37,1.19-4.8,1.94-1.79,.96-3.21,2.06-4.09,3.3-1.02,1.44-1.26,3.01-.45,4.64,.98,1.96,3.38,3.81,7.33,5.31,4.05,1.54,9.16,2.49,14.87,2.72l-2.62-1.24c-.82-.38-.9-1-.9-1.24Z" fill="#d3d4d7"/><path d="M50.06,27.15c-.86-1.24-2.26-2.34-4.04-3.3-1.44-.77-3.08-1.43-4.87-1.98-.11,.3-.24,.6-.37,.89,.78,.33,1.49,.69,2.11,1.08,5.96,3.78,2.68,9.73-12.03,10.9l1.19-2.56c.26-.57,.02-.81-.55-.55l-11.08,5.22c-.57,.27-.57,.7,0,.97l11.08,5.22c.57,.27,.81,.02,.55-.55l-1.32-2.84c4.67-.38,8.86-1.27,12.31-2.57,3.97-1.5,6.4-3.35,7.4-5.31,.83-1.62,.61-3.19-.38-4.64Z" fill="#d3d4d7"/></svg>