<svg width="32" height="32" viewBox="0 0 32 32" fill="none" xmlns="http://www.w3.org/2000/svg">
<path fill-rule="evenodd" clip-rule="evenodd" d="M16 0C7.16344 0 0 7.16344 0 16C0 24.8366 7.16344 32 16 32C24.8366 32 32 24.8366 32 16C32 7.16344 24.8366 0 16 0ZM20.0274 21.9924C20.5709 22.5359 21.4489 22.5359 21.9924 21.9924C22.5219 21.4489 22.5219 20.557 21.9924 20.0274L17.9649 16L21.9924 11.9726C22.5359 11.4291 22.5359 10.5511 21.9924 10.0076C21.4489 9.46413 20.5709 9.46413 20.0274 10.0076L16 14.0351L11.9726 10.0076C11.4291 9.46413 10.5511 9.46413 10.0076 10.0076C9.46413 10.5511 9.46413 11.4291 10.0076 11.9726L14.0351 16L10.0076 20.0274C9.46413 20.5709 9.46413 21.4489 10.0076 21.9924C10.5511 22.5359 11.4291 22.5359 11.9726 21.9924L16 17.9649L20.0274 21.9924Z" fill="#222939"/>
</svg>
