<svg width="48" height="48" viewBox="0 0 48 48" fill="none" xmlns="http://www.w3.org/2000/svg">
<path d="M48 24C48 37.2548 37.2548 48 24 48C10.7452 48 0 37.2548 0 24C0 10.7452 10.7452 0 24 0C37.2548 0 48 10.7452 48 24Z" fill="#26324D"/>
<path d="M24 10.1998C16.3786 10.1998 10.2 16.3782 10.2 23.9998C10.2 31.6213 16.3786 37.7998 24 37.7998C31.6214 37.7998 37.8 31.6213 37.8 23.9998C37.8 16.3782 31.6214 10.1998 24 10.1998ZM28.7696 24.7313L21.8696 29.0438C21.73 29.131 21.5712 29.1748 21.4125 29.1748C21.2687 29.1748 21.1246 29.139 20.9943 29.0665C20.7201 28.9145 20.55 28.626 20.55 28.3123V19.6873C20.55 19.3735 20.7201 19.085 20.9943 18.933C21.2684 18.7801 21.6037 18.7894 21.8696 18.9558L28.7696 23.2683C29.0217 23.4262 29.175 23.7025 29.175 23.9998C29.175 24.2971 29.0217 24.5734 28.7696 24.7313Z" fill="#CAAB72"/>
<path opacity="0.1" fill-rule="evenodd" clip-rule="evenodd" d="M24 48C37.2548 48 48 37.2548 48 24C48 10.7452 37.2548 0 24 0V48Z" fill="#222939"/>
</svg>
