<?xml version="1.0" encoding="utf-8"?>
<!-- Generator: Adobe Illustrator 27.5.0, SVG Export Plug-In . SVG Version: 6.00 Build 0)  -->
<svg version="1.1" id="Layer_1" xmlns="http://www.w3.org/2000/svg" xmlns:xlink="http://www.w3.org/1999/xlink" x="0px" y="0px"
	 viewBox="0 0 20 20" style="enable-background:new 0 0 20 20;" xml:space="preserve">
<style type="text/css">
	.st0{fill:#FFCB05;}
	.st1{fill:#B28F04;}
	.st2{fill:url(#SVGID_1_);}
	.st3{fill:#231F20;}
	.st4{fill:#FFFFFF;}
</style>
<g>
	<path class="st0" d="M19.7,8.1l-4.6-0.3l2.8-3.7l-4.4,2l1-4l-2.5,2.3l-0.3-3.8L9.4,4.7L7,1.2l0.4,4.3L3.5,2.7l1.7,4L1.7,6l3.3,3.2
		L0.4,10l4,1.4l-3.3,2l4.5-0.6l-2.8,3.6l4.2-2l-0.7,4.7L8.7,16l1.1,3.2l1.1-3.2l2.7,3.4l-0.4-5l3.8,2.5l-1.7-4.3l3.9-0.1l-3.7-1.6
		L19.7,8.1L19.7,8.1z M10.2,15.3C7.3,15.3,5,13,5,10.1S7.3,5,10.2,5s5.1,2.3,5.1,5.1S13,15.3,10.2,15.3z"/>
	<g>
		<path class="st1" d="M10.2,5C7.3,5,5,7.3,5,10.1s2.3,5.1,5.1,5.1s5.1-2.3,5.1-5.1S13,5,10.2,5z M15.2,10.2c0,2.8-2.3,5-5,5
			s-5-2.3-5-5c0-1.9,1.1-3.6,2.7-4.4c0.7-0.4,1.5-0.6,2.4-0.6C13,5.1,15.2,7.4,15.2,10.2L15.2,10.2L15.2,10.2L15.2,10.2z"/>
		<path class="st1" d="M15.7,10.8L20,8.1l-4.8-0.3l3-3.9l-4.6,2l1-4.1L12,4.2l-0.3-4L9.4,4.5L6.9,0.9l0.4,4.5l-4-2.9l1.8,4.1
			L1.4,5.8l3.4,3.3L0,10l4.1,1.4l-3.5,2.1L5.3,13l-2.9,3.8l4.4-2.1L6,19.5l2.7-3.3l1.1,3.3l1.2-3.3l2.8,3.5l-0.4-5.1l3.9,2.5
			l-1.8-4.5l4.2-0.1L15.7,10.8L15.7,10.8z M17.1,16.9l-3.8-2.5l0.4,5L11,16l-1.1,3.2L8.8,16l-2.6,3.1l0.7-4.7l-4.2,2l2.8-3.6L1,13.4
			l3.3-2l-4-1.4L5,9.1L1.7,6l3.6,0.8l-1.7-4l3.9,2.8L7.1,1.2l2.3,3.5l2.3-4.1L12,4.4l2.5-2.3l-1,4l4.4-2l-2.8,3.7l4.6,0.3l-4.2,2.7
			l3.7,1.6l-3.9,0.1L17.1,16.9L17.1,16.9z"/>
	</g>
	
		<radialGradient id="SVGID_1_" cx="8.275" cy="14.5814" r="6.8034" gradientTransform="matrix(1 0 0 -1 0 22)" gradientUnits="userSpaceOnUse">
		<stop  offset="0" style="stop-color:#FFFFFF"/>
		<stop  offset="1" style="stop-color:#FFF0A5"/>
	</radialGradient>
	<path class="st2" d="M10.2,5.3c2.7,0,4.8,2.2,4.8,4.8S12.8,15,10.2,15s-4.8-2.2-4.8-4.8S7.5,5.3,10.2,5.3z"/>
	<path class="st3" d="M13.7,11.7c-0.4-0.4-0.6-0.9-0.6-0.9c0-0.1-0.1-0.1-0.1-0.1c0,0,0,0.1,0,0.1c0.1,0.4,0.1,0.5,0.1,0.5
		c-3.3,0.7-6.3-0.1-6.3-0.1c0.1-0.2,0.2-0.5,0.2-0.5c0-0.1,0-0.1,0-0.1c0,0-0.1,0-0.1,0c-0.3,0.6-0.7,0.8-0.7,0.8l0,0
		c0,0-0.1,0,0,0.1c0,0,0,0,0.1,0l0,0c0.2-0.1,0.4-0.3,0.4-0.3c0.3,0.6,0.9,1.2,0.9,1.2c0.6,0.7,1.3,0.9,1.3,0.9c0.4,0.2,1,0.2,1,0.2
		c2.3,0.1,3.4-2.2,3.4-2.2C13.4,11.6,13.7,11.8,13.7,11.7C13.8,11.8,13.8,11.7,13.7,11.7L13.7,11.7z M10,13.5c-1.9,0-3-2.1-3-2.1
		h0.1c1.7,0.4,3.1,0.4,3.3,0.4c-0.4,0,1.2,0,2.5-0.3h0.2C13.1,11.4,12.1,13.5,10,13.5L10,13.5z"/>
	<path class="st3" d="M9.3,10.1H10c0.2,0,0.1,0.2,0.1,0.2c-0.1,0.1,0,0.1,0,0.1c0.1,0,0.1-0.2,0.1-0.2c0-0.2-0.2-0.2-0.2-0.2H9.4
		C8.6,9.9,8.7,9.2,8.7,9.2c0-0.5,0.5-0.9,0.5-0.9c0.4-0.3,1-0.5,1-0.5c0.1,0,0-0.1,0-0.1c0-0.1-0.4,0-0.4,0S8.6,8.2,8.5,9.2
		C8.5,9.2,8.4,10,9.3,10.1"/>
	<path class="st3" d="M6.1,8.5c0,0,0.4-0.8,1.1-0.7c0.7,0.2,0.7,1,0.7,1s0.1-1-0.7-1.2C6.4,7.5,6.1,8.5,6.1,8.5L6.1,8.5z"/>
	<path class="st3" d="M12.6,7.9c1,0.1,1,1.2,1,1.2s-0.2-1-1-1.1c-0.6,0-0.9,0.7-0.9,0.7S11.9,7.9,12.6,7.9z"/>
	<g>
		<g>
			<path class="st3" d="M7,8.5L7,8.5L7,8.5z"/>
			<path class="st3" d="M7,8.5L7,8.5L7,8.5z"/>
			<path class="st3" d="M7,8.5L7,8.5L7,8.5z"/>
			<path class="st3" d="M7,8.5C6.5,8.5,6.3,10,6.9,10C7.5,10.1,7.6,8.5,7,8.5z"/>
		</g>
		<path class="st4" d="M6.9,8.7c0,0-0.1,0.1-0.2,0.3c0,0.2,0,0.3,0,0.3s0,0,0.1,0c0.1,0,0.1-0.1,0.1-0.1s0-0.1,0-0.2
			C7,8.8,7,8.7,7,8.7S7,8.7,6.9,8.7C6.9,8.7,6.9,8.7,6.9,8.7L6.9,8.7z"/>
	</g>
	<g>
		<path class="st3" d="M12.9,9.3c0-0.2,0-0.4-0.2-0.5c0,0-0.1,0-0.1-0.1c0,0-0.1,0-0.1,0c-0.5,0-0.7,1.6-0.2,1.6
			C12.7,10.4,13,9.8,12.9,9.3z"/>
		<path class="st4" d="M12.4,8.9c0,0-0.1,0.1-0.2,0.3c0,0.2,0,0.3,0,0.3s0,0,0.1,0c0.1,0,0.1-0.1,0.1-0.1s0-0.1,0-0.2
			c0-0.2,0.1-0.3,0.1-0.3S12.6,9,12.4,8.9C12.5,9,12.4,9,12.4,8.9L12.4,8.9z"/>
	</g>
</g>
</svg>
