<svg width="32" height="32" viewBox="0 0 32 32" fill="none" xmlns="http://www.w3.org/2000/svg">
<path fill-rule="evenodd" clip-rule="evenodd" d="M16 0C7.16344 0 0 7.16344 0 16C0 24.8366 7.16344 32 16 32C24.8366 32 32 24.8366 32 16C32 7.16344 24.8366 0 16 0ZM15.2984 21.4545L23.4627 13.1797C24.1792 12.4535 24.1792 11.2719 23.4624 10.5455C23.1152 10.1936 22.6538 9.99996 22.1629 9.99996C21.672 9.99996 21.2105 10.1936 20.8634 10.5455L13.9987 17.503L11.1373 14.603C10.7903 14.2511 10.3287 14.0573 9.83786 14.0573C9.34684 14.0573 8.88538 14.2511 8.53837 14.6029C8.19122 14.9547 8.00002 15.4224 8.00002 15.9201C8.00002 16.4176 8.19122 16.8853 8.53837 17.2372L12.6994 21.4545C13.0465 21.8063 13.508 22 13.9989 22C14.4897 22 14.9512 21.8063 15.2984 21.4545Z" fill="#222939"/>
</svg>
