<svg width="32" height="32" viewBox="0 0 32 32" fill="none" xmlns="http://www.w3.org/2000/svg">
<path fill-rule="evenodd" clip-rule="evenodd" d="M8 2H24C27.3137 2 30 4.68629 30 8V24C30 27.3137 27.3137 30 24 30H8C4.68629 30 2 27.3137 2 24V8C2 4.68629 4.68629 2 8 2ZM0 8C0 3.58172 3.58172 0 8 0H24C28.4183 0 32 3.58172 32 8V24C32 28.4183 28.4183 32 24 32H8C3.58172 32 0 28.4183 0 24V8ZM22.6232 11.37C23.1256 11.863 23.1256 12.6626 22.6232 13.1559L15.0056 20.6303C14.5042 21.1224 13.6888 21.1241 13.1856 20.6303L9.37684 16.8932C8.87439 16.3999 8.87439 15.6003 9.37684 15.1073C9.87955 14.614 10.6944 14.614 11.1969 15.1073L14.0957 17.9516L20.8031 11.37C21.3056 10.8767 22.1205 10.8767 22.6232 11.37Z" fill="#222939"/>
</svg>
