<svg width="48" height="48" viewBox="0 0 48 48" fill="none" xmlns="http://www.w3.org/2000/svg">
<path d="M48 24C48 37.2548 37.2548 48 24 48C10.7452 48 0 37.2548 0 24C0 10.7452 10.7452 0 24 0C37.2548 0 48 10.7452 48 24Z" fill="#26324D"/>
<path d="M24.1411 24.9448C20.2284 24.9448 17.0565 21.7729 17.0565 17.8602C17.0565 13.9475 20.2284 10.7756 24.1411 10.7756C28.0538 10.7756 31.2256 13.9475 31.2256 17.8602C31.2256 21.7729 28.0538 24.9448 24.1411 24.9448Z" fill="#CAAB72"/>
<path d="M35.5203 29.3604C34.1754 27.8406 32.2412 26.969 30.2137 26.969H18.0685C16.041 26.969 14.1068 27.8406 12.7619 29.3604L12.2822 29.9025L12.6402 30.5317C14.9893 34.6601 19.3962 37.2247 24.141 37.2247C28.8857 37.2247 33.2928 34.6601 35.6421 30.5316L36.0001 29.9025L35.5203 29.3604Z" fill="#CAAB72"/>
<path opacity="0.1" fill-rule="evenodd" clip-rule="evenodd" d="M24 48C37.2548 48 48 37.2548 48 24C48 10.7452 37.2548 0 24 0V48Z" fill="#222939"/>
</svg>
