<?xml version="1.0" encoding="UTF-8"?>
<svg id="Layer_2" data-name="Layer 2" xmlns="http://www.w3.org/2000/svg" xmlns:xlink="http://www.w3.org/1999/xlink" viewBox="0 0 19.97 16.77">
  <defs>
    <clipPath id="clippath">
      <path d="m15.4.74l-1.13.65c-.12.07-.19.2-.19.33v1.3c0,.14.07.27.19.33l1.13.65c.06.03.13.05.19.05s.13-.02.19-.05l1.13-.65c.12-.07.19-.2.19-.33v-1.3c0-.14-.07-.27-.19-.33l-1.13-.65c-.06-.03-.13-.05-.19-.05s-.13.02-.19.05" fill="#de981b"/>
    </clipPath>
    <clipPath id="clippath-1">
      <path d="m2.73,8.3l-1.13.65c-.12.07-.19.2-.19.34v1.3c0,.14.07.27.19.33l1.13.65c.06.03.13.05.19.05s.13-.02.19-.05l1.13-.65c.12-.07.19-.2.19-.33v-1.3c0-.14-.07-.27-.19-.34l-1.13-.65c-.06-.03-.13-.05-.19-.05s-.13.02-.19.05" fill="#de981b"/>
    </clipPath>
    <clipPath id="clippath-2">
      <path d="m18.35,1.56l-.66.38c-.07.04-.11.12-.11.2v.76c0,.08.04.16.11.2l.66.38s.07.03.11.03.08-.01.11-.03l.66-.38c.07-.04.11-.12.11-.2v-.76c0-.08-.04-.16-.11-.2l-.66-.38s-.07-.03-.11-.03-.08.01-.11.03" fill="#de981b"/>
    </clipPath>
    <clipPath id="clippath-3">
      <path d="m.61,11.28l-.52.3c-.06.03-.09.09-.09.15v.6c0,.06.03.12.09.15l.52.3s.06.02.09.02.06,0,.09-.02l.52-.3c.06-.03.09-.09.09-.15v-.6c0-.06-.03-.12-.09-.15l-.52-.3s-.06-.02-.09-.02-.06,0-.09.02" fill="#de981b"/>
    </clipPath>
    <clipPath id="clippath-4">
      <path d="m2.45,12.07l-.66.38c-.07.04-.11.12-.11.2v.76c0,.08.04.16.11.2l.66.38s.07.03.11.03.08-.01.11-.03l.66-.38c.07-.04.11-.12.11-.2v-.76c0-.08-.04-.16-.11-.2l-.66-.38s-.07-.03-.11-.03-.08.01-.11.03" fill="#de981b"/>
    </clipPath>
    <clipPath id="clippath-5">
      <path d="m18.62,3.98l-.89.51c-.09.05-.15.16-.15.26v1.03c0,.11.06.21.15.26l.89.51s.1.04.15.04.11-.01.15-.04l.89-.51c.09-.05.15-.16.15-.26v-1.03c0-.11-.06-.21-.15-.26l-.89-.51s-.1-.04-.15-.04-.11.01-.15.04" fill="#de981b"/>
    </clipPath>
    <clipPath id="clippath-6">
      <path d="m9.48.26L3.88,3.49c-.59.34-.96.98-.96,1.66v6.47c0,.68.37,1.32.96,1.66l5.6,3.23c.29.17.62.26.96.26s.67-.09.96-.26l5.6-3.23c.59-.34.96-.98.96-1.66v-6.47c0-.68-.37-1.32-.96-1.66L11.4.26c-.29-.17-.62-.26-.96-.26s-.67.09-.96.26" fill="#de981b"/>
    </clipPath>
    <clipPath id="clippath-7">
      <path d="m9.73.96l-5.54,3.22c-.25.15-.25.51,0,.66l5.54,3.22c.43.25.97.25,1.41,0l5.54-3.22c.25-.15.25-.51,0-.66L11.14.96c-.22-.13-.46-.19-.7-.19s-.49.06-.7.19" fill="none"/>
    </clipPath>
    <linearGradient id="linear-gradient" x1="-285.69" y1="426.15" x2="-285.56" y2="426.15" gradientTransform="translate(36628.49 54636.57) scale(128.2 -128.2)" gradientUnits="userSpaceOnUse">
      <stop offset="0" stop-color="#fff"/>
      <stop offset="1" stop-color="#000"/>
    </linearGradient>
    <mask id="mask" x="3.94" y=".77" width="12.99" height="7.54" maskUnits="userSpaceOnUse">
      <rect x="3.94" y=".77" width="12.99" height="7.54" fill="url(#linear-gradient)"/>
    </mask>
    <linearGradient id="linear-gradient-2" x1="-285.69" y1="426.15" x2="-285.56" y2="426.15" gradientTransform="translate(36628.49 54636.57) scale(128.2 -128.2)" gradientUnits="userSpaceOnUse">
      <stop offset="0" stop-color="#413f3c"/>
      <stop offset="1" stop-color="#413f3c"/>
    </linearGradient>
    <clipPath id="clippath-8">
      <path d="m3.71,5.46v6.16c0,.48.26.93.68,1.17l5.35,3.04c.24.14.54-.04.54-.32v-6.16c0-.48-.26-.93-.68-1.17l-5.35-3.04c-.06-.03-.12-.05-.18-.05-.19,0-.36.15-.36.36" fill="none"/>
    </clipPath>
    <linearGradient id="linear-gradient-3" x1="-285.33" y1="424.15" x2="-285.2" y2="424.15" gradientTransform="translate(18689.89 27787.63) scale(65.49 -65.49)" xlink:href="#linear-gradient"/>
    <mask id="mask-1" x="3.71" y="5.09" width="6.57" height="10.87" maskUnits="userSpaceOnUse">
      <rect x="3.71" y="5.09" width="6.57" height="10.87" fill="url(#linear-gradient-3)"/>
    </mask>
    <linearGradient id="linear-gradient-4" x1="-285.33" y1="424.15" x2="-285.2" y2="424.15" gradientTransform="translate(18689.89 27787.63) scale(65.49 -65.49)" xlink:href="#linear-gradient-2"/>
    <clipPath id="clippath-9">
      <path d="m16.63,5.33l-1.58.95c-.15.09-.29.26-.39.48l-.73,1.51-.61-.57c-.16-.14-.37-.15-.59-.02l-1.47.88c-.21.13-.39.44-.45.79-.05.3.01.55.15.66l1.2,1.03c.38.31.97-.05,1.34-.82l1.44-3.01c.06-.11.13-.2.21-.25l1.36-.82s.06.04.03.1l-1.64,3.41c-.05.09-.07.2-.07.3,0,.1.02.17.07.22l1.65,1.54s0,.11-.03.14l-1.32.79c-.11.06-.21.06-.29,0l-1.39-1.3c-.38-.36-1,.02-1.39.83l-1.19,2.55c-.15.31-.18.68-.08.9.08.19.26.22.43.12l1.4-.84c.22-.13.43-.39.59-.72l.66-1.41.75.7c.09.09.22.09.36.01l1.61-.96c.17-.1.34-.34.42-.62.1-.34.06-.65-.08-.78l-1.59-1.48,1.58-3.28c.14-.3.18-.66.08-.88-.05-.12-.14-.18-.24-.18-.06,0-.12.02-.19.06" fill="#de981b"/>
    </clipPath>
  </defs>
  <g id="Layer_1-2" data-name="Layer 1">
    <g>
      <g>
        <path d="m15.4.74l-1.13.65c-.12.07-.19.2-.19.33v1.3c0,.14.07.27.19.33l1.13.65c.06.03.13.05.19.05s.13-.02.19-.05l1.13-.65c.12-.07.19-.2.19-.33v-1.3c0-.14-.07-.27-.19-.33l-1.13-.65c-.06-.03-.13-.05-.19-.05s-.13.02-.19.05" fill="#de981b"/>
        <g clip-path="url(#clippath)">
          <rect x="13.36" y=".12" width="4.47" height="4.53" transform="translate(1.77 9.97) rotate(-37.46)" fill="#de981b"/>
        </g>
      </g>
      <g>
        <path d="m2.73,8.3l-1.13.65c-.12.07-.19.2-.19.34v1.3c0,.14.07.27.19.33l1.13.65c.06.03.13.05.19.05s.13-.02.19-.05l1.13-.65c.12-.07.19-.2.19-.33v-1.3c0-.14-.07-.27-.19-.34l-1.13-.65c-.06-.03-.13-.05-.19-.05s-.13.02-.19.05" fill="#de981b"/>
        <g clip-path="url(#clippath-1)">
          <rect x=".69" y="7.67" width="4.47" height="4.53" transform="translate(-5.44 3.82) rotate(-37.46)" fill="#de981b"/>
        </g>
      </g>
      <g>
        <path d="m18.35,1.56l-.66.38c-.07.04-.11.12-.11.2v.76c0,.08.04.16.11.2l.66.38s.07.03.11.03.08-.01.11-.03l.66-.38c.07-.04.11-.12.11-.2v-.76c0-.08-.04-.16-.11-.2l-.66-.38s-.07-.03-.11-.03-.08.01-.11.03" fill="#de981b"/>
        <g clip-path="url(#clippath-2)">
          <rect x="17.16" y="1.2" width="2.61" height="2.64" transform="translate(2.27 11.75) rotate(-37.46)" fill="#de981b"/>
        </g>
      </g>
      <g>
        <path d="m.61,11.28l-.52.3c-.06.03-.09.09-.09.15v.6c0,.06.03.12.09.15l.52.3s.06.02.09.02.06,0,.09-.02l.52-.3c.06-.03.09-.09.09-.15v-.6c0-.06-.03-.12-.09-.15l-.52-.3s-.06-.02-.09-.02-.06,0-.09.02" fill="#de981b"/>
        <g clip-path="url(#clippath-3)">
          <rect x="-.33" y="10.99" width="2.06" height="2.09" transform="translate(-7.18 2.91) rotate(-37.46)" fill="#de981b"/>
        </g>
      </g>
      <g>
        <path d="m2.45,12.07l-.66.38c-.07.04-.11.12-.11.2v.76c0,.08.04.16.11.2l.66.38s.07.03.11.03.08-.01.11-.03l.66-.38c.07-.04.11-.12.11-.2v-.76c0-.08-.04-.16-.11-.2l-.66-.38s-.07-.03-.11-.03-.08.01-.11.03" fill="#de981b"/>
        <g clip-path="url(#clippath-4)">
          <rect x="1.26" y="11.7" width="2.61" height="2.64" transform="translate(-7.39 4.24) rotate(-37.46)" fill="#de981b"/>
        </g>
      </g>
      <g>
        <path d="m18.62,3.98l-.89.51c-.09.05-.15.16-.15.26v1.03c0,.11.06.21.15.26l.89.51s.1.04.15.04.11-.01.15-.04l.89-.51c.09-.05.15-.16.15-.26v-1.03c0-.11-.06-.21-.15-.26l-.89-.51s-.1-.04-.15-.04-.11.01-.15.04" fill="#de981b"/>
        <g clip-path="url(#clippath-5)">
          <rect x="17.01" y="3.49" width="3.52" height="3.58" transform="translate(.66 12.5) rotate(-37.46)" fill="#de981b"/>
        </g>
      </g>
      <g>
        <path d="m9.48.26L3.88,3.49c-.59.34-.96.98-.96,1.66v6.47c0,.68.37,1.32.96,1.66l5.6,3.23c.29.17.62.26.96.26s.67-.09.96-.26l5.6-3.23c.59-.34.96-.98.96-1.66v-6.47c0-.68-.37-1.32-.96-1.66L11.4.26c-.29-.17-.62-.26-.96-.26s-.67.09-.96.26" fill="#de981b"/>
        <g clip-path="url(#clippath-6)">
          <rect x="-.63" y="-2.84" width="22.13" height="22.46" transform="translate(-2.95 8.08) rotate(-37.46)" fill="#de981b"/>
        </g>
      </g>
      <g>
        <path d="m3.44,5.23v6.31c0,.55.29,1.05.77,1.33l5.46,3.15c.47.27,1.06.27,1.53,0l5.46-3.15c.47-.27.77-.78.77-1.33v-6.31c0-.55-.29-1.05-.77-1.33L11.2.75c-.47-.27-1.06-.27-1.53,0l-5.46,3.15c-.47.27-.77.78-.77,1.33" fill="#191814"/>
        <path d="m3.44,5.23v6.31c0,.55.29,1.05.77,1.33l5.46,3.15c.47.27,1.06.27,1.53,0l5.46-3.15c.47-.27.77-.78.77-1.33v-6.31c0-.55-.29-1.05-.77-1.33L11.2.75c-.47-.27-1.06-.27-1.53,0l-5.46,3.15c-.47.27-.77.78-.77,1.33" fill="#191814"/>
      </g>
      <g clip-path="url(#clippath-7)">
        <g mask="url(#mask)">
          <rect x="3.94" y=".77" width="12.99" height="7.54" fill="url(#linear-gradient-2)"/>
        </g>
      </g>
      <g clip-path="url(#clippath-8)">
        <g mask="url(#mask-1)">
          <rect x="3.71" y="5.09" width="6.57" height="10.87" fill="url(#linear-gradient-4)"/>
        </g>
      </g>
      <g>
        <path d="m16.63,5.33l-1.58.95c-.15.09-.29.26-.39.48l-.73,1.51-.61-.57c-.16-.14-.37-.15-.59-.02l-1.47.88c-.21.13-.39.44-.45.79-.05.3.01.55.15.66l1.2,1.03c.38.31.97-.05,1.34-.82l1.44-3.01c.06-.11.13-.2.21-.25l1.36-.82s.06.04.03.1l-1.64,3.41c-.05.09-.07.2-.07.3,0,.1.02.17.07.22l1.65,1.54s0,.11-.03.14l-1.32.79c-.11.06-.21.06-.29,0l-1.39-1.3c-.38-.36-1,.02-1.39.83l-1.19,2.55c-.15.31-.18.68-.08.9.08.19.26.22.43.12l1.4-.84c.22-.13.43-.39.59-.72l.66-1.41.75.7c.09.09.22.09.36.01l1.61-.96c.17-.1.34-.34.42-.62.1-.34.06-.65-.08-.78l-1.59-1.48,1.58-3.28c.14-.3.18-.66.08-.88-.05-.12-.14-.18-.24-.18-.06,0-.12.02-.19.06" fill="#de981b"/>
        <g clip-path="url(#clippath-9)">
          <polygon points="17.15 2.39 17.15 15.83 10.74 18.71 10.74 5.27 17.15 2.39" fill="#de981b"/>
        </g>
      </g>
      <g>
        <path d="m9.91,9.98c0,.1-.1.15-.19.11-.66-.39-2.92-1.72-4.05-2.38-.06-.03-.11-.07-.17-.1-.14-.05-.24,0-.24.15,0,.24-.01.49,0,.73.01.2.12.36.3.46,1.05.61,2.1,1.21,3.14,1.83.73.44,1.13,1.1,1.19,1.95.03.47,0,.94,0,1.41,0,.83-.5,1.11-1.22.69-1.01-.59-2.01-1.18-3.02-1.77-.47-.28-.95-.56-1.43-.83-.16-.09-.15-.19-.15-.5v-.73c0-.1.09-.17.18-.12.64.38,2.93,1.72,4.09,2.41.09.05.19.15.3.09.12-.06.09-.19.09-.3.01-.9.02-.88-.76-1.33-.9-.51-1.8-1.02-2.69-1.56-.77-.46-1.16-1.17-1.2-2.06-.02-.46,0-.91,0-1.37,0-.07,0-.15.01-.22.05-.48.43-.72.89-.57.12.04.24.1.36.17,1.29.76,3.85,2.26,4.45,2.61.08.05.13.13.13.22v.99Z" fill="#fff"/>
        <path d="m13.31,2.6c-.52-.3-1.05-.6-1.58-.89-.36-.19-.74-.31-1.15-.33-.49-.02-.95.12-1.37.36-1.12.64-3.8,2.17-4.56,2.61-.09.05-.09.18,0,.24l5.58,3.19c.16.09.35.09.51,0l.75-.43c.09-.05.09-.18,0-.24l-1.71-1.01s2.42-1.41,3.52-2.05c.75-.43.75-1.02,0-1.45m-1.58.96c-1.03.59-3.25,1.85-3.25,1.85,0,0-1.11-.62-1.66-.93.73-.41,1.42-.81,2.11-1.2.39-.22.78-.44,1.17-.66.24-.14.46-.14.7,0,.31.18.62.35.93.52.25.14.25.27,0,.41" fill="#fff"/>
      </g>
    </g>
  </g>
</svg>