<svg width="32" height="32" viewBox="0 0 32 32" fill="none" xmlns="http://www.w3.org/2000/svg">
<path fill-rule="evenodd" clip-rule="evenodd" d="M0 16C2.51638 9.56129 8.72726 5 16 5C23.28 5 29.4836 9.56129 32 16C29.4836 22.4386 23.28 27 16 27C8.72726 27 2.51638 22.4386 0 16ZM8.72726 15.9999C8.72726 20.0479 11.9855 23.3333 16 23.3333C20.0145 23.3333 23.2727 20.048 23.2727 16C23.2727 11.952 20.0145 8.66664 16 8.66664C11.9855 8.66664 8.72726 11.9519 8.72726 15.9999ZM11.6363 16.0001C11.6363 13.5727 13.5927 11.6001 16 11.6001C18.4072 11.6001 20.3636 13.5727 20.3636 16.0001C20.3636 18.4274 18.4072 20.4001 16 20.4001C13.5927 20.4001 11.6363 18.4274 11.6363 16.0001Z" fill="#222939"/>
</svg>
