<svg width="27" height="30" viewBox="0 0 27 30" fill="none" xmlns="http://www.w3.org/2000/svg">
<path d="M24.927 10.813C24.199 10.2114 23.1824 9.8685 23.1824 8.87589C23.1736 8.69554 23.2117 8.51601 23.2929 8.35473C23.374 8.19345 23.4956 8.05591 23.6456 7.95546C23.5455 8.05439 23.4683 8.17408 23.4194 8.30608C23.3706 8.43809 23.3512 8.57919 23.3628 8.71947C23.3827 9.02482 23.5182 9.31113 23.7417 9.52011C23.9652 9.7291 24.26 9.84507 24.566 9.84442C24.7253 9.84943 24.884 9.82175 25.0323 9.76306C25.1805 9.70437 25.3151 9.61593 25.4279 9.50319C25.5406 9.39045 25.6291 9.2558 25.6877 9.10756C25.7464 8.95932 25.7741 8.80062 25.7691 8.64126C25.7691 7.8953 25.3721 7.2817 24.6201 6.52972C24.9546 6.46964 25.2828 6.37902 25.6007 6.259C25.364 5.97611 25.0404 5.77941 24.6803 5.69953C24.6021 5.51304 25.1255 5.03176 25.1255 4.16549C25.1556 3.93452 25.114 3.69989 25.0064 3.49331C24.8988 3.28673 24.7304 3.11818 24.5239 3.01046C24.4276 3.05858 24.3915 3.16687 24.2772 3.16687C23.9042 3.16687 23.9042 1.76519 23.1643 1.68097C22.9116 1.87949 22.8635 2.22839 22.5627 2.22839C22.0393 2.22839 21.7867 0.549988 20.9866 0.549988C20.758 0.706399 20.5534 1.6569 20.024 1.6569C19.4947 1.6569 19.0976 1.05531 18.7427 0.995153C18.4891 1.26716 18.353 1.62811 18.3637 1.9998C18.3637 2.8721 18.9653 3.86471 20.77 3.95495C21.0712 3.8681 21.3829 3.82355 21.6964 3.8226C21.8413 3.82343 21.986 3.83347 22.1296 3.85267C21.7123 3.85401 21.2993 3.93759 20.9142 4.09862C20.5292 4.25965 20.1797 4.49497 19.8857 4.79114C18.2494 6.42744 18.3877 10.5363 17.4252 12.3169C16.7153 13.6224 15.4279 14.609 14.2548 15.4933C13.9613 15.5058 13.674 15.4067 13.4508 15.2158C13.2275 15.0249 13.0849 14.7565 13.0517 14.4646C13.0517 13.4178 14.7421 12.708 14.7421 10.4159C14.7421 7.73288 11.9207 5.53109 8.44359 5.53109C6.95742 5.53122 5.50305 5.96176 4.25631 6.77068C3.00957 7.57959 2.02382 8.73227 1.4181 10.0894C0.812389 11.4465 0.612615 12.9501 0.843033 14.4183C1.07345 15.8865 1.72418 17.2565 2.71652 18.3628C2.67513 18.08 2.65503 17.7944 2.65637 17.5086C2.65961 16.5752 2.87844 15.6553 3.29585 14.8204C3.71326 13.9856 4.31796 13.2585 5.0627 12.6959C4.23621 13.8164 3.8095 15.1818 3.85094 16.5735C3.89239 17.9652 4.3996 19.3028 5.2913 20.3721C5.2913 20.2157 5.2913 20.0533 5.2913 19.8909C5.29168 18.7994 5.59718 17.7298 6.17334 16.8029C6.7495 15.8759 7.57332 15.1285 8.55183 14.6451C7.77732 15.4815 7.27067 16.5305 7.09701 17.6572C6.92334 18.7839 7.0906 19.9368 7.57727 20.9677C7.57727 20.9256 7.57727 20.8775 7.57727 20.8353C7.57544 20.4382 7.68793 20.049 7.90127 19.714C8.11461 19.3791 8.41979 19.1126 8.78044 18.9464C9.57035 20.9414 10.9383 22.655 12.7088 23.8673C12.1416 25.3708 11.8521 26.9648 11.8545 28.5717C11.8545 28.8665 11.8545 29.1733 11.8545 29.45C12.2032 28.0974 12.8971 26.8585 13.8683 25.8546C14.8395 24.8507 16.0548 24.1162 17.3951 23.7229C16.7916 24.0293 16.2296 24.4114 15.7227 24.8599C15.5387 25.7302 15.446 26.6173 15.446 27.5069C15.446 27.7896 15.446 28.0724 15.446 28.3491C15.7848 27.0219 16.4747 25.8104 17.4432 24.8419C19.639 22.6401 26.467 19.9209 26.467 14.5247C26.5282 13.8277 26.4201 13.1263 26.152 12.48C25.8839 11.8338 25.4636 11.2619 24.927 10.813Z" fill="#222939"/>
</svg>
