<svg width="32" height="32" viewBox="0 0 32 32" fill="none" xmlns="http://www.w3.org/2000/svg">
<path fill-rule="evenodd" clip-rule="evenodd" d="M28.1697 5.62872C29.3229 6.97971 30.2479 8.52553 30.9031 10.2094C31.602 12.0068 32 13.9552 32 16C32 17.8797 31.6593 19.6761 31.0635 21.3516C30.4573 23.0558 29.5813 24.6297 28.4698 26.0125C26.0667 29.0016 22.6125 31.0968 18.6667 31.7599C17.7979 31.9062 16.9104 32 16 32C15.0895 32 14.202 31.9062 13.3333 31.7599C9.38739 31.0969 5.93333 29.0017 3.53014 26.0121C2.41866 24.6292 1.54261 23.0553 0.936401 21.351C0.340577 19.6755 0 17.8797 0 16C0 13.9547 0.397842 12.0063 1.09795 10.2083C1.75305 8.52453 2.67806 6.97924 3.8302 5.62765C6.21772 2.83017 9.54894 0.876055 13.3333 0.240112C14.202 0.0937674 15.0895 0 16 0C16.9104 0 17.7979 0.0937674 18.6667 0.240112C22.451 0.876055 25.7832 2.8307 28.1697 5.62872ZM26.2281 12.9073L29.026 11.2923C28.4083 9.58805 27.4687 8.04169 26.276 6.72185L23.4521 8.35206C24.7301 9.59796 25.698 11.1573 26.2281 12.9073ZM16 24.5552C20.7176 24.5552 24.5552 20.7172 24.5552 16C24.5552 11.2829 20.7176 7.4448 16 7.4448C11.2823 7.4448 7.44473 11.2829 7.44473 16C7.44473 20.7172 11.2822 24.5552 16 24.5552ZM18.6667 2.39636C17.8031 2.22765 16.9124 2.13334 16 2.13334C15.0874 2.13334 14.1968 2.22765 13.3333 2.39636V5.66194C14.1874 5.44119 15.0781 5.31145 16 5.31145C16.9218 5.31145 17.8125 5.44112 18.6667 5.66194V2.39636ZM8.54891 8.35206L5.7249 6.72138C4.53225 8.04116 3.59263 9.58751 2.9739 11.2917L5.77185 12.9067C6.30211 11.1568 7.27086 9.59743 8.54891 8.35206ZM5.65203 18.6287L2.81249 20.2678C3.37288 21.9943 4.26146 23.5719 5.40616 24.9287L8.21865 23.3053C6.99893 22.0069 6.10412 20.4073 5.65203 18.6287ZM13.3333 29.6036C14.1968 29.7724 15.0874 29.8667 16 29.8667C16.9124 29.8667 17.8031 29.7724 18.6667 29.6036V26.3381C17.8125 26.5589 16.9218 26.6885 16 26.6885C15.0781 26.6885 14.1874 26.5589 13.3333 26.3381V29.6036ZM23.7812 23.3053L26.5926 24.9287C27.7385 23.5719 28.627 21.9943 29.1874 20.2683L26.3478 18.6287C25.8958 20.4073 25.0009 22.0073 23.7812 23.3053ZM20 16.1509C20 16.7949 19.7531 17.4125 19.3135 17.8679C19.0208 18.171 18.6558 18.3884 18.2556 18.4978C17.8554 18.6072 17.4344 18.6047 17.0354 18.4906C17.1369 19.3815 17.4265 20.2382 17.8836 21H14.115C14.5721 20.2382 14.8617 19.3814 14.9633 18.4906C14.4648 18.6322 13.9352 18.599 13.4568 18.3964C12.9784 18.1937 12.578 17.8329 12.3181 17.3702C12.0581 16.9074 11.9531 16.3685 12.0193 15.8375C12.0856 15.3065 12.3194 14.813 12.6844 14.4339L15.999 11L19.3135 14.4339C19.7531 14.8893 20 15.5069 20 16.1509Z" fill="#222939"/>
</svg>
