<svg width="32" height="32" viewBox="0 0 32 32" fill="none" xmlns="http://www.w3.org/2000/svg">
<circle cx="16" cy="16" r="16" fill="#26324D"/>
<path fill-rule="evenodd" clip-rule="evenodd" d="M20.4929 8.24366L24.1924 9.75407C24.3869 9.83261 24.5126 10.0149 24.5126 10.2163V12.2301C24.5126 15.0042 23.4377 16.6234 20.5478 18.2053C20.4664 18.2496 20.3755 18.2718 20.2846 18.2718C20.1937 18.2718 20.1028 18.2496 20.0214 18.2053C17.1316 16.6194 16.0566 15.0002 16.0566 12.2301V10.2163C16.0566 10.0149 16.1824 9.83261 16.3759 9.75407L20.0754 8.24366C20.2096 8.18929 20.3586 8.18929 20.4929 8.24366ZM20.1694 14.5592L22.2834 12.0418C22.4642 11.8243 22.4282 11.5071 22.1999 11.335C21.9727 11.1628 21.6397 11.197 21.4569 11.4135L19.7952 13.3931L19.1389 12.4557C18.9761 12.2231 18.6473 12.1627 18.4064 12.3157C18.1632 12.4698 18.0977 12.7819 18.2594 13.0135L19.3164 14.5239C19.4105 14.6579 19.5659 14.7404 19.7339 14.7475H19.7561C19.9157 14.7475 20.068 14.678 20.1694 14.5592ZM14.9996 12.2303V11.2234H8.65759C8.07518 11.2234 7.60059 11.6755 7.60059 12.2303V14.2442H15.2226C15.0757 13.629 14.9996 12.9664 14.9996 12.2303ZM24.4692 16.2579C23.7484 17.3162 22.6491 18.2164 21.0742 19.0784C20.8321 19.2103 20.5594 19.2787 20.2846 19.2787C20.0098 19.2787 19.7371 19.2103 19.4982 19.0804C17.9232 18.2164 16.824 17.3152 16.102 16.2579H7.60059V21.2926C7.60059 21.8485 8.07518 22.2996 8.65759 22.2996H23.4556C24.039 22.2996 24.5126 21.8485 24.5126 21.2926V16.2579H24.4692Z" fill="#CAAB72"/>
<path opacity="0.1" fill-rule="evenodd" clip-rule="evenodd" d="M16 32C24.8366 32 32 24.8366 32 16C32 7.16344 24.8366 0 16 0V32Z" fill="#222939"/>
</svg>
