<svg id="Layer_1" data-name="Layer 1" xmlns="http://www.w3.org/2000/svg" xmlns:xlink="http://www.w3.org/1999/xlink" viewBox="0 0 100 100"><defs><style>.cls-1{mask:url(#mask);filter:url(#luminosity-noclip-5);}.cls-2,.cls-4,.cls-6,.cls-8{mix-blend-mode:multiply;}.cls-2{fill:url(#linear-gradient);}.cls-3{mask:url(#mask-2);filter:url(#luminosity-noclip-6);}.cls-4{fill:url(#linear-gradient-2);}.cls-5{mask:url(#mask-3);filter:url(#luminosity-noclip-7);}.cls-6{fill:url(#linear-gradient-3);}.cls-7{mask:url(#mask-4);filter:url(#luminosity-noclip-8);}.cls-8{fill:url(#linear-gradient-4);}.cls-9{fill:url(#radial-gradient);}.cls-10{fill:#4d7afd;}.cls-11,.cls-20{fill:#efefef;}.cls-11{fill-rule:evenodd;opacity:0.78;}.cls-12{fill:url(#radial-gradient-2);}.cls-13{fill:url(#radial-gradient-3);}.cls-14{isolation:isolate;}.cls-15{mask:url(#mask-5);}.cls-16{fill:url(#linear-gradient-5);}.cls-17{fill:url(#linear-gradient-6);}.cls-18{fill:url(#linear-gradient-7);}.cls-19{fill:#00a79a;}.cls-132,.cls-21{fill:#fff;}.cls-21{opacity:0.82;}.cls-22{fill:url(#_ÂÁ_Ï_ÌÌ_È_ËÂÌÚ_183);}.cls-23{fill:url(#_ÂÁ_Ï_ÌÌ_È_ËÂÌÚ_183-2);}.cls-24{fill:url(#_ÂÁ_Ï_ÌÌ_È_ËÂÌÚ_183-3);}.cls-25{fill:url(#_ÂÁ_Ï_ÌÌ_È_ËÂÌÚ_183-4);}.cls-26{fill:url(#_ÂÁ_Ï_ÌÌ_È_ËÂÌÚ_183-5);}.cls-27{fill:url(#_ÂÁ_Ï_ÌÌ_È_ËÂÌÚ_183-6);}.cls-28{fill:url(#_ÂÁ_Ï_ÌÌ_È_ËÂÌÚ_183-7);}.cls-29{fill:url(#_ÂÁ_Ï_ÌÌ_È_ËÂÌÚ_183-8);}.cls-30{fill:url(#_ÂÁ_Ï_ÌÌ_È_ËÂÌÚ_183-9);}.cls-31{fill:url(#_ÂÁ_Ï_ÌÌ_È_ËÂÌÚ_183-10);}.cls-32{fill:url(#_ÂÁ_Ï_ÌÌ_È_ËÂÌÚ_183-11);}.cls-33{fill:url(#_ÂÁ_Ï_ÌÌ_È_ËÂÌÚ_183-12);}.cls-34{fill:url(#_ÂÁ_Ï_ÌÌ_È_ËÂÌÚ_183-13);}.cls-35{fill:url(#_ÂÁ_Ï_ÌÌ_È_ËÂÌÚ_183-14);}.cls-36{fill:url(#_ÂÁ_Ï_ÌÌ_È_ËÂÌÚ_183-15);}.cls-37{fill:url(#_ÂÁ_Ï_ÌÌ_È_ËÂÌÚ_183-16);}.cls-38{fill:url(#_ÂÁ_Ï_ÌÌ_È_ËÂÌÚ_183-17);}.cls-39{fill:url(#_ÂÁ_Ï_ÌÌ_È_ËÂÌÚ_183-18);}.cls-40{fill:url(#_ÂÁ_Ï_ÌÌ_È_ËÂÌÚ_183-19);}.cls-41{fill:url(#_ÂÁ_Ï_ÌÌ_È_ËÂÌÚ_183-20);}.cls-42{fill:url(#_ÂÁ_Ï_ÌÌ_È_ËÂÌÚ_183-21);}.cls-43{fill:url(#_ÂÁ_Ï_ÌÌ_È_ËÂÌÚ_183-22);}.cls-44{fill:url(#_ÂÁ_Ï_ÌÌ_È_ËÂÌÚ_183-23);}.cls-45{fill:url(#_ÂÁ_Ï_ÌÌ_È_ËÂÌÚ_183-24);}.cls-46{fill:url(#_ÂÁ_Ï_ÌÌ_È_ËÂÌÚ_183-25);}.cls-47{fill:url(#_ÂÁ_Ï_ÌÌ_È_ËÂÌÚ_183-26);}.cls-48{fill:url(#_ÂÁ_Ï_ÌÌ_È_ËÂÌÚ_183-27);}.cls-49{fill:url(#_ÂÁ_Ï_ÌÌ_È_ËÂÌÚ_183-28);}.cls-50{fill:url(#_ÂÁ_Ï_ÌÌ_È_ËÂÌÚ_183-29);}.cls-51{fill:url(#_ÂÁ_Ï_ÌÌ_È_ËÂÌÚ_183-30);}.cls-52{fill:url(#_ÂÁ_Ï_ÌÌ_È_ËÂÌÚ_183-31);}.cls-53{fill:url(#_ÂÁ_Ï_ÌÌ_È_ËÂÌÚ_183-32);}.cls-54{fill:url(#_ÂÁ_Ï_ÌÌ_È_ËÂÌÚ_183-33);}.cls-55{fill:url(#_ÂÁ_Ï_ÌÌ_È_ËÂÌÚ_183-34);}.cls-56{fill:url(#_ÂÁ_Ï_ÌÌ_È_ËÂÌÚ_183-35);}.cls-57{fill:url(#_ÂÁ_Ï_ÌÌ_È_ËÂÌÚ_183-36);}.cls-58{fill:url(#_ÂÁ_Ï_ÌÌ_È_ËÂÌÚ_183-37);}.cls-59{fill:url(#_ÂÁ_Ï_ÌÌ_È_ËÂÌÚ_183-38);}.cls-60{fill:url(#_ÂÁ_Ï_ÌÌ_È_ËÂÌÚ_183-39);}.cls-61{fill:url(#_ÂÁ_Ï_ÌÌ_È_ËÂÌÚ_183-40);}.cls-62{fill:url(#_ÂÁ_Ï_ÌÌ_È_ËÂÌÚ_183-41);}.cls-63{fill:url(#_ÂÁ_Ï_ÌÌ_È_ËÂÌÚ_183-42);}.cls-64{fill:url(#_ÂÁ_Ï_ÌÌ_È_ËÂÌÚ_183-43);}.cls-65{fill:url(#_ÂÁ_Ï_ÌÌ_È_ËÂÌÚ_183-44);}.cls-66{fill:url(#_ÂÁ_Ï_ÌÌ_È_ËÂÌÚ_183-45);}.cls-67{fill:url(#_ÂÁ_Ï_ÌÌ_È_ËÂÌÚ_183-46);}.cls-68{fill:url(#_ÂÁ_Ï_ÌÌ_È_ËÂÌÚ_183-47);}.cls-69{fill:url(#_ÂÁ_Ï_ÌÌ_È_ËÂÌÚ_183-48);}.cls-70{mask:url(#mask-6);}.cls-71{fill:url(#linear-gradient-8);}.cls-72{fill:url(#linear-gradient-9);}.cls-73{fill:url(#linear-gradient-10);}.cls-74{fill:url(#radial-gradient-4);}.cls-75{opacity:0.34;}.cls-76{fill:url(#_ÂÁ_Ï_ÌÌ_È_ËÂÌÚ_183-49);}.cls-77{fill:url(#_ÂÁ_Ï_ÌÌ_È_ËÂÌÚ_183-50);}.cls-78{fill:url(#_ÂÁ_Ï_ÌÌ_È_ËÂÌÚ_183-51);}.cls-79{fill:url(#_ÂÁ_Ï_ÌÌ_È_ËÂÌÚ_183-52);}.cls-80{fill:url(#_ÂÁ_Ï_ÌÌ_È_ËÂÌÚ_183-53);}.cls-81{fill:url(#_ÂÁ_Ï_ÌÌ_È_ËÂÌÚ_183-54);}.cls-82{fill:url(#_ÂÁ_Ï_ÌÌ_È_ËÂÌÚ_183-55);}.cls-83{fill:url(#_ÂÁ_Ï_ÌÌ_È_ËÂÌÚ_183-56);}.cls-84{fill:url(#_ÂÁ_Ï_ÌÌ_È_ËÂÌÚ_183-57);}.cls-85{fill:url(#_ÂÁ_Ï_ÌÌ_È_ËÂÌÚ_183-58);}.cls-86{fill:url(#_ÂÁ_Ï_ÌÌ_È_ËÂÌÚ_183-59);}.cls-87{fill:url(#_ÂÁ_Ï_ÌÌ_È_ËÂÌÚ_183-60);}.cls-88{fill:url(#_ÂÁ_Ï_ÌÌ_È_ËÂÌÚ_183-61);}.cls-89{fill:url(#_ÂÁ_Ï_ÌÌ_È_ËÂÌÚ_183-62);}.cls-90{fill:url(#_ÂÁ_Ï_ÌÌ_È_ËÂÌÚ_183-63);}.cls-91{fill:url(#_ÂÁ_Ï_ÌÌ_È_ËÂÌÚ_183-64);}.cls-92{fill:url(#_ÂÁ_Ï_ÌÌ_È_ËÂÌÚ_183-65);}.cls-93{fill:url(#_ÂÁ_Ï_ÌÌ_È_ËÂÌÚ_183-66);}.cls-94{fill:url(#_ÂÁ_Ï_ÌÌ_È_ËÂÌÚ_183-67);}.cls-95{fill:url(#_ÂÁ_Ï_ÌÌ_È_ËÂÌÚ_183-68);}.cls-96{fill:url(#_ÂÁ_Ï_ÌÌ_È_ËÂÌÚ_183-69);}.cls-97{fill:url(#_ÂÁ_Ï_ÌÌ_È_ËÂÌÚ_183-70);}.cls-98{fill:url(#_ÂÁ_Ï_ÌÌ_È_ËÂÌÚ_183-71);}.cls-99{fill:url(#_ÂÁ_Ï_ÌÌ_È_ËÂÌÚ_183-72);}.cls-100{fill:url(#_ÂÁ_Ï_ÌÌ_È_ËÂÌÚ_183-73);}.cls-101{fill:url(#_ÂÁ_Ï_ÌÌ_È_ËÂÌÚ_183-74);}.cls-102{fill:url(#_ÂÁ_Ï_ÌÌ_È_ËÂÌÚ_183-75);}.cls-103{fill:url(#_ÂÁ_Ï_ÌÌ_È_ËÂÌÚ_183-76);}.cls-104{fill:url(#_ÂÁ_Ï_ÌÌ_È_ËÂÌÚ_183-77);}.cls-105{fill:url(#_ÂÁ_Ï_ÌÌ_È_ËÂÌÚ_183-78);}.cls-106{fill:url(#_ÂÁ_Ï_ÌÌ_È_ËÂÌÚ_183-79);}.cls-107{fill:url(#_ÂÁ_Ï_ÌÌ_È_ËÂÌÚ_183-80);}.cls-108{fill:url(#_ÂÁ_Ï_ÌÌ_È_ËÂÌÚ_183-81);}.cls-109{fill:url(#_ÂÁ_Ï_ÌÌ_È_ËÂÌÚ_183-82);}.cls-110{fill:url(#_ÂÁ_Ï_ÌÌ_È_ËÂÌÚ_183-83);}.cls-111{fill:url(#_ÂÁ_Ï_ÌÌ_È_ËÂÌÚ_183-84);}.cls-112{fill:url(#_ÂÁ_Ï_ÌÌ_È_ËÂÌÚ_183-85);}.cls-113{fill:url(#_ÂÁ_Ï_ÌÌ_È_ËÂÌÚ_183-86);}.cls-114{fill:url(#_ÂÁ_Ï_ÌÌ_È_ËÂÌÚ_183-87);}.cls-115{fill:url(#_ÂÁ_Ï_ÌÌ_È_ËÂÌÚ_183-88);}.cls-116{fill:url(#_ÂÁ_Ï_ÌÌ_È_ËÂÌÚ_183-89);}.cls-117{fill:url(#_ÂÁ_Ï_ÌÌ_È_ËÂÌÚ_183-90);}.cls-118{fill:url(#_ÂÁ_Ï_ÌÌ_È_ËÂÌÚ_183-91);}.cls-119{fill:url(#_ÂÁ_Ï_ÌÌ_È_ËÂÌÚ_183-92);}.cls-120{fill:url(#_ÂÁ_Ï_ÌÌ_È_ËÂÌÚ_183-93);}.cls-121{fill:url(#_ÂÁ_Ï_ÌÌ_È_ËÂÌÚ_183-94);}.cls-122{fill:url(#_ÂÁ_Ï_ÌÌ_È_ËÂÌÚ_183-95);}.cls-123{fill:url(#_ÂÁ_Ï_ÌÌ_È_ËÂÌÚ_183-96);}.cls-124{mask:url(#mask-7);}.cls-125{fill:url(#linear-gradient-11);}.cls-126{fill:url(#linear-gradient-12);}.cls-127{fill:url(#radial-gradient-5);}.cls-128{mask:url(#mask-8);}.cls-129{fill:url(#linear-gradient-13);}.cls-130{fill:url(#linear-gradient-14);}.cls-131{fill:url(#linear-gradient-15);}.cls-133{filter:url(#luminosity-noclip-4);}.cls-134{filter:url(#luminosity-noclip-3);}.cls-135{filter:url(#luminosity-noclip-2);}.cls-136{filter:url(#luminosity-noclip);}</style><filter id="luminosity-noclip" x="22.31" y="-8482" width="8.02" height="32766" filterUnits="userSpaceOnUse" color-interpolation-filters="sRGB"><feFlood flood-color="#fff" result="bg"/><feBlend in="SourceGraphic" in2="bg"/></filter><mask id="mask" x="22.31" y="-8482" width="8.02" height="32766" maskUnits="userSpaceOnUse"><g class="cls-136"/></mask><linearGradient id="linear-gradient" x1="204.23" y1="83.63" x2="204.23" y2="73.82" gradientTransform="matrix(1, 0.09, -0.09, 1, -170.01, -67.8)" gradientUnits="userSpaceOnUse"><stop offset="0" stop-color="#ccc"/><stop offset="0.64" stop-color="#f0f0f0"/><stop offset="1" stop-color="#fff"/></linearGradient><filter id="luminosity-noclip-2" x="68.19" y="-8482" width="11.4" height="32766" filterUnits="userSpaceOnUse" color-interpolation-filters="sRGB"><feFlood flood-color="#fff" result="bg"/><feBlend in="SourceGraphic" in2="bg"/></filter><mask id="mask-2" x="68.19" y="-8482" width="11.4" height="32766" maskUnits="userSpaceOnUse"><g class="cls-135"/></mask><linearGradient id="linear-gradient-2" x1="73.88" y1="36.68" x2="73.88" y2="24.19" gradientTransform="matrix(1, 0, 0, 1, 0, 0)" xlink:href="#linear-gradient"/><filter id="luminosity-noclip-3" x="20.6" y="-8482" width="16.53" height="32766" filterUnits="userSpaceOnUse" color-interpolation-filters="sRGB"><feFlood flood-color="#fff" result="bg"/><feBlend in="SourceGraphic" in2="bg"/></filter><mask id="mask-3" x="20.6" y="-8482" width="16.53" height="32766" maskUnits="userSpaceOnUse"><g class="cls-134"/></mask><linearGradient id="linear-gradient-3" x1="-414.08" y1="-174" x2="-414.08" y2="-191.75" gradientTransform="translate(475.37 138.11) rotate(-14.42)" xlink:href="#linear-gradient"/><filter id="luminosity-noclip-4" x="47.77" y="-8482" width="23.54" height="32766" filterUnits="userSpaceOnUse" color-interpolation-filters="sRGB"><feFlood flood-color="#fff" result="bg"/><feBlend in="SourceGraphic" in2="bg"/></filter><mask id="mask-4" x="47.77" y="-8482" width="23.54" height="32766" maskUnits="userSpaceOnUse"><g class="cls-133"/></mask><linearGradient id="linear-gradient-4" x1="729.39" y1="237.69" x2="729.39" y2="213.9" gradientTransform="translate(-557.24 -376.22) rotate(18.92)" xlink:href="#linear-gradient"/><radialGradient id="radial-gradient" cx="-61.41" cy="40.88" r="47.67" gradientTransform="translate(108.1 10.96) scale(0.94 0.95)" gradientUnits="userSpaceOnUse"><stop offset="0" stop-color="#01bee4"/><stop offset="1" stop-color="#2d2d91"/></radialGradient><radialGradient id="radial-gradient-2" cx="-38.33" cy="24.26" fy="15.045793857276465" r="9.32" gradientTransform="translate(108.19 8.22) scale(0.97 0.97)" gradientUnits="userSpaceOnUse"><stop offset="0" stop-color="#fd90ce"/><stop offset="1" stop-color="#ad01fd"/></radialGradient><radialGradient id="radial-gradient-3" cx="-88" cy="7.64" fy="-0.9577482330506069" r="8.71" gradientTransform="translate(102.66 24.08) scale(0.83 0.83)" gradientUnits="userSpaceOnUse"><stop offset="0" stop-color="#fda200"/><stop offset="1" stop-color="#e86100"/></radialGradient><filter id="luminosity-noclip-5" x="22.31" y="24.12" width="8.02" height="9.64" filterUnits="userSpaceOnUse" color-interpolation-filters="sRGB"><feFlood flood-color="#fff" result="bg"/><feBlend in="SourceGraphic" in2="bg"/></filter><mask id="mask-5" x="22.31" y="24.12" width="8.02" height="9.64" maskUnits="userSpaceOnUse"><g class="cls-1"><path class="cls-2" d="M25.13,31a.86.86,0,0,0,.26-1.24c-.51-.61-1.16.13-1.24.64s.28,1.1.9.66l.08-.06m-1.3-1.85c-.69.73-1.13.41-1.15-.33a3.26,3.26,0,0,1,.67-1.86,3.44,3.44,0,0,0,0,.42v0c-.52.71-.44,1.31-.16,1.25a1.26,1.26,0,0,0,.62-1.55,5.13,5.13,0,0,1,.53-.51s0,.06,0,.09c.24.76,1.07-.16,1.15-.32s.08-.66-.35-.52a1.73,1.73,0,0,0-.44.24V26a2.1,2.1,0,0,1,0-.41c1.58-1.09,1.79.09,1.69.61-.16.79-1.26,1.73-1.9,1.43h0a2.2,2.2,0,0,1-.66,1.47m1.88,2.62a1.19,1.19,0,0,1-1.8-.27c-1.27-2.18,1.8-4.3,3.07-3.83a1.56,1.56,0,0,1,.46,2.62c-.2-.27-.4-.54-.58-.8a.59.59,0,0,0-.4-1,2.27,2.27,0,0,0-1.11.49,1.3,1.3,0,0,1,1.1,1.31,1.66,1.66,0,0,1-.74,1.52m1.05.66c2.17-1.27,3.18-4.62,2-6.64-2.09-2.76-5.84-.22-6.33,3.37s2.24,4.49,4.34,3.27m.42.58c-1.29.69-3.54.8-4.43-.81a5.27,5.27,0,0,1-.4-2.76l.06-.42a6.91,6.91,0,0,1,.29-1,5.27,5.27,0,0,1,.46-1,6.13,6.13,0,0,1,.62-.9l.63-.65C27.13,23,30,24.69,30,27.66A6.2,6.2,0,0,1,27.18,33m.22.28c2.69-1.43,3.63-5.59,2.39-7.77-.73-1-2.34-2.29-4.91-.45a7.64,7.64,0,0,0-1.1,1,5.89,5.89,0,0,0-.62.9,6.31,6.31,0,0,0-.75,2,6.23,6.23,0,0,0-.1,1.09v.42c0,.12,0,.28,0,.39.71,4.47,5,2.4,5,2.37"/></g></mask><linearGradient id="linear-gradient-5" x1="204.23" y1="83.63" x2="204.23" y2="73.82" gradientTransform="matrix(1, 0.09, -0.09, 1, -170.01, -67.8)" gradientUnits="userSpaceOnUse"><stop offset="0" stop-color="#9fa19f"/><stop offset="0.38" stop-color="#c8c9c8"/><stop offset="0.79" stop-color="#f0f0f0"/><stop offset="1" stop-color="#fff"/></linearGradient><linearGradient id="linear-gradient-6" x1="202.32" y1="79.59" x2="202.32" y2="74.99" gradientTransform="matrix(1, 0.09, -0.09, 1, -170.01, -67.8)" gradientUnits="userSpaceOnUse"><stop offset="0"/><stop offset="0.5" stop-color="#141212"/><stop offset="1" stop-color="#231f20"/></linearGradient><linearGradient id="linear-gradient-7" x1="203.79" y1="81.94" x2="203.79" y2="77.34" xlink:href="#linear-gradient-6"/><linearGradient id="_ÂÁ_Ï_ÌÌ_È_ËÂÌÚ_183" x1="-1584.56" y1="-330.52" x2="-1554.83" y2="-345.88" gradientTransform="translate(1623.34 -121.48) rotate(-18.05)" gradientUnits="userSpaceOnUse"><stop offset="0" stop-color="#333"/><stop offset="0.63" stop-color="#565656"/><stop offset="1" stop-color="#666"/></linearGradient><linearGradient id="_ÂÁ_Ï_ÌÌ_È_ËÂÌÚ_183-2" x1="-1584.34" y1="-330.13" x2="-1554.61" y2="-345.5" xlink:href="#_ÂÁ_Ï_ÌÌ_È_ËÂÌÚ_183"/><linearGradient id="_ÂÁ_Ï_ÌÌ_È_ËÂÌÚ_183-3" x1="-1582.68" y1="-326.71" x2="-1552.77" y2="-342.18" xlink:href="#_ÂÁ_Ï_ÌÌ_È_ËÂÌÚ_183"/><linearGradient id="_ÂÁ_Ï_ÌÌ_È_ËÂÌÚ_183-4" x1="-1578.83" y1="-319.56" x2="-1549.1" y2="-334.93" xlink:href="#_ÂÁ_Ï_ÌÌ_È_ËÂÌÚ_183"/><linearGradient id="_ÂÁ_Ï_ÌÌ_È_ËÂÌÚ_183-5" x1="-1578.71" y1="-319.21" x2="-1548.82" y2="-334.66" xlink:href="#_ÂÁ_Ï_ÌÌ_È_ËÂÌÚ_183"/><linearGradient id="_ÂÁ_Ï_ÌÌ_È_ËÂÌÚ_183-6" x1="-1580.73" y1="-323.01" x2="-1550.81" y2="-338.48" xlink:href="#_ÂÁ_Ï_ÌÌ_È_ËÂÌÚ_183"/><linearGradient id="_ÂÁ_Ï_ÌÌ_È_ËÂÌÚ_183-7" x1="-1577.01" y1="-316.07" x2="-1547.28" y2="-331.44" xlink:href="#_ÂÁ_Ï_ÌÌ_È_ËÂÌÚ_183"/><linearGradient id="_ÂÁ_Ï_ÌÌ_È_ËÂÌÚ_183-8" x1="-1576.86" y1="-315.67" x2="-1546.93" y2="-331.14" xlink:href="#_ÂÁ_Ï_ÌÌ_È_ËÂÌÚ_183"/><linearGradient id="_ÂÁ_Ï_ÌÌ_È_ËÂÌÚ_183-9" x1="-1583.74" y1="-328.8" x2="-1553.83" y2="-344.26" xlink:href="#_ÂÁ_Ï_ÌÌ_È_ËÂÌÚ_183"/><linearGradient id="_ÂÁ_Ï_ÌÌ_È_ËÂÌÚ_183-10" x1="-1583.34" y1="-328.37" x2="-1553.62" y2="-343.74" xlink:href="#_ÂÁ_Ï_ÌÌ_È_ËÂÌÚ_183"/><linearGradient id="_ÂÁ_Ï_ÌÌ_È_ËÂÌÚ_183-11" x1="-1581.89" y1="-325.28" x2="-1551.98" y2="-340.74" xlink:href="#_ÂÁ_Ï_ÌÌ_È_ËÂÌÚ_183"/><linearGradient id="_ÂÁ_Ï_ÌÌ_È_ËÂÌÚ_183-12" x1="-1581.64" y1="-324.8" x2="-1551.71" y2="-340.27" xlink:href="#_ÂÁ_Ï_ÌÌ_È_ËÂÌÚ_183"/><linearGradient id="_ÂÁ_Ï_ÌÌ_È_ËÂÌÚ_183-13" x1="-1577.83" y1="-317.78" x2="-1548.1" y2="-333.15" xlink:href="#_ÂÁ_Ï_ÌÌ_È_ËÂÌÚ_183"/><linearGradient id="_ÂÁ_Ï_ÌÌ_È_ËÂÌÚ_183-14" x1="-1577.74" y1="-317.53" x2="-1547.91" y2="-332.95" xlink:href="#_ÂÁ_Ï_ÌÌ_È_ËÂÌÚ_183"/><linearGradient id="_ÂÁ_Ï_ÌÌ_È_ËÂÌÚ_183-15" x1="-1579.95" y1="-321.59" x2="-1550.03" y2="-337.06" xlink:href="#_ÂÁ_Ï_ÌÌ_È_ËÂÌÚ_183"/><linearGradient id="_ÂÁ_Ï_ÌÌ_È_ËÂÌÚ_183-16" x1="-1579.65" y1="-321.03" x2="-1549.72" y2="-336.5" xlink:href="#_ÂÁ_Ï_ÌÌ_È_ËÂÌÚ_183"/><linearGradient id="_ÂÁ_Ï_ÌÌ_È_ËÂÌÚ_183-17" x1="-1576.15" y1="-314.38" x2="-1546.24" y2="-329.84" xlink:href="#_ÂÁ_Ï_ÌÌ_È_ËÂÌÚ_183"/><linearGradient id="_ÂÁ_Ï_ÌÌ_È_ËÂÌÚ_183-18" x1="-1575.91" y1="-313.96" x2="-1546.01" y2="-329.42" xlink:href="#_ÂÁ_Ï_ÌÌ_È_ËÂÌÚ_183"/><linearGradient id="_ÂÁ_Ï_ÌÌ_È_ËÂÌÚ_183-19" x1="-1582.76" y1="-326.99" x2="-1552.83" y2="-342.46" xlink:href="#_ÂÁ_Ï_ÌÌ_È_ËÂÌÚ_183"/><linearGradient id="_ÂÁ_Ï_ÌÌ_È_ËÂÌÚ_183-20" x1="-1582.45" y1="-326.62" x2="-1552.63" y2="-342.04" xlink:href="#_ÂÁ_Ï_ÌÌ_È_ËÂÌÚ_183"/><linearGradient id="_ÂÁ_Ï_ÌÌ_È_ËÂÌÚ_183-21" x1="-1580.9" y1="-323.47" x2="-1550.98" y2="-338.94" xlink:href="#_ÂÁ_Ï_ÌÌ_È_ËÂÌÚ_183"/><linearGradient id="_ÂÁ_Ï_ÌÌ_È_ËÂÌÚ_183-22" x1="-1580.61" y1="-322.93" x2="-1550.68" y2="-338.4" xlink:href="#_ÂÁ_Ï_ÌÌ_È_ËÂÌÚ_183"/><linearGradient id="_ÂÁ_Ï_ÌÌ_È_ËÂÌÚ_183-23" x1="-1576.96" y1="-315.97" x2="-1547.03" y2="-331.44" xlink:href="#_ÂÁ_Ï_ÌÌ_È_ËÂÌÚ_183"/><linearGradient id="_ÂÁ_Ï_ÌÌ_È_ËÂÌÚ_183-24" x1="-1576.71" y1="-315.57" x2="-1546.81" y2="-331.02" xlink:href="#_ÂÁ_Ï_ÌÌ_È_ËÂÌÚ_183"/><linearGradient id="_ÂÁ_Ï_ÌÌ_È_ËÂÌÚ_183-25" x1="-1578.89" y1="-319.64" x2="-1548.97" y2="-335.11" xlink:href="#_ÂÁ_Ï_ÌÌ_È_ËÂÌÚ_183"/><linearGradient id="_ÂÁ_Ï_ÌÌ_È_ËÂÌÚ_183-26" x1="-1578.64" y1="-319.17" x2="-1548.7" y2="-334.65" xlink:href="#_ÂÁ_Ï_ÌÌ_È_ËÂÌÚ_183"/><linearGradient id="_ÂÁ_Ï_ÌÌ_È_ËÂÌÚ_183-27" x1="-1575.16" y1="-312.58" x2="-1545.24" y2="-328.04" xlink:href="#_ÂÁ_Ï_ÌÌ_È_ËÂÌÚ_183"/><linearGradient id="_ÂÁ_Ï_ÌÌ_È_ËÂÌÚ_183-28" x1="-1574.86" y1="-312.01" x2="-1544.93" y2="-327.49" xlink:href="#_ÂÁ_Ï_ÌÌ_È_ËÂÌÚ_183"/><linearGradient id="_ÂÁ_Ï_ÌÌ_È_ËÂÌÚ_183-29" x1="-1581.8" y1="-325.23" x2="-1551.87" y2="-340.7" xlink:href="#_ÂÁ_Ï_ÌÌ_È_ËÂÌÚ_183"/><linearGradient id="_ÂÁ_Ï_ÌÌ_È_ËÂÌÚ_183-30" x1="-1581.5" y1="-324.68" x2="-1551.57" y2="-340.16" xlink:href="#_ÂÁ_Ï_ÌÌ_È_ËÂÌÚ_183"/><linearGradient id="_ÂÁ_Ï_ÌÌ_È_ËÂÌÚ_183-31" x1="-1579.83" y1="-321.5" x2="-1549.9" y2="-336.97" xlink:href="#_ÂÁ_Ï_ÌÌ_È_ËÂÌÚ_183"/><linearGradient id="_ÂÁ_Ï_ÌÌ_È_ËÂÌÚ_183-32" x1="-1579.57" y1="-321.23" x2="-1549.74" y2="-336.65" xlink:href="#_ÂÁ_Ï_ÌÌ_È_ËÂÌÚ_183"/><linearGradient id="_ÂÁ_Ï_ÌÌ_È_ËÂÌÚ_183-33" x1="-1576" y1="-314.29" x2="-1546.11" y2="-329.74" xlink:href="#_ÂÁ_Ï_ÌÌ_È_ËÂÌÚ_183"/><linearGradient id="_ÂÁ_Ï_ÌÌ_È_ËÂÌÚ_183-34" x1="-1575.7" y1="-313.67" x2="-1545.77" y2="-329.15" xlink:href="#_ÂÁ_Ï_ÌÌ_È_ËÂÌÚ_183"/><linearGradient id="_ÂÁ_Ï_ÌÌ_È_ËÂÌÚ_183-35" x1="-1577.94" y1="-317.96" x2="-1548.04" y2="-333.41" xlink:href="#_ÂÁ_Ï_ÌÌ_È_ËÂÌÚ_183"/><linearGradient id="_ÂÁ_Ï_ÌÌ_È_ËÂÌÚ_183-36" x1="-1577.63" y1="-317.41" x2="-1547.74" y2="-332.87" xlink:href="#_ÂÁ_Ï_ÌÌ_È_ËÂÌÚ_183"/><linearGradient id="_ÂÁ_Ï_ÌÌ_È_ËÂÌÚ_183-37" x1="-1574.12" y1="-310.71" x2="-1544.22" y2="-326.17" xlink:href="#_ÂÁ_Ï_ÌÌ_È_ËÂÌÚ_183"/><linearGradient id="_ÂÁ_Ï_ÌÌ_È_ËÂÌÚ_183-38" x1="-1573.69" y1="-310.19" x2="-1543.96" y2="-325.56" xlink:href="#_ÂÁ_Ï_ÌÌ_È_ËÂÌÚ_183"/><linearGradient id="_ÂÁ_Ï_ÌÌ_È_ËÂÌÚ_183-39" x1="-1580.75" y1="-323.57" x2="-1550.93" y2="-338.99" xlink:href="#_ÂÁ_Ï_ÌÌ_È_ËÂÌÚ_183"/><linearGradient id="_ÂÁ_Ï_ÌÌ_È_ËÂÌÚ_183-40" x1="-1580.34" y1="-323.04" x2="-1550.61" y2="-338.41" xlink:href="#_ÂÁ_Ï_ÌÌ_È_ËÂÌÚ_183"/><linearGradient id="_ÂÁ_Ï_ÌÌ_È_ËÂÌÚ_183-41" x1="-1578.97" y1="-319.91" x2="-1549.03" y2="-335.39" xlink:href="#_ÂÁ_Ï_ÌÌ_È_ËÂÌÚ_183"/><linearGradient id="_ÂÁ_Ï_ÌÌ_È_ËÂÌÚ_183-42" x1="-1578.66" y1="-319.44" x2="-1548.76" y2="-334.9" xlink:href="#_ÂÁ_Ï_ÌÌ_È_ËÂÌÚ_183"/><linearGradient id="_ÂÁ_Ï_ÌÌ_È_ËÂÌÚ_183-43" x1="-1575" y1="-312.61" x2="-1545.18" y2="-328.03" xlink:href="#_ÂÁ_Ï_ÌÌ_È_ËÂÌÚ_183"/><linearGradient id="_ÂÁ_Ï_ÌÌ_È_ËÂÌÚ_183-44" x1="-1574.79" y1="-312.04" x2="-1544.87" y2="-327.5" xlink:href="#_ÂÁ_Ï_ÌÌ_È_ËÂÌÚ_183"/><linearGradient id="_ÂÁ_Ï_ÌÌ_È_ËÂÌÚ_183-45" x1="-1576.95" y1="-316.08" x2="-1547.01" y2="-331.56" xlink:href="#_ÂÁ_Ï_ÌÌ_È_ËÂÌÚ_183"/><linearGradient id="_ÂÁ_Ï_ÌÌ_È_ËÂÌÚ_183-46" x1="-1576.63" y1="-315.74" x2="-1546.8" y2="-331.16" xlink:href="#_ÂÁ_Ï_ÌÌ_È_ËÂÌÚ_183"/><linearGradient id="_ÂÁ_Ï_ÌÌ_È_ËÂÌÚ_183-47" x1="-1573.22" y1="-309.01" x2="-1543.29" y2="-324.49" xlink:href="#_ÂÁ_Ï_ÌÌ_È_ËÂÌÚ_183"/><linearGradient id="_ÂÁ_Ï_ÌÌ_È_ËÂÌÚ_183-48" x1="-1572.92" y1="-308.49" x2="-1543" y2="-323.96" xlink:href="#_ÂÁ_Ï_ÌÌ_È_ËÂÌÚ_183"/><filter id="luminosity-noclip-6" x="68.19" y="24.19" width="11.4" height="12.49" filterUnits="userSpaceOnUse" color-interpolation-filters="sRGB"><feFlood flood-color="#fff" result="bg"/><feBlend in="SourceGraphic" in2="bg"/></filter><mask id="mask-6" x="68.19" y="24.19" width="11.4" height="12.49" maskUnits="userSpaceOnUse"><g class="cls-3"><path class="cls-4" d="M77.92,30.43c0,1.69-.57,2.2-1,1.71-.16-.16-.36-.35-.32-3.79,0-.62.23-.62.37-.61,1,.19,1,2.1,1,2.69M75,32.73c.06-.37.11-.75.14-1.14H75a24.42,24.42,0,0,0-2.6-.21c.61-1,2-1.08,2.52-2.13a1.92,1.92,0,0,0-.3-2.1c-.72-.8-3.56-1.73-3.73,1.12h1.22a1.18,1.18,0,0,1,.22-.85,1,1,0,0,1,1.53.53c.13.7-.23,1-1.14,1.65-1.38,1-1.82,1.52-1.86,2.93a25.1,25.1,0,0,1,4,.2H75m3.66-1.89c.11-3-1.75-4.44-2.67-3.88s-.41,4.4-.4,4.44c.21,1.52.94,1.77,1.3,1.89,1.54.33,1.74-1.79,1.77-2.45m.58.61C79,34.76,75.08,37.27,71.62,34c-4-3.78-2-9.2,2.27-9.21a6.27,6.27,0,0,1,5.34,6.65m.24.33c.47-4.37-4.43-9.14-8.33-6.76-4.86,3-2.1,10.2,3,11.25a4.85,4.85,0,0,0,5.32-4.49m.09.17c-.26,3.57-4.71,7.1-9.06,2.63C65.82,29.76,69,24.16,73.41,24.19A7.26,7.26,0,0,1,79.56,32"/></g></mask><linearGradient id="linear-gradient-8" x1="73.88" y1="36.68" x2="73.88" y2="24.19" gradientUnits="userSpaceOnUse"><stop offset="0" stop-color="#d0ced1"/><stop offset="0.62" stop-color="#f0f0f1"/><stop offset="1" stop-color="#fff"/></linearGradient><linearGradient id="linear-gradient-9" x1="73.04" y1="32.73" x2="73.04" y2="26.35" gradientTransform="matrix(1, 0, 0, 1, 0, 0)" xlink:href="#linear-gradient-6"/><linearGradient id="linear-gradient-10" x1="77.05" y1="33.34" x2="77.05" y2="26.86" gradientTransform="matrix(1, 0, 0, 1, 0, 0)" xlink:href="#linear-gradient-6"/><radialGradient id="radial-gradient-4" cx="-84.92" cy="50.19" fy="36.013269510064504" r="14.35" gradientTransform="translate(102.66 24.08) scale(0.83 0.83)" gradientUnits="userSpaceOnUse"><stop offset="0" stop-color="#0ed9fd"/><stop offset="1" stop-color="#0068fd"/></radialGradient><linearGradient id="_ÂÁ_Ï_ÌÌ_È_ËÂÌÚ_183-49" x1="-69.34" y1="-8.72" x2="-34.46" y2="-26.75" gradientTransform="translate(91.13 67.35) rotate(17.91)" xlink:href="#_ÂÁ_Ï_ÌÌ_È_ËÂÌÚ_183"/><linearGradient id="_ÂÁ_Ï_ÌÌ_È_ËÂÌÚ_183-50" x1="-69.07" y1="-8.26" x2="-34.2" y2="-26.29" gradientTransform="translate(91.13 67.35) rotate(17.91)" xlink:href="#_ÂÁ_Ï_ÌÌ_È_ËÂÌÚ_183"/><linearGradient id="_ÂÁ_Ï_ÌÌ_È_ËÂÌÚ_183-51" x1="-67.13" y1="-4.21" x2="-31.99" y2="-22.38" gradientTransform="translate(91.13 67.35) rotate(17.91)" xlink:href="#_ÂÁ_Ï_ÌÌ_È_ËÂÌÚ_183"/><linearGradient id="_ÂÁ_Ï_ÌÌ_È_ËÂÌÚ_183-52" x1="-62.54" y1="4.25" x2="-27.67" y2="-13.78" gradientTransform="translate(91.13 67.35) rotate(17.91)" xlink:href="#_ÂÁ_Ï_ÌÌ_È_ËÂÌÚ_183"/><linearGradient id="_ÂÁ_Ï_ÌÌ_È_ËÂÌÚ_183-53" x1="-62.41" y1="4.67" x2="-27.3" y2="-13.49" gradientTransform="translate(91.13 67.35) rotate(17.91)" xlink:href="#_ÂÁ_Ï_ÌÌ_È_ËÂÌÚ_183"/><linearGradient id="_ÂÁ_Ï_ÌÌ_È_ËÂÌÚ_183-54" x1="-64.82" y1="0.17" x2="-29.66" y2="-18" gradientTransform="translate(91.13 67.35) rotate(17.91)" xlink:href="#_ÂÁ_Ï_ÌÌ_È_ËÂÌÚ_183"/><linearGradient id="_ÂÁ_Ï_ÌÌ_È_ËÂÌÚ_183-55" x1="-60.39" y1="8.37" x2="-25.51" y2="-9.66" gradientTransform="translate(91.13 67.35) rotate(17.91)" xlink:href="#_ÂÁ_Ï_ÌÌ_È_ËÂÌÚ_183"/><linearGradient id="_ÂÁ_Ï_ÌÌ_È_ËÂÌÚ_183-56" x1="-60.22" y1="8.86" x2="-25.05" y2="-9.32" gradientTransform="translate(91.13 67.35) rotate(17.91)" xlink:href="#_ÂÁ_Ï_ÌÌ_È_ËÂÌÚ_183"/><linearGradient id="_ÂÁ_Ï_ÌÌ_È_ËÂÌÚ_183-57" x1="-68.37" y1="-6.66" x2="-33.24" y2="-24.83" gradientTransform="translate(91.13 67.35) rotate(17.91)" xlink:href="#_ÂÁ_Ï_ÌÌ_È_ËÂÌÚ_183"/><linearGradient id="_ÂÁ_Ï_ÌÌ_È_ËÂÌÚ_183-58" x1="-67.87" y1="-6.17" x2="-33" y2="-24.2" gradientTransform="translate(91.13 67.35) rotate(17.91)" xlink:href="#_ÂÁ_Ï_ÌÌ_È_ËÂÌÚ_183"/><linearGradient id="_ÂÁ_Ï_ÌÌ_È_ËÂÌÚ_183-59" x1="-66.18" y1="-2.51" x2="-31.04" y2="-20.67" gradientTransform="translate(91.13 67.35) rotate(17.91)" xlink:href="#_ÂÁ_Ï_ÌÌ_È_ËÂÌÚ_183"/><linearGradient id="_ÂÁ_Ï_ÌÌ_È_ËÂÌÚ_183-60" x1="-65.88" y1="-1.93" x2="-30.71" y2="-20.11" gradientTransform="translate(91.13 67.35) rotate(17.91)" xlink:href="#_ÂÁ_Ï_ÌÌ_È_ËÂÌÚ_183"/><linearGradient id="_ÂÁ_Ï_ÌÌ_È_ËÂÌÚ_183-61" x1="-61.33" y1="6.35" x2="-26.46" y2="-11.68" gradientTransform="translate(91.13 67.35) rotate(17.91)" xlink:href="#_ÂÁ_Ï_ÌÌ_È_ËÂÌÚ_183"/><linearGradient id="_ÂÁ_Ï_ÌÌ_È_ËÂÌÚ_183-62" x1="-61.23" y1="6.66" x2="-26.22" y2="-11.44" gradientTransform="translate(91.13 67.35) rotate(17.91)" xlink:href="#_ÂÁ_Ï_ÌÌ_È_ËÂÌÚ_183"/><linearGradient id="_ÂÁ_Ï_ÌÌ_È_ËÂÌÚ_183-63" x1="-63.88" y1="1.86" x2="-28.73" y2="-16.32" gradientTransform="translate(91.13 67.35) rotate(17.91)" xlink:href="#_ÂÁ_Ï_ÌÌ_È_ËÂÌÚ_183"/><linearGradient id="_ÂÁ_Ï_ÌÌ_È_ËÂÌÚ_183-64" x1="-63.52" y1="2.53" x2="-28.35" y2="-15.65" gradientTransform="translate(91.13 67.35) rotate(17.91)" xlink:href="#_ÂÁ_Ï_ÌÌ_È_ËÂÌÚ_183"/><linearGradient id="_ÂÁ_Ï_ÌÌ_È_ËÂÌÚ_183-65" x1="-59.36" y1="10.39" x2="-24.22" y2="-7.78" gradientTransform="translate(91.13 67.35) rotate(17.91)" xlink:href="#_ÂÁ_Ï_ÌÌ_È_ËÂÌÚ_183"/><linearGradient id="_ÂÁ_Ï_ÌÌ_È_ËÂÌÚ_183-66" x1="-59.06" y1="10.89" x2="-23.95" y2="-7.27" gradientTransform="translate(91.13 67.35) rotate(17.91)" xlink:href="#_ÂÁ_Ï_ÌÌ_È_ËÂÌÚ_183"/><linearGradient id="_ÂÁ_Ï_ÌÌ_È_ËÂÌÚ_183-67" x1="-67.19" y1="-4.52" x2="-32.04" y2="-22.69" gradientTransform="translate(91.13 67.35) rotate(17.91)" xlink:href="#_ÂÁ_Ï_ÌÌ_È_ËÂÌÚ_183"/><linearGradient id="_ÂÁ_Ï_ÌÌ_È_ËÂÌÚ_183-68" x1="-66.81" y1="-4.09" x2="-31.79" y2="-22.19" gradientTransform="translate(91.13 67.35) rotate(17.91)" xlink:href="#_ÂÁ_Ï_ÌÌ_È_ËÂÌÚ_183"/><linearGradient id="_ÂÁ_Ï_ÌÌ_È_ËÂÌÚ_183-69" x1="-64.99" y1="-0.35" x2="-29.84" y2="-18.53" gradientTransform="translate(91.13 67.35) rotate(17.91)" xlink:href="#_ÂÁ_Ï_ÌÌ_È_ËÂÌÚ_183"/><linearGradient id="_ÂÁ_Ï_ÌÌ_È_ËÂÌÚ_183-70" x1="-64.63" y1="0.29" x2="-29.48" y2="-17.88" gradientTransform="translate(91.13 67.35) rotate(17.91)" xlink:href="#_ÂÁ_Ï_ÌÌ_È_ËÂÌÚ_183"/><linearGradient id="_ÂÁ_Ï_ÌÌ_È_ËÂÌÚ_183-71" x1="-60.31" y1="8.52" x2="-25.15" y2="-9.66" gradientTransform="translate(91.13 67.35) rotate(17.91)" xlink:href="#_ÂÁ_Ï_ÌÌ_È_ËÂÌÚ_183"/><linearGradient id="_ÂÁ_Ï_ÌÌ_È_ËÂÌÚ_183-72" x1="-60" y1="8.99" x2="-24.88" y2="-9.16" gradientTransform="translate(91.13 67.35) rotate(17.91)" xlink:href="#_ÂÁ_Ï_ÌÌ_È_ËÂÌÚ_183"/><linearGradient id="_ÂÁ_Ï_ÌÌ_È_ËÂÌÚ_183-73" x1="-62.6" y1="4.17" x2="-27.45" y2="-14" gradientTransform="translate(91.13 67.35) rotate(17.91)" xlink:href="#_ÂÁ_Ï_ÌÌ_È_ËÂÌÚ_183"/><linearGradient id="_ÂÁ_Ï_ÌÌ_È_ËÂÌÚ_183-74" x1="-62.29" y1="4.74" x2="-27.13" y2="-13.45" gradientTransform="translate(91.13 67.35) rotate(17.91)" xlink:href="#_ÂÁ_Ï_ÌÌ_È_ËÂÌÚ_183"/><linearGradient id="_ÂÁ_Ï_ÌÌ_È_ËÂÌÚ_183-75" x1="-58.17" y1="12.53" x2="-23.02" y2="-5.64" gradientTransform="translate(91.13 67.35) rotate(17.91)" xlink:href="#_ÂÁ_Ï_ÌÌ_È_ËÂÌÚ_183"/><linearGradient id="_ÂÁ_Ï_ÌÌ_È_ËÂÌÚ_183-76" x1="-57.81" y1="13.2" x2="-22.64" y2="-4.98" gradientTransform="translate(91.13 67.35) rotate(17.91)" xlink:href="#_ÂÁ_Ï_ÌÌ_È_ËÂÌÚ_183"/><linearGradient id="_ÂÁ_Ï_ÌÌ_È_ËÂÌÚ_183-77" x1="-66.05" y1="-2.42" x2="-30.88" y2="-20.6" gradientTransform="translate(91.13 67.35) rotate(17.91)" xlink:href="#_ÂÁ_Ï_ÌÌ_È_ËÂÌÚ_183"/><linearGradient id="_ÂÁ_Ï_ÌÌ_È_ËÂÌÚ_183-78" x1="-65.69" y1="-1.77" x2="-30.52" y2="-19.95" gradientTransform="translate(91.13 67.35) rotate(17.91)" xlink:href="#_ÂÁ_Ï_ÌÌ_È_ËÂÌÚ_183"/><linearGradient id="_ÂÁ_Ï_ÌÌ_È_ËÂÌÚ_183-79" x1="-63.7" y1="1.99" x2="-28.54" y2="-16.19" gradientTransform="translate(91.13 67.35) rotate(17.91)" xlink:href="#_ÂÁ_Ï_ÌÌ_È_ËÂÌÚ_183"/><linearGradient id="_ÂÁ_Ï_ÌÌ_È_ËÂÌÚ_183-80" x1="-63.36" y1="2.29" x2="-28.35" y2="-15.81" gradientTransform="translate(91.13 67.35) rotate(17.91)" xlink:href="#_ÂÁ_Ï_ÌÌ_È_ËÂÌÚ_183"/><linearGradient id="_ÂÁ_Ï_ÌÌ_È_ËÂÌÚ_183-81" x1="-59.15" y1="10.51" x2="-24.04" y2="-7.64" gradientTransform="translate(91.13 67.35) rotate(17.91)" xlink:href="#_ÂÁ_Ï_ÌÌ_È_ËÂÌÚ_183"/><linearGradient id="_ÂÁ_Ï_ÌÌ_È_ËÂÌÚ_183-82" x1="-58.79" y1="11.25" x2="-23.62" y2="-6.93" gradientTransform="translate(91.13 67.35) rotate(17.91)" xlink:href="#_ÂÁ_Ï_ÌÌ_È_ËÂÌÚ_183"/><linearGradient id="_ÂÁ_Ï_ÌÌ_È_ËÂÌÚ_183-83" x1="-61.45" y1="6.17" x2="-26.33" y2="-11.98" gradientTransform="translate(91.13 67.35) rotate(17.91)" xlink:href="#_ÂÁ_Ï_ÌÌ_È_ËÂÌÚ_183"/><linearGradient id="_ÂÁ_Ï_ÌÌ_È_ËÂÌÚ_183-84" x1="-61.08" y1="6.82" x2="-25.97" y2="-11.33" gradientTransform="translate(91.13 67.35) rotate(17.91)" xlink:href="#_ÂÁ_Ï_ÌÌ_È_ËÂÌÚ_183"/><linearGradient id="_ÂÁ_Ï_ÌÌ_È_ËÂÌÚ_183-85" x1="-56.91" y1="14.74" x2="-21.8" y2="-3.41" gradientTransform="translate(91.13 67.35) rotate(17.91)" xlink:href="#_ÂÁ_Ï_ÌÌ_È_ËÂÌÚ_183"/><linearGradient id="_ÂÁ_Ï_ÌÌ_È_ËÂÌÚ_183-86" x1="-56.36" y1="15.35" x2="-21.49" y2="-2.67" gradientTransform="translate(91.13 67.35) rotate(17.91)" xlink:href="#_ÂÁ_Ï_ÌÌ_È_ËÂÌÚ_183"/><linearGradient id="_ÂÁ_Ï_ÌÌ_È_ËÂÌÚ_183-87" x1="-64.76" y1="-0.46" x2="-29.74" y2="-18.56" gradientTransform="translate(91.13 67.35) rotate(17.91)" xlink:href="#_ÂÁ_Ï_ÌÌ_È_ËÂÌÚ_183"/><linearGradient id="_ÂÁ_Ï_ÌÌ_È_ËÂÌÚ_183-88" x1="-64.23" y1="0.15" x2="-29.36" y2="-17.88" gradientTransform="translate(91.13 67.35) rotate(17.91)" xlink:href="#_ÂÁ_Ï_ÌÌ_È_ËÂÌÚ_183"/><linearGradient id="_ÂÁ_Ï_ÌÌ_È_ËÂÌÚ_183-89" x1="-62.66" y1="3.88" x2="-27.49" y2="-14.31" gradientTransform="translate(91.13 67.35) rotate(17.91)" xlink:href="#_ÂÁ_Ï_ÌÌ_È_ËÂÌÚ_183"/><linearGradient id="_ÂÁ_Ï_ÌÌ_È_ËÂÌÚ_183-90" x1="-62.29" y1="4.43" x2="-27.17" y2="-13.72" gradientTransform="translate(91.13 67.35) rotate(17.91)" xlink:href="#_ÂÁ_Ï_ÌÌ_È_ËÂÌÚ_183"/><linearGradient id="_ÂÁ_Ï_ÌÌ_È_ËÂÌÚ_183-91" x1="-57.93" y1="12.5" x2="-22.92" y2="-5.6" gradientTransform="translate(91.13 67.35) rotate(17.91)" xlink:href="#_ÂÁ_Ï_ÌÌ_È_ËÂÌÚ_183"/><linearGradient id="_ÂÁ_Ï_ÌÌ_È_ËÂÌÚ_183-92" x1="-57.7" y1="13.19" x2="-22.54" y2="-4.98" gradientTransform="translate(91.13 67.35) rotate(17.91)" xlink:href="#_ÂÁ_Ï_ÌÌ_È_ËÂÌÚ_183"/><linearGradient id="_ÂÁ_Ï_ÌÌ_È_ËÂÌÚ_183-93" x1="-60.26" y1="8.41" x2="-25.09" y2="-9.77" gradientTransform="translate(91.13 67.35) rotate(17.91)" xlink:href="#_ÂÁ_Ï_ÌÌ_È_ËÂÌÚ_183"/><linearGradient id="_ÂÁ_Ï_ÌÌ_È_ËÂÌÚ_183-94" x1="-59.85" y1="8.8" x2="-24.84" y2="-9.3" gradientTransform="translate(91.13 67.35) rotate(17.91)" xlink:href="#_ÂÁ_Ï_ÌÌ_È_ËÂÌÚ_183"/><linearGradient id="_ÂÁ_Ï_ÌÌ_È_ËÂÌÚ_183-95" x1="-55.84" y1="16.77" x2="-20.67" y2="-1.41" gradientTransform="translate(91.13 67.35) rotate(17.91)" xlink:href="#_ÂÁ_Ï_ÌÌ_È_ËÂÌÚ_183"/><linearGradient id="_ÂÁ_Ï_ÌÌ_È_ËÂÌÚ_183-96" x1="-55.47" y1="17.39" x2="-20.32" y2="-0.78" gradientTransform="translate(91.13 67.35) rotate(17.91)" xlink:href="#_ÂÁ_Ï_ÌÌ_È_ËÂÌÚ_183"/><filter id="luminosity-noclip-7" x="20.6" y="54.89" width="16.53" height="18.59" filterUnits="userSpaceOnUse" color-interpolation-filters="sRGB"><feFlood flood-color="#fff" result="bg"/><feBlend in="SourceGraphic" in2="bg"/></filter><mask id="mask-7" x="20.6" y="54.89" width="16.53" height="18.59" maskUnits="userSpaceOnUse"><g class="cls-5"><path class="cls-6" d="M25.44,64.89a1.75,1.75,0,0,1,1-2.17c1.46-.39,1.72,1.6,1.29,2.4s-1.88,1.29-2.32-.23M25.15,61a1.54,1.54,0,0,1,1-1.51c1.14-.34,1.09.74.82,1.26-.43.81-1.59,1.22-1.81.44,0-.06,0-.14,0-.19M24,65.67c.27,1,1.1,2.53,3.51,1.66,3.65-1.68,2.6-5.36.93-5.88a4.42,4.42,0,0,0-.5-.1c1.57-1.56.75-3.23-.59-3.25-2.29,0-4.25,3.08-3.21,4.26a1,1,0,0,0,.54.28,3.08,3.08,0,0,0-.68,3m-2.91.94A10.48,10.48,0,0,1,27.45,55.9c5.39-1.44,10,4.66,6.41,11s-11,6.53-12.62.6c-.06-.26-.13-.6-.17-.86m-.29.59c.62,3.89,3.66,7,9,5.14,8-3.77,9-14.51,1.65-16.9-6.11-2-11.56,6.32-10.68,11.76m-.1.29a12.07,12.07,0,0,1,7.37-12.34c5.48-1.59,11.71,4.3,7.92,12s-12.82,8.64-15,1.56c-.05-.17-.24-1.12-.25-1.18"/></g></mask><linearGradient id="linear-gradient-11" x1="-414.08" y1="-174" x2="-414.08" y2="-191.75" gradientTransform="translate(475.37 138.11) rotate(-14.42)" gradientUnits="userSpaceOnUse"><stop offset="0" stop-color="#cecfd1"/><stop offset="0.62" stop-color="#f0f0f1"/><stop offset="1" stop-color="#fff"/></linearGradient><linearGradient id="linear-gradient-12" x1="-415.97" y1="-180.03" x2="-415.97" y2="-189.14" gradientTransform="translate(475.37 138.11) rotate(-14.42)" xlink:href="#linear-gradient-6"/><radialGradient id="radial-gradient-5" cx="-55.7" cy="55.5" fy="36.60247929191645" r="19.13" gradientTransform="translate(102.66 24.08) scale(0.83 0.83)" gradientUnits="userSpaceOnUse"><stop offset="0" stop-color="#fd4000"/><stop offset="1" stop-color="#800002"/></radialGradient><filter id="luminosity-noclip-8" x="47.77" y="62.39" width="23.54" height="22.89" filterUnits="userSpaceOnUse" color-interpolation-filters="sRGB"><feFlood flood-color="#fff" result="bg"/><feBlend in="SourceGraphic" in2="bg"/></filter><mask id="mask-8" x="47.77" y="62.39" width="23.54" height="22.89" maskUnits="userSpaceOnUse"><g class="cls-7"><path class="cls-8" d="M58.75,71.18v0h0c-.69.66-2.3,2.2-4.63,4.19,1,.35,1.93.68,2.91,1,1.07-3,1.73-5.1,1.74-5.12M60,78.93l-1.29-.31c-.32.77-.65,1.48-1,2.13-.72-.19-1.44-.39-2.16-.61.27-.66.56-1.38.86-2.16-1.53-.46-3-1-4.47-1.58.18-.61.38-1.25.59-1.91,3.39-2.87,4.93-4.18,6.59-5.8.8.25,1.62.48,2.43.68a54.73,54.73,0,0,1-1.75,6.33c-.14.43-.29.84-.44,1.25l1.31.31c-.22.58-.45,1.14-.69,1.67m5.34,2.86a24.1,24.1,0,0,1-5.51-.56L59,81.06c.74-1.14,1.27-2,3.94-3.27,6.73-3.3,3.79-5.63,2.69-5.43-.94.16-1.24,1.19-1.5,2.11l-1.46-.27L62,74.05c1.81-5.65,5.75-3.73,6.45-2.35a4.94,4.94,0,0,1-.56,4.62c-1.31,1.86-3.59,2.29-5.27,3.61a21.41,21.41,0,0,0,3.86.26,15.83,15.83,0,0,1-1.14,1.6m3.9-4a9,9,0,0,0-6.69-13.06c-10-.65-16.39,10.38-10,17.12,4.89,5.13,13.81,2,16.66-4.06m.66,0A13.16,13.16,0,0,1,56,84.82C47.45,82.5,45.36,70.53,54.89,65.1c10.39-5.91,17.93,3,15.55,11.19-.06.21-.57,1.41-.57,1.41m.28,0a10.58,10.58,0,0,0-7.63-15.24C53,61.9,42.78,72.57,50.47,81.8c5.79,6.94,16.65,2.42,19.68-4.15"/></g></mask><linearGradient id="linear-gradient-13" x1="729.39" y1="237.69" x2="729.39" y2="213.9" gradientTransform="translate(-557.24 -376.22) rotate(18.92)" gradientUnits="userSpaceOnUse"><stop offset="0" stop-color="#a4a1a2"/><stop offset="0.36" stop-color="#cac8c9"/><stop offset="0.78" stop-color="#f0f0f0"/><stop offset="1" stop-color="#fff"/></linearGradient><linearGradient id="linear-gradient-14" x1="727.24" y1="233.05" x2="727.24" y2="220.92" gradientTransform="translate(-557.24 -376.22) rotate(18.92)" xlink:href="#linear-gradient-6"/><linearGradient id="linear-gradient-15" x1="734.71" y1="232.79" x2="734.71" y2="220.18" gradientTransform="translate(-557.24 -376.22) rotate(18.92)" xlink:href="#linear-gradient-6"/></defs><ellipse class="cls-9" cx="50.18" cy="49.81" rx="45.16" ry="45.12"/><path class="cls-10" d="M99.93,47.76c0-.24,0-.48,0-.72a48.7,48.7,0,0,0-.74-6.28c-.05-.26-.09-.51-.15-.76a47.4,47.4,0,0,0-1.67-6.21q-.15-.45-.3-.87c-.31-.84-.63-1.68-1-2.5q-.78-1.83-1.68-3.57l-.56-1.05A48.72,48.72,0,0,0,90,20c-.33-.44-.66-.88-1-1.31a49.65,49.65,0,0,0-3.64-4.05c-.51-.51-1-1-1.56-1.49A49.76,49.76,0,0,0,15,14.59l-.47.48c-.45.46-.9.94-1.33,1.42a49.86,49.86,0,0,0-4.49,5.77c-.24.36-.48.73-.71,1.11a48.94,48.94,0,0,0-3.23,6l-.39.9-.06.13a49,49,0,0,0-2.11,6.07L2,37.24A49.82,49.82,0,0,0,.77,43.55c0,.23-.05.45-.08.68a51.74,51.74,0,0,0-.31,5.58c0,.26,0,.52,0,.77s0,.44,0,.66A49.62,49.62,0,0,0,1,57.59c0,.23.07.46.11.69a48.38,48.38,0,0,0,1.51,6.29c.08.26.16.52.25.79.43,1.3.91,2.58,1.44,3.85.33.78.68,1.54,1,2.3.15.32.31.64.47,1a50.52,50.52,0,0,0,3.59,6l.87,1.2A52.29,52.29,0,0,0,15,85l.25.24c.53.53,1.08,1,1.64,1.55a49.81,49.81,0,0,0,52.68,8.86,49.14,49.14,0,0,0,11.79-7,51,51,0,0,0,4-3.62q.88-.89,1.71-1.8.63-.69,1.23-1.41a48.19,48.19,0,0,0,4.19-5.77c.23-.37.45-.74.67-1.11a49.63,49.63,0,0,0,2.88-5.74c0-.09.07-.19.11-.28.13-.3.25-.61.37-.91a48.28,48.28,0,0,0,2-6.18l.18-.78a47.25,47.25,0,0,0,1-6.28c0-.23,0-.47.07-.71Q100,52,100,49.81C100,49.13,100,48.44,99.93,47.76Zm-4.88,7.16a45.66,45.66,0,0,1-1.1,6c-.09.36-.18.71-.28,1.06a45.36,45.36,0,0,1-2.1,5.9c-.18.4-.36.8-.55,1.2a44.45,44.45,0,0,1-3.24,5.71c-.32.49-.65,1-1,1.43a45.18,45.18,0,0,1-4.62,5.44c-.61.61-1.24,1.2-1.88,1.77a45.2,45.2,0,0,1-55.62,3.62c-.91-.62-1.79-1.28-2.65-2a45.1,45.1,0,0,1-5.59-5.29c-.44-.5-.88-1-1.3-1.53a44.71,44.71,0,0,1-3.92-5.64c-.25-.42-.48-.83-.71-1.26A43.1,43.1,0,0,1,7.83,65.5l-.39-1.07a46.17,46.17,0,0,1-1.6-6c-.06-.32-.12-.64-.17-1a45.21,45.21,0,0,1-.62-6.08c0-.31,0-.62,0-.93s0-.42,0-.64a44.68,44.68,0,0,1,.33-5.45l.12-1a46.11,46.11,0,0,1,1.29-6c.1-.35.2-.69.31-1a44.61,44.61,0,0,1,2.32-5.92c.19-.4.39-.8.59-1.19a45.56,45.56,0,0,1,3.5-5.72c.35-.48.7-1,1.07-1.43a44.9,44.9,0,0,1,5-5.42c.67-.62,1.37-1.23,2.08-1.81A45.22,45.22,0,0,1,76.71,13.3a45.6,45.6,0,0,1,5.94,5.16c.52.54,1,1.09,1.52,1.65a45.18,45.18,0,0,1,4.15,5.54c.28.44.55.89.82,1.34A45,45,0,0,1,92,32.77c.16.38.31.77.45,1.15a45.72,45.72,0,0,1,1.78,5.94c.08.34.15.69.22,1a45.64,45.64,0,0,1,.79,6c0,.33,0,.65.05,1,0,.64,0,1.28,0,1.92,0,1.39-.06,2.77-.18,4.12C95.11,54.26,95.08,54.59,95.05,54.92Z"/><path class="cls-11" d="M39.68,14.31A36.73,36.73,0,0,0,22,25.81a74.27,74.27,0,0,0,8.65,3.34,45,45,0,0,1,3-7,29.14,29.14,0,0,1,6-7.82m0,71.1a29.42,29.42,0,0,1-6-7.81,44.67,44.67,0,0,1-3-7A74.27,74.27,0,0,0,22,73.91,36.75,36.75,0,0,0,39.67,85.41ZM78.11,73.63a79.67,79.67,0,0,0-8.83-3.22,45.68,45.68,0,0,1-3.09,7.19,29.25,29.25,0,0,1-6,7.81A36.74,36.74,0,0,0,78.11,73.63ZM60.23,14.31a29.14,29.14,0,0,1,6,7.82,45.57,45.57,0,0,1,3.09,7.18,77.7,77.7,0,0,0,8.83-3.22A36.74,36.74,0,0,0,60.23,14.31ZM48,32.16V14.09c-4.94,1-8.65,5.67-10.94,9.89a41.36,41.36,0,0,0-2.71,6.22A64.22,64.22,0,0,0,48,32.16ZM34.38,69.52a40.92,40.92,0,0,0,2.71,6.22c2.29,4.22,6,8.89,10.94,9.9V67.57A63.57,63.57,0,0,0,34.38,69.52Zm17.5-2V85.64c4.94-1,8.65-5.68,10.94-9.9a40.33,40.33,0,0,0,2.74-6.33A66.52,66.52,0,0,0,51.88,67.56ZM65.56,30.32A40.44,40.44,0,0,0,62.82,24c-2.29-4.22-6-8.88-10.94-9.89V32.16A66.51,66.51,0,0,0,65.56,30.32ZM19.63,70.76a79,79,0,0,1,9.93-3.9,67.06,67.06,0,0,1-2.1-15.51H13.25A37,37,0,0,0,19.63,70.76ZM48,51.35H31.31A62.85,62.85,0,0,0,33.26,65.8,67.65,67.65,0,0,1,48,63.69ZM66.67,65.69a62.43,62.43,0,0,0,1.92-14.34H51.88V63.68A70.3,70.3,0,0,1,66.67,65.69Zm20-14.34H72.44A66.2,66.2,0,0,1,70.38,66.7a84.42,84.42,0,0,1,10.1,3.75A37,37,0,0,0,86.65,51.35ZM70.38,33a65.9,65.9,0,0,1,2,14.45H86.61a37,37,0,0,0-6.13-18.2A84.42,84.42,0,0,1,70.38,33ZM51.88,47.47H68.57A62.22,62.22,0,0,0,66.67,34a70.32,70.32,0,0,1-14.79,2ZM33.26,33.92a62.54,62.54,0,0,0-1.92,13.55H48V36A68.27,68.27,0,0,1,33.26,33.92ZM19.63,29A37.09,37.09,0,0,0,13.3,47.47H27.49a66.17,66.17,0,0,1,2.07-14.61A77.47,77.47,0,0,1,19.63,29ZM50,9.08A40.78,40.78,0,1,1,9.49,49.86,40.63,40.63,0,0,1,50,9.08Z"/><ellipse class="cls-12" cx="71.18" cy="31.82" rx="9" ry="9.07"/><circle class="cls-13" cx="29.28" cy="30.45" r="7.26"/><g class="cls-14"><g class="cls-15"><path class="cls-16" d="M25.13,31a.86.86,0,0,0,.26-1.24c-.51-.61-1.16.13-1.24.64s.28,1.1.9.66l.08-.06m-1.3-1.85c-.69.73-1.13.41-1.15-.33a3.26,3.26,0,0,1,.67-1.86,3.44,3.44,0,0,0,0,.42v0c-.52.71-.44,1.31-.16,1.25a1.26,1.26,0,0,0,.62-1.55,5.13,5.13,0,0,1,.53-.51s0,.06,0,.09c.24.76,1.07-.16,1.15-.32s.08-.66-.35-.52a1.73,1.73,0,0,0-.44.24V26a2.1,2.1,0,0,1,0-.41c1.58-1.09,1.79.09,1.69.61-.16.79-1.26,1.73-1.9,1.43h0a2.2,2.2,0,0,1-.66,1.47m1.88,2.62a1.19,1.19,0,0,1-1.8-.27c-1.27-2.18,1.8-4.3,3.07-3.83a1.56,1.56,0,0,1,.46,2.62c-.2-.27-.4-.54-.58-.8a.59.59,0,0,0-.4-1,2.27,2.27,0,0,0-1.11.49,1.3,1.3,0,0,1,1.1,1.31,1.66,1.66,0,0,1-.74,1.52m1.05.66c2.17-1.27,3.18-4.62,2-6.64-2.09-2.76-5.84-.22-6.33,3.37s2.24,4.49,4.34,3.27m.42.58c-1.29.69-3.54.8-4.43-.81a5.27,5.27,0,0,1-.4-2.76l.06-.42a6.91,6.91,0,0,1,.29-1,5.27,5.27,0,0,1,.46-1,6.13,6.13,0,0,1,.62-.9l.63-.65C27.13,23,30,24.69,30,27.66A6.2,6.2,0,0,1,27.18,33m.22.28c2.69-1.43,3.63-5.59,2.39-7.77-.73-1-2.34-2.29-4.91-.45a7.64,7.64,0,0,0-1.1,1,5.89,5.89,0,0,0-.62.9,6.31,6.31,0,0,0-.75,2,6.23,6.23,0,0,0-.1,1.09v.42c0,.12,0,.28,0,.39.71,4.47,5,2.4,5,2.37"/></g><path class="cls-17" d="M24.49,27.65h0c.7.32,2.18-.83,1.88-2-.09-.24-.35-.95-1.67,0a2.1,2.1,0,0,0,0,.41v.06a1.73,1.73,0,0,1,.44-.24c.43-.14.49.27.35.52s-.91,1.08-1.15.32c0,0,0-.06,0-.09a5.13,5.13,0,0,0-.53.51,1.26,1.26,0,0,1-.62,1.55c-.24.05-.41-.45.16-1.25h0v0a3.44,3.44,0,0,1,0-.42,3.26,3.26,0,0,0-.67,1.86c0,.74.46,1.06,1.15.33A2.2,2.2,0,0,0,24.49,27.65Z"/><path class="cls-18" d="M27.56,28.05c-1.58-1.55-4,1.05-4,2.45,0,.91.89,2.1,2.12,1.24a1.58,1.58,0,0,0-.19-2.8h-.17v0c1.72-1.2,1.72.18,1.72.2a.69.69,0,0,1-.21.35c.18.26.38.53.58.8A1.46,1.46,0,0,0,27.56,28.05ZM25.13,31c-.35.29-.64.28-.85,0-.43-.73.29-1.58.81-1.45A.82.82,0,0,1,25.13,31Z"/></g><path class="cls-19" d="M32.2,64.06a2,2,0,0,1-1.94-1.34l-8.53-24.9a2.1,2.1,0,0,1,1.35-2.61l20.58-7.16a2.28,2.28,0,0,1,.73-.12,2,2,0,0,1,1.94,1.34l8.53,24.9a2.08,2.08,0,0,1-1.35,2.61L32.93,63.94A2.28,2.28,0,0,1,32.2,64.06Z"/><path class="cls-20" d="M44.39,29a1,1,0,0,1,1,.64l8.53,24.9a1.05,1.05,0,0,1-.71,1.29L32.59,63a1.34,1.34,0,0,1-.39.07,1,1,0,0,1-1-.65l-8.53-24.9a1.05,1.05,0,0,1,.71-1.29L44,29a1.32,1.32,0,0,1,.39-.06m0-2.08a3.29,3.29,0,0,0-1.07.18L22.74,34.23a3.12,3.12,0,0,0-2,3.92l8.53,24.91a3.07,3.07,0,0,0,2.92,2,3.29,3.29,0,0,0,1.07-.18l20.58-7.16a3.13,3.13,0,0,0,2-3.92l-8.53-24.9a3.06,3.06,0,0,0-2.92-2.05Z"/><path class="cls-21" d="M52.33,55.05l-19.55,6.8a.78.78,0,0,1-1-.49L25,41.49a.79.79,0,0,1,.49-1L45,33.69a.76.76,0,0,1,1,.49L52.82,54A.8.8,0,0,1,52.33,55.05Z"/><path class="cls-19" d="M47.37,37.38,47.25,37l-3.8,1.32-1.31-3.83-.35.12,1.32,3.83-4.18,1.45-1.31-3.83-.34.12L38.59,40l-4.17,1.45-1.31-3.83-.35.12,1.31,3.83L29.9,43.06l-1.31-3.83-.34.12,1.31,3.83-3.8,1.32.12.35,3.8-1.32,1.44,4.2-3.8,1.33.12.34,3.79-1.32,1.44,4.21-3.79,1.32L29,54l3.8-1.32,1.44,4.21-3.8,1.32.12.35,3.8-1.33L35.66,61l.35-.12L34.7,57.06l4.17-1.45,1.31,3.83.34-.12-1.31-3.83L43.38,54l1.32,3.83.34-.12-1.31-3.83,4.17-1.45,1.31,3.83.35-.12-1.32-3.83L52,51l-.12-.35L48.13,52l-1.44-4.2,3.79-1.32-.11-.35-3.8,1.32-1.44-4.2,3.8-1.32-.12-.35L45,42.9l-1.44-4.2Zm-8.66,3,1.44,4.2L36,46l-1.44-4.2Zm1.56,4.55,1.44,4.2-4.17,1.45-1.44-4.2ZM30,43.41,34.19,42l1.44,4.2-4.17,1.45ZM31.58,48l4.17-1.45,1.44,4.2L33,52.17Zm3,8.76-1.44-4.21,4.17-1.45,1.44,4.21Zm4.51-1.57-1.44-4.21,4.18-1.45,1.44,4.2Zm8.69-3-4.17,1.45-1.44-4.2,4.17-1.45Zm-1.56-4.55L42.05,49l-1.44-4.2,4.17-1.45ZM44.66,43l-4.17,1.45-1.44-4.2,4.17-1.45Z"/><path class="cls-22" d="M26.77,41.39l.67,2-.49.16-.36-1.06a1.46,1.46,0,0,0-.11-.27s0,0-.08-.05l-.23.05-.05,0L26.05,42a.94.94,0,0,0,.43-.5Z"/><path class="cls-23" d="M27.71,41.06l.67,2-.49.17-.36-1.06a1.17,1.17,0,0,0-.1-.27.1.1,0,0,0-.08-.05.52.52,0,0,0-.23.05h-.05L27,41.66a.94.94,0,0,0,.43-.5Z"/><path class="cls-24" d="M29.41,47.12l.12.33-1.08.38-.1-.29q.21-.95.24-1.17a.8.8,0,0,0,0-.32.19.19,0,0,0-.07-.11.08.08,0,0,0-.09,0,.08.08,0,0,0-.07.07.34.34,0,0,0,0,.18l.06.19-.44.15,0-.07a1.35,1.35,0,0,1-.07-.27.38.38,0,0,1,0-.21.45.45,0,0,1,.12-.21.68.68,0,0,1,.24-.13.64.64,0,0,1,.49,0,.52.52,0,0,1,.28.32,1,1,0,0,1,0,.39,9,9,0,0,1-.23,1Z"/><path class="cls-25" d="M31.06,54.64l.67,2-.49.17-.36-1.06c-.05-.15-.09-.24-.1-.27a.11.11,0,0,0-.09-.05.48.48,0,0,0-.22.05l0,0-.08-.23a1,1,0,0,0,.43-.51Z"/><path class="cls-26" d="M32.32,54.21l.1.32-.6.21.11.33a.42.42,0,0,1,.25-.24.44.44,0,0,1,.34,0,.76.76,0,0,1,.26.41l.09.28a1.78,1.78,0,0,1,.09.31.44.44,0,0,1,0,.22.46.46,0,0,1-.13.19,1,1,0,0,1-.28.14.87.87,0,0,1-.35,0,.43.43,0,0,1-.27-.13,1,1,0,0,1-.2-.39l0-.1.49-.17,0,.12a2.32,2.32,0,0,0,.11.27.1.1,0,0,0,.12.05.12.12,0,0,0,0-.05.13.13,0,0,0,0-.06s0-.09-.08-.23l-.13-.39a.4.4,0,0,0-.08-.15s0,0-.09,0a.1.1,0,0,0-.05,0,.13.13,0,0,0,0,.06.62.62,0,0,0,0,.11l-.49.17-.31-1Z"/><path class="cls-27" d="M30.51,50.88a.38.38,0,0,1,.21.07,1.08,1.08,0,0,1,.2.4,1,1,0,0,1,.07.37.4.4,0,0,1-.11.25,1,1,0,0,1-.34.19.69.69,0,0,1-.36.05.45.45,0,0,1-.25-.12,1.26,1.26,0,0,1-.19-.36,1.56,1.56,0,0,1-.07-.32.32.32,0,0,1,.1-.28.25.25,0,0,1-.19-.09.7.7,0,0,1-.13-.23.57.57,0,0,1,0-.43.67.67,0,0,1,.38-.27.64.64,0,0,1,.49,0,.57.57,0,0,1,.26.35.46.46,0,0,1,0,.24A.44.44,0,0,1,30.51,50.88Zm-.13.49c0-.08-.05-.13-.08-.15a.08.08,0,0,0-.08,0,.09.09,0,0,0-.06.06.8.8,0,0,0,0,.16l.09.26a.38.38,0,0,0,.08.16.13.13,0,0,0,.09,0s.05,0,.05-.07,0-.08,0-.17Zm-.29-.82a.31.31,0,0,0-.06-.13.08.08,0,0,0-.08,0,.09.09,0,0,0-.06.06.58.58,0,0,0,0,.14l0,.15c0,.06,0,.1.06.11a.08.08,0,0,0,.08,0s.05,0,.06-.06a.64.64,0,0,0,0-.15Z"/><path class="cls-28" d="M32.47,58.8l.68,2-.49.17-.36-1.06c-.06-.15-.09-.24-.11-.27a.09.09,0,0,0-.08,0,.52.52,0,0,0-.23,0l-.05,0-.08-.23a.91.91,0,0,0,.43-.51Z"/><path class="cls-29" d="M34.05,59l.22.66a2.14,2.14,0,0,1,.09.33.62.62,0,0,1,0,.23.45.45,0,0,1-.14.19.71.71,0,0,1-.23.12.59.59,0,0,1-.3.06.41.41,0,0,1-.23-.06.46.46,0,0,1-.16-.15.89.89,0,0,1-.13-.29l-.24-.69A1.49,1.49,0,0,1,32.8,59a.45.45,0,0,1,.11-.28.79.79,0,0,1,.31-.2.85.85,0,0,1,.31,0,.52.52,0,0,1,.23.07.57.57,0,0,1,.15.16A2.21,2.21,0,0,1,34.05,59Zm-.55,0a1,1,0,0,0-.08-.19.09.09,0,0,0-.09,0s0,0,0,.07a.51.51,0,0,0,0,.2l.33,1a.78.78,0,0,0,.09.2.08.08,0,0,0,.08,0,.07.07,0,0,0,.06-.07.57.57,0,0,0-.05-.19Z"/><path class="cls-30" d="M31.63,41.54l.12.34-1.08.37-.1-.28c.14-.64.22-1,.24-1.18a.65.65,0,0,0,0-.32.23.23,0,0,0-.07-.11.09.09,0,0,0-.09,0,.1.1,0,0,0-.07.07.38.38,0,0,0,0,.19l.06.18-.43.16,0-.08a1.48,1.48,0,0,1-.07-.26.57.57,0,0,1,0-.22.37.37,0,0,1,.12-.2.69.69,0,0,1,.24-.14.62.62,0,0,1,.5,0,.49.49,0,0,1,.27.31,1,1,0,0,1,0,.39,8.1,8.1,0,0,1-.22,1Z"/><path class="cls-31" d="M32,39.57l.67,2-.49.17-.36-1.06a1.83,1.83,0,0,0-.1-.27.11.11,0,0,0-.09,0,.51.51,0,0,0-.22,0l-.05,0-.08-.23a1,1,0,0,0,.43-.51Z"/><path class="cls-32" d="M32.9,45.91l.11.34-1.08.37-.09-.28q.21-1,.24-1.17a1.09,1.09,0,0,0,0-.33.23.23,0,0,0-.07-.11.11.11,0,0,0-.1,0,.12.12,0,0,0-.07.07.42.42,0,0,0,0,.19l.06.19-.44.15,0-.07a1.5,1.5,0,0,1-.08-.27.57.57,0,0,1,0-.22.53.53,0,0,1,.13-.2.69.69,0,0,1,.24-.14.68.68,0,0,1,.49,0,.51.51,0,0,1,.27.32.78.78,0,0,1,0,.38,6.45,6.45,0,0,1-.22,1Z"/><path class="cls-33" d="M33,45.66l.49-.17a.6.6,0,0,0,.07.17.06.06,0,0,0,.05.05h.07a.07.07,0,0,0,.06,0,.15.15,0,0,0,0-.07,1.24,1.24,0,0,1-.05-.15l-.11-.31a.26.26,0,0,1-.07.15.29.29,0,0,1-.16.1.36.36,0,0,1-.27,0,.33.33,0,0,1-.19-.13A1.29,1.29,0,0,1,32.8,45l0-.16a1.83,1.83,0,0,1-.09-.32.38.38,0,0,1,0-.21.39.39,0,0,1,.14-.2.93.93,0,0,1,.26-.15.9.9,0,0,1,.34,0,.5.5,0,0,1,.25.09.49.49,0,0,1,.16.19c0,.07.08.22.16.43l.09.28c.08.23.13.39.15.47a.53.53,0,0,1-.15.49,1.06,1.06,0,0,1-.28.15.69.69,0,0,1-.36,0,.37.37,0,0,1-.25-.12A.74.74,0,0,1,33,45.66Zm.28-.79a.27.27,0,0,0,.09.15h.07a.09.09,0,0,0,.07-.06.64.64,0,0,0,0-.15l-.12-.36a.44.44,0,0,0-.08-.16.08.08,0,0,0-.09,0l-.06,0a.35.35,0,0,0,0,.18Z"/><path class="cls-34" d="M35.4,53.15l.67,2-.49.17-.36-1.06a1.46,1.46,0,0,0-.11-.27s0,0-.08-.05a.78.78,0,0,0-.23.05l0,0-.07-.23a.94.94,0,0,0,.43-.5Z"/><path class="cls-35" d="M36.45,52.78l.15.43.21,1.66-.49.17-.2-1.75-.49.17-.12-.35Z"/><path class="cls-36" d="M34,49.68a.35.35,0,0,1,.21.06,1,1,0,0,1,.19.39.85.85,0,0,1,.07.38.36.36,0,0,1-.11.26A.82.82,0,0,1,34,51a.81.81,0,0,1-.39,0,.48.48,0,0,1-.24-.14,1.26,1.26,0,0,1-.17-.38l-.06-.16.49-.16.11.32a.52.52,0,0,0,.07.15.08.08,0,0,0,.08,0s.06,0,.06-.07a1,1,0,0,0-.06-.24l-.05-.14a.35.35,0,0,0-.08-.15.14.14,0,0,0-.1-.05l-.2.05-.09-.29.21-.08a.12.12,0,0,0,0-.08.49.49,0,0,0,0-.15l0-.11a.3.3,0,0,0-.07-.13.06.06,0,0,0-.07,0s-.06,0-.06.06a.24.24,0,0,0,0,.15l.05.17-.48.16-.06-.16a.45.45,0,0,1,0-.43.63.63,0,0,1,.37-.24.68.68,0,0,1,.52,0,.58.58,0,0,1,.26.34.38.38,0,0,1-.08.45Z"/><path class="cls-37" d="M35.48,49l.22.66a1.94,1.94,0,0,1,.09.34.42.42,0,0,1,0,.22.48.48,0,0,1-.14.2.84.84,0,0,1-.23.12,1,1,0,0,1-.31.06.44.44,0,0,1-.23-.06,1.17,1.17,0,0,1-.16-.15,1.53,1.53,0,0,1-.13-.3l-.23-.69a1.23,1.23,0,0,1-.1-.42.43.43,0,0,1,.11-.28.67.67,0,0,1,.31-.2.68.68,0,0,1,.31,0,.43.43,0,0,1,.24.07.54.54,0,0,1,.15.15A3.33,3.33,0,0,1,35.48,49Zm-.55,0a.71.71,0,0,0-.08-.2.08.08,0,0,0-.08,0,.07.07,0,0,0-.06.07.6.6,0,0,0,0,.2l.33,1a.74.74,0,0,0,.08.2.07.07,0,0,0,.09,0,.06.06,0,0,0,.05-.06.44.44,0,0,0,0-.19Z"/><path class="cls-38" d="M37.34,59l.11.33-1.07.38-.1-.29q.21-.95.24-1.17a1,1,0,0,0,0-.32.19.19,0,0,0-.07-.11.09.09,0,0,0-.1,0,.1.1,0,0,0-.07.07.65.65,0,0,0,0,.18l.06.19-.44.15,0-.07a1.35,1.35,0,0,1-.07-.27.42.42,0,0,1,0-.22.47.47,0,0,1,.12-.2.68.68,0,0,1,.24-.13.64.64,0,0,1,.49,0,.53.53,0,0,1,.28.32.82.82,0,0,1,0,.39,6.43,6.43,0,0,1-.22,1Z"/><path class="cls-39" d="M38,56.88l.11.32-.61.21.11.33a.41.41,0,0,1,.25-.23.39.39,0,0,1,.35,0,.68.68,0,0,1,.25.4l.1.28a2.91,2.91,0,0,1,.08.32.5.5,0,0,1,0,.21.49.49,0,0,1-.14.19.86.86,0,0,1-.27.14.78.78,0,0,1-.36,0,.39.39,0,0,1-.27-.13,1,1,0,0,1-.2-.38l0-.11.49-.17.05.12a1.44,1.44,0,0,0,.1.27.09.09,0,0,0,.12,0,.1.1,0,0,0,0,0,.15.15,0,0,0,0-.06s0-.1-.08-.24L38,58a.58.58,0,0,0-.07-.14.1.1,0,0,0-.09,0,.07.07,0,0,0,0,0,.14.14,0,0,0,0,.06.45.45,0,0,0,0,.11l-.48.17-.32-1Z"/><path class="cls-40" d="M35.71,39.28a.31.31,0,0,1,.21.07,1,1,0,0,1,.19.38,1.34,1.34,0,0,1,.07.38.47.47,0,0,1-.12.27.82.82,0,0,1-.31.18.83.83,0,0,1-.39,0,.36.36,0,0,1-.24-.14,1,1,0,0,1-.18-.38l0-.15.49-.17.11.32a.64.64,0,0,0,.07.16s0,0,.08,0a.13.13,0,0,0,.06-.07,1.1,1.1,0,0,0-.06-.24l0-.13a.46.46,0,0,0-.08-.16.14.14,0,0,0-.1,0l-.2,0-.1-.28a.74.74,0,0,0,.21-.09.09.09,0,0,0,0-.08.49.49,0,0,0,0-.15l0-.11a.46.46,0,0,0-.07-.13.08.08,0,0,0-.08,0,.09.09,0,0,0-.06.06.64.64,0,0,0,0,.15l.06.17-.49.17-.06-.17a.52.52,0,0,1,0-.43.66.66,0,0,1,.38-.24.68.68,0,0,1,.52,0,.6.6,0,0,1,.25.34.55.55,0,0,1,0,.26A.42.42,0,0,1,35.71,39.28Z"/><path class="cls-41" d="M36.65,38l.15.43L37,40.08l-.49.17-.2-1.74-.48.16-.12-.35Z"/><path class="cls-42" d="M37,43.65a.37.37,0,0,1,.21.06,1.13,1.13,0,0,1,.19.39,1.28,1.28,0,0,1,.07.38.42.42,0,0,1-.12.26.71.71,0,0,1-.31.19.83.83,0,0,1-.39,0,.41.41,0,0,1-.24-.14,1,1,0,0,1-.18-.38l0-.16.49-.16.11.32a.34.34,0,0,0,.07.15s0,0,.08,0a.13.13,0,0,0,.06-.07,1,1,0,0,0-.06-.24l-.05-.14a.5.5,0,0,0-.08-.15.14.14,0,0,0-.1-.05l-.2.05-.1-.29.21-.08a.09.09,0,0,0,0-.08.49.49,0,0,0,0-.15l0-.11a.31.31,0,0,0-.06-.13.08.08,0,0,0-.08,0,.09.09,0,0,0-.06.06.64.64,0,0,0,0,.15l.06.17-.49.16-.06-.16a.52.52,0,0,1,0-.43.66.66,0,0,1,.38-.24.68.68,0,0,1,.52,0,.57.57,0,0,1,.25.34.55.55,0,0,1,0,.26A.42.42,0,0,1,37,43.65Z"/><path class="cls-43" d="M38.3,43.19a.28.28,0,0,1,.21.07.84.84,0,0,1,.19.38.89.89,0,0,1,.07.39.38.38,0,0,1-.11.26.75.75,0,0,1-.32.18.7.7,0,0,1-.39.05.47.47,0,0,1-.24-.13,1.56,1.56,0,0,1-.17-.38l-.06-.16.49-.17.11.32a.5.5,0,0,0,.07.16.08.08,0,0,0,.08,0,.07.07,0,0,0,.06-.07,1.07,1.07,0,0,0-.06-.23l0-.14a.34.34,0,0,0-.08-.16.13.13,0,0,0-.1,0,.52.52,0,0,0-.19,0l-.1-.29.21-.09a.1.1,0,0,0,0-.08.64.64,0,0,0,0-.15l0-.11a.3.3,0,0,0-.07-.13.08.08,0,0,0-.07,0s-.06,0-.06.06a.28.28,0,0,0,0,.16l.06.16-.49.17-.06-.17a.46.46,0,0,1,0-.43.74.74,0,0,1,.37-.24.63.63,0,0,1,.52,0,.55.55,0,0,1,.26.34.39.39,0,0,1,0,.25A.38.38,0,0,1,38.3,43.19Z"/><path class="cls-44" d="M39.83,51.64l.44,1.29.13,0,.12.34-.14.05.12.34-.49.17-.12-.34-.58.2-.12-.34V51.86Zm0,1.46-.29-.84.07.91Z"/><path class="cls-45" d="M41.14,51.18l.1.32-.6.21.11.34a.44.44,0,0,1,.59-.23c.1,0,.18.18.26.4l.09.28a1.83,1.83,0,0,1,.09.32.39.39,0,0,1,0,.21.41.41,0,0,1-.14.19.57.57,0,0,1-.27.14.73.73,0,0,1-.35,0,.42.42,0,0,1-.27-.12,1.16,1.16,0,0,1-.2-.39l0-.11.49-.17,0,.13a1.43,1.43,0,0,0,.11.26.09.09,0,0,0,.12.05.1.1,0,0,0,0,0,.06.06,0,0,0,0-.06s0-.1-.07-.24l-.13-.39a.34.34,0,0,0-.08-.14.07.07,0,0,0-.09,0,.07.07,0,0,0-.05,0,.09.09,0,0,0,0,.05.36.36,0,0,0,0,.11l-.49.17-.31-1Z"/><path class="cls-46" d="M38.33,47.24l.44,1.29.14,0,.12.33-.14,0,.11.35-.49.17L38.4,49l-.59.2-.11-.34,0-1.43Zm0,1.46L38,47.86l.07.92Z"/><path class="cls-47" d="M40,47.43l.22.66a2.14,2.14,0,0,1,.09.33.62.62,0,0,1,0,.23.45.45,0,0,1-.14.19.71.71,0,0,1-.23.12.93.93,0,0,1-.3.06.41.41,0,0,1-.23-.06.46.46,0,0,1-.16-.15,1,1,0,0,1-.13-.29l-.24-.69a1.49,1.49,0,0,1-.09-.43.45.45,0,0,1,.11-.28.79.79,0,0,1,.31-.2.85.85,0,0,1,.31,0,.52.52,0,0,1,.23.07.57.57,0,0,1,.15.16A2.21,2.21,0,0,1,40,47.43Zm-.55,0a1,1,0,0,0-.08-.19.09.09,0,0,0-.09,0s-.05,0-.05.07a.51.51,0,0,0,0,.2l.33,1a.78.78,0,0,0,.09.2.08.08,0,0,0,.08,0,.07.07,0,0,0,.06-.07.57.57,0,0,0,0-.19Z"/><path class="cls-48" d="M41.41,56.7a.37.37,0,0,1,.21.06,1.13,1.13,0,0,1,.19.39,1,1,0,0,1,.07.38.37.37,0,0,1-.12.26.71.71,0,0,1-.31.19.69.69,0,0,1-.39,0,.35.35,0,0,1-.24-.13,1.21,1.21,0,0,1-.18-.38l0-.16.49-.17.11.33a.52.52,0,0,0,.07.15.07.07,0,0,0,.08,0s.06,0,.06-.07a1,1,0,0,0-.06-.24l-.05-.14a.3.3,0,0,0-.08-.15.14.14,0,0,0-.1,0l-.2,0-.1-.29.21-.08a.09.09,0,0,0,0-.08.22.22,0,0,0,0-.15l0-.11a.46.46,0,0,0-.07-.13.08.08,0,0,0-.08,0,.09.09,0,0,0-.06.06.41.41,0,0,0,0,.15l.05.16-.49.17-.06-.16a.52.52,0,0,1,0-.43.69.69,0,0,1,.38-.24.68.68,0,0,1,.52,0,.57.57,0,0,1,.25.34.55.55,0,0,1,0,.26A.42.42,0,0,1,41.41,56.7Z"/><path class="cls-49" d="M42,57.15,42.5,57l.06.17a.12.12,0,0,0,0,.05h.08a.12.12,0,0,0,.05-.05.08.08,0,0,0,0-.07s0-.07,0-.14l-.1-.32a.33.33,0,0,1-.07.16.55.55,0,0,1-.17.1.46.46,0,0,1-.26,0,.34.34,0,0,1-.19-.13,1.13,1.13,0,0,1-.13-.27l-.05-.16a1.78,1.78,0,0,1-.09-.31.43.43,0,0,1,.17-.42.71.71,0,0,1,.26-.14.74.74,0,0,1,.34-.06.5.5,0,0,1,.25.09.53.53,0,0,1,.15.19c0,.08.09.22.16.44l.1.27q.12.36.15.48a.53.53,0,0,1,0,.25.51.51,0,0,1-.15.23.69.69,0,0,1-.28.16,1,1,0,0,1-.36,0,.47.47,0,0,1-.25-.13A.67.67,0,0,1,42,57.15Zm.28-.78c0,.08.05.13.08.14a.12.12,0,0,0,.08,0,.09.09,0,0,0,.06-.06.26.26,0,0,0,0-.16l-.12-.36a.38.38,0,0,0-.08-.16.07.07,0,0,0-.09,0s0,0,0,0,0,.09,0,.18Z"/><path class="cls-50" d="M40.08,37.38l-.49.17-.06-.18a.12.12,0,0,0-.05,0H39.4l0,0a.08.08,0,0,0,0,.07s0,.07,0,.15l.1.31a.33.33,0,0,1,.07-.16.55.55,0,0,1,.17-.1.46.46,0,0,1,.26,0,.34.34,0,0,1,.19.13,1.42,1.42,0,0,1,.12.27l.06.16.09.31a.43.43,0,0,1-.17.42.59.59,0,0,1-.26.14.74.74,0,0,1-.34.06.5.5,0,0,1-.25-.09.53.53,0,0,1-.15-.19,3,3,0,0,1-.16-.44l-.1-.27q-.12-.36-.15-.48a.53.53,0,0,1,0-.25.51.51,0,0,1,.15-.23.69.69,0,0,1,.28-.16,1,1,0,0,1,.36,0,.47.47,0,0,1,.25.13A.67.67,0,0,1,40.08,37.38Zm-.28.78a.3.3,0,0,0-.07-.13.09.09,0,0,0-.09,0,.11.11,0,0,0-.06.07.24.24,0,0,0,0,.15l.12.36c0,.09.05.14.08.16a.09.09,0,0,0,.09,0,.1.1,0,0,0,.05-.06s0-.09,0-.18Z"/><path class="cls-51" d="M41.45,37.06l.23.66a1.94,1.94,0,0,1,.09.34.66.66,0,0,1,0,.23.52.52,0,0,1-.14.19.71.71,0,0,1-.23.12,1,1,0,0,1-.3.06.41.41,0,0,1-.23-.06.78.78,0,0,1-.16-.15,1.44,1.44,0,0,1-.14-.3l-.23-.69a1.44,1.44,0,0,1-.09-.42.38.38,0,0,1,.11-.28.62.62,0,0,1,.31-.2.64.64,0,0,1,.3,0,.43.43,0,0,1,.24.07.54.54,0,0,1,.15.15A1.86,1.86,0,0,1,41.45,37.06Zm-.54,0-.08-.2s0,0-.09,0-.05,0-.06.07a1.08,1.08,0,0,0,0,.2l.33,1a.63.63,0,0,0,.09.2.06.06,0,0,0,.08,0s.06,0,.06-.06a.88.88,0,0,0,0-.19Z"/><path class="cls-52" d="M41.44,41.13l.44,1.29.14-.05.12.34-.14,0,.12.35-.49.17-.12-.35-.58.2-.12-.34V41.35Zm0,1.46-.28-.84.07.91Z"/><path class="cls-53" d="M42.5,40.76l.15.43.21,1.66-.48.17-.21-1.75-.48.17-.12-.35Z"/><path class="cls-54" d="M44.28,50.08l.11.31-.61.21.12.34a.36.36,0,0,1,.24-.24.46.46,0,0,1,.35,0,.72.72,0,0,1,.25.4l.1.29a2.87,2.87,0,0,1,.08.31.5.5,0,0,1,0,.21.43.43,0,0,1-.14.19.87.87,0,0,1-.27.15,1,1,0,0,1-.36.05.49.49,0,0,1-.27-.13,1.07,1.07,0,0,1-.2-.39l0-.11.49-.17,0,.13a1.44,1.44,0,0,0,.1.27.09.09,0,0,0,.12,0s0,0,0,0a.13.13,0,0,0,0-.06l-.08-.23-.13-.39a.34.34,0,0,0-.07-.15.1.1,0,0,0-.09,0,.07.07,0,0,0,0,0l0,0a.49.49,0,0,0,0,.12l-.48.16-.32-1Z"/><path class="cls-55" d="M45,51.44l.49-.17.06.17a.08.08,0,0,0,0,.05h.08a.1.1,0,0,0,.05,0,.09.09,0,0,0,0-.07,1.26,1.26,0,0,0-.05-.15l-.1-.31a.26.26,0,0,1-.07.15.4.4,0,0,1-.17.1.39.39,0,0,1-.26,0,.3.3,0,0,1-.19-.13,1.13,1.13,0,0,1-.13-.27l-.05-.15a1.83,1.83,0,0,1-.09-.32.5.5,0,0,1,0-.21.48.48,0,0,1,.15-.2.71.71,0,0,1,.26-.15.88.88,0,0,1,.34,0,.37.37,0,0,1,.25.09.4.4,0,0,1,.15.19c0,.07.09.22.16.43l.1.28c.08.23.13.39.15.47a.5.5,0,0,1-.16.49.82.82,0,0,1-.28.15.67.67,0,0,1-.36.05.45.45,0,0,1-.25-.12A.73.73,0,0,1,45,51.44Zm.28-.79c0,.09,0,.13.08.15a.11.11,0,0,0,.08,0,.09.09,0,0,0,.06-.06.24.24,0,0,0,0-.15l-.12-.36a.44.44,0,0,0-.08-.17s-.05,0-.09,0a.08.08,0,0,0,0,.05s0,.09,0,.18Z"/><path class="cls-56" d="M42.79,45.68l.11.32-.61.21.12.33a.37.37,0,0,1,.24-.23.42.42,0,0,1,.35,0,.76.76,0,0,1,.25.41l.1.28a1.56,1.56,0,0,1,.08.31.57.57,0,0,1,0,.22.49.49,0,0,1-.14.19,1.13,1.13,0,0,1-.27.14.92.92,0,0,1-.36,0,.43.43,0,0,1-.27-.13,1,1,0,0,1-.2-.39l0-.1.49-.17,0,.12c0,.13.08.22.1.27a.09.09,0,0,0,.12.05.08.08,0,0,0,0-.05s0,0,0,0,0-.1-.07-.24l-.14-.39a.29.29,0,0,0-.07-.14.08.08,0,0,0-.09,0,.1.1,0,0,0,0,0,.14.14,0,0,0,0,.06.62.62,0,0,0,0,.11l-.48.17-.32-1Z"/><path class="cls-57" d="M44.12,45.22l.11.32-.61.21.12.33a.38.38,0,0,1,.25-.23.4.4,0,0,1,.34,0,.7.7,0,0,1,.25.41l.1.28a1.56,1.56,0,0,1,.08.31.42.42,0,0,1,0,.22.41.41,0,0,1-.14.19,1.13,1.13,0,0,1-.27.14.87.87,0,0,1-.35.05.43.43,0,0,1-.28-.13,1.14,1.14,0,0,1-.2-.39l0-.1.49-.17,0,.12c0,.13.08.22.1.27a.09.09,0,0,0,.12.05.1.1,0,0,0,.06-.05,0,0,0,0,0,0,0s0-.1-.07-.24l-.14-.39a.29.29,0,0,0-.07-.14s0,0-.09,0a.1.1,0,0,0,0,0,.07.07,0,0,0,0,.06.62.62,0,0,0,0,.11l-.49.17-.32-1Z"/><path class="cls-58" d="M45.93,54.16l.11.31-.61.21.12.34a.36.36,0,0,1,.24-.24.42.42,0,0,1,.35,0,.72.72,0,0,1,.25.4l.1.28a2.91,2.91,0,0,1,.08.32.5.5,0,0,1,0,.21.43.43,0,0,1-.14.19.87.87,0,0,1-.27.15.77.77,0,0,1-.36,0,.42.42,0,0,1-.27-.12,1.16,1.16,0,0,1-.2-.39l0-.11.48-.17.05.13c0,.12.08.21.1.26A.08.08,0,0,0,46,56a.07.07,0,0,0,0,0,.07.07,0,0,0,0-.06s0-.1-.07-.23l-.14-.4a.35.35,0,0,0-.07-.14.08.08,0,0,0-.09,0s0,0,0,0,0,0,0,.05a.49.49,0,0,0,0,.12l-.48.16-.32-1Z"/><path class="cls-59" d="M46.88,53.83l.67,2-.49.17-.36-1.06a1.38,1.38,0,0,0-.11-.28.12.12,0,0,0-.08,0,.94.94,0,0,0-.23.06h-.05l-.07-.23a1,1,0,0,0,.43-.5Z"/><path class="cls-60" d="M44.12,35.39l.15.44.21,1.65-.49.17-.2-1.74-.48.16-.12-.35Z"/><path class="cls-61" d="M45,35.08l.67,2-.49.17-.36-1.06c0-.15-.09-.24-.1-.27a.13.13,0,0,0-.09,0,.68.68,0,0,0-.22,0l-.05,0-.08-.23a.94.94,0,0,0,.43-.5Z"/><path class="cls-62" d="M45.72,40.24l-.49.17c0-.1,0-.15-.06-.18a.08.08,0,0,0-.05,0H45l0,0a.15.15,0,0,0,0,.07s0,.07.05.15l.11.31a.26.26,0,0,1,.07-.16.4.4,0,0,1,.16-.1.46.46,0,0,1,.26,0,.34.34,0,0,1,.19.13,1.13,1.13,0,0,1,.13.27l0,.16a1.78,1.78,0,0,1,.09.31.53.53,0,0,1,0,.22.66.66,0,0,1-.14.2.69.69,0,0,1-.27.14.74.74,0,0,1-.34.06.54.54,0,0,1-.25-.09.45.45,0,0,1-.15-.19c0-.07-.09-.22-.16-.44L44.67,41c-.08-.24-.13-.39-.15-.48a.53.53,0,0,1,0-.25.57.57,0,0,1,.15-.23.75.75,0,0,1,.28-.15.68.68,0,0,1,.36-.05.37.37,0,0,1,.25.12A.67.67,0,0,1,45.72,40.24Zm-.28.78a.22.22,0,0,0-.07-.13.09.09,0,0,0-.09,0,.13.13,0,0,0-.06.07.24.24,0,0,0,0,.15l.12.36a.44.44,0,0,0,.08.16.09.09,0,0,0,.09,0,.1.1,0,0,0,.05-.06s0-.09,0-.18Z"/><path class="cls-63" d="M46.78,39.29l.11.31-.61.21.12.34a.36.36,0,0,1,.24-.24.42.42,0,0,1,.35,0,.72.72,0,0,1,.25.4l.1.28a1.61,1.61,0,0,1,.08.32.5.5,0,0,1,0,.21.43.43,0,0,1-.14.19.87.87,0,0,1-.27.15.91.91,0,0,1-.36,0,.42.42,0,0,1-.27-.12,1.38,1.38,0,0,1-.2-.39l0-.11.49-.17,0,.13c0,.12.08.21.1.26a.09.09,0,0,0,.12,0,.07.07,0,0,0,0,0,.07.07,0,0,0,0-.06s0-.1-.07-.23l-.14-.4a.35.35,0,0,0-.07-.14.08.08,0,0,0-.09,0,.07.07,0,0,0,0,0s0,0,0,0a.36.36,0,0,0,0,.11l-.48.17-.32-1Z"/><path class="cls-64" d="M48.43,48.64l.15.43.21,1.66-.49.17-.2-1.74-.48.16L47.5,49Z"/><path class="cls-65" d="M49.78,49.13a.35.35,0,0,1,.21.07.9.9,0,0,1,.19.39.83.83,0,0,1,.07.38.36.36,0,0,1-.11.26.76.76,0,0,1-.32.19.69.69,0,0,1-.39,0,.41.41,0,0,1-.24-.13A1.4,1.4,0,0,1,49,50L49,49.79l.49-.17.11.32a.5.5,0,0,0,.07.16.06.06,0,0,0,.08,0,.07.07,0,0,0,.06-.07,1.07,1.07,0,0,0-.06-.23l-.05-.14a.4.4,0,0,0-.08-.16.18.18,0,0,0-.1,0l-.2.05-.09-.29.21-.09a.09.09,0,0,0,0-.08.5.5,0,0,0,0-.14l0-.11a.24.24,0,0,0-.07-.13.06.06,0,0,0-.07,0s-.06,0-.06.06a.25.25,0,0,0,0,.15l0,.16-.48.17L48.71,49a.44.44,0,0,1,0-.42.63.63,0,0,1,.37-.24.68.68,0,0,1,.52,0,.58.58,0,0,1,.26.34.42.42,0,0,1,0,.26A.4.4,0,0,1,49.78,49.13Z"/><path class="cls-66" d="M47.45,44.66l-.49.17a1.26,1.26,0,0,0-.07-.17.07.07,0,0,0,0,0,.06.06,0,0,0-.08,0,.07.07,0,0,0-.06,0,.15.15,0,0,0,0,.07.81.81,0,0,1,0,.15l.11.31a.26.26,0,0,1,.07-.15.38.38,0,0,1,.16-.11.42.42,0,0,1,.27,0,.29.29,0,0,1,.19.13,1.29,1.29,0,0,1,.12.26l0,.16a1.62,1.62,0,0,1,.09.32.38.38,0,0,1,0,.21.39.39,0,0,1-.14.2.72.72,0,0,1-.26.14.78.78,0,0,1-.35.06.5.5,0,0,1-.24-.09.58.58,0,0,1-.16-.19c0-.07-.08-.22-.16-.44l-.09-.27c-.08-.23-.13-.39-.15-.47a.53.53,0,0,1,.15-.49,1.06,1.06,0,0,1,.28-.15.69.69,0,0,1,.36,0,.37.37,0,0,1,.25.12A.89.89,0,0,1,47.45,44.66Zm-.28.79a.34.34,0,0,0-.08-.14.06.06,0,0,0-.08,0,.09.09,0,0,0-.07.06.64.64,0,0,0,0,.15l.12.36a.44.44,0,0,0,.08.16.08.08,0,0,0,.09,0,.17.17,0,0,0,.06-.06.33.33,0,0,0,0-.17Z"/><path class="cls-67" d="M48.27,43.79l.14.43.22,1.65-.49.17-.2-1.74-.49.17-.12-.36Z"/><path class="cls-68" d="M50.17,53.28l-.49.17-.06-.17a.08.08,0,0,0,0-.05h-.08a.07.07,0,0,0-.06,0,.08.08,0,0,0,0,.07s0,.07,0,.15l.11.31a.26.26,0,0,1,.07-.15.29.29,0,0,1,.16-.1.36.36,0,0,1,.27,0,.29.29,0,0,1,.19.13,1.29,1.29,0,0,1,.12.26l0,.16a1.83,1.83,0,0,1,.09.32.31.31,0,0,1,0,.21.39.39,0,0,1-.14.2.93.93,0,0,1-.26.15.9.9,0,0,1-.34.05.5.5,0,0,1-.25-.09.49.49,0,0,1-.16-.19c0-.07-.08-.22-.16-.43L49.11,54c-.08-.23-.13-.39-.15-.47a.53.53,0,0,1,.15-.49,1.06,1.06,0,0,1,.28-.15.69.69,0,0,1,.36-.05A.4.4,0,0,1,50,53,.88.88,0,0,1,50.17,53.28Zm-.28.79a.58.58,0,0,0-.07-.14.08.08,0,0,0-.09,0s-.06,0-.06.06a.3.3,0,0,0,0,.15l.12.36a.44.44,0,0,0,.08.16.08.08,0,0,0,.09,0l.06-.05a.35.35,0,0,0,0-.18Z"/><path class="cls-69" d="M51.37,53.24a.37.37,0,0,1,.21.06,1.13,1.13,0,0,1,.19.39,1,1,0,0,1,.07.38.42.42,0,0,1-.12.26.71.71,0,0,1-.31.19.7.7,0,0,1-.39,0,.35.35,0,0,1-.24-.13,1,1,0,0,1-.18-.38l-.05-.16.49-.17.11.33a.52.52,0,0,0,.07.15.07.07,0,0,0,.08,0,.13.13,0,0,0,.06-.07,1,1,0,0,0-.06-.24l0-.14a.4.4,0,0,0-.08-.15.14.14,0,0,0-.1,0l-.2,0-.1-.29a.74.74,0,0,0,.21-.09.07.07,0,0,0,0-.07A.22.22,0,0,0,51,53l0-.11a.46.46,0,0,0-.07-.13.08.08,0,0,0-.08,0,.09.09,0,0,0-.06.06.74.74,0,0,0,0,.15l.06.16-.49.17-.06-.16a.52.52,0,0,1,0-.43.66.66,0,0,1,.38-.24.68.68,0,0,1,.52,0,.57.57,0,0,1,.25.34.55.55,0,0,1,0,.26A.42.42,0,0,1,51.37,53.24Z"/><g class="cls-14"><g class="cls-14"><g class="cls-70"><path class="cls-71" d="M77.92,30.43c0,1.69-.57,2.2-1,1.71-.16-.16-.36-.35-.32-3.79,0-.62.23-.62.37-.61,1,.19,1,2.1,1,2.69M75,32.73c.06-.37.11-.75.14-1.14H75a24.42,24.42,0,0,0-2.6-.21c.61-1,2-1.08,2.52-2.13a1.92,1.92,0,0,0-.3-2.1c-.72-.8-3.56-1.73-3.73,1.12h1.22a1.18,1.18,0,0,1,.22-.85,1,1,0,0,1,1.53.53c.13.7-.23,1-1.14,1.65-1.38,1-1.82,1.52-1.86,2.93a25.1,25.1,0,0,1,4,.2H75m3.66-1.89c.11-3-1.75-4.44-2.67-3.88s-.41,4.4-.4,4.44c.21,1.52.94,1.77,1.3,1.89,1.54.33,1.74-1.79,1.77-2.45m.58.61C79,34.76,75.08,37.27,71.62,34c-4-3.78-2-9.2,2.27-9.21a6.27,6.27,0,0,1,5.34,6.65m.24.33c.47-4.37-4.43-9.14-8.33-6.76-4.86,3-2.1,10.2,3,11.25a4.85,4.85,0,0,0,5.32-4.49m.09.17c-.26,3.57-4.71,7.1-9.06,2.63C65.82,29.76,69,24.16,73.41,24.19A7.26,7.26,0,0,1,79.56,32"/></g><path class="cls-72" d="M74.37,29.89c1.58-1.23.69-3.35-1.49-3.54a1.74,1.74,0,0,0-1.95,1.91h1.22a1.18,1.18,0,0,1,.22-.85,1,1,0,0,1,1.53.53c.13.7-.23,1-1.14,1.65-1.38,1-1.82,1.52-1.86,2.93a25.1,25.1,0,0,1,4,.2H75c.06-.37.11-.75.14-1.14H75a24.42,24.42,0,0,0-2.6-.21C72.9,30.63,73.74,30.4,74.37,29.89Z"/><path class="cls-73" d="M76.56,26.87c-.32,0-1-.09-1.08,1.26,0,.15-.27,3.55.61,4.65.6.75,2.24,1.15,2.53-1.55,0-.12,0-.27,0-.39C78.69,29.63,78.32,27.26,76.56,26.87Zm1.36,3.56c0,.74-.13,2-.81,1.85-.34-.12-.45-.35-.5-1,0-.12-.06-2.82-.06-2.92s0-.53.22-.6C77.27,27.57,78,28.4,77.92,30.43Z"/></g></g><circle class="cls-74" cx="31.84" cy="65.93" r="11.96"/><g class="cls-75"><path d="M62.51,65.3,37.67,58.24a1.25,1.25,0,0,1-.92-1.48l8.41-30a1.23,1.23,0,0,1,1.55-.78L71.55,33a1.25,1.25,0,0,1,.92,1.48l-8.41,30A1.23,1.23,0,0,1,62.51,65.3Z"/></g><path class="cls-19" d="M64.67,66.76a2.44,2.44,0,0,1-.71-.1L39.25,59.15a2.28,2.28,0,0,1-1.59-2.78L46.6,26.48a2.21,2.21,0,0,1,2.15-1.54,2.44,2.44,0,0,1,.71.1l24.71,7.51a2.28,2.28,0,0,1,1.59,2.78L66.82,65.22A2.21,2.21,0,0,1,64.67,66.76Z"/><path class="cls-20" d="M48.75,26a1.18,1.18,0,0,1,.41.07l24.71,7.5A1.23,1.23,0,0,1,74.76,35L65.82,64.92a1.16,1.16,0,0,1-1.15.81,1.45,1.45,0,0,1-.41-.06L39.55,58.16a1.22,1.22,0,0,1-.89-1.49L47.6,26.78A1.17,1.17,0,0,1,48.75,26m0-2.07h0a3.23,3.23,0,0,0-3.14,2.29L36.67,56.07A3.32,3.32,0,0,0,39,60.15l24.71,7.5a3.48,3.48,0,0,0,1,.15,3.24,3.24,0,0,0,3.14-2.28l8.94-29.89a3.31,3.31,0,0,0-2.28-4.07L49.76,24.05a3.48,3.48,0,0,0-1-.15Z"/><path class="cls-21" d="M64,64.36,40.51,57.23a.93.93,0,0,1-.62-1.16L47,32.22a1,1,0,0,1,1.16-.63l23.46,7.13a.94.94,0,0,1,.62,1.17L65.13,63.73A.93.93,0,0,1,64,64.36Z"/><path class="cls-19" d="M71.36,43.91l.12-.42-4.56-1.38,1.38-4.6-.41-.12L66.51,42l-5-1.52,1.38-4.59-.41-.13-1.38,4.6-5-1.53,1.38-4.59-.41-.13-1.38,4.6-5-1.52L52,32.57l-.41-.12L50.25,37l-4.56-1.38-.12.41,4.56,1.39-1.51,5-4.56-1.38-.13.42,4.56,1.38L47,48l-4.56-1.39L42.3,47l4.56,1.38-1.51,5L40.79,52l-.12.42,4.56,1.39-1.38,4.59.41.13L45.64,54l5,1.52-1.38,4.6.41.12,1.38-4.59,5,1.52-1.38,4.59.41.13,1.38-4.6,5,1.53-1.38,4.59.41.13,1.38-4.6,4.56,1.39.12-.42L62,58.49l1.51-5,4.56,1.38.13-.41L63.66,53l1.51-5,4.56,1.38.12-.42-4.56-1.38,1.51-5ZM61,40.75l-1.51,5-5-1.52L56,39.23Zm-1.64,5.46-1.51,5-5-1.52,1.51-5.05Zm-8.79-8.63,5,1.52-1.51,5-5-1.52Zm-1.63,5.47,5,1.52-1.51,5-5-1.52ZM45.76,53.56l1.51-5.05,5,1.52-1.51,5Zm5.42,1.64,1.51-5,5,1.52-1.51,5Zm10.43,3.17-5-1.52,1.51-5.05,5,1.52Zm1.63-5.46-5-1.52,1.51-5,5,1.52Zm1.64-5.47-5-1.52,1.51-5,5,1.52Z"/><path class="cls-76" d="M49.17,33.15l-.72,2.36-.58-.18.38-1.27a3.06,3.06,0,0,0,.09-.33.14.14,0,0,0-.05-.1.59.59,0,0,0-.25-.11l-.06,0,.08-.28a1,1,0,0,0,.76-.18Z"/><path class="cls-77" d="M50.3,33.5l-.72,2.36L49,35.68l.39-1.27.09-.33a.16.16,0,0,0,0-.11,1.05,1.05,0,0,0-.25-.11h-.06l.08-.28a1.06,1.06,0,0,0,.76-.18Z"/><path class="cls-78" d="M47.75,40.48l-.12.4-1.29-.4.11-.34c.57-.51.91-.82,1-1a.78.78,0,0,0,.21-.32.28.28,0,0,0,0-.15.12.12,0,0,0-.09-.08.11.11,0,0,0-.11,0,.41.41,0,0,0-.1.2l-.07.23-.52-.17,0-.08a1.68,1.68,0,0,1,.12-.31.51.51,0,0,1,.17-.19.47.47,0,0,1,.26-.11.76.76,0,0,1,.32,0,.72.72,0,0,1,.47.34.6.6,0,0,1,0,.49,1.09,1.09,0,0,1-.23.4,10.31,10.31,0,0,1-.89.78Z"/><path class="cls-79" d="M44.15,48.82l-.72,2.36L42.85,51l.38-1.26c.06-.19.08-.3.09-.34a.14.14,0,0,0,0-.1.75.75,0,0,0-.25-.11l-.06,0,.08-.28a1.1,1.1,0,0,0,.76-.17Z"/><path class="cls-80" d="M45.65,49.29l-.11.37-.73-.22-.12.4a.44.44,0,0,1,.4-.05.47.47,0,0,1,.32.25.85.85,0,0,1,0,.56l-.11.34a2.69,2.69,0,0,1-.13.36.58.58,0,0,1-.17.18.54.54,0,0,1-.26.09,1.2,1.2,0,0,1-.36,0,1,1,0,0,1-.37-.21A.52.52,0,0,1,43.8,51a1.37,1.37,0,0,1,.08-.51l0-.13.58.18,0,.15a2.14,2.14,0,0,0-.09.33c0,.07,0,.11.08.13a.08.08,0,0,0,.08,0,.06.06,0,0,0,0,0s0-.11.09-.27l.14-.47a.38.38,0,0,0,0-.19s0-.06-.08-.08h-.07a.07.07,0,0,0,0,0,.7.7,0,0,0,0,.13L44,50.08l.39-1.18Z"/><path class="cls-81" d="M46.21,44.84a.37.37,0,0,1,.15.22,1,1,0,0,1-.08.51,1.48,1.48,0,0,1-.18.41.43.43,0,0,1-.28.15,1,1,0,0,1-.46,0,.81.81,0,0,1-.38-.21.46.46,0,0,1-.15-.29,1.23,1.23,0,0,1,.07-.48,1.5,1.5,0,0,1,.15-.36.37.37,0,0,1,.28-.19.33.33,0,0,1-.11-.21.58.58,0,0,1,0-.31.61.61,0,0,1,.31-.41.77.77,0,0,1,.54,0,.79.79,0,0,1,.49.32.73.73,0,0,1,0,.51.55.55,0,0,1-.14.26A.53.53,0,0,1,46.21,44.84Zm-.46.37a.35.35,0,0,0,0-.18.11.11,0,0,0-.07-.08.12.12,0,0,0-.1,0,.63.63,0,0,0-.08.18l-.09.3a.46.46,0,0,0,0,.21.1.1,0,0,0,.07.07s.08,0,.1,0a.74.74,0,0,0,.08-.19Zm.29-1a.8.8,0,0,0,0-.16A.1.1,0,0,0,46,44a.09.09,0,0,0-.09,0,.34.34,0,0,0-.07.15l-.05.18a.35.35,0,0,0,0,.15.1.1,0,0,0,.07.07.09.09,0,0,0,.09,0,.34.34,0,0,0,.07-.16Z"/><path class="cls-82" d="M42.64,53.79l-.72,2.36L41.34,56l.38-1.27a3.06,3.06,0,0,0,.09-.33.16.16,0,0,0-.05-.11.75.75,0,0,0-.25-.11h-.06l.08-.28a1,1,0,0,0,.76-.18Z"/><path class="cls-83" d="M44,55.08l-.24.79a1.34,1.34,0,0,1-.15.38.44.44,0,0,1-.19.19.51.51,0,0,1-.26.09,1.15,1.15,0,0,1-.31,0,1.27,1.27,0,0,1-.33-.16.51.51,0,0,1-.17-.22.6.6,0,0,1-.05-.26,1.41,1.41,0,0,1,.07-.37l.25-.82a1.63,1.63,0,0,1,.21-.47.48.48,0,0,1,.3-.19.71.71,0,0,1,.43,0,.92.92,0,0,1,.32.18.51.51,0,0,1,.21.48A1.87,1.87,0,0,1,44,55.08Zm-.52-.38a1.44,1.44,0,0,0,.05-.24.08.08,0,0,0-.07-.07s-.08,0-.1,0a.59.59,0,0,0-.09.23l-.35,1.15a.85.85,0,0,0-.06.25s0,.06.07.07.08,0,.1,0a.52.52,0,0,0,.09-.22Z"/><path class="cls-84" d="M53.71,36.7l-.12.4-1.28-.4.1-.33c.57-.51.92-.83,1-1a1,1,0,0,0,.22-.32.27.27,0,0,0,0-.15s0-.06-.09-.08a.14.14,0,0,0-.11,0,.52.52,0,0,0-.1.2l-.07.23-.52-.16,0-.09a2.14,2.14,0,0,1,.11-.31.6.6,0,0,1,.17-.19.56.56,0,0,1,.26-.11,1,1,0,0,1,.32,0,.76.76,0,0,1,.47.34.62.62,0,0,1,0,.5,1.14,1.14,0,0,1-.23.39,10.31,10.31,0,0,1-.89.78Z"/><path class="cls-85" d="M55.44,35.09l-.72,2.36-.58-.18L54.52,36a1.65,1.65,0,0,0,.09-.33.16.16,0,0,0,0-.11,1.05,1.05,0,0,0-.25-.11h-.06l.09-.28a1,1,0,0,0,.75-.18Z"/><path class="cls-86" d="M51.91,41.76l-.12.4-1.28-.39.1-.34c.57-.51.91-.83,1-1a.94.94,0,0,0,.22-.31.47.47,0,0,0,0-.16.13.13,0,0,0-.09-.07.09.09,0,0,0-.11,0,.36.36,0,0,0-.1.2l-.07.22L51,40.21l0-.09a2.63,2.63,0,0,1,.12-.3.63.63,0,0,1,.17-.2.55.55,0,0,1,.26-.1.76.76,0,0,1,.32,0,.75.75,0,0,1,.47.33.62.62,0,0,1,0,.5,1.18,1.18,0,0,1-.23.4,9.18,9.18,0,0,1-.89.77Z"/><path class="cls-87" d="M52.21,41.61l.58.18-.06.21a.12.12,0,0,0,0,.08s0,0,.07.05h.09a.1.1,0,0,0,.05-.06l.06-.18.11-.37a.3.3,0,0,1-.17.1.46.46,0,0,1-.23,0,.48.48,0,0,1-.26-.18.4.4,0,0,1-.09-.25,1,1,0,0,1,.07-.34l0-.19a2.26,2.26,0,0,1,.14-.37.48.48,0,0,1,.16-.19.62.62,0,0,1,.28-.09.92.92,0,0,1,.35,0,1.21,1.21,0,0,1,.36.18.56.56,0,0,1,.18.26.57.57,0,0,1,0,.29c0,.09-.06.27-.14.53l-.1.33c-.09.28-.15.47-.19.56a.51.51,0,0,1-.18.24.57.57,0,0,1-.3.11,1,1,0,0,1-.37,0,.92.92,0,0,1-.38-.21.43.43,0,0,1-.15-.29A.77.77,0,0,1,52.21,41.61Zm.81-.56c0,.1,0,.17,0,.2a.13.13,0,0,0,.07.06.12.12,0,0,0,.1,0s0-.08.08-.17l.13-.42a.92.92,0,0,0,0-.22.11.11,0,0,0-.08-.07s-.05,0-.09,0a.35.35,0,0,0-.1.19Z"/><path class="cls-88" d="M49.33,50.42l-.72,2.36L48,52.6l.39-1.26a2.52,2.52,0,0,0,.08-.34.1.1,0,0,0,0-.1.75.75,0,0,0-.25-.11l-.06,0,.08-.28a1.11,1.11,0,0,0,.76-.17Z"/><path class="cls-89" d="M50.58,50.81l-.15.51-.94,1.73-.58-.17,1-1.81-.57-.18.13-.42Z"/><path class="cls-90" d="M50.37,46.12a.38.38,0,0,1,.15.21,1,1,0,0,1-.08.51,1.21,1.21,0,0,1-.19.41.48.48,0,0,1-.3.17.91.91,0,0,1-.42,0,1,1,0,0,1-.41-.23.55.55,0,0,1-.14-.3,1.75,1.75,0,0,1,.1-.48l.05-.19.59.18-.12.38a.92.92,0,0,0,0,.2s0,.06.07.07.08,0,.1,0a1.14,1.14,0,0,0,.11-.27l0-.17a.4.4,0,0,0,0-.2.14.14,0,0,0-.07-.11.77.77,0,0,0-.22-.1l.11-.34a.78.78,0,0,0,.26.06.12.12,0,0,0,.09,0,.46.46,0,0,0,.07-.17l0-.13a.31.31,0,0,0,0-.17.09.09,0,0,0-.07-.06.11.11,0,0,0-.1,0,.78.78,0,0,0-.07.17l-.06.2-.58-.18.06-.2c.07-.23.16-.37.29-.41a1.11,1.11,0,0,1,1,.37.66.66,0,0,1,0,.5.67.67,0,0,1-.14.27A.48.48,0,0,1,50.37,46.12Z"/><path class="cls-91" d="M52.29,46.47l-.24.79a1.34,1.34,0,0,1-.15.38.44.44,0,0,1-.19.19.51.51,0,0,1-.26.09,1,1,0,0,1-.3,0,1.35,1.35,0,0,1-.34-.16.51.51,0,0,1-.17-.22.6.6,0,0,1,0-.26,1.41,1.41,0,0,1,.07-.37l.25-.82a1.63,1.63,0,0,1,.21-.47.48.48,0,0,1,.3-.19.71.71,0,0,1,.43,0,.83.83,0,0,1,.32.18.51.51,0,0,1,.21.48A1.4,1.4,0,0,1,52.29,46.47Zm-.52-.38a1.44,1.44,0,0,0,0-.24.08.08,0,0,0-.07-.07s-.08,0-.1,0a.59.59,0,0,0-.09.23l-.35,1.15a1.48,1.48,0,0,0-.06.25.08.08,0,0,0,.07.07c.05,0,.08,0,.1,0a.52.52,0,0,0,.09-.22Z"/><path class="cls-92" d="M47.18,57.33l-.12.41-1.28-.4.1-.34c.57-.51.91-.83,1-1a1.07,1.07,0,0,0,.22-.32.27.27,0,0,0,0-.15.12.12,0,0,0-.09-.08.11.11,0,0,0-.11,0,.41.41,0,0,0-.1.2l-.07.22-.52-.16,0-.08a1.51,1.51,0,0,1,.11-.31.51.51,0,0,1,.17-.19.47.47,0,0,1,.26-.11.76.76,0,0,1,.32,0,.72.72,0,0,1,.47.34.59.59,0,0,1,0,.49,1.09,1.09,0,0,1-.23.4,10.31,10.31,0,0,1-.89.78Z"/><path class="cls-93" d="M49.28,55.84l-.11.38L48.44,56l-.12.41a.51.51,0,0,1,.72.19.79.79,0,0,1,0,.56l-.1.34a2.72,2.72,0,0,1-.14.36.61.61,0,0,1-.17.19.45.45,0,0,1-.26.08,1,1,0,0,1-.36,0,1,1,0,0,1-.37-.2.55.55,0,0,1-.18-.32,1.35,1.35,0,0,1,.08-.5l0-.13.58.18,0,.15a1.25,1.25,0,0,0-.08.33.1.1,0,0,0,.08.13h.07a.08.08,0,0,0,.05-.05s0-.11.09-.28l.14-.47a.37.37,0,0,0,0-.19.1.1,0,0,0-.07-.07h-.08l0,0a.7.7,0,0,0-.05.13l-.58-.17L48,55.45Z"/><path class="cls-94" d="M59.17,37.38a.38.38,0,0,1,.15.21,1.12,1.12,0,0,1-.08.5,1.17,1.17,0,0,1-.2.42.46.46,0,0,1-.29.17,1,1,0,0,1-.43,0,.94.94,0,0,1-.4-.23.44.44,0,0,1-.14-.3,1.36,1.36,0,0,1,.09-.48l.06-.19.58.18L58.4,38a.51.51,0,0,0,0,.2.07.07,0,0,0,.06.07s.08,0,.11,0a1.14,1.14,0,0,0,.1-.26l0-.17a.41.41,0,0,0,0-.2.11.11,0,0,0-.06-.11.94.94,0,0,0-.22-.1l.1-.34.26.06a.13.13,0,0,0,.1,0,.73.73,0,0,0,.07-.17l0-.13a.39.39,0,0,0,0-.17.09.09,0,0,0-.06-.06.09.09,0,0,0-.1,0,.68.68,0,0,0-.08.17l-.06.2-.58-.18.06-.2c.07-.23.17-.37.29-.41a.83.83,0,0,1,.53,0,.74.74,0,0,1,.51.34.66.66,0,0,1,0,.5.56.56,0,0,1-.14.27A.45.45,0,0,1,59.17,37.38Z"/><path class="cls-95" d="M61,36.82l-.15.51-.94,1.73-.58-.18,1-1.81-.57-.17.12-.43Z"/><path class="cls-96" d="M57.38,42.45a.46.46,0,0,1,.16.21,1.29,1.29,0,0,1-.08.5,1.37,1.37,0,0,1-.2.42.48.48,0,0,1-.29.17,1,1,0,0,1-.43,0,1.05,1.05,0,0,1-.41-.23.5.5,0,0,1-.13-.3,1.36,1.36,0,0,1,.09-.48l.06-.19.58.18-.12.38a.82.82,0,0,0,0,.2.1.1,0,0,0,.07.07.11.11,0,0,0,.11,0,1.14,1.14,0,0,0,.1-.26l0-.17a.41.41,0,0,0,0-.2.17.17,0,0,0-.06-.11.88.88,0,0,0-.23-.1l.11-.34.26.06a.1.1,0,0,0,.09,0,.68.68,0,0,0,.08-.17l0-.13a.39.39,0,0,0,0-.17.09.09,0,0,0-.07-.06.07.07,0,0,0-.09,0,.44.44,0,0,0-.08.17l-.06.2-.58-.18.06-.2c.07-.23.16-.37.29-.41a.8.8,0,0,1,.52,0,.76.76,0,0,1,.52.34.66.66,0,0,1,0,.5.67.67,0,0,1-.14.27A.45.45,0,0,1,57.38,42.45Z"/><path class="cls-97" d="M59,42.94a.4.4,0,0,1,.16.21,1.29,1.29,0,0,1-.08.5,1.37,1.37,0,0,1-.2.42.5.5,0,0,1-.29.17,1,1,0,0,1-.43-.05.77.77,0,0,1-.4-.23.42.42,0,0,1-.14-.29,1.44,1.44,0,0,1,.09-.49l.06-.19.58.18-.11.39a.6.6,0,0,0,0,.2.12.12,0,0,0,.18,0,1.09,1.09,0,0,0,.1-.27l0-.16a.44.44,0,0,0,0-.21.2.2,0,0,0-.06-.11,1,1,0,0,0-.23-.09l.11-.34.26.06a.11.11,0,0,0,.09,0,.59.59,0,0,0,.08-.16l0-.13a.4.4,0,0,0,0-.17.08.08,0,0,0-.07-.07s-.07,0-.09,0,0,.08-.08.17l-.06.19-.58-.18.06-.2a.59.59,0,0,1,.29-.41.83.83,0,0,1,.53,0,.8.8,0,0,1,.51.34.68.68,0,0,1,0,.51.56.56,0,0,1-.14.27A.54.54,0,0,1,59,42.94Z"/><path class="cls-98" d="M54.6,52.08l-.47,1.54.17.05-.13.4L54,54l-.13.42-.58-.18.12-.42-.69-.21.12-.41,1-1.38Zm-1.05,1.36.3-1-.56.93Z"/><path class="cls-99" d="M56.16,52.56l-.11.38-.73-.23-.12.4a.53.53,0,0,1,.72.2.79.79,0,0,1,0,.56l-.1.34a3.45,3.45,0,0,1-.14.36.58.58,0,0,1-.17.18.54.54,0,0,1-.26.09,1,1,0,0,1-.36-.05,1.18,1.18,0,0,1-.37-.2.55.55,0,0,1-.18-.32,1.37,1.37,0,0,1,.08-.51l0-.12.58.18L55,54a1.45,1.45,0,0,0-.08.33.1.1,0,0,0,.08.13h.08l0-.05s0-.12.09-.28l.14-.47a.38.38,0,0,0,0-.19.1.1,0,0,0-.07-.07H55.2l-.05,0a.7.7,0,0,0,0,.13l-.58-.18.39-1.18Z"/><path class="cls-100" d="M56.2,46.83l-.47,1.54.16.05-.12.41-.17-.06-.12.42L54.89,49l.13-.42-.69-.21.12-.4,1-1.39Zm-1.06,1.36.31-1-.57.92Z"/><path class="cls-101" d="M57.62,48.14l-.24.79a1.73,1.73,0,0,1-.15.38.5.5,0,0,1-.19.19.51.51,0,0,1-.26.09,1.15,1.15,0,0,1-.31,0,1.27,1.27,0,0,1-.33-.16.55.55,0,0,1-.18-.22.79.79,0,0,1-.05-.25,1.51,1.51,0,0,1,.08-.38l.25-.82a1.67,1.67,0,0,1,.2-.47.48.48,0,0,1,.3-.19.84.84,0,0,1,.44,0,.92.92,0,0,1,.32.18.51.51,0,0,1,.21.48A2.82,2.82,0,0,1,57.62,48.14Zm-.53-.38a1,1,0,0,0,.06-.24.08.08,0,0,0-.07-.07s-.08,0-.1,0a.74.74,0,0,0-.1.23l-.35,1.15a.7.7,0,0,0-.05.25s0,.06.07.07a.08.08,0,0,0,.1,0,1.11,1.11,0,0,0,.09-.22Z"/><path class="cls-102" d="M52.63,58a.38.38,0,0,1,.15.21,1,1,0,0,1-.08.5,1.39,1.39,0,0,1-.19.42.56.56,0,0,1-.3.17.93.93,0,0,1-.42,0,.81.81,0,0,1-.41-.23.47.47,0,0,1-.14-.29,1.81,1.81,0,0,1,.1-.49l0-.19.59.18-.12.39a.82.82,0,0,0,0,.2s0,0,.07.06a.08.08,0,0,0,.1,0,1,1,0,0,0,.11-.27l0-.16a.44.44,0,0,0,0-.21.16.16,0,0,0-.07-.11.85.85,0,0,0-.22-.09l.1-.34.27.06a.14.14,0,0,0,.09,0,.62.62,0,0,0,.07-.16l0-.13a.48.48,0,0,0,0-.17.1.1,0,0,0-.07-.07.09.09,0,0,0-.1,0,.4.4,0,0,0-.07.17l-.06.19-.59-.18.07-.2a.54.54,0,0,1,.29-.41.8.8,0,0,1,.52,0,.83.83,0,0,1,.52.34.73.73,0,0,1,0,.51.41.41,0,0,1-.38.37Z"/><path class="cls-103" d="M52.89,58.88l.58.18a1.93,1.93,0,0,1-.06.2.15.15,0,0,0,0,.09.13.13,0,0,0,.07,0h.08a.09.09,0,0,0,.06-.06l.06-.18.11-.37a.42.42,0,0,1-.17.1.62.62,0,0,1-.23,0,.44.44,0,0,1-.26-.18.38.38,0,0,1-.09-.26,1.35,1.35,0,0,1,.06-.34l.06-.18c0-.17.1-.29.13-.37a.53.53,0,0,1,.44-.28.87.87,0,0,1,.35.05,1,1,0,0,1,.37.18.54.54,0,0,1,.17.26.49.49,0,0,1,0,.29c0,.09-.07.27-.14.53l-.1.33c-.09.28-.15.46-.19.56a.5.5,0,0,1-.18.23.53.53,0,0,1-.3.12.83.83,0,0,1-.37-.05,1,1,0,0,1-.38-.2.55.55,0,0,1-.16-.3A.89.89,0,0,1,52.89,58.88Zm.81-.56c0,.1,0,.16,0,.2s0,0,.07,0a.09.09,0,0,0,.1,0,.44.44,0,0,0,.08-.17l.13-.43a.46.46,0,0,0,0-.21s0-.06-.07-.07a.1.1,0,0,0-.09,0,.35.35,0,0,0-.1.19Z"/><path class="cls-104" d="M64.66,38.62l-.59-.18a.88.88,0,0,0,.06-.21.11.11,0,0,0,0-.08.17.17,0,0,0-.08-.06H64a.1.1,0,0,0-.05.06,1.2,1.2,0,0,0-.06.18l-.12.37a.32.32,0,0,1,.18-.1.47.47,0,0,1,.23,0,.49.49,0,0,1,.25.17.41.41,0,0,1,.1.26,2.06,2.06,0,0,1-.07.34l-.06.19a1.92,1.92,0,0,1-.13.36.47.47,0,0,1-.17.2.54.54,0,0,1-.27.09.9.9,0,0,1-.35-.05,1.16,1.16,0,0,1-.37-.18.62.62,0,0,1-.17-.26.58.58,0,0,1,0-.29c0-.09.07-.27.15-.53l.1-.33a5.4,5.4,0,0,1,.18-.56.69.69,0,0,1,.18-.24.64.64,0,0,1,.3-.11,1,1,0,0,1,.37,0,.86.86,0,0,1,.38.21.5.5,0,0,1,.16.29A.91.91,0,0,1,64.66,38.62Zm-.81.56a.44.44,0,0,0,0-.18.11.11,0,0,0-.07-.08.11.11,0,0,0-.1,0,.36.36,0,0,0-.09.17l-.13.42a.49.49,0,0,0,0,.21.1.1,0,0,0,.07.08.14.14,0,0,0,.09,0s.07-.08.1-.19Z"/><path class="cls-105" d="M66.18,39.28l-.24.79a1.84,1.84,0,0,1-.14.38.58.58,0,0,1-.19.19.54.54,0,0,1-.27.09,1.08,1.08,0,0,1-.3,0,1.55,1.55,0,0,1-.34-.16.51.51,0,0,1-.17-.22.8.8,0,0,1,0-.26,1.41,1.41,0,0,1,.07-.37l.26-.82a1.42,1.42,0,0,1,.2-.47.48.48,0,0,1,.3-.19.71.71,0,0,1,.43,0,.77.77,0,0,1,.32.18.54.54,0,0,1,.18.23.73.73,0,0,1,0,.25A2.06,2.06,0,0,1,66.18,39.28Zm-.52-.38a.58.58,0,0,0,0-.24s0-.06-.07-.07a.09.09,0,0,0-.1,0,1.33,1.33,0,0,0-.09.23L65.1,40a1.48,1.48,0,0,0-.06.25.09.09,0,0,0,.08.07.08.08,0,0,0,.1,0,.79.79,0,0,0,.08-.22Z"/><path class="cls-106" d="M63.38,43.16l-.47,1.54.16.06-.12.4-.17,0-.12.41-.59-.18.13-.41-.69-.22.12-.4,1-1.39Zm-1.06,1.36.31-1-.57.92Z"/><path class="cls-107" d="M64.64,43.55l-.16.52-.93,1.73L63,45.62l1-1.81-.58-.18.13-.42Z"/><path class="cls-108" d="M59.93,53.7l-.11.38-.73-.23-.12.4a.53.53,0,0,1,.72.2.85.85,0,0,1,0,.56l-.11.34a2.24,2.24,0,0,1-.13.36.58.58,0,0,1-.17.18A.54.54,0,0,1,59,56a1,1,0,0,1-.36,0,1.24,1.24,0,0,1-.38-.2.59.59,0,0,1-.17-.32,1.37,1.37,0,0,1,.08-.51l0-.12.58.18,0,.14a3,3,0,0,0-.09.33.11.11,0,0,0,.08.13h.08a.12.12,0,0,0,0-.05s0-.12.09-.28l.14-.47a.38.38,0,0,0,0-.19A.09.09,0,0,0,59,54.5H59a.11.11,0,0,0,0,0,.34.34,0,0,0-.05.13l-.58-.18.39-1.18Z"/><path class="cls-109" d="M59.72,55.53l.58.18-.06.21a.11.11,0,0,0,0,.08.11.11,0,0,0,.15,0,.09.09,0,0,0,.06-.06s0-.09.05-.17l.12-.38a.33.33,0,0,1-.17.1.46.46,0,0,1-.23,0,.48.48,0,0,1-.26-.17.35.35,0,0,1-.09-.26,1.28,1.28,0,0,1,.06-.34l.06-.19a3.1,3.1,0,0,1,.13-.36.65.65,0,0,1,.17-.2.62.62,0,0,1,.27-.09,1.1,1.1,0,0,1,.35.05,1.16,1.16,0,0,1,.37.18.6.6,0,0,1,.19.55c0,.1-.07.27-.15.53l-.1.33a5.4,5.4,0,0,1-.18.56.59.59,0,0,1-.18.24.64.64,0,0,1-.3.11,1,1,0,0,1-.37,0,.92.92,0,0,1-.38-.21.5.5,0,0,1-.16-.29A1,1,0,0,1,59.72,55.53Zm.8-.56a.28.28,0,0,0,0,.2.13.13,0,0,0,.07.06.09.09,0,0,0,.1,0,.38.38,0,0,0,.08-.16l.13-.43a.49.49,0,0,0,0-.21.08.08,0,0,0-.07-.08s-.05,0-.09,0a.35.35,0,0,0-.1.19Z"/><path class="cls-110" d="M61.53,48.45l-.11.38-.73-.22-.12.4a.44.44,0,0,1,.4,0,.49.49,0,0,1,.32.24.82.82,0,0,1,0,.57l-.1.33a1.79,1.79,0,0,1-.14.36.44.44,0,0,1-.17.19.54.54,0,0,1-.26.09,1.29,1.29,0,0,1-.36-.06.88.88,0,0,1-.37-.2.46.46,0,0,1-.17-.31,1.15,1.15,0,0,1,.07-.51l0-.13.58.18,0,.15a1.85,1.85,0,0,0-.08.33.11.11,0,0,0,.08.13.08.08,0,0,0,.08,0,.07.07,0,0,0,0-.05l.09-.27.15-.47a.48.48,0,0,0,0-.19.11.11,0,0,0-.07-.08.11.11,0,0,0-.08,0,.1.1,0,0,0,0,0,.7.7,0,0,0-.05.13l-.58-.18.39-1.18Z"/><path class="cls-111" d="M63.12,49l-.11.37-.73-.22-.12.4a.44.44,0,0,1,.4,0,.47.47,0,0,1,.32.25.79.79,0,0,1,0,.56l-.1.33a2.26,2.26,0,0,1-.14.37.58.58,0,0,1-.17.18.54.54,0,0,1-.26.09,1,1,0,0,1-.36-.06.88.88,0,0,1-.37-.2.46.46,0,0,1-.17-.31,1.15,1.15,0,0,1,.07-.51l0-.13.58.18,0,.15a1.85,1.85,0,0,0-.08.33.1.1,0,0,0,.08.13.08.08,0,0,0,.08,0,.07.07,0,0,0,0,0s0-.11.09-.27l.15-.47a.48.48,0,0,0,0-.19.11.11,0,0,0-.07-.08h-.08a.1.1,0,0,0,0,0,.7.7,0,0,0,0,.13l-.58-.18.39-1.18Z"/><path class="cls-112" d="M58.7,58.75l-.11.38-.73-.23-.12.41a.51.51,0,0,1,.72.19.79.79,0,0,1,0,.56l-.11.34a1.92,1.92,0,0,1-.13.36A.61.61,0,0,1,58,61a.45.45,0,0,1-.26.08A1,1,0,0,1,57.4,61a.93.93,0,0,1-.37-.2.52.52,0,0,1-.18-.31,1.37,1.37,0,0,1,.08-.51l0-.13.58.18,0,.15a1.25,1.25,0,0,0-.08.33.1.1,0,0,0,.08.13h.07a.08.08,0,0,0,.05,0s0-.11.09-.28l.14-.47a.34.34,0,0,0,0-.18.1.1,0,0,0-.08-.08h-.07l-.05,0,0,.13-.58-.17.39-1.19Z"/><path class="cls-113" d="M59.83,59.1l-.72,2.36-.58-.18L58.91,60a1.65,1.65,0,0,0,.09-.33.18.18,0,0,0,0-.11.81.81,0,0,0-.25-.1l-.06,0,.09-.28a1,1,0,0,0,.75-.18Z"/><path class="cls-114" d="M69.88,39.55l-.15.52-.94,1.73-.58-.18,1-1.81-.57-.18.13-.42Z"/><path class="cls-115" d="M71,39.89l-.72,2.36-.58-.18.38-1.27a1.65,1.65,0,0,0,.09-.33.18.18,0,0,0-.05-.11.81.81,0,0,0-.25-.1l-.06,0,.09-.28a1,1,0,0,0,.75-.18Z"/><path class="cls-116" d="M68.08,45.3l-.58-.18.06-.21a.11.11,0,0,0,0-.08.11.11,0,0,0-.15,0,.09.09,0,0,0-.06.06l-.06.17-.11.38a.33.33,0,0,1,.17-.1.46.46,0,0,1,.23,0,.52.52,0,0,1,.26.17.45.45,0,0,1,.09.26,1,1,0,0,1-.07.34l0,.19a1.79,1.79,0,0,1-.14.36.51.51,0,0,1-.16.2.62.62,0,0,1-.28.09.92.92,0,0,1-.35-.05,1.21,1.21,0,0,1-.36-.18.61.61,0,0,1-.18-.26.57.57,0,0,1,0-.29c0-.1.06-.27.14-.53l.1-.33c.09-.28.15-.47.19-.56a.51.51,0,0,1,.18-.24.57.57,0,0,1,.3-.11,1,1,0,0,1,.37,0,.92.92,0,0,1,.38.21.43.43,0,0,1,.15.29A.79.79,0,0,1,68.08,45.3Zm-.81.56a.35.35,0,0,0,0-.18.11.11,0,0,0-.08-.08.12.12,0,0,0-.1,0,.29.29,0,0,0-.08.16l-.13.43a.57.57,0,0,0,0,.21.11.11,0,0,0,.08.08s0,0,.09,0a.35.35,0,0,0,.1-.19Z"/><path class="cls-117" d="M69.75,45.13l-.12.38-.72-.23-.12.41a.47.47,0,0,1,.4-.06.49.49,0,0,1,.32.25.87.87,0,0,1,0,.56l-.1.34a1.92,1.92,0,0,1-.13.36.61.61,0,0,1-.17.19.46.46,0,0,1-.27.08.92.92,0,0,1-.35,0,1.06,1.06,0,0,1-.38-.2.53.53,0,0,1-.17-.32,1.17,1.17,0,0,1,.08-.5l0-.13.58.18,0,.15a2.14,2.14,0,0,0-.09.33.11.11,0,0,0,.08.13h.08a.12.12,0,0,0,.05-.05s0-.11.09-.28l.14-.47a.37.37,0,0,0,0-.19.11.11,0,0,0-.08-.07h-.07s0,0-.06,0a1.11,1.11,0,0,0,0,.13l-.58-.17.38-1.19Z"/><path class="cls-118" d="M64.89,55.23l-.16.51-.94,1.73-.58-.18,1-1.8-.58-.18.13-.42Z"/><path class="cls-119" d="M65.84,56.64a.38.38,0,0,1,.15.21,1.12,1.12,0,0,1-.08.5,1.17,1.17,0,0,1-.2.42.46.46,0,0,1-.29.17.91.91,0,0,1-.42,0,1,1,0,0,1-.41-.23.51.51,0,0,1-.14-.3,2.08,2.08,0,0,1,.09-.48l.06-.19.59.18-.12.38a.51.51,0,0,0,0,.2s0,.06.07.07a.09.09,0,0,0,.1,0,1,1,0,0,0,.11-.26l0-.17a1.06,1.06,0,0,0,0-.2.14.14,0,0,0-.07-.11.77.77,0,0,0-.22-.1l.1-.34.26.06a.13.13,0,0,0,.1,0,.73.73,0,0,0,.07-.17l0-.13a.28.28,0,0,0,0-.17s0,0-.06-.06a.09.09,0,0,0-.1,0,.47.47,0,0,0-.07.17l-.06.2L64.81,56l.06-.2c.07-.23.17-.37.3-.41a1.11,1.11,0,0,1,1,.37.71.71,0,0,1,0,.5.67.67,0,0,1-.14.27A.53.53,0,0,1,65.84,56.64Z"/><path class="cls-120" d="M66.68,50.73l-.58-.18.06-.21a.11.11,0,0,0,0-.08.17.17,0,0,0-.08-.06H66s0,0-.06.06a1.71,1.71,0,0,0-.05.18l-.12.37a.32.32,0,0,1,.18-.1.48.48,0,0,1,.23,0,.49.49,0,0,1,.25.17.35.35,0,0,1,.09.26,1.28,1.28,0,0,1-.06.34l-.06.19a1.92,1.92,0,0,1-.13.36.47.47,0,0,1-.17.2.58.58,0,0,1-.27.09.87.87,0,0,1-.35-.05,1.16,1.16,0,0,1-.37-.18.62.62,0,0,1-.17-.26.58.58,0,0,1,0-.29c0-.1.07-.27.15-.53l.1-.33a5.4,5.4,0,0,1,.18-.56.69.69,0,0,1,.18-.24.64.64,0,0,1,.3-.11,1,1,0,0,1,.37,0,.86.86,0,0,1,.38.21.5.5,0,0,1,.16.29A.93.93,0,0,1,66.68,50.73Zm-.8.56a.44.44,0,0,0,0-.18.11.11,0,0,0-.07-.08.14.14,0,0,0-.11,0,.53.53,0,0,0-.08.17l-.13.42a.49.49,0,0,0,0,.21.1.1,0,0,0,.07.08.14.14,0,0,0,.09,0s.07-.08.1-.19Z"/><path class="cls-121" d="M68.07,50.47l-.16.52L67,52.72l-.59-.18,1-1.81-.58-.18.13-.42Z"/><path class="cls-122" d="M63.35,60.87l-.58-.18a1.93,1.93,0,0,1,.06-.2.28.28,0,0,0,0-.09.16.16,0,0,0-.08,0h-.08a.09.09,0,0,0-.06.06l-.06.18-.11.37a.4.4,0,0,1,.18-.1.58.58,0,0,1,.22,0,.44.44,0,0,1,.26.18.37.37,0,0,1,.09.25,1.34,1.34,0,0,1-.06.35l-.06.18c-.05.17-.1.29-.13.37a.53.53,0,0,1-.44.28.87.87,0,0,1-.35-.05,1,1,0,0,1-.37-.18A.54.54,0,0,1,61.6,62a.58.58,0,0,1,0-.29c0-.09.07-.27.15-.53l.09-.33c.09-.28.15-.46.19-.56a.58.58,0,0,1,.18-.23.53.53,0,0,1,.3-.12.83.83,0,0,1,.37.05.91.91,0,0,1,.38.2.55.55,0,0,1,.16.3A.89.89,0,0,1,63.35,60.87Zm-.81.56a.33.33,0,0,0,0-.18.09.09,0,0,0-.08-.07.09.09,0,0,0-.1,0,.44.44,0,0,0-.08.17l-.13.42a.52.52,0,0,0,0,.22.08.08,0,0,0,.07.07.1.1,0,0,0,.09,0,.35.35,0,0,0,.1-.19Z"/><path class="cls-123" d="M64.53,61.67a.38.38,0,0,1,.15.21,1,1,0,0,1-.08.5,1.18,1.18,0,0,1-.19.42.48.48,0,0,1-.3.17.91.91,0,0,1-.42,0,1,1,0,0,1-.41-.23.59.59,0,0,1-.14-.3,1.88,1.88,0,0,1,.1-.49l0-.18.59.18-.12.38a.82.82,0,0,0,0,.2s0,0,.07.07a.09.09,0,0,0,.1,0,1,1,0,0,0,.11-.26l0-.17a.44.44,0,0,0,0-.21.19.19,0,0,0-.07-.11l-.22-.09.11-.34.26.06a.11.11,0,0,0,.09,0,.34.34,0,0,0,.07-.16l0-.13a.31.31,0,0,0,0-.17.09.09,0,0,0-.07-.06.07.07,0,0,0-.09,0s0,.08-.08.17l-.06.2L63.51,61l.06-.2c.07-.22.16-.36.29-.41a.88.88,0,0,1,.52,0,.79.79,0,0,1,.52.34.66.66,0,0,1,0,.5.67.67,0,0,1-.14.27A.45.45,0,0,1,64.53,61.67Z"/><g class="cls-14"><g class="cls-14"><g class="cls-124"><path class="cls-125" d="M25.44,64.89a1.75,1.75,0,0,1,1-2.17c1.46-.39,1.72,1.6,1.29,2.4s-1.88,1.29-2.32-.23M25.15,61a1.54,1.54,0,0,1,1-1.51c1.14-.34,1.09.74.82,1.26-.43.81-1.59,1.22-1.81.44,0-.06,0-.14,0-.19M24,65.67c.27,1,1.1,2.53,3.51,1.66,3.65-1.68,2.6-5.36.93-5.88a4.42,4.42,0,0,0-.5-.1c1.57-1.56.75-3.23-.59-3.25-2.29,0-4.25,3.08-3.21,4.26a1,1,0,0,0,.54.28,3.08,3.08,0,0,0-.68,3m-2.91.94A10.48,10.48,0,0,1,27.45,55.9c5.39-1.44,10,4.66,6.41,11s-11,6.53-12.62.6c-.06-.26-.13-.6-.17-.86m-.29.59c.62,3.89,3.66,7,9,5.14,8-3.77,9-14.51,1.65-16.9-6.11-2-11.56,6.32-10.68,11.76m-.1.29a12.07,12.07,0,0,1,7.37-12.34c5.48-1.59,11.71,4.3,7.92,12s-12.82,8.64-15,1.56c-.05-.17-.24-1.12-.25-1.18"/></g><path class="cls-126" d="M25.44,64.89A1.14,1.14,0,0,0,27,65.8a1.8,1.8,0,0,0,.17-3.09,1.58,1.58,0,0,0-1.72,2.18M25.15,61c0,.32.18.81,1,.51,1.2-.56,1.2-1.87.62-2.06A1.47,1.47,0,0,0,25.15,61M24,65.67a3.08,3.08,0,0,1,.68-3c-1.57-.4-.62-3.07,1.08-4a4.12,4.12,0,0,1,.74-.34c2.3-.68,2.61,1.38,2,2.41a3.82,3.82,0,0,1-.58.69c2.72.53,2.54,4.22.32,5.6s-3.8.38-4.26-1.28"/></g></g><circle class="cls-127" cx="56.22" cy="70.36" r="15.95"/><g class="cls-14"><g class="cls-14"><g class="cls-128"><path class="cls-129" d="M58.75,71.18v0h0c-.69.66-2.3,2.2-4.63,4.19,1,.35,1.93.68,2.91,1,1.07-3,1.73-5.1,1.74-5.12M60,78.93l-1.29-.31c-.32.77-.65,1.48-1,2.13-.72-.19-1.44-.39-2.16-.61.27-.66.56-1.38.86-2.16-1.53-.46-3-1-4.47-1.58.18-.61.38-1.25.59-1.91,3.39-2.87,4.93-4.18,6.59-5.8.8.25,1.62.48,2.43.68a54.73,54.73,0,0,1-1.75,6.33c-.14.43-.29.84-.44,1.25l1.31.31c-.22.58-.45,1.14-.69,1.67m5.34,2.86a24.1,24.1,0,0,1-5.51-.56L59,81.06c.74-1.14,1.27-2,3.94-3.27,6.73-3.3,3.79-5.63,2.69-5.43-.94.16-1.24,1.19-1.5,2.11l-1.46-.27L62,74.05c1.81-5.65,5.75-3.73,6.45-2.35a4.94,4.94,0,0,1-.56,4.62c-1.31,1.86-3.59,2.29-5.27,3.61a21.41,21.41,0,0,0,3.86.26,15.83,15.83,0,0,1-1.14,1.6m3.9-4a9,9,0,0,0-6.69-13.06c-10-.65-16.39,10.38-10,17.12,4.89,5.13,13.81,2,16.66-4.06m.66,0A13.16,13.16,0,0,1,56,84.82C47.45,82.5,45.36,70.53,54.89,65.1c10.39-5.91,17.93,3,15.55,11.19-.06.21-.57,1.41-.57,1.41m.28,0a10.58,10.58,0,0,0-7.63-15.24C53,61.9,42.78,72.57,50.47,81.8c5.79,6.94,16.65,2.42,19.68-4.15"/></g><path class="cls-130" d="M60.66,77.26,59.35,77c.15-.41.3-.82.44-1.25a54.73,54.73,0,0,0,1.75-6.33c-.81-.2-1.63-.43-2.43-.68-1.44,1.37-2.09,2-6.59,5.8-.21.66-.41,1.3-.59,1.91,1.44.58,2.94,1.12,4.47,1.58-.3.78-.59,1.5-.86,2.16.72.22,1.44.42,2.16.61.33-.65.66-1.36,1-2.13l1.29.31C60.21,78.4,60.44,77.84,60.66,77.26ZM57,76.3c-1-.3-1.95-.63-2.91-1,.88-.76,2.94-2.54,4.63-4.19h0v0S58.08,73.29,57,76.3Z"/><path class="cls-131" d="M66.62,77.62c2.6-2,3.34-6.76-.37-7.35-3-.27-3.89,2.57-4.28,3.78l.71.15,1.46.27c.26-.92.56-2,1.5-2.11,1.1-.2,4,2.13-2.69,5.43-2.67,1.31-3.2,2.13-3.94,3.27l.79.17a24.1,24.1,0,0,0,5.51.56,15.83,15.83,0,0,0,1.14-1.6,21.41,21.41,0,0,1-3.86-.26C63.82,79,65.38,78.57,66.62,77.62Z"/></g></g><path class="cls-132" d="M52.82,31.82l-2.1-.62.8-2.76.79.23-.65,2.24,1.32.38Z"/><path class="cls-132" d="M56.47,31.4a1.46,1.46,0,0,1-.71.93,1.66,1.66,0,0,1-1.23.05,1.6,1.6,0,0,1-1-.72,1.61,1.61,0,0,1,.61-2.1,1.65,1.65,0,0,1,1.23,0,1.69,1.69,0,0,1,1,.71A1.48,1.48,0,0,1,56.47,31.4Zm-.82-.25a1.47,1.47,0,0,0,.07-.43.8.8,0,0,0-.08-.33.47.47,0,0,0-.18-.23.75.75,0,0,0-.25-.13.69.69,0,0,0-.28,0,.58.58,0,0,0-.27.09.69.69,0,0,0-.24.24,1.3,1.3,0,0,0-.19.41,1.22,1.22,0,0,0-.06.44.79.79,0,0,0,.07.32.55.55,0,0,0,.19.23.6.6,0,0,0,.25.13.67.67,0,0,0,.28,0,.59.59,0,0,0,.28-.1,1,1,0,0,0,.24-.23A1.63,1.63,0,0,0,55.65,31.15Z"/><path class="cls-132" d="M57.14,33.09l.65-2.23-.93-.28.15-.52,2.66.78-.16.52-.93-.27-.64,2.23Z"/><path class="cls-132" d="M59.8,33.87l.65-2.23-.94-.28.16-.52,2.65.78-.15.53-.93-.28-.65,2.24Z"/><path class="cls-132" d="M61.85,34.48l.8-2.76,2.13.62-.15.53-1.35-.4-.14.49,1.24.36-.15.53L63,33.48l-.2.7,1.34.4L64,35.1Z"/><path class="cls-132" d="M67.43,36.12l-1-.28-.59-1.27-.28-.09-.3,1-.78-.23.8-2.76,1.26.38A2.56,2.56,0,0,1,67,33a1.12,1.12,0,0,1,.33.22,1,1,0,0,1,.2.32.69.69,0,0,1,0,.4.85.85,0,0,1-.31.47,1.11,1.11,0,0,1-.53.18Zm-.72-2.29a.41.41,0,0,0,0-.19.36.36,0,0,0-.12-.16.75.75,0,0,0-.15-.09l-.23-.07L66,33.24l-.22.74.23.07a2.27,2.27,0,0,0,.28.07.52.52,0,0,0,.22,0,.38.38,0,0,0,.15-.09A.38.38,0,0,0,66.71,33.83Z"/><path class="cls-132" d="M71.09,34.2l-1.56,1.29-.33,1.15-.79-.23.32-1.12-.63-2,.9.27.33,1.16.88-.81Z"/><path class="cls-132" d="M28.39,38.33,26.64,39l-.81-2.29.65-.24.66,1.86,1.09-.4Z"/><path class="cls-132" d="M30.68,36.21a1.23,1.23,0,0,1,0,1,1.41,1.41,0,0,1-.82.65,1.39,1.39,0,0,1-1,0,1.25,1.25,0,0,1-.65-.75,1.23,1.23,0,0,1,0-1,1.39,1.39,0,0,1,.81-.65,1.34,1.34,0,0,1,1,0A1.21,1.21,0,0,1,30.68,36.21Zm-.68.25a1.2,1.2,0,0,0-.18-.34.6.6,0,0,0-.21-.18.44.44,0,0,0-.24-.07.59.59,0,0,0-.23,0,.72.72,0,0,0-.21.12.54.54,0,0,0-.14.2.78.78,0,0,0-.05.28,1.37,1.37,0,0,0,.08.37,1.53,1.53,0,0,0,.17.34.84.84,0,0,0,.21.18.55.55,0,0,0,.24.07.67.67,0,0,0,.24,0,.57.57,0,0,0,.21-.13.48.48,0,0,0,.14-.2.87.87,0,0,0,0-.28A1.48,1.48,0,0,0,30,36.46Z"/><path class="cls-132" d="M32,37l-.66-1.85-.77.28L30.38,35l2.21-.79.15.43-.77.28.66,1.86Z"/><path class="cls-132" d="M34.17,36.24l-.65-1.86-.78.28-.15-.43,2.2-.8.15.44-.77.28L34.83,36Z"/><path class="cls-132" d="M35.87,35.62l-.81-2.29,1.77-.64.15.44-1.11.4.14.4,1-.37.15.44-1,.37.2.58,1.12-.4.15.43Z"/><path class="cls-132" d="M40.51,34l-.81.29-1-.58-.24.09.3.84-.65.23-.82-2.29,1-.38a3,3,0,0,1,.39-.11,1,1,0,0,1,.34,0,.69.69,0,0,1,.29.12.55.55,0,0,1,.19.27.73.73,0,0,1,0,.48,1,1,0,0,1-.27.39Zm-1.63-1.21a.25.25,0,0,0-.09-.13.21.21,0,0,0-.16,0,.44.44,0,0,0-.15,0l-.19.06-.21.08.21.61.19-.06.23-.1a.58.58,0,0,0,.14-.12.42.42,0,0,0,.06-.14A.38.38,0,0,0,38.88,32.74Z"/><path class="cls-132" d="M42.06,30.8l-.43,1.66.34,1-.66.23L41,32.73l-1.4-1,.75-.27.8.63.2-1Z"/></svg>