<svg width="32" height="32" viewBox="0 0 32 32" fill="none" xmlns="http://www.w3.org/2000/svg">
    <path d="M15.99.571c-4.24 0-8.307 1.667-11.305 4.634A15.736 15.736 0 0 0 .003 16.39v.02c-.045 2.178.391 4.34 1.28 6.334a16.842 16.842 0 0 0 4.001 5.412l-.352.265.417.173-.01.447.398-.212.352.287.08-.442.443-.09-.299-.337.206-.399-.452.02-.188-.407-.265.363-.057-.014a16.555 16.555 0 0 1-3.866-5.24 15.031 15.031 0 0 1-1.25-5.804h1.135a7.982 7.982 0 0 0 .278 2.26l-.133.024.195.231-.144.265h.304l.12.274.176-.238.293.078-.076-.29.246-.174-.275-.123.012-.3-.27.136-.045-.038a7.65 7.65 0 0 1-.25-2.098h2.409A10.24 10.24 0 0 0 6.7 23.279l-.176.115.267.142-.033.3.278-.119.214.212.082-.288.3-.033-.175-.244.162-.254-.304-.014-.1-.283-.176.188a9.958 9.958 0 0 1-2.19-6.227h16.117a5.259 5.259 0 0 0-.886-2.375 5.332 5.332 0 0 0-1.9-1.697l.047.186-.496-.137-.314.402-.199-.47h-.515l.247-.447-.327-.392.508-.087.107-.5.384.338.46-.226-.026.508.468.213-.247.174a5.863 5.863 0 0 1 2.13 1.866c.544.785.885 1.69.994 2.637h2.913a7.962 7.962 0 0 0-1.038-3.657 8.06 8.06 0 0 0-2.622-2.775l.097.337-.759-.174-.454.63-.329-.696-.78.04.351-.696-.518-.577.764-.161.133-.762.605.489.683-.37v.771l.72.3-.51.39a8.537 8.537 0 0 1 2.933 2.953 8.428 8.428 0 0 1 1.173 3.973h2.08a11.576 11.576 0 0 0-2.526-6.562 10.202 10.202 0 0 0-3.566-2.629 10.304 10.304 0 0 0-4.357-.88l.25.672-.88-.141-.46.756-.44-.77-.878.115.335-.82-.643-.615.858-.252.082-.881.734.506.75-.484.057.882.848.278-.369.332c1.528-.001 3.04.326 4.427.959a10.54 10.54 0 0 1 3.613 2.708 11.9 11.9 0 0 1 2.635 6.826h.866a11.617 11.617 0 0 0-2.249-6.679 12.399 12.399 0 0 0-5.973-4.321v.328l-.376-.205-.332.27-.072-.42-.42-.088.285-.318-.192-.381.428.023.176-.385.25.348.418-.1-.118.408.19.146a12.641 12.641 0 0 1 6.095 4.452 12.181 12.181 0 0 1 2.322 6.924H32v-.377c.002-2.08-.41-4.142-1.215-6.064a15.808 15.808 0 0 0-3.47-5.14A16 16 0 0 0 22.12 1.77 16.132 16.132 0 0 0 15.99.57z" fill="#90949C"/>
    <path d="M9.914 21.273v2.923c0 .202-.049.356-.146.46a.486.486 0 0 1-.37.155.47.47 0 0 1-.368-.16c-.092-.105-.138-.258-.138-.455v-2.894c0-.2.046-.35.138-.452a.48.48 0 0 1 .367-.152c.15 0 .274.05.37.152.098.101.147.242.147.422zm-.506-1.045a.55.55 0 0 1-.367-.13.459.459 0 0 1-.15-.367.45.45 0 0 1 .154-.352.528.528 0 0 1 .363-.14.54.54 0 0 1 .352.125c.103.084.154.206.154.367 0 .156-.05.278-.15.367a.525.525 0 0 1-.356.13zM14.61 20.194h-1.214v3.946c0 .228-.051.397-.153.508a.52.52 0 0 1-.397.163.531.531 0 0 1-.405-.167c-.102-.11-.153-.279-.153-.504v-3.946h-1.213c-.19 0-.331-.04-.423-.122a.425.425 0 0 1-.139-.33c0-.14.047-.252.142-.333.098-.082.238-.122.42-.122h3.534c.193 0 .335.041.427.126a.42.42 0 0 1 .143.33.42.42 0 0 1-.143.329c-.095.082-.237.122-.427.122zM18.133 23.003h-2c.003.23.049.432.139.607a.974.974 0 0 0 .363.397c.152.089.32.133.502.133.122 0 .233-.013.333-.04.102-.03.201-.075.296-.134.095-.062.182-.127.262-.196.08-.07.184-.163.31-.282a.338.338 0 0 1 .225-.066c.105 0 .19.028.255.085a.303.303 0 0 1 .097.24.663.663 0 0 1-.108.323 1.303 1.303 0 0 1-.33.352 1.871 1.871 0 0 1-.55.278c-.22.074-.473.111-.76.111-.657 0-1.167-.185-1.532-.556-.364-.37-.546-.873-.546-1.508 0-.299.045-.575.134-.83.09-.257.221-.477.394-.66.172-.182.384-.322.636-.418a2.28 2.28 0 0 1 .839-.148c.4 0 .741.084 1.026.252.287.165.502.38.644.644.142.265.213.534.213.808 0 .255-.073.42-.22.497-.148.074-.355.11-.622.11zm-2-.575h1.854c-.025-.345-.12-.603-.285-.774-.162-.173-.377-.26-.644-.26a.826.826 0 0 0-.629.264c-.162.173-.26.43-.296.77zM23.506 23.559c0 .126-.039.26-.116.403-.075.144-.191.28-.348.412-.155.128-.351.232-.588.311-.237.08-.504.119-.801.119-.632 0-1.125-.182-1.48-.545-.354-.366-.531-.855-.531-1.467 0-.415.081-.782.243-1.1.162-.32.397-.565.704-.738.307-.175.674-.263 1.101-.263.265 0 .507.038.726.115.223.076.41.175.562.296.155.121.272.25.352.39a.744.744 0 0 1 .124.38.4.4 0 0 1-.139.308.465.465 0 0 1-.33.126.352.352 0 0 1-.213-.063 1.133 1.133 0 0 1-.187-.21 1.521 1.521 0 0 0-.393-.423.884.884 0 0 0-.517-.141.884.884 0 0 0-.73.352c-.185.232-.277.55-.277.956 0 .19.024.365.07.526.048.158.117.294.207.407a.905.905 0 0 0 .745.341c.205 0 .38-.046.524-.14.148-.094.277-.238.39-.43a.991.991 0 0 1 .202-.267.386.386 0 0 1 .266-.096c.125 0 .228.047.31.14a.449.449 0 0 1 .124.3zM25.206 19.809v1.5c.13-.148.256-.265.378-.352.125-.086.262-.15.412-.192.15-.045.31-.067.483-.067.26 0 .49.055.689.163.202.109.36.267.476.474.072.121.12.257.146.408.024.148.037.32.037.515v1.938c0 .202-.047.356-.142.46a.472.472 0 0 1-.371.155c-.337 0-.505-.205-.505-.615v-1.708c0-.324-.05-.572-.146-.745-.098-.175-.283-.263-.555-.263a.839.839 0 0 0-.494.156.92.92 0 0 0-.326.418c-.055.151-.082.419-.082.804v1.338c0 .2-.046.353-.139.46a.474.474 0 0 1-.378.155c-.337 0-.505-.205-.505-.615v-4.387c0-.205.043-.358.13-.46a.469.469 0 0 1 .375-.155c.163 0 .289.052.378.155.093.104.139.257.139.46zM9.796 27.523v3.12h1.779c.141 0 .25.033.325.102a.33.33 0 0 1 .115.257c0 .105-.038.19-.113.257-.074.064-.184.097-.327.097H9.457c-.191 0-.33-.042-.414-.126-.083-.084-.124-.22-.124-.406v-3.3c0-.176.04-.308.118-.395a.41.41 0 0 1 .316-.132c.132 0 .239.044.32.132.082.086.123.217.123.394zM14.576 30.979c-.195.15-.384.263-.567.339a1.604 1.604 0 0 1-.612.11c-.207 0-.389-.04-.546-.12a.907.907 0 0 1-.36-.33.847.847 0 0 1-.128-.45c0-.218.07-.404.21-.558.14-.154.332-.257.576-.31.051-.012.178-.038.381-.079.203-.04.376-.078.52-.11.146-.036.303-.078.473-.127-.01-.21-.053-.364-.13-.461-.075-.1-.232-.15-.47-.15-.205 0-.36.029-.464.085a.762.762 0 0 0-.266.255 2.51 2.51 0 0 1-.156.225c-.03.035-.095.052-.195.052a.355.355 0 0 1-.237-.084.286.286 0 0 1-.097-.223c0-.14.05-.276.15-.409.101-.132.258-.241.47-.327.213-.086.478-.129.795-.129.354 0 .633.042.836.126a.762.762 0 0 1 .428.392c.085.179.127.417.127.713 0 .187 0 .346-.003.476 0 .13 0 .276-.003.436 0 .15.025.307.074.47.051.162.077.266.077.313 0 .082-.04.157-.118.225a.391.391 0 0 1-.263.1c-.083 0-.164-.038-.245-.114a1.76 1.76 0 0 1-.257-.337zm-.053-1.155c-.118.043-.29.089-.517.137-.225.047-.38.082-.467.106a.615.615 0 0 0-.248.131.331.331 0 0 0-.118.272c0 .12.046.224.139.31a.52.52 0 0 0 .363.125c.16 0 .306-.034.44-.102a.704.704 0 0 0 .298-.269c.073-.12.11-.32.11-.596v-.114zM16.797 27.453v1.22c.152-.157.306-.276.464-.357.157-.084.352-.126.585-.126.268 0 .502.063.703.19.203.125.36.307.47.547.112.237.168.52.168.847 0 .242-.032.464-.095.667-.06.2-.15.375-.268.523a1.23 1.23 0 0 1-.432.345c-.167.08-.352.12-.555.12-.124 0-.241-.015-.352-.044a1.065 1.065 0 0 1-.475-.263 3.618 3.618 0 0 1-.213-.228v.079c0 .15-.036.264-.11.342a.368.368 0 0 1-.277.114.353.353 0 0 1-.274-.114c-.067-.078-.101-.192-.101-.342v-3.485c0-.161.032-.283.098-.365a.336.336 0 0 1 .277-.126c.124 0 .22.04.287.12.067.078.1.19.1.336zm.038 2.37c0 .319.073.563.22.735.147.17.34.254.578.254a.662.662 0 0 0 .523-.26c.148-.176.222-.426.222-.752 0-.21-.031-.391-.092-.543a.78.78 0 0 0-.26-.35.639.639 0 0 0-.393-.127.7.7 0 0 0-.41.126.815.815 0 0 0-.284.36 1.374 1.374 0 0 0-.104.558zM22.43 30.385c0 .22-.054.41-.162.567a1.006 1.006 0 0 1-.482.357c-.21.08-.467.12-.77.12-.29 0-.538-.044-.745-.132a1.089 1.089 0 0 1-.458-.327.664.664 0 0 1-.148-.398c0-.087.032-.162.095-.225a.326.326 0 0 1 .24-.093c.084 0 .149.02.194.061.045.04.089.098.13.172a.883.883 0 0 0 .295.319c.117.07.274.105.473.105a.686.686 0 0 0 .396-.105c.104-.072.157-.154.157-.245 0-.14-.055-.243-.163-.307-.106-.065-.283-.126-.529-.185a4.61 4.61 0 0 1-.68-.213 1.13 1.13 0 0 1-.416-.298.675.675 0 0 1-.156-.453c0-.16.048-.311.145-.453a.981.981 0 0 1 .425-.34c.189-.085.416-.128.682-.128.209 0 .396.021.562.064.167.043.306.1.416.173a.832.832 0 0 1 .254.24.46.46 0 0 1 .089.257.293.293 0 0 1-.095.225c-.06.058-.148.087-.263.087a.332.332 0 0 1-.212-.07 1.44 1.44 0 0 1-.198-.21.727.727 0 0 0-.216-.187.686.686 0 0 0-.337-.07.657.657 0 0 0-.363.093c-.097.06-.145.137-.145.228 0 .084.036.153.107.208.07.052.166.096.286.131.12.035.286.078.496.129.25.06.454.132.612.216.16.084.28.183.36.298a.642.642 0 0 1 .124.39z" fill="#90949C"/>
</svg>
