<?xml version="1.0" encoding="utf-8"?>
<!-- Generator: Adobe Illustrator 27.1.1, SVG Export Plug-In . SVG Version: 6.00 Build 0)  -->
<svg version="1.1" id="Layer_1" xmlns="http://www.w3.org/2000/svg" xmlns:xlink="http://www.w3.org/1999/xlink" x="0px" y="0px"
	 viewBox="0 0 20 20" style="enable-background:new 0 0 20 20;" xml:space="preserve">
<style type="text/css">
	.st0{fill:#443BE9;}
</style>
<g>
	<path class="st0" d="M4.5,0c0.9,0,1.8,0,2.7,0c0.3,0,0.3,0,0.2,0.3C6.6,2.8,5.7,5.2,4.8,7.7c0,0.1-0.1,0.2-0.1,0.3
		C4.6,8.3,4.7,8.6,5.1,8.6c0.4,0,0.8,0,1.2,0c0.9,0,1.8,0,2.7,0c0.3,0,0.3,0,0.1,0.2c-1.3,2.4-2.5,4.7-3.8,7.1
		c-0.7,1.3-1.3,2.5-2,3.8C3.2,19.9,3.1,20,2.9,20c-0.2-0.1-0.3-0.2-0.4-0.5c-0.1-1.6-0.2-3.1-0.3-4.7c-0.1-1.3-0.2-2.6-0.3-3.9
		C1.8,9.3,1.7,7.8,1.6,6.2C1.5,4.9,1.5,3.6,1.4,2.3c0-0.5-0.1-1.1-0.1-1.6C1.2,0.2,1.4,0,1.9,0C2.8,0,3.7,0,4.5,0z"/>
	<path class="st0" d="M15.5,0c0.9,0,1.8,0,2.6,0c0.4,0,0.6,0.2,0.5,0.6c-0.5,2.1-1,4.2-1.4,6.3c-0.5,2.3-1.1,4.6-1.6,7
		c-0.1,0.3-0.2,0.5-0.6,0.5c-1.5,0-3,0-4.5,0c-0.2,0-0.3,0-0.1-0.2c0.8-1.5,1.6-3,2.4-4.4c0.7-1.3,1.4-2.6,2.1-3.9
		c0-0.1,0.1-0.1,0.1-0.2c0.2-0.3,0-0.6-0.4-0.6c-0.9,0-1.7,0-2.6,0c-0.3,0-0.7,0-1,0c-0.3,0-0.3,0-0.2-0.3c0.3-0.9,0.6-1.8,1-2.6
		c0.2-0.6,0.5-1.3,0.7-1.9C12.6,0.1,12.7,0,12.9,0C13.8,0,14.7,0,15.5,0z"/>
</g>
</svg>
