<?xml version="1.0" encoding="UTF-8"?>
<svg id="Layer_1" data-name="Layer 1" xmlns="http://www.w3.org/2000/svg" viewBox="0 0 208 40">
  <defs>
    <style>
      .cls-1 {
        fill: #443be9;
        fill-rule: evenodd;
      }
    </style>
  </defs>
  <path class="cls-1" d="M2,1.75c-.2,.05-.45,.26-.53,.46-.07,.17,.05,2.16,1.02,16.92,1.23,18.65,1.2,18.3,1.31,18.5,.24,.47,.89,.58,1.23,.22,.07-.07,2.58-4.71,5.58-10.32l5.46-10.18-3.99-.03c-3.61-.03-4-.04-4.17-.13-.2-.11-.37-.41-.37-.65,0-.08,1.21-3.44,2.7-7.46,1.48-4.02,2.7-7.33,2.7-7.35,0-.04-10.78-.03-10.94,.01Zm20.11,.29c-.07,.18-.82,2.21-1.67,4.51-.85,2.3-1.55,4.21-1.57,4.25-.02,.06,.72,.07,3.61,.07,4.01,0,3.87-.01,4.1,.37,.15,.25,.14,.51-.04,.87-.08,.17-2.02,3.78-4.3,8.04-2.28,4.25-4.14,7.75-4.14,7.76s2.04,.03,4.54,.03c4.45,0,4.55,0,4.73-.12,.11-.06,.23-.2,.27-.3,.04-.1,1.05-4.39,2.23-9.53,3.58-15.55,3.56-15.46,3.52-15.64-.05-.23-.25-.46-.47-.56-.16-.07-1.11-.08-5.44-.08h-5.25l-.12,.33Zm23.86,12.78v13.12h14.45v-6.33h-8.18V1.7h-6.27V14.82Zm55.9-7.54c-2.65,.3-4.93,1.42-6.46,3.17-1.32,1.5-2.16,3.51-2.42,5.73-.08,.68-.08,2.38,0,3.09,.26,2.44,1.22,4.49,2.84,6.11,1.11,1.11,2.27,1.82,3.8,2.31,1.27,.41,1.87,.49,3.6,.5,1.35,0,1.58-.01,2.18-.13,1.83-.37,3.39-1.11,4.69-2.24,1.11-.95,2.13-2.45,2.59-3.8l.14-.42h-3.42c-2.2,0-3.42,.02-3.42,.06,0,.03-.17,.24-.38,.46-.65,.69-1.44,1-2.58,1-1.17,0-1.94-.31-2.71-1.07-.66-.66-.98-1.38-1.15-2.57l-.04-.25h7.08c5.06,0,7.09-.02,7.12-.06,.08-.13,.1-2.51,.03-3.13-.46-4.06-2.79-7.04-6.45-8.26-1.45-.48-3.45-.68-5.05-.5Zm20.64,0c-3.02,.32-5.28,1.66-6.31,3.74-.47,.94-.54,1.31-.54,2.61,0,1.04,0,1.13,.16,1.62,.24,.77,.52,1.25,1.05,1.82,1.19,1.25,2.22,1.72,5.83,2.65,3.41,.88,4.02,1.22,4.01,2.28,0,.43-.14,.74-.48,1.04-.44,.39-.81,.5-1.72,.53-1.2,.04-1.89-.18-2.58-.81-.29-.26-.67-.86-.67-1.06,0-.08-.29-.09-3.14-.09h-3.14l.04,.22c.6,3.38,3.49,5.78,7.6,6.31,.89,.12,2.62,.12,3.49,0,3.34-.44,5.68-2.16,6.37-4.68,.11-.42,.13-.62,.13-1.47,0-.84-.02-1.06-.13-1.48-.45-1.71-1.78-3.08-3.68-3.8-.97-.37-2.22-.75-3.85-1.16-2.34-.59-3-.89-3.3-1.49-.38-.76-.06-1.56,.79-1.94,.33-.15,.44-.17,1.15-.19,.89-.03,1.31,.05,1.88,.35,.59,.32,1.14,1.05,1.24,1.66l.04,.24h5.79v-.15c0-.28-.23-1.29-.41-1.8-.36-1.02-.88-1.87-1.6-2.61-1.29-1.33-2.85-2.04-5.07-2.31-.72-.09-2.19-.1-2.92-.02Zm23.5,0c-2.03,.28-3.77,1.29-4.95,2.87l-.13,.17v-2.81h-6.33v26.23h6.33v-8.56l.15,.2c.3,.4,1.22,1.26,1.64,1.55,.93,.62,1.94,1.02,3.07,1.21,.88,.15,2.52,.09,3.38-.11,2.56-.6,4.59-2.26,5.85-4.78,.51-1.01,.92-2.41,1.08-3.69,.1-.8,.12-2.68,.02-3.51-.17-1.55-.68-3.2-1.37-4.38-1.31-2.27-3.32-3.76-5.76-4.28-.65-.14-2.33-.2-3-.11Zm50.48,0c-2.17,.23-4.1,1.09-5.3,2.35-.49,.53-.7,.83-1.01,1.49-.62,1.31-.72,2.97-.25,4.36,.22,.65,.49,1.1,.97,1.61,.72,.77,1.55,1.3,2.65,1.71,.68,.25,2.09,.66,3.1,.9,1.72,.41,3.01,.84,3.5,1.17,.53,.35,.73,.9,.55,1.51-.16,.54-.63,.92-1.35,1.11-.44,.12-1.57,.11-2.02,0-.96-.25-1.74-.89-2.01-1.67l-.07-.22h-6.25l.03,.13c.35,1.72,.9,2.77,2.06,3.89,1.43,1.39,3.38,2.25,5.75,2.53,.75,.09,2.57,.07,3.32-.03,3.36-.46,5.69-2.19,6.36-4.71,.13-.48,.15-.69,.15-1.38,0-.91-.09-1.46-.37-2.18-.43-1.11-1.44-2.17-2.69-2.82-.8-.41-2.74-1.04-4.73-1.52-2.63-.64-3.33-1.08-3.33-2.09,0-.73,.43-1.21,1.27-1.43,.4-.11,1.54-.1,1.97,.01,.97,.25,1.72,.98,1.92,1.86l.07,.29h2.92l2.92,.03-.04-.22c-.26-1.59-.68-2.66-1.46-3.69-1.31-1.74-3.24-2.74-5.82-3-.7-.07-2.09-.07-2.79,0Zm-18.4,.06c-1.82,.22-3.37,.97-4.55,2.19l-.56,.59v-2.61h-6.27V27.94h6.27l.02-6.08c.02-6.03,.02-6.08,.14-6.51,.27-.95,.81-1.72,1.51-2.18,1.07-.71,2.84-.81,4.07-.22,.76,.37,1.42,1.1,1.74,1.93,.31,.83,.31,.77,.31,7.15v5.91h6.27l-.02-6.72c-.02-6.57-.02-6.73-.14-7.36-.36-1.86-.97-3.13-2.02-4.25-.88-.94-1.75-1.5-2.94-1.89-.33-.11-.84-.24-1.12-.29-.66-.12-2.06-.16-2.69-.08ZM62.4,17.72v10.21h6.33V7.51h-6.33v10.21Zm8.48-10.16s1.58,4.52,3.52,9.97c1.94,5.45,3.56,10.02,3.6,10.16l.09,.25h7.76l.11-.33c.06-.18,1.69-4.76,3.6-10.16,1.92-5.4,3.49-9.85,3.49-9.88,0-.03-1.31-.05-3.32-.05h-3.32l-2.2,7.25c-1.21,3.99-2.21,7.24-2.22,7.23s-1.01-3.27-2.21-7.24l-2.19-7.22h-3.35c-2.15-.02-3.35,0-3.35,.03Zm87.36,10.16v10.21h6.27V7.51h-6.27v10.21Zm-53.72-5.28c1.44,.46,2.47,1.7,2.47,3v.31h-7.78l.04-.22c.07-.39,.36-1.17,.56-1.5,.46-.76,1.47-1.48,2.37-1.68,.57-.13,1.82-.08,2.35,.09Zm42.04,.41c1.13,.29,2.17,1.14,2.72,2.22,.44,.89,.52,1.27,.52,2.62s-.07,1.73-.51,2.61c-.32,.65-.73,1.15-1.27,1.56-.5,.38-.85,.56-1.43,.74-.57,.18-1.78,.19-2.38,.03-1.19-.33-2.25-1.23-2.79-2.39-.63-1.34-.68-3.26-.13-4.74,.37-1.01,1.35-2.04,2.31-2.45,.89-.38,1.97-.45,2.97-.2Z"/>
</svg>