<svg xmlns="http://www.w3.org/2000/svg" xmlns:xlink="http://www.w3.org/1999/xlink" viewBox="0 0 1064.17 210.93"><defs><style>.cls-1,.cls-4{fill:#fff;}.cls-2{fill:#d3b271;}.cls-3{fill:url(#radial-gradient);}.cls-4{fill-rule:evenodd;}.cls-5{fill:#00d1ff;stroke:#1c2331;stroke-width:10.35px;}.cls-6{fill:#1c2331;}</style><radialGradient id="radial-gradient" cx="-1605.31" cy="-83.77" r="0.07" gradientTransform="matrix(1289.62, 0, 0, -1133.08, 2070602.11, -94895.85)" gradientUnits="userSpaceOnUse"><stop offset="0" stop-color="#c01617"/><stop offset="0.51" stop-color="#be181b"/><stop offset="1" stop-color="#c7120c"/></radialGradient></defs><g id="Layer_2" data-name="Layer 2"><g id="Layer_1-2" data-name="Layer 1"><path class="cls-1" d="M419.87,63.69V26.23H406.19V17.41h39v8.82H431.5V63.69Z"/><path class="cls-1" d="M489,63.69H477.4V43.17H461.58V63.69H450V17.41h11.62V34.35H477.4V17.41H489Z"/><path class="cls-1" d="M498.63,63.69V17.41h31.3v8.82H510.2v8.12h18.18v8.82H510.2V54.86h19.73v8.83Zm28.91-50.92h-8l-5.13-5.31-5.1,5.31h-7.92l9.35-10.28h7.49Zm11-8a4.57,4.57,0,0,1-1.18,3.42A8,8,0,0,1,534.47,10v1.83h-5.53V8.3a4.65,4.65,0,0,0,2.2-1.12,2.65,2.65,0,0,0,.75-2A1.39,1.39,0,0,0,531.3,4a2.54,2.54,0,0,0-1.62-.47,6.41,6.41,0,0,0-1.55.16,10.78,10.78,0,0,0-1.31.4h-.09V.56a13.63,13.63,0,0,1,1.8-.37A16.09,16.09,0,0,1,531.08,0a9.17,9.17,0,0,1,5.6,1.43A4.14,4.14,0,0,1,538.57,4.79Z"/><path class="cls-1" d="M565.33,63.69V26.23H551.66V17.41h39v8.82H577V63.69Z"/><path class="cls-1" d="M634.49,63.69H622.87V43.17H607.05V63.69H595.42V17.41h11.63V34.35h15.82V17.41h11.62Z"/><path class="cls-1" d="M639.12,63.69l15.64-46.28h12.68l15.63,46.28h-12l-2.89-9.45H653.67l-2.89,9.45Zm26.55-17.84-4.73-15.27-4.72,15.27Z"/><path class="cls-1" d="M729.82,40.56q0,11.22-6,17.66t-16.44,6.43q-10.47,0-16.44-6.5t-6-17.59q0-11.16,6-17.62t16.44-6.5q10.44,0,16.44,6.47T729.82,40.56Zm-12,0a24.58,24.58,0,0,0-.87-7,14.14,14.14,0,0,0-2.27-4.79A8.57,8.57,0,0,0,711.3,26a9.39,9.39,0,0,0-3.89-.84,9.53,9.53,0,0,0-3.88.77,9.12,9.12,0,0,0-3.36,2.71,14.4,14.4,0,0,0-2.33,4.78,25.67,25.67,0,0,0-.87,7.12,25.35,25.35,0,0,0,.84,7.09,14.27,14.27,0,0,0,2.3,4.69,8.77,8.77,0,0,0,3.38,2.77,9.9,9.9,0,0,0,3.92.81,9.59,9.59,0,0,0,4-.87,8.76,8.76,0,0,0,3.32-2.77A15.22,15.22,0,0,0,717,47.59,25.74,25.74,0,0,0,717.82,40.53Z"/><path class="cls-2" d="M339.53,16.6a.7.7,0,0,1,.7-.71h54a.71.71,0,0,1,.71.71v48a.71.71,0,0,1-.71.71h-54a.7.7,0,0,1-.7-.71Z"/><path class="cls-3" d="M342.26,19.34a.71.71,0,0,1,.71-.71h48.55a.71.71,0,0,1,.71.71V61.83a.7.7,0,0,1-.71.7H343a.7.7,0,0,1-.71-.7Z"/><path class="cls-4" d="M361,40.39V56c0,.34-.09.55-.39.55s-.43-.21-.43-.55V53.89h-.77c-.56,0-2.34,1.38-3.47,2.25h0c-.37.28-.66.51-.83.62a24.33,24.33,0,0,0-4-1.84l-.57.53h0c-.36.33-.65.6-.84.8l-.2.2c-.17.17-.26.27-.36.27a.55.55,0,0,1-.48-.47c0-.21.48-.73,2.67-3,1.51-1.54,2.11-3.38,2.11-6.2,0-4.67-2-8.66-4.34-8.66a1.12,1.12,0,0,0-1.29,1.07c0,.39-.21.51-.39.51-.34,0-.51-.56-.51-1.5a3.62,3.62,0,0,1,3.35-3.85,3.44,3.44,0,0,1,1.95.7,1.86,1.86,0,0,0,1.23.46V32.68a2.52,2.52,0,0,0-.91-2c-.51-.43-3.18-2.23-4.17-2.23a1.7,1.7,0,0,0-.45.07,1,1,0,0,1-.28,0c-.13,0-.18,0-.18-.12s.07-.19.27-.42h0l.08-.09,3.39-3.35.08-.06a.53.53,0,0,1,.35-.15c.68,0,2.58,1.29,4.14,2.34A11.51,11.51,0,0,0,358,28.06a12.07,12.07,0,0,0,3-1.58c1.55-1,3.25-2,3.93-2,.32,0,.65.26,2.85,2h0l.44.36c.11.08.24.19.39.32h0a15.67,15.67,0,0,0,1.68,1.27c.69.42.73.51.73,1.33.43-.09.91-.43,3.61-2.62a38.68,38.68,0,0,1,3.22-2.49c.22,0,2.11.78,4.91,1.93.82.34.94.42.94.94V49.7c0,.73.09,1,.39,1.24,1.29,1.11,2.07,1.54,2.5,1.54a.68.68,0,0,0,.43-.17c.21-.3.26-.34.39-.34s.26.17.26.34a17.65,17.65,0,0,1-3.91,4.2,14.71,14.71,0,0,1-4.43-3,1.32,1.32,0,0,1-.46-1.24V36.36c0-1.84.59-3.09,2.75-6,1.12-1.45,1.19-1.88,1-1.88a20.65,20.65,0,0,0-2,1.27l-1.35.92-.28-.16c-2.1-1.21-2.79-1.6-4-1.6-.69,0-1.16.34-1.16.78V56.08c0,.34-.18.6-.43.6s-.35-.21-.35-.55v-2A6.35,6.35,0,0,0,370,56c-.37.35-.65.61-.8.61-.47,0-3.26-3.34-3.26-3.61V40.39Zm-.78-10.92c0-.87-.09-1.16-.26-1.16-.38,0-1.76.86-1.76,1.16V41.33c0,5.76-.66,6.45-2.15,8l-.08.09c-.7.73-.86.9-1.38,1.5.91,1.24,3.91,1.8,5.64,1.72V29.47ZM366,36.32h-5V29.13c0-.57.25-.87.73-.87,1.07,0,4.3,2.45,4.3,3.35Zm7-6.09c0-.09,0-.13-.17-.13a1.1,1.1,0,0,0-.48.18l-1,.6c-.56.34-.73.51-.73.77v4.29c0,.3.39.51.69.51H373ZM371.39,40.3H373V52.73c-1.59-.12-2.32-.94-2.32-2.65V41.29C370.7,40.65,370.92,40.3,371.39,40.3Z"/><path class="cls-5" d="M49.77,194a44.6,44.6,0,1,0-44.6-44.6A44.6,44.6,0,0,0,49.77,194Z"/><path class="cls-6" d="M61.8,159.76l16.78,2.52a25.11,25.11,0,0,1-10.25,12.59q-6.94,4.27-17.44,4.28-16.59,0-24.56-9.69Q20,161.69,20,149.85q0-14.13,8.27-22.12t20.92-8q14.19,0,22.41,8.41t7.84,25.65H37.29q.18,6.7,4.08,10.45a13.54,13.54,0,0,0,9.7,3.69A11.15,11.15,0,0,0,57.72,166,11.77,11.77,0,0,0,61.8,159.76Zm1-15.21Q62.58,138,59,134.64a12.22,12.22,0,0,0-8.75-3.43,12.34,12.34,0,0,0-9.1,3.59q-3.6,3.58-3.54,9.75Z"/><path class="cls-1" d="M112.08,183.78v-67c0-4,2.51-6.51,6.51-6.51h27.09c18.86,0,28,6.63,28,20.34V134c0,7.31-3.66,12.57-10.63,15.43,7.77,2.74,11.89,8.22,11.89,16.11v3.89c0,13.94-9.38,20.91-28.23,20.91H118.59C114.59,190.29,112.08,187.78,112.08,183.78ZM130.94,124v19.2H145c6.86,0,9.95-2.4,9.95-8v-3c0-5.71-3.09-8.23-9.95-8.23ZM146,176.58c7,0,10.17-2.63,10.17-8.35V164.8c0-5.71-3.2-8.34-10.17-8.34H130.94v20.12Z"/><path class="cls-1" d="M252.2,136.69v27.2c0,17.83-12.46,27.77-33,27.77s-32.92-9.94-32.92-27.77v-27.2c0-17.83,12.46-27.77,32.92-27.77S252.2,118.86,252.2,136.69Zm-33,40.69c9,0,13.82-4.46,13.82-12.46V135.66c0-8-4.68-12.46-13.82-12.46s-13.72,4.46-13.72,12.46v29.26C205.45,172.92,210.14,177.38,219.17,177.38Zm-8.8-75.66v-.46a4.07,4.07,0,0,1,1.14-2.63l6.28-7.31c1.6-1.83,2.29-2.63,5-2.63h9.72c1.6,0,2.28.8,2.28,2.06v.57A4.66,4.66,0,0,1,233,94.63l-8.22,7.09a7.45,7.45,0,0,1-5.72,2.06h-6.51C211.05,103.78,210.37,103.09,210.37,101.72Z"/><path class="cls-1" d="M266.6,185.83V117.26c0-4.34,2.63-7,7.08-7h7.2c4.57,0,6.52,1.49,8.92,5.94l23.88,44.92v-46.4a4.14,4.14,0,0,1,4.46-4.46h8.23a4.14,4.14,0,0,1,4.46,4.46v68.57c0,4.34-2.75,7-7.09,7h-6.86c-4.57,0-6.51-1.49-8.91-5.94L283.63,139v46.85a4.14,4.14,0,0,1-4.46,4.46h-8.23A4.11,4.11,0,0,1,266.6,185.83Z"/><path class="cls-1" d="M345.11,164V136.69c0-17.83,12.23-27.77,32.46-27.77,19.43,0,30.74,8.34,30.74,24v1.6a2.67,2.67,0,0,1-2.74,2.86h-12.8a2.53,2.53,0,0,1-2.74-2.75v-1.37c0-6.86-3.66-10.17-12.46-10.17s-13.37,4.23-13.37,12.23v29.6c0,8.23,4.8,12.69,13.83,12.69s12.68-3.32,12.68-10.4v-5.38H381c-3.2,0-5.14-1.94-5.14-4.91v-4.69c0-3.08,1.94-5,5.14-5h22.29c3.43,0,5.14,1.72,5.14,5.26v15c0,15.66-11.54,24.23-30.52,24.23C357.57,191.66,345.11,181.83,345.11,164Z"/><path class="cls-1" d="M445.57,183.78V155.32h-4.23c-3.42,0-5.6-2.17-5.6-5.37s2.18-5.49,5.6-5.49h4.23V116.8c0-4,2.52-6.51,6.52-6.51H474c23.2,0,35.66,10.63,35.66,30.63v18.74c0,20-12.46,30.63-35.66,30.63H452.09C448.09,190.29,445.57,187.78,445.57,183.78Zm28.8-7.77c10.63,0,16.12-5.15,16.12-15.43V140c0-10.28-5.49-15.42-16.12-15.42h-9.94v19.88h8.69a5.43,5.43,0,1,1,0,10.86h-8.69V176Z"/><path class="cls-1" d="M517.46,185.83a19.84,19.84,0,0,1,1-4.91l18.86-63c1.71-5.83,4.11-7.89,9.6-7.89h11.54c5.49,0,7.89,2.06,9.6,7.89l18.86,63a19.37,19.37,0,0,1,1,4.91c0,2.75-1.6,4.46-4.8,4.46h-8.12c-3.08,0-4.68-1.26-5.6-4.57L565,170h-25.6l-4.58,15.77c-.91,3.31-2.51,4.57-5.6,4.57h-7C519.06,190.29,517.46,188.58,517.46,185.83Zm43.66-30.51-8.91-31.66-8.92,31.66Zm-17.26-53.6v-.46A4.09,4.09,0,0,1,545,98.63l6.28-7.31c1.6-1.83,2.29-2.63,5-2.63H566c1.6,0,2.29.8,2.29,2.06v.57a4.7,4.7,0,0,1-1.83,3.31l-8.23,7.09a7.43,7.43,0,0,1-5.71,2.06H546C544.55,103.78,543.86,103.09,543.86,101.72Z"/><path class="cls-1" d="M621.47,183.78V155.32h-4.23c-3.43,0-5.6-2.17-5.6-5.37s2.17-5.49,5.6-5.49h4.23V116.8c0-4,2.51-6.51,6.51-6.51h21.94c23.2,0,35.66,10.63,35.66,30.63v18.74c0,20-12.46,30.63-35.66,30.63H628C624,190.29,621.47,187.78,621.47,183.78Zm28.8-7.77c10.62,0,16.11-5.15,16.11-15.43V140c0-10.28-5.49-15.42-16.11-15.42h-9.95v19.88H649a5.43,5.43,0,1,1,0,10.86h-8.69V176Z"/><path class="cls-1" d="M700.44,185.72V114.86a4.32,4.32,0,0,1,4.57-4.57h9.71a4.32,4.32,0,0,1,4.58,4.57v70.86a4.32,4.32,0,0,1-4.58,4.57H705A4.32,4.32,0,0,1,700.44,185.72Z"/><path class="cls-1" d="M795.89,185.83V117.26c0-4.34,2.63-7,7.09-7h7.2c4.57,0,6.52,1.49,8.92,5.94L843,161.15v-46.4a4.14,4.14,0,0,1,4.46-4.46h8.23a4.14,4.14,0,0,1,4.46,4.46v68.57c0,4.34-2.75,7-7.09,7h-6.86c-4.57,0-6.51-1.49-8.91-5.94L812.92,139v46.85a4.14,4.14,0,0,1-4.45,4.46h-8.23A4.11,4.11,0,0,1,795.89,185.83Z"/><path class="cls-1" d="M926,185.72V125.15H908.1c-2.75,0-4.23-1.49-4.23-4.23v-6.4c0-2.86,1.48-4.23,4.23-4.23H963c2.74,0,4.23,1.37,4.23,4.23v6.4c0,2.74-1.49,4.23-4.23,4.23H944.9v60.57a4.26,4.26,0,0,1-4.57,4.57h-9.6A4.35,4.35,0,0,1,926,185.72Z"/><path class="cls-1" d="M781.35,184.36a24.09,24.09,0,0,1-.15,2.95,7.72,7.72,0,0,1-.46,1.92,2.38,2.38,0,0,1-.76,1.06,1.67,1.67,0,0,1-1,.33H739.46a5,5,0,0,1-3.37-1.18,4.84,4.84,0,0,1-1.37-3.86V117a4.82,4.82,0,0,1,1.37-3.86,5,5,0,0,1,3.37-1.19h39.28a1.66,1.66,0,0,1,1,.3,2.47,2.47,0,0,1,.73,1.07,8.19,8.19,0,0,1,.45,1.94,24.67,24.67,0,0,1,.16,3,23.27,23.27,0,0,1-.16,2.89,7.77,7.77,0,0,1-.45,1.92,2.7,2.7,0,0,1-.73,1.06,1.57,1.57,0,0,1-1,.34H750.65v19.21h23.77a1.67,1.67,0,0,1,1,.33,2.43,2.43,0,0,1,.76,1,7.05,7.05,0,0,1,.46,1.88,28.2,28.2,0,0,1,0,5.81,7,7,0,0,1-.46,1.85,2.13,2.13,0,0,1-.76,1,1.71,1.71,0,0,1-1,.31H750.65V178.1H779a1.67,1.67,0,0,1,1,.33,2.42,2.42,0,0,1,.76,1.07,7.52,7.52,0,0,1,.46,1.91A24.21,24.21,0,0,1,781.35,184.36ZM758.61,87.94c1.3,0,2.39,0,3.28.06a9.42,9.42,0,0,1,2.25.33,6.23,6.23,0,0,1,1.65.76,9.29,9.29,0,0,1,1.52,1.34l12,13a3.87,3.87,0,0,1,.95,1.43.78.78,0,0,1-.37.91,4.24,4.24,0,0,1-1.79.46c-.85.08-2,.12-3.41.12-1.66,0-3,0-4.07-.09a15.91,15.91,0,0,1-2.52-.31,4.11,4.11,0,0,1-1.46-.57,6.1,6.1,0,0,1-1-.92l-7.17-8.33-7.42,8.15a5.32,5.32,0,0,1-1.06,1,4.36,4.36,0,0,1-1.46.61,13.47,13.47,0,0,1-2.46.34c-1,.06-2.37.09-4.08.09a28.08,28.08,0,0,1-3.28-.15,4.51,4.51,0,0,1-1.73-.49.78.78,0,0,1-.4-.88,3.69,3.69,0,0,1,.85-1.4l11.86-13a6,6,0,0,1,1.46-1.28,6.76,6.76,0,0,1,1.85-.76,13.83,13.83,0,0,1,2.53-.36C756.12,88,757.27,87.94,758.61,87.94Zm8.57,115.21a14.81,14.81,0,0,1-.39,3.68,5,5,0,0,1-1.37,2.4,5.74,5.74,0,0,1-2.61,1.31,18.07,18.07,0,0,1-4.08.39,17.52,17.52,0,0,1-4-.39,5.85,5.85,0,0,1-2.58-1.28,4.72,4.72,0,0,1-1.37-2.31,13,13,0,0,1-.4-3.5,13.37,13.37,0,0,1,.43-3.68,5.12,5.12,0,0,1,1.4-2.4,5.59,5.59,0,0,1,2.61-1.3,17.36,17.36,0,0,1,4.07-.4,17.07,17.07,0,0,1,4,.4,5.57,5.57,0,0,1,2.55,1.27,4.92,4.92,0,0,1,1.34,2.31A13.47,13.47,0,0,1,767.18,203.15Z"/><path class="cls-1" d="M1043.22,160.64a36.63,36.63,0,0,1-2.11,12.86,25.29,25.29,0,0,1-6.22,9.6,26.88,26.88,0,0,1-10.14,6,43,43,0,0,1-13.88,2.06,44.34,44.34,0,0,1-13.23-1.84,25.91,25.91,0,0,1-9.9-5.56,24,24,0,0,1-6.18-9.33,36.59,36.59,0,0,1-2.15-13.1V113.79a1.8,1.8,0,0,1,.36-1.09,2.61,2.61,0,0,1,1.27-.78,12.89,12.89,0,0,1,2.45-.48,32,32,0,0,1,3.89-.19,19.54,19.54,0,0,1,6.22.67c1.13.44,1.69,1.07,1.69,1.87v46.12a25.18,25.18,0,0,0,1.15,8.06,14.75,14.75,0,0,0,3.29,5.65,13.57,13.57,0,0,0,5.13,3.35,19,19,0,0,0,6.67,1.12,18.59,18.59,0,0,0,6.67-1.15,13.35,13.35,0,0,0,5-3.35,15,15,0,0,0,3.17-5.44,22.17,22.17,0,0,0,1.12-7.33v-47a1.8,1.8,0,0,1,.36-1.09,2.52,2.52,0,0,1,1.27-.78,12.76,12.76,0,0,1,2.44-.48,31.62,31.62,0,0,1,3.84-.19,18.85,18.85,0,0,1,6.15.67c1.09.44,1.63,1.07,1.63,1.87V124a6.23,6.23,0,0,0,4.47-3.35,15.26,15.26,0,0,0,1.39-7v-3.44a7.44,7.44,0,0,1,.36-2.54,3,3,0,0,1,1.24-1.51,5.82,5.82,0,0,1,2.36-.72,32.15,32.15,0,0,1,3.77-.18,30.84,30.84,0,0,1,3.68.18,5.23,5.23,0,0,1,2.26.72,2.75,2.75,0,0,1,1.12,1.51,8.82,8.82,0,0,1,.3,2.54,35.3,35.3,0,0,1-1.14,9.23,19.87,19.87,0,0,1-3.66,7.34,17.46,17.46,0,0,1-6.49,4.92,25.12,25.12,0,0,1-9.66,2ZM1022.28,89a11.25,11.25,0,0,1-2.06,7,9.65,9.65,0,0,1-5.73,3.53c0,.49-.07,1-.09,1.45s0,1,0,1.45a2.91,2.91,0,0,1-1.12,2.2,5.74,5.74,0,0,1-3.41.76,6.83,6.83,0,0,1-3.56-.67,2.56,2.56,0,0,1-1-2.35l-.12-5.61c0-1.57.32-2.55,1.09-2.93a7.63,7.63,0,0,1,3.32-.58h.54a2,2,0,0,0,2-1.14,6.21,6.21,0,0,0,.58-2.78,6.07,6.07,0,0,0-.67-2.84,2.49,2.49,0,0,0-2.41-1.27,6.89,6.89,0,0,0-3.38.91l-1,.54c-.28.16-.67.37-1.18.61a3.51,3.51,0,0,1-1.54.36,1.34,1.34,0,0,1-1.08-.51,3.75,3.75,0,0,1-.67-1.27,8.11,8.11,0,0,1-.33-1.63,15.27,15.27,0,0,1-.09-1.54A2.19,2.19,0,0,1,1001,81a10.15,10.15,0,0,1,1.94-1.33,17.36,17.36,0,0,1,3.14-1.12,15.94,15.94,0,0,1,4.1-.51,14.8,14.8,0,0,1,5.4.88,10.36,10.36,0,0,1,3.75,2.38,9.76,9.76,0,0,1,2.2,3.47A12.12,12.12,0,0,1,1022.28,89Z"/></g></g></svg>