<svg width="62" height="22" viewBox="0 0 62 22" fill="none" xmlns="http://www.w3.org/2000/svg">
<path d="M6.4269 10.6223C6.39711 10.9473 6.38086 11.275 6.38086 11.6081C6.38118 12.4698 6.48667 13.3283 6.695 14.1645C7.99991 15.2341 9.5651 15.9387 11.231 16.2064C11.6791 16.2774 12.1315 16.3172 12.5851 16.3255C13.4716 16.1056 14.3172 15.7454 15.09 15.2585C13.381 15.2323 11.7031 14.7978 10.1961 13.9913C8.68911 13.1848 7.39679 12.0297 6.4269 10.6223V10.6223Z" fill="white"/>
<path d="M5.95605 13.8181C6.17222 14.2978 6.42293 14.7612 6.70619 15.2047L6.84972 15.424C6.70897 15.0545 6.58873 14.6775 6.48955 14.2947C6.3054 14.1431 6.12937 13.9779 5.95605 13.8181Z" fill="white"/>
<path d="M6.79785 14.541C6.94632 15.0524 7.13466 15.5513 7.36113 16.0332C8.2535 16.3605 9.19236 16.5433 10.1423 16.5748C10.6573 16.5915 11.1728 16.5644 11.6832 16.4935C11.5207 16.4773 11.3583 16.4556 11.1931 16.4285C9.59398 16.1741 8.08344 15.5254 6.79785 14.541V14.541Z" fill="white"/>
<path d="M6.39732 13.91C6.23159 13.154 6.14806 12.3822 6.14818 11.6082C6.14829 11.1782 6.17451 10.7486 6.22671 10.3218C5.70969 9.51625 5.30173 8.6457 5.01349 7.73291C4.80647 9.60041 5.04689 11.4904 5.71488 13.2466C5.93424 13.4795 6.16172 13.7069 6.39732 13.91Z" fill="white"/>
<path d="M10.8921 11.1426H10.123V11.8386H10.8813C10.9495 11.8373 11.0157 11.8161 11.072 11.7777C11.1283 11.7392 11.172 11.6851 11.1979 11.6221C11.2238 11.559 11.2307 11.4898 11.2178 11.4229C11.2048 11.356 11.1726 11.2943 11.125 11.2455C11.095 11.2137 11.059 11.1882 11.019 11.1705C10.979 11.1528 10.9359 11.1433 10.8921 11.1426Z" fill="white"/>
<path d="M11.4183 3.46509C9.93076 3.46455 8.47642 3.90505 7.23914 4.73089C6.00186 5.55673 5.03719 6.73084 4.46705 8.10482C3.89692 9.47879 3.74692 10.991 4.03602 12.4502C4.32511 13.9094 5.04032 15.2501 6.09125 16.3029C7.14217 17.3558 8.48163 18.0734 9.94032 18.3651C11.399 18.6568 12.9114 18.5095 14.2864 17.9419C15.6614 17.3742 16.8373 16.4117 17.6654 15.1759C18.4934 13.9401 18.9365 12.4865 18.9387 10.999C18.9401 9.00276 18.1487 7.08771 16.7384 5.67491C15.3282 4.26211 13.4145 3.46724 11.4183 3.46509V3.46509ZM16.9374 12.7348H16.0112L14.9686 10.8094L12.8022 11.5975L13.5415 10.2597L14.5407 8.44525L16.9374 12.7348ZM14.2943 5.312L16.3525 9.07894H15.4209L14.5164 7.40805L12.8428 7.94967L14.2943 5.312ZM12.5313 8.51837L13.666 8.15548L13.165 9.07894H12.2308L12.5313 8.51837ZM12.488 12.1634L13.6227 11.8114L13.1217 12.7376H12.1874L12.488 12.1634ZM12.0872 10.0105C12.096 10.2909 11.9994 10.5643 11.8164 10.7769C12.0068 11.003 12.1055 11.2923 12.093 11.5876C12.0805 11.8829 11.9576 12.1628 11.7487 12.372C11.6415 12.4841 11.5123 12.5729 11.3693 12.633C11.2263 12.6931 11.0725 12.7232 10.9173 12.7213H9.31144V9.74242H10.1428V10.3653H10.9092C10.9545 10.3662 10.9996 10.3578 11.0415 10.3405C11.0834 10.3233 11.1214 10.2976 11.1529 10.2651C11.1859 10.2331 11.212 10.1948 11.2297 10.1524C11.2474 10.1101 11.2563 10.0646 11.2558 10.0186C11.2432 9.92112 11.207 9.82816 11.1502 9.74783C11.4218 9.66842 11.6706 9.52546 11.876 9.33079C12.004 9.53528 12.0768 9.76949 12.0872 10.0105V10.0105ZM11.5835 5.2795V6.12442H10.2295C10.1828 6.12406 10.1365 6.13299 10.0933 6.15069C10.0501 6.16839 10.0108 6.19451 9.97783 6.22753C9.94481 6.26054 9.91869 6.29979 9.90099 6.343C9.88329 6.3862 9.87436 6.43249 9.87472 6.47918C9.87472 6.57327 9.9121 6.6635 9.97863 6.73003C10.0452 6.79656 10.1354 6.83394 10.2295 6.83394H10.6655C10.9749 6.84862 11.2667 6.98185 11.4805 7.20599C11.6942 7.43012 11.8135 7.72796 11.8135 8.03768C11.8135 8.34741 11.6942 8.64524 11.4805 8.86938C11.2667 9.09351 10.9749 9.22674 10.6655 9.24142H9.31144V8.3965H10.6655C10.7596 8.3965 10.8498 8.35913 10.9163 8.2926C10.9829 8.22607 11.0202 8.13583 11.0202 8.04174C11.0202 7.94766 10.9829 7.85742 10.9163 7.79089C10.8498 7.72436 10.7596 7.68699 10.6655 7.68699H10.2376C9.99918 7.68834 9.76575 7.61862 9.56713 7.48672C9.3685 7.35483 9.21368 7.16673 9.12243 6.94646C9.03118 6.72618 9.00764 6.4837 9.05481 6.24998C9.10198 6.01627 9.21773 5.8019 9.38727 5.63426C9.49703 5.51988 9.62918 5.42934 9.77548 5.3683C9.92179 5.30727 10.0791 5.27704 10.2376 5.2795H11.5835ZM17.479 15.1288C17.3761 15.2777 17.2678 15.4213 17.1568 15.5621C15.7877 16.2469 14.2788 16.6056 12.748 16.6101H12.637C11.9281 16.7861 11.2008 16.877 10.4705 16.8809H10.1428C9.26468 16.8501 8.39552 16.6933 7.56202 16.4151C8.09057 17.0313 8.69577 17.5774 9.3629 18.04C9.12113 17.97 8.88336 17.8868 8.65067 17.7908C8.40879 17.5908 8.17739 17.3784 7.9574 17.1544C8.05489 17.3115 8.15509 17.4604 8.258 17.6121C7.00984 17.0122 5.95519 16.0739 5.21412 14.904C5.72896 15.289 6.28589 15.6143 6.87417 15.8735C6.75772 15.711 6.64398 15.5485 6.53566 15.3779C6.13332 14.7661 5.79312 14.1157 5.52013 13.4362C5.12807 13.0148 4.77122 12.5619 4.45315 12.0822C4.32316 11.8872 4.20129 11.6895 4.08485 11.4864C4.08485 11.3266 4.06589 11.1642 4.06589 10.999C4.06516 9.67733 4.42267 8.38021 5.10038 7.24557C5.35778 8.22428 5.7545 9.16093 6.27839 10.0268C6.64315 7.68504 7.77468 5.53056 9.49559 3.90109C9.64724 3.85776 9.8016 3.81985 9.95867 3.78735C8.0447 5.46925 6.80785 7.78992 6.47879 10.3165C7.43248 11.7787 8.73573 12.9801 10.2706 13.8118C11.8055 14.6435 13.5235 15.0794 15.2692 15.08H15.4696C16.3378 14.4851 17.072 13.7152 17.6251 12.8198C18.1782 11.9244 18.538 10.9232 18.6814 9.88053C18.7365 10.2508 18.7637 10.6246 18.7626 10.999C18.7596 12.4466 18.326 13.8606 17.5169 15.0611C16.8676 15.2012 16.2067 15.281 15.5427 15.2994C14.9145 15.7316 14.2326 16.0803 13.5144 16.3366C14.9069 16.2211 16.2586 15.8093 17.479 15.1288V15.1288Z" fill="white"/>
<path d="M19.491 4.24494C19.4622 4.20069 19.4286 4.15981 19.3908 4.12307V4.10953C19.2456 3.96948 19.0509 3.89257 18.8491 3.89559C18.6435 3.89631 18.4465 3.97851 18.3013 4.12419C18.1561 4.26987 18.0746 4.46715 18.0746 4.67281C18.0747 4.77992 18.0971 4.88583 18.1405 4.98376C18.1839 5.08169 18.2472 5.16948 18.3265 5.24151C19.6612 6.84097 20.3977 8.85505 20.4097 10.9382C20.4217 13.0214 19.7084 15.0438 18.3921 16.6585C17.0759 18.2732 15.2388 19.3796 13.196 19.7877C11.1532 20.1959 9.03196 19.8805 7.19628 18.8956L7.08525 18.8334L6.0968 19.375L6.04534 18.1753L3.03125 21.2083L5.38186 20.0737L5.43061 21.2111L6.94172 20.4961C9.10791 21.5226 11.56 21.7776 13.891 21.2187C16.2221 20.6599 18.2919 19.3207 19.7572 17.4236C21.2224 15.5264 21.9949 13.1853 21.9465 10.7887C21.8981 8.39208 21.0316 6.08406 19.491 4.24764V4.24494Z" fill="#00AEEF"/>
<path d="M17.4677 1.87535L17.4163 0.737953L15.9079 1.45289C13.7412 0.425724 11.2885 0.170294 8.9567 0.728984C6.62491 1.28767 4.55425 2.62689 3.08835 4.5244C1.62246 6.42191 0.849457 8.76362 0.897631 11.1609C0.945804 13.5582 1.81226 15.867 3.3532 17.7041C3.38278 17.7477 3.41632 17.7885 3.4534 17.8259V17.8395C3.52721 17.9123 3.61489 17.9696 3.71125 18.0079C3.80761 18.0462 3.91067 18.0647 4.01434 18.0625C4.118 18.0602 4.22016 18.0371 4.31474 17.9946C4.40933 17.9521 4.49442 17.8911 4.56497 17.8151C4.63552 17.7391 4.69009 17.6497 4.72545 17.5523C4.76081 17.4548 4.77624 17.3512 4.77082 17.2477C4.76539 17.1441 4.73924 17.0427 4.69389 16.9494C4.64855 16.8562 4.58494 16.773 4.50684 16.7048C3.1643 15.1048 2.42206 13.0865 2.40809 10.9979C2.39412 8.90925 3.1093 6.88121 4.43033 5.26337C5.75136 3.64554 7.59545 2.5393 9.64468 2.13537C11.6939 1.73144 13.8199 2.05514 15.656 3.05065L15.767 3.11294L16.7528 2.57132L16.8042 3.771L19.8156 0.737953L17.4677 1.87535Z" fill="#E13C29"/>
<path d="M27.5835 8.26653C26.7595 8.26653 25.9692 7.9392 25.3866 7.35654C24.8039 6.77389 24.4766 5.98364 24.4766 5.15964C24.4766 4.33564 24.8039 3.54538 25.3866 2.96272C25.9692 2.38007 26.7595 2.05273 27.5835 2.05273H31.0864V4.24463H27.6108C27.3681 4.24463 27.1354 4.34104 26.9638 4.51263C26.7922 4.68423 26.6958 4.91696 26.6958 5.15964C26.6958 5.40231 26.7922 5.63504 26.9638 5.80663C27.1354 5.97823 27.3681 6.07463 27.6108 6.07463H28.7101C29.5098 6.11211 30.2644 6.45617 30.8171 7.03537C31.3697 7.61456 31.6781 8.38437 31.6781 9.18495C31.6781 9.98552 31.3697 10.7553 30.8171 11.3345C30.2644 11.9137 29.5098 12.2578 28.7101 12.2953H25.2072V10.0965H28.6828C28.8023 10.0984 28.921 10.0757 29.0314 10.0299C29.1418 9.98411 29.2416 9.91615 29.3247 9.83023C29.4957 9.65761 29.5916 9.42449 29.5916 9.18154C29.5916 8.93859 29.4957 8.70545 29.3247 8.53284C29.2416 8.44692 29.1418 8.37896 29.0314 8.33315C28.921 8.28735 28.8023 8.26468 28.6828 8.26653H27.5835Z" fill="#E13C29"/>
<path d="M42.6328 12.2953V2.05274H46.8391C47.4334 2.05216 48.0155 2.22207 48.5162 2.54233C49.0169 2.86259 49.4152 3.31974 49.6639 3.85957C49.9126 4.39939 50.0013 4.99923 49.9194 5.58792C49.8374 6.1766 49.5883 6.72943 49.2017 7.18083C49.702 7.77648 49.9613 8.53782 49.9284 9.31502C49.8955 10.0922 49.573 10.829 49.0242 11.3803C48.7394 11.6746 48.3974 11.9076 48.0193 12.0649C47.6412 12.2223 47.2349 12.3007 46.8254 12.2953H42.6328ZM44.8247 4.24464V6.07464H46.8391C47.0818 6.07464 47.3145 5.97823 47.4861 5.80664C47.6577 5.63504 47.7541 5.40231 47.7541 5.15964C47.7541 4.91697 47.6577 4.68423 47.4861 4.51263C47.3145 4.34104 47.0818 4.24464 46.8391 4.24464H44.8247ZM44.8247 8.26654V10.0965H46.8254C47.0681 10.0965 47.3008 10.0001 47.4724 9.82854C47.644 9.65694 47.7404 9.42421 47.7404 9.18154C47.7404 8.93886 47.644 8.70613 47.4724 8.53453C47.3008 8.36294 47.0681 8.26654 46.8254 8.26654H44.8247Z" fill="#E13C29"/>
<path d="M33.2441 9.16784L37.1909 2.01855L42.8038 12.2611H40.2637L37.7918 7.7134L33.2441 9.16784Z" fill="#E13C29"/>
<path d="M31.585 12.2611L32.3975 10.7316L35.4839 9.74829L34.1251 12.2611H31.585Z" fill="#E13C29"/>
<path d="M51.4688 9.16784L55.4155 2.01855L61.0284 12.2611H58.4883L56.0164 7.7134L51.4688 9.16784Z" fill="#E13C29"/>
<path d="M49.8105 12.2611L50.6231 10.7316L53.7095 9.74829L52.3507 12.2611H49.8105Z" fill="#E13C29"/>
<path d="M34.0603 17.9436C33.8232 17.9547 33.5864 17.9176 33.3641 17.8346C33.1417 17.7515 32.9386 17.6242 32.7669 17.4604C32.5952 17.2965 32.4585 17.0996 32.3652 16.8814C32.2718 16.6632 32.2236 16.4283 32.2236 16.191C32.2236 15.9537 32.2718 15.7189 32.3652 15.5007C32.4585 15.2825 32.5952 15.0855 32.7669 14.9217C32.9386 14.7579 33.1417 14.6306 33.3641 14.5475C33.5864 14.4644 33.8232 14.4273 34.0603 14.4384H36.0187V15.6735H34.0603C33.9235 15.6735 33.7924 15.7278 33.6957 15.8245C33.599 15.9212 33.5447 16.0524 33.5447 16.1891C33.5447 16.3258 33.599 16.457 33.6957 16.5537C33.7924 16.6504 33.9235 16.7047 34.0603 16.7047H34.6797C34.9101 16.7042 35.1383 16.7492 35.3512 16.8373C35.5641 16.9253 35.7574 17.0546 35.9201 17.2177C36.0829 17.3807 36.2117 17.5744 36.2993 17.7875C36.3868 18.0005 36.4314 18.2288 36.4304 18.4592C36.4343 18.6891 36.3909 18.9174 36.3029 19.1299C36.2148 19.3424 36.0841 19.5345 35.9187 19.6943C35.7582 19.8601 35.5655 19.9914 35.3525 20.08C35.1394 20.1687 34.9105 20.2129 34.6797 20.2098H32.7213V18.9709H34.6797C34.8155 18.9699 34.9455 18.9158 35.0419 18.8202C35.1382 18.7245 35.1933 18.5949 35.1953 18.4592C35.1962 18.391 35.1829 18.3233 35.1565 18.2604C35.13 18.1975 35.0908 18.1407 35.0414 18.0937C34.9946 18.0453 34.9383 18.007 34.8761 17.9811C34.8139 17.9553 34.7471 17.9426 34.6797 17.9436H34.0603Z" fill="white"/>
<path d="M38.2468 17.9436V20.2099H37.0117V14.4385H39.3818C39.8324 14.4596 40.2576 14.6535 40.569 14.9798C40.8804 15.3062 41.0542 15.74 41.0542 16.1911C41.0542 16.6422 40.8804 17.0759 40.569 17.4023C40.2576 17.7286 39.8324 17.9225 39.3818 17.9436H38.2468ZM38.2468 15.6736V16.7047H39.4011C39.5378 16.7047 39.669 16.6504 39.7656 16.5537C39.8623 16.457 39.9167 16.3259 39.9167 16.1891C39.9167 16.0524 39.8623 15.9213 39.7656 15.8246C39.669 15.7279 39.5378 15.6736 39.4011 15.6736H38.2468Z" fill="white"/>
<path d="M49.3044 17.9436V20.2099H48.0693V14.4385H50.4394C50.786 14.4381 51.1249 14.5405 51.4131 14.7329C51.7014 14.9252 51.9261 15.1988 52.0588 15.5189C52.1915 15.8391 52.2261 16.1914 52.1584 16.5312C52.0907 16.8711 51.9236 17.1832 51.6784 17.4281C51.548 17.5585 51.3989 17.6687 51.2359 17.7551L52.4287 20.2099H51.0551L49.9547 17.9436H49.3044ZM49.3044 15.6736V16.7047H50.4394C50.5068 16.7058 50.5736 16.693 50.6358 16.6672C50.6981 16.6414 50.7543 16.6031 50.8011 16.5547C50.8498 16.507 50.8884 16.4501 50.9148 16.3874C50.9411 16.3246 50.9547 16.2572 50.9547 16.1891C50.9547 16.1211 50.9411 16.0537 50.9148 15.9909C50.8884 15.9281 50.8498 15.8713 50.8011 15.8236C50.7543 15.7752 50.6981 15.7369 50.6358 15.7111C50.5736 15.6853 50.5068 15.6725 50.4394 15.6736H49.3044Z" fill="white"/>
<path d="M55.2572 15.6736V20.2099H54.0221V15.6736H52.7832V14.4385H56.4923V15.6736H55.2572Z" fill="white"/>
<path d="M58.8161 17.9436C58.5791 17.9547 58.3422 17.9176 58.1199 17.8346C57.8976 17.7515 57.6945 17.6242 57.5228 17.4604C57.3511 17.2965 57.2144 17.0996 57.121 16.8814C57.0276 16.6632 56.9795 16.4283 56.9795 16.191C56.9795 15.9537 57.0276 15.7189 57.121 15.5007C57.2144 15.2825 57.3511 15.0855 57.5228 14.9217C57.6945 14.7579 57.8976 14.6306 58.1199 14.5475C58.3422 14.4644 58.5791 14.4273 58.8161 14.4384H60.7746V15.6735H58.8161C58.6794 15.6735 58.5483 15.7278 58.4516 15.8245C58.3549 15.9212 58.3006 16.0524 58.3006 16.1891C58.3006 16.3258 58.3549 16.457 58.4516 16.5537C58.5483 16.6504 58.6794 16.7047 58.8161 16.7047H59.4318C59.8824 16.7258 60.3075 16.9197 60.6189 17.246C60.9304 17.5724 61.1041 18.0062 61.1041 18.4573C61.1041 18.9084 60.9304 19.3421 60.6189 19.6685C60.3075 19.9949 59.8824 20.1887 59.4318 20.2098H57.4772V18.9709H59.4318C59.5029 18.9771 59.5746 18.9684 59.6423 18.9454C59.7099 18.9224 59.7721 18.8855 59.8247 18.8372C59.8774 18.7889 59.9194 18.7302 59.9482 18.6648C59.977 18.5994 59.9918 18.5287 59.9918 18.4573C59.9918 18.3858 59.977 18.3151 59.9482 18.2497C59.9194 18.1843 59.8774 18.1256 59.8247 18.0773C59.7721 18.029 59.7099 17.9922 59.6423 17.9691C59.5746 17.9461 59.5029 17.9374 59.4318 17.9436H58.8161Z" fill="white"/>
<path d="M43.787 15.8853L42.4403 15.4429C42.2571 15.6512 42.1043 15.8843 41.9863 16.1354L43.1675 16.5202C43.313 16.2566 43.5271 16.0372 43.787 15.8853Z" fill="white"/>
<path d="M43.0523 17.8399C43.0523 17.8014 43.0254 17.7591 43.0177 17.7206L42.9946 17.6129C42.9657 17.4396 42.9657 17.2628 42.9946 17.0896L41.8134 16.7048C41.7665 16.9145 41.7433 17.1287 41.7442 17.3435C41.7442 17.4089 41.7442 17.4705 41.7442 17.5321L43.0947 17.9822C43.0754 17.9284 43.0677 17.8822 43.0523 17.8399Z" fill="white"/>
<path d="M46.6573 15.2927C46.1765 14.8086 45.5398 14.5105 44.86 14.4513C44.1803 14.3921 43.5016 14.5757 42.9444 14.9695L43.7139 15.2311L45.1722 15.739C45.5956 15.8793 45.946 16.1821 46.1463 16.5808C46.3465 16.9795 46.3802 17.4413 46.2399 17.8648C46.0996 18.2883 45.7968 18.6387 45.3981 18.8389C44.9994 19.0392 44.5376 19.0728 44.1141 18.9325L41.9286 18.2053L41.8594 18.1822C41.9863 18.6029 42.2075 18.9891 42.5062 19.3114C42.8048 19.6338 43.173 19.8837 43.5828 20.0423C43.9926 20.2009 44.4332 20.264 44.871 20.2266C45.3089 20.1893 45.7324 20.0527 46.1095 19.827C46.4865 19.6014 46.8072 19.2928 47.047 18.9246C47.2868 18.5564 47.4395 18.1383 47.4934 17.7022C47.5474 17.2661 47.5011 16.8235 47.3582 16.408C47.2154 15.9924 46.9796 15.6149 46.6689 15.3042L46.6573 15.2927Z" fill="white"/>
<path d="M26.2307 18.7439V17.9282H27.8737L28.5047 16.5969H26.2307V15.7889H27.1849L28.4239 14.4653H25.0957V20.0751H28.1776L28.8086 18.7439H26.2307Z" fill="white"/>
<path d="M32.0441 17.1973L30.4551 17.1819L31.5632 15.2735L30.4089 15.2619L31.5247 12.761L28.4697 15.9853L30.0126 16.0007L28.9968 17.9398L30.078 17.9552L28.4697 21.5604L32.0441 17.1973Z" fill="#00AEEF"/>
</svg>
