<?xml version="1.0" encoding="UTF-8"?>
<svg id="Layer_1" data-name="Layer 1" xmlns="http://www.w3.org/2000/svg" viewBox="0 0 203.68 40">
  <defs>
    <style>
      .cls-1 {
        fill-rule: evenodd;
      }

      .cls-1, .cls-2, .cls-3, .cls-4 {
        stroke-width: 0px;
      }

      .cls-1, .cls-4 {
        fill: #fff;
      }

      .cls-2 {
        fill: #d3b271;
      }

      .cls-3 {
        fill: #be181b;
      }
    </style>
  </defs>
  <g>
    <path class="cls-4" d="m97.01,27.01V7.55s5.34,0,5.34,0v19.92s9.43,0,9.43,0v4.98s-11.67,0-11.67,0l-2.1-2.6c-.71-.92-1-1.78-1-2.85Z"/>
    <path class="cls-4" d="m114.65,28.4l5.76-20.85h6.12c1.14,0,1.85.53,2.17,1.67l5.3,19.17c.25.85.28,1.42.28,2.53v1.53s-4.73,0-4.73,0l-1.89-7.58-7.65,3.91-.92,3.66h-4.73s0-1.53,0-1.53c0-1.1.04-1.67.28-2.53Zm12.77-4.48l-2.81-11.38h-.57s-2.81,11.38-2.81,11.38h6.19Z"/>
    <path class="cls-4" d="m136.7,27.01V7.55s5.34,0,5.34,0v19.92s9.43,0,9.43,0v4.98s-11.67,0-11.67,0l-2.1-2.6c-.71-.92-1-1.78-1-2.85Z"/>
    <path class="cls-4" d="m154.49,7.55h5.34s0,24.9,0,24.9h-5.34s0-24.9,0-24.9Z"/>
    <path class="cls-4" d="m163.46,24.55v-9.09c0-5.3,2.88-8.18,8.18-8.18h2.34c5.23,0,8.18,2.67,8.18,7.4h-5.34s0-1,0-1c0-.92-.5-1.42-1.42-1.42h-5.18c-.92,0-1.42.5-1.42,1.42v12.65c0,.92.5,1.42,1.42,1.42h5.18c.92,0,1.42-.5,1.42-1.42v-3.13h-3.7s0-4.98,0-4.98h5.94s2.1,2.6,2.1,2.6c.71.89,1,1.71,1,2.85v.89c0,5.3-2.88,8.18-8.18,8.18h-2.34c-5.3,0-8.18-2.88-8.18-8.18Z"/>
    <path class="cls-4" d="m184.05,28.4l5.76-20.85h6.12c1.14,0,1.85.53,2.17,1.67l5.3,19.17c.25.85.28,1.42.28,2.53v1.53s-4.73,0-4.73,0l-1.89-7.58-7.65,3.91-.92,3.66h-4.73s0-1.53,0-1.53c0-1.1.04-1.67.28-2.53Zm12.77-4.48l-2.81-11.38h-.57s-2.81,11.38-2.81,11.38h6.19Z"/>
  </g>
  <rect class="cls-4" x="81.98" width=".96" height="39.93"/>
  <g>
    <path class="cls-4" d="m45.64,13.3c3.35-.5,4.08-2.24,4.08-5.21v-3.14c0-3.3-2.64-4.95-7.93-4.95s-7.93,1.66-7.93,4.95v3.7c0,2.6.57,3.96,3.63,4.47-3.05.68-3.63,2.58-3.63,5.35v4.06c0,3.34,2.64,4.99,7.93,4.99s7.93-1.66,7.93-4.99v-4.02c0-3.06-.73-4.79-4.08-5.21Zm-3.89-1.74c-1.17,0-1.74-.56-1.74-1.66v-5.27c0-1.08.58-1.6,1.74-1.6s1.78.54,1.78,1.6v5.27c0,1.1-.59,1.66-1.78,1.66Zm0,12.77c-1.17,0-1.74-.56-1.74-1.66v-5.97c0-1.14.58-1.7,1.74-1.7s1.78.56,1.78,1.7v5.97c0,1.1-.59,1.66-1.78,1.66Z"/>
    <path class="cls-4" d="m63.83,13.3c3.35-.5,4.09-2.24,4.09-5.21v-3.14c0-3.3-2.64-4.95-7.94-4.95s-7.94,1.66-7.94,4.95v3.7c0,2.6.58,3.96,3.63,4.47-3.06.68-3.63,2.58-3.63,5.35v4.06c0,3.34,2.64,4.99,7.94,4.99s7.94-1.66,7.94-4.99v-4.02c0-3.06-.73-4.79-4.09-5.21Zm-3.89-1.74c-1.17,0-1.75-.56-1.75-1.66v-5.27c0-1.08.58-1.6,1.75-1.6s1.79.54,1.79,1.6v5.27c.02,1.1-.58,1.66-1.79,1.66Zm0,12.77c-1.17,0-1.75-.56-1.75-1.66v-5.97c0-1.14.58-1.7,1.75-1.7s1.79.56,1.79,1.7v5.97c.02,1.1-.58,1.66-1.79,1.66Z"/>
    <path class="cls-4" d="m12.29,39.78v-.51c-1.14-.12-1.21-.22-1.24-1.57l-.13-5.48c-.03-1.22.03-1.33,1.2-1.45v-.51h-2.93l-2.86,6.42-2.82-6.42H.48v.51c1.26.12,1.36.32,1.24,1.99l-.23,2.89c-.1,1.54-.22,2.3-.31,2.77-.09.51-.36.78-1.18.85v.51h3.5v-.51c-.96-.09-1.26-.22-1.31-.88-.06-.45-.06-1.14,0-2.36l.18-3.82h.06l2.98,7.47h.41l3.23-7.62h.07l.03,5.64c.01,1.35-.07,1.45-1.17,1.57v.51h4.32Z"/>
    <path class="cls-4" d="m22.72,39.78v-.51c-.92-.12-1.11-.31-1.61-1.6-.95-2.52-1.85-5.07-2.79-7.63l-.74.19-2.99,7.53c-.48,1.23-.66,1.39-1.62,1.51v.51s3.25,0,3.25,0v-.51c-1.07-.13-1.09-.34-.89-1.04.18-.59.36-1.11.53-1.57h2.8c.22.6.44,1.22.58,1.66.23.64.16.82-.7.95v.51h4.17Zm-4.33-3.9h-2.28c.38-1.04.74-2.09,1.15-3.16h.04l1.08,3.16Z"/>
    <path class="cls-4" d="m33.57,30.26h-3.56v.51c1.07.06,1.37.31,1.44.94.03.42.12,1.11.12,2.4v2.58h-.06l-5.58-6.43h-2.7v.51c.61.06.95.18,1.21.53.28.34.31.62.31,1.57v3.06c0,1.29-.09,1.93-.15,2.42-.06.63-.39.86-1.21.92v.51h3.58v-.51c-1.08-.04-1.33-.32-1.4-.97-.04-.44-.12-1.08-.12-2.37v-3.3h.04l6.07,7.3h.7v-5.82c0-1.29.09-1.98.13-2.43.07-.67.38-.86,1.17-.91v-.51Z"/>
    <path class="cls-4" d="m40.25,32.53c-.12-.91-.22-1.55-.28-2.09-.26-.1-1.09-.4-2.03-.4-2.07,0-3.34,1.26-3.34,2.87,0,1.41,1.04,2.2,2.54,2.96,1.09.59,1.74,1.13,1.74,1.99,0,.92-.57,1.54-1.46,1.54-1.4,0-2.26-1.64-2.55-2.58l-.51.16c.1.89.29,2.12.42,2.49.2.09.48.21.89.32.44.13.95.21,1.47.21,2.13,0,3.55-1.3,3.55-2.97,0-1.45-1.05-2.27-2.58-3.02-1.28-.64-1.81-1.11-1.81-1.92s.6-1.45,1.42-1.45c1.2,0,1.74,1.08,2.04,2.01l.5-.12Z"/>
    <path class="cls-4" d="m45.92,39.78v-.51c-1.08-.1-1.21-.21-1.21-1.44v-5.61c0-1.25.13-1.35,1.21-1.45v-.51h-4.38v.51c1.08.1,1.21.21,1.21,1.45v5.61c0,1.23-.13,1.33-1.21,1.44v.51h4.38Z"/>
    <path class="cls-4" d="m52.09,30.04c-3.34,0-5.12,2.48-5.12,5,0,2.81,2.03,4.97,4.95,4.97,2.74,0,5.01-1.92,5.01-5.08,0-2.9-2.17-4.88-4.83-4.88Zm-.26.62c1.68,0,2.86,1.76,2.86,4.67,0,2.7-1.12,4.06-2.51,4.06-1.87,0-2.98-2.12-2.98-4.63s1.15-4.1,2.63-4.1Z"/>
    <path class="cls-4" d="m67.92,30.26h-3.56v.51c1.07.06,1.37.31,1.45.94.03.42.12,1.11.12,2.4v2.58h-.06l-5.58-6.43h-2.7v.51c.61.06.95.18,1.21.53.28.34.31.62.31,1.57v3.06c0,1.29-.09,1.93-.15,2.42-.06.63-.39.86-1.21.92v.51h3.58v-.51c-1.08-.04-1.33-.32-1.4-.97-.04-.44-.12-1.08-.12-2.37v-3.3h.04l6.07,7.3h.7v-5.82c0-1.29.09-1.98.13-2.43.07-.67.38-.86,1.17-.91v-.51Z"/>
    <g>
      <path class="cls-2" d="m.42.4c0-.22.18-.4.4-.4h30.33c.22,0,.4.18.4.4v26.93c0,.22-.18.4-.4.4H.82c-.22,0-.4-.18-.4-.4V.4Z"/>
      <path class="cls-3" d="m1.96,1.94c0-.22.18-.4.4-.4h27.25c.22,0,.4.18.4.4v23.85c0,.22-.18.4-.4.4H2.36c-.22,0-.4-.18-.4-.4V1.94Z"/>
      <path class="cls-1" d="m12.45,13.75v8.73c0,.19-.05.31-.22.31s-.24-.12-.24-.31v-1.15h-.43c-.31,0-1.31.77-1.95,1.26h0c-.2.16-.37.29-.46.35-.7-.41-1.57-.82-2.22-1.03-.12.11-.22.21-.32.3h0s0,0,0,0c-.2.19-.36.33-.47.45-.04.04-.08.08-.11.11-.1.1-.15.16-.2.16-.12,0-.27-.14-.27-.27s.27-.41,1.5-1.66c.84-.86,1.18-1.9,1.18-3.49,0-2.62-1.13-4.86-2.44-4.86-.43,0-.65.17-.72.6-.02.22-.12.29-.22.29-.19,0-.29-.32-.29-.84,0-1.2.84-2.16,1.88-2.16.48,0,.81.21,1.09.4.24.16.45.29.69.26v-1.76c0-.46-.17-.84-.51-1.13-.29-.24-1.78-1.25-2.34-1.25-.11,0-.18.02-.25.04-.05.02-.1.03-.16.03-.07,0-.1-.02-.1-.07,0-.06.04-.11.15-.24h0s.03-.03.04-.05l1.9-1.88s.03-.02.05-.04c.07-.05.11-.08.19-.08.38,0,1.45.72,2.32,1.32.6.41,1.12.76,1.24.76.23,0,.92-.43,1.66-.89.87-.54,1.83-1.14,2.21-1.14.18,0,.36.15,1.6,1.14h0c.08.07.16.13.25.2.06.05.13.11.22.18h0c.26.22.61.51.94.71.39.24.41.29.41.74.24-.05.51-.24,2.02-1.47.43-.36,1.71-1.4,1.81-1.4.12,0,1.18.43,2.75,1.08.46.19.53.24.53.53v12.44c0,.41.05.55.22.7.72.63,1.16.86,1.4.86.07,0,.17-.03.24-.1.12-.17.15-.19.22-.19s.15.1.15.19c0,.15-1.08,1.49-2.19,2.36-.67-.24-1.83-1.03-2.48-1.71-.22-.24-.26-.29-.26-.7v-8.91c0-1.03.33-1.73,1.54-3.34.63-.82.67-1.06.55-1.06-.06,0-.6.38-1.1.72-.33.23-.65.44-.76.51-.05-.03-.1-.06-.15-.09-1.18-.68-1.57-.9-2.24-.9-.38,0-.65.19-.65.43v14.79c0,.19-.1.34-.24.34-.12,0-.19-.12-.19-.31v-1.11c-.68.11-1.28.66-1.67,1.03-.21.2-.37.34-.45.34-.26,0-1.83-1.88-1.83-2.02v-7.07h-2.82Zm-.44-6.13c0-.48-.05-.65-.14-.65-.21,0-.99.48-.99.65v6.66c0,3.23-.37,3.62-1.2,4.49-.02.02-.03.03-.05.05-.39.41-.48.51-.77.84.51.7,2.19,1.01,3.16.96V7.62h0Zm3.26,3.85h-2.82v-4.04c0-.32.14-.48.41-.48.6,0,2.41,1.37,2.41,1.88v2.65Zm3.96-3.42s-.02-.07-.1-.07c-.07,0-.19.05-.27.1l-.55.34c-.31.19-.41.29-.41.43v2.4c0,.17.22.29.39.29h.94v-3.49Zm-.92,5.65h.91v6.98c-.89-.07-1.3-.53-1.3-1.49v-4.93c0-.36.13-.55.39-.55Z"/>
    </g>
  </g>
</svg>