<svg width="78" height="26" viewBox="0 0 78 26" fill="none" xmlns="http://www.w3.org/2000/svg">
<path fill-rule="evenodd" clip-rule="evenodd" d="M55.2674 17.3489C57.1083 17.3489 58.9594 18.7447 58.9594 21.2447C58.9594 23.7447 57.1186 25.151 55.2674 25.151C53.4266 25.151 51.5755 23.7447 51.5755 21.2447C51.5755 18.7447 53.4266 17.3489 55.2674 17.3489ZM75.2372 17.3489C76.8919 17.3489 77.5537 18.3905 77.7192 19.2135L76.8091 19.5364C76.7264 18.9947 76.2817 18.2551 75.2579 18.2551C74.4306 18.2551 73.8411 18.8072 73.8411 19.5051C73.8411 20.0468 74.1617 20.453 74.7822 20.5885L75.8784 20.828C77.0987 21.0989 77.7813 21.8801 77.7813 22.9322C77.7813 24.0989 76.8091 25.151 75.2476 25.151C73.4791 25.151 72.6414 23.9843 72.507 22.9218L73.4791 22.6093C73.5515 23.4426 74.1307 24.2135 75.2372 24.2135C76.2507 24.2135 76.7471 23.6718 76.7471 23.0155C76.7471 22.4739 76.3851 22.0155 75.6509 21.8489L74.6064 21.6197C73.5619 21.3905 72.8173 20.6926 72.8173 19.5676C72.8173 18.401 73.8825 17.3489 75.2372 17.3489ZM41.9474 17.3489C43.6021 17.3489 44.2639 18.3905 44.4294 19.2135L43.5193 19.5364C43.4366 18.9947 42.9919 18.2551 41.9681 18.2551C41.1407 18.2551 40.5513 18.8072 40.5513 19.5051C40.5513 20.0468 40.8718 20.453 41.4923 20.5885L42.5886 20.828C43.8089 21.0989 44.4914 21.8801 44.4914 22.9322C44.4914 24.0989 43.5193 25.151 41.9577 25.151C40.1893 25.151 39.3516 23.9843 39.2172 22.9218L40.1893 22.6093C40.2617 23.4426 40.8408 24.2135 41.9474 24.2135C42.9609 24.2135 43.4573 23.6718 43.4573 23.0155C43.4573 22.4739 43.0953 22.0155 42.361 21.8489L41.3165 21.6197C40.272 21.3905 39.5274 20.6926 39.5274 19.5676C39.5274 18.401 40.5926 17.3489 41.9474 17.3489ZM37.9762 17.3489V18.3072H34.5221V20.6093H37.6452V21.578H34.5221V23.8697H37.9762V24.828H33.5086V17.3385H37.9762V17.3489ZM71.7727 17.3489V18.3072H69.3114V24.8385H68.2979V18.3072H65.847V17.3489H71.7727ZM48.5454 17.3489C49.9001 17.3489 50.8102 18.3072 50.8102 19.5676C50.8102 20.8385 49.9001 21.776 48.5454 21.776H46.8907V24.8385H45.8772V17.3489H48.5454ZM62.8996 17.3489C64.2854 17.3489 65.1437 18.3385 65.1437 19.578C65.1437 20.651 64.4715 21.4947 63.365 21.703L65.1127 24.8385H63.9338L62.2584 21.776H61.1622V24.8385H60.1384V17.3489H62.8996ZM55.2674 18.2968C53.9023 18.2968 52.62 19.2864 52.62 21.2447C52.62 23.203 53.9023 24.203 55.2674 24.203C56.6325 24.203 57.9149 23.203 57.9149 21.2447C57.9149 19.2968 56.6325 18.2968 55.2674 18.2968ZM48.3592 18.276H46.8907V20.8489H48.3592C49.2383 20.8489 49.776 20.3489 49.776 19.578C49.776 18.7864 49.2383 18.276 48.3592 18.276ZM62.7135 18.276H61.1622V20.8489H62.7135C63.5408 20.8489 64.0992 20.3489 64.0992 19.578C64.1096 18.7864 63.5511 18.276 62.7135 18.276ZM64.0889 1.81763V11.6614H68.9391V14.578H61.0898V1.81763H64.0889ZM77.7399 1.81763V4.65096H72.6311V6.75513H77.7399V9.58846H72.6311V11.7551H77.7399V14.5885H69.6527V1.81763H77.7399ZM4.97592 1.81763C7.90261 1.81763 9.77445 3.93221 9.77445 6.48429C9.77445 9.05721 7.92329 11.2239 4.95523 11.2239H3.21783V14.578H0.21875V1.81763H4.97592ZM13.7043 1.81763V14.578H10.6845V1.81763H13.7043ZM17.6755 1.81763L22.9704 9.45304V1.81763H25.9385V14.578H22.9704L17.4687 6.42179V14.578H14.4903V1.81763H17.6755ZM30.0338 1.81763L35.3287 9.45304V1.81763H38.2968V10.151L36.3732 14.2864L36.2388 14.578H35.3391L29.8373 6.42179V14.578H26.8589V1.81763H30.0338ZM54.6573 1.33846C57.0772 1.33846 59.1146 2.59888 60.2211 4.48429L57.6047 6.18221C57.0359 5.04679 56.0431 4.32804 54.678 4.32804C52.6924 4.32804 51.3066 5.92179 51.3066 7.89054C51.3066 9.82804 52.6614 11.4218 54.6469 11.4218C56.1362 11.4218 57.1703 10.5468 57.6771 9.33846L60.4383 10.8385C59.3731 12.953 57.3358 14.4426 54.6676 14.4426C53.0957 14.4426 51.7409 13.9635 50.6964 13.1405L48.2661 7.92179C48.2661 7.91138 48.2661 7.90096 48.2661 7.89054C48.2455 4.17179 50.9757 1.33846 54.6573 1.33846ZM43.8503 0.848877L50.169 14.4114H46.6735L46.0427 13.0155H41.42L40.7891 14.4114H37.304L43.6227 0.848877H43.8503ZM43.7365 7.88013L42.6092 10.3801H44.8637L43.7365 7.88013ZM4.85182 4.59888H3.21783V8.39054H4.85182C5.92735 8.39054 6.734 7.64054 6.734 6.50513C6.734 5.36971 5.92735 4.59888 4.85182 4.59888Z" fill="white"/>
<path fill-rule="evenodd" clip-rule="evenodd" d="M0.291016 19.9948H30.468L31.7917 17.1719H0.291016V19.9948Z" fill="#FF5500"/>
</svg>
