<svg width="70" height="20" viewBox="0 0 70 20" fill="none" xmlns="http://www.w3.org/2000/svg">
<path d="M32.6889 9.66613C35.1207 9.30342 35.6528 8.04038 35.6528 5.87824V3.59948C35.6528 1.20474 33.739 0 29.8978 0C26.0567 0 24.1428 1.20474 24.1428 3.59948V6.28452C24.1428 8.17111 24.5597 9.15859 26.7757 9.53541C24.5603 10.0288 24.1428 11.4079 24.1428 13.4252V16.3717C24.1428 18.7959 26.0567 20 29.8978 20C33.739 20 35.6528 18.7953 35.6528 16.3717V13.454C35.6528 11.2336 35.1207 9.97116 32.6889 9.66613ZM29.869 8.40309C29.02 8.40309 28.6031 7.99681 28.6031 7.19836V3.36688C28.6031 2.58316 29.0206 2.20572 29.869 2.20572C30.7174 2.20572 31.1637 2.59728 31.1637 3.36688V7.19836C31.1637 7.99681 30.7321 8.40309 29.869 8.40309ZM29.869 17.6777C29.02 17.6777 28.6031 17.2714 28.6031 16.4729V12.1333C28.6031 11.306 29.0206 10.8997 29.869 10.8997C30.7174 10.8997 31.1637 11.306 31.1637 12.1333V16.4729C31.1637 17.2714 30.7321 17.6777 29.869 17.6777Z" fill="white"/>
<path d="M45.8872 9.66613C48.3202 9.30342 48.8536 8.04038 48.8536 5.87824V3.59948C48.8536 1.20474 46.9385 0 43.0937 0C39.2488 0 37.3337 1.20474 37.3337 3.59948V6.28452C37.3337 8.17111 37.7512 9.15859 39.9691 9.53541C37.7512 10.0288 37.3337 11.4079 37.3337 13.4252V16.3717C37.3337 18.7959 39.2488 20 43.0937 20C46.9385 20 48.8536 18.7953 48.8536 16.3717V13.454C48.8536 11.2336 48.3209 9.97116 45.8872 9.66613ZM43.0648 8.40309C42.2152 8.40309 41.7977 7.99681 41.7977 7.19836V3.36688C41.7977 2.58316 42.2152 2.20572 43.0648 2.20572C43.9145 2.20572 44.3608 2.59728 44.3608 3.36688V7.19836C44.3749 7.99681 43.9433 8.40309 43.0648 8.40309ZM43.0648 17.6777C42.2152 17.6777 41.7977 17.2714 41.7977 16.4729V12.1333C41.7977 11.306 42.2152 10.8997 43.0648 10.8997C43.9145 10.8997 44.3608 11.306 44.3608 12.1333V16.4729C44.3749 17.2714 43.9433 17.6777 43.0648 17.6777Z" fill="white"/>
<path d="M56.9427 20H54.5427V8.80005H56.9427V20Z" fill="#ED334D"/>
<path d="M52.9427 20.0001H50.5427V17.6001H52.9427V20.0001Z" fill="#ED334D"/>
<path d="M60.7573 11.1641L66.324 11.1379C66.6041 11.1379 66.8492 11.2429 67.0637 11.4574C67.2781 11.6718 67.3831 11.9256 67.3831 12.2188V17.7506H69.5932V12.1751C69.5932 11.3217 69.2693 10.569 68.6216 9.92126C67.9739 9.27356 67.2212 8.94971 66.3678 8.94971H60.7573V11.1641Z" fill="#ED334D"/>
<path d="M67.3786 17.7505L61.8337 17.7899C61.5405 17.7899 61.2867 17.6848 61.0723 17.4704C60.8578 17.256 60.7528 17.0021 60.7528 16.7089V11.1685H58.5427V16.7746C58.5427 17.628 58.8666 18.3807 59.5143 19.0284C60.162 19.6761 60.9191 19.9999 61.79 19.9999H67.3786V17.7505Z" fill="#ED334D"/>
<rect x="0.142822" width="22.4242" height="20" rx="1" fill="#FB3D54"/>
<path fill-rule="evenodd" clip-rule="evenodd" d="M8.95248 9.62769V15.8373C8.95248 15.9725 8.91782 16.0578 8.79771 16.0578C8.67759 16.0578 8.6274 15.9725 8.6274 15.8373V15.0173H8.32143C8.10152 15.0173 7.39339 15.5652 6.94341 15.913C6.79939 16.0248 6.68167 16.1161 6.61474 16.1617C6.11934 15.8716 5.50383 15.582 5.0431 15.427C4.96063 15.5045 4.88474 15.5748 4.81661 15.6379C4.67319 15.7712 4.56085 15.8752 4.48197 15.9563C4.45269 15.9857 4.42759 16.0121 4.40548 16.035C4.33735 16.1058 4.29911 16.1461 4.26146 16.1461C4.176 16.1461 4.07203 16.0458 4.07203 15.9569C4.07203 15.868 4.26146 15.6667 5.13273 14.7741C5.72912 14.1595 5.96875 13.4248 5.96875 12.2955C5.96875 10.432 5.16739 8.83894 4.24592 8.83894C3.93996 8.83894 3.78519 8.95848 3.73499 9.26846C3.71945 9.42344 3.64953 9.4733 3.58021 9.4733C3.44456 9.4733 3.37524 9.24923 3.37524 8.87378C3.37524 8.01956 3.97163 7.33474 4.70666 7.33474C5.04847 7.33474 5.27974 7.48552 5.47993 7.61588C5.64964 7.72641 5.79605 7.82192 5.96875 7.79849V6.5496C5.96875 6.22461 5.84864 5.95008 5.60901 5.74523C5.40404 5.57523 4.34691 4.85617 3.95251 4.85617C3.87721 4.85617 3.82164 4.87179 3.77323 4.8856C3.73499 4.89642 3.69973 4.90663 3.66208 4.90663C3.61189 4.90663 3.59276 4.89101 3.59276 4.85617C3.59276 4.81171 3.62025 4.77928 3.69674 4.68917C3.7063 4.67775 3.71706 4.66514 3.72842 4.65132L5.07537 3.31772C5.08792 3.30871 5.09867 3.3003 5.10943 3.29249C5.15723 3.25585 5.18891 3.23242 5.24568 3.23242C5.51817 3.23242 6.27292 3.74724 6.89022 4.16774C7.31749 4.45909 7.67903 4.70539 7.76927 4.70539C7.93241 4.70539 8.41705 4.40262 8.94172 4.07463C9.56022 3.68837 10.2343 3.26666 10.5026 3.26666C10.6299 3.26666 10.7602 3.37239 11.6356 4.08064L11.6398 4.08424C11.6954 4.1287 11.7533 4.17615 11.8149 4.22601C11.8573 4.25965 11.9099 4.30411 11.9697 4.35457C12.1519 4.50775 12.4023 4.718 12.6354 4.86037C12.9103 5.03038 12.9258 5.06522 12.9258 5.39021C13.0961 5.35537 13.2855 5.2202 14.3582 4.34616C14.6642 4.09085 15.5701 3.35257 15.6394 3.35257C15.7249 3.35257 16.4754 3.66194 17.5863 4.12209C17.9114 4.25725 17.9616 4.29209 17.9616 4.49694V13.3443C17.9616 13.6345 17.9963 13.7384 18.1164 13.8393C18.6273 14.2839 18.9369 14.4539 19.1072 14.4539C19.1574 14.4539 19.2273 14.4346 19.2775 14.3842C19.363 14.2646 19.3821 14.249 19.4323 14.249C19.4825 14.249 19.5369 14.3187 19.5369 14.3842C19.5369 14.4887 18.7702 15.4433 17.9843 16.062C17.5081 15.892 16.6876 15.3273 16.2268 14.8479C16.0721 14.6779 16.041 14.6431 16.041 14.3529V8.01956C16.041 7.28488 16.277 6.78628 17.1328 5.64131C17.578 5.06161 17.6091 4.88741 17.5236 4.88741C17.4818 4.88741 17.0957 5.15533 16.7467 5.39682C16.5101 5.56081 16.2902 5.71279 16.2071 5.76145C16.1701 5.73983 16.1342 5.7194 16.099 5.69898C15.2635 5.2178 14.991 5.06101 14.5154 5.06101C14.2441 5.06101 14.0546 5.19618 14.0546 5.37038V15.8908C14.0546 16.026 13.9853 16.1305 13.8843 16.1305C13.7989 16.1305 13.7487 16.0452 13.7487 15.91V15.1213C13.2682 15.1994 12.8463 15.5916 12.5649 15.8541C12.4155 15.9935 12.3055 16.0956 12.2464 16.0956C12.0605 16.0956 10.9496 14.762 10.9496 14.6575V9.62709H8.95188L8.95248 9.62769ZM8.64293 5.26646C8.64293 4.92225 8.60827 4.80631 8.54194 4.80631C8.39135 4.80631 7.84158 5.15052 7.84158 5.26646V10.0025C7.84158 12.3003 7.58103 12.5754 6.99002 13.1978C6.97867 13.2098 6.96671 13.2224 6.95476 13.235C6.67987 13.5252 6.61414 13.5948 6.40917 13.8345C6.76891 14.3295 7.96169 14.5536 8.64652 14.5187V5.26646H8.64233H8.64293ZM10.9502 8.00394H8.95248V5.1313C8.95248 4.90723 9.05347 4.78709 9.2429 4.78709C9.66898 4.78709 10.9502 5.76145 10.9502 6.12068V8.00394ZM13.7487 5.57163C13.7487 5.53678 13.7331 5.52116 13.6794 5.52116C13.6292 5.52116 13.5437 5.55601 13.4899 5.59085L13.0991 5.83054C12.8786 5.9657 12.8087 6.03538 12.8087 6.13991V7.84895C12.8087 7.9685 12.9635 8.0538 13.0836 8.0538H13.7493V5.57163H13.7487ZM13.0985 9.59284H13.7451V14.5536C13.114 14.5031 12.8236 14.1787 12.8236 13.4945V9.98752C12.8236 9.73221 12.9127 9.59345 13.0985 9.59345V9.59284Z" fill="white"/>
</svg>
