<svg width="146" height="42" viewBox="0 0 146 42" fill="none" xmlns="http://www.w3.org/2000/svg">
<path d="M68.2695 20.2996C73.3706 19.5388 74.4867 16.8894 74.4867 12.354V7.57405C74.4867 2.55077 70.4722 0.0236816 62.4149 0.0236816C54.3575 0.0236816 50.343 2.55077 50.343 7.57405V13.2063C50.343 17.1636 51.2174 19.235 55.8659 20.0254C51.2187 21.0604 50.343 23.9531 50.343 28.1847V34.3653C50.343 39.4504 54.3575 41.9762 62.4149 41.9762C70.4722 41.9762 74.4867 39.4491 74.4867 34.3653V28.2452C74.4867 23.5875 73.3706 20.9394 68.2695 20.2996ZM62.3544 17.6502C60.5735 17.6502 59.6991 16.798 59.6991 15.1231V7.08614C59.6991 5.44218 60.5748 4.65046 62.3544 4.65046C64.1341 4.65046 65.0702 5.47179 65.0702 7.08614V15.1231C65.0702 16.798 64.165 17.6502 62.3544 17.6502ZM62.3544 37.1048C60.5735 37.1048 59.6991 36.2526 59.6991 34.5777V25.4748C59.6991 23.7394 60.5748 22.8872 62.3544 22.8872C64.1341 22.8872 65.0702 23.7394 65.0702 25.4748V34.5777C65.0702 36.2526 64.165 37.1048 62.3544 37.1048Z" fill="white"/>
<path d="M95.9544 20.2996C101.058 19.5388 102.177 16.8894 102.177 12.354V7.57405C102.177 2.55077 98.1596 0.0236816 90.0946 0.0236816C82.0295 0.0236816 78.0125 2.55077 78.0125 7.57405V13.2063C78.0125 17.1636 78.8881 19.235 83.5405 20.0254C78.8881 21.0604 78.0125 23.9531 78.0125 28.1847V34.3653C78.0125 39.4504 82.0295 41.9762 90.0946 41.9762C98.1596 41.9762 102.177 39.4491 102.177 34.3653V28.2452C102.177 23.5875 101.059 20.9394 95.9544 20.2996ZM90.0342 17.6502C88.2519 17.6502 87.3762 16.798 87.3762 15.1231V7.08614C87.3762 5.44218 88.2519 4.65046 90.0342 4.65046C91.8164 4.65046 92.7525 5.47179 92.7525 7.08614V15.1231C92.7821 16.798 91.8768 17.6502 90.0342 17.6502ZM90.0342 37.1048C88.2519 37.1048 87.3762 36.2526 87.3762 34.5777V25.4748C87.3762 23.7394 88.2519 22.8872 90.0342 22.8872C91.8164 22.8872 92.7525 23.7394 92.7525 25.4748V34.5777C92.7821 36.2526 91.8768 37.1048 90.0342 37.1048Z" fill="white"/>
<path d="M119.145 41.9763H114.111V18.4829H119.145V41.9763Z" fill="#ED334D"/>
<path d="M110.755 41.9762H105.72V36.9419H110.755V41.9762Z" fill="#ED334D"/>
<path d="M127.146 23.4422L138.823 23.3871C139.411 23.3871 139.925 23.6074 140.375 24.0572C140.825 24.5071 141.045 25.0395 141.045 25.6545V37.258H145.681V25.5627C145.681 23.7727 145.001 22.1937 143.643 20.8351C142.284 19.4764 140.705 18.7971 138.915 18.7971H127.146V23.4422Z" fill="#ED334D"/>
<path d="M141.036 37.2578L129.405 37.3404C128.79 37.3404 128.257 37.1201 127.807 36.6703C127.358 36.2205 127.137 35.688 127.137 35.073V23.4512H122.501V35.2107C122.501 37.0008 123.181 38.5797 124.539 39.9384C125.898 41.297 127.486 41.9763 129.313 41.9763H141.036V37.2578Z" fill="#ED334D"/>
<rect y="0.0236816" width="47.0377" height="41.9525" rx="1" fill="#FB3D54"/>
<path fill-rule="evenodd" clip-rule="evenodd" d="M18.4792 20.2188V33.2443C18.4792 33.5278 18.4065 33.7068 18.1546 33.7068C17.9026 33.7068 17.7973 33.5278 17.7973 33.2443V31.5243H17.1555C16.6942 31.5243 15.2088 32.6735 14.2649 33.4031C13.9629 33.6375 13.7159 33.829 13.5755 33.9248C12.5364 33.3162 11.2453 32.7088 10.2788 32.3837C10.1058 32.5462 9.94662 32.6937 9.80373 32.826C9.50288 33.1057 9.26723 33.3237 9.10176 33.4938C9.04034 33.5556 8.98769 33.611 8.94131 33.6589C8.79842 33.8076 8.71819 33.892 8.63922 33.892C8.45997 33.892 8.24186 33.6816 8.24186 33.4951C8.24186 33.3086 8.63922 32.8865 10.4668 31.014C11.7178 29.7249 12.2205 28.1838 12.2205 25.8149C12.2205 21.9061 10.5395 18.5643 8.60663 18.5643C7.96483 18.5643 7.64018 18.8151 7.53488 19.4653C7.50229 19.7904 7.35563 19.895 7.21022 19.895C6.92568 19.895 6.78027 19.425 6.78027 18.6374C6.78027 16.8456 8.03127 15.4091 9.57308 15.4091C10.2901 15.4091 10.7752 15.7254 11.1951 15.9988C11.5511 16.2307 11.8582 16.431 12.2205 16.3819V13.7621C12.2205 13.0804 11.9685 12.5046 11.4659 12.0749C11.0359 11.7183 8.81847 10.21 7.99116 10.21C7.83322 10.21 7.71664 10.2427 7.61511 10.2717C7.53488 10.2944 7.46093 10.3158 7.38196 10.3158C7.27666 10.3158 7.23655 10.2831 7.23655 10.21C7.23655 10.1167 7.29421 10.0487 7.45466 9.85966C7.47471 9.83572 7.49728 9.80926 7.52109 9.78028L10.3465 6.98289C10.3728 6.96399 10.3954 6.94634 10.4179 6.92996C10.5182 6.8531 10.5847 6.80396 10.7037 6.80396C11.2753 6.80396 12.8585 7.88385 14.1534 8.76591C15.0496 9.37705 15.808 9.89369 15.9973 9.89369C16.3395 9.89369 17.3561 9.2586 18.4567 8.5706C19.754 7.76036 21.168 6.87578 21.7308 6.87578C21.9978 6.87578 22.2711 7.09756 24.1075 8.5832L24.1162 8.59076C24.2328 8.684 24.3544 8.78355 24.4835 8.88814C24.5725 8.9587 24.6828 9.05195 24.8082 9.15779C25.1905 9.47912 25.7157 9.92015 26.2046 10.2188C26.7812 10.5754 26.8138 10.6485 26.8138 11.3302C27.171 11.2571 27.5684 10.9736 29.8184 9.14015C30.4602 8.60462 32.3605 7.05597 32.5059 7.05597C32.6852 7.05597 34.2596 7.70492 36.5899 8.67014C37.2718 8.95366 37.3771 9.02675 37.3771 9.45644V28.015C37.3771 28.6236 37.4498 28.8416 37.7017 29.0533C38.7735 29.9858 39.4228 30.3424 39.78 30.3424C39.8853 30.3424 40.032 30.302 40.1373 30.1962C40.3165 29.9454 40.3566 29.9127 40.4619 29.9127C40.5672 29.9127 40.6813 30.0588 40.6813 30.1962C40.6813 30.4154 39.073 32.4177 37.4247 33.7156C36.4256 33.359 34.7046 32.1745 33.7381 31.169C33.4135 30.8124 33.3483 30.7393 33.3483 30.1307V16.8456C33.3483 15.3045 33.8434 14.2586 35.6384 11.8569C36.5723 10.6409 36.6375 10.2755 36.4582 10.2755C36.3705 10.2755 35.5607 10.8375 34.8287 11.344C34.3323 11.688 33.871 12.0068 33.6968 12.1089C33.6191 12.0636 33.5438 12.0207 33.4699 11.9779C31.7175 10.9685 31.1459 10.6397 30.1481 10.6397C29.579 10.6397 29.1816 10.9232 29.1816 11.2886V33.3565C29.1816 33.64 29.0362 33.8593 28.8244 33.8593C28.6451 33.8593 28.5399 33.6803 28.5399 33.3968V31.7423C27.532 31.9061 26.6471 32.729 26.0567 33.2796C25.7433 33.572 25.5126 33.7862 25.3885 33.7862C24.9987 33.7862 22.6684 30.9888 22.6684 30.7695V20.2176H18.478L18.4792 20.2188ZM17.8299 11.0706C17.8299 10.3486 17.7572 10.1054 17.6181 10.1054C17.3022 10.1054 16.149 10.8274 16.149 11.0706V21.0051C16.149 25.8249 15.6024 26.4021 14.3627 27.7075C14.3389 27.7327 14.3138 27.7592 14.2888 27.7856C13.7122 28.3943 13.5743 28.5404 13.1443 29.0432C13.8989 30.0815 16.4009 30.5515 17.8374 30.4784V11.0706H17.8287H17.8299ZM22.6697 16.8128H18.4792V10.7871C18.4792 10.3171 18.6911 10.0651 19.0884 10.0651C19.9822 10.0651 22.6697 12.1089 22.6697 12.8624V16.8128ZM28.5399 11.7107C28.5399 11.6376 28.5073 11.6049 28.3944 11.6049C28.2892 11.6049 28.1099 11.678 27.9971 11.7511L27.1773 12.2538C26.7148 12.5373 26.5681 12.6835 26.5681 12.9028V16.4877C26.5681 16.7385 26.8927 16.9174 27.1447 16.9174H28.5411V11.7107H28.5399ZM27.176 20.1457H28.5323V30.5515C27.2086 30.4457 26.5994 29.7652 26.5994 28.33V20.9736C26.5994 20.4381 26.7862 20.147 27.176 20.147V20.1457Z" fill="white"/>
</svg>
