<svg width="40" height="40" viewBox="0 0 40 40" fill="none" xmlns="http://www.w3.org/2000/svg">
    <path d="M18.865 33.348h-.69v3.158h.69v-3.158zM19.519 33.987h.963v2.529h.691v-2.529h.963v-.63h-2.617v.63zM23.997 34.629l-.763-1.28h-.797l1.21 1.897v1.26h.698v-1.26l1.205-1.898h-.781l-.772 1.28zM16.241 35.937a1.007 1.007 0 0 1-.02-2.006 1.125 1.125 0 0 1 .8.368l.445-.512a1.67 1.67 0 0 0-1.223-.489 1.631 1.631 0 0 0 0 3.262 1.598 1.598 0 0 0 1.236-.553l-.43-.442a1.22 1.22 0 0 1-.808.372zM27.715 9.02l.536.41 1.5-1.958.746.57.37-.49L28.838 6l-.368.49.737.571-1.493 1.959zM16.33 6.983a1.563 1.563 0 0 0 1.01-.858l-.528-.295c-.138.266-.37.47-.652.573a.984.984 0 0 1-.577-1.878.934.934 0 0 1 .85.122l.277-.604a1.623 1.623 0 0 0-1.289-.12 1.597 1.597 0 1 0 .903 3.06h.007zM7.392 13.36l-.784-1.418 1.809.945.308-.584-2.738-1.452-.336.64.802 1.352-1.568.113-.338.643 2.746 1.439.306-.586-1.806-.944 1.6-.147zM12.33 8.769l-1.037-1.717 2.348.921.472-.286-1.603-2.653-.566.343 1 1.658-2.255-.895-.528.318 1.606 2.654.564-.343zM18.79 6.499 18.76 5.26l1.269-.03.03 1.237.661-.016-.077-3.076-.66.017.03 1.222-1.269.031-.033-1.222-.66.017.078 3.075.663-.016zM24.107 6.52l-1.658-.37.145-.67 1.156.252.308-.532-1.342-.29.136-.626 1.631.354.13-.593-2.276-.494-.658 3.029 2.303.5.125-.56zM30.966 12.272l.445-.369-1.088-1.29.52-.44.764.903.602-.195-.92-1.084.49-.412 1.076 1.273.464-.39-1.502-1.78-2.368 1.997 1.517 1.787zM34.107 11.492l-2.752 1.377.294.59.886-.443.251.498-.591 1.04.352.705.656-1.176a.947.947 0 0 0 1.125.172.992.992 0 0 0 .447-1.43l-.668-1.333zm-.085 2.171a.45.45 0 0 1-.622-.24l-.336-.67.81-.407.342.678a.448.448 0 0 1-.043.527.446.446 0 0 1-.15.112zM9.528 11.323l-.317-.693.906-.96.708.277.476-.507-3.192-1.178-.422.446 1.364 3.118.477-.503zm-1.05-2.29 1.054.409-.582.617-.472-1.026zM25.6 7.859c.202.109.428.168.658.173a.883.883 0 0 0 .801-.46.82.82 0 0 0 .115-.581c-.1-.418-.553-.737-.839-.982-.223-.184-.225-.336-.184-.43.101-.22.358-.17.518-.094.255.132.46.345.578.607l.553-.304a1.891 1.891 0 0 0-.874-.822.971.971 0 0 0-1.403.422.785.785 0 0 0 0 .65c.157.258.365.481.61.658.202.184.479.356.316.616-.11.184-.368.132-.575.018a1.505 1.505 0 0 1-.63-.693l-.565.253c.198.41.52.75.921.969zM3.425 19.318l.067.328.34-.088v1.46h.379v-1.871h-.26l-.526.171zM5.83 20.063a.48.48 0 0 0 .227-.411c0-.286-.242-.518-.645-.518-.404 0-.647.232-.647.518a.478.478 0 0 0 .23.41.497.497 0 0 0-.298.447c0 .296.269.534.718.534.45 0 .718-.238.718-.534a.496.496 0 0 0-.303-.447zm-.415-.583a.23.23 0 0 1 .19.047.228.228 0 0 1-.19.401c-.17 0-.272-.101-.272-.223 0-.121.103-.225.272-.225zm0 1.235c-.208 0-.332-.105-.332-.232s.124-.23.332-.23c.209 0 .332.103.332.23s-.125.238-.332.238v-.006zM36.317 20.297v-1.148h-.334l-1.017 1.194.053.274h.922v.402h.381v-.402h.26v-.32h-.265zm-.382 0h-.506l.506-.598v.598zM33.877 19.143a.648.648 0 0 0-.713.621.593.593 0 0 0 .61.625.92.92 0 0 0 .422-.105c-.02.3-.185.405-.369.418a.513.513 0 0 1-.405-.166l-.214.297a.843.843 0 0 0 1.264-.142c.142-.294.185-.627.122-.947a.679.679 0 0 0-.717-.601zm.01.907a.288.288 0 0 1-.244-.195.286.286 0 1 1 .243.195z" fill="#90949C"/>
    <path d="M20 1.236A18.764 18.764 0 1 0 38.766 20 18.795 18.795 0 0 0 20 1.236zm0 36.704A17.94 17.94 0 1 1 37.94 20 17.974 17.974 0 0 1 20 37.94z" fill="#90949C"/>
    <path d="M20 0a20 20 0 1 0 20 20A20.039 20.039 0 0 0 20 0zm0 39.2A19.2 19.2 0 1 1 39.2 20 19.24 19.24 0 0 1 20 39.2z" fill="#90949C"/>
    <path d="M29.217 10.76a38.35 38.35 0 0 0-1.376-.23 12.265 12.265 0 0 0-15.663-.014c-.48.072-.956.15-1.424.243a37.96 37.96 0 0 0-.264 1.447 12.295 12.295 0 0 0 7.924 20.007c.523.204 1.056.378 1.6.52.498-.157.974-.323 1.429-.502a12.296 12.296 0 0 0 10.729-14.087 12.293 12.293 0 0 0-2.661-5.942c-.092-.5-.189-.984-.294-1.443zm-9.23-2.413c2.326-.002 4.598.697 6.521 2.007a55.86 55.86 0 0 0-6.48-.369 56.542 56.542 0 0 0-6.543.35 11.571 11.571 0 0 1 6.501-1.988zM8.343 19.991a11.58 11.58 0 0 1 1.947-6.435 25.111 25.111 0 0 0 .614 11.321 12.582 12.582 0 0 0 4.858 5.963 11.676 11.676 0 0 1-7.414-10.857l-.005.008zm12.958 11.568a11.519 11.519 0 0 1-2.573.007 12.45 12.45 0 0 1-7.175-7.028 14.56 14.56 0 0 1-.695-4.035 32.71 32.71 0 0 1 .737-8.568c.21-.222.431-.433.66-.638a48.532 48.532 0 0 1 15.454 0c.256.227.503.466.737.717.855 3.788.972 7.705.345 11.537a9.687 9.687 0 0 1-.995 2.438 13.266 13.266 0 0 1-6.495 5.57zM31.62 19.99a11.672 11.672 0 0 1-7.36 10.825 12.187 12.187 0 0 0 4.79-5.835 24.713 24.713 0 0 0 .671-11.359 11.559 11.559 0 0 1 1.906 6.361l-.008.008z" fill="#90949C"/>
    <path d="m16.847 24.16.13-.042c.06-.118.143-.224.242-.313a1.45 1.45 0 0 1 .543-.274 1.32 1.32 0 0 0 .323-.139c.112-.09.211-.194.294-.311.096-.138.212-.262.343-.369l-1.36-1.636h-3.087l2.572 3.085zM28.054 23.68c.07-.242.129-.487.175-.738.11-.618.186-1.241.227-1.868H25.9l2.153 2.606zM18.13 29.313a.643.643 0 0 1-.41-.016.585.585 0 0 1-.37-.535v-.487c-.098-.09-.179-.199-.239-.318a.982.982 0 0 1-.085-.32l-5.438-6.556h-.022c.049 1.122.25 2.232.594 3.3a9.36 9.36 0 0 0 1.29 2.374 13.129 13.129 0 0 0 6.541 4.485h.015l-1.659-1.992-.218.065zM14.828 19.213l-1.597-.672.04-.105c1.197.384 2.433.631 3.685.737v-.594a1.32 1.32 0 0 0-.772.317 1.3 1.3 0 0 1-.328-1.658l2.504-.86a6.39 6.39 0 0 0-1.647.233c-.305.07-.58.235-.785.47A1.257 1.257 0 0 1 16 15.483l.987-.344v-.776l-.327.03c-.102.009-.032.138-.148.143l-.591.034c-.026 0-.036-.03-.012-.037l.577-.2c.057-.018 0-.076.08-.102l.563-.201v1.063l.813-.275a1.721 1.721 0 0 0 .416 1.56c-.076.351-.07.716.015 1.066.113.418.294.814.536 1.172a8.659 8.659 0 0 0-1.74-.053v.635c.935.083 1.883.11 2.86.102v-.682c-.282.057-.535.21-.716.433a1.542 1.542 0 0 1-.635-1.589c.042-.198.122-.386.237-.552l3.06-1.062c-.1.459-.1.933 0 1.392.174.519.43 1.006.76 1.444l.02-4.809-.335.03c-.104 0-.034.138-.15.143l-.59.035c-.027 0-.035-.031-.01-.039l.574-.197c.06-.02 0-.079.081-.105l.564-.199.02 2.005 1.983-.682a3.501 3.501 0 0 0 .432 3.028l-2.38.833v.265a26.923 26.923 0 0 0 2.106-.302 1.515 1.515 0 0 1-.257.564c-.184.256-.368.346-.424.552a.597.597 0 0 0 .157.553h-1.181c-.312-.085-.605-.184-.885-.267a1.723 1.723 0 0 0-.776-.074 2.966 2.966 0 0 1-1.195.185c-.693-.028-1.333-.255-2.027-.271-.04.204-.567.328-1.093.289a9.378 9.378 0 0 0-1.29-.205.513.513 0 0 0-.41.341h12.815a32.182 32.182 0 0 0-.02-3.62 30.529 30.529 0 0 0-.673-4.89 46.912 46.912 0 0 0-15.592 0 31.943 31.943 0 0 0-.686 8.51h4.11l-.795-1.144zm4.168-5.817 1.106-.383v-.586l-.329.03c-.1 0-.031.137-.147.143l-.59.035c-.029 0-.036-.031-.01-.04l.574-.198c.057-.02 0-.08.08-.103l.563-.2v.874l.922-.31a1.323 1.323 0 0 0 .293 1.475 6.96 6.96 0 0 0-1.379.142 1.919 1.919 0 0 0-1.105.612 1.09 1.09 0 0 1 .022-1.491zm-.074 1.607 2.532-.861a2.097 2.097 0 0 0 .523 1.705c-.844.03-2.35.11-2.963.888a1.29 1.29 0 0 1-.092-1.727v-.005zm-3.217.573a4.054 4.054 0 0 0-.577 2.869 5.968 5.968 0 0 0-1.797-.162 6.08 6.08 0 0 1 2.374-2.707z" fill="#90949C"/>
    <path d="M21.8 19.088c.33-.019.647-.045.953-.072v-.232a8.605 8.605 0 0 0-2.324-.229c-.055 0-.11.011-.165.018v.727c.328 0 .661-.013.997-.024l.54-.188zM21.46 28.776c.015.018.035.03.058.037l.517.172a.24.24 0 0 0 .3-.236l.018-.53a.139.139 0 0 0-.02-.084l-.011-.026a.66.66 0 0 0 .321-.355c.109-.293 0-.618.134-.986.114-.326.369-.49.443-.778a.695.695 0 0 0-.069-.497h.021a.105.105 0 0 0 .067-.05l.323-.446a.234.234 0 0 0-.094-.369l-.542-.184a.183.183 0 0 0-.09 0h-.027a.705.705 0 0 0-.245-.424c-.247-.208-.564-.17-.902-.427-.337-.258-.368-.518-.61-.658a.877.877 0 0 0-.486-.09v-.057a.158.158 0 0 0-.022-.092l-.324-.448a.25.25 0 0 0-.391 0l-.33.433a.134.134 0 0 0-.026.085v.105a.626.626 0 0 0-.47.088c-.276.166-.384.492-.703.72-.254.185-.638.205-.835.387a.7.7 0 0 0-.225.382h-.042a.183.183 0 0 0-.09 0l-.543.184a.231.231 0 0 0-.093.369l.32.445c.016.025.04.043.068.05l.046.013a.797.797 0 0 0-.062.494c.078.313.352.5.475.872.098.296.022.726.123.93a.737.737 0 0 0 .31.325l-.014.03a.117.117 0 0 0-.017.067v.553a.24.24 0 0 0 .32.214l.51-.153a.14.14 0 0 0 .077-.046l.027-.03c.498.44.822.035 1.437.035.492 0 .869.413 1.353-.048l.015.024zm.532-.184-.485-.158a.818.818 0 0 0 0-.52c.148.1.321.157.5.164l-.015.514zm.737-3.883.482.174-.297.409a.824.824 0 0 0-.496-.157.92.92 0 0 0 .304-.43l.007.004zm-2.056-1.49c.42.057.398.346.752.643.354.297.79.223.984.586.16.302 0 .715-.622.8a.422.422 0 0 0 0-.531c-.147-.184-.471-.184-.654-.326-.182-.142-.268-.422-.52-.52a.435.435 0 0 0-.463.184c-.13-.595.204-.884.514-.84l.009.004zm-.315 2.697a.312.312 0 1 1-.313-.315.314.314 0 0 1 .304.312l.009.003zm-.229-1.494a.34.34 0 0 1 .415-.346c.22.053.273.29.485.462.212.172.477.127.595.308a.342.342 0 0 1-.185.527l-.967.311a.475.475 0 0 0-.324-.236l-.019-1.026zm-.184 1.024a.481.481 0 0 0-.326.24l-.976-.308a.343.343 0 0 1-.25-.358.34.34 0 0 1 .048-.148c.12-.185.37-.17.59-.317.222-.148.258-.39.465-.457a.338.338 0 0 1 .449.344v1.005zm-1.337.102.956.31v.058a.48.48 0 0 0 .129.327l-.596.833a.35.35 0 0 1-.552.025c-.146-.171-.046-.387-.116-.65-.07-.264-.295-.369-.294-.58a.35.35 0 0 1 .47-.327l.003.004zm.626 1.614.593-.818a.474.474 0 0 0 .415 0l.608.824a.343.343 0 0 1-.142.527c-.21.086-.385-.076-.658-.09-.273-.015-.437.163-.642.095a.34.34 0 0 1-.233-.223.343.343 0 0 1 .057-.319l.002.004zm1.153-.921a.467.467 0 0 0 .129-.325v-.06l.965-.312a.342.342 0 0 1 .413.132.34.34 0 0 1 .053.146c.016.225-.185.35-.288.605-.104.254.016.479-.111.652a.335.335 0 0 1-.552-.016l-.609-.822zm-.35-3.686.3.411a.81.81 0 0 0-.303.424.96.96 0 0 0-.308-.43l.311-.405zm-2.396 1.931c.185-.38.478-.267.867-.512s.447-.67.856-.737c.336-.06.686.253.572.839-.185-.201-.337-.242-.505-.175-.212.086-.319.39-.508.523-.218.151-.497.123-.666.333a.44.44 0 0 0 .022.503c-.595-.082-.776-.499-.638-.783v.01zm-.808.395.485-.157c.054.17.163.318.309.42a.946.946 0 0 0-.501.159l-.294-.422zm1.717 3.57-.492.147v-.509a.813.813 0 0 0 .494-.166.955.955 0 0 0-.002.52v.009zm-.623-.71c-.303-.293-.103-.524-.215-.97-.113-.445-.518-.628-.461-1.037.048-.34.46-.579.99-.284-.25.113-.328.242-.317.42.015.227.271.426.337.647.078.25-.033.509.113.737a.43.43 0 0 0 .482.118c-.25.535-.702.579-.925.35l-.004.019zm3.188.737c-.368.197-.552-.061-1.01-.09-.456-.03-.736.29-1.105.112-.306-.151-.45-.617.013-1.017.033.272.15.394.323.436.223.056.484-.141.716-.138.261 0 .47.184.737.124a.427.427 0 0 0 .284-.408c.435.358.32.817.042.962v.019zm.09-1.106c.27.052.416 0 .51-.153.121-.195.03-.505.107-.724.085-.249.325-.368.34-.643a.444.444 0 0 0-.313-.396c.521-.293.906-.052.963.256.074.418-.224.472-.396.901-.171.43.046.818-.263 1.12-.245.218-.695.159-.948-.38v.02zM29.51 25.172c-.318.767-.7 1.507-1.139 2.211a11.135 11.135 0 0 0 2.093-11.291c.324 3.06 0 6.154-.954 9.08zM9.454 18.215c0-.693.033-1.408.083-2.136a11.142 11.142 0 0 0 2.076 11.282c-.471-.726-.864-1.5-1.17-2.31a19.232 19.232 0 0 1-.989-6.836zM24.195 9.64a11.142 11.142 0 0 0-8.381-.01 64.28 64.28 0 0 1 4.204-.135c1.428 0 2.829.05 4.177.146z" fill="#90949C"/>
    <path d="M22.972 27.879a.99.99 0 0 1-.267.39l-.017.49a.597.597 0 0 1-.773.56l-.473-.156a.998.998 0 0 1-.318.124l.921 1.105a13.972 13.972 0 0 0 2.027-1.22l-1.105-1.332.005.039zM23.105 21.089h-3.114l1.378 1.658c.093.084.174.18.242.286l.014.02.184.218c.022.02.045.04.069.057.119.085.252.148.394.184.189.048.366.135.52.254.124.102.222.232.287.378l.501.164a.561.561 0 0 1 .36.369.62.62 0 0 1-.09.552l-.185.266 1.983 2.373a9.821 9.821 0 0 0 1.464-1.937l-4.007-4.842z" fill="#90949C"/>
</svg>
