<?xml version="1.0" encoding="UTF-8"?><svg xmlns="http://www.w3.org/2000/svg" xmlns:xlink="http://www.w3.org/1999/xlink" viewBox="0 0 601.3947 147.7153"><defs><style>.aa{fill:url(#u);}.ab{fill:url(#t);}.ac{fill:url(#v);}.ad{fill:url(#e);}.ae{fill:url(#d);}.af{fill:url(#g);}.ag{fill:url(#f);}.ah{fill:url(#p);}.ai{fill:url(#o);}.aj{fill:url(#s);}.ak{fill:url(#q);}.al{fill:url(#r);}.am{fill:url(#i);}.an{fill:url(#h);}.ao{fill:url(#k);}.ap{fill:url(#j);}.aq{fill:url(#m);}.ar{fill:url(#l);}.as{fill:url(#n);}.at{fill:url(#x);}.au{fill:url(#w);}.av{fill:url(#y);}.aw{fill:url(#a`);}.ax{fill:#e9e6db;}</style><linearGradient id="d" x1="485.0869" y1="48.6708" x2="485.0869" y2="26.6346" gradientTransform="translate(0 146.7489) scale(1 -1)" gradientUnits="userSpaceOnUse"><stop offset="0" stop-color="#e5e5e5"/><stop offset="1" stop-color="#f0e6c5"/></linearGradient><linearGradient id="e" x1="509.5064" y1="48.8066" x2="509.5064" y2="26.6336" xlink:href="#d"/><linearGradient id="f" x1="538.3431" y1="45.6783" x2="538.3431" y2="27.1778" xlink:href="#d"/><linearGradient id="g" x1="559.3608" y1="47.4466" x2="559.3608" y2="27.4495" xlink:href="#d"/><linearGradient id="h" x1="581.0589" y1="46.4941" x2="581.0589" y2="27.4495" xlink:href="#d"/><linearGradient id="i" x1="418.1614" y1="95.3299" x2="418.1614" y2="59.8259" xlink:href="#d"/><linearGradient id="j" x1="445.3013" y1="92.0646" x2="445.3013" y2="16.295" xlink:href="#d"/><linearGradient id="k" x1="490.0516" y1="92.6093" x2="490.0516" y2="57.5133" xlink:href="#d"/><linearGradient id="l" x1="537.1208" y1="96.1456" x2="537.1208" y2="58.465" xlink:href="#d"/><linearGradient id="m" x1="580.4459" y1="92.6093" x2="580.4459" y2="57.5133" xlink:href="#d"/><linearGradient id="n" x1="83.1827" y1="146.7489" x2="83.1827" y2="48.6708" xlink:href="#d"/><linearGradient id="o" x1="187.1105" y1="96.0097" x2="187.1105" y2="60.9137" xlink:href="#d"/><linearGradient id="p" x1="230.2309" y1="105.5319" x2="230.2309" y2="63.2262" xlink:href="#d"/><linearGradient id="q" x1="260.0248" y1="119.6783" x2="260.0248" y2="62.2733" xlink:href="#d"/><linearGradient id="r" x1="289.3383" y1="95.8728" x2="289.3383" y2="60.7769" xlink:href="#d"/><linearGradient id="s" x1="328.5159" y1="134.6431" x2="328.5159" y2="63.4991" xlink:href="#d"/><linearGradient id="t" x1="365.6299" y1="141.0036" x2="365.6299" y2="62.0024" xlink:href="#d"/><linearGradient id="u" x1="366.4181" y1="116.9591" x2="366.4181" y2="85.672" xlink:href="#d"/><linearGradient id="v" x1="354.9391" y1="126.3445" x2="354.9391" y2="118.0467" xlink:href="#d"/><linearGradient id="w" x1="355.9545" y1="135.0509" x2="355.9545" y2="127.5692" xlink:href="#d"/><linearGradient id="x" x1="378.9727" y1="85.1273" x2="378.9727" y2="76.8295" xlink:href="#d"/><linearGradient id="y" x1="377.9784" y1="75.6053" x2="377.9784" y2="68.2596" xlink:href="#d"/><linearGradient id="a`" x1="263.2214" y1="57.2596" x2="263.2214" y2="9.0857" xlink:href="#d"/></defs><g id="a"/><g id="b"><g id="c"><g><path class="ae" d="M480.1902,104.0631c-.8167,3.5367-2.1767,8.026-4.3535,10.746-.5442-.4074-1.4958-.9516-2.1768-1.2242,2.0409-2.5842,3.401-6.8009,3.9451-9.9302l2.5851,.4084Zm6.2568-5.9851v19.0437c0,1.4967-.4075,2.1767-1.36,2.5851-.9525,.4074-2.5851,.4074-4.8967,.4074-.1367-.68-.5442-1.7684-.9526-2.3126,1.6326,.1367,3.401,.1367,3.9451,0,.5442,0,.68-.1358,.68-.68v-19.0437h2.5842Zm5.4418,5.4409c2.04,3.4009,4.081,7.8902,4.6252,10.746l-2.4493,.9526c-.5442-2.8567-2.4484-7.4819-4.3526-10.8828l2.1767-.8158Z"/><path class="ad" d="M502.2292,108.5524c-.8167-.8158-2.5851-1.7684-3.9451-2.4484l1.2242-1.6326c1.36,.5442,3.2651,1.4967,4.0809,2.3126l-1.36,1.7684Zm-3.5367,10.067c.9517-1.9051,2.4484-5.0335,3.4-7.7544l1.7684,1.2242c-.9516,2.5851-2.1758,5.4418-3.2641,7.7544l-1.9042-1.2242Zm4.4884-16.4604c-.8158-.8158-2.4484-1.9042-3.9451-2.5842l1.3609-1.6326c1.36,.5442,3.1284,1.6326,3.9451,2.4484l-1.3609,1.7684Zm17.5479,8.1619h-3.2642c-.4083,.68-.8167,1.3609-1.0884,1.9051h3.9451v1.7684h-6.8019v1.4958h6.1209v1.7684h-6.1209v2.8567h-2.1768v-2.8567h-5.8493v-1.7684h5.8493v-1.4958h-6.6651v-1.7684h3.6725c-.1358-.5442-.5442-1.2251-.8158-1.7684l.5442-.1367h-4.0809v-1.7684h7.2093v-1.36h-5.3051v-1.7684h5.3051v-1.2242h-5.9851v-5.8493h14.4186v5.8493h-6.1209v1.2242h5.5777v1.7684h-5.5777v1.36h7.2093v1.7684Zm-11.2902-10.066h-2.1768v2.3126h2.1768v-2.3126Zm4.6251,11.9711c.2716-.5442,.68-1.2251,.8158-1.9051h-5.3051c.4084,.5442,.68,1.3609,.8167,1.7684l-.4083,.1367h4.0809Zm-2.8567-9.6586h2.3125v-2.3126h-2.3125v2.3126Zm4.0809,0h2.3125v-2.3126h-2.3125v2.3126Z"/><path class="ag" d="M547.9334,103.6557c-1.7684,2.8558-4.8977,6.8009-8.5702,9.7935,1.4967,1.4967,2.9926,3.1293,3.9451,4.3535l-2.3126,1.7684c-.9525-1.36-2.9925-3.5367-4.4892-5.1693-1.4958-1.4967-4.081-3.8093-5.441-4.7609l2.04-1.6326c.9526,.68,2.7209,2.1767,4.3535,3.6726,3.2642-2.4484,5.8493-5.7126,6.9377-7.8893h-13.7395c-.9525,0-2.1767,.1358-2.5842,.1358v-2.7209c.68,.1367,1.7684,.1367,2.5842,.1367h14.147c.8168,0,1.4967-.1367,1.9051-.2726l1.9042,1.6326c-.1358,.4084-.4084,.68-.68,.9526Z"/><path class="af" d="M555.0077,101.479v8.1619c0,.68,0,1.4967,.1358,2.0409h-2.8568c0-.4084,.1367-1.2251,.1367-2.0409v-8.1619c0-.4084,0-1.36-.1367-1.7684h2.8568c0,.5442-.1358,1.0884-.1358,1.7684Zm11.4269,.2726v4.3526c0,5.5777-.8167,7.6177-2.7209,9.6586-1.6326,1.9042-4.081,2.9926-5.8493,3.5367l-2.041-2.1767c2.3125-.5442,4.3535-1.4967,5.8493-3.1284,1.7684-1.9051,2.041-3.8093,2.041-8.1619v-4.2177c0-.8158-.1358-1.6316-.1358-2.3126h2.8567v2.4493Z"/><path class="an" d="M590.2412,102.7041c-1.0884,1.7684-3.4009,4.8967-5.986,6.8009l-2.04-1.6326c2.1759-1.2242,4.2168-3.6726,5.0326-5.0326h-13.3302c-.9526,0-1.7693,.1358-2.8568,.1358v-2.7209c.9517,.1367,1.9042,.2726,2.8568,.2726h13.6027c.5442,0,1.6326-.1358,2.04-.1358l1.4967,1.4958c-.1358,.1358-.5442,.5442-.8158,.8167Zm-15.7805,16.5953l-2.3116-1.7684c.68-.2716,1.4958-.68,2.3116-1.2242,3.5377-2.3126,4.0809-5.3051,4.0809-9.386,0-.68,0-1.2242-.1358-1.9042h2.7209c.1358,6.2567-.2725,11.0177-6.6661,14.2828Z"/><path class="am" d="M416.393,82.298c-3.6725,2.9926-7.0735,4.625-8.8418,4.625-2.9926,0-8.5702-2.9926-8.5702-8.978,0-2.5846,.5442-4.8971,1.36-6.9376,0-.272-.1358-.5441-.1358-.9522,0-10.8825,11.6986-18.6363,18.5005-18.6363,5.7135,0,9.9302,3.6728,9.9302,8.978,0,8.4339-5.4418,15.6436-11.0186,20.5407,7.6177-.5442,14.2828-5.7133,18.2279-9.6582,0,0,.4084-.5441,.8167-.5441,.4074,0,.68,.4081,.68,.5441,0,.2721-.9526,1.0883-1.3609,1.4964-3.8084,3.5367-9.7935,9.114-19.5879,9.5221Zm-.8167-26.2539c1.4968,0,4.0809,3.5367,4.0809,4.8971,0,.8162-.9516,1.2243-1.6317,1.6324-4.7618,2.8566-11.1553,8.4339-14.0111,14.0111,2.1758,2.8566,5.9851,4.489,10.6102,4.7611,5.3051-4.7611,10.6102-12.923,10.6102-21.0848,0-4.2169-2.4484-6.9376-7.346-6.9376-5.0326,0-14.0112,5.8493-15.507,14.2832,2.04-3.2647,4.8967-5.8493,7.4818-8.1619,1.9042-1.9045,3.9442-3.4007,5.7125-3.4007Zm-12.786,25.0296c0,2.3125,1.36,4.2169,3.5367,4.2169,1.9042,0,4.4884-1.0883,6.9367-2.9926-4.2167-.4081-7.7535-1.7684-10.066-4.2169-.2716,.9522-.4075,2.0404-.4075,2.9926Z"/><path class="ap" d="M435.3037,73.3205c-.2726,0-.5442-.2721-.5442-.5442,0-.4081,.9516-1.0882,1.2242-1.4963,2.8568-2.8567,15.2353-16.5958,20.4046-16.5958,3.2642,0,6.9377,3.8088,6.9377,6.6655,0,6.6656-9.6586,12.5149-14.1479,18.3642,4.8977,0,12.5153,4.7611,12.5153,13.7391,0,.8158-.2725,2.9926-.2725,2.9926,5.4418,0,6.9376,.8167,6.9376,1.2242,0,.4084-.4074,1.0884-.8158,1.0884s-1.4967-1.2242-6.3935-1.2242c-2.9926,14.9637-18.0921,32.92-31.9674,32.92-3.8084,0-6.9377-3.1293-6.9377-7.0744,0-8.2977,16.4595-21.3563,31.0149-26.1172,.8167-3.2651,1.0884-6.3938,1.0884-9.1144,0-3.8088-1.6326-7.0736-5.7135-7.0736-2.8567,0-4.4884,2.3125-5.1684,2.3125-.9526,0-2.9935-2.3125-2.9935-3.6728,0-3.2647,16.4605-13.331,16.4605-21.2207,0-.9523-.4084-1.3604-1.0884-1.3604-4.6251,0-16.1879,12.1068-19.7246,15.7796-.4084,.136-.68,.4081-.8158,.4081Zm-7.4819,55.2282c11.6986,0,21.6288-15.7795,25.1656-29.9265-12.787,4.7609-28.0223,17.5479-28.0223,26.3897,0,1.7684,.8158,3.5367,2.8567,3.5367Z"/><path class="ao" d="M495.5604,86.1068c-4.0809,0-7.6177-2.8566-7.6177-7.6177,0-2.4486,.4084-4.625,.4084-4.625-6.3935,6.2574-15.2353,15.3714-18.2279,15.3714s-7.346-3.4007-7.346-7.3457c0-10.2023,17.2762-27.7503,28.2949-27.7503,5.0326,0,9.7935,4.489,9.7935,7.2097,0,2.0405-.68,3.2647-.9516,3.2647-.4084,0-1.0884-.8162-1.0884-1.2243s.68-.9522,.68-2.4486c0-.9522-1.36-2.0405-2.3125-2.0405-11.9702,0-28.5665,17.8201-28.5665,26.662,0,.9523,.5442,1.6324,1.6326,1.6324,2.4484,0,11.5628-8.8419,17.6837-14.9633,3.8093-3.8089,6.6661-6.3935,7.7535-6.3935,1.0884,0,4.6251,3.2647,4.6251,5.3052,0,1.4964-5.5768,5.7133-5.5768,9.6582,0,1.6324,1.2242,2.4486,2.8568,2.4486,6.2567,0,18.3637-12.1068,18.3637-12.1068,.2725-.2721,.5442-.5441,.8168-.5441,.4074,0,.5442,.4081,.5442,.5441,0,.2721-.9526,1.0883-1.2251,1.4964-.5433,.272-13.467,13.467-20.5405,13.467Z"/><path class="ar" d="M524.6748,54.2761c1.9042,0,4.7609,2.8566,4.7609,6.1214,0,5.4412-11.9712,16.8678-11.9712,25.0297,0,.8162,.5442,1.2243,1.0884,1.2243,2.1767,0,10.7469-7.4817,17.2762-17.4119,2.3125-2.9927,3.2642-5.7133,4.3526-5.7133,.9526,0,5.1693,2.9927,5.1693,5.0331s-4.081,6.9376-4.081,11.1545c0,1.9045,1.0884,2.9927,2.5842,2.9927,6.8019,0,14.0111-15.3715,14.0111-24.3496,0-5.5772-1.36-6.5295-1.36-7.3457,0-.272,.1358-.4081,.4083-.4081,1.2242,0,5.0326,2.0405,5.0326,6.8016,0,9.114-11.0177,26.9341-18.3637,26.9341-4.4893,0-8.1619-2.9927-8.1619-7.8898,0-1.3603,.5442-4.8971,.5442-4.8971,0,0-12.787,16.7318-16.5963,16.7318-3.1284,0-7.0735-3.5367-7.0735-8.4339,0-8.0258,11.2912-17.548,11.2912-24.8936,0-.4081,.2716-.6802,1.0884-.6802Z"/><path class="aq" d="M600.8505,79.3053c.2726,0,.5442,.2721,.5442,.5441,0,.4081-.68,.9523-1.36,1.4964-2.8567,2.3126-5.8493,4.761-8.2986,4.761-4.0809,0-7.0735-2.8566-7.0735-7.6177,0-2.4486,.4084-4.625,.4084-4.625-6.3935,6.2574-15.2353,15.3714-18.2279,15.3714s-7.346-3.4007-7.346-7.3457c0-10.2023,17.2762-27.7503,28.2949-27.7503,5.0326,0,9.7935,4.489,9.7935,7.2097,0,2.0405-.68,3.2647-.9516,3.2647-.4084,0-1.0884-.8162-1.0884-1.2243s.68-.9522,.68-2.4486c0-.9522-1.36-2.0405-2.3125-2.0405-11.9702,0-28.5665,17.8201-28.5665,26.662,0,.9523,.5442,1.6324,1.6326,1.6324,2.4483,0,11.5627-8.8419,17.6837-14.9633,3.8093-3.8089,6.6661-6.3935,7.7544-6.3935,1.0874,0,4.6242,3.2647,4.6242,5.3052,0,1.4964-5.5768,5.7133-5.5768,9.6582,0,1.6324,.9526,2.7206,2.4484,2.7206,1.6326,0,3.5367-1.4963,5.5777-3.1286,.4075-.5442,1.0884-1.0883,1.36-1.0883Z"/><path class="as" d="M157.3877,36.8643c3.1284,0,8.9777,4.2169,8.9777,8.2979,0,7.4817-18.7721,26.9341-18.7721,41.0813,0,2.3126,1.0884,6.3937,5.0335,6.3937,.4074,0,.8158,.1358,.8158,.5442,0,.4074-.5442,.68-1.2242,.68-4.6251,0-11.1544-3.6729-11.1544-11.8348,0-14.0111,18.9079-33.1915,18.9079-41.0813,0-.9522-.68-1.6324-1.4958-1.6324-8.8418,0-35.9125,27.0701-48.5637,42.1695-2.8558,3.2647-4.2167,5.1692-5.0326,5.1692-2.1767,0-6.9377-4.0809-6.9377-6.9376,0-11.2906,39.9925-57.133,39.9925-65.0227,0-1.0883-.4075-1.9045-2.3126-1.9045-16.5953,0-65.0223,68.4235-76.8569,83.387-1.2243,1.6326-1.9044,1.9042-3.2647,1.9042-2.8566,0-8.8419-3.1284-8.8419-6.8014,0-15.6435,38.3607-54.8204,38.3607-74.8169,0-10.2023-5.8494-14.4192-12.6509-14.4192C42.8497,1.9044,7.6177,36.7283,7.6177,57.541c0,5.3052,1.9044,9.2501,7.6177,9.2501,17.8201,0,42.8497-28.5665,46.2505-37.6805,.136-.2721,.2721-.6802,.6802-.6802,.5441,0,1.7684,2.0405,1.7684,2.9927,0,5.4412-29.2466,37.2724-50.3314,37.2724-6.5295,0-13.6031-5.3052-13.6031-12.3789C0,32.2393,41.6254,0,69.7837,0c11.9708,0,22.173,8.1618,22.173,18.9083,0,21.4929-37.9525,59.9895-37.9525,75.9056,0,.2716,.272,.5433,.5441,.5433,6.1214,0,60.806-84.8827,80.1222-84.8827,4.8967,0,9.5219,4.8971,9.5219,8.5699,0,10.2023-35.64,48.0189-35.7758,60.2617,3.5367-4.217,38.6325-42.4416,48.9711-42.4416Z"/><path class="ai" d="M192.6193,82.7064c-4.0809,0-7.6177-2.8567-7.6177-7.6177,0-2.4486,.4084-4.6251,.4084-4.6251-6.3935,6.2575-15.2353,15.3715-18.2279,15.3715s-7.346-3.4007-7.346-7.3457c0-10.2023,17.2763-27.7503,28.2949-27.7503,5.0326,0,9.7935,4.489,9.7935,7.2097,0,2.0405-.68,3.2647-.9516,3.2647-.4084,0-1.0884-.8162-1.0884-1.2243s.68-.9522,.68-2.4486c0-.9522-1.36-2.0405-2.3126-2.0405-11.9702,0-28.5665,17.82-28.5665,26.662,0,.9522,.5442,1.6324,1.6326,1.6324,2.4484,0,11.5628-8.842,17.6837-14.9634,3.8093-3.8088,6.666-6.3934,7.7535-6.3934,1.0884,0,4.6251,3.2647,4.6251,5.3052,0,1.4963-5.5767,5.7133-5.5767,9.6581,0,1.6324,1.2242,2.4486,2.8567,2.4486,6.2567,0,18.3637-12.1067,18.3637-12.1067,.2726-.2721,.5442-.5442,.8167-.5442,.4074,0,.5442,.4081,.5442,.5442,0,.272-.9525,1.0882-1.2251,1.4963-.4075,.2721-13.3302,13.4671-20.5405,13.4671Z"/><path class="ah" d="M223.2258,55.9083c-2.9935-1.2243-6.9377-2.8566-6.9377-5.7133,0-4.761,5.7126-8.978,8.706-8.978,1.7684,0,4.8967,2.5846,4.8967,3.4008,0,2.9926-2.0409,6.9376-4.8967,10.7464,3.9442,1.9044,10.4744,2.9926,10.4744,6.3934,0,4.8971-8.8428,11.6987-8.8428,16.5958,0,1.4964,.9526,2.9926,2.7209,2.9926,4.7609,0,18.0921-13.195,18.0921-13.195,.2725-.2721,.5442-.5441,.68-.5441,.4084,0,.5442,.4081,.5442,.6801s-.68,.9523-1.0884,1.3604c0,0-13.3312,13.8751-19.5879,13.8751-3.8093,0-7.8902-3.2647-7.8902-6.9376,0-7.4818,6.8019-13.6031,6.8019-17.548,0-1.0883-.9526-1.9045-2.3126-2.5846-3.8093,5.0332-8.5702,9.9303-11.5628,13.059-.2716,.2721-.5442,.5442-.68,.5442-.2726,0-.5442-.2721-.5442-.5442s.68-.9522,1.0884-1.4963c2.5842-2.9927,7.0735-7.4818,10.3386-12.1068Zm3.8084-11.0185c-1.0884,0-5.0335,2.7206-5.0335,7.2097,0,1.0883,.8167,2.0405,1.9051,2.8566,2.1758-3.2647,3.8084-6.6655,3.8084-9.3861,.1358-.5441-.2716-.6802-.68-.6802Z"/><path class="ak" d="M263.902,55.6371c0,2.3126-14.5553,18.7723-14.5553,24.2135,0,1.4964,.9516,2.1765,2.04,2.1765,7.2102,0,22.0372-14.0111,22.0372-14.0111,0,0,.5442-.5441,.9525-.5441,.2716,0,.5442,.4081,.5442,.5441,0,.2721-.9526,1.0883-1.3609,1.4964,0,0-15.507,14.9633-23.8056,14.9633-2.04,0-6.1209-2.9926-6.1209-6.9376,0-5.5772,11.0186-19.7244,13.467-25.7097,.4084-.8162,.9525-1.2243,1.4967-1.2243,2.4484-.1361,5.3051,2.7206,5.3051,5.0331Zm12.5144-22.173c0,.9522-1.6326,3.5368-2.7209,4.0809-.8158,.4081-2.4484,.9522-3.5367,1.2243-2.4484,.8162-3.1284,2.1765-3.6726,2.1765-.4084,0-.8158-.2721-.8158-.8162,0-2.9926,4.8967-9.3861,4.8967-12.5148,0-.4081,.2726-.5442,.5442-.5442,2.0409,.1361,5.3051,4.6251,5.3051,6.3935Z"/><path class="al" d="M309.7429,76.0417c.2725,0,.5442,.2721,.5442,.5442,0,.4081-.68,.9522-1.36,1.4963-2.8568,2.3126-5.8493,4.7611-8.2977,4.7611-4.0809,0-7.0744-2.8567-7.0744-7.6178,0-2.4486,.4084-4.625,.4084-4.625-6.3935,6.2574-15.2353,15.3715-18.2279,15.3715s-7.346-3.4008-7.346-7.3457c0-10.2023,17.2763-27.7503,28.2949-27.7503,5.0325,0,9.7944,4.489,9.7944,7.2097,0,2.0405-.6809,3.2646-.9525,3.2646-.4084,0-1.0884-.8161-1.0884-1.2242s.68-.9523,.68-2.4486c0-.9523-1.36-2.0405-2.3125-2.0405-11.9702,0-28.5665,17.82-28.5665,26.662,0,.9522,.5442,1.6324,1.6326,1.6324,2.4484,0,11.5628-8.842,17.6837-14.9634,3.8093-3.8088,6.666-6.3935,7.7544-6.3935s4.6251,3.2647,4.6251,5.3052c0,1.4964-5.5777,5.7133-5.5777,9.6582,0,1.6324,.9525,2.7206,2.4484,2.7206,1.6326,0,3.5367-1.4964,5.5777-3.1287,.4084-.5441,1.0884-1.0883,1.36-1.0883Z"/><path class="aj" d="M326.0676,79.0328c0,.4081,.1358,.6802,.2716,.9522,0,.1361,.1367,.1361,.1367,.2721,.1358,.136,.1358,.4081,.2716,.5441,.1358,.1361,.1358,.2721,.2725,.2721l.4075,.4081q.1367,.136,.2726,.2721c.1358,.136,.2716,.272,.4074,.4081,.1367,.136,.2726,.136,.2726,.272,.1358,.1361,.2716,.1361,.5442,.2721,.1358,0,.2716,.136,.4084,.136,.1358,.1361,.4074,.1361,.5432,.1361,.1367,0,.2726,.136,.4084,.136,.2725,0,.4084,0,.68,.136h.2726c.4084,0,.68,0,1.0884-.136l9.5219-1.7684h-3.5367c-4.7609,0-8.5702-3.8089-8.5702-8.5699V13.1939c0-.4081,0-.8162,.1358-1.0882l-10.3377,1.9044c-2.1767,.4081-3.8093,2.0405-4.2167,4.0809-.1367,.2721-.1367,.6802-.1367,1.0883s0,.6802,.1367,1.0883l10.746,58.7652Z"/><path class="ab" d="M338.3094,78.3529h7.2102l6.8009,1.2243,8.8419,1.6324,1.6326,.2721,16.5963,3.1286c.4074,.1361,.8158,.1361,1.2242,.1361,1.36,0,2.5842-.4081,3.8084-1.2243,1.4967-.9523,2.4484-2.5846,2.7209-4.217l10.8828-58.7652c.2716-1.7684,0-3.5368-1.0884-5.0331-.9526-1.4964-2.5851-2.4486-4.2177-2.7206l-7.4809-1.3603-3.6735-.6802c-.9516-1.6324-2.5842-2.7206-4.6251-2.7206h-10.2019l-1.0884-.2721-10.6102-1.9044c-2.4484-.4081-4.7609,.4081-6.2577,2.1765h-10.3386c-2.3125,0-4.3526,1.4963-5.0325,3.5368-.1358,.5441-.2725,1.0883-.2725,1.7684v59.7175c-.1358,2.8566,2.1767,5.3052,5.1693,5.3052Zm.4084-8.0258l10.8828-58.7653c.4075-2.1765,2.4484-3.6728,4.6242-3.2647l8.706,1.6324,3.5367,.6802,15.5079,2.8566,3.2651,.5441,6.8009,1.2243c1.0884,.136,1.9051,.8162,2.5851,1.6324,.5442,.8162,.8158,1.9045,.68,2.9926l-10.8828,58.7653c-.1358,1.0882-.8158,1.9044-1.6326,2.5846-.8158,.5441-1.9042,.8162-2.9926,.6802l-2.5842-.4081-8.8418-1.6324-8.2977-1.4964-.5442-.136-17.6846-3.2647c-2.04-.4081-3.5367-2.4486-3.1284-4.625Z"/><path class="aa" d="M352.8656,45.8414c-.8167,4.3529,2.04,8.5699,6.3935,9.386,1.7684,.2721,3.4009,0,4.8967-.6801-.5442,2.1765-1.7684,3.9448-3.4009,5.1691l3.4009,.6802,3.4009,.6802c-1.0884-1.7685-1.6326-3.8089-1.36-5.9854,1.0884,1.2243,2.5842,2.0405,4.3526,2.3126,.5442,.136,.9526,.136,1.4967,.136,1.0884,0,2.1758-.2721,3.1284-.6802,2.4484-1.0882,4.2167-3.1286,4.7609-5.9853,.9526-5.0331-2.04-7.7538-7.8893-16.3237-.68-.9522-1.0884-1.9045-1.4967-2.5846-.68-1.3604-.68-2.1766-.68-2.1766,0,0-.5442,1.0883-2.4484,2.5846-.4084,.272-.8167,.6801-1.36,.9522-8.5702,5.9854-12.2437,7.4817-13.1953,12.5149Z"/><path class="ac" d="M352.8638,27.2059c.4084,.136,.9526,0,1.3609-.1361-.1367,.5442-.5442,1.0883-.9526,1.3604l.9526,.136,.9516,.136c-.2716-.4081-.4075-1.0882-.4075-1.6324,.2716,.2721,.68,.5442,1.2242,.6802,1.2242,.2721,2.3125-.5441,2.5842-1.7684,.2726-1.3604-.5442-2.1766-2.1767-4.353-.5442-.8162-.5442-1.2243-.5442-1.2243,0,0-.1358,.4081-.9516,.9522-2.3125,1.6324-3.2651,2.0405-3.5367,3.4008-.4084,1.0882,.2716,2.3125,1.4958,2.4486Z"/><path class="au" d="M354.088,18.2273h.1358l.1358-.136,.68-1.2243,2.4484,.4081,.1367,1.3603v.2721l.1358,.136,.68,.1361h.2725s.1358-.1361,0-.2721l-.8167-6.6655q0-.136-.1358-.2721s-.1358-.136-.2725-.136l-.68-.136h-.2716s-.1358,.136-.1358,.272l-3.1293,5.8493c-.1358,.1361-.1358,.2721-.1358,.2721h.1358l.8167,.136Zm2.9926-5.1691l.4075,3.2647-1.9042-.4081,1.4967-2.8566Z"/><path class="at" d="M380.754,61.8935l-.9525-.136-.9516-.136c.2716,.4081,.4074,1.0882,.4074,1.6324-.2716-.2721-.68-.5442-1.2242-.6802-.68-.136-1.36,.136-1.7684,.4081-.4075,.2721-.68,.8162-.8158,1.2243-.2726,1.2243,.4084,1.9045,1.6326,3.8088,.1358,.1361,.2716,.4081,.4074,.6802,.5442,.8162,.5442,1.2243,.5442,1.2243,0,0,.1367-.4081,.9526-.9522,1.2242-.9523,2.1767-1.3604,2.7209-1.9045,.4075-.4081,.68-.8162,.8158-1.3603,.1358-.8162-.1358-1.6324-.8158-2.1766-.2725-.136-.5442-.4081-.9526-.4081-.4084-.136-.9525,0-1.36,.1361,.5442-.5442,.9516-1.0883,1.36-1.3604Z"/><path class="av" d="M379.9335,72.0958h-.1358l-.1358,.136-.6809,1.2243-1.6317-.2721-.9525-.136-.1358-1.3603v-.2721l-.1358-.136-.6809-.1361h-.2716c-.1358,0-.1358,.1361,0,.2721l.68,4.8971,.2726,1.7684v.1361s.1358,.136,.2716,.136l.68,.136h.2725s.1358-.136,.1358-.272l.1358-.1361,3.1284-5.7133c.1367-.136,.1367-.272,.1367-.272h-.9526Zm-2.9925,5.1691l-.2726-2.3125-.1358-.9523,.5442,.1361,1.36,.272-1.4958,2.8566Z"/><path class="aw" d="M468.3558,96.9897s-173.9831-29.5185-410.2687,40.6734c0-.1358,154.6671-70.8721,410.2687-40.6734Z"/><path class="ax" d="M232.258,145.0221c3.1847,0,5.7929-.644,7.8256-1.931,2.0326-1.3212,3.388-3.0997,4.0652-5.3356l1.372,.6098c-.3723,1.2196-.7622,3.4896-1.1687,6.8093-4.1669,1.5586-8.2487,2.3375-12.2465,2.3375-5.5555,0-9.9598-1.5078-13.212-4.5226-3.2522-3.0489-4.8783-7.2666-4.8783-12.653s1.6095-9.8415,4.8275-13.3644c3.218-3.5571,7.6223-5.3356,13.212-5.3356,1.5587,0,3.303,.1358,5.234,.4065,1.931,.2374,3.2522,.3557,3.9636,.3557s1.4736-.1016,2.2867-.3049v.7622c0,2.4733,.2033,4.8616,.6098,7.1649l-1.372,.6098c-1.3554-4.4376-4.9457-6.6568-10.7728-6.6568-3.388,0-6.3011,1.2029-8.7402,3.6079-1.2196,1.1854-2.185,2.7607-2.8965,4.7258-.6772,1.9652-1.0163,4.0818-1.0163,6.3519,0,2.2359,.2374,4.2685,.7114,6.0978,.474,1.8294,1.2029,3.5229,2.1851,5.0815,.9821,1.5587,2.3375,2.8115,4.0652,3.7603,1.7277,.9489,3.7095,1.4228,5.9454,1.4228Zm27.6028,2.0326c-2.1342-.1016-4.2352-.1524-6.3011-.1524-2.0326,0-4.1161,.0508-6.2503,.1524l-.1525-1.4736c1.5577-.3049,2.659-.6264,3.303-.9655,.6431-.3723,1.0671-.8805,1.2704-1.5245l10.1122-30.9465,4.4209-.5081,11.84,31.7595c.2365,.5756,.6264,1.0163,1.1687,1.3212,.5756,.2707,1.6261,.559,3.1505,.8639l-.1525,1.4736c-2.1342-.1016-4.4551-.1524-6.9617-.1524s-4.8274,.0508-6.9617,.1524l-.1525-1.4736c2.4049-.474,3.7936-.9147,4.1668-1.3212,.2033-.1691,.3049-.3391,.3049-.5082,0-.2033-.9322-3.2522-2.7948-9.1467h-11.4843l-2.744,9.0451c0,.4407,.3381,.7964,1.0163,1.0671,.6772,.2707,1.7952,.559,3.3538,.8639l-.1525,1.4736Zm4.0652-30.1334h-.2033c-.2375,.813-.5423,1.7952-.9147,2.9473-.3391,1.1179-.8639,2.8798-1.5753,5.2848-.7114,2.3717-1.4228,4.7424-2.1342,7.1141h9.9598l-5.1323-15.3462Zm39.6525,3.7095c-.6772-2.4733-1.6261-4.1669-2.8457-5.0815-1.1854-.9147-2.744-1.372-4.675-1.372s-3.4046,.474-4.4209,1.4228c-1.0163,.9147-1.5245,2.0492-1.5245,3.4046,0,2.2017,1.1355,4.0486,3.4046,5.5389l8.0288,5.234c3.5238,2.3033,5.2848,5.0307,5.2848,8.1813,0,2.5408-1.0163,4.76-3.0489,6.6568-1.9984,1.8635-4.9291,2.7948-8.7911,2.7948s-7.2324-.6098-10.1122-1.8293c.5423-2.7782,.813-5.2682,.813-7.4698l1.372-.6098c.5081,2.7782,1.3046,4.6916,2.3883,5.7421,1.0847,1.0505,2.7616,1.5753,5.0307,1.5753,2.3042,0,4.0486-.559,5.2339-1.6769,1.2196-1.1179,1.8294-2.4391,1.8294-3.9636,0-2.0668-1.1004-3.8111-3.303-5.234l-8.1304-5.3356c-3.1163-2.0326-4.675-4.6408-4.675-7.8255,0-2.4733,.9655-4.6076,2.8965-6.4027,1.931-1.8294,4.4551-2.744,7.5714-2.744,1.0163,0,2.1343,.1358,3.3538,.4065,1.2537,.2374,2.2026,.3557,2.8457,.3557,.644,0,1.3896-.1016,2.2359-.3049v.7622c0,2.4733,.2033,4.8616,.6098,7.1649l-1.372,.6098Zm17.0905-5.0307c-.2707,1.9984-.4065,5.6239-.4065,10.8745,0,8.5028,.1016,13.7876,.3049,15.8544l.1016,1.0671c.0674,.6098,.3899,1.0505,.9655,1.3212,.5756,.2374,1.6935,.5248,3.3538,.8639l-.1525,1.4736c-2.1342-.1016-4.4551-.1524-6.9617-.1524s-4.8275,.0508-6.9617,.1524l-.1525-1.4736c1.7277-.3391,2.8965-.644,3.5063-.9147s.9489-.6948,1.0163-1.2704c.2707-1.9984,.4065-5.6239,.4065-10.8745,0-8.5028-.1016-13.8051-.3049-15.9052l-.1016-1.0163c-.0674-.6098-.3724-1.0329-.9147-1.2704-.5423-.2707-1.6261-.5756-3.2522-.9147l.1525-1.4736c2.1342,.1016,4.3701,.1524,6.7076,.1524s4.5734-.0508,6.7076-.1524l.1525,1.4736c-1.6261,.3391-2.7099,.644-3.2522,.9147-.5423,.2374-.8472,.6606-.9147,1.2704Zm36.8817,24.5946c.0674-1.8968,.1016-4.9633,.1016-9.1976,0-7.7581-.1016-12.5514-.3049-14.3807l-.1525-1.0163c-.1016-.813-.9997-1.3886-2.6932-1.7277-.4065-.1016-1.1013-.2541-2.0834-.4573l.1524-1.4736c2.1342,.1016,4.2343,.1524,6.3011,.1524,2.1001,0,4.2177-.0508,6.3519-.1524l.1525,1.4736c-1.6261,.3391-2.7108,.644-3.2522,.9147-.5423,.2374-.8472,.6606-.9147,1.2704-.3391,1.9984-.5081,5.6239-.5081,10.8745,0,8.0288,.1349,14.1941,.4065,18.4968l.1524,1.931-4.0652,.4573-20.631-27.7451h-.2541c-.1358,2.9815-.2033,6.1828-.2033,9.6041,0,6.4027,.1349,10.7728,.4065,13.1103l.1524,1.0671c.1016,.813,.9987,1.4062,2.6932,1.7785,.4065,.0674,1.1004,.2033,2.0834,.4065l-.1525,1.4736c-2.1342-.1016-4.3701-.1524-6.7076-.1524s-4.5734,.0508-6.7076,.1524l-.1525-1.4736c1.7952-.3391,3.0489-.644,3.7603-.9147,.7114-.2707,1.1004-.6948,1.1687-1.2704,.2707-1.9652,.4065-5.573,.4065-10.8236,0-8.537-.1016-13.8559-.3049-15.956l-.1016-1.0163c-.0684-.6098-.3733-1.0329-.9147-1.2704-.5423-.2707-1.6261-.5756-3.2522-.9147l.1524-1.4736c2.1342,.1016,4.6575,.1524,7.5715,.1524l21.0883,28.1008h.2541Zm29.2262-26.3223c-1.9642,0-3.7095,.3899-5.234,1.1687-1.5245,.7789-2.7265,1.7443-3.6079,2.8965-.8805,1.1521-1.5919,2.4558-2.1342,3.9128-.9479,2.4391-1.4228,4.8108-1.4228,7.1141s.2032,4.3867,.6098,6.2503c.4065,1.8293,1.0505,3.5229,1.931,5.0815,.8814,1.5586,2.1176,2.7782,3.7095,3.6587,1.5928,.8805,3.3713,1.3212,5.3356,1.3212,1.9994,0,3.7271-.3391,5.1832-1.0163,1.457-.6772,2.6257-1.5245,3.5062-2.5408,.9147-1.0505,1.6769-2.2359,2.2867-3.5571,1.0847-2.3375,1.6603-4.7092,1.7277-7.1141,0-11.4501-3.9636-17.1755-11.8908-17.1755Zm12.9579,27.7451c-1.4228,1.8635-3.3538,3.3538-5.7929,4.4717-2.4391,1.0838-5.2672,1.6261-8.4861,1.6261-5.5555,0-9.6881-1.4903-12.3989-4.4718-2.6756-3.0147-4.0144-7.1141-4.0144-12.2973,0-5.2173,1.4228-9.6891,4.2685-13.4152,1.4228-1.8635,3.3538-3.3372,5.793-4.4209,2.4391-1.1179,5.2682-1.6769,8.4861-1.6769,5.5564,0,9.6724,1.4903,12.3481,4.4717,2.7108,2.9815,4.0652,7.0633,4.0652,12.2465s-1.4228,9.6715-4.2685,13.466Z"/></g></g></g></svg>