<?xml version="1.0" encoding="utf-8"?>
<!-- Generator: Adobe Illustrator 28.0.0, SVG Export Plug-In . SVG Version: 6.00 Build 0)  -->
<svg version="1.1" id="Layer_1" xmlns="http://www.w3.org/2000/svg" xmlns:xlink="http://www.w3.org/1999/xlink" x="0px" y="0px"
	 viewBox="0 0 130 31.7" style="enable-background:new 0 0 130 31.7;" xml:space="preserve">
<style type="text/css">
	.st0{fill:url(#SVGID_1_);}
	.st1{fill:url(#SVGID_00000025428985009973034980000010998071914950502844_);}
	.st2{fill:url(#SVGID_00000018228181825327293580000004230396397817844105_);}
	.st3{fill:url(#SVGID_00000042004883266922642650000018315058809561073061_);}
	.st4{fill:url(#SVGID_00000054262627068132365520000009917017520149361552_);}
	.st5{fill:url(#SVGID_00000163769183080824504130000005031564572287261865_);}
	.st6{fill:url(#SVGID_00000100355007470856890940000014780966463343121073_);}
	.st7{fill:url(#SVGID_00000038408435190412854430000014850393811986624176_);}
	.st8{fill:url(#SVGID_00000178202568195610071910000016637420595467691152_);}
	.st9{fill:url(#SVGID_00000021798938079584391510000013176169260985303227_);}
	.st10{fill:url(#SVGID_00000106149070442252349140000003974751045388814005_);}
	.st11{fill:url(#SVGID_00000102535977508051127770000010477651451426184837_);}
</style>
<linearGradient id="SVGID_1_" gradientUnits="userSpaceOnUse" x1="23.9828" y1="31.6716" x2="8.1087" y2="3.9557" gradientTransform="matrix(1 0 0 -1 0 33.7334)">
	<stop  offset="0" style="stop-color:#0099D8"/>
	<stop  offset="1" style="stop-color:#4AAF65"/>
</linearGradient>
<path class="st0" d="M16,0C7.2,0,0,7.1,0,15.9c0,1.6,0.2,3.2,0.7,4.6c0.3-0.4,0.6-0.8,0.9-1.2c1.1-1.6,2.2-3.2,3.3-5l0.8-1.2
	c0.2-0.4,0.5-0.8,0.8-1.3C7,11,7.4,10.1,8,9.3C8.3,8.9,8.5,8.4,8.8,8C9,7.6,9.2,7.1,9.5,6.7c0.2-0.4,0.5-0.9,0.7-1.3l0.7-1.3
	l-0.1-0.1c0.3-0.7,1.2-1,2-0.6c0.6,0.2,0.8,0.9,0.8,1.5c0,0.7-0.2,1.5-0.2,2.4c-0.1,0.8-0.1,1.5-0.2,2.4c-0.1,1.5-0.1,3-0.1,4.5
	c0,1.5,0.1,3.1,0.2,4.6c0.1,0.7,0.2,1.5,0.3,2.2c0.2,0.7,0.3,1.4,0.7,1.9c0.2,0.2,0.2,0.4,0.3,0.5c0.1,0.1,0,0,0.1,0c0,0,0,0,0.1,0
	h0.1H15c0,0,0.1-0.1,0.2-0.1c0.2-0.2,0.4-0.3,0.7-0.6c0.4-0.5,0.9-1.1,1.3-1.7c0.4-0.6,0.8-1.3,1.1-1.9c0.7-1.3,1.5-2.8,2.1-4.1
	c0.3-0.7,0.7-1.4,1-2.1c0.3-0.7,0.7-1.5,0.9-2.1c0.3-0.7,1.1-1.1,1.9-0.7c0.5,0.2,0.8,0.6,0.9,1.1c0,0.2,0,0.4,0.1,0.6l0.1,0.6
	c0.1,0.4,0.1,0.9,0.2,1.3c0.2,0.9,0.3,1.8,0.6,2.6c0.2,0.9,0.5,1.7,0.9,2.5c0.3,0.8,0.8,1.6,1.4,2.3c0.2,0.2,0.1,0.4-0.1,0.6
	c-0.2,0.1-0.3,0.1-0.5,0c-0.7-0.6-1.4-1.4-2-2.2c-0.6-0.8-1.1-1.6-1.5-2.5c-0.2-0.6-0.6-1.1-0.8-1.8c-0.2,0.3-0.3,0.7-0.5,1.1
	c-0.7,1.5-1.4,2.8-2.2,4.3c-0.4,0.7-0.8,1.4-1.3,2.1c-0.5,0.7-1,1.4-1.6,2c-0.3,0.3-0.7,0.6-1.1,1c-0.1,0.1-0.2,0.2-0.4,0.2
	c-0.1,0.1-0.2,0.1-0.2,0.2L16,26H16h-0.1h-0.1c-0.1,0-0.2,0.1-0.2,0.1c-0.2,0-0.3,0.1-0.5,0.1c-0.3,0-0.8,0-1.1-0.2
	c-0.4-0.2-0.7-0.3-1-0.6c-0.6-0.4-0.8-0.9-1.1-1.4c-0.5-0.9-0.7-1.8-0.9-2.6c-0.2-0.8-0.3-1.7-0.4-2.5c-0.2-1.6-0.2-3.2-0.2-4.9
	c0-0.8,0-1.5,0-2.3c-0.3,0.6-0.6,1.1-0.9,1.6c-0.2,0.4-0.5,0.9-0.7,1.3L7.9,16c-1,1.8-2,3.5-3.1,5.2c-0.7,1.1-1.4,2.2-2.1,3.3
	c2.9,4.3,7.8,7.2,13.4,7.2c8.8,0,16-7.1,16-15.9C32.2,7.1,25,0,16,0z"/>
<linearGradient id="SVGID_00000086667570918117460920000016382643657593484983_" gradientUnits="userSpaceOnUse" x1="36.0193" y1="13.736" x2="144.645" y2="90.4087" gradientTransform="matrix(1 0 0 -1 0 33.7334)">
	<stop  offset="0" style="stop-color:#0099D8"/>
	<stop  offset="1" style="stop-color:#4AAF65"/>
</linearGradient>
<path style="fill:url(#SVGID_00000086667570918117460920000016382643657593484983_);" d="M46,21.7V11.1h-0.2l-3.4,10.6h-0.8L38,11.1
	h-0.2v10.6h-1.4V10h2.5l3,9.3l3-9.3h2.5v11.7H46z"/>
<linearGradient id="SVGID_00000010993214475880283060000016549379995627223209_" gradientUnits="userSpaceOnUse" x1="-6.5219" y1="-22.1525" x2="387.2197" y2="255.766" gradientTransform="matrix(1 0 0 -1 0 33.7334)">
	<stop  offset="0" style="stop-color:#0099D8"/>
	<stop  offset="1" style="stop-color:#4AAF65"/>
</linearGradient>
<path style="fill:url(#SVGID_00000010993214475880283060000016549379995627223209_);" d="M49.5,11.5V10h1.6v1.5H49.5z M49.5,21.7v-9
	H51v9H49.5z"/>
<linearGradient id="SVGID_00000145744360407155260750000000845825425683943601_" gradientUnits="userSpaceOnUse" x1="36.9891" y1="2.7775" x2="129.9689" y2="68.4066" gradientTransform="matrix(1 0 0 -1 0 33.7334)">
	<stop  offset="0" style="stop-color:#0099D8"/>
	<stop  offset="1" style="stop-color:#4AAF65"/>
</linearGradient>
<path style="fill:url(#SVGID_00000145744360407155260750000000845825425683943601_);" d="M60.1,18.7c0,1.8-0.7,3.1-3.6,3.1
	c-3.7,0-3.9-2.1-3.9-4.6c0-2.6,0.2-4.7,3.9-4.7c2.9,0,3.6,1.4,3.6,3.1h-1.4c0-1.5-0.5-2.1-2.2-2.1c-2.3,0-2.5,1.2-2.5,3.7
	c0,2.4,0.2,3.7,2.5,3.7c1.7,0,2.2-0.7,2.2-2.1H60.1z"/>
<linearGradient id="SVGID_00000134942835095493348460000015135256442118672309_" gradientUnits="userSpaceOnUse" x1="22.1238" y1="-11.9345" x2="163.3452" y2="87.7457" gradientTransform="matrix(1 0 0 -1 0 33.7334)">
	<stop  offset="0" style="stop-color:#0099D8"/>
	<stop  offset="1" style="stop-color:#4AAF65"/>
</linearGradient>
<path style="fill:url(#SVGID_00000134942835095493348460000015135256442118672309_);" d="M63.1,13.6c0.7-0.4,1.6-1.1,2.5-1.1
	c0.2,0,0.3,0,0.6,0s0.5,0,0.7,0l-0.1,1.1c-0.2,0-0.4,0-0.7,0c-0.2,0-0.3,0-0.6,0c-0.8,0-1.6,0.6-2.3,1v7.1h-1.5v-9H63L63.1,13.6z"/>
<linearGradient id="SVGID_00000066492545718248076930000009338085757175183265_" gradientUnits="userSpaceOnUse" x1="38.1338" y1="-6.7659" x2="127.66" y2="56.425" gradientTransform="matrix(1 0 0 -1 0 33.7334)">
	<stop  offset="0" style="stop-color:#0099D8"/>
	<stop  offset="1" style="stop-color:#4AAF65"/>
</linearGradient>
<path style="fill:url(#SVGID_00000066492545718248076930000009338085757175183265_);" d="M75.2,17.2c0,2.6-0.2,4.6-4,4.6
	c-3.8,0-4-2.1-4-4.6c0-2.6,0.2-4.7,4-4.7C74.9,12.5,75.2,14.6,75.2,17.2z M68.7,17.2c0,2.4,0.2,3.7,2.5,3.7c2.4,0,2.5-1.2,2.5-3.7
	c0-2.4-0.2-3.7-2.5-3.7C68.9,13.5,68.7,14.7,68.7,17.2z"/>
<linearGradient id="SVGID_00000121257562896700210210000005849173751055911305_" gradientUnits="userSpaceOnUse" x1="23.921" y1="-24.778" x2="145.4417" y2="60.9962" gradientTransform="matrix(1 0 0 -1 0 33.7334)">
	<stop  offset="0" style="stop-color:#0099D8"/>
	<stop  offset="1" style="stop-color:#4AAF65"/>
</linearGradient>
<path style="fill:url(#SVGID_00000121257562896700210210000005849173751055911305_);" d="M78,23.8c0.6,0.1,1.3,0.1,2.1,0.1
	c2.3,0,2.6-0.6,2.6-3c-0.7,0.4-1.6,0.8-2.6,0.8c-3.4,0.1-3.5-1.7-3.5-4.5s0.2-4.7,3.4-4.7c1.1,0,2.1,0.5,2.9,1l0.2-0.8h1.2v8
	c0,3.2-0.7,4.2-3.8,4.2c-1.1,0-1.9-0.1-2.6-0.2L78,23.8z M82.7,14.3c-0.7-0.4-1.5-0.8-2.3-0.8c-2.2,0-2.4,1.2-2.4,3.7
	c0,2.4,0.2,3.6,2.4,3.6c0.8,0,1.6-0.4,2.3-0.7V14.3z"/>
<linearGradient id="SVGID_00000004504942303762169670000014000508794078691761_" gradientUnits="userSpaceOnUse" x1="31.3354" y1="-25.0923" x2="135.1723" y2="48.2002" gradientTransform="matrix(1 0 0 -1 0 33.7334)">
	<stop  offset="0" style="stop-color:#0099D8"/>
	<stop  offset="1" style="stop-color:#4AAF65"/>
</linearGradient>
<path style="fill:url(#SVGID_00000004504942303762169670000014000508794078691761_);" d="M92.3,21.7l-0.2-0.8c-0.7,0.5-1.7,1-2.8,1
	c-3.4,0.1-3.5-1.8-3.5-4.7c0-2.8,0.2-4.7,3.4-4.7c1.1,0,2,0.5,2.8,1l0.2-0.8h1.2v9L92.3,21.7L92.3,21.7z M92,14.3
	c-0.7-0.3-1.5-0.7-2.3-0.7c-2.2,0-2.4,1.2-2.4,3.7c0,2.4,0.2,3.7,2.4,3.7c0.8,0,1.6-0.4,2.3-0.8V14.3z"/>
<linearGradient id="SVGID_00000152981543371268378570000010318869337437725072_" gradientUnits="userSpaceOnUse" x1="39.7904" y1="-27.0965" x2="128.0783" y2="35.2209" gradientTransform="matrix(1 0 0 -1 0 33.7334)">
	<stop  offset="0" style="stop-color:#0099D8"/>
	<stop  offset="1" style="stop-color:#4AAF65"/>
</linearGradient>
<path style="fill:url(#SVGID_00000152981543371268378570000010318869337437725072_);" d="M96.6,13.5c0.7-0.4,1.6-0.9,2.5-1
	c1.6-0.1,2.3,0.3,2.7,1c0.7-0.4,1.6-1,2.7-1c3.1-0.1,3.4,1.5,3.4,3.7v5.5h-1.5v-5.4c0-1.9-0.2-2.8-2.1-2.8c-0.7,0-1.5,0.4-2.1,0.8
	c0.2,0.6,0.2,1.2,0.2,1.9v5.4H101v-5.4c0-1.9-0.2-2.8-2.1-2.8c-0.7,0-1.5,0.4-2,0.8v7.5h-1.5v-9.1h1.2V13.5z"/>
<linearGradient id="SVGID_00000114794865614258929370000007022171061809193136_" gradientUnits="userSpaceOnUse" x1="-201.5256" y1="-202.3558" x2="192.2125" y2="75.5638" gradientTransform="matrix(1 0 0 -1 0 33.7334)">
	<stop  offset="0" style="stop-color:#0099D8"/>
	<stop  offset="1" style="stop-color:#4AAF65"/>
</linearGradient>
<path style="fill:url(#SVGID_00000114794865614258929370000007022171061809193136_);" d="M109.8,11.5V10h1.6v1.5H109.8z M109.8,21.7
	v-9h1.5v9H109.8z"/>
<linearGradient id="SVGID_00000156575125166762736500000016143441447743337125_" gradientUnits="userSpaceOnUse" x1="25.9523" y1="-47.6626" x2="131.1723" y2="26.6063" gradientTransform="matrix(1 0 0 -1 0 33.7334)">
	<stop  offset="0" style="stop-color:#0099D8"/>
	<stop  offset="1" style="stop-color:#4AAF65"/>
</linearGradient>
<path style="fill:url(#SVGID_00000156575125166762736500000016143441447743337125_);" d="M114.5,13.5c0.7-0.4,1.7-0.9,2.8-1
	c3.4-0.1,3.5,1.5,3.5,3.7v5.5h-1.5v-5.4c0-1.9-0.2-2.8-2.4-2.8c-0.8,0-1.6,0.4-2.3,0.8v7.5h-1.5v-9.1h1.2L114.5,13.5z"/>
<linearGradient id="SVGID_00000087384405739467209750000010850939159588812957_" gradientUnits="userSpaceOnUse" x1="9.8624" y1="-66.9814" x2="131.3801" y2="18.7906" gradientTransform="matrix(1 0 0 -1 0 33.7334)">
	<stop  offset="0" style="stop-color:#0099D8"/>
	<stop  offset="1" style="stop-color:#4AAF65"/>
</linearGradient>
<path style="fill:url(#SVGID_00000087384405739467209750000010850939159588812957_);" d="M123.7,23.8c0.6,0.1,1.3,0.1,2.1,0.1
	c2.3,0,2.6-0.6,2.6-3c-0.7,0.4-1.6,0.8-2.6,0.8c-3.4,0.1-3.5-1.7-3.5-4.5s0.2-4.7,3.4-4.7c1.1,0,2.1,0.5,2.9,1l0.2-0.8h1.2v8
	c0,3.2-0.7,4.2-3.8,4.2c-1.1,0-1.9-0.1-2.6-0.2L123.7,23.8z M128.4,14.3c-0.7-0.4-1.5-0.8-2.3-0.8c-2.2,0-2.4,1.2-2.4,3.7
	c0,2.4,0.2,3.6,2.4,3.6c0.8,0,1.6-0.4,2.3-0.7V14.3z"/>
</svg>
