<svg xmlns="http://www.w3.org/2000/svg" xmlns:xlink="http://www.w3.org/1999/xlink" preserveAspectRatio="xMidYMid meet" width="88" height="32" viewBox="0 0 88 32" style="width:100%;height:100%"><defs><animate repeatCount="indefinite" dur="13s" begin="0s" xlink:href="#_R_G_L_0_G_L_2_G" fill="freeze" attributeName="opacity" from="0" to="0" keyTimes="0;0.3846154;0.4615385;0.6923077;0.7692308;1" values="0;0;1;1;0;0" keySplines="0.167 0.167 0.833 0.833;0.167 0.167 0.833 0.833;0.167 0.167 0.833 0.833;0.167 0.167 0.833 0.833;0 0 0 0" calcMode="spline"/><animate repeatCount="indefinite" dur="13s" begin="0s" xlink:href="#_R_G_L_0_G_L_2_G_M" fill="freeze" attributeName="opacity" from="0" to="0" keyTimes="0;0.3846154;0.3846157;0.7692308;0.7692308;1" values="0;0;1;1;0;0" keySplines="0 0 0 0;0 0 0 0;0 0 0 0;0 0 0 0;0 0 0 0" calcMode="spline"/><animate repeatCount="indefinite" dur="13s" begin="0s" xlink:href="#_R_G_L_0_G_L_1_G" fill="freeze" attributeName="opacity" from="0" to="0" keyTimes="0;0.7692308;0.8461538;0.9230769;1" values="0;0;1;1;0" keySplines="0.167 0.167 0.833 0.833;0.167 0.167 0.833 0.833;0.167 0.167 0.833 0.833;0.167 0.167 0.833 0.833" calcMode="spline"/><animate repeatCount="indefinite" dur="13s" begin="0s" xlink:href="#_R_G_L_0_G_L_1_G_M" fill="freeze" attributeName="opacity" from="0" to="1" keyTimes="0;0.7692308;0.7692311;1" values="0;0;1;1" keySplines="0 0 0 0;0 0 0 0;0 0 0 0" calcMode="spline"/><animate repeatCount="indefinite" dur="13s" begin="0s" xlink:href="#_R_G_L_0_G_L_0_G" fill="freeze" attributeName="opacity" from="0" to="0" keyTimes="0;0.0769231;0.3076923;0.3846154;1" values="0;1;1;0;0" keySplines="0.167 0.167 0.833 0.833;0.167 0.167 0.833 0.833;0.167 0.167 0.833 0.833;0 0 0 0" calcMode="spline"/><animate repeatCount="indefinite" dur="13s" begin="0s" xlink:href="#_R_G_L_0_G_L_0_G_M" fill="freeze" attributeName="opacity" from="1" to="0" keyTimes="0;0.3846154;0.3846154;1" values="1;1;0;0" keySplines="0 0 0 0;0 0 0 0;0 0 0 0" calcMode="spline"/><animate attributeType="XML" attributeName="opacity" dur="13s" from="0" to="1" xlink:href="#time_group"/></defs><g id="_R_G"><g id="_R_G_L_0_G" transform=" translate(42.397, 16.179) scale(0.1, 0.1) translate(-500, -160)"><g id="_R_G_L_0_G_L_4_G" transform=" translate(478.213, 156.023) scale(1.83, 1.83) translate(-212.823, -100.013)"><path id="_R_G_L_0_G_L_4_G_D_0_P_0" fill="#ffffff" fill-opacity="1" fill-rule="nonzero" d=" M214.32 173.88 C214.32,173.88 211.32,173.88 211.32,173.88 C211.32,173.88 211.32,26.14 211.32,26.14 C211.32,26.14 214.32,26.14 214.32,26.14 C214.32,26.14 214.32,173.88 214.32,173.88z "/></g><g id="_R_G_L_0_G_L_3_G" transform=" translate(248.207, 156.043) scale(2.32, 2.32) translate(-120.048, -83.903)"><path id="_R_G_L_0_G_L_3_G_D_0_P_0" fill="#d4b965" fill-opacity="1" fill-rule="nonzero" d=" M55.05 27.66 C55.05,26.74 55.79,26 56.7,26 C56.7,26 183.39,26 183.39,26 C184.31,26 185.05,26.74 185.05,27.66 C185.05,27.66 185.05,140.15 185.05,140.15 C185.05,141.06 184.31,141.81 183.39,141.81 C183.39,141.81 56.7,141.81 56.7,141.81 C55.79,141.81 55.05,141.06 55.05,140.15 C55.05,140.15 55.05,27.66 55.05,27.66z "/><path id="_R_G_L_0_G_L_3_G_D_1_P_0" fill="#be181b" fill-opacity="1" fill-rule="nonzero" d=" M61.47 34.09 C61.47,33.18 62.21,32.43 63.12,32.43 C63.12,32.43 176.97,32.43 176.97,32.43 C177.89,32.43 178.63,33.18 178.63,34.09 C178.63,34.09 178.63,133.72 178.63,133.72 C178.63,134.63 177.89,135.37 176.97,135.37 C176.97,135.37 63.12,135.37 63.12,135.37 C62.21,135.37 61.47,134.63 61.47,133.72 C61.47,133.72 61.47,34.09 61.47,34.09z "/><path id="_R_G_L_0_G_L_3_G_D_2_P_0" fill="#ffffff" fill-opacity="1" fill-rule="nonzero" d=" M105.27 83.46 C105.27,83.46 105.27,119.93 105.27,119.93 C105.27,120.73 105.07,121.23 104.36,121.23 C103.65,121.23 103.35,120.73 103.35,119.93 C103.35,119.93 103.35,115.12 103.35,115.12 C103.35,115.12 101.55,115.12 101.55,115.12 C100.25,115.12 96.07,118.33 93.41,120.38 C93.41,120.38 93.41,120.38 93.41,120.38 C92.56,121.04 91.86,121.57 91.47,121.84 C88.54,120.14 84.91,118.43 82.19,117.53 C81.7,117.98 81.25,118.39 80.85,118.77 C80.85,118.77 80.85,118.77 80.85,118.77 C80.85,118.77 80.85,118.77 80.85,118.77 C80,119.55 79.33,120.16 78.87,120.64 C78.7,120.81 78.55,120.96 78.42,121.1 C78.02,121.52 77.79,121.75 77.57,121.75 C77.06,121.75 76.45,121.16 76.45,120.64 C76.45,120.14 77.57,118.93 82.71,113.69 C86.23,110.08 87.65,105.76 87.65,99.13 C87.65,88.18 82.92,78.82 77.48,78.82 C75.67,78.82 74.76,79.53 74.46,81.34 C74.37,82.25 73.96,82.55 73.54,82.55 C72.74,82.55 72.33,81.23 72.33,79.03 C72.33,74.01 75.85,69.99 80.2,69.99 C82.21,69.99 83.58,70.87 84.76,71.64 C85.76,72.29 86.63,72.85 87.65,72.71 C87.65,72.71 87.65,65.38 87.65,65.38 C87.65,63.47 86.94,61.86 85.52,60.65 C84.31,59.65 78.07,55.43 75.74,55.43 C75.29,55.43 74.97,55.52 74.68,55.6 C74.45,55.67 74.25,55.72 74.02,55.72 C73.73,55.72 73.61,55.63 73.61,55.43 C73.61,55.17 73.78,54.98 74.23,54.44 C74.23,54.44 74.23,54.44 74.23,54.44 C74.28,54.38 74.35,54.3 74.41,54.22 C74.41,54.22 82.37,46.39 82.37,46.39 C82.44,46.34 82.51,46.29 82.57,46.24 C82.85,46.03 83.03,45.89 83.37,45.89 C84.98,45.89 89.44,48.91 93.09,51.38 C95.61,53.09 97.75,54.54 98.28,54.54 C99.24,54.54 102.1,52.76 105.2,50.84 C108.85,48.57 112.83,46.09 114.42,46.09 C115.17,46.09 115.94,46.71 121.11,50.87 C121.11,50.87 121.13,50.89 121.13,50.89 C121.46,51.16 121.8,51.43 122.17,51.73 C122.42,51.92 122.73,52.18 123.08,52.48 C123.08,52.48 123.08,52.48 123.08,52.48 C124.16,53.38 125.64,54.61 127.01,55.45 C128.64,56.45 128.73,56.65 128.73,58.56 C129.73,58.36 130.85,57.56 137.18,52.43 C138.99,50.93 144.34,46.59 144.75,46.59 C145.25,46.59 149.69,48.41 156.25,51.11 C158.17,51.91 158.47,52.11 158.47,53.32 C158.47,53.32 158.47,105.28 158.47,105.28 C158.47,106.99 158.67,107.6 159.38,108.19 C162.4,110.8 164.23,111.8 165.23,111.8 C165.53,111.8 165.94,111.69 166.24,111.39 C166.74,110.69 166.86,110.6 167.15,110.6 C167.45,110.6 167.77,111.01 167.77,111.39 C167.77,112.01 163.24,117.62 158.6,121.25 C155.79,120.25 150.95,116.94 148.23,114.12 C147.31,113.12 147.13,112.91 147.13,111.21 C147.13,111.21 147.13,74.01 147.13,74.01 C147.13,69.69 148.52,66.76 153.57,60.04 C156.2,56.63 156.39,55.61 155.88,55.61 C155.64,55.61 153.36,57.18 151.3,58.6 C149.9,59.56 148.6,60.46 148.11,60.74 C147.89,60.62 147.68,60.5 147.47,60.38 C142.54,57.55 140.93,56.63 138.12,56.63 C136.52,56.63 135.4,57.43 135.4,58.45 C135.4,58.45 135.4,120.25 135.4,120.25 C135.4,121.05 134.99,121.66 134.4,121.66 C133.89,121.66 133.59,121.16 133.59,120.36 C133.59,120.36 133.59,115.73 133.59,115.73 C130.76,116.19 128.27,118.5 126.61,120.04 C125.72,120.85 125.07,121.45 124.73,121.45 C123.63,121.45 117.07,113.62 117.07,113.01 C117.07,113.01 117.07,83.46 117.07,83.46 C117.07,83.46 105.27,83.46 105.27,83.46z  M103.44 57.84 C103.44,55.81 103.24,55.13 102.85,55.13 C101.96,55.13 98.71,57.15 98.71,57.84 C98.71,57.84 98.71,85.66 98.71,85.66 C98.71,99.16 97.17,100.77 93.68,104.43 C93.62,104.5 93.55,104.57 93.48,104.65 C91.85,106.35 91.47,106.76 90.25,108.17 C92.38,111.08 99.42,112.39 103.47,112.19 C103.47,112.19 103.47,57.84 103.47,57.84 C103.47,57.84 103.44,57.84 103.44,57.84z  M117.07 73.92 C117.07,73.92 117.07,62.86 117.07,62.86 C117.07,60.74 109.5,55.02 106.99,55.02 C105.87,55.02 105.27,55.72 105.27,57.04 C105.27,57.04 105.27,73.92 105.27,73.92 C105.27,73.92 117.07,73.92 117.07,73.92z  M133.6 59.63 C133.6,59.42 133.5,59.33 133.18,59.33 C132.89,59.33 132.38,59.54 132.06,59.74 C132.06,59.74 129.76,61.15 129.76,61.15 C128.45,61.95 128.04,62.36 128.04,62.97 C128.04,62.97 128.04,73.01 128.04,73.01 C128.04,73.71 128.96,74.21 129.66,74.21 C129.66,74.21 133.6,74.21 133.6,74.21 C133.6,74.21 133.6,59.63 133.6,59.63z  M129.76 83.25 C128.66,83.25 128.13,84.07 128.13,85.57 C128.13,85.57 128.13,106.17 128.13,106.17 C128.13,110.19 129.85,112.1 133.57,112.39 C133.57,112.39 133.57,83.25 133.57,83.25 C133.57,83.25 129.76,83.25 129.76,83.25z "/></g><g id="_R_G_L_0_G_L_2_G_M"><g id="_R_G_L_0_G_L_2_G" transform=" translate(638.029, 160) scale(0.48, 0.48) translate(-181, -283)"><path id="_R_G_L_0_G_L_2_G_D_0_P_0" fill="#191513" fill-opacity="1" fill-rule="nonzero" d=" M308.82 83.46 C276.31,32.18 231.19,0.35 180.65,0 C79.56,0.52 0,127.58 0,283.08 C0,360.74 19.93,431.43 52.46,482.69 C84.99,533.96 130.1,565.81 180.65,566 C231.19,565.81 276.31,533.96 308.82,482.69 C341.36,431.43 361.29,360.74 361.29,283.08 C361.29,205.4 341.36,134.72 308.82,83.46z "/><path id="_R_G_L_0_G_L_2_G_D_1_P_0" fill="#f62711" fill-opacity="1" fill-rule="nonzero" d=" M341.63 174.85 C332.7,141.46 319.76,111.48 303.84,86.46 C287.76,61.4 268.87,41.14 248.06,27.17 C227.25,13.39 204.61,5.72 180.65,5.72 C156.69,5.72 134.04,13.39 113.23,27.17 C92.42,41.14 73.54,61.4 57.45,86.46 C41.53,111.48 28.59,141.46 19.67,174.85 C10.75,208.06 5.85,244.68 5.85,283.17 C5.85,359.82 25.63,429.48 57.45,479.55 C73.54,504.6 92.42,524.85 113.23,538.82 C134.04,552.63 156.69,560.28 180.65,560.28 C204.61,560.28 227.25,552.63 248.06,538.82 C268.87,524.85 287.76,504.6 303.84,479.55 C335.67,429.48 355.44,359.82 355.44,283.17 C355.44,244.68 350.54,208.06 341.63,174.85z "/><path id="_R_G_L_0_G_L_2_G_D_2_P_0" fill="#191513" fill-opacity="1" fill-rule="nonzero" d=" M180.65 544.45 C91.28,543.92 21.42,426.42 21.42,283.17 C21.42,139.76 91.28,22.23 180.65,21.73 C270.01,22.23 339.87,139.76 339.87,283.17 C339.87,426.42 270.01,543.92 180.65,544.45z "/><path id="_R_G_L_0_G_L_2_G_D_3_P_0" fill="#ffffff" fill-opacity="1" fill-rule="nonzero" d=" M180.65 129.37 C240.63,129.37 292.64,161.91 319.41,209.76 C312.23,170.78 299.82,135.84 283.2,107.57 C256.8,62.77 220.52,35.55 180.65,35.37 C140.77,35.55 104.49,62.77 78.1,107.57 C61.47,135.84 49.06,170.78 41.89,209.76 C68.65,161.91 120.66,129.37 180.65,129.37z "/><path id="_R_G_L_0_G_L_2_G_D_4_P_0" fill="#ffffff" fill-opacity="1" fill-rule="nonzero" d=" M180.65 436.8 C120.66,436.8 68.82,404.28 42.07,356.42 C49.06,395.41 61.47,430.32 78.1,458.45 C91.38,480.74 106.94,498.98 124.43,511.4 C141.74,524 160.72,530.82 180.65,530.82 C200.58,530.82 219.55,524 236.86,511.4 C254.35,498.98 269.91,480.74 283.2,458.45 C299.82,430.32 312.23,395.41 319.23,356.42 C292.47,404.28 240.63,436.8 180.65,436.8z "/><path id="_R_G_L_0_G_L_2_G_D_5_P_0" fill="#191513" fill-opacity="1" fill-rule="nonzero" d=" M233.04 438.11 C223.27,441.38 217.8,448.82 221.64,459.69 C224.23,467.09 232.01,471.62 241.58,468.45 C244.92,467.29 248.56,465.28 249.73,461.51 C249.73,461.51 249.92,461.61 249.92,461.61 C253.13,470.94 249.92,474.76 246.06,476.69 C242.24,478.49 238.73,477.57 236.45,474.89 C236.45,474.89 236.42,474.85 236.42,474.85 C236.42,474.85 229.99,479.18 229.99,479.18 C233.72,484.62 240.7,486.28 248.41,483.69 C257.43,480.68 264.59,472.08 258.57,455.01 C256.4,448.76 250.32,432.34 233.04,438.11z  M241.23 460.8 C237.5,462.02 232.49,462.04 230.16,455.43 C227.95,449.12 232.95,446.13 235.46,445.36 C240.55,443.68 244.06,445.93 245.86,450.92 C247.7,456.2 244.65,459.63 241.23,460.8z "/><path id="_R_G_L_0_G_L_2_G_D_6_P_0" fill="#191513" fill-opacity="1" fill-rule="nonzero" d=" M183.44 117.94 C193.65,117.94 202.87,113.68 209.24,106.87 C209.24,106.87 201.68,100.13 201.68,100.13 C197.16,104.93 190.67,107.96 183.44,107.96 C169.74,107.96 158.63,97.16 158.63,83.82 C158.63,70.39 169.74,59.57 183.44,59.57 C190.67,59.57 197.16,62.62 201.68,67.41 C201.68,67.41 209.22,60.64 209.22,60.64 C202.81,53.86 193.65,49.59 183.44,49.59 C164.09,49.59 148.4,64.9 148.4,83.82 C148.4,102.64 164.09,117.94 183.44,117.94z "/><path id="_R_G_L_0_G_L_2_G_D_7_P_0" fill="#191513" fill-opacity="1" fill-rule="nonzero" d=" M231.66 90.3 C231.66,90.3 239.14,128.42 239.14,128.42 C240.92,129.16 242.66,129.85 244.43,130.66 C244.43,130.66 255.04,105.27 255.04,105.27 C255.04,105.27 266.15,142.01 266.15,142.01 C270.49,144.74 274.76,147.75 278.82,150.91 C278.82,150.91 259.54,87.44 259.54,87.44 C259.54,87.44 253.53,82.81 253.53,82.81 C253.53,82.81 244.83,103.74 244.83,103.74 C244.83,103.74 237.6,70.24 237.6,70.24 C237.6,70.24 229.24,64.81 229.24,64.81 C229.24,64.81 211.78,120.59 211.78,120.59 C215.05,121.22 218.29,121.93 221.51,122.76 C221.51,122.76 231.66,90.3 231.66,90.3z "/><path id="_R_G_L_0_G_L_2_G_D_8_P_0" fill="#191513" fill-opacity="1" fill-rule="nonzero" d=" M105.66 122.02 C105.66,122.02 136.1,110.23 136.1,110.23 C136.1,110.23 139.97,122.75 139.97,122.75 C143.12,121.92 146.36,121.22 149.6,120.59 C149.6,120.59 132.38,64.81 132.38,64.81 C132.38,64.81 119.78,72.7 119.78,72.7 C119.78,72.7 80.08,152.85 80.08,152.85 C85.07,148.83 90.38,145.09 95.85,141.64 C95.85,141.64 105.66,122.02 105.66,122.02z  M126.65 79.79 C126.65,79.79 133.2,100.91 133.2,100.91 C133.2,100.91 112.09,109.08 112.09,109.08 C112.09,109.08 126.65,79.79 126.65,79.79z "/><path id="_R_G_L_0_G_L_2_G_D_9_P_0" fill="#191513" fill-opacity="1" fill-rule="nonzero" d=" M193.71 445.64 C183.44,446.51 176.28,452.39 177.25,463.85 C177.94,471.55 184.34,477.88 194.42,477.02 C197.97,476.76 201.95,475.66 204.06,472.35 C204.06,472.35 204.21,472.45 204.21,472.45 C204.96,482.27 200.85,485.23 196.66,486.07 C192.51,486.99 189.35,485.29 187.82,482.13 C187.82,482.13 187.82,482.06 187.82,482.06 C187.82,482.06 180.5,484.77 180.5,484.77 C182.71,490.8 189.12,494.08 197.21,493.45 C206.67,492.68 215.78,486.07 214.25,468.09 C213.74,461.49 211.94,444.19 193.71,445.64z  M196.02 469.51 C192.07,469.86 187.19,468.74 186.58,461.74 C186.05,455.02 191.63,453.39 194.31,453.22 C199.6,452.78 202.5,455.76 202.96,461.08 C203.44,466.65 199.6,469.27 196.02,469.51z "/><path id="_R_G_L_0_G_L_2_G_D_10_P_0" fill="#191513" fill-opacity="1" fill-rule="nonzero" d=" M154.41 443.96 C145.33,442.36 137.38,445.93 135.99,453.88 C135.2,458.15 136.85,461.45 140.63,464.02 C132.15,465.87 131.06,472.04 130.64,474.36 C129.48,480.72 132.71,489.29 146.09,491.66 C159.83,493.99 165.69,485.56 166.78,479.71 C167.83,473.71 165.59,470.31 161,467.19 C165.53,466.03 167.96,462.88 168.68,458.89 C169.81,452.47 165.13,445.82 154.41,443.96z  M156.63 478.38 C156.05,481.59 152.81,485.29 147.48,484.32 C142.81,483.53 139.69,479.98 140.51,475.45 C141.4,470.47 146.13,469.05 149.87,469.76 C155.57,470.65 157.25,475.1 156.63,478.38z  M159.09 458.24 C158.48,461.53 155.36,463.54 151.32,462.85 C146.91,462.04 144.8,458.6 145.27,455.91 C145.89,452.45 149.14,450.58 153.75,451.35 C157.02,451.94 159.72,454.69 159.09,458.24z "/><path id="_R_G_L_0_G_L_2_G_D_11_P_0" fill="#191513" fill-opacity="1" fill-rule="nonzero" d=" M105.02 439.42 C105.02,439.42 103.63,438.95 103.63,438.95 C103.63,438.95 101.64,444.48 101.64,444.48 C101.64,444.48 101.71,444.5 101.71,444.5 C101.71,444.5 100.73,447.18 100.73,447.18 C100.73,447.18 102.64,447.87 102.64,447.87 C107.68,449.63 111.12,449.63 113.42,448.7 C113.42,448.7 103.04,478.38 103.04,478.38 C103.04,478.38 112.94,481.65 112.94,481.65 C112.94,481.65 128.22,438.05 128.22,438.05 C128.22,438.05 119.23,435 119.23,435 C118.53,437.02 112.52,441.87 105.02,439.42z "/><path id="_R_G_L_0_G_L_2_G_D_12_P_0" fill="#ffffff" fill-opacity="1" fill-rule="nonzero" d=" M279.19 304.98 C279.19,304.98 279.19,390.31 279.19,390.31 C304.02,368.67 321.34,338.7 326.59,304.98 C326.59,304.98 279.19,304.98 279.19,304.98z "/><path id="_R_G_L_0_G_L_2_G_D_13_P_0" fill="#ffffff" fill-opacity="1" fill-rule="nonzero" d=" M188.79 426.59 C201.03,425.9 212.91,423.69 224.1,420.45 C224.1,420.45 224.1,304.98 224.1,304.98 C224.1,304.98 188.79,304.98 188.79,304.98 C188.79,304.98 188.79,426.59 188.79,426.59z "/><path id="_R_G_L_0_G_L_2_G_D_14_P_0" fill="#ffffff" fill-opacity="1" fill-rule="nonzero" d=" M325.89 256.43 C319.78,224.65 303.07,196.61 279.19,176.02 C279.19,176.02 279.19,256.43 279.19,256.43 C279.19,256.43 325.89,256.43 325.89,256.43z "/><path id="_R_G_L_0_G_L_2_G_D_15_P_0" fill="#ffffff" fill-opacity="1" fill-rule="nonzero" d=" M188.79 256.43 C188.79,256.43 224.1,256.43 224.1,256.43 C224.1,256.43 224.1,145.72 224.1,145.72 C212.73,142.5 201.03,140.28 188.79,139.6 C188.79,139.6 188.79,256.43 188.79,256.43z "/><path id="_R_G_L_0_G_L_2_G_D_16_P_0" fill="#ffffff" fill-opacity="1" fill-rule="nonzero" d=" M279.19 175.87 C279.19,175.87 279.02,175.87 279.02,175.87 C279.08,175.92 279.13,175.97 279.19,176.02 C279.19,176.02 279.19,175.87 279.19,175.87z "/><path id="_R_G_L_0_G_L_2_G_D_17_P_0" fill="#f62711" fill-opacity="1" fill-rule="nonzero" d=" M50.97 352.14 C50.97,352.14 50.97,214.01 50.97,214.01 C39.61,234.64 32.97,258.14 32.97,283.17 C32.97,308.04 39.61,331.54 50.97,352.14z "/><path id="_R_G_L_0_G_L_2_G_D_18_P_0" fill="#f62711" fill-opacity="1" fill-rule="nonzero" d=" M231.81 148.28 C231.81,148.28 231.81,264.09 231.81,264.09 C231.81,264.09 188.77,264.09 188.77,264.09 C188.77,264.09 188.77,297.31 188.77,297.31 C188.77,297.31 231.81,297.49 231.81,297.49 C231.81,297.49 231.81,417.9 231.81,417.9 C246.12,412.8 259.43,405.45 271.33,396.44 C271.33,396.44 271.33,297.49 271.33,297.49 C271.33,297.49 327.8,297.49 327.8,297.49 C328.33,292.7 328.5,287.95 328.5,283.17 C328.5,276.71 327.97,270.23 327.1,264.09 C327.1,264.09 271.33,264.09 271.33,264.09 C271.33,264.09 271.33,169.73 271.33,169.73 C259.43,160.71 246.12,153.39 231.81,148.28z "/><path id="_R_G_L_0_G_L_2_G_D_19_P_0" fill="#f62711" fill-opacity="1" fill-rule="nonzero" d=" M133.69 419.43 C142.61,422.33 151.71,424.37 161.32,425.73 C161.32,425.73 161.32,140.44 161.32,140.44 C151.71,141.63 142.61,143.86 133.69,146.76 C133.69,146.76 133.69,419.43 133.69,419.43z "/><path id="_R_G_L_0_G_L_2_G_D_20_P_0" fill="#f62711" fill-opacity="1" fill-rule="nonzero" d=" M78.61 386.89 C87.01,394.73 96.1,401.36 106.06,407.18 C106.06,407.18 106.06,159.01 106.06,159.01 C96.1,164.63 87.01,171.43 78.61,179.28 C78.61,179.28 78.61,386.89 78.61,386.89z "/></g></g><g id="_R_G_L_0_G_L_1_G_M"><g id="_R_G_L_0_G_L_1_G" transform=" translate(700.46, 160) scale(2.3, 2.3) translate(-297.524, -97.822)"><path id="_R_G_L_0_G_L_1_G_D_0_P_0" fill="#ec250a" fill-opacity="1" fill-rule="nonzero" d=" M360.27 46.77 C360.27,46.77 251.43,79.35 251.43,79.35 C241.82,82.14 234.74,88.47 234.75,98.18 C234.77,107.3 241.2,114.17 249.82,116.68 C249.82,116.68 249.82,116.68 249.83,116.68 C251.39,117.14 360.3,148.87 360.3,148.87 C360.3,148.87 360.27,46.77 360.27,46.77z "/><path id="_R_G_L_0_G_L_1_G_D_1_P_0" fill="#ffffff" fill-opacity="1" fill-rule="nonzero" d=" M272.08 91.53 C271.73,93.2 270.52,94.28 267.46,94.28 C267.46,94.28 264.32,94.28 264.32,94.28 C264.32,94.28 265.51,88.78 265.51,88.78 C265.51,88.78 268.6,88.78 268.6,88.78 C271.91,88.78 272.46,89.75 272.08,91.53z  M270.86 101.76 C270.41,103.85 268.88,104.79 265.23,104.79 C265.23,104.79 262.1,104.79 262.1,104.79 C262.1,104.79 263.38,98.74 263.38,98.74 C263.38,98.74 266.52,98.74 266.52,98.74 C270.17,98.74 271.28,99.67 270.86,101.76z  M324.87 84.12 C320.06,84.12 318.87,87.55 318.87,87.55 C318.87,87.55 313.7,99.81 313.7,99.81 C313.7,99.81 313.59,99.81 313.59,99.81 C313.59,99.81 312.27,84.12 312.27,84.12 C312.27,84.12 304.14,84.12 304.14,84.12 C300.24,84.12 298.67,87.67 298.67,87.67 C298.67,87.67 292.47,99.81 292.47,99.81 C292.47,99.81 292.37,99.81 292.37,99.81 C292.37,99.81 292.34,84.12 292.34,84.12 C292.34,84.12 286.82,84.12 286.82,84.12 C283.17,84.12 282.38,86.09 282.22,87.21 C281.16,85.19 278.25,84.12 273.06,84.12 C273.06,84.12 259.97,84.12 259.97,84.12 C255.73,84.12 255.35,87.28 255.35,87.28 C255.35,87.28 250.58,109.24 250.58,109.24 C250.58,109.24 269.09,109.24 269.09,109.24 C274.52,109.24 276.26,108.69 278.21,107.29 C279.53,106.35 280.6,104.72 281.02,102.77 C281.93,98.46 278.87,96.75 275.39,96.54 C275.39,96.54 275.39,96.47 275.39,96.47 C278.56,95.74 281.26,94.34 282.27,91.52 C282.27,91.52 282.67,109.24 282.67,109.24 C282.67,109.24 291.51,109.24 291.51,109.24 C296.57,109.24 298.44,104.63 298.44,104.63 C298.44,104.63 303.85,93.97 303.85,93.97 C303.85,93.97 303.96,93.97 303.96,93.97 C303.96,93.97 305.21,109.24 305.21,109.24 C305.21,109.24 313.1,109.24 313.1,109.24 C318.82,109.24 320.76,104.28 320.76,104.28 C320.76,104.28 327.71,88.79 327.71,88.79 C327.71,88.79 323.37,109.24 323.37,109.24 C323.37,109.24 328.09,109.24 328.09,109.24 C334.18,109.24 334.99,104.38 334.99,104.38 C334.99,104.38 335.94,99.92 335.94,99.92 C335.94,99.92 342.71,99.92 342.71,99.92 C347.92,99.92 348.67,95.95 348.67,95.95 C348.67,95.95 348.95,94.63 348.95,94.63 C348.95,94.63 337.05,94.63 337.05,94.63 C337.05,94.63 338.16,89.41 338.16,89.41 C338.16,89.41 345.64,89.41 345.64,89.41 C350.75,89.41 351.48,85.63 351.48,85.63 C351.48,85.63 351.8,84.12 351.8,84.12 C351.8,84.12 324.87,84.12 324.87,84.12z "/></g></g><g id="_R_G_L_0_G_L_0_G_M"><g id="_R_G_L_0_G_L_0_G" transform=" translate(580.193, 156.094) scale(2.16, 2.16) translate(-500, -160)"><path id="_R_G_L_0_G_L_0_G_D_0_P_0" fill="#ffffff" fill-opacity="1" fill-rule="nonzero" d=" M543.89 194.5 C543.89,194.5 573.02,194.5 573.02,194.5 C573.02,194.5 527.79,217.5 527.79,217.5 C527.79,217.5 518.08,205.11 518.08,205.11 C515.13,201.66 513.99,198.21 513.99,194.5 C513.99,191.31 515.04,187.86 517.57,184.53 C517.57,184.53 575.2,102.5 575.2,102.5 C575.2,102.5 608.54,102.5 608.54,102.5 C608.54,102.5 543.89,194.5 543.89,194.5z  M488.31 147.73 C488.31,147.73 519.61,102.5 519.61,102.5 C519.61,102.5 549.9,102.5 549.9,102.5 C549.9,102.5 510.92,157.96 510.92,157.96 C510.92,157.96 536.22,157.96 536.22,157.96 C536.22,157.96 496.87,178.02 496.87,178.02 C496.87,178.02 488.95,167.92 488.95,167.92 C485.85,164.22 484.86,161.41 484.86,157.57 C484.86,154.12 485.92,150.8 488.31,147.73z "/></g></g></g></g><g id="time_group"/></svg>