<svg xmlns="http://www.w3.org/2000/svg" xmlns:xlink="http://www.w3.org/1999/xlink" preserveAspectRatio="xMidYMid meet" width="200" height="48" viewBox="0 0 200 48" style="width:100%;height:100%"><defs><animate repeatCount="indefinite" dur="13s" begin="0s" xlink:href="#_R_G_L_0_G_L_2_G" fill="freeze" attributeName="opacity" from="0" to="0" keyTimes="0;0.3846154;0.4615385;0.6923077;0.7692308;1" values="0;0;1;1;0;0" keySplines="0.167 0.167 0.833 0.833;0.167 0.167 0.833 0.833;0.167 0.167 0.833 0.833;0.167 0.167 0.833 0.833;0 0 0 0" calcMode="spline"/><animate repeatCount="indefinite" dur="13s" begin="0s" xlink:href="#_R_G_L_0_G_L_2_G_M" fill="freeze" attributeName="opacity" from="0" to="0" keyTimes="0;0.3846154;0.3846157;0.7692308;0.7692308;1" values="0;0;1;1;0;0" keySplines="0 0 0 0;0 0 0 0;0 0 0 0;0 0 0 0;0 0 0 0" calcMode="spline"/><animate repeatCount="indefinite" dur="13s" begin="0s" xlink:href="#_R_G_L_0_G_L_1_G" fill="freeze" attributeName="opacity" from="0" to="0" keyTimes="0;0.0769231;0.3076923;0.3846154;0.7692308;0.8461538;0.9230769;0.9999985;1" values="0;1;1;0;0;1;1;0;0" keySplines="0.167 0.167 0.833 0.833;0.167 0.167 0.833 0.833;0.167 0.167 0.833 0.833;0.167 0.167 0.833 0.833;0.167 0.167 0.833 0.833;0.167 0.167 0.833 0.833;0.167 0.167 0.833 0.833;0 0 0 0" calcMode="spline"/><animate repeatCount="indefinite" dur="13s" begin="0s" xlink:href="#_R_G_L_0_G_L_1_G_M" fill="freeze" attributeName="opacity" from="0" to="1" keyTimes="0;0.7692308;0.7692311;1" values="0;0;1;1" keySplines="0 0 0 0;0 0 0 0;0 0 0 0" calcMode="spline"/><animate repeatCount="indefinite" dur="13s" begin="0s" xlink:href="#_R_G_L_0_G_L_0_G" fill="freeze" attributeName="opacity" from="0" to="0" keyTimes="0;0.0769231;0.3076923;0.3846154;1" values="0;1;1;0;0" keySplines="0.167 0.167 0.833 0.833;0.167 0.167 0.833 0.833;0.167 0.167 0.833 0.833;0 0 0 0" calcMode="spline"/><animate attributeType="XML" attributeName="opacity" dur="13s" from="0" to="1" xlink:href="#time_group"/></defs><g id="_R_G"><g id="_R_G_L_0_G" transform=" translate(96.143, 24) scale(0.1, 0.1) translate(-1050, -240)"><g id="_R_G_L_0_G_L_4_G" transform=" translate(460.851, 240.715) scale(3.62, 3.62) translate(-140.814, -57.151)"><path id="_R_G_L_0_G_L_4_G_D_0_P_0" fill="#ffffff" fill-opacity="1" fill-rule="nonzero" d=" M173.86 38.21 C183.33,36.8 185.41,31.88 185.41,23.46 C185.41,23.46 185.41,14.59 185.41,14.59 C185.41,5.27 177.95,0.58 162.98,0.58 C148,0.58 140.54,5.27 140.54,14.59 C140.54,14.59 140.54,25.05 140.54,25.05 C140.54,32.39 142.17,36.24 150.81,37.7 C142.17,39.63 140.54,44.99 140.54,52.85 C140.54,52.85 140.54,64.32 140.54,64.32 C140.54,73.76 148,78.45 162.98,78.45 C177.95,78.45 185.41,73.76 185.41,64.32 C185.41,64.32 185.41,52.96 185.41,52.96 C185.41,44.32 183.33,39.4 173.86,38.21z  M162.86 33.3 C159.56,33.3 157.93,31.71 157.93,28.61 C157.93,28.61 157.93,13.69 157.93,13.69 C157.93,10.63 159.56,9.16 162.86,9.16 C166.23,9.16 167.91,10.69 167.91,13.69 C167.91,13.69 167.91,28.61 167.91,28.61 C167.91,31.71 166.23,33.3 162.86,33.3z  M162.86 69.41 C159.56,69.41 157.93,67.83 157.93,64.72 C157.93,64.72 157.93,47.82 157.93,47.82 C157.93,44.6 159.56,43.02 162.86,43.02 C166.23,43.02 167.91,44.6 167.91,47.82 C167.91,47.82 167.91,64.72 167.91,64.72 C167.91,67.83 166.23,69.41 162.86,69.41z "/><path id="_R_G_L_0_G_L_4_G_D_1_P_0" fill="#ffffff" fill-opacity="1" fill-rule="nonzero" d=" M225.31 38.21 C234.79,36.8 236.87,31.88 236.87,23.46 C236.87,23.46 236.87,14.59 236.87,14.59 C236.87,5.27 229.4,0.58 214.42,0.58 C199.43,0.58 191.96,5.27 191.96,14.59 C191.96,14.59 191.96,25.05 191.96,25.05 C191.96,32.39 193.59,36.24 202.24,37.7 C193.59,39.63 191.96,44.99 191.96,52.85 C191.96,52.85 191.96,64.32 191.96,64.32 C191.96,73.76 199.43,78.45 214.42,78.45 C229.4,78.45 236.87,73.76 236.87,64.32 C236.87,64.32 236.87,52.96 236.87,52.96 C236.87,44.32 234.79,39.4 225.31,38.21z  M214.31 33.3 C210.99,33.3 209.37,31.71 209.37,28.61 C209.37,28.61 209.37,13.69 209.37,13.69 C209.37,10.63 210.99,9.16 214.31,9.16 C217.67,9.16 219.36,10.69 219.36,13.69 C219.36,13.69 219.36,28.61 219.36,28.61 C219.41,31.71 217.73,33.3 214.31,33.3z  M214.31 69.41 C210.99,69.41 209.37,67.83 209.37,64.72 C209.37,64.72 209.37,47.82 209.37,47.82 C209.37,44.6 210.99,43.02 214.31,43.02 C217.67,43.02 219.36,44.6 219.36,47.82 C219.36,47.82 219.36,64.72 219.36,64.72 C219.41,67.83 217.73,69.41 214.31,69.41z "/><path id="_R_G_L_0_G_L_4_G_D_2_P_0" fill="#ffffff" fill-opacity="1" fill-rule="nonzero" d=" M79.52 113.11 C79.52,113.11 79.52,111.66 79.52,111.66 C76.3,111.32 76.09,111.03 76.01,107.22 C76.01,107.22 75.64,91.72 75.64,91.72 C75.55,88.28 75.72,87.95 79.02,87.62 C79.02,87.62 79.02,86.17 79.02,86.17 C79.02,86.17 70.72,86.17 70.72,86.17 C70.72,86.17 62.63,104.32 62.63,104.32 C62.63,104.32 54.66,86.17 54.66,86.17 C54.66,86.17 46.12,86.17 46.12,86.17 C46.12,86.17 46.12,87.62 46.12,87.62 C49.67,87.95 49.96,88.53 49.63,93.26 C49.63,93.26 48.97,101.42 48.97,101.42 C48.68,105.77 48.35,107.93 48.1,109.25 C47.85,110.7 47.07,111.45 44.75,111.66 C44.75,111.66 44.75,113.11 44.75,113.11 C44.75,113.11 54.66,113.11 54.66,113.11 C54.66,113.11 54.66,111.66 54.66,111.66 C51.94,111.41 51.11,111.03 50.95,109.17 C50.78,107.88 50.78,105.94 50.95,102.5 C50.95,102.5 51.44,91.68 51.44,91.68 C51.44,91.68 51.61,91.68 51.61,91.68 C51.61,91.68 60.03,112.82 60.03,112.82 C60.03,112.82 61.19,112.82 61.19,112.82 C61.19,112.82 70.31,91.27 70.31,91.27 C70.31,91.27 70.52,91.27 70.52,91.27 C70.52,91.27 70.6,107.22 70.6,107.22 C70.64,111.03 70.39,111.32 67.3,111.66 C67.3,111.66 67.3,113.11 67.3,113.11 C67.3,113.11 79.52,113.11 79.52,113.11z "/><path id="_R_G_L_0_G_L_4_G_D_3_P_0" fill="#ffffff" fill-opacity="1" fill-rule="nonzero" d=" M109.03 113.11 C109.03,113.11 109.03,111.66 109.03,111.66 C106.42,111.32 105.89,110.79 104.48,107.14 C101.8,100.01 99.24,92.8 96.6,85.55 C96.6,85.55 94.49,86.09 94.49,86.09 C94.49,86.09 86.03,107.39 86.03,107.39 C84.67,110.87 84.17,111.32 81.45,111.66 C81.45,111.66 81.4,113.11 81.4,113.11 C81.4,113.11 90.65,113.11 90.65,113.11 C90.65,113.11 90.65,111.66 90.65,111.66 C87.64,111.28 87.56,110.7 88.13,108.71 C88.63,107.06 89.17,105.56 89.62,104.28 C89.62,104.28 97.55,104.28 97.55,104.28 C98.17,105.98 98.79,107.72 99.2,108.96 C99.86,110.79 99.65,111.28 97.22,111.66 C97.22,111.66 97.22,113.11 97.22,113.11 C97.22,113.11 109.03,113.11 109.03,113.11z  M96.76 102.08 C96.76,102.08 90.32,102.08 90.32,102.08 C91.4,99.14 92.43,96.16 93.58,93.13 C93.58,93.13 93.71,93.13 93.71,93.13 C93.71,93.13 96.76,102.08 96.76,102.08z "/><path id="_R_G_L_0_G_L_4_G_D_4_P_0" fill="#ffffff" fill-opacity="1" fill-rule="nonzero" d=" M139.7 86.17 C139.7,86.17 129.63,86.17 129.63,86.17 C129.63,86.17 129.63,87.62 129.63,87.62 C132.65,87.79 133.51,88.49 133.72,90.27 C133.8,91.48 134.05,93.42 134.05,97.07 C134.05,97.07 134.05,104.36 134.05,104.36 C134.05,104.36 133.88,104.36 133.88,104.36 C133.88,104.36 118.11,86.17 118.11,86.17 C118.11,86.17 110.47,86.17 110.47,86.17 C110.47,86.17 110.47,87.62 110.47,87.62 C112.21,87.79 113.16,88.12 113.9,89.11 C114.68,90.07 114.77,90.85 114.77,93.55 C114.77,93.55 114.77,102.21 114.77,102.21 C114.77,105.85 114.52,107.68 114.35,109.05 C114.19,110.83 113.24,111.49 110.93,111.66 C110.93,111.66 110.93,113.11 110.93,113.11 C110.93,113.11 121.04,113.11 121.04,113.11 C121.04,113.11 121.04,111.66 121.04,111.66 C117.99,111.53 117.29,110.74 117.08,108.92 C116.96,107.68 116.75,105.85 116.75,102.21 C116.75,102.21 116.75,92.88 116.75,92.88 C116.75,92.88 116.87,92.88 116.87,92.88 C116.87,92.88 134.05,113.52 134.05,113.52 C134.05,113.52 136.03,113.52 136.03,113.52 C136.03,113.52 136.03,97.07 136.03,97.07 C136.03,93.42 136.28,91.48 136.4,90.19 C136.61,88.28 137.47,87.74 139.7,87.62 C139.7,87.62 139.7,86.17 139.7,86.17z "/><path id="_R_G_L_0_G_L_4_G_D_5_P_0" fill="#ffffff" fill-opacity="1" fill-rule="nonzero" d=" M158.62 92.59 C158.29,90.03 158,88.2 157.84,86.67 C157.1,86.38 154.74,85.55 152.1,85.55 C146.24,85.55 142.64,89.11 142.64,93.67 C142.64,97.65 145.58,99.89 149.83,102.04 C152.92,103.7 154.74,105.23 154.74,107.68 C154.74,110.29 153.13,112.03 150.61,112.03 C146.65,112.03 144.21,107.39 143.39,104.74 C143.39,104.74 141.94,105.19 141.94,105.19 C142.23,107.72 142.77,111.2 143.14,112.24 C143.72,112.48 144.5,112.82 145.66,113.15 C146.9,113.52 148.34,113.73 149.83,113.73 C155.86,113.73 159.86,110.04 159.86,105.32 C159.86,101.21 156.89,98.89 152.55,96.78 C148.92,94.96 147.43,93.63 147.43,91.35 C147.43,88.99 149.13,87.25 151.44,87.25 C154.82,87.25 156.35,90.31 157.22,92.93 C157.22,92.93 158.62,92.59 158.62,92.59z "/><path id="_R_G_L_0_G_L_4_G_D_6_P_0" fill="#ffffff" fill-opacity="1" fill-rule="nonzero" d=" M174.65 113.11 C174.65,113.11 174.65,111.66 174.65,111.66 C171.59,111.37 171.22,111.08 171.22,107.59 C171.22,107.59 171.22,91.72 171.22,91.72 C171.22,88.2 171.59,87.91 174.65,87.62 C174.65,87.62 174.65,86.17 174.65,86.17 C174.65,86.17 162.26,86.17 162.26,86.17 C162.26,86.17 162.26,87.62 162.26,87.62 C165.32,87.91 165.69,88.2 165.69,91.72 C165.69,91.72 165.69,107.59 165.69,107.59 C165.69,111.08 165.32,111.37 162.26,111.66 C162.26,111.66 162.26,113.11 162.26,113.11 C162.26,113.11 174.65,113.11 174.65,113.11z "/><path id="_R_G_L_0_G_L_4_G_D_7_P_0" fill="#ffffff" fill-opacity="1" fill-rule="nonzero" d=" M192.12 85.55 C182.67,85.55 177.63,92.55 177.63,99.68 C177.63,107.64 183.37,113.73 191.63,113.73 C199.39,113.73 205.79,108.3 205.79,99.35 C205.79,91.14 199.64,85.55 192.12,85.55z  M191.38 87.29 C196.13,87.29 199.47,92.26 199.47,100.51 C199.47,108.13 196.29,111.99 192.37,111.99 C187.08,111.99 183.95,105.98 183.95,98.89 C183.95,91.72 187.21,87.29 191.38,87.29z "/><path id="_R_G_L_0_G_L_4_G_D_8_P_0" fill="#ffffff" fill-opacity="1" fill-rule="nonzero" d=" M236.87 86.17 C236.87,86.17 226.8,86.17 226.8,86.17 C226.8,86.17 226.8,87.62 226.8,87.62 C229.81,87.79 230.68,88.49 230.89,90.27 C230.97,91.48 231.22,93.42 231.22,97.07 C231.22,97.07 231.22,104.36 231.22,104.36 C231.22,104.36 231.05,104.36 231.05,104.36 C231.05,104.36 215.28,86.17 215.28,86.17 C215.28,86.17 207.64,86.17 207.64,86.17 C207.64,86.17 207.64,87.62 207.64,87.62 C209.38,87.79 210.33,88.12 211.07,89.11 C211.85,90.07 211.94,90.85 211.94,93.55 C211.94,93.55 211.94,102.21 211.94,102.21 C211.94,105.85 211.69,107.68 211.52,109.05 C211.36,110.83 210.41,111.49 208.1,111.66 C208.1,111.66 208.1,113.11 208.1,113.11 C208.1,113.11 218.21,113.11 218.21,113.11 C218.21,113.11 218.21,111.66 218.21,111.66 C215.16,111.53 214.45,110.74 214.25,108.92 C214.12,107.68 213.92,105.85 213.92,102.21 C213.92,102.21 213.92,92.88 213.92,92.88 C213.92,92.88 214.04,92.88 214.04,92.88 C214.04,92.88 231.22,113.52 231.22,113.52 C231.22,113.52 233.2,113.52 233.2,113.52 C233.2,113.52 233.2,97.07 233.2,97.07 C233.2,93.42 233.45,91.48 233.57,90.19 C233.78,88.28 234.65,87.74 236.87,87.62 C236.87,87.62 236.87,86.17 236.87,86.17z "/><path id="_R_G_L_0_G_L_4_G_D_9_P_0" fill="#d4b965" fill-opacity="1" fill-rule="nonzero" d=" M45.96 1.7 C45.96,1.08 46.46,0.57 47.08,0.57 C47.08,0.57 132.87,0.57 132.87,0.57 C133.48,0.57 133.99,1.08 133.99,1.7 C133.99,1.7 133.99,77.87 133.99,77.87 C133.99,78.49 133.48,79 132.87,79 C132.87,79 47.08,79 47.08,79 C46.46,79 45.96,78.49 45.96,77.87 C45.96,77.87 45.96,1.7 45.96,1.7z "/><path id="_R_G_L_0_G_L_4_G_D_10_P_0" fill="#bc2126" fill-opacity="1" fill-rule="nonzero" d=" M50.3 6.06 C50.3,5.44 50.81,4.93 51.43,4.93 C51.43,4.93 128.52,4.93 128.52,4.93 C129.14,4.93 129.64,5.44 129.64,6.06 C129.64,6.06 129.64,73.52 129.64,73.52 C129.64,74.14 129.14,74.64 128.52,74.64 C128.52,74.64 51.43,74.64 51.43,74.64 C50.81,74.64 50.3,74.14 50.3,73.52 C50.3,73.52 50.3,6.06 50.3,6.06z "/><path id="_R_G_L_0_G_L_4_G_D_11_P_0" fill="#ffffff" fill-opacity="1" fill-rule="nonzero" d=" M79.97 39.48 C79.97,39.48 79.97,64.18 79.97,64.18 C79.97,64.72 79.83,65.06 79.35,65.06 C78.87,65.06 78.67,64.72 78.67,64.18 C78.67,64.18 78.67,60.92 78.67,60.92 C78.67,60.92 77.44,60.92 77.44,60.92 C76.57,60.92 73.73,63.1 71.93,64.49 C71.93,64.49 71.93,64.49 71.93,64.49 C71.36,64.93 70.88,65.29 70.62,65.47 C68.64,64.32 66.18,63.17 64.33,62.55 C64,62.86 63.7,63.14 63.43,63.39 C63.43,63.39 63.43,63.39 63.43,63.39 C63.43,63.39 63.43,63.39 63.43,63.39 C63.43,63.39 63.43,63.39 63.43,63.39 C62.85,63.92 62.4,64.34 62.09,64.66 C61.97,64.78 61.87,64.88 61.78,64.97 C61.51,65.26 61.36,65.41 61.21,65.41 C60.87,65.41 60.45,65.01 60.45,64.66 C60.45,64.32 61.21,63.51 64.69,59.95 C67.07,57.51 68.03,54.59 68.03,50.1 C68.03,42.68 64.83,36.34 61.14,36.34 C59.92,36.34 59.3,36.82 59.1,38.05 C59.04,38.67 58.76,38.87 58.48,38.87 C57.94,38.87 57.66,37.98 57.66,36.48 C57.66,33.08 60.05,30.36 62.99,30.36 C64.35,30.36 65.28,30.96 66.08,31.48 C66.76,31.92 67.34,32.3 68.03,32.21 C68.03,32.21 68.03,27.24 68.03,27.24 C68.03,25.95 67.55,24.86 66.59,24.04 C65.77,23.36 61.55,20.5 59.97,20.5 C59.67,20.5 59.45,20.57 59.25,20.62 C59.1,20.66 58.96,20.7 58.81,20.7 C58.61,20.7 58.53,20.64 58.53,20.5 C58.53,20.33 58.64,20.2 58.94,19.84 C58.94,19.84 58.94,19.84 58.94,19.84 C58.98,19.79 59.02,19.74 59.07,19.69 C59.07,19.69 64.46,14.38 64.46,14.38 C64.51,14.35 64.55,14.31 64.59,14.28 C64.78,14.14 64.91,14.04 65.14,14.04 C66.23,14.04 69.25,16.09 71.71,17.76 C73.42,18.92 74.87,19.9 75.23,19.9 C75.88,19.9 77.82,18.7 79.92,17.4 C82.39,15.86 85.09,14.18 86.16,14.18 C86.67,14.18 87.19,14.6 90.69,17.42 C90.69,17.42 90.71,17.43 90.71,17.43 C90.93,17.61 91.16,17.8 91.41,18 C91.58,18.13 91.79,18.31 92.03,18.51 C92.03,18.51 92.03,18.51 92.03,18.51 C92.76,19.12 93.76,19.95 94.69,20.52 C95.79,21.2 95.85,21.33 95.85,22.63 C96.53,22.49 97.29,21.95 101.58,18.47 C102.8,17.46 106.42,14.52 106.7,14.52 C107.04,14.52 110.04,15.75 114.49,17.58 C115.79,18.12 115.99,18.26 115.99,19.07 C115.99,19.07 115.99,54.26 115.99,54.26 C115.99,55.42 116.13,55.83 116.61,56.23 C118.65,58 119.89,58.68 120.57,58.68 C120.77,58.68 121.05,58.6 121.25,58.4 C121.59,57.92 121.67,57.86 121.87,57.86 C122.07,57.86 122.29,58.14 122.29,58.4 C122.29,58.82 119.22,62.61 116.08,65.08 C114.18,64.4 110.9,62.15 109.05,60.25 C108.43,59.57 108.31,59.43 108.31,58.28 C108.31,58.28 108.31,33.08 108.31,33.08 C108.31,30.16 109.25,28.18 112.68,23.63 C114.46,21.32 114.58,20.63 114.24,20.63 C114.07,20.63 112.53,21.69 111.13,22.65 C110.19,23.3 109.31,23.91 108.98,24.1 C108.83,24.02 108.68,23.93 108.54,23.85 C105.2,21.94 104.11,21.32 102.21,21.32 C101.13,21.32 100.37,21.86 100.37,22.55 C100.37,22.55 100.37,64.4 100.37,64.4 C100.37,64.94 100.09,65.35 99.69,65.35 C99.35,65.35 99.15,65.01 99.15,64.48 C99.15,64.48 99.15,61.34 99.15,61.34 C97.22,61.65 95.54,63.21 94.41,64.25 C93.82,64.81 93.38,65.21 93.14,65.21 C92.4,65.21 87.95,59.91 87.95,59.49 C87.95,59.49 87.95,39.48 87.95,39.48 C87.95,39.48 79.97,39.48 79.97,39.48z  M78.73 22.13 C78.73,20.76 78.59,20.3 78.33,20.3 C77.72,20.3 75.52,21.67 75.52,22.13 C75.52,22.13 75.52,40.97 75.52,40.97 C75.52,50.12 74.48,51.21 72.12,53.69 C72.07,53.73 72.03,53.78 71.98,53.83 C70.88,54.99 70.62,55.26 69.8,56.22 C71.24,58.19 76,59.08 78.74,58.94 C78.74,58.94 78.74,22.13 78.74,22.13 C78.74,22.13 78.73,22.13 78.73,22.13z  M87.95 33.02 C87.95,33.02 87.95,25.53 87.95,25.53 C87.95,24.1 82.83,20.23 81.13,20.23 C80.37,20.23 79.97,20.7 79.97,21.6 C79.97,21.6 79.97,33.02 79.97,33.02 C79.97,33.02 87.95,33.02 87.95,33.02z  M99.15 23.35 C99.15,23.21 99.08,23.15 98.87,23.15 C98.67,23.15 98.33,23.29 98.11,23.43 C98.11,23.43 96.55,24.38 96.55,24.38 C95.66,24.92 95.38,25.19 95.38,25.61 C95.38,25.61 95.38,32.41 95.38,32.41 C95.38,32.88 96,33.22 96.48,33.22 C96.48,33.22 99.15,33.22 99.15,33.22 C99.15,33.22 99.15,23.35 99.15,23.35z  M96.55 39.34 C95.8,39.34 95.45,39.9 95.45,40.91 C95.45,40.91 95.45,54.86 95.45,54.86 C95.45,57.59 96.61,58.88 99.13,59.08 C99.13,59.08 99.13,39.34 99.13,39.34 C99.13,39.34 96.55,39.34 96.55,39.34z "/></g><g id="_R_G_L_0_G_L_3_G" transform=" translate(555.124, 239.368) scale(2.74725, 2.74725) translate(-183.865, -74.861)"><path id="_R_G_L_0_G_L_3_G_D_0_P_0" fill="#ffffff" fill-opacity="1" fill-rule="nonzero" d=" M322.98 149.15 C322.98,149.15 319.98,149.15 319.98,149.15 C319.98,149.15 319.98,0.71 319.98,0.71 C319.98,0.71 322.98,0.71 322.98,0.71 C322.98,0.71 322.98,149.15 322.98,149.15z "/></g><g id="_R_G_L_0_G_L_2_G_M"><g id="_R_G_L_0_G_L_2_G" transform=" translate(1189.208, 240) scale(0.73, 0.73) translate(-181, -283)"><path id="_R_G_L_0_G_L_2_G_D_0_P_0" fill="#191513" fill-opacity="1" fill-rule="nonzero" d=" M308.82 83.46 C276.31,32.18 231.19,0.35 180.65,0 C79.56,0.52 0,127.58 0,283.08 C0,360.74 19.93,431.43 52.46,482.69 C84.99,533.96 130.1,565.81 180.65,566 C231.19,565.81 276.31,533.96 308.82,482.69 C341.36,431.43 361.29,360.74 361.29,283.08 C361.29,205.4 341.36,134.72 308.82,83.46z "/><path id="_R_G_L_0_G_L_2_G_D_1_P_0" fill="#f62711" fill-opacity="1" fill-rule="nonzero" d=" M341.63 174.85 C332.7,141.46 319.76,111.48 303.84,86.46 C287.76,61.4 268.87,41.14 248.06,27.17 C227.25,13.39 204.61,5.72 180.65,5.72 C156.69,5.72 134.04,13.39 113.23,27.17 C92.42,41.14 73.54,61.4 57.45,86.46 C41.53,111.48 28.59,141.46 19.67,174.85 C10.75,208.06 5.85,244.68 5.85,283.17 C5.85,359.82 25.63,429.48 57.45,479.55 C73.54,504.6 92.42,524.85 113.23,538.82 C134.04,552.63 156.69,560.28 180.65,560.28 C204.61,560.28 227.25,552.63 248.06,538.82 C268.87,524.85 287.76,504.6 303.84,479.55 C335.67,429.48 355.44,359.82 355.44,283.17 C355.44,244.68 350.54,208.06 341.63,174.85z "/><path id="_R_G_L_0_G_L_2_G_D_2_P_0" fill="#191513" fill-opacity="1" fill-rule="nonzero" d=" M180.65 544.45 C91.28,543.92 21.42,426.42 21.42,283.17 C21.42,139.76 91.28,22.23 180.65,21.73 C270.01,22.23 339.87,139.76 339.87,283.17 C339.87,426.42 270.01,543.92 180.65,544.45z "/><path id="_R_G_L_0_G_L_2_G_D_3_P_0" fill="#ffffff" fill-opacity="1" fill-rule="nonzero" d=" M180.65 129.37 C240.63,129.37 292.64,161.91 319.41,209.76 C312.23,170.78 299.82,135.84 283.2,107.57 C256.8,62.77 220.52,35.55 180.65,35.37 C140.77,35.55 104.49,62.77 78.1,107.57 C61.47,135.84 49.06,170.78 41.89,209.76 C68.65,161.91 120.66,129.37 180.65,129.37z "/><path id="_R_G_L_0_G_L_2_G_D_4_P_0" fill="#ffffff" fill-opacity="1" fill-rule="nonzero" d=" M180.65 436.8 C120.66,436.8 68.82,404.28 42.07,356.42 C49.06,395.41 61.47,430.32 78.1,458.45 C91.38,480.74 106.94,498.98 124.43,511.4 C141.74,524 160.72,530.82 180.65,530.82 C200.58,530.82 219.55,524 236.86,511.4 C254.35,498.98 269.91,480.74 283.2,458.45 C299.82,430.32 312.23,395.41 319.23,356.42 C292.47,404.28 240.63,436.8 180.65,436.8z "/><path id="_R_G_L_0_G_L_2_G_D_5_P_0" fill="#191513" fill-opacity="1" fill-rule="nonzero" d=" M233.04 438.11 C223.27,441.38 217.8,448.82 221.64,459.69 C224.23,467.09 232.01,471.62 241.58,468.45 C244.92,467.29 248.56,465.28 249.73,461.51 C249.73,461.51 249.92,461.61 249.92,461.61 C253.13,470.94 249.92,474.76 246.06,476.69 C242.24,478.49 238.73,477.57 236.45,474.89 C236.45,474.89 236.42,474.85 236.42,474.85 C236.42,474.85 229.99,479.18 229.99,479.18 C233.72,484.62 240.7,486.28 248.41,483.69 C257.43,480.68 264.59,472.08 258.57,455.01 C256.4,448.76 250.32,432.34 233.04,438.11z  M241.23 460.8 C237.5,462.02 232.49,462.04 230.16,455.43 C227.95,449.12 232.95,446.13 235.46,445.36 C240.55,443.68 244.06,445.93 245.86,450.92 C247.7,456.2 244.65,459.63 241.23,460.8z "/><path id="_R_G_L_0_G_L_2_G_D_6_P_0" fill="#191513" fill-opacity="1" fill-rule="nonzero" d=" M183.44 117.94 C193.65,117.94 202.87,113.68 209.24,106.87 C209.24,106.87 201.68,100.13 201.68,100.13 C197.16,104.93 190.67,107.96 183.44,107.96 C169.74,107.96 158.63,97.16 158.63,83.82 C158.63,70.39 169.74,59.57 183.44,59.57 C190.67,59.57 197.16,62.62 201.68,67.41 C201.68,67.41 209.22,60.64 209.22,60.64 C202.81,53.86 193.65,49.59 183.44,49.59 C164.09,49.59 148.4,64.9 148.4,83.82 C148.4,102.64 164.09,117.94 183.44,117.94z "/><path id="_R_G_L_0_G_L_2_G_D_7_P_0" fill="#191513" fill-opacity="1" fill-rule="nonzero" d=" M231.66 90.3 C231.66,90.3 239.14,128.42 239.14,128.42 C240.92,129.16 242.66,129.85 244.43,130.66 C244.43,130.66 255.04,105.27 255.04,105.27 C255.04,105.27 266.15,142.01 266.15,142.01 C270.49,144.74 274.76,147.75 278.82,150.91 C278.82,150.91 259.54,87.44 259.54,87.44 C259.54,87.44 253.53,82.81 253.53,82.81 C253.53,82.81 244.83,103.74 244.83,103.74 C244.83,103.74 237.6,70.24 237.6,70.24 C237.6,70.24 229.24,64.81 229.24,64.81 C229.24,64.81 211.78,120.59 211.78,120.59 C215.05,121.22 218.29,121.93 221.51,122.76 C221.51,122.76 231.66,90.3 231.66,90.3z "/><path id="_R_G_L_0_G_L_2_G_D_8_P_0" fill="#191513" fill-opacity="1" fill-rule="nonzero" d=" M105.66 122.02 C105.66,122.02 136.1,110.23 136.1,110.23 C136.1,110.23 139.97,122.75 139.97,122.75 C143.12,121.92 146.36,121.22 149.6,120.59 C149.6,120.59 132.38,64.81 132.38,64.81 C132.38,64.81 119.78,72.7 119.78,72.7 C119.78,72.7 80.08,152.85 80.08,152.85 C85.07,148.83 90.38,145.09 95.85,141.64 C95.85,141.64 105.66,122.02 105.66,122.02z  M126.65 79.79 C126.65,79.79 133.2,100.91 133.2,100.91 C133.2,100.91 112.09,109.08 112.09,109.08 C112.09,109.08 126.65,79.79 126.65,79.79z "/><path id="_R_G_L_0_G_L_2_G_D_9_P_0" fill="#191513" fill-opacity="1" fill-rule="nonzero" d=" M193.71 445.64 C183.44,446.51 176.28,452.39 177.25,463.85 C177.94,471.55 184.34,477.88 194.42,477.02 C197.97,476.76 201.95,475.66 204.06,472.35 C204.06,472.35 204.21,472.45 204.21,472.45 C204.96,482.27 200.85,485.23 196.66,486.07 C192.51,486.99 189.35,485.29 187.82,482.13 C187.82,482.13 187.82,482.06 187.82,482.06 C187.82,482.06 180.5,484.77 180.5,484.77 C182.71,490.8 189.12,494.08 197.21,493.45 C206.67,492.68 215.78,486.07 214.25,468.09 C213.74,461.49 211.94,444.19 193.71,445.64z  M196.02 469.51 C192.07,469.86 187.19,468.74 186.58,461.74 C186.05,455.02 191.63,453.39 194.31,453.22 C199.6,452.78 202.5,455.76 202.96,461.08 C203.44,466.65 199.6,469.27 196.02,469.51z "/><path id="_R_G_L_0_G_L_2_G_D_10_P_0" fill="#191513" fill-opacity="1" fill-rule="nonzero" d=" M154.41 443.96 C145.33,442.36 137.38,445.93 135.99,453.88 C135.2,458.15 136.85,461.45 140.63,464.02 C132.15,465.87 131.06,472.04 130.64,474.36 C129.48,480.72 132.71,489.29 146.09,491.66 C159.83,493.99 165.69,485.56 166.78,479.71 C167.83,473.71 165.59,470.31 161,467.19 C165.53,466.03 167.96,462.88 168.68,458.89 C169.81,452.47 165.13,445.82 154.41,443.96z  M156.63 478.38 C156.05,481.59 152.81,485.29 147.48,484.32 C142.81,483.53 139.69,479.98 140.51,475.45 C141.4,470.47 146.13,469.05 149.87,469.76 C155.57,470.65 157.25,475.1 156.63,478.38z  M159.09 458.24 C158.48,461.53 155.36,463.54 151.32,462.85 C146.91,462.04 144.8,458.6 145.27,455.91 C145.89,452.45 149.14,450.58 153.75,451.35 C157.02,451.94 159.72,454.69 159.09,458.24z "/><path id="_R_G_L_0_G_L_2_G_D_11_P_0" fill="#191513" fill-opacity="1" fill-rule="nonzero" d=" M105.02 439.42 C105.02,439.42 103.63,438.95 103.63,438.95 C103.63,438.95 101.64,444.48 101.64,444.48 C101.64,444.48 101.71,444.5 101.71,444.5 C101.71,444.5 100.73,447.18 100.73,447.18 C100.73,447.18 102.64,447.87 102.64,447.87 C107.68,449.63 111.12,449.63 113.42,448.7 C113.42,448.7 103.04,478.38 103.04,478.38 C103.04,478.38 112.94,481.65 112.94,481.65 C112.94,481.65 128.22,438.05 128.22,438.05 C128.22,438.05 119.23,435 119.23,435 C118.53,437.02 112.52,441.87 105.02,439.42z "/><path id="_R_G_L_0_G_L_2_G_D_12_P_0" fill="#ffffff" fill-opacity="1" fill-rule="nonzero" d=" M279.19 304.98 C279.19,304.98 279.19,390.31 279.19,390.31 C304.02,368.67 321.34,338.7 326.59,304.98 C326.59,304.98 279.19,304.98 279.19,304.98z "/><path id="_R_G_L_0_G_L_2_G_D_13_P_0" fill="#ffffff" fill-opacity="1" fill-rule="nonzero" d=" M188.79 426.59 C201.03,425.9 212.91,423.69 224.1,420.45 C224.1,420.45 224.1,304.98 224.1,304.98 C224.1,304.98 188.79,304.98 188.79,304.98 C188.79,304.98 188.79,426.59 188.79,426.59z "/><path id="_R_G_L_0_G_L_2_G_D_14_P_0" fill="#ffffff" fill-opacity="1" fill-rule="nonzero" d=" M325.89 256.43 C319.78,224.65 303.07,196.61 279.19,176.02 C279.19,176.02 279.19,256.43 279.19,256.43 C279.19,256.43 325.89,256.43 325.89,256.43z "/><path id="_R_G_L_0_G_L_2_G_D_15_P_0" fill="#ffffff" fill-opacity="1" fill-rule="nonzero" d=" M188.79 256.43 C188.79,256.43 224.1,256.43 224.1,256.43 C224.1,256.43 224.1,145.72 224.1,145.72 C212.73,142.5 201.03,140.28 188.79,139.6 C188.79,139.6 188.79,256.43 188.79,256.43z "/><path id="_R_G_L_0_G_L_2_G_D_16_P_0" fill="#ffffff" fill-opacity="1" fill-rule="nonzero" d=" M279.19 175.87 C279.19,175.87 279.02,175.87 279.02,175.87 C279.08,175.92 279.13,175.97 279.19,176.02 C279.19,176.02 279.19,175.87 279.19,175.87z "/><path id="_R_G_L_0_G_L_2_G_D_17_P_0" fill="#f62711" fill-opacity="1" fill-rule="nonzero" d=" M50.97 352.14 C50.97,352.14 50.97,214.01 50.97,214.01 C39.61,234.64 32.97,258.14 32.97,283.17 C32.97,308.04 39.61,331.54 50.97,352.14z "/><path id="_R_G_L_0_G_L_2_G_D_18_P_0" fill="#f62711" fill-opacity="1" fill-rule="nonzero" d=" M231.81 148.28 C231.81,148.28 231.81,264.09 231.81,264.09 C231.81,264.09 188.77,264.09 188.77,264.09 C188.77,264.09 188.77,297.31 188.77,297.31 C188.77,297.31 231.81,297.49 231.81,297.49 C231.81,297.49 231.81,417.9 231.81,417.9 C246.12,412.8 259.43,405.45 271.33,396.44 C271.33,396.44 271.33,297.49 271.33,297.49 C271.33,297.49 327.8,297.49 327.8,297.49 C328.33,292.7 328.5,287.95 328.5,283.17 C328.5,276.71 327.97,270.23 327.1,264.09 C327.1,264.09 271.33,264.09 271.33,264.09 C271.33,264.09 271.33,169.73 271.33,169.73 C259.43,160.71 246.12,153.39 231.81,148.28z "/><path id="_R_G_L_0_G_L_2_G_D_19_P_0" fill="#f62711" fill-opacity="1" fill-rule="nonzero" d=" M133.69 419.43 C142.61,422.33 151.71,424.37 161.32,425.73 C161.32,425.73 161.32,140.44 161.32,140.44 C151.71,141.63 142.61,143.86 133.69,146.76 C133.69,146.76 133.69,419.43 133.69,419.43z "/><path id="_R_G_L_0_G_L_2_G_D_20_P_0" fill="#f62711" fill-opacity="1" fill-rule="nonzero" d=" M78.61 386.89 C87.01,394.73 96.1,401.36 106.06,407.18 C106.06,407.18 106.06,159.01 106.06,159.01 C96.1,164.63 87.01,171.43 78.61,179.28 C78.61,179.28 78.61,386.89 78.61,386.89z "/></g></g><g id="_R_G_L_0_G_L_1_G_M"><g id="_R_G_L_0_G_L_1_G" transform=" translate(1309.001, 240) scale(4, 4) translate(-353.162, -104.453)"><path id="_R_G_L_0_G_L_1_G_D_0_P_0" fill="#ec250a" fill-opacity="1" fill-rule="nonzero" d=" M415.91 53.4 C415.91,53.4 307.07,85.98 307.07,85.98 C297.46,88.77 290.37,95.11 290.39,104.81 C290.41,113.93 296.84,120.8 305.46,123.31 C305.46,123.31 305.46,123.31 305.47,123.32 C307.03,123.77 415.94,155.5 415.94,155.5 C415.94,155.5 415.91,53.4 415.91,53.4z "/><path id="_R_G_L_0_G_L_1_G_D_1_P_0" fill="#ffffff" fill-opacity="1" fill-rule="nonzero" d=" M327.72 98.16 C327.37,99.83 326.15,100.91 323.09,100.91 C323.09,100.91 319.96,100.91 319.96,100.91 C319.96,100.91 321.15,95.41 321.15,95.41 C321.15,95.41 324.24,95.41 324.24,95.41 C327.55,95.41 328.1,96.38 327.72,98.16z  M326.5 108.39 C326.05,110.48 324.52,111.42 320.87,111.42 C320.87,111.42 317.73,111.42 317.73,111.42 C317.73,111.42 319.02,105.37 319.02,105.37 C319.02,105.37 322.16,105.37 322.16,105.37 C325.81,105.37 326.92,106.3 326.5,108.39z  M380.51 90.75 C375.7,90.75 374.51,94.18 374.51,94.18 C374.51,94.18 369.34,106.44 369.34,106.44 C369.34,106.44 369.23,106.44 369.23,106.44 C369.23,106.44 367.91,90.75 367.91,90.75 C367.91,90.75 359.78,90.75 359.78,90.75 C355.88,90.75 354.3,94.3 354.3,94.3 C354.3,94.3 348.11,106.44 348.11,106.44 C348.11,106.44 348.01,106.44 348.01,106.44 C348.01,106.44 347.98,90.75 347.98,90.75 C347.98,90.75 342.46,90.75 342.46,90.75 C338.81,90.75 338.01,92.72 337.85,93.84 C336.8,91.82 333.89,90.75 328.69,90.75 C328.69,90.75 315.61,90.75 315.61,90.75 C311.37,90.75 310.99,93.91 310.99,93.91 C310.99,93.91 306.22,115.87 306.22,115.87 C306.22,115.87 324.73,115.87 324.73,115.87 C330.16,115.87 331.89,115.32 333.85,113.92 C335.17,112.98 336.24,111.35 336.66,109.4 C337.57,105.09 334.5,103.38 331.02,103.17 C331.02,103.17 331.02,103.1 331.02,103.1 C334.2,102.37 336.9,100.98 337.91,98.15 C337.91,98.15 338.3,115.87 338.3,115.87 C338.3,115.87 347.14,115.87 347.14,115.87 C352.21,115.87 354.08,111.26 354.08,111.26 C354.08,111.26 359.49,100.6 359.49,100.6 C359.49,100.6 359.6,100.6 359.6,100.6 C359.6,100.6 360.85,115.87 360.85,115.87 C360.85,115.87 368.74,115.87 368.74,115.87 C374.45,115.87 376.4,110.91 376.4,110.91 C376.4,110.91 383.35,95.42 383.35,95.42 C383.35,95.42 379.01,115.87 379.01,115.87 C379.01,115.87 383.73,115.87 383.73,115.87 C389.82,115.87 390.63,111.01 390.63,111.01 C390.63,111.01 391.58,106.55 391.58,106.55 C391.58,106.55 398.35,106.55 398.35,106.55 C403.56,106.55 404.31,102.58 404.31,102.58 C404.31,102.58 404.59,101.26 404.59,101.26 C404.59,101.26 392.69,101.26 392.69,101.26 C392.69,101.26 393.8,96.04 393.8,96.04 C393.8,96.04 401.28,96.04 401.28,96.04 C406.39,96.04 407.12,92.26 407.12,92.26 C407.12,92.26 407.44,90.75 407.44,90.75 C407.44,90.75 380.51,90.75 380.51,90.75z "/></g></g><g id="_R_G_L_0_G_L_0_G" transform=" translate(1108, 240.25) scale(3.27, 3.27) translate(-1050, -240)"><path id="_R_G_L_0_G_L_0_G_D_0_P_0" fill="#ffffff" fill-opacity="1" fill-rule="nonzero" d=" M1311.18 250.76 C1311.18,250.76 1303.46,219.46 1303.46,219.46 C1303.46,219.46 1301.89,219.46 1301.89,219.46 C1301.89,219.46 1294.16,250.76 1294.16,250.76 C1294.16,250.76 1311.18,250.76 1311.18,250.76z  M1276.07 263.09 C1276.07,263.09 1291.91,205.76 1291.91,205.76 C1291.91,205.76 1308.74,205.76 1308.74,205.76 C1311.87,205.76 1313.83,207.23 1314.71,210.36 C1314.71,210.36 1329.28,263.09 1329.28,263.09 C1329.97,265.43 1330.06,267 1330.06,270.03 C1330.06,270.03 1330.06,274.24 1330.06,274.24 C1330.06,274.24 1317.05,274.24 1317.05,274.24 C1317.05,274.24 1311.87,253.4 1311.87,253.4 C1311.87,253.4 1290.84,264.16 1290.84,264.16 C1290.84,264.16 1288.29,274.24 1288.29,274.24 C1288.29,274.24 1275.28,274.24 1275.28,274.24 C1275.28,274.24 1275.28,270.03 1275.28,270.03 C1275.28,267 1275.38,265.43 1276.07,263.09z  M1219.44 252.5 C1219.44,252.5 1219.44,227.5 1219.44,227.5 C1219.44,212.92 1227.36,205 1241.94,205 C1241.94,205 1248.36,205 1248.36,205 C1262.74,205 1270.86,212.34 1270.86,225.35 C1270.86,225.35 1256.19,225.35 1256.19,225.35 C1256.19,225.35 1256.19,222.61 1256.19,222.61 C1256.19,220.07 1254.82,218.7 1252.27,218.7 C1252.27,218.7 1238.02,218.7 1238.02,218.7 C1235.48,218.7 1234.11,220.07 1234.11,222.61 C1234.11,222.61 1234.11,257.39 1234.11,257.39 C1234.11,259.94 1235.48,261.31 1238.02,261.31 C1238.02,261.31 1252.27,261.31 1252.27,261.31 C1254.82,261.31 1256.19,259.94 1256.19,257.39 C1256.19,257.39 1256.19,248.78 1256.19,248.78 C1256.19,248.78 1246.01,248.78 1246.01,248.78 C1246.01,248.78 1246.01,235.09 1246.01,235.09 C1246.01,235.09 1262.35,235.09 1262.35,235.09 C1262.35,235.09 1268.12,242.23 1268.12,242.23 C1270.08,244.68 1270.86,246.93 1270.86,250.06 C1270.86,250.06 1270.86,252.5 1270.86,252.5 C1270.86,267.08 1262.94,275 1248.36,275 C1248.36,275 1241.94,275 1241.94,275 C1227.36,275 1219.44,267.08 1219.44,252.5z  M1194.79 205.76 C1194.79,205.76 1209.46,205.76 1209.46,205.76 C1209.46,205.76 1209.46,274.24 1209.46,274.24 C1209.46,274.24 1194.79,274.24 1194.79,274.24 C1194.79,274.24 1194.79,205.76 1194.79,205.76z  M1145.87 259.27 C1145.87,259.27 1145.87,205.76 1145.87,205.76 C1145.87,205.76 1160.55,205.76 1160.55,205.76 C1160.55,205.76 1160.55,260.54 1160.55,260.54 C1160.55,260.54 1186.47,260.54 1186.47,260.54 C1186.47,260.54 1186.47,274.24 1186.47,274.24 C1186.47,274.24 1154.39,274.24 1154.39,274.24 C1154.39,274.24 1148.61,267.1 1148.61,267.1 C1146.66,264.55 1145.87,262.21 1145.87,259.27z  M1120.34 250.76 C1120.34,250.76 1112.61,219.46 1112.61,219.46 C1112.61,219.46 1111.05,219.46 1111.05,219.46 C1111.05,219.46 1103.32,250.76 1103.32,250.76 C1103.32,250.76 1120.34,250.76 1120.34,250.76z  M1085.22 263.09 C1085.22,263.09 1101.07,205.76 1101.07,205.76 C1101.07,205.76 1117.9,205.76 1117.9,205.76 C1121.03,205.76 1122.98,207.23 1123.86,210.36 C1123.86,210.36 1138.44,263.09 1138.44,263.09 C1139.12,265.43 1139.22,267 1139.22,270.03 C1139.22,270.03 1139.22,274.24 1139.22,274.24 C1139.22,274.24 1126.21,274.24 1126.21,274.24 C1126.21,274.24 1121.03,253.4 1121.03,253.4 C1121.03,253.4 1099.99,264.16 1099.99,264.16 C1099.99,264.16 1097.45,274.24 1097.45,274.24 C1097.45,274.24 1084.44,274.24 1084.44,274.24 C1084.44,274.24 1084.44,270.03 1084.44,270.03 C1084.44,267 1084.54,265.43 1085.22,263.09z  M1036.7 259.27 C1036.7,259.27 1036.7,205.76 1036.7,205.76 C1036.7,205.76 1051.38,205.76 1051.38,205.76 C1051.38,205.76 1051.38,260.54 1051.38,260.54 C1051.38,260.54 1077.3,260.54 1077.3,260.54 C1077.3,260.54 1077.3,274.24 1077.3,274.24 C1077.3,274.24 1045.21,274.24 1045.21,274.24 C1045.21,274.24 1039.44,267.1 1039.44,267.1 C1037.49,264.55 1036.7,262.21 1036.7,259.27z "/></g></g></g><g id="time_group"/></svg>