<?xml version="1.0" encoding="utf-8"?>
<!-- Generator: Adobe Illustrator 26.1.0, SVG Export Plug-In . SVG Version: 6.00 Build 0)  -->
<svg version="1.1" id="Layer_1" xmlns="http://www.w3.org/2000/svg" xmlns:xlink="http://www.w3.org/1999/xlink" x="0px" y="0px"
	 viewBox="0 0 24 24" style="enable-background:new 0 0 24 24;" xml:space="preserve">
<style type="text/css">
	.st0{fill:#B0026E;}
</style>
<path class="st0" d="M16.9,7.9c-0.9,0-1.7-0.8-1.7-1.7c0-1,0.7-1.7,1.7-1.7c0.9,0,1.7,0.8,1.7,1.7C18.7,7.1,17.9,7.9,16.9,7.9z"/>
<path class="st0" d="M16.9,17.1c-0.9,0-1.7-0.8-1.7-1.7c0-1,0.7-1.8,1.7-1.8c0.9,0,1.7,0.7,1.7,1.7C18.7,16.3,17.9,17.1,16.9,17.1z"
	/>
<g>
	<path class="st0" d="M15.3,21c-0.1,0-0.2,0-0.2,0.1C15,21.2,15,21.3,15,21.4c0,0.1,0,0.3,0.1,0.3c0.1,0.1,0.1,0.1,0.2,0.1
		c0.1,0,0.2,0,0.2-0.1c0.1-0.1,0.1-0.2,0.1-0.3c0-0.1,0-0.3-0.1-0.3C15.5,21,15.4,21,15.3,21z"/>
	<path class="st0" d="M21.7,0H1.7C0.7,0,0,0.7,0,1.7v20.7C0,23.3,0.7,24,1.7,24h20.1c0.9,0,1.7-0.7,1.7-1.7V1.7
		C23.4,0.7,22.6,0,21.7,0z M4.5,22.1H4.2v-0.8c0-0.1,0-0.1-0.1-0.2C4.1,21,4,21,3.9,21c0,0-0.1,0-0.1,0c0,0-0.1,0-0.1,0
		c0,0,0,0,0,0.1c0,0,0,0.1,0,0.1v0.8H3.4v-0.8c0-0.1,0-0.2-0.1-0.2c0,0-0.1-0.1-0.2-0.1c0,0-0.1,0-0.1,0c0,0-0.1,0.1-0.1,0.1v1H2.6
		v-1.3h0.2c0,0,0.1,0,0.1,0.1l0,0.1c0,0,0,0,0.1-0.1c0,0,0.1,0,0.1-0.1c0,0,0.1,0,0.1,0c0,0,0.1,0,0.1,0c0.1,0,0.2,0,0.2,0.1
		c0.1,0,0.1,0.1,0.1,0.2c0,0,0-0.1,0.1-0.1s0.1-0.1,0.1-0.1c0,0,0.1,0,0.1,0c0,0,0.1,0,0.1,0c0.1,0,0.1,0,0.2,0
		c0.1,0,0.1,0.1,0.1,0.1c0,0,0.1,0.1,0.1,0.2c0,0.1,0,0.1,0,0.2V22.1z M6.2,21.7c0,0.1-0.1,0.2-0.1,0.2C6,22,5.9,22,5.8,22.1
		c-0.1,0-0.2,0-0.3,0c-0.1,0-0.2,0-0.3,0c-0.1,0-0.2-0.1-0.2-0.1C5,21.9,5,21.8,5,21.7c0-0.1,0-0.2,0-0.3c0-0.1,0-0.2,0-0.3
		C5,21.1,5,21,5.1,20.9c0.1-0.1,0.1-0.1,0.2-0.1c0.1,0,0.2,0,0.3,0c0.1,0,0.2,0,0.3,0c0.1,0,0.1,0.1,0.2,0.1
		c0.1,0.1,0.1,0.1,0.1,0.2c0,0.1,0,0.2,0,0.3C6.2,21.5,6.2,21.6,6.2,21.7z M7.8,21.7c0,0.1-0.1,0.2-0.1,0.2c0,0.1-0.1,0.1-0.2,0.1
		c-0.1,0-0.1,0.1-0.2,0.1c0,0-0.1,0-0.1,0s-0.1,0-0.1,0c0,0-0.1,0-0.1-0.1c0,0,0,0-0.1-0.1l0,0.1c0,0,0,0,0,0c0,0,0,0-0.1,0H6.7
		v-1.9H7v0.8c0.1-0.1,0.1-0.1,0.2-0.1c0.1,0,0.1,0,0.2,0c0.1,0,0.1,0,0.2,0c0.1,0,0.1,0.1,0.2,0.1c0,0.1,0.1,0.1,0.1,0.2
		c0,0.1,0,0.2,0,0.3C7.9,21.5,7.9,21.6,7.8,21.7z M8.6,22.1H8.3v-1.3h0.3V22.1z M8.7,20.5C8.7,20.5,8.6,20.5,8.7,20.5
		c-0.1,0.1-0.1,0.1-0.1,0.1c0,0-0.1,0-0.1,0c0,0-0.1,0-0.1,0c0,0,0,0-0.1,0c0,0,0,0,0-0.1c0,0,0,0,0-0.1c0,0,0-0.1,0-0.1
		c0,0,0,0,0-0.1c0,0,0,0,0.1,0c0,0,0.1,0,0.1,0c0,0,0.1,0,0.1,0c0,0,0,0,0.1,0c0,0,0,0,0,0.1C8.7,20.3,8.7,20.3,8.7,20.5
		C8.7,20.4,8.7,20.4,8.7,20.5z M9.5,22.1H9.2v-1.9h0.3V22.1z M10.3,21.6c0,0,0,0.1,0.1,0.1c0,0,0.1,0.1,0.1,0.1c0,0,0.1,0,0.1,0
		c0.1,0,0.1,0,0.1,0c0,0,0.1,0,0.1,0c0,0,0.1,0,0.1,0c0,0,0,0,0.1,0c0,0,0,0,0.1,0l0.1,0.1c0,0-0.1,0.1-0.1,0.1c0,0-0.1,0.1-0.1,0.1
		c0,0-0.1,0-0.1,0c0,0-0.1,0-0.1,0c-0.1,0-0.2,0-0.3,0c-0.1,0-0.1-0.1-0.2-0.1c-0.1-0.1-0.1-0.1-0.1-0.2c0-0.1-0.1-0.2-0.1-0.3
		c0-0.1,0-0.2,0-0.3c0-0.1,0.1-0.1,0.1-0.2c0.1-0.1,0.1-0.1,0.2-0.1c0.1,0,0.2-0.1,0.3-0.1c0.1,0,0.2,0,0.2,0c0.1,0,0.1,0.1,0.2,0.1
		c0.1,0.1,0.1,0.1,0.1,0.2c0,0.1,0,0.2,0,0.3c0,0,0,0.1,0,0.1c0,0,0,0-0.1,0h-0.8C10.3,21.5,10.3,21.6,10.3,21.6z M12.2,19.4
		c-0.8,0-1.6,0-2.4,0c0-0.3,0-0.5,0-0.8c0-1.4,0-2.8,0-4.2c0-0.4-0.2-0.6-0.6-0.6c-0.4,0-0.5,0.2-0.6,0.6c0,0.2,0,0.4,0,0.5
		c0,1.3,0,2.5,0,3.8c0,0.2,0,0.5,0,0.8c-0.8,0-1.6,0-2.4,0c0-1.4,0-2.7,0-4.1c0-0.3,0-0.6,0-0.9c0-0.4-0.2-0.6-0.6-0.7
		c-0.4,0-0.6,0.2-0.6,0.7c0,1.4,0,2.8,0,4.1c0,0.3,0,0.5,0,0.8c-0.8,0-1.6,0-2.4,0c0-0.9,0-1.7,0-2.6c0-0.7,0-1.5,0-2.2
		c-0.1-2.4,2.4-3.7,4.3-2.9c0.2,0.1,0.4,0.2,0.6,0.3c0.9-0.5,1.8-0.7,2.8-0.4c1.3,0.4,2.1,1.4,2.1,2.8C12.2,16,12.2,17.7,12.2,19.4z
		 M12.2,10.1c-0.8,0-1.6,0-2.4,0c0-0.5,0-1.1,0-1.6c0-1,0-2,0-3.1c0-0.7-0.1-1-0.6-1c-0.4,0-0.6,0.2-0.6,1c0,1.3,0,2.6,0,3.8
		c0,0.3,0,0.5,0,0.8c-0.8,0-1.6,0-2.4,0c0-0.2,0-0.4,0-0.6c0-1.3,0-2.6,0-3.9c0-0.2,0-0.3,0-0.5c0-0.4-0.2-0.7-0.6-0.7
		c-0.5,0-0.6,0.3-0.6,0.7c0,1.4,0,2.8,0,4.2c0,0.3,0,0.5,0,0.8c-0.8,0-1.6,0-2.4,0c0-0.2,0-0.4,0-0.6c0-1.4,0.1-2.8,0-4.1
		C2.3,3,4.8,1.4,7,2.5c0.1,0.1,0.2,0.1,0.4,0.2C8.2,2.2,9.1,2,10.1,2.3c1.3,0.4,2,1.4,2,2.7C12.2,6.7,12.2,8.4,12.2,10.1z
		 M14.3,22.1h-0.3v-0.8c0-0.1,0-0.1-0.1-0.2c0,0-0.1-0.1-0.2-0.1c0,0-0.1,0-0.1,0c0,0-0.1,0-0.1,0c0,0,0,0,0,0.1c0,0,0,0.1,0,0.1
		v0.8h-0.3v-0.8c0-0.1,0-0.2-0.1-0.2c0,0-0.1-0.1-0.2-0.1c0,0-0.1,0-0.1,0c0,0-0.1,0.1-0.1,0.1v1h-0.3v-1.3h0.2c0,0,0.1,0,0.1,0.1
		l0,0.1c0,0,0,0,0.1-0.1c0,0,0.1,0,0.1-0.1c0,0,0.1,0,0.1,0c0,0,0.1,0,0.1,0c0.1,0,0.2,0,0.2,0.1c0.1,0,0.1,0.1,0.1,0.2
		c0,0,0-0.1,0.1-0.1c0,0,0.1-0.1,0.1-0.1c0,0,0.1,0,0.1,0c0,0,0.1,0,0.1,0c0.1,0,0.1,0,0.2,0c0.1,0,0.1,0.1,0.1,0.1
		c0,0,0.1,0.1,0.1,0.2c0,0.1,0,0.1,0,0.2V22.1z M15.9,21.7c0,0.1-0.1,0.2-0.1,0.2c-0.1,0.1-0.1,0.1-0.2,0.1c-0.1,0-0.2,0-0.3,0
		c-0.1,0-0.2,0-0.3,0c-0.1,0-0.2-0.1-0.2-0.1c-0.1-0.1-0.1-0.1-0.1-0.2c0-0.1,0-0.2,0-0.3c0-0.1,0-0.2,0-0.3c0-0.1,0.1-0.2,0.1-0.2
		c0.1-0.1,0.1-0.1,0.2-0.1c0.1,0,0.2,0,0.3,0c0.1,0,0.2,0,0.3,0c0.1,0,0.1,0.1,0.2,0.1c0.1,0.1,0.1,0.1,0.1,0.2c0,0.1,0,0.2,0,0.3
		C16,21.5,16,21.6,15.9,21.7z M17.6,22.1h-0.3v-0.8c0-0.1,0-0.1-0.1-0.2c0,0-0.1-0.1-0.2-0.1c-0.1,0-0.1,0-0.2,0
		c0,0-0.1,0.1-0.1,0.1v1h-0.3v-1.3h0.2c0,0,0.1,0,0.1,0.1l0,0.1c0,0,0.1-0.1,0.1-0.1c0,0,0.1,0,0.1-0.1c0,0,0.1,0,0.1,0
		c0,0,0.1,0,0.1,0c0.1,0,0.1,0,0.2,0c0.1,0,0.1,0.1,0.1,0.1c0,0,0.1,0.1,0.1,0.2c0,0.1,0,0.1,0,0.2V22.1z M18.4,21.6
		c0,0,0,0.1,0.1,0.1c0,0,0.1,0.1,0.1,0.1c0,0,0.1,0,0.1,0c0.1,0,0.1,0,0.1,0c0,0,0.1,0,0.1,0c0,0,0.1,0,0.1,0c0,0,0,0,0.1,0
		c0,0,0,0,0.1,0l0.1,0.1c0,0-0.1,0.1-0.1,0.1c0,0-0.1,0.1-0.1,0.1c0,0-0.1,0-0.1,0c0,0-0.1,0-0.1,0c-0.1,0-0.2,0-0.3,0
		c-0.1,0-0.1-0.1-0.2-0.1c-0.1-0.1-0.1-0.1-0.1-0.2c0-0.1-0.1-0.2-0.1-0.3c0-0.1,0-0.2,0-0.3c0-0.1,0.1-0.1,0.1-0.2
		c0.1-0.1,0.1-0.1,0.2-0.1c0.1,0,0.2-0.1,0.3-0.1c0.1,0,0.2,0,0.2,0c0.1,0,0.1,0.1,0.2,0.1c0.1,0.1,0.1,0.1,0.1,0.2
		c0,0.1,0,0.2,0,0.3c0,0,0,0.1,0,0.1c0,0,0,0-0.1,0h-0.8C18.3,21.5,18.3,21.6,18.4,21.6z M20.1,22.4C20.1,22.5,20.1,22.5,20.1,22.4
		C20,22.5,20,22.5,20,22.5h-0.2L20,22l-0.5-1.2h0.3c0,0,0,0,0.1,0c0,0,0,0,0,0l0.3,0.7c0,0,0,0,0,0.1c0,0,0,0,0,0.1c0,0,0,0,0-0.1
		c0,0,0,0,0-0.1l0.3-0.7c0,0,0,0,0,0c0,0,0,0,0.1,0h0.3L20.1,22.4z M16.9,19.4c-2.2,0-4-1.8-4-4c0-2.2,1.8-4,4-4c2.2,0,4,1.8,4,4
		C20.9,17.6,19.2,19.4,16.9,19.4z M17,10.2c-2.2,0-4-1.8-4-4c0-2.2,1.8-4,4-4c2.2,0,4,1.8,4,4C21,8.4,19.2,10.2,17,10.2z"/>
	<path class="st0" d="M10.8,21.1C10.8,21,10.7,21,10.8,21.1C10.7,21,10.6,21,10.6,21c-0.1,0-0.2,0-0.2,0.1c-0.1,0.1-0.1,0.1-0.1,0.2
		h0.6C10.9,21.2,10.8,21.2,10.8,21.1C10.8,21.1,10.8,21.1,10.8,21.1z"/>
	<path class="st0" d="M5.6,21c-0.1,0-0.2,0-0.2,0.1c-0.1,0.1-0.1,0.2-0.1,0.3c0,0.1,0,0.3,0.1,0.3c0.1,0.1,0.1,0.1,0.2,0.1
		c0.1,0,0.2,0,0.2-0.1c0.1-0.1,0.1-0.2,0.1-0.3c0-0.1,0-0.3-0.1-0.3C5.8,21,5.7,21,5.6,21z"/>
	<path class="st0" d="M7.3,21c-0.1,0-0.1,0-0.2,0c0,0-0.1,0.1-0.1,0.1v0.6c0,0,0.1,0.1,0.1,0.1c0,0,0.1,0,0.1,0c0,0,0.1,0,0.1,0
		s0.1,0,0.1-0.1c0,0,0-0.1,0.1-0.1s0-0.1,0-0.2c0-0.1,0-0.3-0.1-0.3C7.4,21,7.4,21,7.3,21z"/>
	<path class="st0" d="M18.9,21.1C18.8,21,18.8,21,18.9,21.1C18.7,21,18.7,21,18.6,21c-0.1,0-0.2,0-0.2,0.1c-0.1,0.1-0.1,0.1-0.1,0.2
		h0.6C18.9,21.2,18.9,21.2,18.9,21.1C18.9,21.1,18.9,21.1,18.9,21.1z"/>
</g>
</svg>
