<svg width="91" height="32" viewBox="0 0 91 32" fill="none" xmlns="http://www.w3.org/2000/svg">
<path d="M47.3961 0H46.4905V32H47.3961V25.8616H59.0691V22.1384H50.1131V17.8113H57.7609V14.088H50.1131V9.96226H59.0691V6.13836H47.3961V0Z" fill="#78BE20"/>
<path d="M11.0692 18.2138L7.84906 12.8805L3.52201 6.239V6.13837H0V25.8616H3.92453V13.7862L6.84277 18.4151L11.4717 25.8616H14.9937V6.13837H11.0692V18.2138Z" fill="#90949C"/>
<path d="M17.2075 25.8616H30.088V22.1384H21.132V17.8113H28.8805V14.0881H21.132V9.96227H30.088V6.13837H17.2075V25.8616Z" fill="#90949C"/>
<path d="M31.6981 9.96227H36.2264V25.8616H40.151V9.96227H44.6793V6.13837H31.6981V9.96227Z" fill="#90949C"/>
<path d="M72.1509 18.2139L68.8301 12.8805L64.6037 6.23901H64.5031H60.9811V25.8617H64.9056V13.7862L67.8238 18.5157L72.4528 25.8617H76.0754V6.23901H72.1509V18.2139Z" fill="#78BE20"/>
<path d="M77.6854 6.23901V9.96228H82.1131V25.8617H86.0376V9.96228H90.5659V6.23901H77.6854Z" fill="#78BE20"/>
</svg>
