<svg width="160" height="56" viewBox="0 0 160 56" fill="none" xmlns="http://www.w3.org/2000/svg">
    <path d="M0 14.757h4.742l11.722 15.956h.072V14.757h4.279v21.659h-4.742L4.389 20.49H4.28v15.926H.001L0 14.757zM25.312 14.757h4.1v3.275h-4.1v-3.275zm0 5.975h4.1v15.684h-4.1V20.732zM33.51 20.732h3.884v2.306l.073.06a6.43 6.43 0 0 1 2.444-2.046 7.434 7.434 0 0 1 3.344-.744 7.805 7.805 0 0 1 4.818 1.325 4.714 4.714 0 0 1 1.762 4.004v10.77h-4.099v-9.859a3.824 3.824 0 0 0-.935-2.684 3.756 3.756 0 0 0-2.697-.835 5.127 5.127 0 0 0-1.87.32 4.048 4.048 0 0 0-2.626 3.805v9.252H33.51V20.732zM56.989 29.47c0 .599.102 1.194.305 1.758.197.555.51 1.062.918 1.488.437.444.964.79 1.546 1.015a5.9 5.9 0 0 0 2.23.378 5.61 5.61 0 0 0 2.892-.65 3.931 3.931 0 0 0 1.638-1.958H70.4a6.041 6.041 0 0 1-1.113 2.272 7.202 7.202 0 0 1-1.897 1.683 8.901 8.901 0 0 1-2.5 1.03c-.945.236-1.918.353-2.892.35a11.438 11.438 0 0 1-3.885-.608 8.195 8.195 0 0 1-2.858-1.704 7.022 7.022 0 0 1-1.762-2.609 9.108 9.108 0 0 1-.594-3.337 8.127 8.127 0 0 1 .63-3.17 7.892 7.892 0 0 1 1.798-2.639 8.582 8.582 0 0 1 2.822-1.804 9.88 9.88 0 0 1 3.74-.668 9.626 9.626 0 0 1 3.936.772 8.43 8.43 0 0 1 2.894 2.05 7.775 7.775 0 0 1 1.674 2.925 7.617 7.617 0 0 1 .27 3.408l-13.674.017zm9.565-2.273a4.852 4.852 0 0 0-.414-1.579 4.164 4.164 0 0 0-.934-1.325 4.634 4.634 0 0 0-1.439-.91 4.94 4.94 0 0 0-1.896-.349c-.667-.009-1.33.1-1.96.32a4.539 4.539 0 0 0-1.517.879 4.328 4.328 0 0 0-1.005 1.325 4.003 4.003 0 0 0-.416 1.64h9.581z" fill="#31313A"/>
    <path d="M73.53 14.757h10.931c.802.007 1.601.078 2.391.212.861.136 1.69.429 2.445.864a5.47 5.47 0 0 1 1.897 1.85c.544.955.807 2.044.759 3.142a5.143 5.143 0 0 1-2.086 4.396A9.876 9.876 0 0 1 83.9 26.77h-8.774v9.655h-1.582l-.014-21.668zm1.582 10.86h9.025a8.621 8.621 0 0 0 2.93-.44 5.414 5.414 0 0 0 1.925-1.135 4.291 4.291 0 0 0 1.042-1.547c.212-.544.321-1.121.324-1.704a5.893 5.893 0 0 0-.216-1.44 4.103 4.103 0 0 0-.863-1.608 5.002 5.002 0 0 0-1.815-1.305 7.618 7.618 0 0 0-3.111-.53h-9.241v9.709zM105.349 33.322h-.071c-.233.492-.549.94-.935 1.325-.44.44-.943.813-1.491 1.108-.629.34-1.3.594-1.995.757-.801.19-1.622.282-2.445.275a8.208 8.208 0 0 1-4.568-1.077 3.715 3.715 0 0 1-1.618-3.323 3.62 3.62 0 0 1 .647-2.23 4.598 4.598 0 0 1 1.637-1.363 7.788 7.788 0 0 1 2.193-.714c.802-.14 1.575-.244 2.319-.303l2.121-.152c.779-.034 1.555-.13 2.32-.287.46-.087.896-.274 1.276-.547.282-.224.473-.541.539-.894a7.28 7.28 0 0 0 .107-1.367 2.513 2.513 0 0 0-.286-1.183 2.792 2.792 0 0 0-.899-.972 4.841 4.841 0 0 0-1.584-.666 9.865 9.865 0 0 0-2.372-.244 7.026 7.026 0 0 0-4.008 1.034 3.856 3.856 0 0 0-1.673 3.123h-1.365a4.776 4.776 0 0 1 1.958-3.87 8.843 8.843 0 0 1 5.16-1.287 8.417 8.417 0 0 1 4.872 1.108 3.417 3.417 0 0 1 1.529 2.897v9.07c0 .223 0 .447.017.666.008.208.051.414.126.608.07.181.196.336.36.441.219.124.468.18.719.165a7.652 7.652 0 0 0 1.006-.09v.97a5.038 5.038 0 0 1-1.115.121 3.84 3.84 0 0 1-1.312-.189 1.708 1.708 0 0 1-.736-.485 1.618 1.618 0 0 1-.341-.713 4.13 4.13 0 0 1-.092-.894v-.818zm0-5.763c-.424.386-.958.63-1.528.697-.753.13-1.513.22-2.276.273l-2.303.189c-.671.058-1.343.146-2.012.255-.63.1-1.241.292-1.815.568-.52.245-.971.616-1.313 1.078a2.895 2.895 0 0 0-.504 1.774 2.835 2.835 0 0 0 1.293 2.565 6.549 6.549 0 0 0 3.56.833 8.07 8.07 0 0 0 3.705-.714 6.245 6.245 0 0 0 2.086-1.637 4.702 4.702 0 0 0 .917-1.79c.098-.383.161-.773.188-1.168l.002-2.923zM108.479 20.825h1.618l6.867 14.226 6.329-14.226h1.545l-7.91 17.26a30.46 30.46 0 0 1-1.061 1.986c-.263.49-.638.91-1.095 1.23a3.737 3.737 0 0 1-1.707.592c-.866.08-1.736.114-2.606.106v-1.002c.772.022 1.543-.041 2.301-.189a3.74 3.74 0 0 0 1.546-.805c.354-.351.635-.769.827-1.228.288-.597.647-1.41 1.079-2.44l-7.733-15.51zM158.069 14h-27.076c-1.144 0-2.097 1-2.097 2.2v11.206c0 1.2.953 2.2 2.097 2.2h26.885c1.144 0 2.098-1 2.098-2.2V16.2c.19-1.2-.763-2.201-1.907-2.201zm-14.682 12.005c-.191.8-.763 1.2-1.716 1.2h-.763c-.953 0-1.525-.6-1.334-1.6v-6.403h-2.67c0 1.8-.19 3.001-.381 3.802-.572 1.8-1.716 3.401-3.432 4.401-.191-.2-.382-.4-.572-.8 1.525-1 2.669-2.4 3.05-4.002.191-.6.382-1.8.382-3.4h-3.242v-1.001h3.242V15.8h.953v2.4h3.432v7.204c0 .6.191.8.572.8h.572c.382 0 .763-.2.763-.8 0-.6.191-1.2.191-2.001.381.4.762.4 1.144.6 0 .6-.191 1.4-.191 2zm4.767 1.6h-.953v-7.002c-.382.8-.763 1.4-1.335 2 0-.6-.191-1-.191-1.2.953-1.4 1.716-3.401 2.479-5.602l.953.4c-.381.8-.572 1.8-.953 2.4v9.005zm1.335-6.402.762-.6c.382.8.954 1.6 1.526 2.8l-.763.601c-.381-1-.953-2-1.525-2.801zm7.054-1.8h-1.525v6.002c0 1.2-.572 1.8-1.525 1.8h-1.716c0-.4-.191-.6-.191-1h1.716c.381 0 .572 0 .763-.2.19-.2.19-.4.19-1v-5.603h-5.148v-1h5.148V15.8h.954v2.6h1.525v1.001h-.191z" fill="#EF3131"/>
</svg>
