<svg width="95" height="26" viewBox="0 0 95 26" fill="none" xmlns="http://www.w3.org/2000/svg">
<path d="M22.6549 21.0008C22.2442 21.0008 21.902 21.1379 21.6967 21.4806C21.4914 21.8234 21.3545 22.2347 21.3545 22.7831C21.3545 23.9484 21.7651 24.4968 22.6549 24.4968C22.9971 24.4968 23.4762 24.4283 23.9553 24.2226V25.1137C23.5447 25.3194 23.134 25.3879 22.5865 25.3879C21.8336 25.3879 21.286 25.1823 20.8754 24.7025C20.4647 24.2226 20.2594 23.6057 20.2594 22.7145C20.2594 22.1661 20.3278 21.6863 20.5331 21.275C20.7385 20.8637 21.0123 20.5895 21.3545 20.3153C21.6967 20.1097 22.1758 19.9726 22.6549 19.9726C23.134 19.9726 23.6816 20.1097 24.1607 20.3153L23.8184 21.2064C23.6131 21.1379 23.4078 21.0008 23.2025 20.9323C23.0656 21.0008 22.8602 21.0008 22.6549 21.0008Z" fill="#999999"/>
<path d="M37.781 25.3194V20.1096H38.8761V25.3194H37.781Z" fill="#999999"/>
<path d="M54.8919 25.3193H53.7968V21.0693H52.3595V20.1782H56.2608V21.0693H54.8235V25.3193H54.8919Z" fill="#999999"/>
<path d="M71.3869 22.2347L72.482 20.1096H73.6455L71.9344 23.2629V25.2508H70.8393V23.3315L69.1283 20.1096H70.2918L71.3869 22.2347Z" fill="#999999"/>
<path d="M73.9193 6.33127C73.5086 6.33127 73.098 6.33127 72.6873 6.33127C72.482 6.33127 72.4135 6.33127 72.4135 6.12562C72.3451 5.64578 72.2767 5.16593 72.0713 4.75464C71.5922 3.7264 70.7709 3.17801 69.6758 3.04091C69.0598 2.97236 68.4438 3.04091 67.8278 3.17801C66.938 3.4522 66.322 4.06915 65.9798 4.89174C65.7745 5.30303 65.7061 5.71432 65.6376 6.12562C65.6376 6.19417 65.6376 6.19417 65.6376 6.26272C65.6376 6.33127 65.5692 6.39982 65.5007 6.39982C65.4323 6.39982 65.3638 6.39982 65.3638 6.39982C64.611 6.39982 63.7896 6.39982 63.0367 6.39982C62.9683 6.39982 62.8999 6.39982 62.8999 6.39982C62.8314 6.39982 62.763 6.33127 62.763 6.26272C62.763 6.12562 62.6945 5.91997 62.6945 5.78287C62.5576 5.23448 62.3523 4.75464 62.0785 4.27479C61.531 3.4522 60.7097 3.04091 59.7514 2.97236C59.3408 2.97236 58.9301 2.97236 58.451 3.04091C57.3559 3.31511 56.6715 3.93205 56.2608 4.96028C56.1239 5.30303 55.987 5.71432 55.987 6.05707C55.987 6.33127 55.987 6.33127 55.7133 6.33127C54.9604 6.33127 54.2075 6.33127 53.5231 6.33127C53.4546 6.33127 53.3177 6.33127 53.2493 6.33127C53.1124 6.33127 53.0439 6.33127 53.1124 6.12562C53.1124 5.98852 53.1808 5.78287 53.1808 5.64578C53.3862 4.54899 53.7284 3.52075 54.3444 2.62962C55.2342 1.25863 56.5346 0.436044 58.1088 0.161848C58.3826 0.0932989 58.8617 0.0247498 59.4092 0.0247498C60.6412 0.0247498 61.7363 0.436044 62.6945 1.19008C63.1736 1.53283 63.5159 1.94412 63.8581 2.42397C63.9265 2.49252 63.995 2.56107 64.0634 2.62962C64.1318 2.69816 64.1318 2.69816 64.2003 2.62962C64.2687 2.56107 64.3372 2.42397 64.4056 2.35542C64.7478 1.87558 65.1585 1.46428 65.6376 1.12154C66.6643 0.436044 67.7594 0.0247498 68.9914 0.0247498C69.7442 0.0247498 70.5656 0.0932988 71.25 0.367495C72.482 0.77879 73.4402 1.53283 74.1246 2.62962C74.6722 3.52075 75.0144 4.48044 75.2197 5.50868C75.2882 5.71432 75.2882 5.91997 75.2882 6.12562C75.2882 6.33127 75.2882 6.33127 75.0829 6.33127C74.8775 6.33127 74.6037 6.33127 74.3984 6.33127C74.2615 6.33127 74.0562 6.33127 73.9193 6.33127Z" fill="#E1DF1B"/>
<path d="M16.3581 7.15381C16.7687 7.15381 17.1794 7.15381 17.6585 7.15381C17.7954 7.15381 17.8638 7.15381 17.8638 7.35946C17.8638 7.56511 17.8638 7.83931 17.8638 8.04495C17.8638 8.59335 17.9323 9.07319 18.1376 9.55303C18.4798 10.4442 19.0274 11.1297 19.8487 11.6095C20.3278 11.8837 20.8754 12.0208 21.4914 12.0894C22.1758 12.1579 22.8602 12.1579 23.5447 11.9523C25.1189 11.541 26.1455 10.5813 26.6246 9.07319C26.6931 8.73044 26.7615 8.45625 26.7615 8.1135C26.7615 7.83931 26.7615 7.56511 26.7615 7.35946C26.7615 7.22236 26.7615 7.22236 26.8984 7.22236C27.7882 7.22236 28.678 7.22236 29.5677 7.22236C29.7046 7.22236 29.7046 7.22236 29.7046 7.35946C29.7046 8.2506 29.7046 9.07319 29.4993 9.89578C29.2255 10.8555 28.8148 11.7466 28.2673 12.5006C27.446 13.5289 26.4193 14.2144 25.1873 14.6257C24.366 14.8999 23.5447 15.037 22.7233 15.037C21.8336 15.037 21.0122 14.9684 20.1225 14.7628C18.0007 14.2144 16.495 12.9119 15.6052 10.924C15.263 10.17 15.0576 9.41594 14.9892 8.59335C14.9207 8.18205 14.9892 7.70221 14.9892 7.22236C14.9892 7.15382 15.0576 7.08527 15.1261 7.08527C15.3314 7.08527 15.5367 7.08527 15.7421 7.08527C15.879 7.15382 16.1527 7.15381 16.3581 7.15381Z" fill="#E1DF1B"/>
<path d="M26.7615 6.33124C26.6931 6.26269 26.6931 6.12559 26.6931 6.05705C26.4193 4.68606 25.6664 3.79492 24.366 3.31508C23.8184 3.10943 23.3393 3.04088 22.7918 2.97234C22.0389 2.97234 21.3545 2.97234 20.6016 3.17798C19.6434 3.45218 18.8905 3.93202 18.4114 4.82316C18.1376 5.23446 18.0007 5.7143 17.9323 6.19414C17.9323 6.33124 17.8638 6.39979 17.7269 6.39979C16.8372 6.39979 16.0158 6.39979 15.1261 6.39979C14.9892 6.39979 14.9207 6.33124 14.9892 6.19414C14.9892 5.9885 15.0576 5.78285 15.1261 5.5772C15.3314 4.54897 15.7421 3.58928 16.3581 2.76669C17.2478 1.60135 18.3429 0.778764 19.7803 0.36747C20.4647 0.161822 21.1491 0.0932734 21.8336 0.0247243C22.7918 -0.0438248 23.75 0.0247243 24.6398 0.298921C25.8718 0.641666 26.9669 1.19006 27.7882 2.14975C28.5411 2.90379 29.0202 3.86347 29.3624 4.89171C29.4993 5.23446 29.5677 5.5772 29.6362 5.91995C29.6362 5.9885 29.6362 6.12559 29.7046 6.19414C29.7046 6.33124 29.7046 6.33124 29.5677 6.33124C29.2255 6.33124 28.8833 6.33124 28.4726 6.33124C27.9935 6.33124 27.5144 6.33124 27.0353 6.33124C26.8984 6.33124 26.83 6.33124 26.7615 6.33124Z" fill="#E1DF1B"/>
<path d="M3.14841 0.0935364C3.96974 0.0935364 4.79107 0.0935364 5.54395 0.0935364C6.0915 0.0935364 6.63905 0.162085 7.11816 0.299184C8.07637 0.57338 8.96614 0.984675 9.71902 1.60162C10.8141 2.49275 11.4986 3.58954 11.7723 5.02907C11.8408 5.30327 11.8408 5.64601 11.9092 5.98876C11.9092 6.05731 11.9092 6.12586 11.9092 6.19441C11.9092 6.40005 11.9092 6.40005 11.7039 6.40005H11.6354C10.8826 6.40005 10.0612 6.40005 9.30836 6.40005C9.23991 6.40005 9.17147 6.40005 9.17147 6.40005C9.10303 6.40005 9.03458 6.3315 9.03458 6.26296C9.03458 6.05731 9.03458 5.78311 8.96614 5.57746C8.89769 5.09762 8.69236 4.61778 8.35014 4.20648C7.87104 3.58954 7.25504 3.2468 6.43372 3.1097C6.22839 2.9726 5.95461 2.9726 5.68084 2.9726C4.85951 2.9726 4.03818 2.9726 3.21686 2.9726C3.14841 2.9726 3.07997 2.9726 3.07997 2.9726C3.01153 2.9726 3.01153 3.04115 3.01153 3.1097C3.01153 3.17825 3.01153 3.31534 3.01153 3.38389C3.01153 4.27503 3.01153 5.16617 3.01153 6.05731C3.01153 6.3315 3.01153 6.3315 2.73775 6.3315C1.98487 6.3315 1.16354 6.3315 0.410663 6.3315C0.342219 6.3315 0.273775 6.3315 0.205331 6.3315C0.0684438 6.3315 0 6.3315 0 6.26296C0 6.19441 0 6.12586 0 5.98876C0 4.13793 0 2.28711 0 0.436282C0 0.0935364 0 0.0935364 0.342219 0.0935364C1.30043 0.0935364 2.1902 0.0935364 3.14841 0.0935364Z" fill="#E1DF1B"/>
<path d="M37.5072 15.037C36.1383 15.037 34.7695 15.037 33.4006 15.037C33.3321 15.037 33.1953 15.037 33.1268 15.037C33.0584 15.037 32.9899 14.9684 32.9899 14.9684C32.9899 14.8999 32.9899 14.8313 32.9899 14.7628C32.9899 12.3636 32.9899 9.96435 32.9899 7.56513C32.9899 7.15384 32.9215 7.15384 33.4006 7.15384C34.1535 7.15384 34.8379 7.15384 35.5908 7.15384C35.6592 7.15384 35.7277 7.15384 35.7961 7.15384C35.8646 7.15384 35.933 7.22239 35.933 7.22239C35.933 7.35949 35.933 7.42804 35.933 7.56513C35.933 8.93612 35.933 10.3071 35.933 11.6781C35.933 12.0894 35.8646 12.0894 36.3437 12.0894C38.1232 12.0894 39.9712 12.0894 41.7507 12.0894C42.1614 12.0894 42.1614 12.0894 42.1614 12.5007C42.1614 13.2547 42.1614 13.9402 42.1614 14.6942C42.1614 14.7628 42.1614 14.8999 42.1614 14.9684C42.1614 15.037 42.0929 15.037 42.0245 15.037C41.9561 15.037 41.8192 15.037 41.7507 15.037C40.245 15.037 38.8761 15.037 37.5072 15.037Z" fill="#E1DF1B"/>
<path d="M90.1405 0.0247498C91.6463 0.0247498 93.152 0.0247498 94.5893 0.0247498C94.6578 0.0247498 94.7947 0.0247498 94.8631 0.0247498C94.9316 0.0247498 95 0.0932989 95 0.0932989C95 0.161848 95 0.230397 95 0.298946C95 1.05299 95 1.87558 95 2.62962C95 2.69816 95 2.76671 95 2.83526C95 2.90381 94.9316 2.90381 94.8631 2.97236C94.7947 2.97236 94.6578 2.97236 94.5893 2.97236C93.6996 2.97236 92.8098 2.97236 91.92 2.97236C91.6463 2.97236 91.6463 2.97236 91.6463 3.24656C91.6463 4.1377 91.6463 5.02883 91.6463 5.91997C91.6463 5.98852 91.6463 6.12562 91.6463 6.19417C91.6463 6.33127 91.6463 6.33127 91.5094 6.33127C90.9618 6.33127 90.4143 6.33127 89.7983 6.33127C89.4561 6.33127 89.1823 6.33127 88.8401 6.33127C88.7716 6.33127 88.7032 6.26272 88.7032 6.19417C88.7032 6.12562 88.7032 5.98852 88.7032 5.91997C88.7032 5.09738 88.7032 4.27479 88.7032 3.4522C88.7032 3.38366 88.7032 3.31511 88.7032 3.24656C88.7032 3.04091 88.7032 3.04091 88.4978 3.04091C87.6081 3.04091 86.6499 3.04091 85.7601 3.04091C85.2125 3.04091 85.281 3.10946 85.281 2.56107C85.281 1.87558 85.281 1.19008 85.281 0.504593C85.281 0.436044 85.281 0.298946 85.281 0.230397C85.281 0.161848 85.3494 0.161848 85.4179 0.0932989C85.4863 0.0932989 85.6232 0.0932989 85.6916 0.0932989C87.1974 0.0247498 88.7032 0.0247498 90.1405 0.0247498Z" fill="#E1DF1B"/>
<path d="M78.9842 11.1297C78.9842 9.89577 78.9842 8.66188 78.9842 7.49655C78.9842 7.22235 78.9842 7.22235 79.2579 7.22235C80.0108 7.22235 80.8321 7.22235 81.585 7.22235C81.6535 7.22235 81.7219 7.22235 81.7219 7.22235C81.7904 7.22235 81.8588 7.2909 81.8588 7.35945C81.8588 7.428 81.8588 7.49655 81.8588 7.5651C81.8588 9.96431 81.8588 12.4321 81.8588 14.8313C81.8588 15.1055 81.8588 15.1055 81.585 15.1055C80.7637 15.1055 79.9424 15.1055 79.1895 15.1055H79.121C78.9842 15.1055 78.9842 15.1055 78.9842 14.9684C78.9842 14.8998 78.9842 14.7628 78.9842 14.6942C78.9842 13.4603 78.9842 12.295 78.9842 11.1297Z" fill="#E1DF1B"/>
<path d="M72.482 11.0611C72.482 9.82727 72.482 8.66193 72.482 7.42805C72.482 7.0853 72.482 7.15385 72.8242 7.15385C73.5771 7.15385 74.33 7.15385 75.0829 7.15385C75.1513 7.15385 75.2197 7.15385 75.2882 7.15385C75.3566 7.15385 75.3566 7.2224 75.3566 7.2224C75.3566 7.29095 75.3566 7.42805 75.3566 7.4966C75.3566 9.41597 75.3566 11.3353 75.3566 13.2547C75.3566 13.7346 75.3566 14.2144 75.3566 14.6943C75.3566 14.7628 75.3566 14.8313 75.3566 14.8313C75.3566 14.9684 75.2882 14.9684 75.2197 14.9684C75.1513 14.9684 75.1513 14.9684 75.0829 14.9684C74.33 14.9684 73.5087 14.9684 72.7558 14.9684C72.6873 14.9684 72.6189 14.9684 72.5504 14.9684C72.482 14.9684 72.482 14.8999 72.482 14.8999C72.482 14.8313 72.482 14.6943 72.482 14.6257C72.482 13.4604 72.482 12.295 72.482 11.0611Z" fill="#E1DF1B"/>
<path d="M65.5692 11.1297C65.5692 12.3635 65.5692 13.5289 65.5692 14.7628C65.5692 15.1055 65.5692 15.1055 65.227 15.1055C64.4741 15.1055 63.6528 15.1055 62.8999 15.1055C62.8314 15.1055 62.763 15.1055 62.6945 15.1055C62.6261 15.1055 62.6261 15.0369 62.6261 15.0369C62.6261 14.9684 62.6261 14.8999 62.6261 14.8313C62.6261 12.4321 62.6261 9.96431 62.6261 7.5651C62.6261 7.22235 62.6261 7.22235 62.9683 7.22235C63.7212 7.22235 64.5425 7.22235 65.2954 7.22235C65.3639 7.22235 65.4323 7.22235 65.5007 7.22235C65.5692 7.22235 65.5692 7.2909 65.5692 7.2909C65.5692 7.35945 65.5692 7.49655 65.5692 7.5651C65.5692 8.73043 65.5692 9.89577 65.5692 11.1297Z" fill="#E1DF1B"/>
<path d="M45.9258 11.1297C45.9258 9.96435 45.9258 8.79902 45.9258 7.56513C45.9258 7.49658 45.9258 7.42804 45.9258 7.42804C45.9258 7.15384 45.9258 7.15384 46.1996 7.15384C47.0209 7.15384 47.8422 7.15384 48.5951 7.15384C48.6635 7.15384 48.6635 7.15384 48.732 7.15384C48.8004 7.15384 48.8689 7.22239 48.8689 7.29094C48.8689 7.35949 48.8689 7.42804 48.8689 7.42804C48.8689 9.82725 48.8689 12.295 48.8689 14.6942V14.7628C48.8689 14.8999 48.8689 14.9684 48.6635 14.9684C47.8422 14.9684 46.9524 14.9684 46.1311 14.9684C45.9942 14.9684 45.9942 14.9684 45.9942 14.8313C45.9942 14.7628 45.9942 14.6257 45.9942 14.5571C45.9258 13.4604 45.9258 12.295 45.9258 11.1297Z" fill="#E1DF1B"/>
<path d="M2.94318 14.8998C2.87474 14.9684 2.80629 14.9684 2.73785 14.9684C1.91653 14.9684 1.0952 14.9684 0.342318 14.9684C0.273874 14.9684 0.273874 14.9684 0.20543 14.9684C0.136986 14.9684 0.0685425 14.8998 0.0685425 14.8313C0.0685425 14.7628 0.0685425 14.6942 0.0685425 14.6257C0.0685425 12.295 0.0685425 9.96431 0.0685425 7.63365C0.0685425 7.5651 0.0685425 7.428 0.0685425 7.35945C0.0685425 7.22235 0.0685425 7.22235 0.20543 7.22235C0.273874 7.22235 0.342318 7.22235 0.342318 7.22235C1.0952 7.22235 1.84808 7.22235 2.60096 7.22235C2.66941 7.22235 2.73785 7.22235 2.80629 7.22235C2.87474 7.22235 2.94318 7.2909 2.94318 7.35945C2.94318 7.428 2.94318 7.5651 2.94318 7.63365C2.94318 9.96431 2.94318 12.3635 2.94318 14.6942C2.94318 14.6942 2.94318 14.7628 2.94318 14.8998Z" fill="#E1DF1B"/>
<path d="M11.9092 11.1297C11.9092 12.295 11.9092 13.4604 11.9092 14.6257C11.9092 14.6943 11.9092 14.7628 11.9092 14.8313C11.9092 15.037 11.9092 15.037 11.7039 15.037C10.8826 15.037 9.99279 15.037 9.17146 15.037H9.10302C9.03458 15.037 9.03458 14.9684 9.03458 14.9684C9.03458 14.8999 9.03458 14.8313 9.03458 14.7628C9.03458 12.4321 9.03458 10.0329 9.03458 7.70224V7.63369C9.03458 7.3595 9.03458 7.3595 9.30835 7.3595C10.0612 7.3595 10.8826 7.3595 11.6354 7.3595C11.7039 7.3595 11.7039 7.3595 11.7723 7.3595C11.9092 7.3595 11.9092 7.3595 11.9092 7.4966C11.9092 7.56514 11.9092 7.70224 11.9092 7.77079C11.9092 8.86758 11.9092 10.0329 11.9092 11.1297Z" fill="#E1DF1B"/>
<path d="M52.9071 11.1297C52.9071 9.96435 52.9071 8.79902 52.9071 7.56513C52.9071 7.49658 52.9071 7.35949 52.9071 7.29094C52.9071 7.22239 52.9755 7.15384 52.9755 7.15384C53.044 7.15384 53.1124 7.15384 53.1124 7.15384C53.8653 7.15384 54.6866 7.15384 55.4395 7.15384C55.5079 7.15384 55.5079 7.15384 55.5764 7.15384C55.7133 7.15384 55.7133 7.15384 55.7133 7.29094C55.7133 7.35949 55.7133 7.42804 55.7133 7.49658C55.7133 9.8958 55.7133 12.295 55.7133 14.6942C55.7133 14.7628 55.7133 14.8313 55.7133 14.8999C55.7133 14.9684 55.6448 14.9684 55.5764 15.037C55.5079 15.037 55.5079 15.037 55.4395 15.037C54.6182 15.037 53.7968 15.037 53.044 15.037H52.9755C52.8386 15.037 52.7702 15.037 52.7702 14.8999C52.7702 14.8313 52.7702 14.6942 52.7702 14.6257C52.9071 13.4604 52.9071 12.295 52.9071 11.1297Z" fill="#E1DF1B"/>
<path d="M91.7147 11.1297C91.7147 12.295 91.7147 13.5289 91.7147 14.6942C91.7147 15.037 91.7147 15.037 91.3725 15.037C90.6196 15.037 89.8667 15.037 89.1138 15.037C89.0454 15.037 88.9769 15.037 88.9085 15.037C88.8401 15.037 88.8401 14.9684 88.7716 14.8999C88.7716 14.8313 88.7716 14.7628 88.7716 14.6942C88.7716 12.295 88.7716 9.96435 88.7716 7.56513C88.7716 7.08529 88.7032 7.15384 89.1823 7.15384C89.8667 7.15384 90.6196 7.15384 91.304 7.15384C91.3725 7.15384 91.5094 7.15384 91.5778 7.15384C91.6463 7.15384 91.6463 7.22239 91.6463 7.29094C91.6463 7.35948 91.6463 7.49658 91.6463 7.56513C91.7147 8.73047 91.7147 9.96435 91.7147 11.1297Z" fill="#E1DF1B"/>
<path d="M81.9272 3.17801C81.9272 4.06915 81.9272 5.02883 81.9272 5.91997C81.9272 5.98852 81.9272 6.05707 81.9272 6.12562C81.9272 6.26272 81.9272 6.33127 81.7219 6.33127C80.9006 6.33127 80.0108 6.33127 79.1895 6.33127C79.0526 6.33127 78.9842 6.33127 78.9842 6.12562C78.9842 6.05707 78.9842 5.98852 78.9842 5.91997C78.9842 4.06915 78.9842 2.21832 78.9842 0.367495C78.9842 0.298946 78.9842 0.230397 78.9842 0.161848C78.9842 0.0247498 78.9842 0.0247498 79.121 0.0247498C79.9424 0.0247498 80.8321 0.0247498 81.6535 0.0247498C81.7904 0.0247498 81.8588 0.0247498 81.8588 0.230397C81.8588 0.298946 81.8588 0.367495 81.8588 0.436044C81.9272 1.32718 81.9272 2.28687 81.9272 3.17801Z" fill="#E1DF1B"/>
<path d="M45.9258 3.17801C45.9258 2.21832 45.9258 1.25863 45.9258 0.298946C45.9258 0.0247498 45.9258 0.0247498 46.1996 0.0247498C46.9524 0.0247498 47.7738 0.0247498 48.5266 0.0247498C48.5951 0.0247498 48.6635 0.0247498 48.732 0.0247498C48.8004 0.0247498 48.8004 0.0932988 48.8004 0.0932988C48.8004 0.161848 48.8004 0.230397 48.8004 0.298946C48.8004 2.14977 48.8004 4.06915 48.8004 5.91997C48.8004 6.26272 48.8004 6.26272 48.4582 6.26272C47.7053 6.26272 46.9524 6.26272 46.1996 6.26272C46.1311 6.26272 46.0627 6.26272 45.9942 6.26272C45.9258 6.26272 45.9258 6.19417 45.9258 6.19417C45.9258 6.12562 45.9258 5.98852 45.9258 5.91997C45.9258 5.02883 45.9258 4.1377 45.9258 3.17801Z" fill="#E1DF1B"/>
<path d="M35.8646 3.17801C35.8646 4.1377 35.8646 5.09738 35.8646 6.05707C35.8646 6.33127 35.8646 6.33127 35.5908 6.33127C34.8379 6.33127 34.0166 6.33127 33.2637 6.33127C33.1952 6.33127 33.1268 6.33127 33.1268 6.33127C33.0584 6.33127 33.0584 6.26272 33.0584 6.19417C33.0584 6.12562 33.0584 5.98852 33.0584 5.91997C33.0584 4.06915 33.0584 2.21832 33.0584 0.367495C32.9899 0.0247498 32.9215 0.0247498 33.3321 0.0247498C34.085 0.0247498 34.8379 0.0247498 35.5223 0.0247498C35.5908 0.0247498 35.6592 0.0247498 35.7277 0.0247498C35.7961 0.0247498 35.8646 0.0932989 35.8646 0.161848C35.8646 0.230397 35.8646 0.367495 35.8646 0.436044C35.8646 1.32718 35.8646 2.28687 35.8646 3.17801Z" fill="#E1DF1B"/>
</svg>
