<?xml version="1.0" encoding="utf-8"?>
<!-- Generator: Adobe Illustrator 26.0.3, SVG Export Plug-In . SVG Version: 6.00 Build 0)  -->
<svg version="1.1" id="Layer_1" xmlns="http://www.w3.org/2000/svg" xmlns:xlink="http://www.w3.org/1999/xlink" x="0px" y="0px"
	 viewBox="0 0 138.9 37" style="enable-background:new 0 0 138.9 37;" xml:space="preserve">
<style type="text/css">
	.st0{fill:#90949C;}
</style>
<g id="City_Baked_2_">
	<path class="st0" d="M33.1,30.6c-0.6,0-1.1,0.2-1.4,0.7c-0.3,0.5-0.5,1.1-0.5,1.9c0,1.7,0.6,2.5,1.9,2.5c0.5,0,1.2-0.1,1.9-0.4v1.3
		C34.4,36.9,33.8,37,33,37c-1.1,0-1.9-0.3-2.5-1c-0.6-0.7-0.9-1.6-0.9-2.9c0-0.8,0.1-1.5,0.4-2.1c0.3-0.6,0.7-1,1.2-1.4
		c0.5-0.3,1.2-0.5,1.9-0.5c0.7,0,1.5,0.2,2.2,0.5l-0.5,1.3c-0.3-0.1-0.6-0.3-0.9-0.4C33.7,30.6,33.4,30.6,33.1,30.6z"/>
	<path class="st0" d="M55.2,36.9v-7.6h1.6v7.6H55.2z"/>
	<path class="st0" d="M80.2,36.9h-1.6v-6.2h-2.1v-1.3h5.7v1.3h-2.1V36.9z"/>
	<path class="st0" d="M104.3,32.4l1.6-3.1h1.7l-2.5,4.6v2.9h-1.6V34l-2.5-4.7h1.7L104.3,32.4z"/>
</g>
<g>
	<path class="st0" d="M108,9.2c-0.6,0-1.2,0-1.8,0c-0.3,0-0.4,0-0.4-0.3c-0.1-0.7-0.2-1.4-0.5-2c-0.7-1.5-1.9-2.3-3.5-2.5
		c-0.9-0.1-1.8,0-2.7,0.2c-1.3,0.4-2.2,1.3-2.7,2.5c-0.3,0.6-0.4,1.2-0.5,1.8c0,0.1,0,0.1,0,0.2c0,0.1-0.1,0.2-0.2,0.2
		c-0.1,0-0.2,0-0.2,0c-1.1,0-2.3,0-3.4,0c-0.1,0-0.2,0-0.2,0c-0.1,0-0.2-0.1-0.2-0.2c0-0.2-0.1-0.5-0.1-0.7
		c-0.2-0.8-0.5-1.5-0.9-2.2c-0.8-1.2-2-1.8-3.4-1.9c-0.6,0-1.2,0-1.9,0.1c-1.6,0.4-2.6,1.3-3.2,2.8c-0.2,0.5-0.4,1.1-0.4,1.6
		c0,0.4,0,0.4-0.4,0.4c-1.1,0-2.2,0-3.2,0c-0.1,0-0.3,0-0.4,0c-0.2,0-0.3,0-0.2-0.3c0-0.2,0.1-0.5,0.1-0.7c0.3-1.6,0.8-3.1,1.7-4.4
		c1.3-2,3.2-3.2,5.5-3.6C85.3,0.1,86,0,86.8,0c1.8,0,3.4,0.6,4.8,1.7c0.7,0.5,1.2,1.1,1.7,1.8c0.1,0.1,0.2,0.2,0.3,0.3
		c0.1,0.1,0.1,0.1,0.2,0c0.1-0.1,0.2-0.3,0.3-0.4c0.5-0.7,1.1-1.3,1.8-1.8C97.4,0.6,99,0,100.8,0c1.1,0,2.3,0.1,3.3,0.5
		c1.8,0.6,3.2,1.7,4.2,3.3c0.8,1.3,1.3,2.7,1.6,4.2c0.1,0.3,0.1,0.6,0.1,0.9c0,0.3,0,0.3-0.3,0.3c-0.3,0-0.7,0-1,0
		C108.5,9.2,108.2,9.2,108,9.2z"/>
	<path class="st0" d="M23.9,10.4c0.6,0,1.2,0,1.9,0c0.2,0,0.3,0,0.3,0.3c0,0.3,0,0.7,0,1c0,0.8,0.1,1.5,0.4,2.2
		c0.5,1.3,1.3,2.3,2.5,3c0.7,0.4,1.5,0.6,2.4,0.7c1,0.1,2,0.1,3-0.2c2.3-0.6,3.8-2,4.5-4.2c0.1-0.5,0.2-0.9,0.2-1.4
		c0-0.4,0-0.8,0-1.1c0-0.2,0-0.2,0.2-0.2c1.3,0,2.6,0,3.9,0c0.2,0,0.2,0,0.2,0.2c0,1.3,0,2.5-0.3,3.7c-0.4,1.4-1,2.7-1.8,3.8
		c-1.2,1.5-2.7,2.5-4.5,3.1c-1.2,0.4-2.4,0.6-3.6,0.6c-1.3,0-2.5-0.1-3.8-0.4c-3.1-0.8-5.3-2.7-6.6-5.6c-0.5-1.1-0.8-2.2-0.9-3.4
		c-0.1-0.6,0-1.3,0-2c0-0.1,0.1-0.2,0.2-0.2c0.3,0,0.6,0,0.9,0C23.2,10.4,23.6,10.4,23.9,10.4C23.9,10.4,23.9,10.4,23.9,10.4z"/>
	<path class="st0" d="M39.1,9.2C39,9.1,39,8.9,39,8.8c-0.4-2-1.5-3.3-3.4-4c-0.8-0.3-1.5-0.4-2.3-0.5c-1.1,0-2.1,0-3.2,0.3
		C28.7,5,27.6,5.7,26.9,7c-0.4,0.6-0.6,1.3-0.7,2c0,0.2-0.1,0.3-0.3,0.3c-1.3,0-2.5,0-3.8,0c-0.2,0-0.3-0.1-0.2-0.3
		c0-0.3,0.1-0.6,0.2-0.9c0.3-1.5,0.9-2.9,1.8-4.1c1.3-1.7,2.9-2.9,5-3.5c1-0.3,2-0.4,3-0.5c1.4-0.1,2.8,0,4.1,0.4
		c1.8,0.5,3.4,1.3,4.6,2.7c1.1,1.1,1.8,2.5,2.3,4c0.2,0.5,0.3,1,0.4,1.5c0,0.1,0,0.3,0.1,0.4c0,0.2,0,0.2-0.2,0.2c-0.5,0-1,0-1.6,0
		c-0.7,0-1.4,0-2.1,0C39.3,9.2,39.2,9.2,39.1,9.2z"/>
	<path class="st0" d="M4.6,0.1c1.2,0,2.4,0,3.5,0c0.8,0,1.6,0.1,2.3,0.3c1.4,0.4,2.7,1,3.8,1.9c1.6,1.3,2.6,2.9,3,5
		c0.1,0.4,0.1,0.9,0.2,1.4c0,0.1,0,0.2,0,0.3c0,0.3,0,0.3-0.3,0.3c0,0-0.1,0-0.1,0c-1.1,0-2.3,0-3.4,0c-0.1,0-0.2,0-0.2,0
		c-0.1,0-0.2-0.1-0.2-0.2c0-0.3,0-0.7-0.1-1c-0.1-0.7-0.4-1.4-0.9-2c-0.7-0.9-1.6-1.4-2.8-1.6C9.1,4.3,8.7,4.3,8.3,4.3
		c-1.2,0-2.4,0-3.6,0c-0.1,0-0.2,0-0.2,0c-0.1,0-0.1,0.1-0.1,0.2c0,0.1,0,0.3,0,0.4c0,1.3,0,2.6,0,3.9c0,0.4,0,0.4-0.4,0.4
		c-1.1,0-2.3,0-3.4,0c-0.1,0-0.2,0-0.3,0C0.1,9.2,0,9.2,0,9.1C0,9,0,8.9,0,8.7C0,6,0,3.3,0,0.6c0-0.5,0-0.5,0.5-0.5
		C1.9,0.1,3.2,0.1,4.6,0.1z"/>
	<path class="st0" d="M54.8,21.9c-2,0-4,0-6,0c-0.1,0-0.3,0-0.4,0c-0.1,0-0.2-0.1-0.2-0.1c0-0.1,0-0.2,0-0.3c0-3.5,0-7,0-10.5
		c0-0.6-0.1-0.6,0.6-0.6c1.1,0,2.1,0,3.2,0c0.1,0,0.2,0,0.3,0c0.1,0,0.2,0.1,0.2,0.1c0,0.2,0,0.3,0,0.5c0,2,0,4,0,6
		c0,0.6-0.1,0.6,0.6,0.6c2.6,0,5.3,0,7.9,0c0.6,0,0.6,0,0.6,0.6c0,1.1,0,2.1,0,3.2c0,0.1,0,0.3,0,0.4c0,0.1-0.1,0.1-0.2,0.1
		c-0.1,0-0.3,0-0.4,0C58.8,21.9,56.8,21.9,54.8,21.9z"/>
	<path class="st0" d="M131.7,0c2.2,0,4.4,0,6.5,0c0.1,0,0.3,0,0.4,0c0.1,0,0.2,0.1,0.2,0.1c0,0.1,0,0.2,0,0.3c0,1.1,0,2.3,0,3.4
		c0,0.1,0,0.2,0,0.3c0,0.1-0.1,0.1-0.2,0.2c-0.1,0-0.3,0-0.4,0c-1.3,0-2.6,0-3.9,0c-0.4,0-0.4,0-0.4,0.4c0,1.3,0,2.6,0,3.9
		c0,0.1,0,0.3,0,0.4c0,0.2,0,0.2-0.2,0.2c-0.8,0-1.6,0-2.5,0c-0.5,0-0.9,0-1.4,0c-0.1,0-0.2-0.1-0.2-0.2c0-0.1,0-0.3,0-0.4
		c0-1.2,0-2.4,0-3.6c0-0.1,0-0.2,0-0.3c0-0.3,0-0.3-0.3-0.3c-1.3,0-2.7,0-4,0c-0.8,0-0.7,0.1-0.7-0.7c0-1,0-2,0-3c0-0.1,0-0.3,0-0.4
		c0-0.1,0.1-0.1,0.2-0.2c0.1,0,0.3,0,0.4,0C127.4,0,129.6,0,131.7,0z"/>
	<path class="st0" d="M115.4,16.2c0-1.8,0-3.6,0-5.3c0-0.4,0-0.4,0.4-0.4c1.1,0,2.3,0,3.4,0c0.1,0,0.2,0,0.2,0
		c0.1,0,0.2,0.1,0.2,0.2c0,0.1,0,0.2,0,0.3c0,3.5,0,7.1,0,10.6c0,0,0,0,0,0c0,0.4,0,0.4-0.4,0.4c-1.2,0-2.4,0-3.5,0c0,0-0.1,0-0.1,0
		c-0.2,0-0.2,0-0.2-0.2c0-0.1,0-0.3,0-0.4C115.4,19.6,115.4,17.9,115.4,16.2C115.4,16.2,115.4,16.2,115.4,16.2z"/>
	<path class="st0" d="M105.9,16.1c0-1.8,0-3.5,0-5.3c0-0.5,0-0.4,0.5-0.4c1.1,0,2.2,0,3.3,0c0.1,0,0.2,0,0.3,0
		c0.1,0,0.1,0.1,0.1,0.1c0,0.1,0,0.3,0,0.4c0,2.8,0,5.6,0,8.4c0,0.7,0,1.4,0,2.1c0,0.1,0,0.2,0,0.2c0,0.2-0.1,0.2-0.2,0.2
		c-0.1,0-0.1,0-0.2,0c-1.1,0-2.3,0-3.4,0c-0.1,0-0.2,0-0.3,0c-0.1,0-0.1-0.1-0.1-0.1c0-0.1,0-0.3,0-0.4
		C105.9,19.6,105.9,17.9,105.9,16.1C105.9,16.1,105.9,16.1,105.9,16.1z"/>
	<path class="st0" d="M95.8,16.2c0,1.8,0,3.5,0,5.3c0,0.5,0,0.5-0.5,0.5c-1.1,0-2.3,0-3.4,0c-0.1,0-0.2,0-0.3,0
		c-0.1,0-0.1-0.1-0.1-0.1c0-0.1,0-0.2,0-0.3c0-3.5,0-7.1,0-10.6c0-0.5,0-0.5,0.5-0.5c1.1,0,2.3,0,3.4,0c0.1,0,0.2,0,0.3,0
		c0.1,0,0.1,0.1,0.1,0.1c0,0.1,0,0.3,0,0.4C95.8,12.7,95.8,14.4,95.8,16.2C95.8,16.2,95.8,16.2,95.8,16.2z"/>
	<path class="st0" d="M67.1,16.2c0-1.7,0-3.4,0-5.2c0-0.1,0-0.2,0-0.2c0-0.4,0-0.4,0.4-0.4c1.2,0,2.4,0,3.5,0c0.1,0,0.1,0,0.2,0
		c0.1,0,0.2,0.1,0.2,0.2c0,0.1,0,0.2,0,0.2c0,3.5,0,7.1,0,10.6c0,0,0,0.1,0,0.1c0,0.2,0,0.3-0.3,0.3c-1.2,0-2.5,0-3.7,0c0,0,0,0,0,0
		c-0.2,0-0.2,0-0.2-0.2c0-0.1,0-0.3,0-0.4C67.1,19.6,67.1,17.9,67.1,16.2C67.1,16.2,67.1,16.2,67.1,16.2z"/>
	<path class="st0" d="M4.3,21.7c-0.1,0.1-0.2,0.1-0.3,0.1c-1.2,0-2.4,0-3.5,0c-0.1,0-0.1,0-0.2,0c-0.1,0-0.2-0.1-0.2-0.2
		c0-0.1,0-0.2,0-0.3c0-3.4,0-6.8,0-10.2c0-0.1,0-0.3,0-0.4c0-0.2,0-0.2,0.2-0.2c0.1,0,0.2,0,0.2,0c1.1,0,2.2,0,3.3,0
		c0.1,0,0.2,0,0.3,0c0.1,0,0.2,0.1,0.2,0.2c0,0.1,0,0.3,0,0.4c0,3.4,0,6.9,0,10.3C4.3,21.4,4.3,21.5,4.3,21.7z"/>
	<path class="st0" d="M17.4,16.2c0,1.7,0,3.4,0,5.1c0,0.1,0,0.2,0,0.3c0,0.3,0,0.3-0.3,0.3c-1.2,0-2.5,0-3.7,0c0,0-0.1,0-0.1,0
		c-0.1,0-0.1-0.1-0.1-0.1c0-0.1,0-0.2,0-0.3c0-3.4,0-6.9,0-10.3c0,0,0-0.1,0-0.1c0-0.4,0-0.4,0.4-0.4c1.1,0,2.3,0,3.4,0
		c0.1,0,0.1,0,0.2,0c0.2,0,0.2,0,0.2,0.2c0,0.1,0,0.3,0,0.4C17.4,12.9,17.4,14.6,17.4,16.2z"/>
	<path class="st0" d="M77.3,16.2c0-1.7,0-3.4,0-5.2c0-0.1,0-0.3,0-0.4c0-0.1,0.1-0.2,0.1-0.2c0.1,0,0.2,0,0.2,0c1.1,0,2.3,0,3.4,0
		c0.1,0,0.1,0,0.2,0c0.2,0,0.2,0,0.2,0.2c0,0.1,0,0.2,0,0.3c0,3.5,0,7,0,10.5c0,0.1,0,0.2,0,0.3c0,0.1-0.1,0.1-0.2,0.2
		c-0.1,0-0.1,0-0.2,0c-1.2,0-2.4,0-3.5,0c0,0-0.1,0-0.1,0c-0.2,0-0.3,0-0.3-0.2c0-0.1,0-0.3,0-0.4C77.3,19.6,77.3,17.9,77.3,16.2
		C77.3,16.2,77.3,16.2,77.3,16.2z"/>
	<path class="st0" d="M134,16.2c0,1.7,0,3.5,0,5.2c0,0.5,0,0.5-0.5,0.5c-1.1,0-2.2,0-3.3,0c-0.1,0-0.2,0-0.3,0
		c-0.1,0-0.1-0.1-0.2-0.2c0-0.1,0-0.2,0-0.3c0-3.5,0-6.9,0-10.4c0-0.7-0.1-0.6,0.6-0.6c1,0,2.1,0,3.1,0c0.1,0,0.3,0,0.4,0
		c0.1,0,0.1,0.1,0.1,0.2c0,0.1,0,0.3,0,0.4C134,12.7,134,14.5,134,16.2C134,16.2,134,16.2,134,16.2z"/>
	<path class="st0" d="M119.7,4.6c0,1.3,0,2.7,0,4c0,0.1,0,0.2,0,0.3c0,0.2,0,0.3-0.3,0.3c-1.2,0-2.5,0-3.7,0c-0.2,0-0.3,0-0.3-0.3
		c0-0.1,0-0.2,0-0.3c0-2.7,0-5.4,0-8.1c0-0.1,0-0.2,0-0.3c0-0.2,0-0.2,0.2-0.2c0,0,0,0,0,0c1.2,0,2.5,0,3.7,0c0.2,0,0.3,0,0.3,0.3
		c0,0.1,0,0.2,0,0.3C119.7,1.9,119.7,3.3,119.7,4.6z"/>
	<path class="st0" d="M67.1,4.6c0-1.4,0-2.8,0-4.2c0-0.4,0-0.4,0.4-0.4c1.1,0,2.3,0,3.4,0c0.1,0,0.2,0,0.3,0c0.1,0,0.1,0.1,0.1,0.1
		c0,0.1,0,0.2,0,0.3c0,2.7,0,5.5,0,8.2c0,0.5,0,0.5-0.5,0.5c-1.1,0-2.2,0-3.3,0c-0.1,0-0.2,0-0.3,0c-0.1,0-0.1-0.1-0.1-0.1
		c0-0.1,0-0.3,0-0.4C67.1,7.3,67.1,6,67.1,4.6z"/>
	<path class="st0" d="M52.4,4.6c0,1.4,0,2.8,0,4.2c0,0.4,0,0.4-0.4,0.4c-1.1,0-2.3,0-3.4,0c-0.1,0-0.2,0-0.2,0
		c-0.1,0-0.1-0.1-0.1-0.2c0-0.1,0-0.3,0-0.4c0-2.7,0-5.4,0-8.1C48.2,0,48.1,0,48.7,0c1.1,0,2.2,0,3.2,0c0.1,0,0.2,0,0.3,0
		c0.1,0,0.2,0.1,0.2,0.2c0,0.1,0,0.3,0,0.4C52.4,1.9,52.4,3.3,52.4,4.6z"/>
</g>
</svg>
