<svg width="24" height="24" viewBox="0 0 24 24" fill="none" xmlns="http://www.w3.org/2000/svg">
<path d="M11.999 24C5.37846 24 0 18.6211 0 12C0 11.5896 0.332688 11.2569 0.743004 11.2569C1.15332 11.2569 1.48601 11.5896 1.48601 12C1.48601 17.8004 6.1991 22.5139 11.999 22.5139C14.5274 22.5139 16.9671 21.6044 18.8745 19.9519C19.185 19.6858 19.6508 19.719 19.928 20.0296C20.1942 20.3401 20.1609 20.8059 19.8504 21.0832C17.6658 22.9686 14.8823 24 11.999 24Z" fill="#3361D8"/>
<path d="M23.2549 12.7431C22.8446 12.7431 22.5119 12.4104 22.5119 12C22.5119 6.19963 17.7988 1.48614 11.999 1.48614C10.8789 1.48614 9.76995 1.66359 8.70534 2.00739C8.31721 2.14048 7.8958 1.91867 7.76273 1.5305C7.62965 1.14233 7.85144 0.720887 8.23958 0.5878C9.44835 0.19963 10.7126 0 11.999 0C18.6195 0 23.9979 5.37893 23.9979 12C23.9979 12.4104 23.6652 12.7431 23.2549 12.7431Z" fill="#3361D8"/>
<path d="M11.7772 21.0056C6.80903 21.0056 2.77242 16.9686 2.77242 12C2.77242 7.03143 6.80903 2.99446 11.7772 2.99446C14.1836 2.99446 16.4459 3.92607 18.1426 5.63402C18.431 5.92237 18.431 6.39927 18.1426 6.68762C17.8543 6.97598 17.3774 6.97598 17.0891 6.68762C15.6696 5.26803 13.7844 4.4806 11.7772 4.4806C7.62967 4.4806 4.25842 7.85213 4.25842 12C4.25842 16.1479 7.62967 19.5194 11.7772 19.5194C12.1875 19.5194 12.5202 19.8521 12.5202 20.2625C12.5202 20.6728 12.1875 21.0056 11.7772 21.0056Z" fill="#3361D8"/>
<path d="M16.0023 19.8411C15.7473 19.8411 15.5033 19.708 15.3591 19.4751C15.1484 19.1202 15.2593 18.6655 15.6142 18.4547C17.8765 17.1017 19.2848 14.6285 19.2848 11.9889C19.2848 11.5786 19.6175 11.2459 20.0279 11.2459C20.4382 11.2459 20.7709 11.5786 20.7709 11.9889C20.7709 15.1387 19.0852 18.1109 16.3794 19.7301C16.2685 19.8078 16.1354 19.8411 16.0023 19.8411Z" fill="#3361D8"/>
<path d="M9.29308 16.6913C9.16 16.6913 9.01584 16.6581 8.89385 16.5804C7.21932 15.5268 6.21017 13.708 6.21017 11.7227C6.21017 8.56193 8.78296 5.98892 11.9435 5.98892C15.104 5.98892 17.6768 8.56193 17.6768 11.7227C17.6768 13.6303 16.7342 15.4048 15.1484 16.4806C14.8046 16.7135 14.3499 16.6248 14.1171 16.281C13.8842 15.9372 13.9729 15.4825 14.3167 15.2495C15.4922 14.4621 16.1908 13.1423 16.1908 11.7227C16.1908 9.38264 14.2834 7.47506 11.9435 7.47506C9.60359 7.47506 7.69618 9.38264 7.69618 11.7227C7.69618 13.1978 8.43918 14.5398 9.69231 15.3272C10.0361 15.549 10.147 16.0037 9.92519 16.3475C9.78102 16.5693 9.53705 16.6913 9.29308 16.6913Z" fill="#3361D8"/>
</svg>
