<svg width="105" height="30" viewBox="0 0 105 30" fill="none" xmlns="http://www.w3.org/2000/svg">
<path d="M37.8727 22.7701H38.955C39.4556 22.7701 39.8073 22.8783 40.0102 23.1083C40.3078 23.4059 40.4566 23.7577 40.4566 24.1636V24.2312C40.4566 24.7724 40.2131 25.1783 39.7396 25.4759C39.6044 25.5707 39.3338 25.6248 38.9415 25.6248H38.1027V26.5312C38.0892 26.7207 38.0216 26.8154 37.8998 26.8154H37.8457C37.7239 26.8154 37.6563 26.7207 37.6428 26.5312V23.0271C37.6698 22.8512 37.751 22.7701 37.8727 22.7701ZM38.1027 23.2706V25.0971H39.2797C39.5097 25.0971 39.7126 24.9483 39.902 24.6642C39.9832 24.5154 40.0373 24.3395 40.0373 24.1636C40.0373 23.8254 39.8749 23.5548 39.5638 23.3518C39.4556 23.2977 39.3609 23.2706 39.2797 23.2706H38.1027V23.2706Z" fill="#A7A9B0"/>
<path d="M41.106 22.7971H42.3912C42.9594 22.7971 43.3652 23.0677 43.5817 23.6224C43.6358 23.8118 43.6628 23.9606 43.6628 24.0824V24.1501C43.6628 24.6371 43.4464 25.0159 43.027 25.3001C42.9864 25.3271 42.9594 25.3406 42.9459 25.3406V25.3542C43.4193 25.963 43.717 26.3283 43.7981 26.4501L43.8117 26.5312V26.5989C43.7711 26.7342 43.717 26.8018 43.6223 26.8018H43.5682C43.487 26.8018 43.3382 26.653 43.1488 26.3689L42.4047 25.4353H41.3495V26.5042C41.336 26.6936 41.2683 26.7883 41.1466 26.7883H41.106C40.9843 26.7883 40.9166 26.6936 40.9031 26.5042V23.0406C40.9031 22.8918 40.9843 22.7971 41.106 22.7971ZM42.4859 23.3112H41.336V24.9348H42.4859L42.5535 24.9483C42.6888 24.9483 42.8376 24.8671 43.027 24.6912C43.1623 24.5153 43.2299 24.3259 43.2299 24.123C43.2299 23.7712 43.0541 23.5142 42.7023 23.3383C42.6076 23.3248 42.5671 23.3112 42.5671 23.2977L42.4859 23.3112Z" fill="#A7A9B0"/>
<path d="M44.3257 22.8106H46.6255C46.7879 22.8242 46.8691 22.9054 46.8691 23.0406V23.0948C46.8691 23.2301 46.7879 23.3112 46.6255 23.3248H44.5557V24.5154H46.4361C46.5985 24.5289 46.6797 24.6101 46.6797 24.7454V24.7995C46.6797 24.9348 46.5985 25.0159 46.4361 25.0295H44.5557V26.2877H46.6391C46.8014 26.3012 46.8826 26.3824 46.8826 26.5177V26.5718C46.8826 26.7071 46.8014 26.7883 46.6391 26.8018H44.3663C44.1905 26.7883 44.1093 26.6936 44.1093 26.5042V23.0677C44.1228 22.9054 44.204 22.8106 44.3257 22.8106Z" fill="#A7A9B0"/>
<path d="M47.4237 22.7701H47.4643C47.5725 22.7701 47.6807 22.9189 47.816 23.203C48.2084 23.8659 48.5871 24.5154 48.9389 25.1377H48.9659C48.9659 25.1107 49.4124 24.3395 50.2917 22.8242C50.3458 22.7971 50.3864 22.7701 50.427 22.7701H50.4676C50.5758 22.7701 50.6434 22.8512 50.6705 23.0271V26.5448C50.6434 26.7207 50.5758 26.8018 50.4676 26.8018H50.427C50.3188 26.8018 50.2511 26.7207 50.2241 26.5448V23.893H50.2105C49.5882 25.0024 49.2094 25.6518 49.1012 25.8142C49.0606 25.8412 49.02 25.8683 48.9795 25.8683H48.9253C48.8306 25.8683 48.6818 25.6518 48.4654 25.2324L47.6807 23.9065V26.5177C47.6672 26.7071 47.5996 26.8018 47.4778 26.8018H47.4372C47.3155 26.8018 47.2478 26.7071 47.2343 26.5177V23.0406C47.2343 22.8648 47.302 22.7701 47.4237 22.7701Z" fill="#A7A9B0"/>
<path d="M51.4145 22.7701H51.4551C51.5769 22.7701 51.6445 22.8648 51.6581 23.0542V26.5177C51.6445 26.7071 51.5769 26.8018 51.4551 26.8018H51.4145C51.2928 26.8018 51.2251 26.7071 51.2116 26.5177V23.0406C51.2251 22.8648 51.2928 22.7701 51.4145 22.7701Z" fill="#A7A9B0"/>
<path d="M52.3751 22.7836H52.4156C52.5374 22.7836 52.605 22.8783 52.6186 23.0677V25.3271C52.6186 25.4895 52.6997 25.6924 52.8621 25.8954C53.1191 26.1659 53.4303 26.3148 53.7955 26.3148C54.2284 26.3148 54.5666 26.1118 54.8372 25.7195C54.9184 25.5301 54.9725 25.3948 54.9725 25.3136L54.959 25.1648V23.0677C54.9725 22.8783 55.0401 22.7836 55.1619 22.7836H55.2025C55.3242 22.7836 55.3919 22.8783 55.4054 23.0677V25.0565C55.4054 25.8683 55.0536 26.423 54.3637 26.7071C54.1473 26.7748 53.9714 26.8018 53.7955 26.8018H53.7549C53.1326 26.8018 52.6456 26.5042 52.2939 25.8954C52.1992 25.6518 52.1451 25.3948 52.1451 25.1106V23.0677C52.1857 22.8783 52.2533 22.7836 52.3751 22.7836Z" fill="#A7A9B0"/>
<path d="M56.1359 22.7701H56.1765C56.2847 22.7701 56.393 22.9189 56.5282 23.203C56.9206 23.8659 57.2993 24.5154 57.6511 25.1377H57.6781C57.6781 25.1107 58.1246 24.3395 59.0039 22.8242C59.058 22.7971 59.0986 22.7701 59.1392 22.7701H59.1798C59.288 22.7701 59.3556 22.8512 59.3827 23.0271V26.5448C59.3556 26.7207 59.288 26.8018 59.1798 26.8018H59.1392C59.031 26.8018 58.9633 26.7207 58.9363 26.5448V23.893H58.9227C58.3004 25.0024 57.9217 25.6518 57.8134 25.8142C57.7728 25.8412 57.7323 25.8683 57.6917 25.8683H57.6376C57.5429 25.8683 57.394 25.6518 57.1776 25.2324L56.393 23.9065V26.5177C56.3794 26.7071 56.3118 26.8018 56.19 26.8018H56.1494C56.0277 26.8018 55.9601 26.7071 55.9465 26.5177V23.0406C55.9465 22.8648 56.0142 22.7701 56.1359 22.7701Z" fill="#A7A9B0"/>
<path d="M61.5066 22.7701H61.5472C61.6554 22.7701 61.7637 22.9189 61.899 23.203C62.2913 23.8659 62.6701 24.5154 63.0218 25.1377H63.0489C63.0489 25.1107 63.4953 24.3395 64.3746 22.8242C64.4287 22.7971 64.4693 22.7701 64.5099 22.7701H64.5505C64.6587 22.7701 64.7264 22.8512 64.7534 23.0271V26.5448C64.7264 26.7207 64.6587 26.8018 64.5505 26.8018H64.4964C64.3882 26.8018 64.3205 26.7207 64.2935 26.5448V23.893H64.2799C63.6576 25.0024 63.2788 25.6518 63.1706 25.8142C63.13 25.8412 63.0894 25.8683 63.0489 25.8683H62.9947C62.9 25.8683 62.7512 25.6518 62.5348 25.2324L61.7501 23.9065V26.5177C61.7366 26.7071 61.669 26.8018 61.5472 26.8018H61.5066C61.3849 26.8018 61.3172 26.7071 61.3037 26.5177V23.0406C61.3172 22.8648 61.3849 22.7701 61.5066 22.7701Z" fill="#A7A9B0"/>
<path d="M66.9315 22.7295H66.9721C67.6349 22.7295 68.1761 23.0948 68.5684 23.8118C68.7037 24.1365 68.7578 24.4477 68.7578 24.7454V24.7995C68.7578 25.5436 68.4331 26.1524 67.7837 26.5854C67.4997 26.7342 67.2156 26.8018 66.9585 26.8018H66.9315C66.2686 26.8018 65.7275 26.4365 65.3351 25.7195C65.1999 25.3948 65.1457 25.0836 65.1457 24.7995V24.7454C65.1457 24.0012 65.4704 23.3924 66.1198 22.9595C66.3903 22.7971 66.6609 22.7295 66.9315 22.7295ZM65.5651 24.7724C65.5651 25.2595 65.768 25.6789 66.1604 26.0306C66.4039 26.2201 66.6744 26.3148 66.9585 26.3148C67.405 26.3148 67.7702 26.0848 68.0814 25.6383C68.2437 25.3677 68.3249 25.0701 68.3249 24.7454C68.3249 24.2448 68.122 23.8389 67.7296 23.4871C67.4861 23.2977 67.2156 23.203 66.9315 23.203C66.485 23.203 66.1198 23.433 65.8086 23.8795C65.6463 24.1636 65.5651 24.4612 65.5651 24.7724Z" fill="#A7A9B0"/>
<path d="M71.0982 22.8106C71.5446 22.8106 71.8558 23.0677 72.0316 23.5683C72.0587 23.6765 72.0722 23.7848 72.0722 23.9065C72.0722 24.1907 71.964 24.4612 71.7475 24.7048V24.7183C72.0181 24.9483 72.1534 25.2595 72.1534 25.6383C72.1534 26.1118 71.9505 26.4636 71.5446 26.6936C71.4093 26.7612 71.274 26.8018 71.1117 26.8018H69.4071C69.2313 26.7883 69.1501 26.6936 69.1501 26.5312L69.1636 26.4501V24.9077C69.1636 24.8265 69.1636 24.7589 69.1501 24.7183C69.1636 24.6777 69.1636 24.6101 69.1636 24.5289V23.2706C69.1636 23.203 69.1636 23.1218 69.1501 23.0406C69.1907 22.8918 69.2583 22.8242 69.3666 22.8242H71.0982V22.8106ZM69.5965 23.3248V24.4612H71.1117C71.3552 24.4612 71.5176 24.3259 71.5987 24.0418C71.6122 24.0012 71.6258 23.9471 71.6258 23.8659C71.6258 23.6224 71.504 23.4465 71.2605 23.3383C71.2335 23.3248 71.1793 23.3112 71.1252 23.3112H69.5965V23.3248ZM69.5965 24.9754V26.2877H70.9494C71.3146 26.2877 71.5446 26.1524 71.6393 25.8818C71.6664 25.7736 71.6799 25.6924 71.6799 25.6248V25.6112C71.6799 25.3001 71.5311 25.0971 71.2199 24.9754C71.1658 24.9618 71.1252 24.9618 71.0982 24.9618H69.5965V24.9754Z" fill="#A7A9B0"/>
<path d="M72.8027 22.7701H72.8433C72.9651 22.7701 73.0327 22.8648 73.0463 23.0542V26.5177C73.0327 26.7071 72.9651 26.8018 72.8433 26.8018H72.8027C72.681 26.8018 72.6133 26.7071 72.5998 26.5177V23.0406C72.6133 22.8648 72.681 22.7701 72.8027 22.7701Z" fill="#A7A9B0"/>
<path d="M73.8174 22.7701H73.8579C73.9797 22.7701 74.0473 22.8648 74.0609 23.0542V26.3012H76.063C76.2254 26.3148 76.3066 26.3959 76.3066 26.5312V26.5854C76.3066 26.7207 76.2254 26.8018 76.063 26.8154H73.8715C73.6956 26.8018 73.6144 26.7071 73.6144 26.5177V23.0542C73.628 22.8648 73.6956 22.7701 73.8174 22.7701Z" fill="#A7A9B0"/>
<path d="M76.7395 22.8106H79.0393C79.2016 22.8242 79.2828 22.9054 79.2828 23.0406V23.0948C79.2828 23.2301 79.2016 23.3112 79.0393 23.3248H76.9694V24.5154H78.8499C79.0122 24.5289 79.0934 24.6101 79.0934 24.7454V24.7995C79.0934 24.9348 79.0122 25.0159 78.8499 25.0295H76.9694V26.2877H79.0393C79.2016 26.3012 79.2828 26.3824 79.2828 26.5177V26.5718C79.2828 26.7071 79.2016 26.7883 79.0393 26.8018H76.7665C76.5907 26.7883 76.5095 26.6936 76.5095 26.5042V23.0677C76.5365 22.9054 76.6042 22.8106 76.7395 22.8106Z" fill="#A7A9B0"/>
<path d="M82.5701 22.7701H82.6107C83.1113 22.7701 83.5442 22.9865 83.9094 23.4195C83.9365 23.4465 83.9365 23.4871 83.9365 23.5277V23.5818C83.9365 23.7036 83.8688 23.7848 83.72 23.8118C83.6524 23.8118 83.5306 23.7171 83.3548 23.5277C83.0977 23.3518 82.8407 23.2571 82.5701 23.2571C82.0966 23.2571 81.7043 23.5142 81.4067 24.0283C81.285 24.2718 81.2173 24.5289 81.2173 24.7995C81.2173 25.3407 81.4473 25.7736 81.9073 26.0983C82.1237 26.2336 82.3537 26.3012 82.5972 26.3012C82.9489 26.3012 83.2601 26.1524 83.5306 25.8548V25.0836H82.6648C82.5025 25.0701 82.4213 24.9889 82.4213 24.8536V24.7995C82.4213 24.6642 82.5025 24.583 82.6648 24.5695H83.7606C83.9094 24.5965 83.9906 24.6912 83.9906 24.8265V25.9224C83.9906 26.1389 83.7471 26.3824 83.2601 26.653C83.0166 26.7477 82.8001 26.7883 82.6107 26.7883H82.5701C81.8667 26.7883 81.312 26.3959 80.9332 25.5977C80.8385 25.3136 80.7979 25.043 80.7979 24.7995V24.7589C80.7979 23.9606 81.1497 23.3518 81.8667 22.9324C82.1237 22.8242 82.3537 22.7701 82.5701 22.7701Z" fill="#A7A9B0"/>
<path d="M86.0604 22.7565C86.1687 22.7565 86.2498 22.8377 86.304 23C87.3321 25.2324 87.8732 26.4095 87.9003 26.5042V26.5718C87.8732 26.7206 87.8056 26.7883 87.7109 26.7883H87.6703C87.5621 26.7883 87.4539 26.6259 87.3456 26.3012L87.0751 25.7465H85.0594C84.9917 25.8683 84.8429 26.1795 84.6264 26.6801C84.5723 26.7477 84.5182 26.7748 84.4641 26.7748H84.4235C84.2882 26.7477 84.2341 26.6665 84.2341 26.5583V26.5042C84.2341 26.4636 84.3424 26.2336 84.5317 25.8142C85.3976 23.893 85.8575 22.9053 85.8981 22.8377C85.9387 22.7971 86.0063 22.77 86.0604 22.7565ZM86.0469 23.5412L85.2623 25.273H86.8451V25.2595L86.0469 23.5412Z" fill="#A7A9B0"/>
<path d="M88.3467 22.7701H88.3873C88.4955 22.7701 88.6037 22.9189 88.739 23.203C89.1314 23.8659 89.5101 24.5154 89.8619 25.1377H89.8889C89.8889 25.1107 90.3354 24.3395 91.2147 22.8242C91.2688 22.7971 91.3094 22.7701 91.35 22.7701H91.3906C91.4988 22.7701 91.5664 22.8512 91.5935 23.0271V26.5448C91.5664 26.7207 91.4988 26.8018 91.3906 26.8018H91.35C91.2418 26.8018 91.1741 26.7207 91.1471 26.5448V23.893H91.1335C90.5112 25.0024 90.1324 25.6518 90.0242 25.8142C89.9836 25.8412 89.943 25.8683 89.9025 25.8683H89.8484C89.7537 25.8683 89.6048 25.6518 89.3884 25.2324L88.6037 23.9065V26.5177C88.5902 26.7071 88.5226 26.8018 88.4008 26.8018H88.3602C88.2385 26.8018 88.1708 26.7071 88.1573 26.5177V23.0406C88.1573 22.8648 88.225 22.7701 88.3467 22.7701Z" fill="#A7A9B0"/>
<path d="M92.3646 22.8106H94.6644C94.8267 22.8242 94.9079 22.9054 94.9079 23.0406V23.0948C94.9079 23.2301 94.8267 23.3112 94.6644 23.3248H92.5946V24.5154H94.475C94.6373 24.5289 94.7185 24.6101 94.7185 24.7454V24.7995C94.7185 24.9348 94.6373 25.0159 94.475 25.0295H92.5946V26.2877H94.6644C94.8267 26.3012 94.9079 26.3824 94.9079 26.5177V26.5718C94.9079 26.7071 94.8267 26.7883 94.6644 26.8018H92.3917C92.2158 26.7883 92.1346 26.6936 92.1346 26.5042V23.0677C92.1617 22.9054 92.2428 22.8106 92.3646 22.8106Z" fill="#A7A9B0"/>
<path d="M96.6531 22.7565H96.6801C97.2754 22.7565 97.7353 22.9595 98.0465 23.3653C98.1141 23.5006 98.1547 23.5818 98.1547 23.6359V23.69C98.1276 23.8389 98.06 23.9065 97.9653 23.9065H97.9112C97.8165 23.9065 97.7489 23.8253 97.6947 23.6765C97.4512 23.3924 97.0995 23.2436 96.6531 23.2436C96.2337 23.2436 95.8955 23.3789 95.6384 23.663C95.5843 23.7577 95.5573 23.8253 95.5573 23.893C95.5573 24.1365 95.7737 24.3259 96.2202 24.4748C96.3825 24.5018 96.6937 24.5559 97.1536 24.6236C97.5459 24.7318 97.803 24.8536 97.9112 24.9889C98.1006 25.1918 98.2088 25.4083 98.2088 25.6248V25.7195C98.2088 26.0712 97.9788 26.3689 97.5324 26.6259C97.2618 26.7477 96.9642 26.8153 96.6801 26.8153H96.6531C96.0849 26.8153 95.6384 26.6259 95.3138 26.2606C95.1785 26.0712 95.1244 25.9495 95.1244 25.8818V25.8277C95.1514 25.6789 95.2191 25.6112 95.3138 25.6112H95.3543C95.4355 25.6112 95.5167 25.6789 95.5708 25.8277C95.8143 26.1659 96.1796 26.3283 96.6666 26.3283C97.086 26.3283 97.4242 26.193 97.6812 25.9089C97.7353 25.8142 97.7624 25.7465 97.7624 25.6789C97.7624 25.4353 97.5324 25.2324 97.0724 25.0836C96.9101 25.0565 96.8019 25.043 96.7342 25.0159C96.7207 25.0159 96.7207 25.0159 96.7207 25.0295C96.2743 24.9618 95.9631 24.8942 95.7873 24.8401C95.5032 24.7183 95.3002 24.5153 95.1785 24.2583C95.1379 24.123 95.1108 24.0283 95.1108 23.9471V23.8524C95.1108 23.5006 95.3408 23.203 95.7873 22.9459C96.0713 22.8106 96.3554 22.7565 96.6531 22.7565Z" fill="#A7A9B0"/>
<path d="M40.5243 19.4147C39.9155 19.1441 39.4014 18.7788 38.9821 18.3053C38.5492 17.8453 38.2245 17.3041 37.9945 16.6953C37.7645 16.0865 37.6428 15.4371 37.6428 14.7471C37.6428 14.0706 37.7645 13.4212 37.9945 12.8123C38.2245 12.2035 38.5627 11.6623 38.9821 11.2023C39.415 10.7423 39.929 10.3635 40.5243 10.0929C41.1331 9.82234 41.8095 9.68705 42.5671 9.68705C43.3246 9.68705 44.0011 9.82234 44.6098 10.0929C45.2186 10.3635 45.7327 10.7288 46.152 11.2023C46.585 11.6623 46.9096 12.2035 47.1396 12.8123C47.3696 13.4212 47.4913 14.0706 47.4913 14.7471C47.4913 15.4371 47.3696 16.0865 47.1396 16.6953C46.9096 17.3041 46.5714 17.8453 46.152 18.3053C45.7191 18.7653 45.2051 19.1441 44.6098 19.4147C44.0011 19.6853 43.3246 19.8206 42.5671 19.8206C41.8095 19.8206 41.1331 19.6853 40.5243 19.4147ZM45.7327 13.1912C45.5568 12.7312 45.3133 12.3388 45.0021 12.0141C44.691 11.6894 44.3257 11.4459 43.9199 11.2565C43.5005 11.0806 43.0541 10.9859 42.5806 10.9859C42.0936 10.9859 41.6471 11.0806 41.2413 11.2565C40.8219 11.4323 40.4702 11.6894 40.159 12.0141C39.8479 12.3388 39.6044 12.7312 39.4285 13.1912C39.2526 13.6512 39.1579 14.1788 39.1579 14.7471C39.1579 15.3153 39.2526 15.8429 39.4285 16.3029C39.6044 16.7629 39.8479 17.1688 40.159 17.4935C40.4702 17.8182 40.8354 18.0753 41.2413 18.2512C41.6607 18.4271 42.1071 18.5218 42.5806 18.5218C43.0676 18.5218 43.514 18.4271 43.9199 18.2512C44.3393 18.0753 44.691 17.8182 45.0021 17.4935C45.3133 17.1688 45.5568 16.7765 45.7327 16.3029C45.9085 15.8429 46.0032 15.3153 46.0032 14.7471C45.9897 14.1653 45.9085 13.6512 45.7327 13.1912Z" fill="#A7A9B0"/>
<path d="M54.3096 11.7976C54.6343 11.8924 54.9319 12.0412 55.1889 12.2306C55.446 12.42 55.6489 12.6635 55.8112 12.9477C55.96 13.2318 56.0412 13.5565 56.0412 13.9353V18.8735C56.0412 19.0765 55.96 19.2524 55.8112 19.3877C55.6624 19.523 55.4865 19.6041 55.2701 19.6041C55.0536 19.6041 54.8778 19.5365 54.7425 19.3877C54.5937 19.2524 54.526 19.0765 54.526 18.8735V14.0977C54.526 13.8947 54.4719 13.7188 54.3772 13.5565C54.2825 13.3941 54.1472 13.2588 53.9849 13.1641C53.8226 13.0559 53.6467 12.9747 53.4573 12.9206C53.2544 12.8665 53.065 12.8394 52.8756 12.8394C52.5644 12.8394 52.2668 12.8935 52.0098 13.0018C51.7527 13.11 51.5363 13.2453 51.3604 13.4347C51.1846 13.6241 51.0493 13.8406 50.9546 14.0841C50.8599 14.3412 50.8058 14.6118 50.8058 14.8959V18.8735C50.8058 19.0765 50.7381 19.2524 50.5893 19.3877C50.4405 19.523 50.2646 19.6041 50.0617 19.6041C49.8453 19.6041 49.6694 19.5365 49.5206 19.3877C49.3718 19.2524 49.2906 19.0765 49.2906 18.8735V12.3794C49.2906 12.1765 49.3582 12.0006 49.5206 11.8653C49.6694 11.73 49.8453 11.6488 50.0617 11.6488C50.2782 11.6488 50.454 11.7165 50.5893 11.8653C50.7381 12.0006 50.8058 12.1765 50.8058 12.3794V12.6229C50.9005 12.5418 51.0222 12.4471 51.1575 12.3253C51.2928 12.2171 51.4686 12.1088 51.6716 12.0006C51.8745 11.9059 52.1045 11.8112 52.375 11.7435C52.6456 11.6759 52.9432 11.6353 53.295 11.6353C53.6332 11.6624 53.9714 11.7029 54.3096 11.7976Z" fill="#A7A9B0"/>
<path d="M59.0986 15.9647C59.0986 15.9782 59.1121 16.0594 59.1257 16.1947C59.1392 16.33 59.1798 16.4788 59.2204 16.6682C59.2745 16.8577 59.3556 17.0471 59.4503 17.25C59.545 17.453 59.6938 17.6424 59.8562 17.8182C60.0321 17.9941 60.2485 18.1294 60.492 18.2512C60.7491 18.3594 61.0602 18.4271 61.4255 18.4271C61.7231 18.4271 61.9801 18.4 62.183 18.3594C62.3995 18.3188 62.5754 18.2512 62.7512 18.1565C62.9136 18.0618 63.0624 17.9535 63.1977 17.8047C63.3329 17.6694 63.4682 17.4935 63.6035 17.3041C63.6847 17.1959 63.7659 17.1147 63.8606 17.0741C63.9552 17.0335 64.0635 17.0065 64.1582 17.0065C64.334 17.0065 64.4829 17.0606 64.6317 17.1824C64.7805 17.3041 64.8481 17.453 64.8481 17.6288C64.8481 17.7371 64.7805 17.8994 64.6587 18.1159C64.537 18.3324 64.334 18.5488 64.0635 18.7788C63.7929 18.9953 63.4412 19.1847 63.0083 19.3606C62.5754 19.5365 62.0478 19.6041 61.4255 19.6041C60.7896 19.6041 60.2214 19.4959 59.7209 19.2794C59.2204 19.063 58.801 18.7653 58.4628 18.4C58.1246 18.0347 57.8675 17.6018 57.6781 17.1012C57.5023 16.6141 57.4076 16.0865 57.4076 15.5588C57.4076 15.0041 57.5023 14.4765 57.6781 13.9759C57.854 13.4753 58.1246 13.0424 58.4628 12.6771C58.801 12.3118 59.2204 12.0277 59.6938 11.8112C60.1673 11.5947 60.7085 11.4865 61.3037 11.4865C61.8448 11.4865 62.3589 11.5676 62.8324 11.7165C63.3059 11.8653 63.7253 12.0953 64.077 12.3929C64.4287 12.6906 64.6993 13.0559 64.9022 13.4888C65.1052 13.9218 65.1998 14.4088 65.1998 14.95C65.1998 15.2882 65.1187 15.5453 64.9428 15.7212C64.7669 15.8971 64.564 15.9782 64.334 15.9782H59.0986V15.9647ZM60.4514 12.7988C60.2079 12.8935 59.9915 13.0288 59.8291 13.1777C59.6668 13.3265 59.5315 13.4888 59.4368 13.6782C59.3421 13.8677 59.2745 14.03 59.2204 14.1788C59.1662 14.3277 59.1392 14.4629 59.1392 14.5847C59.1257 14.6929 59.1257 14.7606 59.1257 14.7877H63.7929C63.7929 14.5035 63.7388 14.2329 63.6441 13.9759C63.5494 13.7188 63.4006 13.4888 63.2112 13.2994C63.0083 13.0965 62.7648 12.9477 62.4536 12.8259C62.1425 12.7041 61.7907 12.65 61.3714 12.65C61.0061 12.65 60.7085 12.6906 60.4514 12.7988Z" fill="#A7A9B0"/>
<path d="M65.6598 10.2553C65.4434 10.2553 65.2675 10.1877 65.1187 10.0388C64.9699 9.90353 64.8887 9.72765 64.8887 9.52471C64.8887 9.32177 64.9563 9.15941 65.1187 9.02412C65.2675 8.88883 65.4434 8.82118 65.6598 8.82118H72.7486C72.9651 8.82118 73.1409 8.88883 73.2898 9.02412C73.4386 9.15941 73.5197 9.3353 73.5197 9.52471C73.5197 9.72765 73.4386 9.89 73.2898 10.0388C73.1409 10.1741 72.9651 10.2553 72.7486 10.2553H70.0565V18.7924C70.0565 19.0088 69.9753 19.1983 69.7995 19.3606C69.6371 19.523 69.4342 19.6041 69.2042 19.6041C68.9607 19.6041 68.7578 19.523 68.5954 19.3606C68.4331 19.1983 68.3519 19.0088 68.3519 18.7924V10.2553H65.6598Z" fill="#A7A9B0"/>
<path d="M74.7779 19.32C74.2908 19.1306 73.8715 18.8735 73.5197 18.5353C73.168 18.1971 72.8839 17.7641 72.681 17.2635C72.4781 16.7629 72.3834 16.1812 72.3834 15.5318C72.3834 14.8824 72.4781 14.3006 72.681 13.8C72.8839 13.2994 73.1545 12.8665 73.5197 12.5282C73.8715 12.1765 74.2908 11.9194 74.7779 11.73C75.2649 11.5541 75.7925 11.4594 76.3607 11.4594C76.9289 11.4594 77.4565 11.5541 77.9435 11.73C78.4305 11.9194 78.8499 12.1765 79.2016 12.5282C79.5533 12.88 79.8374 13.2994 80.0404 13.8C80.2433 14.3006 80.338 14.8824 80.338 15.5318C80.338 16.1812 80.2433 16.7629 80.0404 17.2635C79.8374 17.7641 79.5533 18.1835 79.2016 18.5353C78.8499 18.8735 78.4305 19.1441 77.9435 19.32C77.4565 19.4959 76.9289 19.5906 76.3607 19.5906C75.7925 19.5906 75.2649 19.5094 74.7779 19.32ZM78.6334 14.2329C78.5117 13.8676 78.3358 13.57 78.1194 13.34C77.9029 13.11 77.6459 12.9341 77.3347 12.8123C77.0371 12.7041 76.6989 12.6365 76.3471 12.6365C75.9954 12.6365 75.6572 12.6906 75.3596 12.8123C75.062 12.9206 74.7914 13.0965 74.5749 13.34C74.3585 13.57 74.1826 13.8676 74.0609 14.2329C73.9391 14.5982 73.8715 15.0312 73.8715 15.5318C73.8715 16.0324 73.9391 16.4653 74.0609 16.8306C74.1826 17.1959 74.3585 17.4935 74.5749 17.7235C74.7914 17.9535 75.0484 18.1294 75.3596 18.2512C75.6572 18.3594 75.9954 18.4271 76.3471 18.4271C76.6989 18.4271 77.0371 18.3729 77.3347 18.2512C77.6323 18.1429 77.9029 17.9671 78.1194 17.7235C78.3358 17.4935 78.5117 17.1959 78.6334 16.8306C78.7552 16.4653 78.8228 16.0324 78.8228 15.5318C78.8228 15.0312 78.7552 14.5982 78.6334 14.2329Z" fill="#A7A9B0"/>
<path d="M92.5405 19.3065C92.0535 19.1035 91.6341 18.8329 91.2823 18.4812C90.9306 18.1294 90.6465 17.6965 90.4436 17.1959C90.2407 16.6953 90.146 16.1406 90.146 15.5453C90.146 14.9365 90.2407 14.3818 90.4436 13.8812C90.6465 13.3806 90.9171 12.9612 91.2823 12.5959C91.6341 12.2441 92.0535 11.96 92.5405 11.7706C93.0275 11.5676 93.5551 11.4729 94.1233 11.4729C94.705 11.4729 95.192 11.5541 95.6249 11.7165C96.0443 11.8788 96.396 12.0682 96.6666 12.2847C96.9372 12.5012 97.1401 12.7312 97.2754 12.9747C97.4106 13.2182 97.4783 13.4076 97.4783 13.5835C97.4783 13.8 97.3971 13.9623 97.2483 14.0706C97.0995 14.1788 96.9236 14.2465 96.7342 14.2465C96.599 14.2465 96.4772 14.2194 96.3554 14.1518C96.2337 14.0841 96.1525 13.9759 96.1119 13.827C96.0578 13.6782 95.9902 13.5429 95.8684 13.4076C95.7602 13.2723 95.6249 13.1506 95.449 13.0423C95.2867 12.9341 95.0838 12.8394 94.8538 12.7853C94.6238 12.7176 94.3803 12.6906 94.1097 12.6906C93.8121 12.6906 93.5145 12.7447 93.2304 12.8529C92.9328 12.9612 92.6758 13.1235 92.4322 13.3535C92.2023 13.5835 92.0129 13.8812 91.8641 14.2465C91.7152 14.6118 91.6476 15.0582 91.6476 15.5859C91.6476 16.1135 91.7152 16.5465 91.8641 16.9118C92.0129 17.2771 92.2023 17.5747 92.4322 17.8047C92.6622 18.0347 92.9328 18.1971 93.2304 18.3053C93.528 18.4135 93.8121 18.4676 94.1097 18.4676C94.3803 18.4676 94.6238 18.4406 94.8538 18.3729C95.0838 18.3053 95.2732 18.2241 95.449 18.1159C95.6114 18.0076 95.7602 17.8859 95.8684 17.7506C95.9766 17.6153 96.0578 17.4665 96.1119 17.3312C96.166 17.1823 96.2472 17.0606 96.3554 17.0065C96.4772 16.9388 96.599 16.9118 96.7342 16.9118C96.9236 16.9118 97.0995 16.9659 97.2618 17.0876C97.4242 17.1959 97.5053 17.3582 97.5053 17.5612C97.5053 17.6559 97.4512 17.8318 97.3565 18.0618C97.2618 18.2918 97.086 18.5353 96.8425 18.7653C96.5989 19.0088 96.2472 19.2118 95.8143 19.4012C95.3814 19.5771 94.8132 19.6718 94.1368 19.6718C93.5416 19.5906 93.0275 19.4959 92.5405 19.3065Z" fill="#A7A9B0"/>
<path d="M99.6834 18.8735C99.6834 19.0765 99.6158 19.2524 99.4669 19.3877C99.3181 19.523 99.1423 19.6041 98.9393 19.6041C98.7229 19.6041 98.547 19.5365 98.3982 19.3877C98.2494 19.2524 98.1682 19.0765 98.1682 18.8735V9.49764C98.1682 9.2947 98.2359 9.13235 98.3982 8.99705C98.547 8.86176 98.7229 8.79411 98.9393 8.79411C99.1558 8.79411 99.3317 8.86176 99.4669 8.99705C99.6158 9.13235 99.6834 9.30823 99.6834 9.49764V12.7176C99.9945 12.3794 100.319 12.1224 100.671 11.9329C101.023 11.7435 101.456 11.6623 101.956 11.6623C102.403 11.6623 102.808 11.73 103.187 11.8518C103.566 11.9735 103.877 12.1629 104.148 12.3929C104.418 12.6229 104.621 12.9071 104.77 13.2453C104.919 13.5835 105 13.9488 105 14.3682V18.8735C105 19.0765 104.919 19.2524 104.77 19.3877C104.621 19.523 104.445 19.6041 104.229 19.6041C104.012 19.6041 103.837 19.5365 103.701 19.3877C103.552 19.2524 103.485 19.0765 103.485 18.8735V14.3682C103.485 14.1518 103.444 13.9624 103.35 13.7729C103.255 13.5835 103.133 13.4212 102.984 13.2859C102.835 13.1506 102.66 13.0424 102.457 12.9612C102.254 12.88 102.037 12.8394 101.821 12.8394C101.537 12.8394 101.253 12.8935 100.996 13.0018C100.739 13.11 100.509 13.2453 100.306 13.4212C100.103 13.5971 99.954 13.8135 99.8457 14.0435C99.7375 14.2871 99.6834 14.5306 99.6834 14.8147V18.8735V18.8735Z" fill="#A7A9B0"/>
<path d="M83.1654 19.09C82.8542 18.9006 82.6107 18.6435 82.4213 18.3324C82.2319 18.0077 82.1372 17.6153 82.1372 17.1282V12.4335C82.1372 12.2171 82.2184 12.0412 82.3807 11.9059C82.5431 11.7571 82.7325 11.6894 82.976 11.6894C83.206 11.6894 83.4089 11.7571 83.5712 11.9059C83.7336 12.0547 83.8147 12.2306 83.8147 12.4335V17.1282C83.8147 17.3177 83.8553 17.48 83.95 17.6153C84.0447 17.7641 84.1665 17.8859 84.3153 17.9806C84.4641 18.0888 84.64 18.1565 84.8294 18.2106C85.0187 18.2647 85.2217 18.2918 85.4246 18.2918C85.6275 18.2918 85.8304 18.2647 86.0198 18.2106C86.2092 18.1565 86.3851 18.0753 86.5339 17.9806C86.6827 17.8724 86.8045 17.7506 86.8992 17.6153C86.9939 17.4665 87.0345 17.3041 87.0345 17.1282V12.4335C87.0345 12.2171 87.1156 12.0412 87.278 11.9059C87.4403 11.7571 87.6432 11.6894 87.8732 11.6894C88.1032 11.6894 88.3061 11.7571 88.4685 11.9059C88.6308 12.0547 88.712 12.2306 88.712 12.4335V17.1282C88.712 17.6153 88.6173 18.0212 88.4279 18.3324C88.2385 18.6571 88.0085 18.9141 87.6838 19.09C85.2893 20.443 83.1654 19.09 83.1654 19.09Z" fill="#A7A9B0"/>
<path d="M14.6376 29.2777C6.56121 29.2777 0 22.7159 0 14.6389C0 14.1383 0.405848 13.7324 0.906394 13.7324C1.40694 13.7324 1.81279 14.1383 1.81279 14.6389C1.81279 21.7148 7.5623 27.4648 14.6376 27.4648C17.722 27.4648 20.6982 26.3554 23.0251 24.3395C23.4039 24.0148 23.9721 24.0554 24.3103 24.4342C24.635 24.813 24.5944 25.3812 24.2156 25.7195C21.5505 28.0195 18.1549 29.2777 14.6376 29.2777Z" fill="#3361D8"/>
<path d="M28.3688 15.5453C27.8682 15.5453 27.4624 15.1394 27.4624 14.6389C27.4624 7.56296 21.7129 1.81295 14.6376 1.81295C13.2712 1.81295 11.9184 2.02942 10.6197 2.44883C10.1462 2.61119 9.63213 2.3406 9.46979 1.86707C9.30745 1.39354 9.57802 0.879417 10.0515 0.717064C11.5261 0.243534 13.0683 3.8147e-06 14.6376 3.8147e-06C22.714 3.8147e-06 29.2752 6.56178 29.2752 14.6389C29.2752 15.1394 28.8693 15.5453 28.3688 15.5453Z" fill="#3361D8"/>
<path d="M14.367 25.6248C8.30635 25.6248 3.38206 20.7 3.38206 14.6388C3.38206 8.57766 8.30635 3.65295 14.367 3.65295C17.3027 3.65295 20.0624 4.78942 22.1322 6.87295C22.484 7.22472 22.484 7.80648 22.1322 8.15825C21.7805 8.51001 21.1988 8.51001 20.8471 8.15825C19.1154 6.42648 16.8156 5.46589 14.367 5.46589C9.30745 5.46589 5.19485 9.57884 5.19485 14.6388C5.19485 19.6989 9.30745 23.8118 14.367 23.8118C14.8676 23.8118 15.2734 24.2177 15.2734 24.7183C15.2734 25.2189 14.8676 25.6248 14.367 25.6248Z" fill="#3361D8"/>
<path d="M19.5213 24.2042C19.2101 24.2042 18.9125 24.0418 18.7367 23.7577C18.4796 23.3247 18.6149 22.77 19.0478 22.513C21.8076 20.8624 23.5257 17.8453 23.5257 14.6253C23.5257 14.1247 23.9315 13.7188 24.4321 13.7188C24.9326 13.7188 25.3384 14.1247 25.3384 14.6253C25.3384 18.4677 23.2821 22.0936 19.9813 24.0689C19.846 24.1636 19.6836 24.2042 19.5213 24.2042Z" fill="#3361D8"/>
<path d="M11.3367 20.3618C11.1743 20.3618 10.9985 20.3212 10.8497 20.2265C8.8069 18.9412 7.57583 16.7224 7.57583 14.3006C7.57583 10.4447 10.7144 7.3059 14.5699 7.3059C18.4255 7.3059 21.5641 10.4447 21.5641 14.3006C21.5641 16.6277 20.4142 18.7924 18.4796 20.1048C18.0602 20.3889 17.5056 20.2806 17.2215 19.8612C16.9374 19.4418 17.0456 18.8871 17.465 18.603C18.899 17.6424 19.7513 16.0324 19.7513 14.3006C19.7513 11.4459 17.4244 9.11885 14.5699 9.11885C11.7155 9.11885 9.38861 11.4459 9.38861 14.3006C9.38861 16.1 10.295 17.7371 11.8237 18.6977C12.2431 18.9683 12.3784 19.523 12.1078 19.9424C11.9319 20.213 11.6343 20.3618 11.3367 20.3618Z" fill="#3361D8"/>
</svg>
