<svg width="69" height="56" viewBox="0 0 69 56" fill="none" xmlns="http://www.w3.org/2000/svg">
    <path d="M68.508 0 9.548 17.87C4.338 19.4.503 22.876.508 28.201c0 5 3.492 8.767 8.16 10.144L68.497 56l.01-56z" fill="#DE2027"/>
    <path d="M20.731 24.55c-.185.914-.848 1.509-2.502 1.509h-1.702l.647-3.018h1.675c1.79 0 2.089.55 1.882 1.509zm-.658 5.611c-.245 1.146-1.088 1.653-3.051 1.653h-1.697l.696-3.305h1.697c1.98 0 2.584.513 2.355 1.652zm29.268-9.675c-2.61 0-3.263 1.883-3.263 1.883l-2.796 6.724h-.06l-.712-8.607h-4.412c-.623.018-1.23.21-1.752.553a3.424 3.424 0 0 0-1.212 1.396l-3.35 6.658h-.06v-8.607h-2.986c-1.98 0-2.41 1.101-2.497 1.696-.571-1.101-2.148-1.696-4.966-1.696h-7.07c-2.296 0-2.503 1.735-2.503 1.735l-2.61 12.043h10.03c2.936 0 3.877-.303 4.933-1.068a4.126 4.126 0 0 0 1.528-2.484c.49-2.362-1.17-3.304-3.057-3.414v-.039c1.724-.396 3.188-1.167 3.731-2.715l.218 9.72h4.786a4.168 4.168 0 0 0 2.243-.71 4.243 4.243 0 0 0 1.516-1.818l2.932-5.848h.054l.68 8.376h4.275a4.474 4.474 0 0 0 2.476-.734 4.556 4.556 0 0 0 1.674-1.986l3.759-8.47-2.35 11.218h2.556c3.302 0 3.737-2.666 3.737-2.666l.511-2.494h3.666c2.823 0 3.231-2.203 3.231-2.203l.152-.721h-6.44l.599-2.864h4.052c2.768 0 3.165-2.076 3.165-2.076l.174-.826-14.582.044z" fill="#fff"/>
</svg>
