<svg width="57" height="56" viewBox="0 0 57 56" fill="none" xmlns="http://www.w3.org/2000/svg">
<path d="M28.1433 54.563C36.8012 54.563 44.0253 42.67 44.0253 27.9999C44.0253 13.3299 36.8012 1.43689 28.1433 1.43689C19.4855 1.43689 12.2614 13.3297 12.2614 27.9999C12.2614 42.6702 19.4855 54.563 28.1433 54.563Z" fill="white"/>
<path fill-rule="evenodd" clip-rule="evenodd" d="M15.7239 8.47706C18.7459 3.44747 23.1058 0 28.1433 0C33.1808 0 37.5407 3.44753 40.5627 8.47714C43.6052 13.5408 45.4622 20.4459 45.4622 28C45.4622 35.5541 43.6052 42.4592 40.5627 47.5229C37.5407 52.5525 33.1808 56 28.1433 56C23.1058 56 18.7459 52.5525 15.7239 47.5229C12.6814 42.4593 10.8243 35.5542 10.8243 28C10.8243 20.4458 12.6814 13.5407 15.7239 8.47706ZM18.1873 9.95721C15.4533 14.5075 13.6982 20.884 13.6982 28C13.6982 35.116 15.4533 41.4925 18.1873 46.0428C20.9418 50.6272 24.523 53.1261 28.1433 53.1261C31.7636 53.1261 35.3447 50.6271 38.0993 46.0427C40.8333 41.4924 42.5883 35.1159 42.5883 28C42.5883 20.8841 40.8333 14.5076 38.0993 9.95728C35.3447 5.37288 31.7636 2.8739 28.1433 2.8739C24.523 2.8739 20.9418 5.37284 18.1873 9.95721Z" fill="black"/>
<path fill-rule="evenodd" clip-rule="evenodd" d="M16.4644 8.87587C19.4004 3.98939 23.51 0.846802 28.092 0.846802C32.674 0.846802 36.7835 3.98944 39.7195 8.87595C42.6629 13.7746 44.4872 20.5098 44.4872 27.923C44.4872 35.3363 42.6629 42.0715 39.7195 46.9701C36.7835 51.8567 32.674 54.9993 28.092 54.9993C23.51 54.9993 19.4004 51.8567 16.4644 46.9702C13.521 42.0716 11.6968 35.3364 11.6968 27.923C11.6968 20.5097 13.521 13.7745 16.4644 8.87587ZM17.3442 9.4045C14.511 14.1198 12.7232 20.6662 12.7232 27.923C12.7232 35.1799 14.511 41.7263 17.3442 46.4416C20.1847 51.1691 24.0161 53.9729 28.092 53.9729C32.1678 53.9729 35.9992 51.169 38.8398 46.4415C41.6729 41.7262 43.4608 35.1798 43.4608 27.923C43.4608 20.6663 41.6729 14.1199 38.8398 9.40457C35.9992 4.67706 32.1678 1.87319 28.092 1.87319C24.0161 1.87319 20.1847 4.67702 17.3442 9.4045Z" fill="#FB090B"/>
<path d="M22.7582 13.7245V41.574L25.4198 42.6004V13.7245H22.7582Z" fill="black"/>
<path d="M20.0896 15.3667V40.5476L22.7512 41.574V13.7245L20.0896 15.3667Z" fill="#FB090B"/>
<path d="M17.4209 17.4195V38.4948L20.0825 40.5476V15.3667L17.4209 17.4195Z" fill="black"/>
<path d="M14.7523 21.5251V34.3893L17.414 38.4949V17.4196L14.7523 21.5251Z" fill="#FB090B"/>
<path d="M13.5206 23.9885V32.3365L14.7453 34.7999V20.9093L13.5206 23.9885Z" fill="black"/>
<path fill-rule="evenodd" clip-rule="evenodd" d="M33.7371 30.1811V41.5741H32.7107V30.1811H28.6102V29.1547H32.7107V26.5939H28.097V25.5675H32.7107V14.3234H33.7371V25.5675H36.4057V16.2735H37.4321V25.5675H43.0516V26.5939H37.4321V29.1547H42.5384V30.1811H37.4321V39.624H36.4057V30.1811H33.7371ZM36.4057 29.1547V26.5939H33.7371V29.1547H36.4057Z" fill="black"/>
<path d="M36.4023 15.9826L33.7407 14.3404V26.5853H28.0885V12.9034L25.4269 13.314V42.6005H28.0885V29.2469H33.7407V41.5741L36.4023 40.5477V29.2469H43.1457V26.5853H36.4023V15.9826Z" fill="#FB090B"/>
<path fill-rule="evenodd" clip-rule="evenodd" d="M29.1183 12.7837V43.1649H28.0919V12.7837H29.1183Z" fill="black"/>
<path fill-rule="evenodd" clip-rule="evenodd" d="M28.092 13.6305C20.1984 13.6305 13.7995 20.0295 13.7995 27.923C13.7995 35.8166 20.1984 42.2156 28.092 42.2156C35.9855 42.2156 42.3845 35.8166 42.3845 27.923C42.3845 20.0295 35.9855 13.6305 28.092 13.6305ZM12.7731 27.923C12.7731 19.4626 19.6316 12.6041 28.092 12.6041C36.5524 12.6041 43.4109 19.4626 43.4109 27.923C43.4109 36.3834 36.5524 43.242 28.092 43.242C19.6316 43.242 12.7731 36.3834 12.7731 27.923Z" fill="black"/>
<path d="M20.6419 43.5183L20.7778 43.5674C21.6952 43.8991 22.0961 43.5552 22.2349 43.2352L23.0164 43.5179L21.4302 47.9037L20.4789 47.5596L21.5714 44.5389L20.4231 44.1237L20.6419 43.5183ZM25.1439 45.9258C24.7153 45.8609 24.5389 45.5286 24.5802 45.256C24.6313 44.9181 24.9023 44.72 25.3525 44.7881C25.6739 44.8368 25.9049 45.0975 25.8519 45.4483C25.8018 45.7794 25.5368 45.9851 25.1439 45.9258ZM26.687 47.5611C26.7773 46.9635 26.55 46.6301 26.0976 46.3357C26.5342 46.2025 26.7642 45.8917 26.8241 45.4955C26.9204 44.859 26.4486 44.2097 25.3984 44.0508C24.5127 43.9167 23.7478 44.286 23.6289 45.072C23.5641 45.5007 23.7342 45.8254 24.1068 46.0679C23.2861 46.276 23.1937 46.8865 23.1584 47.1203C23.0632 47.7503 23.3964 48.5913 24.7038 48.789C26.0467 48.9923 26.5985 48.1457 26.687 47.5611ZM25.6524 47.4445C25.6041 47.7626 25.3422 48.1416 24.8208 48.0628C24.3634 47.9936 24.129 47.6592 24.1959 47.2174C24.2717 46.7174 24.6541 46.556 25.0185 46.611C25.5756 46.6954 25.7014 47.1197 25.6524 47.4445ZM28.6086 45.7852C28.5532 45.1174 29.0115 44.9608 29.2708 44.9392C29.7893 44.8963 30.0685 45.2026 30.1125 45.7328C30.158 46.2828 29.7881 46.5441 29.4354 46.5732C29.0536 46.6051 28.6667 46.4856 28.6086 45.7852ZM27.8702 47.8963C28.018 48.6287 28.6825 49.0352 29.5537 48.9629C30.4754 48.8863 31.3632 48.2262 31.214 46.4261C31.1596 45.7714 30.9869 44.0391 29.2156 44.1859C28.2147 44.2688 27.5169 44.8606 27.6115 45.9997C27.676 46.7787 28.3009 47.4059 29.2803 47.3246C29.6259 47.2958 30.0156 47.1846 30.2198 46.8512L30.2352 46.8631C30.3089 47.839 29.9178 48.1945 29.5001 48.229C29.1905 48.2547 28.9559 48.1356 28.8715 47.8197L28.8711 47.8131L27.8702 47.8963ZM32.919 45.0825C32.7027 44.4484 33.1089 44.1848 33.3552 44.1009C33.8477 43.9328 34.1932 44.162 34.3648 44.6654C34.543 45.1876 34.248 45.5313 33.9128 45.6456C33.5505 45.7694 33.1461 45.7476 32.919 45.0825ZM32.7172 47.3098C33.0389 47.9843 33.7824 48.2165 34.6099 47.9342C35.4852 47.6356 36.1854 46.7789 35.602 45.0692C35.39 44.4476 34.8004 42.8093 33.1181 43.3834C32.1675 43.7078 31.635 44.4517 32.0041 45.5335C32.2564 46.2733 33.0153 46.7293 33.9454 46.4119C34.2737 46.3 34.6243 46.097 34.7413 45.7238L34.7591 45.7316C35.0685 46.6603 34.7758 47.1002 34.3792 47.2357C34.085 47.3361 33.8284 47.2778 33.6697 46.9918L33.6677 46.9857L32.7172 47.3098ZM28.3403 5.70105C26.914 5.72465 25.6596 6.8463 25.6821 8.20832C25.7045 9.5609 26.9848 10.6409 28.4214 10.6171C29.1294 10.6054 29.7924 10.3518 30.2574 9.91501L30.9765 10.575C30.3294 11.1736 29.4221 11.5431 28.4267 11.5595C26.3745 11.5934 24.6666 10.1008 24.6356 8.22577C24.6046 6.35075 26.2315 4.79351 28.3247 4.75902C29.3201 4.7426 30.2184 5.06366 30.8749 5.65937L30.1779 6.34275C29.6988 5.92111 29.0586 5.68914 28.3403 5.70105ZM31.7869 11.8857L32.8133 8.60122L33.6344 12.5015H34.0193L35.0714 10.0382L36.3287 13.7588L37.5091 14.58L35.6615 8.21633L34.9174 7.78011L34.122 9.93553L33.4035 6.36882L32.608 5.95826L30.9658 11.6804L31.7869 11.8857ZM25.141 11.7061L23.5501 5.95826L22.1645 6.75372L18.2385 14.7596L19.8294 13.7332L20.8558 11.6547L23.6784 10.577L24.089 11.9627L25.141 11.7061ZM21.369 10.4231L22.9086 7.31823L23.4475 9.60196L21.369 10.4231Z" fill="black"/>
</svg>
