<?xml version="1.0" encoding="UTF-8"?>
<svg id="Layer_1" data-name="Layer 1" xmlns="http://www.w3.org/2000/svg" viewBox="0 0 651 174">
  <defs>
    <style>
      .cls-1 {
        stroke-width: 0px;
      }
    </style>
  </defs>
  <path class="cls-1" d="m497.37,117.63c-.82,3.54-2.18,8.03-4.35,10.75-.54-.41-1.5-.95-2.18-1.22,2.04-2.58,3.4-6.8,3.95-9.93l2.59.41Zm6.26-5.99v19.04c0,1.5-.41,2.18-1.36,2.59-.95.41-2.59.41-4.9.41-.14-.68-.54-1.77-.95-2.31,1.63.14,3.4.14,3.95,0,.54,0,.68-.14.68-.68v-19.04h2.58Zm5.44,5.44c2.04,3.4,4.08,7.89,4.63,10.75l-2.45.95c-.54-2.86-2.45-7.48-4.35-10.88l2.18-.82Z"/>
  <path class="cls-1" d="m519.41,122.12c-.82-.82-2.59-1.77-3.95-2.45l1.22-1.63c1.36.54,3.27,1.5,4.08,2.31l-1.36,1.77Zm-3.54,10.07c.95-1.91,2.45-5.03,3.4-7.75l1.77,1.22c-.95,2.59-2.18,5.44-3.26,7.75l-1.9-1.22Zm4.49-16.46c-.82-.82-2.45-1.9-3.95-2.58l1.36-1.63c1.36.54,3.13,1.63,3.95,2.45l-1.36,1.77Zm17.55,8.16h-3.54.27c-.41.68-.82,1.36-1.09,1.91h3.95v1.77h-6.8v1.5h6.12v1.77h-6.12v2.86h-2.18v-2.86h-5.85v-1.77h5.85v-1.5h-6.67v-1.77h3.67c-.14-.54-.54-1.23-.82-1.77l.54-.14h-4.08v-1.77h7.21v-1.36h-5.31v-1.77h5.31v-1.22h-5.99v-5.85h14.42v5.85h-6.12v1.22h5.58v1.77h-5.58v1.36h7.21v1.77Zm-11.29-10.07h-2.18v2.31h2.18v-2.31Zm4.63,11.97c.27-.54.68-1.23.82-1.91h-5.31c.41.54.68,1.36.82,1.77l-.41.14h4.35-.27Zm-2.86-9.66h2.31v-2.31h-2.31v2.31Zm4.08,0h2.31v-2.31h-2.31v2.31Z"/>
  <path class="cls-1" d="m565.11,117.23c-1.77,2.86-4.9,6.8-8.57,9.79,1.5,1.5,2.99,3.13,3.95,4.35l-2.31,1.77c-.95-1.36-2.99-3.54-4.49-5.17-1.5-1.5-4.08-3.81-5.44-4.76l2.04-1.63c.95.68,2.72,2.18,4.35,3.67,3.26-2.45,5.85-5.71,6.94-7.89h-13.74c-.95,0-2.18.14-2.58.14v-2.72c.68.14,1.77.14,2.58.14h14.15c.82,0,1.5-.14,1.91-.27l1.9,1.63c-.14.41-.41.68-.68.95Z"/>
  <path class="cls-1" d="m572.18,115.05v8.16c0,.68,0,1.5.14,2.04h-2.86c0-.41.14-1.23.14-2.04v-8.16c0-.41,0-1.36-.14-1.77h2.86c0,.54-.14,1.09-.14,1.77Zm11.43.27v4.35c0,5.58-.82,7.62-2.72,9.66-1.63,1.9-4.08,2.99-5.85,3.54l-2.04-2.18c2.31-.54,4.35-1.5,5.85-3.13,1.77-1.91,2.04-3.81,2.04-8.16v-4.22c0-.82-.14-1.63-.14-2.31h2.86v2.45Z"/>
  <path class="cls-1" d="m607.42,116.27c-1.09,1.77-3.4,4.9-5.99,6.8l-2.04-1.63c2.18-1.22,4.22-3.67,5.03-5.03h-13.33c-.95,0-1.77.14-2.86.14v-2.72c.95.14,1.9.27,2.86.27h13.6c.54,0,1.63-.14,2.04-.14l1.5,1.5c-.14.14-.54.54-.82.82Zm-15.78,16.6l-2.31-1.77c.68-.27,1.5-.68,2.31-1.22,3.54-2.31,4.08-5.31,4.08-9.39,0-.68,0-1.22-.14-1.9h2.72c.14,6.26-.27,11.02-6.67,14.28Z"/>
  <path class="cls-1" d="m433.57,95.87c-3.67,2.99-7.07,4.63-8.84,4.63-2.99,0-8.57-2.99-8.57-8.98,0-2.58.54-4.9,1.36-6.94,0-.27-.14-.54-.14-.95,0-10.88,11.7-18.64,18.5-18.64,5.71,0,9.93,3.67,9.93,8.98,0,8.43-5.44,15.64-11.02,20.54,7.62-.54,14.28-5.71,18.23-9.66,0,0,.41-.54.82-.54s.68.41.68.54c0,.27-.95,1.09-1.36,1.5-3.81,3.54-9.79,9.11-19.59,9.52Zm-.82-26.25c1.5,0,4.08,3.54,4.08,4.9,0,.82-.95,1.22-1.63,1.63-4.76,2.86-11.16,8.43-14.01,14.01,2.18,2.86,5.99,4.49,10.61,4.76,5.31-4.76,10.61-12.92,10.61-21.08,0-4.22-2.45-6.94-7.35-6.94s-14.01,5.85-15.51,14.28c2.04-3.26,4.9-5.85,7.48-8.16,1.9-1.9,3.94-3.4,5.71-3.4Zm-12.79,25.03c0,2.31,1.36,4.22,3.54,4.22,1.9,0,4.49-1.09,6.94-2.99-4.22-.41-7.75-1.77-10.07-4.22-.27.95-.41,2.04-.41,2.99Z"/>
  <path class="cls-1" d="m452.48,86.89c-.27,0-.54-.27-.54-.54,0-.41.95-1.09,1.22-1.5,2.86-2.86,15.24-16.6,20.4-16.6,3.26,0,6.94,3.81,6.94,6.67,0,6.67-9.66,12.51-14.15,18.36,4.9,0,12.52,4.76,12.52,13.74,0,.82-.27,2.99-.27,2.99,5.44,0,6.94.82,6.94,1.22s-.41,1.09-.82,1.09-1.5-1.22-6.39-1.22c-2.99,14.96-18.09,32.92-31.97,32.92-3.81,0-6.94-3.13-6.94-7.07,0-8.3,16.46-21.36,31.01-26.12.82-3.27,1.09-6.39,1.09-9.11,0-3.81-1.63-7.07-5.71-7.07-2.86,0-4.49,2.31-5.17,2.31-.95,0-2.99-2.31-2.99-3.67,0-3.26,16.46-13.33,16.46-21.22,0-.95-.41-1.36-1.09-1.36-4.63,0-16.19,12.11-19.72,15.78-.41.14-.68.41-.82.41Zm-7.48,55.23c11.7,0,21.63-15.78,25.17-29.93-12.79,4.76-28.02,17.55-28.02,26.39,0,1.77.82,3.54,2.86,3.54Z"/>
  <path class="cls-1" d="m512.74,99.68c-4.08,0-7.62-2.86-7.62-7.62,0-2.45.41-4.63.41-4.63-6.39,6.26-15.24,15.37-18.23,15.37s-7.35-3.4-7.35-7.35c0-10.2,17.28-27.75,28.29-27.75,5.03,0,9.79,4.49,9.79,7.21,0,2.04-.68,3.26-.95,3.26-.41,0-1.09-.82-1.09-1.22s.68-.95.68-2.45c0-.95-1.36-2.04-2.31-2.04-11.97,0-28.57,17.82-28.57,26.66,0,.95.54,1.63,1.63,1.63,2.45,0,11.56-8.84,17.68-14.96,3.81-3.81,6.67-6.39,7.75-6.39s4.63,3.26,4.63,5.31c0,1.5-5.58,5.71-5.58,9.66,0,1.63,1.22,2.45,2.86,2.45,6.26,0,18.36-12.11,18.36-12.11.27-.27.54-.54.82-.54.41,0,.54.41.54.54,0,.27-.95,1.09-1.23,1.5-.54.27-13.47,13.47-20.54,13.47Z"/>
  <path class="cls-1" d="m541.85,67.85c1.9,0,4.76,2.86,4.76,6.12,0,5.44-11.97,16.87-11.97,25.03,0,.82.54,1.22,1.09,1.22,2.18,0,10.75-7.48,17.28-17.41,2.31-2.99,3.26-5.71,4.35-5.71.95,0,5.17,2.99,5.17,5.03s-4.08,6.94-4.08,11.15c0,1.9,1.09,2.99,2.58,2.99,6.8,0,14.01-15.37,14.01-24.35,0-5.58-1.36-6.53-1.36-7.35,0-.27.14-.41.41-.41,1.22,0,5.03,2.04,5.03,6.8,0,9.11-11.02,26.93-18.36,26.93-4.49,0-8.16-2.99-8.16-7.89,0-1.36.54-4.9.54-4.9,0,0-12.79,16.73-16.6,16.73-3.13,0-7.07-3.54-7.07-8.43,0-8.03,11.29-17.55,11.29-24.89,0-.41.27-.68,1.09-.68Z"/>
  <path class="cls-1" d="m618.03,92.88c.27,0,.54.27.54.54,0,.41-.68.95-1.36,1.5-2.86,2.31-5.85,4.76-8.3,4.76-4.08,0-7.07-2.86-7.07-7.62,0-2.45.41-4.63.41-4.63-6.39,6.26-15.24,15.37-18.23,15.37s-7.35-3.4-7.35-7.35c0-10.2,17.28-27.75,28.29-27.75,5.03,0,9.79,4.49,9.79,7.21,0,2.04-.68,3.26-.95,3.26-.41,0-1.09-.82-1.09-1.22s.68-.95.68-2.45c0-.95-1.36-2.04-2.31-2.04-11.97,0-28.57,17.82-28.57,26.66,0,.95.54,1.63,1.63,1.63,2.45,0,11.56-8.84,17.68-14.96,3.81-3.81,6.67-6.39,7.75-6.39s4.62,3.26,4.62,5.31c0,1.5-5.58,5.71-5.58,9.66,0,1.63.95,2.72,2.45,2.72,1.63,0,3.54-1.5,5.58-3.13.41-.54,1.09-1.09,1.36-1.09Z"/>
  <path class="cls-1" d="m174.56,50.43c3.13,0,8.98,4.22,8.98,8.3,0,7.48-18.77,26.93-18.77,41.08,0,2.31,1.09,6.39,5.03,6.39.41,0,.82.14.82.54s-.54.68-1.22.68c-4.63,0-11.15-3.67-11.15-11.83,0-14.01,18.91-33.19,18.91-41.08,0-.95-.68-1.63-1.5-1.63-8.84,0-35.91,27.07-48.56,42.17-2.86,3.26-4.22,5.17-5.03,5.17-2.18,0-6.94-4.08-6.94-6.94,0-11.29,39.99-57.13,39.99-65.02,0-1.09-.41-1.9-2.31-1.9-16.6,0-65.02,68.42-76.86,83.39-1.22,1.63-1.9,1.9-3.26,1.9-2.86,0-8.84-3.13-8.84-6.8,0-15.64,38.36-54.82,38.36-74.82,0-10.2-5.85-14.42-12.65-14.42-29.52-.14-64.75,34.69-64.75,55.5,0,5.31,1.9,9.25,7.62,9.25,17.82,0,42.85-28.57,46.25-37.68.14-.27.27-.68.68-.68.54,0,1.77,2.04,1.77,2.99,0,5.44-29.25,37.27-50.33,37.27-6.53,0-13.6-5.31-13.6-12.38,0-24.08,41.63-56.32,69.78-56.32,11.97,0,22.17,8.16,22.17,18.91,0,21.49-37.95,59.99-37.95,75.91,0,.27.27.54.54.54,6.12,0,60.81-84.88,80.12-84.88,4.9,0,9.52,4.9,9.52,8.57,0,10.2-35.64,48.02-35.78,60.26,3.54-4.22,38.63-42.44,48.97-42.44Z"/>
  <path class="cls-1" d="m209.8,96.28c-4.08,0-7.62-2.86-7.62-7.62,0-2.45.41-4.63.41-4.63-6.39,6.26-15.24,15.37-18.23,15.37s-7.35-3.4-7.35-7.35c0-10.2,17.28-27.75,28.29-27.75,5.03,0,9.79,4.49,9.79,7.21,0,2.04-.68,3.26-.95,3.26-.41,0-1.09-.82-1.09-1.22s.68-.95.68-2.45c0-.95-1.36-2.04-2.31-2.04-11.97,0-28.57,17.82-28.57,26.66,0,.95.54,1.63,1.63,1.63,2.45,0,11.56-8.84,17.68-14.96,3.81-3.81,6.67-6.39,7.75-6.39s4.63,3.26,4.63,5.31c0,1.5-5.58,5.71-5.58,9.66,0,1.63,1.22,2.45,2.86,2.45,6.26,0,18.36-12.11,18.36-12.11.27-.27.54-.54.82-.54.41,0,.54.41.54.54,0,.27-.95,1.09-1.23,1.5-.41.27-13.33,13.47-20.54,13.47Z"/>
  <path class="cls-1" d="m240.4,69.48c-2.99-1.22-6.94-2.86-6.94-5.71,0-4.76,5.71-8.98,8.71-8.98,1.77,0,4.9,2.58,4.9,3.4,0,2.99-2.04,6.94-4.9,10.75,3.94,1.9,10.47,2.99,10.47,6.39,0,4.9-8.84,11.7-8.84,16.6,0,1.5.95,2.99,2.72,2.99,4.76,0,18.09-13.19,18.09-13.19.27-.27.54-.54.68-.54.41,0,.54.41.54.68s-.68.95-1.09,1.36c0,0-13.33,13.88-19.59,13.88-3.81,0-7.89-3.26-7.89-6.94,0-7.48,6.8-13.6,6.8-17.55,0-1.09-.95-1.9-2.31-2.58-3.81,5.03-8.57,9.93-11.56,13.06-.27.27-.54.54-.68.54-.27,0-.54-.27-.54-.54s.68-.95,1.09-1.5c2.58-2.99,7.07-7.48,10.34-12.11Zm3.81-11.02c-1.09,0-5.03,2.72-5.03,7.21,0,1.09.82,2.04,1.91,2.86,2.18-3.26,3.81-6.67,3.81-9.39.14-.54-.27-.68-.68-.68Z"/>
  <path class="cls-1" d="m281.08,69.21c0,2.31-14.56,18.77-14.56,24.21,0,1.5.95,2.18,2.04,2.18,7.21,0,22.04-14.01,22.04-14.01,0,0,.54-.54.95-.54.27,0,.54.41.54.54,0,.27-.95,1.09-1.36,1.5,0,0-15.51,14.96-23.81,14.96-2.04,0-6.12-2.99-6.12-6.94,0-5.58,11.02-19.72,13.47-25.71.41-.82.95-1.22,1.5-1.22,2.45-.14,5.31,2.72,5.31,5.03Zm12.51-22.17c0,.95-1.63,3.54-2.72,4.08-.82.41-2.45.95-3.54,1.22-2.45.82-3.13,2.18-3.67,2.18-.41,0-.82-.27-.82-.82,0-2.99,4.9-9.39,4.9-12.51,0-.41.27-.54.54-.54,2.04.14,5.31,4.63,5.31,6.39Z"/>
  <path class="cls-1" d="m326.92,89.61c.27,0,.54.27.54.54,0,.41-.68.95-1.36,1.5-2.86,2.31-5.85,4.76-8.3,4.76-4.08,0-7.07-2.86-7.07-7.62,0-2.45.41-4.63.41-4.63-6.39,6.26-15.24,15.37-18.23,15.37s-7.35-3.4-7.35-7.35c0-10.2,17.28-27.75,28.29-27.75,5.03,0,9.79,4.49,9.79,7.21,0,2.04-.68,3.26-.95,3.26-.41,0-1.09-.82-1.09-1.22s.68-.95.68-2.45c0-.95-1.36-2.04-2.31-2.04-11.97,0-28.57,17.82-28.57,26.66,0,.95.54,1.63,1.63,1.63,2.45,0,11.56-8.84,17.68-14.96,3.81-3.81,6.67-6.39,7.75-6.39s4.63,3.26,4.63,5.31c0,1.5-5.58,5.71-5.58,9.66,0,1.63.95,2.72,2.45,2.72,1.63,0,3.54-1.5,5.58-3.13.41-.54,1.09-1.09,1.36-1.09Z"/>
  <path class="cls-1" d="m343.24,92.6c0,.41.14.68.27.95,0,.14.14.14.14.27.14.14.14.41.27.54.14.14.14.27.27.27.14.14.27.27.41.41q.14.14.27.27c.14.14.27.27.41.41.14.14.27.14.27.27.14.14.27.14.54.27.14,0,.27.14.41.14.14.14.41.14.54.14s.27.14.41.14c.27,0,.41,0,.68.14h.27c.41,0,.68,0,1.09-.14l9.52-1.77h-3.54c-4.76,0-8.57-3.81-8.57-8.57V26.76c0-.41,0-.82.14-1.09l-10.34,1.9c-2.18.41-3.81,2.04-4.22,4.08-.14.27-.14.68-.14,1.09s0,.68.14,1.09l10.75,58.77Z"/>
  <path class="cls-1" d="m355.49,91.92h7.21l6.8,1.22,8.84,1.63,1.63.27,16.6,3.13c.41.14.82.14,1.22.14,1.36,0,2.58-.41,3.81-1.22,1.5-.95,2.45-2.58,2.72-4.22l10.88-58.77c.27-1.77,0-3.54-1.09-5.03-.95-1.5-2.59-2.45-4.22-2.72l-7.48-1.36-3.67-.68c-.95-1.63-2.58-2.72-4.63-2.72h-10.2l-1.09-.27-10.61-1.9c-2.45-.41-4.76.41-6.26,2.18h-10.34c-2.31,0-4.35,1.5-5.03,3.54-.14.54-.27,1.09-.27,1.77v59.72c-.14,2.86,2.18,5.31,5.17,5.31Zm.41-8.03l10.88-58.77c.41-2.18,2.45-3.67,4.62-3.26l8.71,1.63,3.54.68,15.51,2.86,3.27.54,6.8,1.22c1.09.14,1.91.82,2.59,1.63.54.82.82,1.9.68,2.99l-10.88,58.77c-.14,1.09-.82,1.9-1.63,2.58-.82.54-1.9.82-2.99.68l-2.58-.41-8.84-1.63-8.3-1.5-.54-.14-17.68-3.26c-2.04-.41-3.54-2.45-3.13-4.63Z"/>
  <path class="cls-1" d="m370.04,59.41c-.82,4.35,2.04,8.57,6.39,9.39,1.77.27,3.4,0,4.9-.68-.54,2.18-1.77,3.94-3.4,5.17l3.4.68,3.4.68c-1.09-1.77-1.63-3.81-1.36-5.99,1.09,1.22,2.58,2.04,4.35,2.31.54.14.95.14,1.5.14,1.09,0,2.18-.27,3.13-.68,2.45-1.09,4.22-3.13,4.76-5.99.95-5.03-2.04-7.75-7.89-16.32-.68-.95-1.09-1.9-1.5-2.58-.68-1.36-.68-2.18-.68-2.18,0,0-.54,1.09-2.45,2.58-.41.27-.82.68-1.36.95-8.57,5.99-12.24,7.48-13.2,12.51Z"/>
  <path class="cls-1" d="m370.04,40.78c.41.14.95,0,1.36-.14-.14.54-.54,1.09-.95,1.36l.95.14.95.14c-.27-.41-.41-1.09-.41-1.63.27.27.68.54,1.22.68,1.22.27,2.31-.54,2.58-1.77.27-1.36-.54-2.18-2.18-4.35-.54-.82-.54-1.22-.54-1.22,0,0-.14.41-.95.95-2.31,1.63-3.27,2.04-3.54,3.4-.41,1.09.27,2.31,1.5,2.45Z"/>
  <path class="cls-1" d="m371.26,31.8h.14l.14-.14.68-1.22,2.45.41.14,1.36v.27l.14.14.68.14h.27s.14-.14,0-.27l-.82-6.67q0-.14-.14-.27s-.14-.14-.27-.14l-.68-.14h-.27s-.14.14-.14.27l-3.13,5.85c-.14.14-.14.27-.14.27h.14l.82.14Zm2.99-5.17l.41,3.26-1.9-.41,1.5-2.86Z"/>
  <path class="cls-1" d="m397.93,75.46l-.95-.14-.95-.14c.27.41.41,1.09.41,1.63-.27-.27-.68-.54-1.22-.68-.68-.14-1.36.14-1.77.41-.41.27-.68.82-.82,1.22-.27,1.22.41,1.9,1.63,3.81.14.14.27.41.41.68.54.82.54,1.22.54,1.22,0,0,.14-.41.95-.95,1.22-.95,2.18-1.36,2.72-1.9.41-.41.68-.82.82-1.36.14-.82-.14-1.63-.82-2.18-.27-.14-.54-.41-.95-.41-.41-.14-.95,0-1.36.14.54-.54.95-1.09,1.36-1.36Z"/>
  <path class="cls-1" d="m397.11,85.67h-.14l-.14.14-.68,1.22-1.63-.27-.95-.14-.14-1.36v-.27l-.14-.14-.68-.14h-.27c-.14,0-.14.14,0,.27l.68,4.9.27,1.77v.14s.14.14.27.14l.68.14h.27s.14-.14.14-.27l.14-.14,3.13-5.71c.14-.14.14-.27.14-.27h-.95Zm-2.99,5.17l-.27-2.31-.14-.95.54.14,1.36.27-1.5,2.86Z"/>
  <path class="cls-1" d="m485.53,110.56s-173.98-29.52-410.27,40.67c0-.14,154.67-70.87,410.27-40.67Z"/>
  <path class="cls-1" d="m249.43,158.59c3.18,0,5.79-.64,7.83-1.93,2.03-1.32,3.39-3.1,4.07-5.34l1.37.61c-.37,1.22-.76,3.49-1.17,6.81-4.17,1.56-8.25,2.34-12.25,2.34-5.56,0-9.96-1.51-13.21-4.52-3.25-3.05-4.88-7.27-4.88-12.65s1.61-9.84,4.83-13.36c3.22-3.56,7.62-5.34,13.21-5.34,1.56,0,3.3.14,5.23.41,1.93.24,3.25.36,3.96.36s1.47-.1,2.29-.3v.76c0,2.47.2,4.86.61,7.16l-1.37.61c-1.36-4.44-4.95-6.66-10.77-6.66-3.39,0-6.3,1.2-8.74,3.61-1.22,1.19-2.19,2.76-2.9,4.73-.68,1.97-1.02,4.08-1.02,6.35s.24,4.27.71,6.1c.47,1.83,1.2,3.52,2.19,5.08.98,1.56,2.34,2.81,4.07,3.76,1.73.95,3.71,1.42,5.95,1.42Zm27.6,2.03c-2.13-.1-4.24-.15-6.3-.15s-4.12.05-6.25.15l-.15-1.47c1.56-.3,2.66-.63,3.3-.97.64-.37,1.07-.88,1.27-1.52l10.11-30.95,4.42-.51,11.84,31.76c.24.58.63,1.02,1.17,1.32.58.27,1.63.56,3.15.86l-.15,1.47c-2.13-.1-4.46-.15-6.96-.15s-4.83.05-6.96.15l-.15-1.47c2.4-.47,3.79-.91,4.17-1.32.2-.17.3-.34.3-.51,0-.2-.93-3.25-2.79-9.15h-11.48l-2.74,9.05c0,.44.34.8,1.02,1.07.68.27,1.8.56,3.35.86l-.15,1.47Zm4.07-30.13h-.2c-.24.81-.54,1.8-.91,2.95-.34,1.12-.86,2.88-1.58,5.28-.71,2.37-1.42,4.74-2.13,7.11h9.96l-5.13-15.35Zm39.65,3.71c-.68-2.47-1.63-4.17-2.85-5.08-1.19-.91-2.74-1.37-4.67-1.37s-3.4.47-4.42,1.42c-1.02.91-1.52,2.05-1.52,3.4,0,2.2,1.14,4.05,3.4,5.54l8.03,5.23c3.52,2.3,5.28,5.03,5.28,8.18,0,2.54-1.02,4.76-3.05,6.66-2,1.86-4.93,2.79-8.79,2.79s-7.23-.61-10.11-1.83c.54-2.78.81-5.27.81-7.47l1.37-.61c.51,2.78,1.3,4.69,2.39,5.74,1.08,1.05,2.76,1.58,5.03,1.58s4.05-.56,5.23-1.68c1.22-1.12,1.83-2.44,1.83-3.96,0-2.07-1.1-3.81-3.3-5.23l-8.13-5.34c-3.12-2.03-4.67-4.64-4.67-7.83,0-2.47.97-4.61,2.9-6.4,1.93-1.83,4.46-2.74,7.57-2.74,1.02,0,2.13.14,3.35.41,1.25.24,2.2.36,2.85.36s1.39-.1,2.24-.3v.76c0,2.47.2,4.86.61,7.16l-1.37.61Zm17.09-5.03c-.27,2-.41,5.62-.41,10.87,0,8.5.1,13.79.3,15.85l.1,1.07c.07.61.39,1.05.97,1.32.58.24,1.69.52,3.35.86l-.15,1.47c-2.13-.1-4.46-.15-6.96-.15s-4.83.05-6.96.15l-.15-1.47c1.73-.34,2.9-.64,3.51-.91s.95-.69,1.02-1.27c.27-2,.41-5.62.41-10.87,0-8.5-.1-13.81-.3-15.91l-.1-1.02c-.07-.61-.37-1.03-.91-1.27-.54-.27-1.63-.58-3.25-.91l.15-1.47c2.13.1,4.37.15,6.71.15s4.57-.05,6.71-.15l.15,1.47c-1.63.34-2.71.64-3.25.91-.54.24-.85.66-.91,1.27Zm36.88,24.59c.07-1.9.1-4.96.1-9.2,0-7.76-.1-12.55-.3-14.38l-.15-1.02c-.1-.81-1-1.39-2.69-1.73-.41-.1-1.1-.25-2.08-.46l.15-1.47c2.13.1,4.23.15,6.3.15s4.22-.05,6.35-.15l.15,1.47c-1.63.34-2.71.64-3.25.91-.54.24-.85.66-.91,1.27-.34,2-.51,5.62-.51,10.87,0,8.03.13,14.19.41,18.5l.15,1.93-4.07.46-20.63-27.75h-.25c-.14,2.98-.2,6.18-.2,9.6,0,6.4.13,10.77.41,13.11l.15,1.07c.1.81,1,1.41,2.69,1.78.41.07,1.1.2,2.08.41l-.15,1.47c-2.13-.1-4.37-.15-6.71-.15s-4.57.05-6.71.15l-.15-1.47c1.8-.34,3.05-.64,3.76-.91.71-.27,1.1-.69,1.17-1.27.27-1.97.41-5.57.41-10.82,0-8.54-.1-13.86-.3-15.96l-.1-1.02c-.07-.61-.37-1.03-.91-1.27-.54-.27-1.63-.58-3.25-.91l.15-1.47c2.13.1,4.66.15,7.57.15l21.09,28.1h.25Zm29.23-26.32c-1.96,0-3.71.39-5.23,1.17-1.52.78-2.73,1.74-3.61,2.9-.88,1.15-1.59,2.46-2.13,3.91-.95,2.44-1.42,4.81-1.42,7.11s.2,4.39.61,6.25c.41,1.83,1.05,3.52,1.93,5.08.88,1.56,2.12,2.78,3.71,3.66,1.59.88,3.37,1.32,5.34,1.32s3.73-.34,5.18-1.02c1.46-.68,2.63-1.52,3.51-2.54.91-1.05,1.68-2.24,2.29-3.56,1.08-2.34,1.66-4.71,1.73-7.11,0-11.45-3.96-17.18-11.89-17.18Zm12.96,27.75c-1.42,1.86-3.35,3.35-5.79,4.47-2.44,1.08-5.27,1.63-8.49,1.63-5.56,0-9.69-1.49-12.4-4.47-2.68-3.01-4.01-7.11-4.01-12.3s1.42-9.69,4.27-13.42c1.42-1.86,3.35-3.34,5.79-4.42,2.44-1.12,5.27-1.68,8.49-1.68,5.56,0,9.67,1.49,12.35,4.47,2.71,2.98,4.07,7.06,4.07,12.25s-1.42,9.67-4.27,13.47Z"/>
</svg>