<svg width="126" height="56" viewBox="0 0 126 56" fill="none" xmlns="http://www.w3.org/2000/svg">
<g clip-path="url(#clip0_413_21045)">
<path d="M7.73817 19.302V19.6942C7.73817 19.6942 7.71417 19.6957 7.67291 19.7032C7.63166 19.71 7.57241 19.7227 7.5019 19.7437C7.43065 19.7647 7.34814 19.7947 7.25963 19.8368C7.17113 19.8788 7.07662 19.9328 6.98211 20.0033C6.8876 20.073 6.7931 20.1593 6.70459 20.2643C6.61608 20.3693 6.53358 20.4938 6.46232 20.6408C6.39107 20.7878 6.33256 20.9581 6.29131 21.1539C6.25006 21.3496 6.22605 21.5724 6.22605 21.8244L5.62376 22.2519L5.02146 22.6795L4.41917 23.107L3.81687 23.5345L3.21458 23.9621L2.61228 24.3896L2.00998 24.8171L1.40769 25.2447H5.60951L5.51875 25.5882L5.42799 25.9317L5.33724 26.2752L5.24648 26.6188L5.15572 26.9623L5.06497 27.3058L4.97421 27.6493L4.88345 27.9929L4.37941 28.4692L3.87538 28.9454L3.37134 29.4217L2.8673 29.898L2.36326 30.3743L1.85922 30.8506L1.35518 31.3269L0.851146 31.8032H11.1562L10.9529 31.5931L10.7496 31.3831L10.5464 31.1731L10.3431 30.9631L10.1399 30.7531L9.93659 30.5431L9.73332 30.333L9.53006 30.123L9.72582 29.0235L9.92159 27.9239L10.1174 26.8243L10.3131 25.7247L10.5089 24.6251L10.7046 23.5255L10.9004 22.4259L11.0962 21.3264L12.2445 22.594L13.3928 23.8616L14.5412 25.1292L15.6895 26.3967L16.8379 27.6643L17.9862 28.9319L19.1345 30.1995L20.2829 31.4671L21.4665 30.1785L22.6501 28.8899L23.8336 27.6013L25.0172 26.3127L26.2008 25.0241L27.3844 23.7355L28.568 22.4469L29.7516 21.1584L29.9894 22.2437L30.2271 23.329L30.4649 24.4143L30.7027 25.4997L30.9404 26.585L31.1782 27.6703L31.416 28.7557L31.6537 29.841L31.479 30.0653L31.3042 30.2895L31.1294 30.5138L30.9547 30.7381L30.7799 30.9623L30.6052 31.1866L30.4304 31.4109L30.2556 31.6351H39.9486L39.4303 31.2009L38.912 30.7666L38.3937 30.3323L37.8755 29.898L37.3572 29.4637L36.8389 29.0295L36.3206 28.5952L35.8023 28.1609L35.7325 27.7896L35.6628 27.4183L35.593 27.0471L35.5233 26.6758L35.4535 26.3045L35.3838 25.9332L35.314 25.5619L35.2443 25.1907L35.7768 25.1629L36.3093 25.1352L36.8419 25.1074L37.3744 25.0796L37.907 25.0519L38.4395 25.0241L38.972 24.9964L39.5046 24.9686L38.93 24.5974L38.3555 24.2261L37.781 23.8548L37.2064 23.4835L36.6319 23.1123L36.0573 22.741L35.4828 22.3697L34.9082 21.9984C34.9082 21.9984 34.9075 21.9639 34.903 21.9047C34.8985 21.8447 34.8902 21.7599 34.8752 21.6571C34.8602 21.5544 34.8392 21.4351 34.8077 21.3069C34.777 21.1786 34.7365 21.0421 34.684 20.9056C34.6315 20.7691 34.567 20.6326 34.4867 20.5043C34.4072 20.376 34.3119 20.2568 34.1987 20.154C34.0862 20.0513 33.9549 19.9665 33.8034 19.9065C33.6519 19.8465 33.4794 19.8127 33.2829 19.8127V19.3087H36.8126L37.3519 18.7694L37.8912 18.2301L38.4305 17.6908L38.9698 17.1515L39.5091 16.6123L40.0484 16.073L40.5877 15.5337L41.127 14.9944H30.6494L29.3676 16.3812L28.0857 17.7681L26.8039 19.155L25.522 20.5418L24.2402 21.9287L22.9583 23.3155L21.6765 24.7024L20.3946 26.0892L19.1968 24.7024L17.999 23.3155L16.8011 21.9287L15.6033 20.5418L14.4054 19.155L13.2076 17.7681L12.0097 16.3812L10.8119 14.9944H0.51062L0.923902 15.5337L1.33718 16.073L1.75046 16.6123L2.16375 17.1515L2.57703 17.6908L2.99031 18.2301L3.40359 18.7694L3.81687 19.3087H7.73892L7.73817 19.302Z" fill="#CD242B"/>
<path d="M4.8527 37.2591H8.11319H11.3729H14.6334H17.8932H21.1537H24.4142H27.6739H30.9344L30.5909 37.6761L30.2481 38.0924L29.9046 38.5094L29.5618 38.9257L29.2183 39.3427L28.8748 39.759L28.532 40.1761L28.1885 40.5923H27.1384H26.0876H25.0375H23.9866H22.9358H21.8857H20.8349H19.7848V40.2143V39.8363V39.4583V39.0802V38.7014V38.3234V37.9454V37.5674L19.2943 38.0016L18.8038 38.4359L18.314 38.8695L17.8234 39.3037L17.3329 39.738L16.8431 40.1723L16.3526 40.6066L15.8628 41.0409V42.9108V44.7807V46.6506V48.5204V50.3903V52.2602V54.1301V56L16.6571 55.2057L17.4522 54.4106L18.2472 53.6156L19.0423 52.8205L19.8366 52.0262L20.6316 51.2312L21.4267 50.4361L22.2218 49.641H21.9097H21.5985H21.2864H20.9752H20.6631H20.3519H20.0399H19.7286V49.0357V48.4297V47.8236V47.2176V46.6123V46.0063V45.4002V44.7949H21.0239H22.32H23.6154H24.9115H26.2068H27.5022H28.7983H30.0936L31.3545 43.345L32.6153 41.8952L33.8754 40.4453L35.1362 38.9962L36.3971 37.5464L37.6572 36.0965L38.918 34.6466L40.1789 33.1968H35.2555H30.3321H25.408H20.4846H15.5613H10.6379H5.71451H0.791138L1.29893 33.7046L1.80671 34.2124L2.31375 34.7201L2.82154 35.2279L3.32933 35.7357L3.83712 36.2435L4.34491 36.7513L4.8527 37.2591Z" fill="#CD242B"/>
<path d="M8.07422 40.7049L8.88353 41.5277L9.69209 42.3505L10.5014 43.1733L11.31 43.9961L12.1193 44.8189L12.9278 45.6425L13.7371 46.4653L14.5457 47.2881V46.052V44.8159V43.5798V42.3437V41.1076V39.8715V38.6354V37.3994L14.0799 37.8119L13.6141 38.2252L13.1484 38.6384L12.6826 39.0517L12.2175 39.465L11.7517 39.8783L11.286 40.2916L10.8202 40.7049H10.4767H10.1339H9.79035H9.44757H9.10405H8.76127H8.41774H8.07422Z" fill="#CD242B"/>
<path d="M13.6734 12.2837C13.6606 12.3032 13.6479 12.3227 13.6351 12.3422C13.6224 12.3617 13.6104 12.3812 13.5976 12.4007C13.5856 12.4202 13.5729 12.4397 13.5609 12.4599C13.5489 12.4794 13.5369 12.4997 13.5249 12.5192C13.5129 12.5394 13.5016 12.5589 13.4896 12.5792C13.4784 12.5994 13.4671 12.6189 13.4559 12.6392C13.4446 12.6594 13.4333 12.6797 13.4228 12.7C13.4116 12.7202 13.4011 12.7405 13.3906 12.7607L12.7575 12.1929L12.1245 11.6251L11.4915 11.0573L10.8584 10.4895L10.2254 9.92174L9.59231 9.35395L8.95926 8.78616L8.32621 8.21836V9.18369L8.92626 9.70273L9.5263 10.2218L10.1263 10.7408L10.7264 11.2598L11.3264 11.7789L11.9265 12.2979L12.5265 12.817L13.1266 13.336C13.1003 13.405 13.0756 13.4748 13.0516 13.5445C13.0283 13.6143 13.0066 13.6855 12.9863 13.756C12.9661 13.8273 12.9473 13.8985 12.9308 13.9705C12.9136 14.0426 12.8986 14.1146 12.8851 14.1881C12.8716 14.2608 12.8596 14.3343 12.8491 14.4078C12.8386 14.4813 12.8303 14.5556 12.8228 14.6299C12.8161 14.7041 12.8108 14.7791 12.8071 14.8541C12.8033 14.9291 12.8018 15.0049 12.8018 15.0806C12.8018 15.0919 12.8018 15.1024 12.8018 15.1136C12.8018 15.1249 12.8018 15.1354 12.8018 15.1466C12.8018 15.1579 12.8018 15.1684 12.8018 15.1796C12.8018 15.1909 12.8018 15.2014 12.8026 15.2126C12.8033 15.2239 12.8026 15.2344 12.8033 15.2449C12.8033 15.2561 12.8041 15.2666 12.8048 15.2771C12.8048 15.2876 12.8056 15.2989 12.8063 15.3094C12.8063 15.3199 12.8071 15.3312 12.8078 15.3417L13.4378 16.0227L14.0679 16.7038L14.6979 17.3848L15.328 18.0659L15.958 18.7469L16.5881 19.428L17.2181 20.109L17.8482 20.7901L18.1775 21.1463L18.5067 21.5026L18.836 21.8589L19.1653 22.2152L19.4946 22.5715L19.8238 22.9277L20.1531 23.284L20.4824 23.6403L20.8034 23.2998L21.1244 22.9592L21.4455 22.6187L21.7665 22.2782L22.0875 21.9377L22.4085 21.5971L22.7296 21.2566L23.0506 20.9161L23.7376 20.187L24.4247 19.458L25.1125 18.7289L25.7995 17.9999L26.4866 17.2708L27.1736 16.5417L27.8614 15.8127L28.5485 15.0836C28.5485 15.0019 28.5462 14.9209 28.5425 14.8406C28.5387 14.7596 28.5327 14.6794 28.5245 14.5998C28.5162 14.5203 28.5065 14.4408 28.4945 14.3613C28.4825 14.2826 28.4682 14.2038 28.4525 14.1258C28.4367 14.0478 28.4187 13.9705 28.3992 13.8933C28.3797 13.816 28.358 13.7395 28.3347 13.6638C28.3115 13.588 28.2867 13.5123 28.2597 13.4373C28.2327 13.3623 28.2042 13.288 28.1735 13.2145L28.7683 12.7007L29.3631 12.1869L29.9579 11.6731L30.5526 11.1593L31.1474 10.6455L31.7422 10.1318L32.337 9.61797L32.9318 9.10418V8.13886L32.3033 8.7029L31.6747 9.26694L31.0462 9.83099L30.4176 10.395L29.7891 10.9591L29.1605 11.5231L28.532 12.0872L27.9034 12.6512C27.8922 12.6309 27.8809 12.6114 27.8697 12.5912C27.8584 12.5717 27.8464 12.5514 27.8352 12.5319C27.8232 12.5124 27.8119 12.4922 27.7999 12.4727C27.7879 12.4532 27.7759 12.4337 27.7639 12.4142C27.7519 12.3947 27.7392 12.3752 27.7272 12.3557C27.7144 12.3362 27.7024 12.3167 27.6897 12.2979C27.6769 12.2784 27.6642 12.2597 27.6514 12.2402C27.6387 12.2207 27.6252 12.2019 27.6124 12.1832L28.2747 11.5854L28.9363 10.9876L29.5986 10.3898L30.2609 9.79198L30.9232 9.19419L31.5855 8.59639L32.247 7.9986L32.9093 7.4008L32.9236 7.13003L32.9378 6.85926L32.9521 6.58849L32.9663 6.31772L32.9806 6.04695L32.9948 5.77618L33.0091 5.50541L33.0233 5.23464H30.9179L30.2984 5.89919L29.6788 6.56374L29.0593 7.22829L28.4397 7.89284L27.8202 8.55739L27.2006 9.22194L26.5811 9.88649L25.9615 10.551C25.939 10.5353 25.9165 10.5195 25.8933 10.5038C25.8708 10.488 25.8475 10.4723 25.8243 10.4573C25.801 10.4415 25.7778 10.4265 25.7545 10.4108C25.7313 10.3958 25.708 10.38 25.684 10.365C25.66 10.35 25.6368 10.335 25.6128 10.32C25.5888 10.305 25.5655 10.29 25.5415 10.2758C25.5175 10.2608 25.4935 10.2465 25.4695 10.2323C25.4455 10.218 25.4208 10.2038 25.3968 10.1895L25.9525 9.56997L26.5083 8.95042L27.0641 8.33087L27.6199 7.71132L28.1757 7.09178L28.7315 6.47223L29.2873 5.85268L29.8431 5.23314H28.8808L28.3767 5.81593L27.8727 6.39872L27.3687 6.98152L26.8646 7.56431L26.3606 8.14711L25.8565 8.7299L25.3525 9.3127L24.8485 9.89549C24.7712 9.85799 24.6925 9.82124 24.6129 9.78523C24.5334 9.74923 24.4532 9.71473 24.3722 9.68097C24.2912 9.64722 24.2094 9.61497 24.1262 9.58347C24.0437 9.55196 23.9596 9.52196 23.8756 9.49271C23.7916 9.46346 23.7061 9.43571 23.6199 9.4087C23.5336 9.3817 23.4474 9.3562 23.3596 9.33145C23.2718 9.3067 23.1841 9.28344 23.0956 9.26094C23.0071 9.23844 22.9171 9.21744 22.8271 9.19794L22.8878 8.36087L22.9486 7.52381L23.0093 6.68675L23.0701 5.84968L23.1308 5.01262L23.1916 4.17556L23.2523 3.33849L23.3131 2.50143L23.2253 2.44217L23.1376 2.38292L23.0498 2.32367L22.9621 2.26441L22.8743 2.20516L22.7866 2.1459L22.6988 2.08665L22.611 2.02739L22.5638 2.91021L22.5158 3.79303L22.4678 4.67584L22.4205 5.55866L22.3733 6.44148L22.3253 7.3243L22.278 8.20711L22.23 9.08993C22.2098 9.08693 22.1895 9.08393 22.17 9.08093C22.1498 9.07793 22.1295 9.07493 22.1093 9.07193C22.089 9.06893 22.0688 9.06593 22.0485 9.06368C22.0282 9.06068 22.008 9.05843 21.9877 9.05543C21.9675 9.05318 21.9472 9.05018 21.927 9.04793C21.9067 9.04568 21.8865 9.04268 21.8662 9.04043C21.846 9.03818 21.8257 9.03592 21.8047 9.03368C21.7845 9.03143 21.7642 9.02917 21.7432 9.02692L21.783 8.0991L21.8227 7.17128L21.8625 6.24346L21.9022 5.31564L21.942 4.38782L21.9817 3.46L22.0215 2.53218L22.0613 1.60436L21.8512 1.40485L21.6412 1.20533L21.4312 1.00582L21.2212 0.8063L21.0112 0.606785L20.8012 0.40727L20.5911 0.207755L20.3811 0.00823975L20.1959 0.214505L20.0106 0.420771L19.8253 0.627037L19.6401 0.833302L19.4548 1.03957L19.2695 1.24583L19.0843 1.4521L18.899 1.65837L18.9463 2.58394L18.9935 3.50951L19.0408 4.43508L19.088 5.36065L19.1353 6.28622L19.1825 7.21179L19.2298 8.13736L19.277 9.06293C19.2545 9.06593 19.2313 9.06968 19.2088 9.07268C19.1863 9.07568 19.1638 9.07943 19.1413 9.08318C19.1188 9.08693 19.0963 9.08993 19.0738 9.09368C19.0513 9.09743 19.0288 9.10118 19.0063 9.10493C18.9838 9.10868 18.9613 9.11243 18.9388 9.11618C18.9163 9.11993 18.8938 9.12443 18.872 9.12818C18.8495 9.13193 18.8278 9.13643 18.8053 9.14093C18.7828 9.14543 18.761 9.14918 18.7385 9.15368L18.6905 8.26262L18.6425 7.3708L18.5945 6.47898L18.5465 5.58791L18.4985 4.69685L18.4505 3.80578L18.4025 2.91471L18.3545 2.02289L18.2667 2.10315L18.179 2.1834L18.0912 2.26366L18.0034 2.34392L17.9157 2.42417L17.8279 2.50443L17.7402 2.58469L17.6524 2.66494L17.7139 3.493L17.7754 4.32107L17.8369 5.14913L17.8984 5.97719L17.9599 6.80526L18.0214 7.63332L18.083 8.46138L18.1445 9.28944C18.0665 9.3097 17.9892 9.33145 17.9119 9.35395C17.8347 9.37645 17.7589 9.3997 17.6832 9.4237C17.6074 9.44771 17.5324 9.47321 17.4582 9.49871C17.3839 9.52496 17.3096 9.55121 17.2361 9.57897C17.1626 9.60672 17.0899 9.63522 17.0186 9.66447C16.9466 9.69373 16.8754 9.72448 16.8049 9.75523C16.7343 9.78598 16.6646 9.81823 16.5948 9.85124C16.5258 9.88424 16.4568 9.91724 16.3893 9.95174L15.8883 9.37195L15.3872 8.79216L14.8862 8.21236L14.3852 7.63257L13.8841 7.05277L13.3831 6.47298L12.8821 5.89319L12.381 5.31339H11.4187L11.973 5.93069L12.5273 6.54799L13.0816 7.16528L13.6359 7.78258L14.1902 8.39988L14.7444 9.01717L15.2987 9.63447L15.853 10.2518C15.829 10.266 15.805 10.281 15.781 10.296C15.757 10.311 15.733 10.326 15.7098 10.341C15.6858 10.356 15.6625 10.371 15.6393 10.386C15.616 10.401 15.5928 10.4168 15.5695 10.4318C15.5463 10.4475 15.523 10.4625 15.5005 10.4783C15.4773 10.494 15.4548 10.5098 15.4323 10.5255C15.4097 10.5413 15.3872 10.557 15.3647 10.5735C15.3422 10.5893 15.3197 10.6058 15.2972 10.6223L14.6784 9.9585L14.0596 9.29544L13.4408 8.63239L12.8221 7.96934L12.2033 7.30629L11.5845 6.64249L10.9657 5.97869L10.3469 5.31564H8.24146L8.25571 5.58641L8.26996 5.85718L8.28421 6.12795L8.29846 6.39872L8.31271 6.6695L8.32696 6.94027L8.34121 7.21104L8.35546 7.48181L9.02076 8.0826L9.68606 8.6834L10.3514 9.28419L11.0167 9.88499L11.682 10.4858L12.3473 11.0866L13.0126 11.6874L13.6771 12.2882L13.6734 12.2837Z" fill="#CD242B"/>
</g>
<path d="M59.0981 11.9467V23.1155H57.6514V15.1667C57.6514 15.0474 57.654 14.9204 57.6592 14.7855C57.6696 14.6507 57.6799 14.5133 57.6903 14.3733L53.9725 21.1944C53.8429 21.4485 53.6433 21.5755 53.3736 21.5755H53.1403C52.8707 21.5755 52.6736 21.4485 52.5492 21.1944L48.7614 14.35C48.7925 14.6404 48.8081 14.9126 48.8081 15.1667V23.1155H47.3536V11.9467H48.5825C48.7277 11.9467 48.8392 11.9622 48.917 11.9933C48.9999 12.0192 49.0777 12.097 49.1503 12.2267L52.8836 18.9155C52.9562 19.0504 53.0236 19.193 53.0859 19.3433C53.1481 19.4937 53.2077 19.6441 53.2647 19.7944C53.3736 19.4885 53.5007 19.193 53.6459 18.9078L57.3092 12.2267C57.3766 12.097 57.4492 12.0192 57.527 11.9933C57.6099 11.9622 57.724 11.9467 57.8692 11.9467H59.0981Z" fill="#1A202C"/>
<path d="M67.7955 18.9544L66.1388 14.6222C66.0195 14.3267 65.9003 13.9533 65.781 13.5022C65.724 13.7252 65.6643 13.9326 65.6021 14.1244C65.5451 14.3163 65.4881 14.4874 65.431 14.6378L63.7821 18.9544H67.7955ZM71.0699 23.1155H69.7943C69.6492 23.1155 69.5299 23.0792 69.4366 23.0067C69.3432 22.9341 69.2758 22.8407 69.2344 22.7267L68.2466 20.1367H63.3232L62.3355 22.7267C62.2992 22.8252 62.2318 22.9159 62.1332 22.9989C62.0347 23.0767 61.9155 23.1155 61.7755 23.1155H60.4999L64.9488 11.9467H66.621L71.0699 23.1155Z" fill="#1A202C"/>
<path d="M81.611 11.9467V23.1155H80.771C80.6414 23.1155 80.5325 23.0922 80.4443 23.0455C80.3614 22.9989 80.2758 22.9237 80.1876 22.82L73.8799 14.6611C73.8902 14.8011 73.898 14.9385 73.9032 15.0733C73.9136 15.2081 73.9188 15.3352 73.9188 15.4544V23.1155H72.4643V11.9467H73.3199C73.4651 11.9467 73.5739 11.9648 73.6465 12.0011C73.7191 12.0322 73.7995 12.1074 73.8876 12.2267L80.211 20.3933C80.1954 20.243 80.1825 20.0978 80.1721 19.9578C80.1669 19.8126 80.1643 19.6778 80.1643 19.5533V11.9467H81.611Z" fill="#1A202C"/>
<path d="M93.5207 11.9467V23.1155H92.6807C92.5511 23.1155 92.4422 23.0922 92.354 23.0455C92.2711 22.9989 92.1855 22.9237 92.0974 22.82L85.7896 14.6611C85.8 14.8011 85.8077 14.9385 85.8129 15.0733C85.8233 15.2081 85.8285 15.3352 85.8285 15.4544V23.1155H84.374V11.9467H85.2296C85.3748 11.9467 85.4837 11.9648 85.5563 12.0011C85.6289 12.0322 85.7092 12.1074 85.7974 12.2267L92.1207 20.3933C92.1051 20.243 92.0922 20.0978 92.0818 19.9578C92.0766 19.8126 92.074 19.6778 92.074 19.5533V11.9467H93.5207Z" fill="#1A202C"/>
<path d="M100.632 18.6978V23.1155H98.9827V18.6978L94.8915 11.9467H96.346C96.4912 11.9467 96.6078 11.983 96.696 12.0555C96.7841 12.123 96.8567 12.2137 96.9138 12.3278L99.3404 16.5044C99.4389 16.6963 99.5271 16.8778 99.6049 17.0489C99.6878 17.22 99.7604 17.3885 99.8227 17.5544C99.8797 17.3885 99.9445 17.22 100.017 17.0489C100.095 16.8778 100.183 16.6963 100.282 16.5044L102.7 12.3278C102.752 12.2344 102.822 12.1489 102.91 12.0711C103.004 11.9881 103.12 11.9467 103.26 11.9467H104.723L100.632 18.6978Z" fill="#1A202C"/>
<path d="M50.737 36.3611C51.157 36.3611 51.5251 36.3067 51.8414 36.1978C52.1629 36.0889 52.4299 35.9359 52.6425 35.7389C52.8603 35.5367 53.0236 35.2981 53.1325 35.0233C53.2414 34.7433 53.2959 34.4348 53.2959 34.0978C53.2959 33.4185 53.0833 32.8844 52.6581 32.4955C52.2381 32.1067 51.5977 31.9122 50.737 31.9122H49.0103V36.3611H50.737ZM50.737 30.6133C51.4525 30.6133 52.0747 30.6963 52.6036 30.8622C53.1325 31.0281 53.5707 31.2641 53.9181 31.57C54.2655 31.8707 54.5222 32.2363 54.6881 32.6667C54.8592 33.097 54.9447 33.5741 54.9447 34.0978C54.9447 34.6215 54.854 35.1037 54.6725 35.5444C54.491 35.98 54.224 36.3559 53.8714 36.6722C53.5188 36.9885 53.0781 37.2348 52.5492 37.4111C52.0255 37.5822 51.4214 37.6678 50.737 37.6678H49.0103V41.7822H47.3536V30.6133H50.737Z" fill="#1A202C"/>
<path d="M61.9317 37.6211L60.2751 33.2889C60.1558 32.9933 60.0366 32.62 59.9173 32.1689C59.8603 32.3918 59.8006 32.5992 59.7384 32.7911C59.6814 32.983 59.6243 33.1541 59.5673 33.3044L57.9184 37.6211H61.9317ZM65.2062 41.7822H63.9306C63.7854 41.7822 63.6662 41.7459 63.5729 41.6733C63.4795 41.6007 63.4121 41.5074 63.3706 41.3933L62.3829 38.8033H57.4595L56.4717 41.3933C56.4354 41.4918 56.368 41.5826 56.2695 41.6655C56.171 41.7433 56.0517 41.7822 55.9117 41.7822H54.6362L59.0851 30.6133H60.7573L65.2062 41.7822Z" fill="#1A202C"/>
<path d="M74.0979 39.3867C74.1912 39.3867 74.2716 39.423 74.339 39.4955L74.9923 40.2111C74.536 40.7504 73.9786 41.1678 73.3201 41.4633C72.6668 41.7589 71.8786 41.9067 70.9557 41.9067C70.1468 41.9067 69.4131 41.7667 68.7546 41.4867C68.1012 41.2067 67.5412 40.8152 67.0746 40.3122C66.6131 39.8092 66.2553 39.2078 66.0012 38.5078C65.7472 37.8078 65.6201 37.0378 65.6201 36.1978C65.6201 35.3578 65.7523 34.5878 66.0168 33.8878C66.2864 33.1878 66.6623 32.5863 67.1446 32.0833C67.6268 31.5804 68.2023 31.1889 68.8712 30.9089C69.5453 30.6289 70.2894 30.4889 71.1034 30.4889C71.8968 30.4889 72.602 30.6185 73.219 30.8778C73.836 31.137 74.3727 31.4818 74.829 31.9122L74.2846 32.6822C74.2483 32.7392 74.2016 32.7859 74.1446 32.8222C74.0927 32.8585 74.0227 32.8767 73.9346 32.8767C73.836 32.8767 73.7194 32.8274 73.5846 32.7289C73.4549 32.6304 73.2812 32.5215 73.0634 32.4022C72.8509 32.2778 72.5864 32.1663 72.2701 32.0678C71.9538 31.9692 71.5597 31.92 71.0879 31.92C70.5331 31.92 70.0249 32.0185 69.5634 32.2155C69.102 32.4074 68.7027 32.6874 68.3657 33.0555C68.0338 33.4185 67.7746 33.867 67.5879 34.4011C67.4064 34.93 67.3157 35.5289 67.3157 36.1978C67.3157 36.877 67.4116 37.4811 67.6034 38.01C67.7953 38.5389 68.0597 38.9874 68.3968 39.3555C68.7338 39.7237 69.1305 40.0037 69.5868 40.1955C70.0431 40.3874 70.5357 40.4833 71.0646 40.4833C71.386 40.4833 71.6738 40.4652 71.9279 40.4289C72.1872 40.3874 72.4231 40.3278 72.6357 40.25C72.8534 40.1722 73.0583 40.0737 73.2501 39.9544C73.442 39.83 73.6312 39.6822 73.8179 39.5111C73.8594 39.4748 73.9034 39.4463 73.9501 39.4255C73.9968 39.3996 74.046 39.3867 74.0979 39.3867Z" fill="#1A202C"/>
<path d="M77.4555 36.1978C77.4555 36.8667 77.5462 37.4655 77.7277 37.9944C77.9092 38.5181 78.1684 38.9641 78.5055 39.3322C78.8425 39.7004 79.2469 39.983 79.7188 40.18C80.1958 40.3718 80.7273 40.4678 81.3132 40.4678C81.8992 40.4678 82.4281 40.3718 82.8999 40.18C83.3769 39.983 83.7814 39.7004 84.1132 39.3322C84.4503 38.9641 84.7095 38.5181 84.891 37.9944C85.0725 37.4655 85.1632 36.8667 85.1632 36.1978C85.1632 35.5341 85.0725 34.9378 84.891 34.4089C84.7095 33.88 84.4503 33.4315 84.1132 33.0633C83.7814 32.6952 83.3769 32.4126 82.8999 32.2155C82.4281 32.0185 81.8992 31.92 81.3132 31.92C80.7273 31.92 80.1958 32.0185 79.7188 32.2155C79.2469 32.4126 78.8425 32.6952 78.5055 33.0633C78.1684 33.4315 77.9092 33.88 77.7277 34.4089C77.5462 34.9378 77.4555 35.5341 77.4555 36.1978ZM87.3955 44.0533H86.0266C85.8244 44.0533 85.6455 44.0248 85.4899 43.9678C85.3344 43.9159 85.1892 43.8174 85.0544 43.6722L83.1721 41.6189C82.6018 41.8055 81.9821 41.8989 81.3132 41.8989C80.4888 41.8989 79.7343 41.7589 79.0499 41.4789C78.3706 41.1989 77.7873 40.8074 77.2999 40.3044C76.8177 39.7963 76.4418 39.1948 76.1721 38.5C75.9025 37.8 75.7677 37.0326 75.7677 36.1978C75.7677 35.3681 75.9025 34.6033 76.1721 33.9033C76.4418 33.2033 76.8177 32.6018 77.2999 32.0989C77.7873 31.5907 78.3706 31.1967 79.0499 30.9167C79.7343 30.6315 80.4888 30.4889 81.3132 30.4889C82.1429 30.4889 82.8973 30.6315 83.5766 30.9167C84.2558 31.1967 84.8392 31.5907 85.3266 32.0989C85.814 32.6018 86.1899 33.2033 86.4543 33.9033C86.724 34.6033 86.8588 35.3681 86.8588 36.1978C86.8588 36.7163 86.8044 37.2115 86.6955 37.6833C86.5918 38.15 86.4414 38.5855 86.2444 38.99C86.0473 39.3944 85.8036 39.7626 85.5132 40.0944C85.2281 40.4263 84.904 40.7167 84.541 40.9655L87.3955 44.0533Z" fill="#1A202C"/>
<path d="M93.2869 40.4522C93.7328 40.4522 94.1321 40.377 94.4847 40.2267C94.8373 40.0763 95.1354 39.8663 95.3791 39.5967C95.6228 39.3218 95.8095 38.9978 95.9391 38.6244C96.0687 38.2459 96.1335 37.8285 96.1335 37.3722V30.6133H97.7824V37.3722C97.7824 38.0255 97.6787 38.6296 97.4713 39.1844C97.2639 39.7392 96.9658 40.2189 96.5769 40.6233C96.188 41.0278 95.7161 41.3441 95.1613 41.5722C94.6065 41.8004 93.9817 41.9144 93.2869 41.9144C92.5921 41.9144 91.9673 41.8004 91.4124 41.5722C90.8576 41.3441 90.3858 41.0278 89.9969 40.6233C89.608 40.2189 89.3098 39.7392 89.1024 39.1844C88.895 38.6296 88.7913 38.0255 88.7913 37.3722V30.6133H90.448V37.3644C90.448 37.8207 90.5102 38.2381 90.6347 38.6167C90.7643 38.9952 90.951 39.3218 91.1947 39.5967C91.4384 39.8663 91.7365 40.0763 92.0891 40.2267C92.4417 40.377 92.841 40.4522 93.2869 40.4522Z" fill="#1A202C"/>
<path d="M102.065 41.7822H100.401V30.6133H102.065V41.7822Z" fill="#1A202C"/>
<path d="M110.756 37.6211L109.099 33.2889C108.98 32.9933 108.86 32.62 108.741 32.1689C108.684 32.3918 108.624 32.5992 108.562 32.7911C108.505 32.983 108.448 33.1541 108.391 33.3044L106.742 37.6211H110.756ZM114.03 41.7822H112.754C112.609 41.7822 112.49 41.7459 112.397 41.6733C112.303 41.6007 112.236 41.5074 112.194 41.3933L111.207 38.8033H106.283L105.296 41.3933C105.259 41.4918 105.192 41.5826 105.093 41.6655C104.995 41.7433 104.876 41.7822 104.736 41.7822H103.46L107.909 30.6133H109.581L114.03 41.7822Z" fill="#1A202C"/>
<path d="M125.527 36.1978C125.527 37.0326 125.392 37.8 125.123 38.5C124.858 39.1948 124.482 39.7963 123.995 40.3044C123.508 40.8074 122.924 41.1989 122.245 41.4789C121.566 41.7589 120.811 41.8989 119.982 41.8989C119.157 41.8989 118.403 41.7589 117.718 41.4789C117.039 41.1989 116.456 40.8074 115.968 40.3044C115.486 39.7963 115.11 39.1948 114.841 38.5C114.571 37.8 114.436 37.0326 114.436 36.1978C114.436 35.3681 114.571 34.6033 114.841 33.9033C115.11 33.2033 115.486 32.6018 115.968 32.0989C116.456 31.5907 117.039 31.1967 117.718 30.9167C118.403 30.6315 119.157 30.4889 119.982 30.4889C120.811 30.4889 121.566 30.6315 122.245 30.9167C122.924 31.1967 123.508 31.5907 123.995 32.0989C124.482 32.6018 124.858 33.2033 125.123 33.9033C125.392 34.6033 125.527 35.3681 125.527 36.1978ZM123.832 36.1978C123.832 35.5341 123.741 34.9378 123.559 34.4089C123.378 33.88 123.119 33.4315 122.782 33.0633C122.45 32.6952 122.045 32.4126 121.568 32.2155C121.096 32.0185 120.568 31.92 119.982 31.92C119.396 31.92 118.864 32.0185 118.387 32.2155C117.915 32.4126 117.511 32.6952 117.174 33.0633C116.837 33.4315 116.578 33.88 116.396 34.4089C116.215 34.9378 116.124 35.5341 116.124 36.1978C116.124 36.8667 116.215 37.4655 116.396 37.9944C116.578 38.5181 116.837 38.9641 117.174 39.3322C117.511 39.7004 117.915 39.983 118.387 40.18C118.864 40.3718 119.396 40.4678 119.982 40.4678C120.568 40.4678 121.096 40.3718 121.568 40.18C122.045 39.983 122.45 39.7004 122.782 39.3322C123.119 38.9641 123.378 38.5181 123.559 37.9944C123.741 37.4655 123.832 36.8667 123.832 36.1978Z" fill="#1A202C"/>
<defs>
<clipPath id="clip0_413_21045">
<rect width="40.6208" height="56" fill="white" transform="translate(0.51062)"/>
</clipPath>
</defs>
</svg>
