<svg width="181" height="56" viewBox="0 0 181 56" fill="none" xmlns="http://www.w3.org/2000/svg">
<path d="M54.6668 12.4961H51.8003V15.3626H54.6668V12.4961Z" fill="#FF6E00"/>
<path d="M28.1822 15.8018H25.3157V18.6683H28.1822V15.8018Z" fill="#6414E6"/>
<path d="M31.4974 42.2959H28.6309V45.1624H31.4974V42.2959Z" fill="#19BEE6"/>
<path d="M48.0433 35.6719H45.1768V38.5384H48.0433V35.6719Z" fill="#E619DC"/>
<path d="M67.3821 19.1191H64.5156V21.9856H67.3821V19.1191Z" fill="#E61973"/>
<path d="M74.0052 12.4961H71.1387V15.3626H74.0052V12.4961Z" fill="#FFB919"/>
<path d="M70.6902 38.9775H67.8237V41.844H70.6902V38.9775Z" fill="#1987E6"/>
<path d="M90.5589 42.2959H87.6924V45.1624H90.5589V42.2959Z" fill="#FF4B00"/>
<path d="M97.1819 25.7432H94.3154V28.6097H97.1819V25.7432Z" fill="#14E691"/>
<path d="M97.1819 35.6719H94.3154V38.5384H97.1819V35.6719Z" fill="#FF1928"/>
<path fill-rule="evenodd" clip-rule="evenodd" d="M34.8053 12.4961H31.9388V15.3626H34.8053V12.4961ZM31.5387 12.4961H28.6232V15.3626H31.4978L31.5387 12.4961ZM35.2871 15.3626H38.1618V12.4961H35.2463L35.2871 15.3626ZM41.4285 12.4961H38.562V15.3626H41.4285V12.4961ZM44.736 12.4961H41.8695V15.3626H44.736V12.4961ZM51.3591 12.4961H48.4926V15.3626H51.3591V12.4961ZM28.6232 18.6782H31.4978V15.8036H28.6232V18.6782ZM25.3565 21.9449H28.1822V19.1192H25.3157L25.3565 21.9449ZM28.664 21.9449H31.4978V19.1192H28.6232L28.664 21.9449ZM25.3157 25.3014H28.1822V22.4267H25.3157V25.3014ZM28.6232 25.3014H31.4978V22.4267H28.6232V25.3014ZM25.3157 28.6089H28.1822V25.7424H25.3157V28.6089ZM28.6232 28.6089H31.4978V25.7424H28.6232V28.6089ZM25.3157 31.9164H28.1822V29.0499H25.3157V31.9164ZM28.6232 31.9164H31.4978V29.0499H28.6232V31.9164ZM25.3157 35.232H28.1822V32.3574H25.3157V35.232ZM28.6232 35.232H31.4978V32.3574H28.6232V35.232ZM25.3157 38.5395H28.1822V35.673H25.3157V38.5395ZM28.6232 38.5395H31.4978V35.673H28.6232V38.5395ZM31.9388 35.232H34.8053V32.3574H31.9388V35.232ZM31.9388 38.5395H34.8053V35.673H31.9388V38.5395ZM35.2463 35.232H38.121V32.3574H35.2463V35.232ZM35.2463 38.5395H38.121V35.673H35.2463V38.5395ZM38.562 35.232H41.4285V32.3574H38.562V35.232ZM38.562 38.5395H41.4285V35.673H38.562V38.5395ZM41.8695 35.232H44.736V32.3574H41.8695V35.232ZM41.8695 38.5395H44.736V35.673H41.8695V38.5395ZM48.4926 35.232H51.3591V32.3574H48.4926V35.232ZM25.3157 41.847H28.1822V38.9805H25.3157V41.847ZM25.3157 45.1627H28.1822V42.2962H25.3157V45.1627ZM28.6232 41.896H31.4978V38.9805H28.6232V41.896ZM31.9388 18.6782H34.8053V15.8036H31.9388V18.6782ZM35.2463 18.6782H38.121V15.8036H35.2463V18.6782ZM38.562 18.6782H41.4285V15.8036H38.562V18.6782ZM41.8695 18.6782H44.736V15.8036H41.8695V18.6782ZM45.177 15.3626H48.0516V12.4961H45.177V15.3626ZM45.177 35.232H48.0516V32.3574H45.177V35.232ZM45.177 18.6782H48.0516V15.8036H45.177V18.6782ZM48.4926 18.6782H51.3591V15.8036H48.4926V18.6782ZM51.8001 18.6782H54.7156V15.8036H51.8001V18.6782ZM48.4926 21.9449H51.3591V19.1192H48.4926V21.9449ZM51.8001 21.9449H54.7156V19.1192H51.8001V21.9449ZM55.1158 19.0784V21.9449H57.9823V19.1192L55.1158 19.0784ZM51.8001 25.2606H54.7156V22.4267H51.8001V25.2606ZM55.1158 25.2606H57.9823V22.4267H55.1158V25.2606ZM51.8001 28.5681H54.7156V25.7424H51.8001V28.5681ZM55.1158 28.5681H57.9823V25.7424H55.1158V28.5681ZM51.8001 31.8755H54.7156V29.0499H51.8001V31.8755ZM51.8001 35.1912H54.7156V32.3574H51.8001V35.1912ZM48.4926 31.8755H51.3591V29.0499H48.4926V31.8755ZM55.1158 31.8755H57.9823V29.0499H55.1158V31.8755Z" fill="#BDBDBD"/>
<path fill-rule="evenodd" clip-rule="evenodd" d="M64.5156 25.3014H67.3821V22.4267H64.5156V25.3014ZM64.5156 28.6089H67.3821V25.7424H64.5156V28.6089ZM64.5156 31.9164H67.3821V29.0499H64.5156V31.9164ZM64.5156 35.232H67.3821V32.3574H64.5156V35.232ZM64.5156 38.5395H67.3821V35.673H64.5156V38.5395ZM67.7823 21.9857H70.6569V19.1192H67.8231L67.7823 21.9857ZM67.7823 18.7191H70.6569V15.8036H67.8231L67.7823 18.7191ZM71.0979 21.9857H73.9644V19.1192H71.1388L71.0979 21.9857ZM71.0979 18.7191H73.9644V15.8036H71.1388L71.0979 18.7191ZM77.2801 15.8444H74.4463V18.6782H77.3209L77.2801 15.8444ZM74.4054 15.4034H77.2801V12.4961H74.4463L74.4054 15.4034ZM77.7211 18.7191H80.5876V15.8036H77.7619L77.7211 18.7191ZM77.7211 15.4034H80.5876V12.4961H77.7619L77.7211 15.4034ZM80.9877 18.7191H83.8542V15.8036H81.0694L80.9877 18.7191ZM83.9359 12.4961H81.0694V15.3626H83.9359V12.4961ZM87.2516 15.8036H84.3769V18.6782H87.2516V15.8036ZM84.3769 15.3626H87.2516V12.4961H84.3769V15.3626ZM67.8231 25.3014H70.6978V22.4267H67.8231V25.3014ZM67.8231 28.6089H70.6978V25.7424H67.8231V28.6089ZM67.8231 31.9164H70.6978V29.0499H67.8231V31.9164ZM81.0694 28.6089H83.9359V25.7424H81.0694V28.6089ZM81.0694 31.9164H83.9359V29.0499H81.0694V31.9164ZM87.2516 25.7424H84.3769V28.6089H87.2516V25.7424ZM87.2516 29.0499H84.3769V31.9164H87.2516V29.0499ZM87.6926 28.6089H90.5591V25.7424H87.6926V28.6089ZM87.6926 31.9164H90.5591V29.0499H87.6926V31.9164ZM87.6926 38.5395H90.5591V35.673H87.6926V38.5395ZM91.0001 28.6089H93.9155V25.7424H91.0001V28.6089ZM91.0001 31.9164H93.9155V29.0499H91.0001V31.9164ZM87.6926 18.6782H90.5591V15.8036H87.6926V18.6782ZM87.6926 21.9449H90.5591V19.1192H87.6926V21.9449ZM91.0001 18.6782H93.9155V15.8036H91.0001V18.6782ZM91.0001 21.9449H93.9155V19.1192H91.0001V21.9449ZM67.8231 35.232H70.6978V32.3574H67.8231V35.232ZM67.8231 38.5395H70.6978V35.673H67.8231V38.5395ZM71.1388 38.5395H74.0053V35.673H71.1388V38.5395ZM71.1388 41.8552H74.0053V38.9805H71.1388V41.8552ZM71.1388 45.1218H74.0053V42.2962H71.1388V45.1218ZM77.3209 38.9397H74.4463V41.896H77.3209V38.9397ZM74.4463 45.1627H77.3209V42.2962H74.4463V45.1627ZM77.7619 41.896H80.6284V38.9805H77.7619V41.896ZM77.7619 45.1627H80.6284V42.2962H77.7619V45.1627ZM81.0286 41.896H83.8951V38.9805H81.0694L81.0286 41.896ZM81.0286 45.1627H83.8951V42.2962H81.0694L81.0286 45.1627ZM87.2107 38.9805H84.3769V41.896H87.2516L87.2107 38.9805ZM84.3769 45.1627H87.2516V42.2962H84.3769V45.1627ZM87.6926 41.896H90.5591V38.9805H87.6926V41.896ZM91.0001 41.896H93.9155V38.9805H91.0001V41.896ZM91.0001 35.2729H93.9155V32.3574H91.0001V35.2729ZM91.0001 38.5804H93.9155V35.673H91.0001V38.5804ZM94.3157 29.0907V31.9572H97.1822V29.0499L94.3157 29.0907ZM94.3157 35.2729H97.1822V32.3574H94.3157V35.2729Z" fill="#BDBDBD"/>
<path d="M109.302 12.4961H103.716V21.4304H105.945V18.0739H109.302V16.9632H110.421V13.6149H109.302V12.4961ZM108.183 15.8444H105.945V14.7256H108.183V15.8444ZM112.65 21.4304H117.117V20.3116H118.236V13.6149H117.117V12.4961H112.65V13.6149H111.531V20.3116H112.65V21.4304ZM113.761 14.7256H115.966V19.1927H113.761V14.7256ZM120.466 21.4304H124.949V20.3116H126.068V18.0739H123.83V19.1927H121.601V14.7256H123.83V15.8444H126.068V13.6149H124.949V12.4961H120.482V13.6149H119.363V20.3116H120.482L120.466 21.4304ZM129.4 18.0739H131.629V21.4304H133.867V18.0739H132.748V15.8444H133.867V12.4961H131.629V15.8444H129.4V12.4961H127.162V21.4304H129.4V18.0739ZM141.65 19.1927H137.199V18.0739H140.547V15.8444H137.199V14.7256H141.666V12.4961H134.961V21.4304H141.666L141.65 19.1927ZM142.801 12.4961V14.7256H145.031V21.4304H147.26V14.7256H149.498V12.4961H142.801ZM107.064 29.9482H108.183V31.067H105.945V26.5917H109.302V24.3622H104.835V25.4811H103.716V32.1777H104.835V33.2965H109.302V32.1777H110.421V27.7106H107.064V29.9482ZM117.117 24.3622H112.65V25.4811H111.531V33.2965H113.761V31.067H115.966V33.2965H118.203V25.4811H117.085L117.117 24.3622ZM115.966 28.8294H113.761V26.5917H115.966V28.8294ZM124.949 26.5917H123.83V27.7106H122.72V26.5917H121.601V25.4811H120.482V24.3622H119.363V33.2965H121.601V29.9482H122.72V31.067H123.83V29.9482H124.949V33.2965H127.179V24.3622H126.068V25.4811H124.949V26.5917ZM128.297 33.2965H134.994V31.067H130.527V29.9482H133.883V27.7106H130.527V26.5917H134.994V24.3622H128.297V33.2965ZM137.199 25.4811H136.08V28.8294H137.199V29.9482H140.547V31.067H136.08V33.2965H141.666V32.1777H142.785V28.8294H141.666V27.7106H138.31V26.5917H142.785V24.3622H137.199V25.4811ZM104.835 37.3472H103.716V40.6955H104.835V41.8144H108.183V42.9332H103.716V45.1627H109.302V44.0438H110.421V40.6955H109.302V39.5849H105.945V38.466H110.421V36.2284H104.835V37.3472ZM117.085 36.2284H112.617V37.3472H111.499V44.0438H112.617V45.1627H117.085V44.0438H118.203V37.3472H117.085V36.2284ZM115.966 42.9332H113.761V38.466H115.966V42.9332ZM119.314 45.1627H121.552V41.8144H124.949V39.5849H121.601V38.466H126.068V36.2284H119.363L119.314 45.1627ZM127.13 38.466H129.367V45.1627H131.597V38.466H133.834V36.2284H127.13V38.466Z" fill="#BDBDBD"/>
<path d="M152.715 16.2854V13.0678H151.735V12.4961H154.185V13.0678H153.246V16.2854H152.715ZM154.749 16.2854V12.4961H155.394L156.627 14.9461L157.819 12.4961H158.432V16.2854H157.844V13.6966L156.946 15.5504H156.284L155.312 13.6231V16.2854H154.749Z" fill="#BDBDBD"/>
</svg>
