<svg width="32" height="32" viewBox="0 0 32 32" fill="none" xmlns="http://www.w3.org/2000/svg">
<g clip-path="url(#clip0_11920_71904)">
<path d="M13.1778 9.33301H11.8909V10.62H13.1778V9.33301Z" fill="#FF6E00"/>
<path d="M1.28697 10.8164H0V12.1034H1.28697V10.8164Z" fill="#6414E6"/>
<path d="M2.77549 22.7119H1.48853V23.9989H2.77549V22.7119Z" fill="#19BEE6"/>
<path d="M10.204 19.7383H8.91699V21.0252H10.204V19.7383Z" fill="#E619DC"/>
<path d="M18.8866 12.3066H17.5996V13.5936H18.8866V12.3066Z" fill="#E61973"/>
<path d="M21.8602 9.33301H20.5732V10.62H21.8602V9.33301Z" fill="#FFB919"/>
<path d="M20.3712 21.2227H19.0842V22.5096H20.3712V21.2227Z" fill="#1987E6"/>
<path d="M29.2923 22.7119H28.0054V23.9989H29.2923V22.7119Z" fill="#FF4B00"/>
<path d="M32.2655 15.2803H30.9785V16.5672H32.2655V15.2803Z" fill="#14E691"/>
<path d="M32.2655 19.7383H30.9785V21.0252H32.2655V19.7383Z" fill="#FF1928"/>
<path fill-rule="evenodd" clip-rule="evenodd" d="M4.26105 9.33301H2.97408V10.62H4.26105V9.33301ZM2.79442 9.33301H1.48545V10.62H2.77609L2.79442 9.33301ZM4.47738 10.62H5.76801V9.33301H4.45904L4.47738 10.62ZM7.23464 9.33301H5.94767V10.62H7.23464V9.33301ZM8.71961 9.33301H7.43264V10.62H8.71961V9.33301ZM11.6932 9.33301H10.4062V10.62H11.6932V9.33301ZM1.48545 12.1086H2.77609V10.818H1.48545V12.1086ZM0.0188212 13.5752H1.28746V12.3066H0.000488281L0.0188212 13.5752ZM1.50378 13.5752H2.77609V12.3066H1.48545L1.50378 13.5752ZM0.000488281 15.0822H1.28746V13.7916H0.000488281V15.0822ZM1.48545 15.0822H2.77609V13.7916H1.48545V15.0822ZM0.000488281 16.5672H1.28746V15.2802H0.000488281V16.5672ZM1.48545 16.5672H2.77609V15.2802H1.48545V16.5672ZM0.000488281 18.0521H1.28746V16.7652H0.000488281V18.0521ZM1.48545 18.0521H2.77609V16.7652H1.48545V18.0521ZM0.000488281 19.5408H1.28746V18.2501H0.000488281V19.5408ZM1.48545 19.5408H2.77609V18.2501H1.48545V19.5408ZM0.000488281 21.0257H1.28746V19.7387H0.000488281V21.0257ZM1.48545 21.0257H2.77609V19.7387H1.48545V21.0257ZM2.97408 19.5408H4.26105V18.2501H2.97408V19.5408ZM2.97408 21.0257H4.26105V19.7387H2.97408V21.0257ZM4.45904 19.5408H5.74968V18.2501H4.45904V19.5408ZM4.45904 21.0257H5.74968V19.7387H4.45904V21.0257ZM5.94767 19.5408H7.23464V18.2501H5.94767V19.5408ZM5.94767 21.0257H7.23464V19.7387H5.94767V21.0257ZM7.43264 19.5408H8.71961V18.2501H7.43264V19.5408ZM7.43264 21.0257H8.71961V19.7387H7.43264V21.0257ZM10.4062 19.5408H11.6932V18.2501H10.4062V19.5408ZM0.000488281 22.5107H1.28746V21.2237H0.000488281V22.5107ZM0.000488281 23.9993H1.28746V22.7123H0.000488281V23.9993ZM1.48545 22.5327H2.77609V21.2237H1.48545V22.5327ZM2.97408 12.1086H4.26105V10.818H2.97408V12.1086ZM4.45904 12.1086H5.74968V10.818H4.45904V12.1086ZM5.94767 12.1086H7.23464V10.818H5.94767V12.1086ZM7.43264 12.1086H8.71961V10.818H7.43264V12.1086ZM8.9176 10.62H10.2082V9.33301H8.9176V10.62ZM8.9176 19.5408H10.2082V18.2501H8.9176V19.5408ZM8.9176 12.1086H10.2082V10.818H8.9176V12.1086ZM10.4062 12.1086H11.6932V10.818H10.4062V12.1086ZM11.8912 12.1086H13.2002V10.818H11.8912V12.1086ZM10.4062 13.5752H11.6932V12.3066H10.4062V13.5752ZM11.8912 13.5752H13.2002V12.3066H11.8912V13.5752ZM13.3798 12.2883V13.5752H14.6668V12.3066L13.3798 12.2883ZM11.8912 15.0639H13.2002V13.7916H11.8912V15.0639ZM13.3798 15.0639H14.6668V13.7916H13.3798V15.0639ZM11.8912 16.5488H13.2002V15.2802H11.8912V16.5488ZM13.3798 16.5488H14.6668V15.2802H13.3798V16.5488ZM11.8912 18.0338H13.2002V16.7652H11.8912V18.0338ZM11.8912 19.5224H13.2002V18.2501H11.8912V19.5224ZM10.4062 18.0338H11.6932V16.7652H10.4062V18.0338ZM13.3798 18.0338H14.6668V16.7652H13.3798V18.0338Z" fill="#BDBDBD"/>
<path fill-rule="evenodd" clip-rule="evenodd" d="M17.5999 15.0822H18.8868V13.7916H17.5999V15.0822ZM17.5999 16.5672H18.8868V15.2802H17.5999V16.5672ZM17.5999 18.0521H18.8868V16.7652H17.5999V18.0521ZM17.5999 19.5408H18.8868V18.2501H17.5999V19.5408ZM17.5999 21.0257H18.8868V19.7387H17.5999V21.0257ZM19.0665 13.5936H20.3571V12.3066H19.0848L19.0665 13.5936ZM19.0665 12.1269H20.3571V10.818H19.0848L19.0665 12.1269ZM20.5551 13.5936H21.8421V12.3066H20.5734L20.5551 13.5936ZM20.5551 12.1269H21.8421V10.818H20.5734L20.5551 12.1269ZM23.3307 10.8363H22.0584V12.1086H23.349L23.3307 10.8363ZM22.0401 10.6383H23.3307V9.33301H22.0584L22.0401 10.6383ZM23.5287 12.1269H24.8157V10.818H23.547L23.5287 12.1269ZM23.5287 10.6383H24.8157V9.33301H23.547L23.5287 10.6383ZM24.9953 12.1269H26.2823V10.818H25.032L24.9953 12.1269ZM26.319 9.33301H25.032V10.62H26.319V9.33301ZM27.8076 10.818H26.517V12.1086H27.8076V10.818ZM26.517 10.62H27.8076V9.33301H26.517V10.62ZM19.0848 15.0822H20.3755V13.7916H19.0848V15.0822ZM19.0848 16.5672H20.3755V15.2802H19.0848V16.5672ZM19.0848 18.0521H20.3755V16.7652H19.0848V18.0521ZM25.032 16.5672H26.319V15.2802H25.032V16.5672ZM25.032 18.0521H26.319V16.7652H25.032V18.0521ZM27.8076 15.2802H26.517V16.5672H27.8076V15.2802ZM27.8076 16.7652H26.517V18.0521H27.8076V16.7652ZM28.0056 16.5672H29.2926V15.2802H28.0056V16.5672ZM28.0056 18.0521H29.2926V16.7652H28.0056V18.0521ZM28.0056 21.0257H29.2926V19.7387H28.0056V21.0257ZM29.4906 16.5672H30.7995V15.2802H29.4906V16.5672ZM29.4906 18.0521H30.7995V16.7652H29.4906V18.0521ZM28.0056 12.1086H29.2926V10.818H28.0056V12.1086ZM28.0056 13.5752H29.2926V12.3066H28.0056V13.5752ZM29.4906 12.1086H30.7995V10.818H29.4906V12.1086ZM29.4906 13.5752H30.7995V12.3066H29.4906V13.5752ZM19.0848 19.5408H20.3755V18.2501H19.0848V19.5408ZM19.0848 21.0257H20.3755V19.7387H19.0848V21.0257ZM20.5734 21.0257H21.8604V19.7387H20.5734V21.0257ZM20.5734 22.5143H21.8604V21.2237H20.5734V22.5143ZM20.5734 23.981H21.8604V22.7123H20.5734V23.981ZM23.349 21.2054H22.0584V22.5327H23.349V21.2054ZM22.0584 23.9993H23.349V22.7123H22.0584V23.9993ZM23.547 22.5327H24.834V21.2237H23.547V22.5327ZM23.547 23.9993H24.834V22.7123H23.547V23.9993ZM25.0137 22.5327H26.3006V21.2237H25.032L25.0137 22.5327ZM25.0137 23.9993H26.3006V22.7123H25.032L25.0137 23.9993ZM27.7893 21.2237H26.517V22.5327H27.8076L27.7893 21.2237ZM26.517 23.9993H27.8076V22.7123H26.517V23.9993ZM28.0056 22.5327H29.2926V21.2237H28.0056V22.5327ZM29.4906 22.5327H30.7995V21.2237H29.4906V22.5327ZM29.4906 19.5591H30.7995V18.2501H29.4906V19.5591ZM29.4906 21.044H30.7995V19.7387H29.4906V21.044ZM30.9792 16.7835V18.0705H32.2662V16.7652L30.9792 16.7835ZM30.9792 19.5591H32.2662V18.2501H30.9792V19.5591Z" fill="#BDBDBD"/>
</g>
<defs>
<clipPath id="clip0_11920_71904">
<rect width="32" height="32" fill="white"/>
</clipPath>
</defs>
</svg>
