<svg width="130" height="56" viewBox="0 0 130 56" fill="none" xmlns="http://www.w3.org/2000/svg">
<path d="M35.1325 22.3778C33.2043 17.5867 25.2987 16.6089 16.7181 19.64L12.8617 17.1956C11.7048 16.5111 10.3551 17.3911 10.2587 18.76V22.6711C2.83508 27.1689 -1.40697 33.6222 0.424828 38.2178C2.54585 43.4978 11.9941 44.1822 21.6351 39.7822C31.1797 35.48 37.2535 27.6578 35.1325 22.3778ZM14.0187 20.2267L23.1776 26.0933C23.8525 26.4844 23.9489 27.56 23.1776 28.0489L13.9223 33.72C13.2474 34.1111 12.1869 33.6222 12.2833 32.6444V21.3022C12.2833 20.4222 13.2474 19.8356 14.0187 20.2267ZM9.19816 41.5422C5.05252 41.2489 3.41354 38.4133 4.47406 34.6C4.47406 35.1867 4.57047 35.8711 4.76329 36.36C6.40226 40.4667 13.7294 40.9556 21.0566 37.6311C21.2494 37.5333 21.3458 37.5333 21.5387 37.4356C17.393 40.1733 12.7653 41.7378 9.19816 41.5422ZM26.4556 31.1778C22.792 35.9689 16.1397 39.2933 11.6084 38.9022C7.07713 38.5111 6.40226 34.4044 10.0658 29.6133C10.1623 29.5156 10.2587 29.4178 10.2587 29.32V35.2844C10.2587 36.8489 11.7048 37.5333 12.6689 36.9467L26.2628 28.5378C27.3233 27.8533 27.2269 26.2889 26.1663 25.7022L20.7674 22.4756C22.2135 21.9867 23.6597 21.7911 24.913 21.8889C29.5407 22.28 30.2156 26.4844 26.4556 31.1778ZM31.5653 24.3333C31.5653 24.2356 31.5653 24.2356 31.4689 24.1378C30.1192 20.9111 25.2022 19.8356 19.4176 21.4L18.4535 20.8133C21.2494 19.5422 24.1417 18.9556 26.4556 19.0533C30.1192 19.3467 31.8546 21.4 31.5653 24.3333Z" fill="#0082C2"/>
<path d="M129.711 32.6445C129.229 33.3289 128.65 33.8178 128.265 34.1111C127.783 34.5022 127.397 34.7956 127.204 34.7956C127.108 34.7956 126.915 34.6 126.818 34.5022C126.722 34.4045 126.626 34.3067 126.626 34.2089C126.626 34.0133 126.626 33.8178 126.722 33.6222C126.722 33.4267 126.818 33.2311 126.818 33.0356L129.518 23.7467C129.614 23.4533 129.614 23.2578 129.711 22.9645C129.711 22.7689 129.807 22.5733 129.807 22.3778C129.807 21.8889 129.711 21.4978 129.422 21.2045C129.132 21.0089 128.843 20.8133 128.361 20.8133C127.397 20.8133 126.144 21.4 124.505 22.4756C122.866 23.5511 121.13 25.1156 119.202 27.0711L122.962 13.3822H121.998C121.227 13.6756 120.455 13.9689 119.588 14.0667C118.72 14.2622 117.756 14.36 116.792 14.36L116.599 15.24H117.852C118.624 15.24 119.106 15.3378 119.298 15.4356C119.491 15.5333 119.588 15.8267 119.588 16.12C119.588 16.2178 119.588 16.3156 119.588 16.5111C119.588 16.6089 119.588 16.8045 119.491 16.9022L115.828 30.2978C114.382 32.4489 113.128 33.5245 112.357 34.0133C111.586 34.5022 110.814 34.8933 109.947 34.8933C108.886 34.8933 108.115 34.4045 107.44 33.72C106.862 33.0356 106.572 32.0578 106.572 30.8845C106.572 29.8089 106.765 28.7333 107.151 27.6578C107.536 26.5822 108.019 25.5067 108.79 24.5289C109.368 23.7467 110.043 23.0622 110.814 22.5733C111.586 22.0845 112.357 21.8889 113.032 21.8889C113.417 21.8889 113.707 21.9867 113.9 22.0845C114.092 22.1822 114.189 22.3778 114.189 22.5733C114.189 22.6711 114.092 22.9645 113.9 23.3556C113.707 23.7467 113.61 24.1378 113.61 24.4311C113.61 24.92 113.707 25.2133 113.996 25.5067C114.285 25.8 114.574 25.8978 114.96 25.8978C115.442 25.8978 115.924 25.7022 116.31 25.3111C116.695 24.92 116.888 24.4311 116.888 23.9422C116.888 23.0622 116.503 22.28 115.828 21.6933C115.153 21.1067 114.189 20.8133 113.032 20.8133C111.875 20.8133 110.814 21.1067 109.754 21.5956C108.693 22.0845 107.729 22.8667 106.765 23.7467C105.801 24.8222 105.03 25.8978 104.548 27.2667C103.969 28.5378 103.776 29.8089 103.776 31.08C103.776 31.2756 103.776 31.4711 103.776 31.7645C102.62 32.84 101.463 33.6222 100.499 34.1111C99.438 34.6978 98.4739 35.0889 97.6062 35.0889C96.7385 35.0889 96.0636 34.6978 95.678 34.2089C95.1959 33.72 95.0031 33.0356 95.0031 32.1556C95.0031 31.8622 95.0031 31.5689 95.0995 31.1778C95.0995 30.7867 95.1959 30.3956 95.2924 30.0045C98.2811 29.7111 100.691 29.0267 102.62 27.8533C104.451 26.68 105.415 25.2133 105.415 23.6489C105.415 22.7689 105.126 21.9867 104.451 21.4978C103.776 21.0089 102.909 20.7156 101.848 20.7156C100.691 20.7156 99.5344 21.0089 98.3775 21.5956C97.2206 22.1822 96.2565 22.9645 95.2924 24.04C94.3283 25.1156 93.557 26.4845 92.9785 27.8533C92.4001 29.32 92.1108 30.6889 92.1108 32.1556C91.436 32.9378 90.9539 33.5245 90.4719 33.9156C89.9898 34.3067 89.6042 34.5022 89.2185 34.5022C88.9293 34.5022 88.7365 34.4045 88.6401 34.2089C88.4472 34.0133 88.4472 33.72 88.4472 33.4267C88.4472 33.2311 88.4472 33.1333 88.4472 32.9378C88.4472 32.7422 88.5437 32.5467 88.5437 32.2533L91.1467 21.7911H93.8462L94.1354 20.6178H91.5324L92.7857 15.1422H91.8216C91.0503 16.8045 90.1826 18.0756 89.2185 19.0533C88.2544 19.9333 87.1939 20.6178 85.9406 20.8133V20.9111C85.5549 20.6178 85.1693 20.52 84.5908 20.52C83.916 20.52 83.3375 20.7156 82.9519 21.1067C82.5662 21.4978 82.3734 22.0845 82.3734 22.7689C82.3734 23.3556 82.6626 23.9422 83.2411 24.3333C83.8196 24.8222 84.1088 25.2133 84.1088 25.5067C84.1088 25.8978 83.916 26.5822 83.5303 27.4622C83.1447 28.3422 82.4698 29.8089 81.5057 31.7645C81.3129 30.6889 81.0237 29.2222 80.7344 27.3645C79.9631 22.7689 79.2883 20.52 78.7098 20.52C78.6134 20.52 77.9385 20.6178 76.6852 20.8133C75.9139 20.9111 75.1426 21.0089 74.3713 21.1067L74.4678 20.8133H70.0329L69.5508 22.6711C69.358 21.8889 69.0688 21.2045 68.5867 20.8133C68.1047 20.4222 67.5262 20.2267 66.6585 20.2267C65.7908 20.2267 64.9232 20.52 63.9591 21.0089C62.995 21.4978 62.1273 22.28 61.2596 23.2578C60.1991 24.5289 59.3314 25.8978 58.6565 27.56C58.078 29.0267 57.7888 30.4933 57.6924 31.7645C57.3067 32.3511 57.0175 32.7422 56.8247 32.9378C56.6319 33.2311 56.4391 33.3289 56.2462 33.3289C56.0534 33.3289 55.957 33.2311 55.8606 33.1333C55.7642 33.0356 55.7642 32.84 55.7642 32.6445C55.7642 32.5467 55.7642 32.4489 55.8606 32.1556C55.8606 31.96 55.957 31.8622 55.957 31.7645L60.7775 12.6C59.717 12.8933 58.5601 13.0889 57.4032 13.1867C56.1498 13.3822 54.9929 13.48 53.6432 13.5778V14.36H53.9324C54.4144 14.36 54.7037 14.4578 54.8965 14.5556C55.0893 14.7511 55.1857 14.9467 55.1857 15.24C55.1857 15.4356 55.0893 16.0222 54.8965 16.8045C54.8001 17 54.8001 17.1956 54.8001 17.2933L52.5826 26.1911C52.5826 25.8978 52.5826 25.5067 52.5826 25.2133C52.5826 23.7467 52.2934 22.6711 51.6185 21.8889C50.9437 21.1067 49.9796 20.7156 48.8226 20.7156C47.955 20.7156 47.0873 21.0089 46.2196 21.5956C45.3519 22.1822 44.4842 23.16 43.6165 24.4311L44.4842 21.1067C43.4237 21.3022 42.2668 21.4978 41.1098 21.6933C39.9529 21.8889 38.6996 21.9867 37.4462 22.0845V22.8667C38.1211 22.8667 38.5068 22.9645 38.6996 23.0622C38.8924 23.16 39.0852 23.4533 39.0852 23.8445C39.0852 23.9422 39.0852 24.1378 38.9888 24.3333C38.9888 24.5289 38.8924 24.8222 38.8924 25.0178L35.4216 39.2933C35.1324 40.4667 34.8432 41.2489 34.5539 41.5422C34.2647 41.8356 33.8791 41.9333 33.3006 41.9333H33.2042C33.1078 41.9333 33.1078 41.9333 33.1078 41.9333V42.8133H41.7847V41.9333C41.0134 41.8356 40.5314 41.7378 40.2421 41.64C40.1457 41.64 40.0493 41.3467 40.0493 40.8578C40.0493 40.6622 40.0493 40.3689 40.0493 40.1733C40.0493 39.9778 40.1457 39.6845 40.1457 39.4889L41.1098 35.8711C41.4955 36.1645 41.8811 36.36 42.2668 36.5556C42.7488 36.7511 43.1344 36.7511 43.6165 36.7511C44.7734 36.7511 45.9303 36.4578 46.9909 35.7733C48.0514 35.0889 49.0155 34.1111 49.9796 32.7422C50.6544 31.8622 51.1365 30.7867 51.6185 29.8089L51.4257 30.3956V30.5911C50.9437 32.4489 50.7509 33.6222 50.7509 34.0133C50.7509 34.8933 50.9437 35.5778 51.4257 36.0667C51.9078 36.5556 52.4862 36.7511 53.3539 36.7511C54.318 36.7511 55.1857 36.36 56.0534 35.6756C56.5355 35.1867 57.1139 34.6 57.6924 33.8178C57.8852 34.5022 58.078 35.1867 58.5601 35.6756C59.2349 36.36 60.1026 36.7511 61.2596 36.7511C62.4165 36.7511 63.3806 36.36 64.2483 35.6756C65.116 34.9911 65.9837 33.9156 66.7549 32.5467C66.6585 33.0356 66.5621 33.5245 66.5621 33.8178C66.5621 34.1111 66.4657 34.4045 66.4657 34.6C66.4657 35.2845 66.6585 35.8711 67.1406 36.2622C67.5262 36.6533 68.2011 36.8489 68.9724 36.8489C69.9365 36.8489 70.9006 36.4578 71.6719 35.7733C72.5396 35.0889 73.3108 34.0133 74.1785 32.5467L73.4072 31.96C73.3108 32.1556 73.118 32.3511 72.9252 32.6445C72.2503 33.6222 71.7683 34.1111 71.2862 34.1111C71.0934 34.1111 70.997 34.0133 70.9006 33.9156C70.8042 33.8178 70.8042 33.6222 70.8042 33.3289C70.8042 33.1333 70.997 32.2533 71.3826 30.7867L73.6001 22.6711C73.7929 22.7689 73.8893 22.7689 73.9857 22.9645C74.1785 23.16 74.4678 23.7467 74.6606 24.5289C74.9498 25.4089 75.1426 26.68 75.5283 28.3422C75.8175 29.9067 76.1067 31.7645 76.396 33.6222C76.4924 34.5022 76.6852 35.2845 76.6852 35.9689C76.7816 36.5556 76.7816 37.1422 76.7816 37.5333C76.7816 38.12 76.5888 38.7067 76.1067 39.2933C75.6247 39.88 75.239 40.1733 74.8534 40.1733C74.6606 40.1733 74.2749 39.9778 73.6965 39.5867C73.118 39.1956 72.5396 39 72.0575 39C71.3826 39 70.9006 39.1956 70.4185 39.5867C70.0329 39.9778 69.7437 40.4667 69.7437 41.1511C69.7437 41.8356 70.0329 42.4222 70.5149 42.8133C70.997 43.2045 71.6719 43.4 72.5396 43.4C73.8893 43.4 75.239 42.7156 76.5888 41.3467C78.0349 39.9778 79.5775 37.8267 81.3129 34.8933C82.8554 32.2533 84.0124 29.9067 84.8801 27.8533C85.7478 25.8 86.2298 24.2356 86.2298 23.3556C86.2298 22.8667 86.1334 22.4756 86.037 22.1822H88.0616L85.3621 33.0356C85.2657 33.4267 85.1693 33.72 85.1693 34.0133C85.1693 34.3067 85.0729 34.6 85.0729 34.7956C85.0729 35.48 85.2657 35.9689 85.5549 36.4578C85.9406 36.8489 86.4226 37.0445 87.0011 37.0445C87.7724 37.0445 88.5437 36.6533 89.5078 35.9689C90.1826 35.3822 90.9539 34.6978 91.6288 33.72C91.8216 34.6 92.1108 35.2845 92.5929 35.8711C93.2677 36.6533 94.3283 37.0445 95.678 37.0445C97.0277 37.0445 98.3775 36.7511 99.7272 35.9689C100.884 35.3822 102.137 34.5022 103.487 33.4267C103.68 34.2089 104.066 34.8933 104.644 35.3822C105.608 36.4578 106.862 36.9467 108.404 36.9467C109.754 36.9467 111.104 36.5556 112.261 35.8711C113.128 35.3822 113.9 34.6 114.671 33.72L113.803 37.0445C113.996 37.0445 114.285 36.9467 114.478 36.9467C114.671 36.9467 114.96 36.9467 115.153 36.9467C115.346 36.9467 115.056 36.9467 115.249 36.9467C115.442 36.9467 116.213 36.9467 116.406 37.0445L118.238 30.3956C118.431 29.8089 118.72 29.1245 119.202 28.5378C119.588 27.9511 120.263 27.2667 121.227 26.3867C122.287 25.4089 123.155 24.7245 123.926 24.2356C124.697 23.7467 125.276 23.4533 125.662 23.4533C125.951 23.4533 126.144 23.5511 126.24 23.6489C126.336 23.7467 126.433 23.9422 126.433 24.2356C126.433 24.3333 126.433 24.4311 126.433 24.5289C126.433 24.6267 126.336 24.8222 126.336 25.0178L123.541 34.6978C123.444 34.8933 123.444 35.0889 123.348 35.2845C123.348 35.48 123.348 35.5778 123.348 35.7733C123.348 36.1645 123.444 36.5556 123.733 36.7511C124.023 36.9467 124.408 37.1422 124.89 37.1422C125.662 37.1422 126.433 36.8489 127.301 36.1645C128.168 35.5778 129.036 34.6 130 33.4267L129.711 32.6445ZM97.8954 23.9422C98.9559 22.7689 100.209 22.1822 101.463 22.1822C101.945 22.1822 102.234 22.28 102.523 22.4756C102.716 22.6711 102.909 23.0622 102.909 23.5511C102.909 24.92 102.234 26.0933 100.788 27.1689C99.3416 28.2445 97.6062 28.8311 95.4852 28.9289C95.8708 26.8756 96.7385 25.2133 97.8954 23.9422ZM46.9909 28.3422C46.6052 29.6133 46.1232 30.9822 45.5447 32.3511C45.0627 33.4267 44.5806 34.2089 44.0021 34.6978C43.5201 35.2845 42.9416 35.5778 42.4596 35.5778C42.1703 35.5778 41.8811 35.48 41.6883 35.2845C41.4955 35.0889 41.3991 34.7956 41.3991 34.5022C41.3991 34.3067 41.3991 34.0133 41.4955 33.6222C41.5919 33.2311 41.6883 32.84 41.7847 32.3511L42.6524 29.2222C43.1344 27.2667 43.7129 25.8 44.2914 24.92C44.8698 23.9422 45.5447 23.5511 46.316 23.5511C46.6052 23.5511 46.8944 23.7467 47.0873 24.04C47.2801 24.3333 47.3765 24.8222 47.3765 25.3111C47.4729 25.9956 47.2801 26.9733 46.9909 28.3422ZM68.0083 26.7778C67.719 27.9511 67.3334 29.2222 66.7549 30.4933C66.2729 31.6667 65.7908 32.5467 65.2124 33.1333C64.6339 33.72 64.1519 34.1111 63.6698 34.1111C63.2842 34.1111 62.9949 33.9156 62.8021 33.72C62.6093 33.4267 62.5129 33.0356 62.5129 32.4489C62.5129 31.5689 62.7057 30.5911 63.0914 29.32C63.477 28.1467 63.959 26.8756 64.6339 25.6045C65.2124 24.5289 65.6944 23.7467 66.0801 23.3556C66.4657 22.8667 66.9478 22.6711 67.4298 22.6711C67.719 22.6711 68.0083 22.7689 68.2011 23.0622C68.3939 23.3556 68.4903 23.7467 68.4903 24.1378C68.4903 24.7245 68.2975 25.6045 68.0083 26.7778Z" fill="#0082C2"/>
</svg>
