<svg width="32" height="32" viewBox="0 0 32 32" fill="none" xmlns="http://www.w3.org/2000/svg">
<path d="M16.5066 11.4785H7.7091C7.7091 11.4785 7.622 11.4785 7.622 11.5646L4.83468 20.4354C4.83468 20.5215 4.83468 20.5215 4.92178 20.5215H9.10276C9.10276 20.5215 9.18986 20.5215 9.18986 20.4354L9.97379 17.9378C9.97379 17.8517 9.97379 17.8517 9.88669 17.8517H8.05751C7.97041 17.8517 7.97041 17.7656 7.97041 17.7656L9.10276 14.2344C9.10276 14.2344 9.10276 14.1483 9.18986 14.1483H15.6355C15.7226 14.1483 15.7226 14.2344 15.7226 14.2344L13.8063 20.4354C13.0224 22.933 10.4964 25 7.97041 25H3.35392C0.827916 25 -0.565742 22.933 0.218191 20.4354L3.09261 11.3923C3.87654 8.89474 6.57675 7 9.10276 7H17.9002C17.9873 7 17.9873 7.08612 17.9873 7.08612L16.5066 11.4785C16.5937 11.4785 16.5066 11.4785 16.5066 11.4785Z" fill="#FF1323"/>
<path d="M28.5269 7H24.3459C21.7328 7 19.0326 8.89474 18.1615 11.4785L15.3742 20.3493C14.5903 22.933 15.984 25 18.5971 25H22.778C25.3911 25 28.2656 22.8469 29.0495 20.3493L31.7497 11.5646C32.6207 8.89474 31.14 7 28.5269 7ZM24.3459 20.5215H19.9907C19.9036 20.5215 19.9036 20.4354 19.9036 20.4354L22.6909 11.5646C22.6909 11.5646 22.6909 11.4785 22.778 11.4785H27.0461C27.1332 11.4785 27.1332 11.5646 27.1332 11.5646L24.3459 20.5215C24.433 20.5215 24.433 20.5215 24.3459 20.5215Z" fill="#FF1323"/>
</svg>
