<svg width="120" height="56" viewBox="0 0 120 56" fill="none" xmlns="http://www.w3.org/2000/svg">
<path d="M113.936 16.8071C114.271 16.9729 114.69 17.1387 115.109 17.1387C115.528 17.1387 115.864 17.0558 116.283 16.8071C116.618 16.6412 116.953 16.3096 117.121 15.978C117.289 15.6463 117.456 15.2318 117.456 14.8172C117.456 14.4027 117.373 14.071 117.121 13.6565C116.953 13.3248 116.618 12.9932 116.283 12.8274C115.947 12.6615 115.528 12.4957 115.109 12.4957C114.69 12.4957 114.355 12.5786 113.936 12.8274C113.6 12.9932 113.265 13.3248 113.097 13.6565C112.93 13.9881 112.762 14.4027 112.762 14.8172C112.762 15.2318 112.846 15.5634 113.097 15.978C113.349 16.3096 113.6 16.5583 113.936 16.8071ZM113.768 13.4907C114.103 13.159 114.606 12.9103 115.109 12.9103C115.612 12.9103 116.115 13.0761 116.45 13.4907C116.786 13.8223 117.037 14.3198 117.037 14.8172C117.037 15.3147 116.87 15.8121 116.45 16.1438C116.115 16.4754 115.612 16.7242 115.109 16.7242C114.606 16.7242 114.103 16.5583 113.768 16.1438C113.433 15.8121 113.181 15.3147 113.181 14.8172C113.181 14.3198 113.349 13.8223 113.768 13.4907Z" fill="black"/>
<path d="M114.606 14.983H114.858C115.026 14.983 115.109 14.983 115.193 15.0659C115.277 15.1488 115.445 15.3146 115.529 15.5634L115.78 15.9779H116.283L115.948 15.4804C115.864 15.3146 115.696 15.1488 115.612 15.0659C115.529 14.983 115.445 14.9001 115.361 14.9001C115.529 14.9001 115.696 14.8172 115.864 14.6513C116.032 14.4855 116.032 14.4026 116.032 14.1539C116.032 14.071 116.032 13.9052 115.948 13.8222C115.864 13.7393 115.78 13.6564 115.612 13.5735C115.529 13.4906 115.277 13.4906 114.942 13.4906H114.103V15.895H114.523V14.983H114.606ZM114.606 13.9052H115.026C115.277 13.9052 115.445 13.9052 115.529 13.9881C115.612 14.071 115.696 14.1539 115.696 14.2368C115.696 14.4026 115.612 14.4855 115.529 14.4855C115.445 14.5684 115.277 14.5684 115.109 14.5684H114.606V13.9052Z" fill="black"/>
<path d="M8.81477 18.9628C6.04843 18.9628 3.2821 21.1184 2.52764 23.8545L0.180446 31.3164C-0.238696 32.8088 0.0966175 34.3012 0.934901 35.4619C1.77319 36.5398 3.11444 37.1201 4.62335 37.1201H59.1956C59.1118 36.0423 59.2795 34.8816 59.6148 33.8037L63.8062 20.3722C63.9738 19.8748 64.1415 19.4602 64.393 18.9628H8.81477Z" fill="#0082C2"/>
<path d="M111.756 18.9627C111.84 20.0405 111.756 21.1183 111.337 22.1962L107.313 35.296C107.145 35.8764 106.894 36.4567 106.559 37.0371H107.313H110.499C113.349 37.0371 116.869 34.7985 117.624 31.9796L119.803 24.8493C120.223 23.274 119.971 21.7816 119.049 20.6209C118.211 19.543 116.786 18.8798 115.277 18.8798H111.756V18.9627Z" fill="#0082C2"/>
<path d="M112.259 19.1286C112.175 17.5533 111.672 16.0609 110.75 14.8172C109.241 12.8274 106.559 11.6666 103.792 11.6666H75.2907C70.764 11.6666 66.0696 14.8172 64.0577 19.0456C63.8062 19.4602 63.6385 19.9577 63.4709 20.4551L59.3633 33.7208C59.028 34.7986 58.8603 35.9594 58.9442 37.0372C59.028 38.6125 59.5309 40.022 60.3692 41.2656C61.7943 43.1726 64.1415 44.3333 66.824 44.3333H93.6491H95.4095C99.9362 44.3333 104.882 41.2656 107.062 37.1201C107.313 36.5397 107.565 35.9594 107.816 35.379L111.756 22.5279C112.175 21.3671 112.259 20.2064 112.259 19.1286Z" fill="black"/>
<path d="M86.4398 21.3671H73.4464C73.3626 21.3671 73.3626 21.3671 73.3626 21.45L69.255 34.5498C69.255 34.6327 69.255 34.7156 69.3389 34.7156H75.5422C75.626 34.7156 75.626 34.7156 75.626 34.6327L76.7996 30.9018C76.7996 30.8189 76.7996 30.7359 76.7158 30.7359H73.9494C73.8656 30.7359 73.7818 30.653 73.8656 30.5701L75.5422 25.4297C75.5422 25.3468 75.626 25.3468 75.626 25.3468H85.1824C85.2662 25.3468 85.3501 25.4297 85.2662 25.5126L82.4161 34.6327C81.2425 38.3637 77.554 41.3485 73.7818 41.3485H66.9917C63.2194 41.3485 61.1237 38.3637 62.2973 34.6327L66.5725 21.2013C67.7461 17.4703 71.6861 14.7343 75.4583 14.7343H88.5356C88.6194 14.7343 88.7032 14.8172 88.6194 14.9001L86.5237 21.2842C86.5237 21.2842 86.5237 21.3671 86.4398 21.3671Z" fill="#FF1323"/>
<path d="M104.295 14.7343H98.0082C94.1521 14.7343 90.1283 17.5532 88.8709 21.3671L84.7633 34.4669C83.5897 38.2808 85.6016 41.3485 89.4577 41.3485H95.7448C99.6009 41.3485 103.792 38.1979 105.05 34.384L109.074 21.3671C110.331 17.5532 108.151 14.7343 104.295 14.7343ZM98.092 34.7156H91.7211C91.6372 34.7156 91.5534 34.6327 91.6372 34.5498L95.8287 21.3671C95.8287 21.2842 95.9125 21.2842 95.9125 21.2842H102.283C102.367 21.2842 102.451 21.3671 102.367 21.45L98.2597 34.6327C98.1758 34.7156 98.092 34.7156 98.092 34.7156Z" fill="#FF1323"/>
<path d="M40.8372 33.3892C40.8372 33.4721 40.7534 33.4721 40.7534 33.4721H38.2386C38.1547 33.4721 38.0709 33.3892 38.1547 33.3063L38.9092 30.9019C38.9092 30.819 38.9092 30.7361 38.8254 30.7361C37.4003 30.6531 36.6458 29.4095 37.065 28L38.7415 22.6937C38.7415 22.6108 38.8254 22.6108 38.8254 22.6108H41.3402C41.424 22.6108 41.5079 22.6938 41.424 22.7767C41.1725 23.5229 39.9989 27.4196 39.8313 28.0829C40.0828 28.0829 42.0947 28.0829 42.5976 28.0829C42.7653 27.5025 44.1065 23.2741 44.2742 22.7767C44.2742 22.6938 44.358 22.6937 44.358 22.6937H46.789C46.8729 22.6937 46.9567 22.7767 46.8729 22.8596L45.1963 28.0829C44.6933 29.5753 43.1844 30.7361 41.7593 30.819C41.6755 30.819 41.6755 30.819 41.6755 30.9019L40.8372 33.3892Z" fill="white"/>
<path d="M54.1659 25.3468C52.657 25.3468 51.0643 26.5905 50.5613 28.0829L48.9686 33.3062C48.9686 33.3891 48.9686 33.472 49.0524 33.472H51.5672C51.6511 33.472 51.6511 33.472 51.6511 33.3891C51.8187 32.8088 52.9923 28.9949 53.3276 28.0829C53.8306 28.0829 55.2557 28.0829 56.0102 28.0829C55.6748 29.2436 54.5851 32.6429 54.4174 33.3062C54.4174 33.3891 54.4174 33.472 54.5012 33.472H57.0161C57.0999 33.472 57.0999 33.472 57.0999 33.3891L58.7765 28C59.1956 26.5905 58.4412 25.3468 57.0999 25.2639C57.0161 25.3468 54.1659 25.3468 54.1659 25.3468Z" fill="white"/>
<path d="M34.3824 22.6108H31.5323C30.0233 22.6108 28.4306 23.8545 27.9276 25.3469L25.5804 33.3063C25.5804 33.3892 25.5804 33.4721 25.6643 33.4721H28.1791C28.263 33.4721 28.263 33.4721 28.263 33.3892L29.2689 30.2386C29.2689 30.1557 29.3527 30.1557 29.3527 30.1557H31.8676C31.9514 30.1557 32.0352 30.2386 31.9514 30.3215L31.0293 33.3063C31.0293 33.3892 31.0293 33.4721 31.1131 33.4721H33.628C33.7118 33.4721 33.7118 33.4721 33.7118 33.3892L36.2267 25.3469C36.7296 23.8545 35.8913 22.6108 34.3824 22.6108ZM32.7059 28.0829H29.9395L30.7778 25.3469H33.5441L32.7059 28.0829Z" fill="white"/>
<path d="M15.1019 22.6108H9.65306C9.56923 22.6108 9.56923 22.6108 9.56923 22.6937L6.29993 33.3063C6.29993 33.3892 6.29993 33.4721 6.38376 33.4721H8.89861C8.98243 33.4721 8.98243 33.4721 8.98243 33.3892L9.82072 30.819C9.82072 30.7361 9.90455 30.7361 9.90455 30.7361H12.5871C14.096 30.7361 15.6887 29.4924 16.1917 28L17.03 25.264C17.4491 23.8545 16.6108 22.6108 15.1019 22.6108ZM13.4253 28.0829H10.659L11.4973 25.3469H14.2636L13.4253 28.0829Z" fill="white"/>
<path d="M50.5616 25.8443H47.4597L48.3819 22.6108H51.5677L50.5616 25.8443Z" fill="white"/>
<path d="M15.7725 33.4721L19.1257 22.6937C19.1257 22.6108 19.2095 22.6108 19.2095 22.6108H21.7243C21.8082 22.6108 21.892 22.6938 21.8082 22.7767L19.3771 30.5702C19.3771 30.6531 19.3771 30.7361 19.461 30.7361H21.892C21.9758 30.7361 21.9758 30.736 21.9758 30.6531L22.8141 28.0829C22.8141 28 22.8979 28 22.8979 28H25.4128C25.4966 28 25.5804 28.0829 25.4966 28.1658L23.82 33.3892C23.82 33.4721 23.7362 33.4721 23.7362 33.4721H15.7725Z" fill="white"/>
</svg>
