<svg width="32" height="32" viewBox="0 0 32 32" fill="none" xmlns="http://www.w3.org/2000/svg">
<path d="M31.6197 9.63559C29.8843 5.53755 22.7691 4.70121 15.0465 7.29385L11.5757 5.20301C10.5345 4.61758 9.31969 5.37028 9.23292 6.54115V9.88649C2.55161 13.7336 -1.26629 19.2534 0.38235 23.1842C2.2913 27.7004 10.7948 28.2859 19.4718 24.5224C28.0621 20.8425 33.5286 14.1518 31.6197 9.63559ZM12.617 7.79565L20.8601 12.8137C21.4675 13.1482 21.5543 14.0682 20.8601 14.4863L12.5302 19.3371C11.9228 19.6716 10.9683 19.2534 11.0551 18.4171V8.71562C11.0551 7.96292 11.9228 7.46112 12.617 7.79565ZM8.27845 26.0278C4.54733 25.7769 3.07223 23.3515 4.0267 20.0898C4.0267 20.5916 4.11347 21.177 4.28701 21.5952C5.76211 25.1078 12.3567 25.526 18.9512 22.6824C19.1247 22.5988 19.2115 22.5988 19.3851 22.5152C15.6539 24.8569 11.489 26.195 8.27845 26.0278ZM23.8103 17.1626C20.5131 21.2607 14.5259 24.1042 10.4477 23.7697C6.3695 23.4351 5.76211 19.9225 9.05938 15.8245C9.14615 15.7408 9.23292 15.6572 9.23292 15.5736V20.6752C9.23292 22.0134 10.5345 22.5988 11.4022 22.097L23.6368 14.9045C24.5913 14.3191 24.5045 12.9809 23.55 12.4791L18.6909 9.71922C19.9924 9.30105 21.294 9.13379 22.422 9.21742C26.587 9.55196 27.1944 13.1482 23.8103 17.1626ZM28.4092 11.3083C28.4092 11.2246 28.4092 11.2246 28.3224 11.141C27.1076 8.38109 22.6823 7.46112 17.4761 8.79925L16.6084 8.29745C19.1247 7.21022 21.7279 6.70841 23.8103 6.79205C27.1076 7.04295 28.6695 8.79925 28.4092 11.3083Z" fill="#0082C2"/>
</svg>
