<svg width="121" height="56" viewBox="0 0 121 56" fill="none" xmlns="http://www.w3.org/2000/svg">
<path d="M104.189 21.84C98.2156 22.26 100.855 30.1 107.523 29.68C114.052 29.26 110.718 21.42 104.189 21.84Z" fill="#F19021"/>
<path d="M101.689 16.94C90.992 16.94 82.379 25.62 82.379 36.4C82.379 47.18 90.992 56 101.689 56C112.385 56 120.998 47.32 120.998 36.54C121.137 25.62 112.385 16.94 101.689 16.94ZM101.689 53.9C92.1033 53.9 84.3239 46.06 84.3239 36.4C84.3239 26.74 92.1033 18.9 101.689 18.9C111.274 18.9 119.054 26.74 119.054 36.4C119.054 46.06 111.274 53.9 101.689 53.9ZM101.133 3.36C96.5487 6.86 97.3823 12.18 97.3823 12.18C97.3823 12.18 94.465 4.62 90.7141 0C90.1585 6.02 92.1033 13.86 92.1033 13.86C92.1033 13.86 89.7417 8.96 83.9071 8.68C88.6304 11.48 90.5752 16.38 90.992 17.78C93.9093 15.96 97.1044 14.98 100.438 14.84C100.022 13.58 98.7714 8.4 101.133 3.36Z" fill="#F19021"/>
<path d="M1.66702 38.36V42.42H0V31.92H3.61189C4.86216 31.92 5.69567 32.2 6.39026 32.76C6.94594 33.32 7.36269 34.16 7.36269 35.14C7.36269 36.12 7.08486 36.96 6.39026 37.52C5.83459 38.08 4.86216 38.36 3.75081 38.36H1.66702ZM5.55675 35.14C5.55675 34.58 5.41783 34.02 5.00108 33.74C4.72324 33.46 4.16756 33.32 3.47297 33.32H1.66702V36.96H3.33405C4.86216 36.96 5.55675 36.4 5.55675 35.14ZM14.1697 42.42L11.5303 38.22H10.28V42.42H8.61296V31.92H12.3638C13.614 31.92 14.4475 32.2 15.1421 32.76C15.6978 33.32 16.1146 34.16 16.1146 35.14C16.1146 35.98 15.8367 36.68 15.42 37.1C15.0032 37.66 14.3086 37.94 13.4751 38.08L16.2535 42.42H14.1697ZM10.4189 37.1H12.2248C13.614 37.1 14.3086 36.54 14.3086 35.28C14.3086 34.72 14.1697 34.3 13.753 33.88C13.4751 33.6 12.9194 33.46 12.2248 33.46H10.4189V37.1ZM23.7551 40.18H19.3097L18.4762 42.42H16.6702L20.56 32.06H22.5048L26.3946 42.42H24.5886L23.7551 40.18ZM23.3384 38.92L21.6713 34.02L20.0043 38.92H23.3384ZM34.8686 32.76C35.7021 33.32 36.2578 34.3 36.5356 35.28H34.7297C34.4519 34.72 34.174 34.3 33.6183 33.88C33.0627 33.6 32.3681 33.32 31.8124 33.32C31.2567 33.32 30.5621 33.46 30.0065 33.74C29.4508 34.02 29.034 34.44 28.7562 35C28.4783 35.56 28.3394 36.26 28.3394 36.96C28.3394 37.66 28.4783 38.36 28.7562 39.06C29.034 39.62 29.4508 40.04 30.0065 40.32C30.5621 40.6 31.2567 40.74 31.8124 40.74C32.6459 40.74 33.4794 40.46 34.0351 39.9C34.5908 39.34 35.0075 38.64 35.1464 37.66H31.2567V36.4H36.5356V38.08C36.3967 38.78 36.1189 39.62 35.7021 40.18C35.5632 41.16 34.8686 41.72 34.174 42C33.4794 42.42 32.6459 42.56 31.8124 42.56C30.84 42.56 30.0065 42.28 29.1729 41.86C28.3394 41.44 27.7838 40.74 27.367 39.9C26.5335 38.08 26.5335 36.12 27.367 34.3C27.7838 33.46 28.3394 32.9 29.1729 32.34C30.0065 31.92 30.9789 31.64 31.8124 31.64C33.0627 31.92 34.0351 32.2 34.8686 32.76ZM48.6216 32.06V42.42H46.9545V34.58L44.0372 42.42H42.5091L39.4529 34.58V42.42H37.7859V32.06H39.8697L43.3427 40.32L46.6767 32.06H48.6216ZM56.9567 40.18H52.5113L51.6778 42.42H49.8718L53.7616 32.06H55.7064L59.5961 42.42H57.7902L56.9567 40.18ZM56.401 38.92L54.734 34.02L53.067 38.92H56.401ZM66.8199 31.92V33.32H63.9026V42.42H62.2356V33.32H59.1794V31.92H66.8199ZM69.3205 31.92V42.42H67.6534V31.92H69.3205ZM78.9059 32.76C79.7394 33.46 80.434 34.44 80.5729 35.42H78.7669C78.4891 34.86 78.0723 34.3 77.6556 33.88C77.0999 33.46 76.4053 33.32 75.7107 33.32C75.155 33.32 74.5994 33.46 74.0437 33.74C73.488 34.02 73.2102 34.58 72.9324 35C72.3767 36.26 72.3767 37.66 72.9324 39.06C73.2102 39.62 73.6269 40.04 74.0437 40.32C74.5994 40.6 75.155 40.74 75.7107 40.74C76.4053 40.74 77.0999 40.6 77.6556 40.18C78.2113 39.76 78.628 39.34 78.7669 38.64H80.5729C80.295 39.76 79.7394 40.6 78.9059 41.3C78.0723 42 76.961 42.28 75.7107 42.28C74.7383 42.28 73.9048 42 73.0713 41.58C72.3767 41.16 71.6821 40.46 71.2653 39.62C70.4318 37.8 70.4318 35.84 71.2653 34.02C71.6821 33.18 72.2378 32.62 73.0713 32.06C73.9048 31.64 74.7383 31.36 75.7107 31.36C76.961 31.78 78.0723 32.2 78.9059 32.76ZM88.6302 38.36V42.42H86.9631V31.92H90.575C91.8253 31.92 92.6588 32.2 93.3534 32.76C93.9091 33.32 94.3258 34.16 94.3258 35.14C94.3258 36.12 94.048 36.96 93.3534 37.52C92.7977 38.08 91.8253 38.36 90.7139 38.36H88.6302ZM92.381 35.14C92.381 34.58 92.2421 34.02 91.8253 33.74C91.5475 33.46 90.9918 33.32 90.2972 33.32H88.6302V36.96H90.2972C91.6864 36.96 92.381 36.4 92.381 35.14ZM96.9653 41.16H100.577V42.42H95.2983V31.92H96.9653V41.16ZM108.357 40.18H103.911L103.078 42.42H101.272L105.161 32.06H107.106L110.996 42.42H109.19L108.357 40.18ZM107.801 38.92L106.134 34.02L104.467 38.92H107.801ZM117.664 31.92L114.191 38.64V42.42H112.524V38.64L109.051 31.92H110.996L113.358 36.82L115.719 31.92H117.664Z" fill="#F19021"/>
</svg>
