<svg width="32" height="32" viewBox="0 0 32 32" fill="none" xmlns="http://www.w3.org/2000/svg">
    <path d="M7.852 18.108h1.14c.652 0 1.06.083 1.386.166.244.083.489.33.652.579.163.248.244.578.244.91 0 .413-.081.743-.326.991a2.924 2.924 0 0 1-.815.58c-.244.082-.57.082-1.14.082v2.48H7.852v-5.788zm1.14 2.233h.326c.245 0 .49 0 .57-.083.082 0 .164-.082.245-.165.082-.083.082-.165.082-.33 0-.249-.082-.414-.245-.497-.163-.082-.326-.082-.652-.082h-.325v1.157zM11.926 18.108h1.06v4.714h1.547v1.075h-2.688v-5.788h.081zM17.467 18.108h1.14l2.2 5.789h-1.14l-.408-1.158h-2.363l-.489 1.158h-1.14l2.2-5.788zm.57 1.489-.733 1.984h1.548l-.815-1.984zM19.911 18.108h1.141l1.06 2.068 1.059-2.067h1.14l-1.63 3.307v2.48h-1.059v-2.48l-1.71-3.308zM17.385 12.403c-3.422.248-1.874 4.713 1.874 4.465 3.748-.165 1.793-4.63-1.874-4.465z" fill="#F6921E"/>
    <path d="M16 9.674c-6.03 0-11 4.962-11 11.163C5 26.957 9.889 32 16 32c6.03 0 11-4.961 11-11.163 0-6.201-4.97-11.163-11-11.163zm0 21.086c-5.46 0-9.86-4.465-9.86-10.006 0-5.54 4.4-10.005 9.86-10.005 5.46 0 9.86 4.465 9.86 10.005-.082 5.54-4.482 10.006-9.86 10.006zM15.674 1.902c-2.607 1.984-2.118 5.044-2.118 5.044S11.925 2.646 9.806 0c-.326 3.39.652 7.855.652 7.855S9.156 5.044 5.896 4.88c2.69 1.57 3.748 4.465 3.993 5.209 1.548-.992 3.422-1.571 5.378-1.654-.245-.661-.978-3.638.407-6.532z" fill="#F6921E"/>
</svg>
