<?xml version="1.0" encoding="utf-8"?>
<!-- Generator: Adobe Illustrator 25.0.0, SVG Export Plug-In . SVG Version: 6.00 Build 0)  -->
<svg version="1.1" id="Layer_1" xmlns="http://www.w3.org/2000/svg" xmlns:xlink="http://www.w3.org/1999/xlink" x="0px" y="0px"
	 viewBox="0 0 138.9 35.6" style="enable-background:new 0 0 138.9 35.6;" xml:space="preserve">
<style type="text/css">
	.st0{fill:#90949C;}
</style>
<g>
	<path class="st0" d="M35.4,0c0,1.2,0,2.4-0.1,3.5c-0.1,1.2-0.2,2.4-0.4,3.5c-0.2,1.2-0.4,2.4-0.7,3.5c-0.3,1.2-0.6,2.4-1,3.5H9.8
		c-0.5-1.2-0.9-2.3-1.2-3.5h22c0.3-1.2,0.6-2.3,0.8-3.5c0.2-1.2,0.4-2.3,0.5-3.5H3.6c0.1,1.2,0.3,2.4,0.5,3.5
		c0.2,1.2,0.5,2.4,0.8,3.5C5.2,11.8,5.6,13,6,14.2c0.3,0.9,0.7,1.8,1.1,2.7c0.1,0.3,0.3,0.6,0.4,0.9c0.6,1.2,1.2,2.4,1.9,3.5
		c0.4,0.6,0.8,1.3,1.2,1.9c0.4,0.6,0.8,1.1,1.2,1.7c0.3,0.4,0.6,0.8,0.9,1.2c0.5,0.6,0.9,1.1,1.4,1.7c0.2,0.2,0.4,0.5,0.7,0.7
		c0.1,0.1,0.2,0.2,0.3,0.3c0.8,0.9,1.7,1.7,2.6,2.4c0,0,0,0,0,0v-0.1c0.9-0.8,1.7-1.6,2.6-2.4c0.1-0.1,0.2-0.2,0.3-0.3
		c0.2-0.3,0.5-0.5,0.7-0.8c0.5-0.5,0.9-1.1,1.4-1.6c0.3-0.4,0.6-0.8,0.9-1.2c0.4-0.6,0.8-1.1,1.3-1.7c0.4-0.6,0.8-1.2,1.2-1.8H13.6
		c-0.8-1.1-1.5-2.3-2.2-3.5h20.3c-0.5,1.2-1.1,2.4-1.7,3.5c-0.5,0.9-1.1,1.9-1.6,2.8c-0.2,0.3-0.3,0.5-0.5,0.8
		c-0.8,1.1-1.6,2.2-2.4,3.3c-0.1,0.1-0.1,0.2-0.2,0.3c-0.1,0.2-0.3,0.3-0.4,0.5c-0.6,0.7-1.1,1.3-1.7,1.9c-0.4,0.4-0.7,0.8-1.1,1.1
		c-0.2,0.2-0.4,0.4-0.7,0.6c-0.3,0.2-0.5,0.5-0.8,0.7c-0.8,0.8-1.7,1.5-2.6,2.2c0,0-0.1,0.1-0.1,0.1c0,0-0.1-0.1-0.1-0.1
		c-0.9-0.7-1.8-1.4-2.6-2.2c-0.2-0.2-0.5-0.4-0.7-0.7c-0.2-0.2-0.5-0.5-0.7-0.7c-0.4-0.4-0.8-0.8-1.1-1.1c-0.6-0.6-1.1-1.2-1.7-1.9
		c-0.2-0.2-0.3-0.4-0.5-0.5c-0.1-0.1-0.1-0.2-0.2-0.3C9.1,27,8.3,26,7.5,24.8c-0.2-0.2-0.3-0.5-0.5-0.7c-0.6-0.9-1.2-1.9-1.7-2.9
		c-0.6-1.2-1.2-2.3-1.7-3.5c0-0.1-0.1-0.2-0.1-0.3c-0.5-1.1-0.9-2.2-1.2-3.3c-0.4-1.2-0.7-2.3-1-3.5C1,9.5,0.8,8.3,0.6,7.1
		C0.4,5.9,0.2,4.7,0.1,3.5C0,2.4,0,1.2,0,0H35.4z"/>
	<path class="st0" d="M48.3,10c1,0,1.8,0.3,2.4,1c0.7,0.6,1,1.4,1,2.4c0,0.9-0.3,1.7-1,2.4c-0.7,0.6-1.5,1-2.4,1h-1.8V20h-2V10H48.3
		z M48.3,14.8c0.4,0,0.8-0.1,1-0.4c0.3-0.3,0.4-0.6,0.4-1.1c0-0.4-0.1-0.8-0.4-1.1c-0.3-0.3-0.6-0.4-1-0.4h-1.8v3H48.3z"/>
	<path class="st0" d="M56.7,20.2c-1.1,0-2-0.3-2.7-0.9c-0.7-0.6-1.1-1.5-1.1-2.5V10h2v6.6c0,0.5,0.1,0.9,0.4,1.2
		c0.3,0.3,0.8,0.5,1.4,0.5c0.6,0,1.1-0.2,1.4-0.5c0.3-0.3,0.4-0.7,0.4-1.2V10h2v6.7c0,1.1-0.4,1.9-1.1,2.5
		C58.8,19.9,57.8,20.2,56.7,20.2"/>
	<path class="st0" d="M65.7,20.2c-1,0-1.8-0.2-2.5-0.7c-0.7-0.4-1.2-1-1.4-1.8l1.7-1c0.4,1,1.2,1.5,2.3,1.5c0.6,0,1-0.1,1.2-0.3
		c0.3-0.2,0.4-0.5,0.4-0.8c0-0.4-0.2-0.6-0.5-0.8c-0.3-0.2-0.9-0.4-1.7-0.6c-0.4-0.1-0.8-0.3-1.1-0.4c-0.3-0.1-0.6-0.3-0.9-0.5
		c-0.3-0.2-0.5-0.5-0.7-0.8c-0.2-0.3-0.2-0.7-0.2-1.2c0-0.9,0.3-1.6,1-2.2c0.6-0.5,1.4-0.8,2.3-0.8c0.8,0,1.5,0.2,2.1,0.6
		c0.6,0.4,1.1,0.9,1.4,1.6l-1.7,1c-0.4-0.9-1-1.3-1.9-1.3c-0.4,0-0.7,0.1-1,0.3c-0.2,0.2-0.3,0.4-0.3,0.7c0,0.3,0.1,0.6,0.4,0.8
		c0.3,0.2,0.8,0.4,1.5,0.6c0.3,0.1,0.5,0.2,0.7,0.2c0.2,0.1,0.4,0.1,0.6,0.2c0.3,0.1,0.5,0.2,0.6,0.3c0.1,0.1,0.3,0.2,0.5,0.4
		c0.2,0.2,0.3,0.3,0.4,0.5c0.1,0.2,0.2,0.4,0.3,0.6c0.1,0.2,0.1,0.5,0.1,0.8c0,0.9-0.3,1.7-1,2.2C67.7,19.9,66.8,20.2,65.7,20.2"/>
	<polygon class="st0" points="76.3,10 78.2,10 78.2,20 76.3,20 76.3,15.8 72.5,15.8 72.5,20 70.6,20 70.6,10 72.5,10 72.5,13.9 
		76.3,13.9 	"/>
	<path class="st0" d="M93.4,14.6v0.8c0,1.4-0.5,2.6-1.4,3.5c-0.9,0.9-2.1,1.3-3.5,1.3c-1.5,0-2.8-0.5-3.8-1.5c-1-1-1.5-2.2-1.5-3.7
		c0-1.5,0.5-2.7,1.5-3.7c1-1,2.2-1.5,3.7-1.5c0.9,0,1.8,0.2,2.6,0.6c0.8,0.4,1.4,1,1.8,1.7l-1.7,1c-0.2-0.4-0.6-0.7-1.1-1
		c-0.5-0.3-1-0.4-1.6-0.4c-1,0-1.7,0.3-2.3,0.9c-0.6,0.6-0.9,1.4-0.9,2.4c0,0.9,0.3,1.7,0.9,2.3c0.6,0.6,1.4,0.9,2.5,0.9
		c0.8,0,1.4-0.2,1.9-0.5c0.5-0.3,0.8-0.8,1-1.4h-3v-1.7H93.4z"/>
	<path class="st0" d="M101.1,20l-0.6-1.8h-4.1L95.7,20h-2.1l3.5-10h2.4l3.5,10H101.1z M97,16.3h2.8l-1.4-4.1L97,16.3z"/>
	<polygon class="st0" points="113.8,10 113.8,20 111.8,20 111.8,13.5 109,18.1 108.8,18.1 106,13.5 106,20 104,20 104,10 106,10 
		108.9,14.7 111.8,10 	"/>
	<polyline class="st0" points="117.6,17.8 117.6,20 115.7,20 115.7,10 117.6,10 117.6,17.8 	"/>
	<polygon class="st0" points="125.3,10 127.2,10 127.2,20 125.7,20 121.5,13.9 121.5,20 119.5,20 119.5,10 121,10 125.3,16.1 	"/>
	<path class="st0" d="M138.9,14.6v0.8c0,1.4-0.5,2.6-1.4,3.5c-0.9,0.9-2.1,1.3-3.5,1.3c-1.5,0-2.8-0.5-3.8-1.5c-1-1-1.5-2.2-1.5-3.7
		c0-1.5,0.5-2.7,1.5-3.7c1-1,2.2-1.5,3.7-1.5c0.9,0,1.8,0.2,2.6,0.6c0.8,0.4,1.4,1,1.8,1.7l-1.7,1c-0.2-0.4-0.6-0.7-1.1-1
		c-0.5-0.3-1-0.4-1.6-0.4c-1,0-1.7,0.3-2.3,0.9c-0.6,0.6-0.9,1.4-0.9,2.4c0,0.9,0.3,1.7,0.9,2.3c0.6,0.6,1.4,0.9,2.5,0.9
		c0.8,0,1.4-0.2,1.9-0.5c0.5-0.3,0.8-0.8,1-1.4h-3v-1.7H138.9z"/>
</g>
</svg>
