<?xml version="1.0" encoding="utf-8"?>
<!-- Generator: Adobe Illustrator 26.0.3, SVG Export Plug-In . SVG Version: 6.00 Build 0)  -->
<svg version="1.1" id="Layer_1" xmlns="http://www.w3.org/2000/svg" xmlns:xlink="http://www.w3.org/1999/xlink" x="0px" y="0px"
	 viewBox="0 0 32 32" style="enable-background:new 0 0 32 32;" xml:space="preserve">
<path d="M31.9,0c0,1.1,0,2.2-0.1,3.1c-0.1,1.1-0.2,2.2-0.4,3.1c-0.2,1.1-0.4,2.2-0.6,3.1c-0.3,1.1-0.5,2.2-0.9,3.1h-21
	c-0.4-1.1-0.8-2.1-1.1-3.1h19.8c0.3-1.1,0.5-2.1,0.7-3.1c0.2-1.1,0.4-2.1,0.4-3.1H3.3c0.1,1.1,0.3,2.2,0.4,3.1
	C4,7.4,4.2,8.4,4.5,9.4c0.3,1.2,0.6,2.2,1,3.3c0.3,0.8,0.6,1.6,1,2.4c0.1,0.3,0.3,0.5,0.4,0.8c0.5,1.1,1.1,2.2,1.7,3.1
	c0.4,0.5,0.7,1.2,1.1,1.7c0.4,0.5,0.7,1,1.1,1.5c0.3,0.4,0.5,0.7,0.8,1.1c0.4,0.5,0.8,1,1.3,1.5c0.2,0.2,0.4,0.4,0.6,0.6
	c0.1,0.1,0.2,0.2,0.3,0.3c0.7,0.8,1.5,1.5,2.3,2.2l0,0V28c0.8-0.7,1.5-1.4,2.3-2.2c0.1-0.1,0.2-0.2,0.3-0.3c0.2-0.3,0.4-0.4,0.6-0.7
	c0.4-0.4,0.8-1,1.3-1.4c0.3-0.4,0.5-0.7,0.8-1.1c0.4-0.5,0.7-1,1.2-1.5c0.4-0.5,0.7-1.1,1.1-1.6H12.3c-0.7-1-1.3-2.1-2-3.1h18.2
	c-0.4,1.1-1,2.2-1.5,3.1c-0.4,0.8-1,1.7-1.4,2.5c-0.2,0.3-0.3,0.4-0.4,0.7c-0.7,1-1.4,2-2.2,3c-0.1,0.1-0.1,0.2-0.2,0.3
	c-0.1,0.2-0.3,0.3-0.4,0.4c-0.5,0.6-1,1.2-1.5,1.7c-0.4,0.4-0.6,0.7-1,1c-0.2,0.2-0.4,0.4-0.6,0.5c-0.3,0.2-0.4,0.4-0.7,0.6
	c-0.7,0.7-1.5,1.3-2.3,2L16.2,32l-0.1-0.1c-0.8-0.6-1.6-1.3-2.3-2c-0.2-0.2-0.4-0.4-0.6-0.6c-0.2-0.2-0.4-0.4-0.6-0.6
	c-0.4-0.4-0.7-0.7-1-1c-0.5-0.5-1-1.1-1.5-1.7c-0.2-0.2-0.3-0.4-0.4-0.4c-0.1-0.1-0.1-0.2-0.2-0.3c-1.1-1-1.8-1.9-2.5-3
	c-0.2-0.2-0.3-0.4-0.4-0.6c-0.5-0.8-1.1-1.7-1.5-2.6C4.3,18,3.8,17,3.3,15.9c0-0.1-0.1-0.2-0.1-0.3c-0.4-1-0.8-2-1.1-3
	c-0.4-1.1-0.6-2.1-0.9-3.1C1,8.5,0.8,7.5,0.6,6.4S0.3,4.2,0.2,3.1C0.1,2.2,0.1,1.1,0.1,0H31.9z"/>
</svg>
