<svg xmlns="http://www.w3.org/2000/svg" fill="none" viewBox="0 17 186 22">
    <path d="M43.846 30.081h5.898l-1.77 8.126c-.982.397-1.769.595-2.555.595-.787.198-1.77.198-2.556.198-1.77 0-3.343-.594-4.326-1.586-.983-.99-1.573-2.576-1.573-4.558 0-1.982.393-3.568 1.18-5.153a8.369 8.369 0 0 1 3.342-3.568c1.377-.793 2.95-1.189 4.719-1.189 1.573 0 2.95.396 4.326.991l-1.18 2.775c-.59-.397-.983-.595-1.573-.793-.59-.198-1.18-.198-1.77-.198-1.18 0-1.966.198-2.949.793-.786.594-1.573 1.387-1.966 2.576-.393 1.19-.787 2.378-.787 3.568 0 1.189.197 2.18.787 2.774.59.595 1.376.793 2.36.793.59 0 1.18 0 1.769-.198l.786-3.171h-2.752l.59-2.775zM64.49 23.144l-.393 1.982c.59-.198.983-.396 1.18-.99.393-.397.59-1.19.59-1.983h3.146l.393.198c-.393 1.388-1.18 2.577-2.163 3.37-.983.793-2.163 1.189-3.539 1.387l-1.376 6.144c-.394 1.982-1.18 3.37-2.36 4.36-1.18.991-2.556 1.388-4.522 1.388-1.573 0-2.753-.397-3.539-1.19a4.8 4.8 0 0 1-1.376-3.369c0-.594 0-.99.196-1.387l2.163-9.91h3.343l-2.163 9.91c-.197.595-.197.991-.197 1.387 0 1.19.59 1.982 1.966 1.982.787 0 1.573-.198 2.163-.792.59-.595.787-1.388 1.18-2.379l2.163-9.91h3.145v-.198zm-2.556-4.162c0 1.19-.786 1.982-2.162 2.378v.793h-1.966l.196-1.585c.59-.199.983-.199 1.18-.397.196-.198.393-.396.393-.793 0-.198 0-.396-.197-.396-.196-.198-.196-.198-.59-.198-.393 0-.786 0-1.376.198v-1.784c.59-.198 1.18-.198 1.77-.198.786 0 1.573.198 1.966.595.59.198.786.594.786 1.387z" fill="#40AAF4"/>
    <path d="m65.08 38.802 3.343-15.658h3.342l-3.342 15.658H65.08zM80.023 38.802h-3.342l2.752-12.883h-3.735l.59-2.775H87.1l-.59 2.775h-3.735l-2.753 12.883zM84.349 38.802l3.342-15.658h3.343L87.69 38.802H84.35zM98.505 38.802h-8.65L93 23.144h8.651l-.59 2.775h-5.505l-.59 3.37h5.112l-.59 2.774h-5.112l-.786 3.964h5.505l-.59 2.775zm-5.308-19.027-1.18-1.19c-.393-.396-.59-.792-.787-.99v-.199h2.556c.197.595.394 1.388.984 2.18v.199h-1.573zm6.291 1.982c-.59-.397-.983-.991-1.573-1.784-.59.594-1.376 1.189-2.359 1.784h-2.163v-.199l.787-.594c.983-.991 1.77-1.784 2.162-2.379h3.343c.393.991.983 1.982 1.77 2.973v.199h-1.967zM112.662 38.802h-3.736L105.19 26.91v.396c-.196 1.586-.393 2.973-.786 4.162l-1.573 7.334h-2.95l3.343-15.658h3.736l3.539 11.496c0-.595.197-1.388.393-2.379.197-.99.787-4.162 1.966-9.315h2.95l-3.146 15.856z" fill="#40AAF4"/>
    <path d="M130.947 38.604h-3.539l-3.539-11.892v.396a105.34 105.34 0 0 1-.59 4.162l-1.573 7.334h-2.753l3.146-15.658h3.736l3.539 11.495c0-.594.197-1.387.393-2.378.197-.99.787-4.162 1.77-9.117h2.753l-3.343 15.658zM144.12 38.604h-3.145l1.376-6.74h-4.719l-1.376 6.74h-3.146l3.146-15.658h3.146l-1.18 6.144h4.719l1.179-6.144h3.146l-3.146 15.658zM154.148 34.838h-4.915l-1.77 3.766h-3.343l7.865-15.658h3.933l1.572 15.658h-2.949l-.393-3.766zm-.197-2.775-.196-3.766c0-.99-.197-1.783-.197-2.774v-.199c-.393.793-.59 1.784-1.18 2.775l-1.966 4.162h3.539v-.198zM169.877 38.604h-3.539l-3.539-11.892v.396a105.34 105.34 0 0 1-.59 4.162l-1.573 7.334h-2.752l3.145-15.658h3.736l3.539 11.495c0-.594.197-1.387.394-2.378.196-.99.786-4.162 1.769-9.117h2.753l-3.343 15.658zM182.854 38.604h-3.146l1.377-6.74h-4.719l-1.377 6.74h-3.145l3.145-15.658h3.146l-1.179 6.144h4.718l1.18-6.144H186l-3.146 15.658z" fill="#CD4642"/>
    <path fill-rule="evenodd" clip-rule="evenodd" d="M38.9 23.713c.077.073.152.148.227.224.098-.198.246-.347.393-.495.147-.15.295-.298.393-.496a8.79 8.79 0 0 0-1.012.767zm0 0c-2.209 1.937-3.706 5.115-3.706 8.746 0 2.973.984 4.757 1.967 5.748-.394-.198-.787-.396-.983-.793-.197.397-.787.793-1.377.793-.786 0-1.18-.198-1.573-.793-.196.397-.786.793-1.376.793-.787 0-1.376-.396-1.573-.99-.197.396-.786.792-1.376.792-.787 0-1.377-.595-1.573-1.19a1.48 1.48 0 0 1-1.377.992c-.678 0-1.17-.378-1.409-.873-.134.63-.666 1.071-1.343 1.071-.787 0-1.377-.595-1.377-1.387 0-.793.59-1.388 1.377-1.388.537 0 .982.277 1.21.705.107-.49.49-.935 1.15-1.101-.42 0-.838-.3-1.046-.758-.171.568-.678.956-1.314.956-.787 0-1.377-.594-1.377-1.387s.59-1.388 1.377-1.388c.565 0 1.029.308 1.245.775.141-.438.513-.821 1.114-.973-.446 0-.891-.34-1.083-.848-.2.508-.682.848-1.276.848-.787 0-1.377-.595-1.377-1.387 0-.793.59-1.388 1.377-1.388.602 0 1.089.349 1.284.868.164-.393.523-.728 1.075-.868-.446 0-.891-.34-1.083-.848-.2.509-.682.848-1.276.848-.787 0-1.377-.594-1.377-1.387s.59-1.387 1.377-1.387c.602 0 1.089.348 1.284.867.164-.393.523-.728 1.075-.867-.478 0-.956-.39-1.12-.96-.218.46-.679.762-1.24.762-.786 0-1.375-.595-1.375-1.388 0-.793.59-1.387 1.376-1.387.628 0 1.13.379 1.308.936.254-.596.85-.936 1.444-.936.59 0 1.18.396 1.377.99.196-.792.786-1.189 1.573-1.189.59 0 1.18.199 1.376.793.393-.594.983-.99 1.573-.99s.983.396 1.376.792c.393-.396.983-.793 1.573-.793s.983.397 1.377.793c.393-.396.983-.793 1.573-.793.477 0 .826.26 1.15.57zM26.348 35.036c.59 0 .983.396 1.18.991.196-.396.393-.793.786-.99-.393-.2-.59-.596-.787-.992-.196.595-.59.991-1.18.991zm0-2.775c.59 0 .983.397 1.18.991.196-.396.393-.793.786-.99-.393-.199-.59-.595-.787-.992-.196.595-.59.991-1.18.991zm0-2.973c.59 0 .983.397 1.18.991.196-.396.393-.792.786-.99-.393-.199-.59-.595-.787-.992-.196.595-.59.991-1.18.991zm0-2.973c.59 0 .983.397 1.18.991.196-.396.393-.792.786-.99-.393-.199-.59-.595-.787-.992-.196.595-.59.991-1.18.991zm3.342 8.721c.393.198.59.396.787.793.06-.06.119-.138.184-.224.15-.196.328-.43.602-.569-.393-.198-.59-.396-.786-.793-.197.397-.394.595-.787.793zm0-2.973c.393.198.59.396.787.793l.786-.793c-.393-.198-.59-.396-.786-.793-.197.397-.394.595-.787.793zm0-2.775c.393.199.59.397.787.793.196-.396.393-.594.786-.793-.393-.198-.59-.396-.786-.792-.197.396-.394.594-.787.792zm0-2.973c.393.199.59.397.787.793.06-.06.119-.138.184-.223.15-.197.328-.431.602-.57-.393-.198-.59-.396-.786-.792-.197.396-.394.594-.787.792zm2.95 8.721.59.595.59-.595-.59-.595-.59.595zm0-2.775.59.595c.13-.264.261-.352.392-.44.066-.045.132-.089.197-.155l-.59-.594-.59.594zm0-2.973.59.595.59-.595-.59-.594-.59.594zm0-2.973.59.595.59-.595-.59-.594-.59.594zm3.377.379c.04.065.087.14.162.216.098-.1.147-.198.196-.297.05-.1.098-.198.197-.298-.122 0-.168-.075-.232-.18a1.103 1.103 0 0 0-.161-.216c0 .198-.197.396-.394.595.122 0 .168.075.232.18zm-15.568-2.955c-.786 0-1.18.594-1.18 1.189 0 .793.59 1.19 1.18 1.19.787 0 1.18-.595 1.18-1.19s-.59-1.19-1.18-1.19zm-1.18 3.964c0-.595.394-1.19 1.18-1.19.59 0 1.18.595 1.18 1.19 0 .594-.393 1.189-1.18 1.189-.59 0-1.18-.396-1.18-1.19zm1.18 1.784c-.786 0-1.18.594-1.18 1.189 0 .793.59 1.189 1.18 1.189.787 0 1.18-.595 1.18-1.19 0-.594-.59-1.189-1.18-1.189zm-1.18 4.162c0-.595.394-1.19 1.18-1.19.59 0 1.18.595 1.18 1.19 0 .594-.393 1.189-1.18 1.189-.59 0-1.18-.397-1.18-1.19zm1.18 1.585c-.786 0-1.18.595-1.18 1.19 0 .792.59 1.189 1.18 1.189.787 0 1.18-.595 1.18-1.19 0-.594-.59-1.189-1.18-1.189zM16.32 24.928c0-.595.59-1.19 1.18-1.19s1.18.595 1.18 1.19-.59 1.19-1.18 1.19-1.18-.595-1.18-1.19zm1.18 1.784c-.59 0-1.18.594-1.18 1.189 0 .594.59 1.189 1.18 1.189s1.18-.595 1.18-1.19c0-.594-.59-1.188-1.18-1.188zm-1.18 4.162c0-.595.59-1.19 1.18-1.19s1.18.397 1.18 1.19c0 .595-.59 1.19-1.18 1.19s-1.18-.596-1.18-1.19zm1.18 1.585c-.59 0-1.18.595-1.18 1.19 0 .594.59 1.189 1.18 1.189s1.18-.595 1.18-1.19c0-.594-.59-1.189-1.18-1.189zm1.18 4.163c0 .656-.528 1.189-1.18 1.189-.652 0-1.18-.533-1.18-1.19 0-.656.528-1.189 1.18-1.189.652 0 1.18.533 1.18 1.19zm-4.13-12.685c-.59 0-.982.396-.982.991s.393.991.983.991.983-.396.983-.991-.393-.991-.983-.991zm.984 3.964c0 .547-.44.99-.983.99a.987.987 0 0 1-.983-.99c0-.547.44-.991.983-.991.543 0 .983.444.983.99zm-.983 3.766a.987.987 0 0 0 .983-.991.987.987 0 0 0-.983-.991.987.987 0 0 0-.983.99c0 .548.44.992.983.992zm.983 1.982c0 .547-.44.99-.983.99a.987.987 0 0 1-.983-.99c0-.548.44-.991.983-.991.543 0 .983.443.983.99zm-.983 3.963a.987.987 0 0 0 .983-.99c0-.548-.44-.991-.983-.991a.987.987 0 0 0-.983.99c0 .548.44.991.983.991zm-3.54-12.684c0-.396.197-.793.787-.793.393 0 .787.397.787.793s-.394.793-.787.793-.787-.397-.787-.793zm.787 3.766a.79.79 0 0 0 .787-.793.79.79 0 0 0-.787-.793.79.79 0 0 0-.787.793.79.79 0 0 0 .787.793zm.787 1.982a.79.79 0 0 1-.787.793.79.79 0 0 1-.787-.793.79.79 0 0 1 .787-.793.79.79 0 0 1 .787.793zm-.787 3.765a.79.79 0 0 0 .787-.792.79.79 0 0 0-.787-.793.79.79 0 0 0-.787.793.79.79 0 0 0 .787.792zm.787 2.18a.79.79 0 0 1-.787.793.79.79 0 0 1-.787-.792.79.79 0 0 1 .787-.793.79.79 0 0 1 .787.793zM8.848 24.334c-.394 0-.59.199-.59.595 0 .396.393.595.59.595.196 0 .59-.397.59-.595 0-.396-.197-.595-.59-.595zm-.59 3.568c0-.397.196-.793.59-.793.393 0 .59.595.59.793 0 .198-.197.594-.59.594-.394 0-.59-.198-.59-.594zm.59 3.37c.325 0 .59-.267.59-.595a.592.592 0 0 0-.59-.595.592.592 0 0 0-.59.595c0 .328.264.594.59.594zm.59 2.377a.592.592 0 0 1-.59.595.592.592 0 0 1-.59-.595c0-.328.264-.594.59-.594.325 0 .59.266.59.594zm-.59 3.568c.325 0 .59-.266.59-.594a.592.592 0 0 0-.59-.595.592.592 0 0 0-.59.595c0 .328.264.594.59.594zm-3.54-12.288c0-.396.394-.595.59-.595.394 0 .59.397.59.595 0 .396-.196.595-.59.595-.393 0-.59-.397-.59-.595zm.59 2.378c-.196 0-.59.198-.59.595 0 .396.197.595.59.595.394 0 .59-.397.59-.595 0-.198-.196-.595-.59-.595zm-.59 3.568c0-.396.394-.595.59-.595.394 0 .59 0 .59.397 0 .396-.196.793-.59.793-.393 0-.59-.199-.59-.595zm.59 2.378c-.196 0-.59.199-.59.595 0 .396.197.595.59.595.394 0 .59-.397.59-.793 0-.397-.196-.397-.59-.397zm-.59 3.37c0-.397.394-.595.59-.595.394 0 .59.396.59.595 0 .198-.196.594-.59.594-.393 0-.59-.198-.59-.594zm-2.162-12.09c-.197 0-.393.198-.393.396s.196.396.393.396c.196 0 .393-.198.393-.396s-.197-.396-.393-.396zM2.753 27.9c0-.198.196-.396.393-.396.196 0 .393.198.393.396s-.197.396-.393.396c-.197 0-.393-.198-.393-.396zm.393 2.576c-.197 0-.393.199-.393.397s.196.396.393.396c.196 0 .393-.198.393-.396s-.197-.396-.393-.396zm-.393 3.172c0-.198.196-.397.393-.397.196 0 .393.199.393.397s-.197.396-.393.396c-.197 0-.393-.198-.393-.396zm.393 2.576c-.197 0-.393.198-.393.397 0 .198.196.396.393.396.196 0 .393-.198.393-.396 0-.199-.197-.397-.393-.397zM.196 25.126c-.196 0-.196-.198 0-.396.121.244.168.338.14.374-.018.022-.064.022-.14.022zm0 2.973a.197.197 0 0 0 .197-.198.197.197 0 0 0-.197-.198A.197.197 0 0 0 0 27.9c0 .11.088.198.196.198zm.197 2.577c0 .11-.088.198-.197.198A.197.197 0 0 1 0 30.676c0-.11.088-.198.196-.198.109 0 .197.088.197.198zm-.197 3.17a.197.197 0 0 0 .197-.197.197.197 0 0 0-.197-.199.197.197 0 0 0-.196.199c0 .11.088.198.196.198zm.197 2.776c0 .11-.088.198-.197.198A.197.197 0 0 1 0 36.622c0-.11.088-.199.196-.199.109 0 .197.09.197.199z" fill="#42B2FD"/>
</svg>