<svg width="203" height="56" viewBox="0 0 203 56" fill="none" xmlns="http://www.w3.org/2000/svg">
<path fill-rule="evenodd" clip-rule="evenodd" d="M196.474 29.3753L202.112 38.4639H195.723L190.461 29.9374H190.367V38.4639H184.636V16.3513H193.28C195.253 16.2576 197.226 16.8198 198.917 18.0378C200.42 19.3496 201.172 21.2236 201.078 23.1912C201.078 24.6904 200.702 26.0958 199.763 27.3139C198.917 28.3446 197.79 29.0942 196.474 29.3753ZM194.595 22.0668C194.407 21.692 194.031 21.4109 193.655 21.2236C193.28 21.0362 192.81 20.8488 192.434 20.8488C191.964 20.7551 191.401 20.7551 190.931 20.7551H190.367V26.2832H190.931C191.401 26.2832 191.964 26.2832 192.434 26.1895C192.904 26.0958 193.28 26.0021 193.655 25.8147C194.031 25.6273 194.313 25.3463 194.595 24.9715C194.971 23.9408 194.971 22.9101 194.595 22.0668ZM168.381 16.3513H181.065V21.2236H174.206V24.7841H181.065V29.8437H174.206V33.4043H181.065V38.4639H168.381V16.3513ZM84.7595 21.2236H77.9007V24.7841H84.7595V29.8437H77.9007V33.4043H84.7595V38.4639H72.0754V16.3513H84.7595V21.2236ZM63.3374 38.4639L58.0758 29.9374H57.9819V38.4639H52.2505V16.3513H60.8945C62.8676 16.2576 64.8407 16.8198 66.5319 18.0378C68.0352 19.3496 68.7869 21.2236 68.6929 23.1912C68.6929 24.6904 68.3171 26.0958 67.3775 27.3139C66.5319 28.4383 65.2165 29.2816 63.8072 29.469L69.8204 38.5576L63.3374 38.4639ZM62.2099 22.0668C62.022 21.692 61.6462 21.4109 61.2703 21.2236C60.8945 21.0362 60.4247 20.8488 60.0489 20.8488C59.5791 20.7551 59.0154 20.7551 58.5456 20.7551H57.9819V26.2832H58.5456C59.0154 26.2832 59.5791 26.2832 60.0489 26.1895C60.5187 26.0958 60.8945 26.0021 61.2703 25.8147C61.6462 25.6273 61.928 25.3463 62.2099 24.9715C62.6797 23.9408 62.6797 22.9101 62.2099 22.0668ZM99.8866 17.1945C101.108 17.7567 102.329 18.5063 103.269 19.537C104.209 20.5677 104.96 21.7857 105.524 23.0975C106.558 25.9084 106.558 28.9068 105.524 31.7177C104.96 33.0295 104.209 34.2475 103.269 35.2782C102.329 36.3089 101.202 37.0585 99.8866 37.6207C98.6652 38.1828 97.2558 38.4639 95.8464 38.4639H88.2359V16.3513H95.8464C97.2558 16.3513 98.6652 16.6324 99.8866 17.1945ZM93.6854 21.2236V33.5917H94.9069C95.6585 33.5917 96.4102 33.498 97.1618 33.2169C98.6651 32.7484 99.7926 31.624 100.356 30.1248C100.638 29.2816 100.826 28.3446 100.826 27.4076C100.92 25.721 100.356 24.1282 99.2289 22.8164C98.1014 21.692 96.5981 21.1299 95.0008 21.1299L93.6854 21.2236ZM130.423 21.2236H125.631V38.4639H119.899V21.2236H115.108V16.3513H130.423V21.2236V21.2236ZM139.724 38.4639H133.899V16.2576H139.724V38.4639ZM146.301 19.3496C147.335 18.3189 148.556 17.5693 149.872 17.1008C151.281 16.5387 152.878 16.2576 154.382 16.3513C156.355 16.2576 158.328 16.8198 160.019 17.8504C161.616 18.8811 162.932 20.3803 163.683 22.1605L158.61 24.3156C158.234 23.3786 157.67 22.5353 156.918 21.8794C156.167 21.3173 155.133 20.9425 154.194 21.0362C153.442 21.0362 152.596 21.2235 151.939 21.5983C151.281 21.9731 150.717 22.4416 150.247 23.0975C149.778 23.7534 149.402 24.503 149.214 25.2526C148.744 26.8454 148.744 28.4383 149.214 30.0311C149.402 30.7807 149.778 31.5303 150.247 32.0925C150.717 32.7484 151.281 33.2169 151.939 33.5917C152.69 33.9664 153.442 34.1538 154.288 34.1538C155.321 34.1538 156.449 33.8727 157.294 33.2169C158.14 32.561 158.61 31.624 158.61 30.5933H154.288V26.3769H164.905C164.905 27.8761 164.717 29.469 164.435 30.9681C164.153 32.2799 163.589 33.498 162.744 34.6223C161.804 35.9341 160.583 36.9648 159.079 37.7144C157.576 38.3702 155.885 38.745 154.288 38.745C152.784 38.745 151.281 38.4639 149.872 37.9954C148.556 37.527 147.335 36.7774 146.395 35.7467C145.362 34.716 144.61 33.5917 144.14 32.2799C143.576 30.8744 143.295 29.3753 143.389 27.8761C143.389 26.2832 143.67 24.7841 144.234 23.2849C144.516 21.5983 145.268 20.3803 146.301 19.3496Z" fill="#D71920"/>
<path fill-rule="evenodd" clip-rule="evenodd" d="M28.196 21.1286C28.196 21.6908 28.196 22.4404 27.2564 22.7215C26.6926 22.9089 26.0349 22.1593 25.941 21.5971C26.2229 21.2223 26.5987 20.9413 27.0685 20.7539C28.008 20.4728 28.196 20.4728 28.196 21.1286ZM12.0354 22.7215C11.0958 22.4404 11.0958 21.7845 11.0958 21.1286C11.0958 20.3791 11.2837 20.4728 12.2233 20.7539C12.6931 20.9413 13.0689 21.2223 13.3508 21.5971C13.2568 22.1593 12.5991 22.9089 12.0354 22.7215ZM33.3636 40.3367C33.9273 40.0556 34.4911 39.6808 34.8669 39.2123C37.0279 36.8699 37.4977 34.1526 37.7795 31.0606C37.8735 30.2173 37.8735 29.4677 37.8735 28.6245C37.8735 28.5308 37.8735 27.8749 37.9675 27.8749C38.1554 28.0623 38.2493 28.2497 38.3433 28.5308C38.6252 29.2804 38.8131 30.0299 38.8131 30.7795C39.0949 32.2787 39.0949 33.8715 38.907 35.3707C38.8131 35.9329 38.6252 36.4014 38.3433 36.8699C36.9339 39.2123 35.4306 41.2737 34.0213 43.5224C33.9273 43.7098 33.8334 43.335 33.7394 43.335L33.6454 43.2413C33.2696 43.0539 33.1757 43.0539 32.9877 43.1476C32.8938 43.2413 32.8938 43.335 32.7998 43.4287C32.424 44.1783 31.8603 45.3964 31.3905 46.1459C31.2965 46.2396 31.2026 46.3333 31.0147 46.2396C30.9207 46.2396 30.9207 46.1459 30.9207 46.0523C30.9207 45.209 30.9207 44.3657 30.9207 43.4287C30.9207 42.8665 30.9207 42.2106 30.169 42.2106C29.4174 42.2106 29.4174 42.8665 29.4174 43.4287C29.4174 43.8972 29.4174 44.4594 29.4174 45.0216C29.4174 45.1153 29.3234 45.3027 29.1355 45.3027C29.0416 45.3027 29.0416 45.3027 29.0416 45.3027C28.3839 44.8342 27.7262 44.4594 27.0685 44.1783C25.941 43.7098 24.6256 43.8972 23.5921 44.5531L23.78 44.3657C24.6256 43.5224 25.847 43.2413 27.0685 43.5224C27.3503 43.6161 27.7262 43.6161 28.008 43.6161C28.102 43.6161 28.2899 43.5224 28.2899 43.335V43.2413C27.8201 42.0233 26.4108 37.6195 29.3234 36.214C29.4174 36.214 29.4174 36.1203 29.5113 36.0266C29.6053 35.1833 31.1086 31.7165 27.0685 29.4677C26.4108 30.0299 25.6591 31.3417 24.7195 32.185C26.5047 32.5598 27.3503 31.5291 28.196 30.7795C27.8201 32.8409 26.2229 32.9346 25.0014 33.6841C26.1289 33.2157 27.1624 33.8715 28.4778 33.2157C27.5383 34.9959 25.6591 34.1526 24.5316 35.0896C25.6591 35.7455 26.5987 35.3707 27.6322 35.277C27.9141 35.277 28.1959 35.277 28.4778 35.277C28.2899 35.6518 28.008 35.9329 27.6322 36.214C27.2564 36.4951 26.7866 36.6825 26.3168 36.8699C25.847 37.0573 25.3772 37.0573 24.8135 36.8699C23.4042 36.4014 21.9948 35.9329 20.5854 35.3707C20.3036 35.277 20.1157 34.9959 20.0217 34.7148C19.9278 34.2463 20.0217 33.7778 20.0217 33.3094C19.9278 32.7472 20.3036 32.185 20.8673 31.9976C22.1827 31.6228 23.3102 30.8732 24.1558 29.7488C24.4377 29.3741 24.6256 28.9056 24.7195 28.4371C24.7195 27.9686 24.6256 27.5938 24.5316 27.219C24.4377 26.9379 24.4377 26.5631 24.5316 26.282V26.1883L24.8135 24.9703C24.9075 24.5955 25.0954 24.2207 25.4712 24.0333L25.5652 23.9396L25.6591 23.8459C26.2229 23.5648 26.7866 23.3774 27.3503 23.19C29.4174 22.3467 30.9207 20.7539 31.5784 18.5988C31.8603 17.9429 31.8603 17.1933 31.7663 16.4438C31.5784 16.8186 31.2965 17.6618 31.1086 18.0366C30.9207 18.6925 30.263 19.0673 29.6053 18.9736C27.7262 18.9736 25.941 19.2547 24.9075 21.2223C24.4377 22.253 23.686 23.0963 22.6525 23.5648C22.6525 23.0026 22.7465 22.4404 22.9344 21.8782C22.0888 21.5034 22.3706 21.035 22.8404 20.5665C23.4981 19.9106 24.0619 19.2547 24.7195 18.5051C24.1558 18.4114 23.686 18.0366 23.2162 17.6618H26.8806V17.5681C25.7531 17.3807 24.7195 17.0059 23.686 16.4438C25.3772 15.4131 28.8536 15.8816 29.4174 15.6942C29.4174 15.6005 28.9476 15.4131 28.4778 15.3194C27.3503 15.0383 26.8806 14.9446 25.7531 14.5698C24.6256 14.2887 23.4981 13.8202 22.4646 13.258H27.2564C25.6591 12.3211 23.8739 11.7589 21.9948 11.4778C20.9613 11.3841 20.2096 11.3841 19.5519 11.3841V11.103V11.3841C18.8942 11.3841 18.1426 11.3841 17.1091 11.4778C15.2299 11.6652 13.4447 12.3211 11.8475 13.258H16.6393C15.6057 13.8202 14.4783 14.2887 13.3508 14.5698C12.2233 14.8509 11.7535 14.9446 10.626 15.3194C10.1563 15.5068 9.59251 15.6005 9.68647 15.6942C10.2502 15.8816 13.8206 15.4131 15.4178 16.4438C14.4783 17.0059 13.3508 17.3807 12.2233 17.5681V17.6618H15.8876C15.5118 18.0366 14.948 18.3177 14.3843 18.5051C15.042 19.2547 15.6997 19.9106 16.2634 20.5665C16.7332 21.035 17.1091 21.5971 16.1695 21.8782C16.3574 22.4404 16.4514 23.0026 16.4514 23.5648C15.4178 23.0963 14.6662 22.253 14.1964 21.2223C13.1629 19.2547 11.3777 18.9736 9.49856 18.9736C8.84086 19.0673 8.18316 18.6925 7.99525 18.0366C7.80734 17.6618 7.52546 16.8186 7.33755 16.4438C7.24359 17.1933 7.2436 17.9429 7.52547 18.5988C8.18316 20.6602 9.68647 22.3467 11.7535 23.19C12.3173 23.3774 12.881 23.5648 13.4447 23.8459C13.4447 23.8459 13.5387 23.8459 13.5387 23.9396C13.5387 23.9396 13.6327 23.9396 13.6327 24.0333C13.9145 24.2207 14.1964 24.5955 14.2903 24.9703L14.5722 26.1883V26.282C14.6662 26.5631 14.6662 26.9379 14.5722 27.219C14.3843 27.5938 14.3843 28.0623 14.3843 28.4371C14.4783 28.9056 14.6662 29.3741 14.948 29.7488C15.7937 30.8732 16.9211 31.6228 18.2365 31.9976C18.8003 32.0913 19.1761 32.6535 19.0821 33.3094C19.0821 33.7778 19.1761 34.2463 19.0821 34.7148C18.9882 34.9959 18.8003 35.277 18.5184 35.3707C17.1091 35.9329 15.6997 36.4014 14.2903 36.8699C13.8206 36.9636 13.2568 36.9636 12.787 36.8699C12.3173 36.7762 11.8475 36.4951 11.4716 36.214C11.1898 35.9329 10.9079 35.6518 10.626 35.277C10.9079 35.1833 11.1898 35.1833 11.4716 35.277C12.5052 35.3707 13.4447 35.7455 14.5722 35.0896C13.4447 34.1526 11.5656 34.9959 10.626 33.2157C11.9414 33.8715 12.975 33.3094 14.1024 33.6841C12.881 32.9346 11.2837 32.8409 10.9079 30.7795C11.7535 31.5291 12.6931 32.5598 14.3843 32.185C13.4447 31.3417 12.5991 30.0299 12.0354 29.4677C7.99525 31.7165 9.49856 35.1833 9.59251 36.0266C9.59251 36.1203 9.68647 36.214 9.78042 36.214C12.6931 37.7132 11.2837 42.1169 10.814 43.2413C10.814 43.335 10.814 43.4287 10.814 43.4287C10.814 43.5224 10.9079 43.5224 11.0019 43.5224C11.2837 43.5224 11.6596 43.5224 11.9414 43.4287C13.0689 43.1476 14.2904 43.5224 15.2299 44.272L15.4178 44.4594C14.3843 43.7098 13.0689 43.6161 11.9414 44.0846C11.1898 44.3657 10.5321 44.7405 9.96834 45.209C9.87438 45.3027 9.68647 45.209 9.59251 45.1153V45.0216C9.59251 44.4594 9.59251 43.8972 9.59251 43.4287C9.59251 42.8665 9.59251 42.2106 8.84086 42.2106C8.0892 42.2106 8.08921 42.8665 8.08921 43.4287C8.08921 44.272 8.08921 45.1153 8.08921 46.0523C8.08921 46.1459 7.99525 46.3333 7.80733 46.3333C7.71338 46.3333 7.61942 46.2396 7.61942 46.2396C7.14964 45.4901 6.5859 44.272 6.21007 43.5224C6.21007 43.4287 6.11611 43.335 6.02215 43.2413C5.83424 43.1476 5.74029 43.1476 5.36446 43.335L5.2705 43.4287C5.17655 43.5224 5.08259 43.8035 4.98863 43.6161C3.57928 41.3674 1.98202 39.2123 0.666621 36.9636C0.384751 36.4951 0.196839 36.0266 0.102882 35.4644C-0.0850315 33.9652 0.00892379 32.3724 0.196837 30.8732C0.290794 30.1236 0.478708 29.3741 0.666621 28.6245C0.760578 28.3434 0.854536 28.156 1.04245 27.9686C1.13641 27.9686 1.1364 28.5308 1.1364 28.7182C1.1364 29.5614 1.1364 30.4047 1.23036 31.1543C1.51223 34.2463 1.88806 36.9636 4.14302 39.306C4.6128 39.7745 5.08259 40.1493 5.64633 40.4304C5.74029 40.5241 5.9282 40.4304 5.9282 40.3367C5.9282 40.243 5.9282 40.243 5.9282 40.1493C5.2705 38.7438 4.51885 37.4321 3.95511 36.0266C3.39137 34.6211 3.01554 33.122 2.63971 31.6228C2.63971 31.5291 2.63972 31.3417 2.82763 31.3417C2.92159 31.3417 2.92158 31.3417 3.01554 31.3417C3.29741 31.4354 3.76719 31.6228 4.04906 31.7165C4.14302 31.8102 4.33094 31.7165 4.33094 31.5291C4.33094 31.4354 4.33094 31.4354 4.33094 31.3417C3.95511 29.9362 2.54576 25.7198 2.54576 25.7198C2.63971 25.8135 3.39137 26.9379 3.48532 27.0316C4.14302 28.0623 4.70676 29.093 5.17655 30.2173C5.36446 30.7795 5.55238 31.248 5.64633 31.4354C5.64633 31.5291 5.74029 31.6228 5.64633 31.7165C4.51885 32.6535 5.45841 34.5274 5.9282 35.0896C6.5859 35.8392 7.05568 36.7762 7.33755 37.8068C7.43151 37.9942 7.52547 38.2753 7.61942 38.6501C7.71338 38.7438 7.80733 38.8375 7.90129 38.8375C7.99524 38.8375 8.08921 38.7438 8.08921 38.5564C7.99525 37.2447 7.80733 35.5581 7.33755 35.0896C6.67985 34.4337 6.77381 32.3724 7.52547 31.9976C8.18316 31.6228 8.37108 31.248 7.99525 30.6858C7.90129 30.5921 7.99525 30.4047 8.08921 30.311L11.1898 28.5308C11.2837 28.4371 11.3777 28.3434 11.2837 28.156C11.2837 28.0623 11.1898 28.0623 11.0958 28.0623C9.96834 27.9686 8.93482 28.2497 8.08921 28.9993C7.43151 29.3741 6.5859 29.1867 6.21007 28.5308C6.11611 28.4371 6.11612 28.3434 6.11612 28.2497C6.02216 28.0623 6.02215 27.9686 5.9282 27.7812C5.9282 27.6875 6.02216 27.5001 6.11612 27.5001C7.61942 27.1253 7.90129 27.0316 7.99525 26.5631C7.99525 26.4694 7.90129 26.282 7.80733 26.282C7.24359 26.3757 6.67985 26.282 6.21007 26.0946C5.9282 25.8135 5.74029 25.4387 5.64633 24.9703C5.64633 24.8766 5.64633 24.6892 5.83424 24.6892C5.9282 24.6892 5.9282 24.6892 6.02215 24.6892C6.58589 24.8766 6.67986 24.8766 7.05568 24.6892C7.14964 24.5955 7.14964 24.4081 7.05568 24.3144C6.96173 24.2207 6.86777 24.127 6.86777 24.127C5.74028 23.2837 3.95511 18.4114 4.04906 16.9123C3.57928 17.287 3.29741 17.8492 3.1095 18.4114C1.88806 17.9429 1.04245 17.7555 1.1364 16.069L2.4518 16.7249C2.4518 16.7249 2.54575 16.2564 1.7941 15.6005C0.290791 14.2887 0.00892665 12.6022 0.00892665 10.8219C-0.0850301 9.88492 0.572666 9.13534 1.51223 9.04164C1.88806 9.04164 2.16993 9.13534 2.4518 9.22904C5.45842 10.6345 9.49856 12.04 12.881 11.5715H12.975C15.042 11.103 17.203 10.9156 19.364 10.9156C21.525 10.9156 23.686 11.1967 25.7531 11.5715H25.847C29.2295 12.04 33.2696 10.6345 36.2762 9.22904C37.0279 8.76055 38.0614 9.04164 38.5312 9.79122C38.7191 10.0723 38.8131 10.4471 38.7191 10.8219C38.6252 12.6959 38.4372 14.3824 36.9339 15.6005C36.1823 16.1627 36.2762 16.7249 36.2762 16.7249L37.5916 16.069C37.7795 17.7555 36.84 17.9429 35.6185 18.4114C35.4306 17.8492 35.0548 17.3807 34.679 16.9123C34.7729 18.3177 32.9877 23.19 31.8603 24.127C31.7663 24.2207 31.6724 24.3144 31.6724 24.3144C31.6724 24.4081 31.5784 24.4081 31.5784 24.5018C31.5784 24.5955 31.5784 24.5955 31.6724 24.6892C31.9542 24.8766 32.1421 24.9703 32.7059 24.6892C32.7998 24.5955 32.9877 24.6892 32.9877 24.7829C32.9877 24.8766 32.9877 24.8766 32.9877 24.9703C32.8938 25.3451 32.7059 25.8135 32.424 26.0946C31.9542 26.282 31.3905 26.3757 30.8267 26.282C30.7328 26.282 30.5449 26.3757 30.5449 26.5631C30.6388 27.0316 30.8267 27.1253 32.424 27.5001C32.518 27.5001 32.7059 27.6875 32.6119 27.7812C32.6119 27.9686 32.518 28.156 32.424 28.2497C32.2361 28.9993 31.3905 29.3741 30.6388 29.1867C30.5449 29.1867 30.4509 29.093 30.357 29.093C29.5113 28.4371 28.3839 28.0623 27.3503 28.156C27.2564 28.156 27.1624 28.3434 27.1624 28.4371C27.1624 28.5308 27.2564 28.6245 27.2564 28.6245L30.357 30.4047C30.4509 30.4984 30.5449 30.5921 30.4509 30.7795C30.0751 31.3417 30.263 31.7165 30.9207 32.0913C31.6723 32.4661 31.7663 34.6211 31.1086 35.1833C30.6388 35.5581 30.4509 37.3384 30.357 38.6501C30.357 38.7438 30.4509 38.9312 30.6388 38.9312C30.7328 38.9312 30.8267 38.8375 30.9207 38.7438C31.0147 38.4627 31.1086 38.1816 31.2026 37.9005C31.4844 36.8699 31.9542 35.9329 32.6119 35.1833C33.0817 34.6211 34.0213 32.7472 32.8938 31.8102C32.7998 31.7165 32.7998 31.6228 32.8938 31.5291C32.9877 31.3417 33.1757 30.8732 33.3636 30.311C33.8334 29.1867 34.3971 28.156 35.0548 27.1253C35.1487 27.0316 35.9004 25.8135 35.9944 25.8135C35.9944 25.8135 34.679 30.0299 34.2092 31.4354C34.2092 31.5291 34.2092 31.7165 34.3971 31.7165C34.4911 31.7165 34.4911 31.7165 34.585 31.7165C34.9608 31.6228 35.3367 31.4354 35.6185 31.3417C35.7125 31.3417 35.9004 31.3417 35.9004 31.5291C35.9004 31.6228 35.9004 31.6228 35.9004 31.7165C35.4306 33.2157 35.1487 34.7148 34.585 36.1203C34.0213 37.5258 33.3636 38.8375 32.6119 40.243C32.518 40.3367 32.6119 40.5241 32.7059 40.6178C33.2696 40.4304 33.2696 40.4304 33.3636 40.3367ZM12.6931 29.2804L12.5991 29.3741C12.5991 29.2804 12.5991 29.2804 12.6931 29.2804ZM6.96172 10.9156C7.24359 11.0093 7.43151 11.0093 7.71338 11.103C7.52546 11.0093 7.24359 10.9156 6.96172 10.9156ZM6.67986 11.1967C3.20346 10.9156 3.86115 13.5391 4.51885 15.0383L5.08259 15.9753L5.17655 16.069C6.02216 18.1303 6.77381 22.4404 11.0019 24.127C10.814 24.0333 10.72 23.9396 10.5321 23.8459C9.31064 22.8152 8.37108 21.5971 7.61942 20.1917C5.74029 16.4438 6.21007 14.1013 6.02215 13.1643C6.39798 13.258 7.71337 13.5391 7.90129 13.6328C7.90129 13.5391 5.64633 12.6022 4.98863 12.2274C5.2705 12.04 5.64633 11.9463 5.9282 11.8526C7.43151 11.6652 7.99525 12.1337 8.93482 12.3211C9.59252 12.4148 10.2502 12.3211 10.814 12.1337L6.67986 11.1967ZM26.5987 29.2804L26.6926 29.3741L26.5987 29.2804ZM31.5784 11.0093C31.8603 10.9156 32.0482 10.9156 32.33 10.8219C32.0482 10.9156 31.7663 11.0093 31.5784 11.0093ZM34.1152 16.1627C34.1152 16.1627 34.2092 16.1627 34.1152 16.1627C34.1152 16.069 34.2092 16.069 34.2092 15.9753L34.7729 15.0383C35.4306 13.5391 36.0883 10.9156 32.6119 11.1967L28.4778 12.2274C29.1355 12.4148 29.6993 12.4148 30.357 12.4148C31.2965 12.3211 31.8603 11.8526 33.3636 11.9463C33.7394 11.9463 34.0213 12.1337 34.3031 12.3211C33.6454 12.6959 31.3905 13.6328 31.3905 13.7265C31.6723 13.6328 32.8938 13.3517 33.2696 13.258C33.0817 14.195 33.5515 16.5375 31.6724 20.2854C30.9207 21.6908 29.9811 22.9089 28.7597 23.9396C28.5718 24.0333 28.4778 24.127 28.2899 24.2207C32.518 22.5341 33.2696 18.224 34.1152 16.1627ZM19.6459 29.4677C19.1761 29.4677 18.6124 29.4677 17.8607 29.4677C17.203 29.4677 16.6393 29.3741 15.9816 29.093C15.6997 28.9056 15.5118 28.4371 15.6057 28.0623C15.6057 27.5001 16.3574 27.1253 16.3574 27.1253C16.3574 28.3434 17.3909 28.7182 19.6459 28.7182C21.9008 28.7182 22.9344 28.3434 22.9344 27.1253C22.9344 27.1253 23.5921 27.5001 23.686 28.0623C23.78 28.4371 23.5921 28.8119 23.3102 29.093C22.7465 29.3741 22.0888 29.4677 21.4311 29.4677C20.6794 29.4677 20.2096 29.4677 19.6459 29.4677ZM19.6459 42.6791C19.7398 44.272 16.9211 44.4594 14.5722 43.0539C14.4783 42.5854 14.6662 41.6485 14.3843 41.4611C14.0085 41.18 13.3508 41.5548 12.881 41.8359C12.5052 42.1169 12.2233 42.5854 11.8475 42.8665C12.0354 40.3367 14.5722 38.0879 18.4244 37.9005C18.8942 37.9005 19.2701 37.8068 19.6459 37.8068C20.0217 37.8068 20.4915 37.8068 20.8673 37.9005C24.7195 38.0879 27.2564 40.4304 27.4443 42.8665C27.0685 42.5854 26.7866 42.0233 26.4108 41.8359C26.0349 41.5548 25.3772 41.18 24.9075 41.4611C24.6256 41.6485 24.9075 42.4917 24.7195 43.0539C22.3706 44.4594 19.5519 44.272 19.6459 42.6791Z" fill="#D71920"/>
</svg>
