<svg width="32" height="32" viewBox="0 0 32 32" fill="none" xmlns="http://www.w3.org/2000/svg">
<path fill-rule="evenodd" clip-rule="evenodd" d="M23.1126 10.396C23.1126 10.8779 23.1126 11.5204 22.3425 11.7613C21.8803 11.9219 21.3412 11.2794 21.2642 10.7975C21.4953 10.4763 21.8033 10.2354 22.1884 10.0747C22.9586 9.8338 23.1126 9.8338 23.1126 10.396ZM9.86558 11.7613C9.0954 11.5204 9.0954 10.9582 9.0954 10.396C9.0954 9.75348 9.24944 9.8338 10.0196 10.0747C10.4047 10.2354 10.7128 10.4763 10.9438 10.7975C10.8668 11.2794 10.3277 11.9219 9.86558 11.7613ZM27.3486 26.86C27.8107 26.6191 28.2728 26.2978 28.5809 25.8963C30.3523 23.8885 30.7374 21.5594 30.9684 18.9091C31.0455 18.1863 31.0455 17.5438 31.0455 16.821C31.0455 16.7407 31.0455 16.1785 31.1225 16.1785C31.2765 16.3391 31.3535 16.4997 31.4305 16.7407C31.6616 17.3832 31.8156 18.0257 31.8156 18.6682C32.0467 19.9532 32.0467 21.3185 31.8926 22.6035C31.8156 23.0853 31.6616 23.4869 31.4305 23.8885C30.2753 25.8963 29.043 27.6631 27.8877 29.5906C27.8107 29.7513 27.7337 29.43 27.6567 29.43L27.5797 29.3497C27.2716 29.1891 27.1946 29.1891 27.0405 29.2694C26.9635 29.3497 26.9635 29.43 26.8865 29.5103C26.5784 30.1528 26.1163 31.1969 25.7312 31.8394C25.6542 31.9197 25.5772 32 25.4232 31.9197C25.3461 31.9197 25.3461 31.8394 25.3461 31.7591C25.3461 31.0363 25.3461 30.3134 25.3461 29.5103C25.3461 29.0284 25.3461 28.4663 24.73 28.4663C24.1139 28.4663 24.1139 29.0284 24.1139 29.5103C24.1139 29.9119 24.1139 30.3938 24.1139 30.8756C24.1139 30.9559 24.0368 31.1166 23.8828 31.1166C23.8058 31.1166 23.8058 31.1166 23.8058 31.1166C23.2667 30.715 22.7275 30.3938 22.1884 30.1528C21.2642 29.7513 20.186 29.9119 19.3388 30.4741L19.4928 30.3134C20.186 29.5906 21.1872 29.3497 22.1884 29.5906C22.4195 29.6709 22.7275 29.6709 22.9586 29.6709C23.0356 29.6709 23.1896 29.5906 23.1896 29.43V29.3497C22.8046 28.3056 21.6493 24.531 24.0368 23.3263C24.1139 23.3263 24.1139 23.246 24.1909 23.1656C24.2679 22.4428 25.5002 19.4713 22.1884 17.5438C21.6493 18.0257 21.0331 19.15 20.263 19.8728C21.7263 20.1941 22.4195 19.3107 23.1126 18.6682C22.8046 20.435 21.4953 20.5153 20.494 21.1578C21.4182 20.7563 22.2654 21.3185 23.3437 20.7563C22.5735 22.2822 21.0332 21.5594 20.1089 22.3625C21.0332 22.9247 21.8033 22.6035 22.6505 22.5231C22.8816 22.5231 23.1126 22.5231 23.3437 22.5231C23.1896 22.8444 22.9586 23.0853 22.6505 23.3263C22.3424 23.5672 21.9574 23.7278 21.5723 23.8885C21.1872 24.0491 20.8021 24.0491 20.34 23.8885C19.1847 23.4869 18.0295 23.0853 16.8742 22.6035C16.6431 22.5231 16.4891 22.2822 16.4121 22.0413C16.3351 21.6397 16.4121 21.2381 16.4121 20.8366C16.3351 20.3547 16.6431 19.8728 17.1052 19.7122C18.1835 19.391 19.1077 18.7485 19.8009 17.7847C20.0319 17.4635 20.186 17.0619 20.263 16.6603C20.263 16.2588 20.186 15.9375 20.1089 15.6163C20.0319 15.3753 20.0319 15.0541 20.1089 14.8132V14.7328L20.34 13.6888C20.417 13.3675 20.571 13.0463 20.8791 12.8857L20.9561 12.8054L21.0331 12.725C21.4953 12.4841 21.9574 12.3235 22.4195 12.1629C24.1139 11.44 25.3461 10.0747 25.8853 8.22755C26.1163 7.66537 26.1163 7.02286 26.0393 6.38037C25.8853 6.70162 25.6542 7.42443 25.5002 7.74568C25.3461 8.30786 24.807 8.62911 24.2679 8.5488C22.7275 8.5488 21.2642 8.78974 20.417 10.4763C20.0319 11.3597 19.4158 12.0825 18.5686 12.4841C18.5686 12.0022 18.6456 11.5204 18.7996 11.0385C18.1065 10.7172 18.3375 10.3157 18.7226 9.91411C19.2617 9.35192 19.7238 8.78974 20.263 8.14724C19.8009 8.06693 19.4158 7.74568 19.0307 7.42443H22.0344V7.34411C21.1102 7.18349 20.263 6.86224 19.4158 6.38037C20.8021 5.49693 23.6518 5.89849 24.1139 5.73787C24.1139 5.65756 23.7288 5.49693 23.3437 5.41662C22.4195 5.17568 22.0344 5.09537 21.1102 4.77412C20.186 4.53318 19.2617 4.13162 18.4145 3.64975H22.3425C21.0332 2.84662 19.5698 2.36475 18.0295 2.12382C17.1823 2.0435 16.5661 2.0435 16.027 2.0435V1.80257V2.0435C15.4879 2.0435 14.8717 2.0435 14.0245 2.12382C12.4842 2.28444 11.0208 2.84662 9.71155 3.64975H13.6394C12.7923 4.13162 11.868 4.53318 10.9438 4.77412C10.0196 5.01506 9.63453 5.09537 8.71032 5.41662C8.32523 5.57724 7.86312 5.65756 7.94014 5.73787C8.40224 5.89849 11.3289 5.49693 12.6382 6.38037C11.868 6.86224 10.9438 7.18349 10.0196 7.34411V7.42443H13.0233C12.7152 7.74568 12.2531 7.98661 11.791 8.14724C12.3301 8.78974 12.8693 9.35192 13.3314 9.91411C13.7165 10.3157 14.0245 10.7975 13.2544 11.0385C13.4084 11.5204 13.4854 12.0022 13.4854 12.4841C12.6382 12.0825 12.0221 11.3597 11.637 10.4763C10.7898 8.78974 9.32646 8.5488 7.7861 8.5488C7.24698 8.62911 6.70786 8.30786 6.55382 7.74568C6.39979 7.42443 6.16873 6.70162 6.0147 6.38037C5.93768 7.02286 5.93768 7.66537 6.16873 8.22755C6.70786 9.99442 7.94014 11.44 9.63453 12.1629C10.0966 12.3235 10.5587 12.4841 11.0208 12.725C11.0208 12.725 11.0979 12.725 11.0979 12.8054C11.0979 12.8054 11.1749 12.8054 11.1749 12.8857C11.4059 13.0463 11.637 13.3675 11.714 13.6888L11.9451 14.7328V14.8132C12.0221 15.0541 12.0221 15.3753 11.9451 15.6163C11.791 15.9375 11.791 16.3391 11.791 16.6603C11.868 17.0619 12.0221 17.4635 12.2531 17.7847C12.9463 18.7485 13.8705 19.391 14.9487 19.7122C15.4109 19.7925 15.7189 20.2744 15.6419 20.8366C15.6419 21.2381 15.7189 21.6397 15.6419 22.0413C15.5649 22.2822 15.4109 22.5231 15.1798 22.6035C14.0245 23.0853 12.8693 23.4869 11.714 23.8885C11.3289 23.9688 10.8668 23.9688 10.4817 23.8885C10.0966 23.8081 9.71155 23.5672 9.40348 23.3263C9.17242 23.0853 8.94137 22.8444 8.71032 22.5231C8.94137 22.4428 9.17242 22.4428 9.40348 22.5231C10.2507 22.6035 11.0208 22.9247 11.9451 22.3625C11.0208 21.5594 9.48049 22.2822 8.71032 20.7563C9.78856 21.3185 10.6358 20.8366 11.56 21.1578C10.5587 20.5153 9.24944 20.435 8.94137 18.6682C9.63453 19.3107 10.4047 20.1941 11.791 19.8728C11.0208 19.15 10.3277 18.0257 9.86558 17.5438C6.55382 19.4713 7.7861 22.4428 7.86312 23.1656C7.86312 23.246 7.94014 23.3263 8.01715 23.3263C10.4047 24.6113 9.24944 28.3859 8.86435 29.3497C8.86435 29.43 8.86435 29.5103 8.86435 29.5103C8.86435 29.5906 8.94137 29.5906 9.01839 29.5906C9.24944 29.5906 9.55751 29.5906 9.78856 29.5103C10.7128 29.2694 11.714 29.5906 12.4842 30.2331L12.6382 30.3938C11.791 29.7513 10.7128 29.6709 9.78856 30.0725C9.17242 30.3134 8.6333 30.6347 8.17119 31.0363C8.09418 31.1166 7.94014 31.0363 7.86312 30.9559V30.8756C7.86312 30.3938 7.86312 29.9119 7.86312 29.5103C7.86312 29.0284 7.86312 28.4663 7.24698 28.4663C6.63084 28.4663 6.63084 29.0284 6.63084 29.5103C6.63084 30.2331 6.63084 30.9559 6.63084 31.7591C6.63084 31.8394 6.55382 32 6.39978 32C6.32277 32 6.24575 31.9197 6.24575 31.9197C5.86066 31.2772 5.39856 30.2331 5.09049 29.5906C5.09049 29.5103 5.01346 29.43 4.93645 29.3497C4.78241 29.2694 4.7054 29.2694 4.39732 29.43L4.32031 29.5103C4.24329 29.5906 4.16627 29.8316 4.08925 29.6709C2.93399 27.7434 1.62469 25.8963 0.546439 23.9688C0.315386 23.5672 0.161352 23.1656 0.0843338 22.6838C-0.0697016 21.3988 0.00731496 20.0335 0.16135 18.7485C0.238368 18.106 0.392404 17.4635 0.546439 16.821C0.623457 16.58 0.700476 16.4194 0.854511 16.2588C0.931529 16.2588 0.931528 16.7407 0.931528 16.9013C0.931528 17.6241 0.931526 18.3469 1.00854 18.9894C1.2396 21.6397 1.54767 23.9688 3.39609 25.9766C3.78118 26.3781 4.16627 26.6994 4.62838 26.9403C4.7054 27.0206 4.85943 26.9403 4.85943 26.86C4.85943 26.7797 4.85943 26.7797 4.85943 26.6994C4.32031 25.4947 3.70417 24.3703 3.24206 23.1656C2.77995 21.961 2.47188 20.676 2.16381 19.391C2.16381 19.3107 2.16381 19.15 2.31785 19.15C2.39487 19.15 2.39486 19.15 2.47188 19.15C2.70293 19.2303 3.08802 19.391 3.31908 19.4713C3.39609 19.5516 3.55013 19.4713 3.55013 19.3107C3.55013 19.2303 3.55013 19.2303 3.55013 19.15C3.24206 17.9453 2.08679 14.3313 2.08679 14.3313C2.16381 14.4116 2.77995 15.3753 2.85697 15.4557C3.39609 16.3391 3.8582 17.2225 4.24329 18.1863C4.39733 18.6682 4.55136 19.0697 4.62838 19.2303C4.62838 19.3106 4.7054 19.391 4.62838 19.4713C3.70417 20.2744 4.47434 21.8806 4.85943 22.3625C5.39855 23.005 5.78364 23.8081 6.0147 24.6916C6.09171 24.8522 6.16873 25.0931 6.24575 25.4144C6.32277 25.4947 6.39978 25.575 6.4768 25.575C6.55382 25.575 6.63084 25.4947 6.63084 25.3341C6.55382 24.2097 6.39978 22.7641 6.0147 22.3625C5.47557 21.8003 5.55259 20.0335 6.16873 19.7122C6.70786 19.391 6.86189 19.0697 6.55382 18.5878C6.4768 18.5075 6.55382 18.3469 6.63084 18.2666L9.17242 16.7407C9.24944 16.6603 9.32646 16.58 9.24944 16.4194C9.24944 16.3391 9.17242 16.3391 9.0954 16.3391C8.17119 16.2588 7.324 16.4997 6.63084 17.1422C6.09171 17.4635 5.39856 17.3028 5.09049 16.7407C5.01347 16.6603 5.01347 16.58 5.01347 16.4997C4.93645 16.3391 4.93645 16.2588 4.85943 16.0982C4.85943 16.0178 4.93645 15.8572 5.01347 15.8572C6.24575 15.536 6.4768 15.4557 6.55382 15.0541C6.55382 14.9738 6.4768 14.8132 6.39978 14.8132C5.93768 14.8935 5.47557 14.8132 5.09049 14.6525C4.85943 14.4116 4.7054 14.0904 4.62838 13.6888C4.62838 13.6085 4.62838 13.4479 4.78241 13.4479C4.85943 13.4479 4.85943 13.4479 4.93645 13.4479C5.39855 13.6085 5.47558 13.6085 5.78365 13.4479C5.86066 13.3675 5.86066 13.2069 5.78365 13.1266C5.70663 13.0463 5.62961 12.966 5.62961 12.966C4.70539 12.2432 3.24206 8.06692 3.31908 6.78193C2.93399 7.10318 2.70293 7.58505 2.5489 8.06693C1.54767 7.66537 0.85451 7.50474 0.931528 6.05912L2.00978 6.62131C2.00978 6.62131 2.08679 6.21974 1.47065 5.65756C0.238366 4.53318 0.00731731 3.08756 0.00731731 1.56163C-0.0697004 0.758503 0.469422 0.116003 1.2396 0.035691C1.54767 0.035691 1.77872 0.116007 2.00978 0.196319C4.47434 1.401 7.7861 2.60569 10.5587 2.20413H10.6358C12.3301 1.80257 14.1016 1.64194 15.873 1.64194C17.6444 1.64194 19.4158 1.88288 21.1102 2.20413H21.1872C23.9598 2.60569 27.2716 1.401 29.7362 0.196319C30.3523 -0.205242 31.1995 0.0356935 31.5846 0.678192C31.7386 0.919129 31.8156 1.24038 31.7386 1.56163C31.6616 3.16787 31.5076 4.6135 30.2753 5.65756C29.6591 6.13943 29.7362 6.62131 29.7362 6.62131L30.8144 6.05912C30.9684 7.50474 30.1983 7.66537 29.197 8.06693C29.043 7.58505 28.7349 7.18349 28.4268 6.78193C28.5039 7.98661 27.0405 12.1629 26.1163 12.966C26.0393 13.0463 25.9623 13.1266 25.9623 13.1266C25.9623 13.2069 25.8853 13.2069 25.8853 13.2872C25.8853 13.3675 25.8853 13.3675 25.9623 13.4479C26.1933 13.6085 26.3474 13.6888 26.8095 13.4479C26.8865 13.3675 27.0405 13.4479 27.0405 13.5282C27.0405 13.6085 27.0405 13.6085 27.0405 13.6888C26.9635 14.01 26.8095 14.4116 26.5784 14.6525C26.1933 14.8132 25.7312 14.8935 25.2691 14.8132C25.1921 14.8132 25.0381 14.8935 25.0381 15.0541C25.1151 15.4557 25.2691 15.536 26.5784 15.8572C26.6554 15.8572 26.8095 16.0178 26.7325 16.0982C26.7325 16.2588 26.6554 16.4194 26.5784 16.4997C26.4244 17.1422 25.7312 17.4635 25.1151 17.3028C25.0381 17.3028 24.9611 17.2225 24.884 17.2225C24.1909 16.6603 23.2667 16.3391 22.4195 16.4194C22.3425 16.4194 22.2654 16.58 22.2654 16.6603C22.2654 16.7407 22.3425 16.821 22.3425 16.821L24.884 18.3469C24.9611 18.4272 25.0381 18.5075 24.9611 18.6682C24.653 19.15 24.807 19.4713 25.3461 19.7925C25.9623 20.1138 26.0393 21.961 25.5002 22.4428C25.1151 22.7641 24.9611 24.29 24.884 25.4144C24.884 25.4947 24.9611 25.6553 25.1151 25.6553C25.1921 25.6553 25.2691 25.575 25.3461 25.4947C25.4232 25.2538 25.5002 25.0128 25.5772 24.7719C25.8083 23.8885 26.1933 23.0853 26.7325 22.4428C27.1176 21.961 27.8877 20.3547 26.9635 19.5516C26.8865 19.4713 26.8865 19.391 26.9635 19.3107C27.0405 19.15 27.1946 18.7485 27.3486 18.2666C27.7337 17.3028 28.1958 16.4194 28.7349 15.536C28.8119 15.4557 29.4281 14.4116 29.5051 14.4116C29.5051 14.4116 28.4268 18.0257 28.0418 19.2303C28.0418 19.3106 28.0418 19.4713 28.1958 19.4713C28.2728 19.4713 28.2728 19.4713 28.3498 19.4713C28.6579 19.391 28.966 19.2303 29.197 19.15C29.274 19.15 29.4281 19.15 29.4281 19.3107C29.4281 19.391 29.4281 19.391 29.4281 19.4713C29.043 20.7563 28.8119 22.0413 28.3498 23.246C27.8877 24.4506 27.3486 25.575 26.7325 26.7797C26.6554 26.86 26.7325 27.0206 26.8095 27.1009C27.2716 26.9403 27.2716 26.9403 27.3486 26.86ZM10.4047 17.3832L10.3277 17.4635C10.3277 17.3832 10.3277 17.3832 10.4047 17.3832ZM5.70662 1.64194C5.93768 1.72225 6.09171 1.72225 6.32277 1.80257C6.16873 1.72225 5.93768 1.64194 5.70662 1.64194ZM5.47557 1.88288C2.62592 1.64194 3.16504 3.89068 3.70416 5.17568L4.16627 5.9788L4.24329 6.05912C4.93645 7.82599 5.55259 11.5204 9.01839 12.966C8.86435 12.8857 8.78733 12.8054 8.6333 12.725C7.63207 11.8416 6.86189 10.7975 6.24575 9.59286C4.7054 6.38037 5.09048 4.37256 4.93645 3.56943C5.24452 3.64975 6.32276 3.89068 6.4768 3.971C6.4768 3.89068 4.62838 3.08756 4.08925 2.76631C4.32031 2.60569 4.62838 2.52537 4.85943 2.44506C6.09171 2.28444 6.55382 2.686 7.324 2.84662C7.86312 2.92693 8.40225 2.84662 8.86435 2.686L5.47557 1.88288ZM21.8033 17.3832L21.8803 17.4635L21.8033 17.3832ZM25.8853 1.72225C26.1163 1.64194 26.2704 1.64194 26.5014 1.56163C26.2704 1.64194 26.0393 1.72225 25.8853 1.72225ZM27.9647 6.13943C27.9647 6.13943 28.0418 6.13943 27.9647 6.13943C27.9647 6.05912 28.0418 6.05912 28.0418 5.9788L28.5039 5.17568C29.043 3.89068 29.5821 1.64194 26.7325 1.88288L23.3437 2.76631C23.8828 2.92694 24.3449 2.92694 24.884 2.92694C25.6542 2.84663 26.1163 2.44507 27.3486 2.52538C27.6567 2.52538 27.8877 2.686 28.1188 2.84662C27.5797 3.16787 25.7312 3.97099 25.7312 4.05131C25.9623 3.97099 26.9635 3.73006 27.2716 3.64975C27.1175 4.45287 27.5026 6.46068 25.9623 9.67317C25.3461 10.8779 24.576 11.9219 23.5747 12.8054C23.4207 12.8857 23.3437 12.966 23.1896 13.0463C26.6554 11.6007 27.2716 7.9063 27.9647 6.13943ZM16.104 17.5438C15.7189 17.5438 15.2568 17.5438 14.6407 17.5438C14.1016 17.5438 13.6395 17.4635 13.1003 17.2225C12.8693 17.0619 12.7152 16.6603 12.7923 16.3391C12.7923 15.8572 13.4084 15.536 13.4084 15.536C13.4084 16.58 14.2556 16.9013 16.104 16.9013C17.9524 16.9013 18.7996 16.58 18.7996 15.536C18.7996 15.536 19.3388 15.8572 19.4158 16.3391C19.4928 16.6603 19.3388 16.9816 19.1077 17.2225C18.6456 17.4635 18.1065 17.5438 17.5674 17.5438C16.9512 17.5438 16.5661 17.5438 16.104 17.5438ZM16.104 28.8678C16.181 30.2331 13.8705 30.3938 11.9451 29.1891C11.868 28.7875 12.0221 27.9844 11.791 27.8238C11.483 27.5828 10.9438 27.9041 10.5587 28.145C10.2507 28.3859 10.0196 28.7875 9.71155 29.0284C9.86558 26.86 11.9451 24.9325 15.1028 24.7719C15.4879 24.7719 15.7959 24.6916 16.104 24.6916C16.4121 24.6916 16.7972 24.6916 17.1052 24.7719C20.263 24.9325 22.3425 26.9403 22.4965 29.0284C22.1884 28.7875 21.9574 28.3056 21.6493 28.145C21.3412 27.9041 20.8021 27.5828 20.417 27.8238C20.186 27.9844 20.417 28.7072 20.263 29.1891C18.3375 30.3938 16.027 30.2331 16.104 28.8678Z" fill="#D71920"/>
</svg>
