<?xml version="1.0" encoding="UTF-8"?>
<svg id="Layer_1" data-name="Layer 1" xmlns="http://www.w3.org/2000/svg" viewBox="0 0 177.26 56">
  <defs>
    <style>
      .cls-1 {
        fill: #1b1819;
        stroke-width: 0px;
      }
    </style>
  </defs>
  <path class="cls-1" d="m14.76,48.61c0,1.87-.55,3.28-1.63,4.2-.68.58-1.68.87-2.99.87-1.6,0-2.83-.61-3.66-1.86-.74-1.07-1.11-2.24-1.11-3.54,0-1.61.39-2.94,1.21-4,.4-.52.9-.94,1.52-1.23.63-.31,1.32-.47,2.08-.48.76,0,1.5.11,2.21.36.66.23,1.16.57,1.53.98.1.11.16.26.16.44s-.06.32-.21.44c-.13.1-.27.16-.45.16-.19,0-.37-.08-.52-.19-.47-.37-.87-.61-1.21-.76-.42-.18-.89-.26-1.4-.26-1.18,0-2.08.48-2.68,1.44-.52.82-.79,1.78-.79,2.84,0,1.55.42,2.78,1.31,3.66.5.52,1.16.79,1.95.81.55,0,1.1-.11,1.66-.37,1.15-.55,1.73-1.57,1.73-3.07v-.47h-1.95c-.37,0-.58-.19-.63-.6.03-.44.23-.66.57-.66h2.45c.6,0,.89.34.89,1v.24l-.03.05Z"/>
  <path class="cls-1" d="m172.22,48.61c0,1.87-.55,3.28-1.63,4.2-.68.58-1.68.87-2.99.87-1.6,0-2.83-.61-3.66-1.86-.74-1.07-1.11-2.24-1.11-3.54,0-1.61.39-2.94,1.21-4,.4-.52.9-.94,1.52-1.23.63-.31,1.32-.47,2.08-.48.76,0,1.5.11,2.21.36.66.23,1.16.57,1.53.98.1.11.16.26.16.44s-.06.32-.21.44c-.13.1-.27.16-.45.16-.19,0-.37-.08-.52-.19-.47-.37-.87-.61-1.21-.76-.42-.18-.89-.26-1.4-.26-1.18,0-2.08.48-2.68,1.44-.52.82-.79,1.78-.79,2.84,0,1.55.42,2.78,1.31,3.66.5.52,1.16.79,1.95.81.55,0,1.1-.11,1.66-.37,1.15-.55,1.73-1.57,1.73-3.07v-.47h-1.95c-.37,0-.58-.19-.63-.6.03-.44.23-.66.57-.66h2.45c.6,0,.89.34.89,1v.24l-.03.05Z"/>
  <path class="cls-1" d="m81.47,52.81c0,.6-.23.9-.66.9-.4,0-.63-.19-.69-.6l-1.26-8.82-2.66,8.88c-.11.36-.32.53-.66.53s-.58-.18-.69-.53l-2.63-8.88-1.29,8.88c-.06.44-.31.66-.74.66-.39,0-.6-.26-.63-.77.02-.08.03-.18.03-.31l1.6-9.23c.05-.32.18-.57.36-.71.19-.16.4-.24.65-.24s.45.06.63.19c.16.11.29.29.36.55l2.32,7.99h.03l2.32-8.04c.06-.23.19-.39.37-.52.18-.11.37-.18.6-.18.27,0,.5.08.68.24.18.15.31.37.36.66l1.6,9.35.03-.02Z"/>
  <path class="cls-1" d="m106.54,52.94c0,.5-.21.76-.65.76s-.68-.24-.68-.73v-9.65c0-.48.23-.71.68-.71s.65.24.65.71v9.62Z"/>
  <path class="cls-1" d="m139.07,53.02c0,.45-.19.69-.6.69-.31,0-.55-.15-.74-.44l-5.73-8.25v7.99c0,.44-.23.66-.68.66s-.66-.23-.66-.69v-9.72c0-.48.19-.71.57-.71.29,0,.55.16.76.47l5.72,8.22h0v-7.93c0-.21.06-.37.18-.52s.27-.21.48-.21c.45,0,.68.24.68.71v9.72h.03Z"/>
  <path class="cls-1" d="m46.66,53.18c0,.36-.21.53-.63.53-.15,0-.29-.05-.42-.13-.11-.08-.21-.19-.27-.37l-.73-1.97h-5.04l-.73,1.97c-.11.32-.34.47-.69.47-.39,0-.6-.18-.63-.53,0-.06.03-.13.05-.19l.05-.16,3.52-9.41c.1-.27.23-.47.39-.6.18-.15.36-.21.55-.21.21,0,.4.06.57.21.16.13.29.32.37.58l3.57,9.44c.05.16.06.29.06.39m-2.44-3.1l-2.11-5.93h-.03l-2.1,5.93h4.25Z"/>
  <circle class="cls-1" cx="145.23" cy="5.99" r="4.38"/>
  <path class="cls-1" d="m172.37,5.99c0,2.42-1.95,4.38-4.38,4.38s-4.38-1.95-4.38-4.38,1.95-4.38,4.38-4.38,4.38,1.95,4.38,4.38Z"/>
  <circle class="cls-1" cx="145.23" cy="27.29" r="4.38"/>
  <path class="cls-1" d="m172.37,27.29c0,2.42-1.95,4.38-4.38,4.38s-4.38-1.95-4.38-4.38,1.95-4.38,4.38-4.38,4.38,1.95,4.38,4.38Z"/>
  <path class="cls-1" d="m160.98,16.63c0,2.42-1.95,4.38-4.38,4.38s-4.38-1.95-4.38-4.38,1.95-4.38,4.38-4.38,4.38,1.95,4.38,4.38Z"/>
  <path class="cls-1" d="m133.65,30.66l-12.21-28.56h0c-.08-.27-.32-.47-.61-.48h-5.26c-.29,0-.53.21-.61.48h0l-12.21,28.56c-.03.06-.06.15-.06.23,0,.26.21.48.48.48h5.44c.29,0,.53-.18.63-.44h0l2.52-6.64h12.93l2.52,6.64h0c.1.26.34.44.63.44h5.44c.26,0,.48-.21.48-.48,0-.08-.02-.16-.06-.23h-.05Zm-19.94-11.66l4.47-11.51,4.47,11.51h-8.94Z"/>
  <path class="cls-1" d="m47.56,10.82c.26-1.07.73-1.68.73-1.68,0,0,.69-1.05,2.1-1.73,1.4-.68,2.81-.63,2.81-.63h10.77c.31,0,.57-.26.57-.57V2.18c0-.31-.26-.57-.57-.57h-11.9c-6.57,0-11.88,5.76-11.88,12.87v4.05c0,7.1,5.33,12.85,11.88,12.85h11.9c.31,0,.57-.24.57-.57v-4.04c0-.31-.26-.57-.57-.57h-10.77s-1.39.03-2.81-.63c-1.4-.66-2.1-1.73-2.1-1.73,0,0-.47-.61-.73-1.68-.26-1.07-.39-2.57-.39-2.57v-.69h16.79c.31,0,.57-.26.57-.57v-4.04c0-.31-.26-.57-.57-.57h-16.79v-.37s.13-1.49.39-2.57Z"/>
  <path class="cls-1" d="m84.62,31.37h9.88c.26,0,.47-.24.47-.57v-4.04c0-.31-.21-.57-.47-.57h-8.94s-1.16.03-2.32-.63c-1.16-.66-1.74-1.73-1.74-1.73,0,0-.48-.94-.48-2.03V2.12h0c-.05-.27-.27-.48-.57-.48h-5.1c-.31,0-.57.26-.57.57v14.45h0v5.09c.08,5.36,4.49,9.65,9.88,9.65"/>
  <path class="cls-1" d="m31.69,30.64h0l-6.88-11.67h0c3.54-.74,6.01-3.21,6.01-8.54,0-7.1-4.73-8.73-10.7-8.82H5.64c-.31,0-.57.26-.57.57h0v28.61h0c0,.31.26.57.57.57h5.1c.31,0,.57-.26.57-.57v-11.19h7.25l6.38,11.3h0c.15.27.44.47.77.47h5.55c.26,0,.48-.21.48-.48,0-.1-.03-.18-.08-.26l.03.02Zm-11.53-16.19h-8.86v-7.48h8.86c3.33,0,4.33,1.65,4.33,3.68s-1.02,3.79-4.33,3.79Z"/>
</svg>