<svg width="32" height="32" viewBox="0 0 32 32" fill="none" xmlns="http://www.w3.org/2000/svg">
    <path d="M17.695 9.15c7.672-2.287 13.545 3.431 14.019 12.105 1.23-7.72-1.705-13.725-5.02-16.585-1.61-.19-3.505-.19-5.116-.38-.947 1.048-2.936 3.812-3.883 4.86z" fill="#A31E22"/>
    <path d="M30.956 11.152C27.45 4.194 21.105 7.339 17.79 9.436c-7.105 4.67-10.799-5.623-2.368-8.292 4.925-1.43 13.734 2.954 15.534 10.008z" fill="#EC1C24"/>
    <path d="M20.916 21.16c-1.706 7.72-9.567 10.198-17.524 6.29 6.346 4.766 12.977 5.147 17.145 3.622.947-1.334 1.894-2.955 2.841-4.29-.473-1.238-1.989-4.383-2.462-5.622z" fill="#659941"/>
    <path d="M12.675 31.644c7.861.381 8.146-6.767 7.861-10.58-.663-8.387 10.136-6.672 8.43 1.906-.947 5.052-9.187 10.485-16.291 8.674z" fill="#A6CE38"/>
    <path d="M8.602 18.11C2.918 12.58 5.002 4.67 12.485 0 5.097 2.764 1.213 8.102.361 12.486c.663 1.43 1.516 3.145 2.179 4.67 1.23.19 4.736.668 6.062.953z" fill="#116D98"/>
    <path d="M4.055 5.623c-4.452 6.386 1.42 10.485 4.926 12.2 7.577 3.908.284 12.105-6.063 6.1-3.883-3.526-4.262-13.343 1.137-18.3z" fill="#28ABE2"/>
</svg>
