<svg width="142" height="56" viewBox="0 0 142 56" fill="none" xmlns="http://www.w3.org/2000/svg">
<path d="M17.0747 21.2209C24.4186 19.0265 30.1042 24.4341 30.578 32.7415C31.6835 25.3746 28.9197 19.7318 25.6821 16.9888C24.1817 16.8321 22.2865 16.7537 20.7861 16.597C19.9175 17.6158 17.9433 20.2804 17.0747 21.2209Z" fill="#A41E22"/>
<path d="M29.7094 23.2585C26.3928 16.5969 20.2334 19.6534 17.0747 21.6911C10.2836 26.0799 6.73009 16.3618 14.7847 13.8539C19.6017 12.2865 28.0511 16.5186 29.7094 23.2585Z" fill="#ED1C24"/>
<path d="M20.1545 32.6631C18.4962 40.0301 10.9154 42.3028 3.33459 38.6194C9.41503 43.0865 15.7324 43.4784 19.7597 41.9893C20.6283 40.7354 21.5759 39.168 22.4445 37.914C22.0497 36.8168 20.6283 33.8387 20.1545 32.6631Z" fill="#659A41"/>
<path d="M12.2578 42.5379C19.8386 42.8514 20.0755 36.1898 19.8386 32.5064C19.2069 24.5125 29.5515 26.2367 27.9722 34.3089C26.9456 39.0896 19.0489 44.3405 12.2578 42.5379Z" fill="#A7CF38"/>
<path d="M8.30951 29.7634C2.78184 24.5125 4.83497 16.9888 12.0209 12.6C4.91394 15.2646 1.20251 20.3588 0.412842 24.4341C1.04457 25.8448 1.83424 27.4122 2.46597 28.8229C3.72944 29.058 7.04604 29.5282 8.30951 29.7634Z" fill="#136D9A"/>
<path d="M3.88734 17.9293C-0.37686 24.0423 5.22977 27.8041 8.54637 29.5283C15.8113 33.2117 8.86224 40.9705 2.70284 35.3278C-0.929626 31.9578 -1.24549 22.71 3.88734 17.9293Z" fill="#2AACE3"/>
<path d="M80.0112 34.3089H83.9595C84.0385 34.3089 84.1175 34.3089 84.1175 34.3089H84.4333C85.3809 34.3089 85.9337 34.4657 86.1706 34.8575C86.4075 35.2494 86.4865 35.7196 86.4865 36.4249C86.4865 37.3654 86.2496 37.914 85.7758 38.1491C85.302 38.3059 84.4333 38.4626 83.3278 38.4626H80.0112V34.3089ZM80.0112 43.2433V39.4031H83.6437C83.7226 39.4031 83.8016 39.4031 83.9595 39.4031C84.0385 39.4031 84.1175 39.4031 84.2754 39.4031H84.3544C84.9071 39.4031 85.3809 39.3247 85.8547 39.2463C86.3285 39.1679 86.8023 39.0112 87.1972 38.6977C87.4341 38.541 87.592 38.3059 87.7499 37.9924C87.9079 37.7573 87.9079 37.4438 87.9868 37.2087C87.9868 37.0519 87.9868 36.9735 87.9868 36.8168C87.9868 36.6601 87.9868 36.5817 87.9868 36.4249C87.9868 36.3466 87.9868 36.2682 87.9868 36.1115C87.9868 36.0331 87.9868 35.8763 87.9868 35.798C87.9079 35.4061 87.8289 35.0926 87.7499 34.7008C87.671 34.3089 87.3551 34.0738 86.9603 33.7603C86.7234 33.6036 86.4865 33.4468 86.1706 33.3685C85.8547 33.2901 85.5389 33.2901 85.223 33.2117C85.0651 33.2117 84.9861 33.2117 84.8282 33.2117H78.6688V43.0865L80.0112 43.2433ZM76.1418 40.2651C76.1418 41.2056 75.9049 41.7542 75.5101 41.9893C75.0363 42.2244 74.2466 42.3812 73.1411 42.3812H71.7987C70.7721 42.3812 70.0614 42.2244 69.6666 41.9893C69.2717 41.7542 69.1138 41.2056 69.1138 40.3435V33.3685H67.6924V40.3435C67.6924 41.7542 68.0872 42.6163 69.0349 42.9298C69.9035 43.2433 71.088 43.3216 72.6673 43.3216C72.9042 43.3216 73.1411 43.3216 73.378 43.3216C73.6149 43.3216 73.8518 43.3216 74.0887 43.3216C75.5101 43.2433 76.4577 43.0081 76.9315 42.5379C77.4053 42.0677 77.6422 41.3623 77.6422 40.2651V33.2901H76.2208L76.1418 40.2651ZM58.2164 36.5817C58.2164 35.4845 58.4533 34.8575 58.8482 34.544C59.243 34.3089 59.9537 34.1522 61.0592 34.1522H61.533C62.8755 34.1522 63.8231 34.2305 64.3758 34.4657C64.9286 34.7008 65.1655 35.4061 65.1655 36.5817V37.3654V38.2275C65.1655 38.541 65.1655 38.7761 65.1655 39.0896C65.1655 39.3247 65.1655 39.6382 65.1655 39.8733C65.1655 41.0489 64.8496 41.8326 64.2179 42.0677C63.5862 42.3028 62.6386 42.4595 61.2172 42.4595C59.9537 42.4595 59.164 42.3028 58.7692 41.9893C58.3744 41.6758 58.2164 41.0489 58.2164 40.03V38.4626V36.5817ZM56.795 39.4814C56.795 39.7949 56.795 40.1084 56.795 40.4219C56.874 41.6758 57.2688 42.4595 57.9795 42.8514C58.6902 43.2433 59.7958 43.4 61.2172 43.4H61.4541C61.533 43.4 61.612 43.4 61.7699 43.4H61.9279H62.0858H62.2437H62.4017C63.981 43.4 65.0076 43.1649 65.6393 42.6947C66.271 42.2244 66.5869 41.3623 66.5869 40.1868C66.5869 39.5598 66.5869 39.0112 66.5869 38.4626V36.7384C66.5869 35.171 66.192 34.2305 65.3234 33.9171C64.4548 33.6036 63.1913 33.4468 61.533 33.4468H60.9013C58.8482 33.4468 57.6637 33.8387 57.3478 34.7791C57.0319 35.6412 56.874 36.7384 56.874 38.0707V38.4626L56.795 39.4814ZM47.5559 34.3089H52.136C53.1626 34.3089 53.7943 34.4657 54.0312 34.8575C54.2681 35.2494 54.3471 35.798 54.3471 36.5033C54.3471 37.287 54.1102 37.7573 53.7153 37.9924C53.3205 38.2275 52.6098 38.3842 51.6622 38.3842H47.5559V34.3089ZM47.5559 43.2433V39.2463H51.8201C52.6098 39.2463 53.2415 39.4031 53.6364 39.6382C54.0312 39.8733 54.1891 40.3435 54.1891 40.9705V43.2433H55.6105V40.7354C55.6105 40.1868 55.4526 39.7165 55.1367 39.4031C54.8209 39.0896 54.2681 38.8545 53.5574 38.8545C54.6629 38.6977 55.2947 38.3842 55.4526 37.914C55.6105 37.4438 55.7685 36.8952 55.7685 36.1898C55.7685 35.0926 55.4526 34.3873 54.8998 33.9171C54.3471 33.5252 53.3995 33.2901 52.136 33.2901H46.2135V43.1649L47.5559 43.2433ZM39.6593 39.3247H43.6076V40.1868C43.6076 41.1272 43.4497 41.6758 43.0548 41.9893C42.66 42.2244 41.8703 42.3812 40.6858 42.3812H39.9751H39.5013C39.3434 42.3812 39.1855 42.3812 39.0275 42.3812C38.8696 42.3812 38.7117 42.3812 38.5537 42.3812C38.3958 42.3812 38.2379 42.3812 38.0799 42.3028C37.1323 42.1461 36.6585 41.9109 36.5006 41.3623C36.3427 40.8921 36.2637 40.2651 36.2637 39.7165V38.3059V37.0519C36.2637 35.8763 36.5006 35.171 36.8165 34.7791C37.1323 34.4657 38.001 34.3089 39.3434 34.3089C39.7382 34.3089 40.212 34.3089 40.6069 34.3089C41.0017 34.3089 41.4755 34.3089 41.8703 34.3873C42.739 34.3873 43.2128 34.6224 43.4497 34.9359C43.6076 35.2494 43.7655 35.7196 43.7655 36.3466H45.108V35.9547C45.108 35.171 44.8711 34.544 44.4762 34.0738C44.0814 33.6819 43.2917 33.4468 42.1862 33.3685C41.9493 33.3685 41.7124 33.3685 41.4755 33.3685C41.2386 33.3685 41.0017 33.3685 40.7648 33.3685C40.5279 33.3685 40.291 33.3685 40.0541 33.3685H39.3434C37.6851 33.3685 36.5796 33.6819 35.9478 34.2305C35.3161 34.7791 35.0002 35.7196 35.0002 36.9735V37.6789V38.3059C35.0002 38.541 35.0002 38.7761 35.0002 39.0112V39.7165C35.0002 41.2056 35.3951 42.2244 36.1058 42.6947C36.8165 43.1649 38.1589 43.4 40.212 43.4C40.6069 43.4 41.0807 43.4 41.4755 43.4C41.8703 43.4 42.3441 43.4 42.739 43.3216C43.9235 43.2433 44.6342 42.8514 44.95 42.2244C45.1869 41.5975 45.3449 40.8921 45.3449 40.1868V39.4814V38.9328C45.3449 38.7761 45.3449 38.541 45.2659 38.3842H39.8962L39.6593 39.3247Z" fill="#A7CF38"/>
<path d="M129.523 14.9512H135.604C136.709 14.9512 137.657 15.1079 138.446 15.343C139.236 15.6565 139.631 16.2835 139.868 17.3807C139.947 17.9293 140.026 18.4779 140.026 19.0265C140.026 19.5751 140.026 20.1237 140.026 20.6723V21.3776C140.026 21.6128 140.026 21.7695 140.026 22.0046C140.026 22.2397 140.026 22.3965 140.026 22.6316C139.947 23.1018 139.868 23.572 139.789 24.0423C139.631 24.5125 139.394 24.9044 139.157 25.2178C138.841 25.5313 138.525 25.6881 138.052 25.8448C137.578 26.0016 137.104 26.0016 136.709 26.0799C136.472 26.0799 136.235 26.1583 135.998 26.1583H135.367H129.523V14.9512ZM136.156 27.3339C138.92 27.3339 140.5 26.7069 141.131 25.3746C141.763 24.0423 142 22.5532 142 20.829V19.4967C142 17.5374 141.605 16.1268 140.815 15.1079C140.026 14.0891 138.288 13.6189 135.683 13.6189H127.628V27.4122H136.156V27.3339ZM124.153 13.5405V26.1583L114.362 13.5405H111.203V27.3339H113.098V14.8728L122.89 27.3339H126.049V13.5405H124.153ZM107.492 27.3339H109.466V13.5405H107.492V27.3339ZM104.175 13.5405L99.279 26.1583L94.6199 13.5405H91.7771L87.1181 26.1583L82.3801 13.5405H80.4059L85.7757 27.3339H88.6974L93.1985 14.9512L97.7786 27.3339H100.779L106.228 13.5405H104.175ZM77.1683 13.5405L72.0355 19.967L66.8237 13.5405H64.5336L70.9299 21.6128V27.4122H72.9041V21.6128L79.4583 13.5405H77.1683ZM49.53 13.5405V27.3339H51.5041V20.9074H53.2414L61.217 27.3339H63.9019L54.8997 20.2021L62.8753 13.5405H60.2694L53.1624 19.5751H51.4252V13.5405H49.53ZM47.7137 17.1456C47.7137 15.4214 47.082 14.3242 45.9765 14.0107C44.792 13.6972 43.2916 13.4621 41.4754 13.4621H41.0016C39.1853 13.4621 37.7639 13.6972 36.6584 14.0891C35.5529 14.481 35.0791 15.4998 35.0791 17.224C35.0791 19.0265 35.7108 20.1237 37.0532 20.5156C38.3957 20.9074 39.975 21.0642 41.7912 21.1425C42.0281 21.1425 42.344 21.1425 42.5809 21.1425C42.8178 21.1425 43.1337 21.1425 43.3706 21.1425C44.4761 21.2209 45.2658 21.3776 45.5816 21.6911C45.8975 22.0046 46.0554 22.6316 46.0554 23.4937C46.0554 24.6692 45.7396 25.3746 45.1868 25.6881C44.634 26.0016 43.6075 26.0799 42.1861 26.0799H40.5278C38.9484 26.0799 37.9219 25.9232 37.4481 25.5313C37.0532 25.1395 36.8163 24.3558 36.8163 23.0234H34.9211C34.9211 23.1018 34.9211 23.1802 34.9211 23.1802V23.3369C34.9211 23.4153 34.9211 23.4937 34.9211 23.4937V23.6504C34.9211 25.3746 35.5529 26.4718 36.6584 26.7853C37.8429 27.1771 39.3433 27.3339 41.1595 27.3339H42.0281C42.344 27.3339 42.5809 27.3339 42.8968 27.3339C43.1337 27.3339 43.4495 27.3339 43.6864 27.3339C44.0023 27.3339 44.2392 27.3339 44.5551 27.3339C46.1344 27.1771 47.082 26.7853 47.5558 26.0016C47.9506 25.2178 48.1086 24.3558 48.1086 23.2586C48.1086 21.456 47.4768 20.3588 46.2923 20.0453C45.1078 19.7318 43.6075 19.5751 41.8702 19.4967C41.4754 19.4967 41.1595 19.4967 40.7647 19.4967C40.3698 19.4967 40.054 19.4967 39.6591 19.4184C38.5536 19.34 37.8429 19.1049 37.527 18.7914C37.2112 18.3995 37.0532 17.8509 37.0532 17.0672C37.0532 16.9888 37.0532 16.9105 37.0532 16.7537C37.0532 16.597 37.0532 16.5186 37.0532 16.4402C37.1322 16.2051 37.2112 15.97 37.2901 15.7349C37.3691 15.4998 37.606 15.343 37.9219 15.1863C38.1588 15.0296 38.3957 15.0296 38.7905 14.9512C39.1064 14.9512 39.5012 14.8728 39.8171 14.8728C40.1329 14.8728 40.4488 14.8728 40.7647 14.8728C41.0805 14.8728 41.3174 14.8728 41.5543 14.8728H42.5019C43.8444 14.8728 44.713 15.0296 45.1078 15.343C45.5027 15.6565 45.7396 16.3619 45.8185 17.3807H47.7137V17.1456Z" fill="#A7CF38"/>
</svg>
