<svg id="Layer_1" data-name="Layer 1" xmlns="http://www.w3.org/2000/svg" xmlns:xlink="http://www.w3.org/1999/xlink" viewBox="0 0 100 100"><defs><style>.cls-1{fill:url(#linear-gradient);}.cls-2{fill:#cd0000;}.cls-3{fill:url(#linear-gradient-2);}.cls-4{fill:url(#linear-gradient-3);}.cls-5{fill:url(#linear-gradient-4);}.cls-6{fill:url(#linear-gradient-5);}.cls-7{fill:url(#linear-gradient-6);}.cls-8{fill:url(#linear-gradient-7);}.cls-10,.cls-104,.cls-106,.cls-107,.cls-108,.cls-11,.cls-110,.cls-113,.cls-114,.cls-115,.cls-119,.cls-139,.cls-151,.cls-153,.cls-154,.cls-155,.cls-156,.cls-157,.cls-158,.cls-159,.cls-160,.cls-161,.cls-162,.cls-163,.cls-164,.cls-165,.cls-166,.cls-167,.cls-168,.cls-169,.cls-170,.cls-171,.cls-172,.cls-33,.cls-38,.cls-46,.cls-47,.cls-61,.cls-71,.cls-72,.cls-9,.cls-92,.cls-93,.cls-96,.cls-97,.cls-98{isolation:isolate;}.cls-105,.cls-9,.cls-96,.cls-97{opacity:0.2;}.cls-10,.cls-11,.cls-38{opacity:0.7;}.cls-10{fill:url(#linear-gradient-8);}.cls-11{fill:url(#linear-gradient-9);}.cls-12{fill:url(#linear-gradient-10);}.cls-13{fill:url(#linear-gradient-11);}.cls-14{fill:url(#linear-gradient-12);}.cls-15{fill:url(#linear-gradient-14);}.cls-16{fill:url(#linear-gradient-15);}.cls-17{fill:url(#linear-gradient-16);}.cls-18{fill:url(#linear-gradient-17);}.cls-19{fill:url(#linear-gradient-18);}.cls-20{fill:url(#linear-gradient-19);}.cls-21{fill:url(#linear-gradient-20);}.cls-22{fill:url(#linear-gradient-21);}.cls-23{fill:url(#linear-gradient-22);}.cls-24{fill:url(#linear-gradient-23);}.cls-25{fill:url(#linear-gradient-24);}.cls-26{fill:url(#linear-gradient-25);}.cls-27{fill:url(#linear-gradient-26);}.cls-28{fill:url(#linear-gradient-27);}.cls-29{fill:url(#linear-gradient-28);}.cls-30{fill:url(#linear-gradient-29);}.cls-31{fill:url(#linear-gradient-30);}.cls-32{fill:url(#linear-gradient-31);}.cls-104,.cls-106,.cls-107,.cls-108,.cls-110,.cls-113,.cls-114,.cls-139,.cls-33,.cls-98{opacity:0.6;}.cls-33{fill:url(#linear-gradient-32);}.cls-34{fill:url(#linear-gradient-33);}.cls-35{fill:url(#linear-gradient-34);}.cls-36{fill:url(#linear-gradient-35);}.cls-37{fill:url(#linear-gradient-36);}.cls-38{fill:url(#linear-gradient-37);}.cls-39{fill:url(#linear-gradient-38);}.cls-40{fill:url(#linear-gradient-39);}.cls-41{fill:url(#linear-gradient-40);}.cls-42{fill:url(#linear-gradient-41);}.cls-43{fill:url(#linear-gradient-42);}.cls-44{fill:url(#linear-gradient-43);}.cls-45{fill:url(#linear-gradient-44);}.cls-46,.cls-92,.cls-93{opacity:0.5;}.cls-47,.cls-61,.cls-71,.cls-72{opacity:0.3;}.cls-47{fill:url(#linear-gradient-45);}.cls-48{fill:url(#linear-gradient-46);}.cls-49{fill:url(#linear-gradient-47);}.cls-50{fill:url(#linear-gradient-48);}.cls-51{fill:url(#linear-gradient-49);}.cls-52{fill:url(#linear-gradient-50);}.cls-53{fill:url(#linear-gradient-51);}.cls-54{fill:url(#linear-gradient-52);}.cls-55{fill:url(#linear-gradient-53);}.cls-56{fill:url(#linear-gradient-54);}.cls-57{fill:url(#linear-gradient-55);}.cls-58{fill:url(#linear-gradient-56);}.cls-59{fill:url(#linear-gradient-57);}.cls-60{fill:url(#linear-gradient-58);}.cls-61{fill:url(#linear-gradient-59);}.cls-62{fill:url(#linear-gradient-60);}.cls-63{fill:#616363;}.cls-64{fill:#4d4d4d;}.cls-65{fill:url(#linear-gradient-61);}.cls-66{fill:url(#linear-gradient-62);}.cls-67{fill:url(#linear-gradient-63);}.cls-68{fill:url(#linear-gradient-64);}.cls-69{fill:url(#linear-gradient-65);}.cls-70{fill:url(#linear-gradient-66);}.cls-71{fill:url(#linear-gradient-67);}.cls-72{fill:url(#linear-gradient-68);}.cls-73{fill:url(#linear-gradient-69);}.cls-74{fill:url(#linear-gradient-70);}.cls-75{fill:url(#linear-gradient-71);}.cls-76{fill:url(#linear-gradient-72);}.cls-77{fill:url(#linear-gradient-73);}.cls-78{fill:url(#linear-gradient-74);}.cls-79{fill:url(#linear-gradient-75);}.cls-80{fill:url(#linear-gradient-76);}.cls-81{fill:url(#linear-gradient-77);}.cls-82{fill:url(#linear-gradient-78);}.cls-83{fill:url(#linear-gradient-79);}.cls-84{fill:url(#linear-gradient-80);}.cls-85{fill:url(#linear-gradient-81);}.cls-86{fill:url(#linear-gradient-82);}.cls-87{fill:url(#linear-gradient-83);}.cls-88{fill:url(#linear-gradient-84);}.cls-89{fill:#232d3f;}.cls-90{fill:url(#linear-gradient-85);}.cls-91{fill:url(#linear-gradient-86);}.cls-92{fill:url(#linear-gradient-87);}.cls-93{fill:url(#linear-gradient-88);}.cls-94{fill:url(#linear-gradient-89);}.cls-95{fill:url(#linear-gradient-90);}.cls-96{fill:url(#linear-gradient-91);}.cls-97{fill:url(#linear-gradient-92);}.cls-98{fill:url(#linear-gradient-93);}.cls-99{fill:url(#linear-gradient-94);}.cls-100{fill:url(#linear-gradient-95);}.cls-101{fill:url(#linear-gradient-96);}.cls-102{fill:url(#linear-gradient-97);}.cls-103{fill:url(#linear-gradient-98);}.cls-104{fill:url(#linear-gradient-99);}.cls-106{fill:url(#linear-gradient-100);}.cls-107{fill:url(#linear-gradient-101);}.cls-108{fill:url(#linear-gradient-102);}.cls-109{fill:url(#linear-gradient-103);}.cls-110{fill:url(#linear-gradient-104);}.cls-111{fill:url(#linear-gradient-105);}.cls-112{fill:url(#linear-gradient-106);}.cls-113{fill:url(#linear-gradient-107);}.cls-114{fill:url(#linear-gradient-108);}.cls-115{opacity:0.4;fill:url(#linear-gradient-109);}.cls-116{fill:url(#linear-gradient-110);}.cls-117{fill:url(#linear-gradient-111);}.cls-118{fill:url(#linear-gradient-112);}.cls-119,.cls-171{opacity:0.9;}.cls-119{fill:url(#linear-gradient-113);}.cls-120{fill:url(#linear-gradient-114);}.cls-121{fill:url(#linear-gradient-116);}.cls-122{fill:url(#linear-gradient-117);}.cls-123{fill:url(#linear-gradient-118);}.cls-124{fill:url(#linear-gradient-119);}.cls-125{fill:url(#linear-gradient-120);}.cls-126{fill:url(#linear-gradient-121);}.cls-127{fill:url(#linear-gradient-122);}.cls-128{fill:url(#linear-gradient-123);}.cls-129{fill:url(#linear-gradient-124);}.cls-130{fill:url(#linear-gradient-125);}.cls-131{fill:url(#linear-gradient-126);}.cls-132{fill:url(#linear-gradient-127);}.cls-133{fill:url(#linear-gradient-128);}.cls-134{fill:url(#linear-gradient-129);}.cls-135{fill:url(#linear-gradient-130);}.cls-136{fill:url(#linear-gradient-131);}.cls-137{fill:url(#linear-gradient-132);}.cls-138{fill:url(#linear-gradient-133);}.cls-139{fill:url(#linear-gradient-134);}.cls-140{fill:url(#linear-gradient-135);}.cls-141{fill:url(#linear-gradient-136);}.cls-142{fill:url(#linear-gradient-137);}.cls-143{fill:url(#linear-gradient-138);}.cls-144{fill:url(#linear-gradient-139);}.cls-145{fill:url(#linear-gradient-140);}.cls-146{fill:url(#linear-gradient-141);}.cls-147{fill:url(#linear-gradient-142);}.cls-148{fill:url(#linear-gradient-143);}.cls-149{fill:url(#linear-gradient-144);}.cls-150{fill:url(#linear-gradient-145);}.cls-151{opacity:0.31;fill:url(#linear-gradient-146);}.cls-152,.cls-153,.cls-154,.cls-155,.cls-156,.cls-157,.cls-158,.cls-159,.cls-160,.cls-161,.cls-162,.cls-163,.cls-164,.cls-165,.cls-166,.cls-167,.cls-168,.cls-169,.cls-170,.cls-171,.cls-172,.cls-173{fill:#fff;}.cls-152{fill-opacity:0;}.cls-153{opacity:0.05;}.cls-154{opacity:0.1;}.cls-155{opacity:0.14;}.cls-156{opacity:0.19;}.cls-157{opacity:0.24;}.cls-158{opacity:0.29;}.cls-159{opacity:0.33;}.cls-160{opacity:0.38;}.cls-161{opacity:0.43;}.cls-162{opacity:0.48;}.cls-163{opacity:0.52;}.cls-164{opacity:0.57;}.cls-165{opacity:0.62;}.cls-166{opacity:0.67;}.cls-167{opacity:0.71;}.cls-168{opacity:0.76;}.cls-169{opacity:0.81;}.cls-170{opacity:0.86;}.cls-172{opacity:0.95;}.cls-174{fill:url(#radial-gradient);}.cls-175{fill:url(#linear-gradient-147);}.cls-176{fill:url(#linear-gradient-148);}.cls-177{fill:#f89300;}.cls-178{fill:url(#linear-gradient-149);}.cls-179{fill:url(#linear-gradient-150);}</style><linearGradient id="linear-gradient" x1="65.25" y1="90.91" x2="33.54" y2="8.31" gradientUnits="userSpaceOnUse"><stop offset="0" stop-color="#760000"/><stop offset="1" stop-color="#6b0003"/></linearGradient><linearGradient id="linear-gradient-2" x1="257.11" y1="-147.95" x2="257.11" y2="-173.35" gradientTransform="matrix(1.43, -0.04, 0.03, 1.2, -320.58, 222.51)" gradientUnits="userSpaceOnUse"><stop offset="0.35" stop-color="#b50000"/><stop offset="0.63" stop-color="#ff8f00"/><stop offset="1" stop-color="#ffac00"/></linearGradient><linearGradient id="linear-gradient-3" x1="255.5" y1="-157.92" x2="257.23" y2="-157.27" gradientTransform="matrix(1.43, -0.04, 0.03, 1.2, -320.58, 222.51)" gradientUnits="userSpaceOnUse"><stop offset="0" stop-color="#0d0d0d"/><stop offset="0.7" stop-color="#7c7c7c"/><stop offset="1" stop-color="#242424"/></linearGradient><linearGradient id="linear-gradient-4" x1="264.62" y1="-153.48" x2="268.33" y2="-172.2" gradientTransform="matrix(1.43, -0.04, 0.03, 1.2, -320.58, 222.51)" gradientUnits="userSpaceOnUse"><stop offset="0" stop-color="#cccaca"/><stop offset="1" stop-color="#efefef"/></linearGradient><linearGradient id="linear-gradient-5" x1="244.59" y1="-152.72" x2="244.96" y2="-166.02" xlink:href="#linear-gradient-4"/><linearGradient id="linear-gradient-6" x1="257.31" y1="-152.96" x2="257.31" y2="-172.83" gradientTransform="matrix(1.43, -0.04, 0.03, 1.2, -320.58, 222.51)" gradientUnits="userSpaceOnUse"><stop offset="0"/><stop offset="1" stop-color="#303030"/></linearGradient><linearGradient id="linear-gradient-7" x1="251.93" y1="-156.96" x2="253.47" y2="-157.57" xlink:href="#linear-gradient-3"/><linearGradient id="linear-gradient-8" x1="257.97" y1="-162.41" x2="278.09" y2="-162.41" gradientTransform="matrix(1.43, -0.04, 0.03, 1.2, -320.58, 222.51)" gradientUnits="userSpaceOnUse"><stop offset="0"/><stop offset="1" stop-color="#fff"/></linearGradient><linearGradient id="linear-gradient-9" x1="238.62" y1="-159.78" x2="250.8" y2="-159.78" xlink:href="#linear-gradient-8"/><linearGradient id="linear-gradient-10" x1="129.88" y1="75.07" x2="132.08" y2="75.07" gradientTransform="translate(-38.49 -29.89) rotate(1.46)" gradientUnits="userSpaceOnUse"><stop offset="0" stop-color="#790000"/><stop offset="1" stop-color="red"/></linearGradient><linearGradient id="linear-gradient-11" x1="129.88" y1="76.29" x2="131.96" y2="76.29" gradientTransform="translate(-38.49 -29.89) rotate(1.46)" gradientUnits="userSpaceOnUse"><stop offset="0" stop-color="#b00"/><stop offset="1" stop-color="red"/></linearGradient><linearGradient id="linear-gradient-12" x1="100.94" y1="85.51" x2="109.23" y2="85.51" xlink:href="#linear-gradient-11"/><linearGradient id="linear-gradient-14" x1="105.02" y1="84.8" x2="105.4" y2="84.8" xlink:href="#linear-gradient-11"/><linearGradient id="linear-gradient-15" x1="104.45" y1="87.59" x2="104.83" y2="87.59" xlink:href="#linear-gradient-11"/><linearGradient id="linear-gradient-16" x1="103.18" y1="87.59" x2="103.55" y2="87.59" xlink:href="#linear-gradient-11"/><linearGradient id="linear-gradient-17" x1="102.96" y1="84.68" x2="103.35" y2="84.68" xlink:href="#linear-gradient-11"/><linearGradient id="linear-gradient-18" x1="104.1" y1="82.98" x2="104.49" y2="82.98" xlink:href="#linear-gradient-11"/><linearGradient id="linear-gradient-19" x1="106" y1="75.95" x2="106" y2="94.85" gradientTransform="translate(-38.49 -29.89) rotate(1.46)" gradientUnits="userSpaceOnUse"><stop offset="0" stop-color="#0c060a"/><stop offset="0.27" stop-color="#494547"/><stop offset="0.5" stop-color="#171314"/><stop offset="0.61" stop-color="#5e5b5c"/><stop offset="0.79" stop-color="#242021"/><stop offset="1" stop-color="#1c171a"/></linearGradient><linearGradient id="linear-gradient-20" x1="103.39" y1="85.44" x2="104.87" y2="85.44" xlink:href="#linear-gradient-11"/><linearGradient id="linear-gradient-21" x1="103.76" y1="94.67" x2="105.02" y2="76.2" gradientTransform="translate(-38.49 -29.89) rotate(1.46)" gradientUnits="userSpaceOnUse"><stop offset="0" stop-color="#3d3737"/><stop offset="0.15" stop-color="#cecece"/><stop offset="0.27" stop-color="#0f1313"/><stop offset="0.61" stop-color="#5d5757"/><stop offset="0.82" stop-color="#cecece"/><stop offset="1" stop-color="#0f1313"/></linearGradient><linearGradient id="linear-gradient-22" x1="101" y1="84.92" x2="109.44" y2="84.92" gradientTransform="translate(-38.49 -29.89) rotate(1.46)" gradientUnits="userSpaceOnUse"><stop offset="0" stop-color="#726969"/><stop offset="1" stop-color="#ada8a8"/></linearGradient><linearGradient id="linear-gradient-23" x1="104.25" y1="87.39" x2="104.25" y2="83.44" gradientTransform="translate(-38.49 -29.89) rotate(1.46)" gradientUnits="userSpaceOnUse"><stop offset="0" stop-color="#615d5d"/><stop offset="0.54" stop-color="#1e1717"/><stop offset="1" stop-color="#ada8a8"/></linearGradient><linearGradient id="linear-gradient-24" x1="103.94" y1="85.42" x2="105.48" y2="85.42" gradientTransform="translate(-38.49 -29.89) rotate(1.46)" gradientUnits="userSpaceOnUse"><stop offset="0" stop-color="#5e5959"/><stop offset="1" stop-color="#ada8a8"/></linearGradient><linearGradient id="linear-gradient-25" x1="104.44" y1="86.86" x2="105.17" y2="83.94" gradientTransform="translate(-38.49 -29.89) rotate(1.46)" gradientUnits="userSpaceOnUse"><stop offset="0" stop-color="#5e5959"/><stop offset="1" stop-color="#f9f9f9"/></linearGradient><linearGradient id="linear-gradient-26" x1="105.94" y1="94.85" x2="108.67" y2="74.81" gradientTransform="translate(-38.49 -29.89) rotate(1.46)" gradientUnits="userSpaceOnUse"><stop offset="0" stop-color="#5e5959"/><stop offset="0.5" stop-color="#413b3b"/><stop offset="1" stop-color="#ada8a8"/></linearGradient><linearGradient id="linear-gradient-27" x1="105.72" y1="94.83" x2="108.47" y2="74.73" xlink:href="#linear-gradient-26"/><linearGradient id="linear-gradient-28" x1="101.96" y1="94.31" x2="104.69" y2="74.23" xlink:href="#linear-gradient-26"/><linearGradient id="linear-gradient-29" x1="100.7" y1="94.15" x2="103.45" y2="74.05" xlink:href="#linear-gradient-26"/><linearGradient id="linear-gradient-30" x1="103.21" y1="94.47" x2="105.96" y2="74.41" xlink:href="#linear-gradient-26"/><linearGradient id="linear-gradient-31" x1="99.81" y1="85.51" x2="110.38" y2="85.51" gradientTransform="translate(-38.49 -29.89) rotate(1.46)" gradientUnits="userSpaceOnUse"><stop offset="0" stop-color="#1c171a"/><stop offset="1" stop-color="#120d10"/></linearGradient><linearGradient id="linear-gradient-32" x1="105.42" y1="80.1" x2="105.42" y2="73.05" gradientTransform="translate(-38.49 -29.89) rotate(1.46)" xlink:href="#linear-gradient-8"/><linearGradient id="linear-gradient-33" x1="100.88" y1="85.5" x2="110.03" y2="85.5" gradientTransform="translate(-38.49 -29.89) rotate(1.46)" gradientUnits="userSpaceOnUse"><stop offset="0" stop-color="#1c171a"/><stop offset="0.62" stop-color="#322e30"/><stop offset="1" stop-color="#514d4e"/></linearGradient><linearGradient id="linear-gradient-34" x1="86.54" y1="96.83" x2="87.46" y2="103.63" xlink:href="#linear-gradient-10"/><linearGradient id="linear-gradient-35" x1="86.67" y1="97.81" x2="87.4" y2="103.33" xlink:href="#linear-gradient-11"/><linearGradient id="linear-gradient-36" x1="142.7" y1="-359.18" x2="143.49" y2="-363.57" gradientTransform="translate(-77.46 403.29) rotate(-4.7)" gradientUnits="userSpaceOnUse"><stop offset="0" stop-color="#0a0a0a"/><stop offset="1" stop-color="#252525"/></linearGradient><linearGradient id="linear-gradient-37" x1="142.95" y1="-360.98" x2="142.64" y2="-362.63" gradientTransform="translate(-77.46 403.29) rotate(-4.7)" xlink:href="#linear-gradient-8"/><linearGradient id="linear-gradient-38" x1="114.43" y1="54.93" x2="132.77" y2="54.93" xlink:href="#linear-gradient-11"/><linearGradient id="linear-gradient-39" x1="124.65" y1="56.36" x2="124.65" y2="54.2" gradientTransform="translate(-38.49 -29.89) rotate(1.46)" gradientUnits="userSpaceOnUse"><stop offset="0" stop-color="#790000"/><stop offset="1" stop-color="#c00000"/></linearGradient><linearGradient id="linear-gradient-40" x1="45.91" y1="76.28" x2="133.38" y2="76.28" xlink:href="#linear-gradient-11"/><linearGradient id="linear-gradient-41" x1="48.59" y1="73.46" x2="130.52" y2="73.46" xlink:href="#linear-gradient-11"/><linearGradient id="linear-gradient-42" x1="55.25" y1="75.26" x2="102.29" y2="75.26" gradientTransform="translate(-38.49 -29.89) rotate(1.46)" gradientUnits="userSpaceOnUse"><stop offset="0" stop-color="#7f0000"/><stop offset="0.59" stop-color="#b00"/><stop offset="1" stop-color="#e00"/></linearGradient><linearGradient id="linear-gradient-43" x1="58.34" y1="57.59" x2="96.48" y2="57.59" gradientTransform="matrix(1, 0.03, -0.07, 1, -21.04, -28.52)" xlink:href="#linear-gradient-36"/><linearGradient id="linear-gradient-44" x1="59.01" y1="57.62" x2="95.41" y2="57.62" gradientTransform="matrix(1, 0.03, -0.07, 1, -21.04, -28.52)" gradientUnits="userSpaceOnUse"><stop offset="0" stop-color="#252525"/><stop offset="0.75" stop-color="#4f4f4f"/></linearGradient><linearGradient id="linear-gradient-45" x1="77.42" y1="64.56" x2="77.42" y2="51.77" gradientTransform="matrix(1, 0.03, -0.07, 1, -21.04, -28.52)" xlink:href="#linear-gradient-8"/><linearGradient id="linear-gradient-46" x1="51.31" y1="97.26" x2="54.35" y2="97.26" gradientTransform="translate(-38.49 -29.89) rotate(1.46)" gradientUnits="userSpaceOnUse"><stop offset="0" stop-color="#790000"/><stop offset="1" stop-color="#9d0000"/></linearGradient><linearGradient id="linear-gradient-47" x1="49.59" y1="95.15" x2="48.49" y2="97.06" xlink:href="#linear-gradient-10"/><linearGradient id="linear-gradient-48" x1="49.3" y1="95.64" x2="48.61" y2="96.66" xlink:href="#linear-gradient-11"/><linearGradient id="linear-gradient-49" x1="81.29" y1="80.87" x2="81.58" y2="85.57" gradientTransform="translate(-38.49 -29.89) rotate(1.46)" gradientUnits="userSpaceOnUse"><stop offset="0" stop-color="#525a68"/><stop offset="1" stop-color="#111c2a"/></linearGradient><linearGradient id="linear-gradient-50" x1="79.22" y1="86.37" x2="79.12" y2="84.27" gradientTransform="translate(-38.49 -29.89) rotate(1.46)" gradientUnits="userSpaceOnUse"><stop offset="0" stop-color="#9b9b9b"/><stop offset="1" stop-color="#575757"/></linearGradient><linearGradient id="linear-gradient-51" x1="82.47" y1="84.14" x2="82.47" y2="81.77" gradientTransform="translate(-38.49 -29.89) rotate(1.46)" gradientUnits="userSpaceOnUse"><stop offset="0" stop-color="#a8a8a8"/><stop offset="1" stop-color="#070a0b"/></linearGradient><linearGradient id="linear-gradient-52" x1="80.97" y1="85.05" x2="80.97" y2="82.18" gradientTransform="translate(-38.49 -29.89) rotate(1.46)" gradientUnits="userSpaceOnUse"><stop offset="0" stop-color="#fff"/><stop offset="1" stop-color="#848484"/></linearGradient><linearGradient id="linear-gradient-53" x1="80.98" y1="84.91" x2="80.98" y2="82.71" gradientTransform="translate(-38.49 -29.89) rotate(1.46)" gradientUnits="userSpaceOnUse"><stop offset="0.3" stop-color="#fff"/><stop offset="1"/></linearGradient><linearGradient id="linear-gradient-54" x1="78.42" y1="84.85" x2="78.42" y2="82.95" xlink:href="#linear-gradient-51"/><linearGradient id="linear-gradient-55" x1="77.64" y1="85.56" x2="77.64" y2="83.48" xlink:href="#linear-gradient-52"/><linearGradient id="linear-gradient-56" x1="77.74" y1="85.5" x2="77.74" y2="83.77" xlink:href="#linear-gradient-53"/><linearGradient id="linear-gradient-57" x1="78.24" y1="82.54" x2="78.89" y2="85.74" gradientTransform="translate(-38.49 -29.89) rotate(1.46)" gradientUnits="userSpaceOnUse"><stop offset="0" stop-color="#a8a8a8"/><stop offset="1" stop-color="#565859"/></linearGradient><linearGradient id="linear-gradient-58" x1="86.88" y1="83.28" x2="86.88" y2="80.22" gradientTransform="translate(-38.49 -29.89) rotate(1.46)" gradientUnits="userSpaceOnUse"><stop offset="0" stop-color="#fb9800"/><stop offset="1" stop-color="#ffc200"/></linearGradient><linearGradient id="linear-gradient-59" x1="86.78" y1="83.73" x2="86.78" y2="80.43" gradientTransform="translate(-38.49 -29.89) rotate(1.46)" gradientUnits="userSpaceOnUse"><stop offset="0" stop-color="#a8a8a8"/><stop offset="1" stop-color="#2e3031"/></linearGradient><linearGradient id="linear-gradient-60" x1="82.11" y1="85.17" x2="81.48" y2="81.34" gradientTransform="translate(-38.49 -29.89) rotate(1.46)" gradientUnits="userSpaceOnUse"><stop offset="0"/><stop offset="1" stop-color="#afafaf"/></linearGradient><linearGradient id="linear-gradient-61" x1="63.55" y1="101.96" x2="67.03" y2="87.54" gradientTransform="translate(-38.49 -29.89) rotate(1.46)" gradientUnits="userSpaceOnUse"><stop offset="0" stop-color="#9a0000"/><stop offset="0.76" stop-color="#dc0000"/><stop offset="1" stop-color="red"/></linearGradient><linearGradient id="linear-gradient-62" x1="128.15" y1="62.18" x2="129.86" y2="62.18" xlink:href="#linear-gradient-58"/><linearGradient id="linear-gradient-63" x1="108.82" y1="59.29" x2="126.67" y2="59.29" gradientTransform="translate(-38.49 -29.89) rotate(1.46)" xlink:href="#linear-gradient-36"/><linearGradient id="linear-gradient-64" x1="110.08" y1="58.87" x2="126.08" y2="58.87" gradientTransform="translate(-38.49 -29.89) rotate(1.46)" xlink:href="#linear-gradient-44"/><linearGradient id="linear-gradient-65" x1="117.95" y1="56.81" x2="122.61" y2="56.81" gradientTransform="translate(-38.49 -29.89) rotate(1.46)" gradientUnits="userSpaceOnUse"><stop offset="0" stop-color="#0d0d0d"/><stop offset="1" stop-color="#1e1e1e"/></linearGradient><linearGradient id="linear-gradient-66" x1="91.94" y1="83.95" x2="95.44" y2="83.95" xlink:href="#linear-gradient-58"/><linearGradient id="linear-gradient-67" x1="91.49" y1="84.05" x2="95.52" y2="84.05" xlink:href="#linear-gradient-59"/><linearGradient id="linear-gradient-68" x1="127.97" y1="62.37" x2="130" y2="62.37" xlink:href="#linear-gradient-59"/><linearGradient id="linear-gradient-69" x1="82.41" y1="110.84" x2="82.41" y2="100.23" gradientTransform="matrix(1, 0, -0.02, 1.11, -42.4, -52.06)" gradientUnits="userSpaceOnUse"><stop offset="0" stop-color="#111010"/><stop offset="1"/></linearGradient><linearGradient id="linear-gradient-70" x1="65.66" y1="110.23" x2="65.66" y2="100.78" xlink:href="#linear-gradient-69"/><linearGradient id="linear-gradient-71" x1="53.63" y1="106.08" x2="53.63" y2="94.86" xlink:href="#linear-gradient-69"/><linearGradient id="linear-gradient-72" x1="72.4" y1="104.58" x2="72.4" y2="103.8" gradientTransform="matrix(1, 0, -0.02, 1.11, -42.4, -52.06)" gradientUnits="userSpaceOnUse"><stop offset="0" stop-color="#323232"/><stop offset="1"/></linearGradient><linearGradient id="linear-gradient-73" x1="61.8" y1="108.48" x2="61.8" y2="108.28" xlink:href="#linear-gradient-72"/><linearGradient id="linear-gradient-74" x1="57.88" y1="101.05" x2="57.88" y2="100.78" xlink:href="#linear-gradient-72"/><linearGradient id="linear-gradient-75" x1="55.12" y1="105.83" x2="55.12" y2="105.55" xlink:href="#linear-gradient-72"/><linearGradient id="linear-gradient-76" x1="51.93" y1="104.02" x2="51.93" y2="103.51" xlink:href="#linear-gradient-72"/><linearGradient id="linear-gradient-77" x1="51.47" y1="96.57" x2="51.47" y2="95.22" xlink:href="#linear-gradient-72"/><linearGradient id="linear-gradient-78" x1="53.01" y1="96.81" x2="53.01" y2="96.51" xlink:href="#linear-gradient-72"/><linearGradient id="linear-gradient-79" x1="52.41" y1="98.26" x2="52.41" y2="96.34" xlink:href="#linear-gradient-72"/><linearGradient id="linear-gradient-80" x1="53.42" y1="103.07" x2="53.42" y2="101.66" xlink:href="#linear-gradient-72"/><linearGradient id="linear-gradient-81" x1="81.64" y1="108.56" x2="81.64" y2="107.13" xlink:href="#linear-gradient-72"/><linearGradient id="linear-gradient-82" x1="81.53" y1="102.45" x2="81.53" y2="102.03" xlink:href="#linear-gradient-72"/><linearGradient id="linear-gradient-83" x1="79.2" y1="102.62" x2="79.2" y2="102.49" xlink:href="#linear-gradient-72"/><linearGradient id="linear-gradient-84" x1="88.43" y1="100.8" x2="88.43" y2="100.46" xlink:href="#linear-gradient-72"/><linearGradient id="linear-gradient-85" x1="84.56" y1="106.01" x2="86.54" y2="106.01" gradientTransform="matrix(1, 0, -0.02, 1.11, -42.4, -52.06)" gradientUnits="userSpaceOnUse"><stop offset="0" stop-color="#fff"/><stop offset="1" stop-color="#dedede"/></linearGradient><linearGradient id="linear-gradient-86" x1="50.92" y1="100.96" x2="51.69" y2="100.96" xlink:href="#linear-gradient-85"/><linearGradient id="linear-gradient-87" x1="84.18" y1="106.04" x2="87.03" y2="106.04" gradientTransform="matrix(1, 0, -0.02, 1.11, -42.4, -52.06)" xlink:href="#linear-gradient-59"/><linearGradient id="linear-gradient-88" x1="50.72" y1="100.87" x2="51.76" y2="100.87" gradientTransform="matrix(1, 0, -0.02, 1.11, -42.4, -52.06)" xlink:href="#linear-gradient-59"/><linearGradient id="linear-gradient-89" x1="63.27" y1="69.43" x2="76.06" y2="75.72" gradientTransform="translate(-38.49 -29.89) rotate(1.46)" gradientUnits="userSpaceOnUse"><stop offset="0" stop-color="#0d0d0d"/><stop offset="0.87" stop-color="#242424"/></linearGradient><linearGradient id="linear-gradient-90" x1="57.03" y1="63.13" x2="81.94" y2="79.1" gradientTransform="translate(-38.49 -29.89) rotate(1.46)" gradientUnits="userSpaceOnUse"><stop offset="0" stop-color="#2e2e2e"/><stop offset="1" stop-color="#242424"/></linearGradient><linearGradient id="linear-gradient-91" x1="67.33" y1="86.89" x2="99.01" y2="55.85" gradientTransform="translate(-38.49 -29.89) rotate(1.46)" xlink:href="#linear-gradient-8"/><linearGradient id="linear-gradient-92" x1="61.07" y1="88.05" x2="90.36" y2="58.68" gradientTransform="translate(-38.49 -29.89) rotate(1.46)" gradientUnits="userSpaceOnUse"><stop offset="0" stop-color="#303030"/><stop offset="1" stop-color="#fff"/></linearGradient><linearGradient id="linear-gradient-93" x1="95" y1="77.31" x2="103.39" y2="77.31" gradientTransform="translate(-38.49 -29.89) rotate(1.46)" xlink:href="#linear-gradient-8"/><linearGradient id="linear-gradient-94" x1="110.12" y1="85.4" x2="124.6" y2="85.4" xlink:href="#linear-gradient-10"/><linearGradient id="linear-gradient-95" x1="110.14" y1="85.8" x2="124.61" y2="85.8" xlink:href="#linear-gradient-11"/><linearGradient id="linear-gradient-96" x1="85.21" y1="96.28" x2="100.88" y2="86.24" xlink:href="#linear-gradient-89"/><linearGradient id="linear-gradient-97" x1="129.19" y1="68.53" x2="134" y2="65.43" xlink:href="#linear-gradient-89"/><linearGradient id="linear-gradient-98" x1="109.84" y1="80.9" x2="124.42" y2="71.53" xlink:href="#linear-gradient-89"/><linearGradient id="linear-gradient-99" x1="75.57" y1="74.47" x2="105.43" y2="74.47" gradientTransform="translate(-38.49 -29.89) rotate(1.46)" xlink:href="#linear-gradient-8"/><linearGradient id="linear-gradient-100" x1="53.9" y1="74.26" x2="71.23" y2="74.26" gradientTransform="translate(-38.49 -29.89) rotate(1.46)" xlink:href="#linear-gradient-8"/><linearGradient id="linear-gradient-101" x1="66.94" y1="92.36" x2="65.56" y2="101.36" gradientTransform="translate(-38.49 -29.89) rotate(1.46)" xlink:href="#linear-gradient-8"/><linearGradient id="linear-gradient-102" x1="88.42" y1="58.1" x2="119.78" y2="58.1" gradientTransform="translate(-38.49 -29.89) rotate(1.46)" xlink:href="#linear-gradient-8"/><linearGradient id="linear-gradient-103" x1="49.03" y1="84.6" x2="95.94" y2="84.6" xlink:href="#linear-gradient-60"/><linearGradient id="linear-gradient-104" x1="110.43" y1="74.27" x2="106.14" y2="67.39" gradientTransform="translate(-38.49 -29.89) rotate(1.46)" xlink:href="#linear-gradient-8"/><linearGradient id="linear-gradient-105" x1="127.58" y1="56.81" x2="129.13" y2="56.81" xlink:href="#linear-gradient-90"/><linearGradient id="linear-gradient-106" x1="127.52" y1="56.92" x2="128.05" y2="56.92" xlink:href="#linear-gradient-89"/><linearGradient id="linear-gradient-107" x1="129.66" y1="64.68" x2="132.73" y2="64.68" gradientTransform="translate(-38.49 -29.89) rotate(1.46)" xlink:href="#linear-gradient-8"/><linearGradient id="linear-gradient-108" x1="110.28" y1="74.01" x2="122.92" y2="74.01" gradientTransform="translate(-38.49 -29.89) rotate(1.46)" xlink:href="#linear-gradient-8"/><linearGradient id="linear-gradient-109" x1="110.08" y1="58.83" x2="125.43" y2="58.83" gradientTransform="translate(-38.49 -29.89) rotate(1.46)" xlink:href="#linear-gradient-8"/><linearGradient id="linear-gradient-110" x1="122.55" y1="73.76" x2="130.49" y2="73.76" xlink:href="#linear-gradient-31"/><linearGradient id="linear-gradient-111" x1="109.66" y1="60.86" x2="112.88" y2="60.86" gradientTransform="translate(-38.49 -29.89) rotate(1.46)" xlink:href="#linear-gradient-36"/><linearGradient id="linear-gradient-112" x1="109.92" y1="61.33" x2="117.72" y2="61.33" gradientTransform="translate(-38.49 -29.89) rotate(1.46)" xlink:href="#linear-gradient-36"/><linearGradient id="linear-gradient-113" x1="115.62" y1="59.86" x2="115.86" y2="58.48" gradientTransform="translate(-38.49 -29.89) rotate(1.46)" xlink:href="#linear-gradient-8"/><linearGradient id="linear-gradient-114" x1="123.5" y1="73.86" x2="129.51" y2="73.86" xlink:href="#linear-gradient-11"/><linearGradient id="linear-gradient-116" x1="126.46" y1="73.15" x2="126.75" y2="73.15" xlink:href="#linear-gradient-11"/><linearGradient id="linear-gradient-117" x1="126.05" y1="75.71" x2="126.32" y2="75.71" xlink:href="#linear-gradient-11"/><linearGradient id="linear-gradient-118" x1="125.14" y1="75.66" x2="125.4" y2="75.66" xlink:href="#linear-gradient-11"/><linearGradient id="linear-gradient-119" x1="124.97" y1="73.14" x2="125.26" y2="73.14" xlink:href="#linear-gradient-11"/><linearGradient id="linear-gradient-120" x1="125.81" y1="71.64" x2="126.07" y2="71.64" xlink:href="#linear-gradient-11"/><linearGradient id="linear-gradient-121" x1="127.29" y1="65.95" x2="127.29" y2="81.59" xlink:href="#linear-gradient-19"/><linearGradient id="linear-gradient-122" x1="125.28" y1="73.88" x2="126.36" y2="73.88" xlink:href="#linear-gradient-11"/><linearGradient id="linear-gradient-123" x1="125.39" y1="81.42" x2="126.45" y2="66.15" xlink:href="#linear-gradient-21"/><linearGradient id="linear-gradient-124" x1="123.54" y1="73.46" x2="129.66" y2="73.46" xlink:href="#linear-gradient-22"/><linearGradient id="linear-gradient-125" x1="125.95" y1="75.42" x2="125.95" y2="72.16" xlink:href="#linear-gradient-23"/><linearGradient id="linear-gradient-126" x1="125.67" y1="73.75" x2="126.79" y2="73.75" xlink:href="#linear-gradient-24"/><linearGradient id="linear-gradient-127" x1="125.88" y1="74.96" x2="126.49" y2="72.55" xlink:href="#linear-gradient-25"/><linearGradient id="linear-gradient-128" x1="126.95" y1="81.48" x2="129.21" y2="65.07" xlink:href="#linear-gradient-26"/><linearGradient id="linear-gradient-129" x1="126.65" y1="81.55" x2="128.93" y2="64.85" xlink:href="#linear-gradient-26"/><linearGradient id="linear-gradient-130" x1="124.24" y1="81.17" x2="126.5" y2="64.55" xlink:href="#linear-gradient-26"/><linearGradient id="linear-gradient-131" x1="123.06" y1="81.01" x2="125.34" y2="64.33" xlink:href="#linear-gradient-26"/><linearGradient id="linear-gradient-132" x1="124.78" y1="81.23" x2="127.04" y2="64.66" xlink:href="#linear-gradient-26"/><linearGradient id="linear-gradient-133" x1="122.69" y1="73.76" x2="130.35" y2="73.76" xlink:href="#linear-gradient-31"/><linearGradient id="linear-gradient-134" x1="126.85" y1="69.4" x2="126.85" y2="63.57" gradientTransform="translate(-38.49 -29.89) rotate(1.46)" xlink:href="#linear-gradient-8"/><linearGradient id="linear-gradient-135" x1="123.47" y1="73.76" x2="130.09" y2="73.76" xlink:href="#linear-gradient-33"/><linearGradient id="linear-gradient-136" x1="52.94" y1="78.82" x2="51.25" y2="82.44" xlink:href="#linear-gradient-49"/><linearGradient id="linear-gradient-137" x1="49.28" y1="80.78" x2="53.98" y2="80.78" xlink:href="#linear-gradient-50"/><linearGradient id="linear-gradient-138" x1="51.13" y1="79.65" x2="52.39" y2="79.65" xlink:href="#linear-gradient-51"/><linearGradient id="linear-gradient-139" x1="50.82" y1="80.84" x2="50.82" y2="78.17" xlink:href="#linear-gradient-52"/><linearGradient id="linear-gradient-140" x1="52.62" y1="81.65" x2="53.45" y2="81.65" xlink:href="#linear-gradient-51"/><linearGradient id="linear-gradient-141" x1="52.5" y1="82.12" x2="52.5" y2="80.33" xlink:href="#linear-gradient-52"/><linearGradient id="linear-gradient-142" x1="52.71" y1="79.28" x2="51.04" y2="82.05" xlink:href="#linear-gradient-57"/><linearGradient id="linear-gradient-143" x1="5022.31" y1="54.18" x2="5022.31" y2="51.86" gradientTransform="matrix(-1, -0.03, -0.03, 1, 5035.61, 98.56)" xlink:href="#linear-gradient-53"/><linearGradient id="linear-gradient-144" x1="5020.68" y1="55.43" x2="5020.68" y2="54" gradientTransform="matrix(-1, -0.03, -0.03, 1, 5035.61, 98.56)" xlink:href="#linear-gradient-53"/><linearGradient id="linear-gradient-145" x1="49.89" y1="79.63" x2="53.88" y2="79.63" xlink:href="#linear-gradient-60"/><linearGradient id="linear-gradient-146" x1="54.9" y1="54.61" x2="17.91" y2="18.86" gradientUnits="userSpaceOnUse"><stop offset="0" stop-color="#fff" stop-opacity="0.3"/><stop offset="0.12" stop-color="#fff" stop-opacity="0.23"/><stop offset="0.32" stop-color="#fff" stop-opacity="0.13"/><stop offset="0.53" stop-color="#fff" stop-opacity="0.06"/><stop offset="0.75" stop-color="#fff" stop-opacity="0.01"/><stop offset="1" stop-color="#fff" stop-opacity="0"/></linearGradient><radialGradient id="radial-gradient" cx="80.22" cy="67.53" r="11.77" gradientTransform="translate(5.45 -11.75) scale(1.02 1.04)" gradientUnits="userSpaceOnUse"><stop offset="0" stop-color="#1e9aff"/><stop offset="1" stop-color="#0048c1"/></radialGradient><linearGradient id="linear-gradient-147" x1="2020.84" y1="401.75" x2="2020.84" y2="386.34" gradientTransform="matrix(-0.95, -0.32, -0.32, 0.95, 2131.33, 347.17)" gradientUnits="userSpaceOnUse"><stop offset="0" stop-color="#d0d1d3"/><stop offset="0.61" stop-color="#f0f0f1"/><stop offset="1" stop-color="#fff"/></linearGradient><linearGradient id="linear-gradient-148" x1="2019.23" y1="396.51" x2="2019.23" y2="388.61" gradientTransform="matrix(-0.95, -0.32, -0.32, 0.95, 2131.33, 347.17)" gradientUnits="userSpaceOnUse"><stop offset="0"/><stop offset="0.5" stop-color="#141212"/><stop offset="1" stop-color="#231f20"/></linearGradient><linearGradient id="linear-gradient-149" x1="10.12" y1="37.82" x2="10.12" y2="29.22" gradientUnits="userSpaceOnUse"><stop offset="0" stop-color="#cfd1d2"/><stop offset="0.62" stop-color="#f0f0f1"/><stop offset="1" stop-color="#fff"/></linearGradient><linearGradient id="linear-gradient-150" x1="1509.18" y1="-2614.6" x2="1509.18" y2="-2619.31" gradientTransform="matrix(-0.92, -0.4, 0.4, -0.92, 2430.76, -1739.52)" xlink:href="#linear-gradient-148"/></defs><g id="Layer_2" data-name="Layer 2"><g id="Layer_1-2" data-name="Layer 1-2"><ellipse class="cls-1" cx="49.4" cy="49.62" rx="43.79" ry="44.4"/><path class="cls-2" d="M97.46,47.59V47a60.71,60.71,0,0,0-.82-6.1l-.2-.82c-.41-2-1-4.07-1.63-6.11,0-.2-.2-.61-.2-.81-.41-.82-.61-1.63-1-2.45A18.36,18.36,0,0,0,92,27.22c-.2-.41-.41-.61-.61-1a33.9,33.9,0,0,0-3.67-5.7c-.4-.41-.61-.81-1-1.22A33.08,33.08,0,0,0,83.2,15.2l-1.42-1.42a52,52,0,0,0-13.85-9,47.88,47.88,0,0,0-37.47,0A46.69,46.69,0,0,0,15.18,15l-.4.41-1.23,1.42a38.58,38.58,0,0,0-4.27,5.71l-.61,1a32.46,32.46,0,0,0-3.06,5.91c-.2.2-.2.61-.41.82v.2c-.81,2-1.42,3.87-2,5.9,0,.21-.21.41-.21.82a33.06,33.06,0,0,0-1.22,6.11v.61a29.22,29.22,0,0,0-.61,5.7v1.43a35.49,35.49,0,0,0,.61,6.31A.73.73,0,0,0,2,58c.4,2,.81,4.08,1.42,6.11l.21.82c.4,1.22.81,2.44,1.42,3.87.41.81.61,1.42,1,2.24.2.4.41.61.41,1a54.46,54.46,0,0,0,3.46,5.91l.81,1.22c1.43,1.83,2.85,3.67,4.48,5.5l.21.2L17,86.48a52.44,52.44,0,0,0,13.44,8.76,47.88,47.88,0,0,0,37.47,0,50.1,50.1,0,0,0,11.4-6.92,30.42,30.42,0,0,0,3.87-3.47c.61-.61,1-1.22,1.63-1.83s.82-1,1.22-1.42a57.23,57.23,0,0,0,4.08-5.71c.2-.4.41-.61.61-1a49,49,0,0,0,2.85-5.71V69c.2-.41.2-.61.41-.82a35.35,35.35,0,0,0,1.83-6.1l.2-.82a61.79,61.79,0,0,0,1-6.11v-.81a27.89,27.89,0,0,0,.21-4.08A6.48,6.48,0,0,0,97.46,47.59Zm-4.68,7.12c-.21,2-.62,3.87-1,5.91,0,.41-.21.61-.21,1a47.8,47.8,0,0,1-2,5.7l-.61,1.22a37.82,37.82,0,0,1-3.06,5.5l-1,1.43a55.38,55.38,0,0,1-4.48,5.29,13.41,13.41,0,0,1-1.83,1.63A50.4,50.4,0,0,1,72,87.3a42.83,42.83,0,0,1-47.24-1,21.63,21.63,0,0,1-2.65-2,64.73,64.73,0,0,1-5.5-5.09c-.41-.61-.82-1-1.22-1.63C14,75.69,12.74,73.86,11.52,72l-.61-1.22c-1-1.83-1.84-3.87-2.65-5.7l-.2-1.22A46.8,46.8,0,0,1,6.43,58l-.21-1a29.55,29.55,0,0,1-.61-5.9V49.62A22.19,22.19,0,0,1,6,44.33l.2-1A28.16,28.16,0,0,1,7.44,37.4l.41-1c.61-2,1.43-3.86,2.24-5.9l.61-1.22a32.85,32.85,0,0,1,3.47-5.71c.4-.4.61-1,1-1.42A25.23,25.23,0,0,1,19.66,17a19.87,19.87,0,0,1,2-1.84,43.44,43.44,0,0,1,53.36-1.42,34.12,34.12,0,0,1,5.7,5.09c.41.61,1,1,1.43,1.63A38.62,38.62,0,0,1,86.26,26l.81,1.22a48.87,48.87,0,0,1,2.85,5.7l.41,1.22A51,51,0,0,1,92,40.05c0,.41.2.61.2,1A57.28,57.28,0,0,1,93,47v2.86a27.81,27.81,0,0,1-.2,4.07C93,53.9,92.78,54.31,92.78,54.71Z"/><path class="cls-3" d="M71.6,4.61a29.15,29.15,0,0,0-4.28.21c-.61.2-1.43.2-2,.41h-1a3.52,3.52,0,0,0-1.42.2,2.77,2.77,0,0,0-1.22.41L60,6.86a14.71,14.71,0,0,1-2,.81,1.87,1.87,0,0,1-1,.2H50.42a23.7,23.7,0,0,0-5.5,2c-.21-.2-.41-.2-.82-.2s-.61.2-.81.61L37.18,28.44c-4.28-9.77-6.11-15.27-6.11-15.27h0a1.06,1.06,0,0,0-.82-.41,1.51,1.51,0,0,0-1,.41v.2h0a3.88,3.88,0,0,0-1.43.21,7.07,7.07,0,0,0-2.24.61,8.34,8.34,0,0,0-1.83,1c-.21.21-.41.21-.61.41A3.76,3.76,0,0,1,21.5,16H19.87a5.81,5.81,0,0,0-1.84.2,7.56,7.56,0,0,0-2.85.82c-.2.2-.4.2-.61.4a2.19,2.19,0,0,1-1.42.62h-.21l-1.22-.21.61,1a12.64,12.64,0,0,1,.61,1.63,8.36,8.36,0,0,1,.21,1A4.78,4.78,0,0,0,14,22.94a5.45,5.45,0,0,0,1.22,1l.21.21a9,9,0,0,1,1.22,1.42c.2.2.2.61.41,1V27a3.25,3.25,0,0,0,.61,1.83l.2.41c.2.4.61.61.82,1l.4.4.41.61.61-.2a4.33,4.33,0,0,0,1-.61l.41-.41a1.32,1.32,0,0,1,1.22,0h0a8.33,8.33,0,0,0,2.24.41,15.59,15.59,0,0,0,3.05-.2c.21,0,.61-.21.82-.21l1.22-.41.61-.2a4.89,4.89,0,0,1,1.63-.41h1a6.72,6.72,0,0,0,2,.21l.81,2-1.63,4.48,2.65-1,.2-.62c0,.21.21.41.21.62l.2.4H40l-.2-.61L38.6,31.29l.82-2.24c.61-.2,1.42-.61,2-.81a15.3,15.3,0,0,1,3.06-.41,13.33,13.33,0,0,1,2.85.41l.82.2a5.46,5.46,0,0,0,1.83.21,10.06,10.06,0,0,0,2.44.2,4.06,4.06,0,0,0,1.43-.2c.4-.21,1-.21,1.42-.41l1.23-.41a6,6,0,0,1,1.83-.41,4.13,4.13,0,0,1,3,.82l.41.41.41-.41a11.52,11.52,0,0,0,2.24-4.07,4.59,4.59,0,0,0,.2-1.63,2.7,2.7,0,0,1,.61-2.45l.21-.2a19.68,19.68,0,0,0,3.87-5.3.62.62,0,0,1,.2-.4,11.17,11.17,0,0,0,.81-2.45c-.2-.4,0-.81.21-1.42l.2-.41a38.72,38.72,0,0,0,1.43-4.48l.2-.61Z"/><path class="cls-4" d="M36,35.16l8.35-24.44c0-.2,1-.2.81.21s0,.2-7.94,23.83Z"/><path class="cls-5" d="M67.52,5.63a6.38,6.38,0,0,0-2.24.61A7.42,7.42,0,0,0,63,6.45a1.54,1.54,0,0,0-1,.41c-1.22.61-2.64,1.22-3.66,1.62-.41.21-.82.21-1,.41H51A17.35,17.35,0,0,0,48,9.71c-1,.4-2,1-3,1.42a10.87,10.87,0,0,0-1.23,3.26c0,.2-.2.41-.2.81l-1.22,3.67-1.22,3.06v.4c-.41,1.22-.61,2.24-1,3.46s-.41,1.84-1,3.47a11.56,11.56,0,0,1,2.85-1,17.31,17.31,0,0,1,3.26-.41,13.33,13.33,0,0,1,2.85.41l.82.2a5.46,5.46,0,0,0,1.83.21,10,10,0,0,0,3.46,0c.82-.21,1.43-.41,2.65-.82a7.32,7.32,0,0,1,2-.41,5.21,5.21,0,0,1,3.46.82,14.73,14.73,0,0,0,2.24-3.87,1.32,1.32,0,0,0,0-1.22,2.94,2.94,0,0,1,.81-3.06l.21-.2a18.11,18.11,0,0,0,3.66-5.09l.21-.41c.81-2,.81-2.65,1.42-4.07-.41-.41-.41-.61-.41-.82A16.38,16.38,0,0,0,71.6,5,35.8,35.8,0,0,0,67.52,5.63Z"/><path class="cls-6" d="M33.72,22.54c-.41-1.23-1-2.65-1.43-3.67a23.32,23.32,0,0,1-1-2.65c-.61-1.42-1-2.44-1-2.44A8.54,8.54,0,0,0,28,14c-.81.21-1.42.41-2.24.61a8.4,8.4,0,0,0-1.83,1l-.41.61a3.5,3.5,0,0,1-2.44.41H19.87a10.17,10.17,0,0,0-4.28,1c-.2.2-.41.2-.61.41a3.66,3.66,0,0,1-2,.81c.41.82.61,1.63,1,2.44l.61,1.23c.41.4,1,.81,1.43,1.22a5.43,5.43,0,0,1,1.42,1.63c.21.4.21.81.41,1a3.41,3.41,0,0,0,.61,2l.21.41c.81,1,1.22,1,1.42,1.63.82-.2,1-.82,1.63-1a1.78,1.78,0,0,1,1.43,0h0a7.39,7.39,0,0,0,2.24.41,12.2,12.2,0,0,0,2.85-.21c.2,0,.61-.2.81-.2l1.83-.61a10.84,10.84,0,0,1,2.24-.41h.21a15,15,0,0,0,3,.21,25.06,25.06,0,0,0-1-2.86Z"/><path class="cls-7" d="M41.86,18.87a7.67,7.67,0,0,1,2.65-1.22l-.2.61-.62,2.44a21.41,21.41,0,0,0-3,1.43v-.41C41.05,20.7,41.45,19.69,41.86,18.87Zm-3,10.18a12.27,12.27,0,0,1,2.85-1,17.06,17.06,0,0,0,1.42-3.46,9,9,0,0,0-3.25,1.22,8.73,8.73,0,0,0-1,3.26Zm9-19.55c-1,.41-2,1-3.06,1.43a10.58,10.58,0,0,0-1.22,3.26,17.44,17.44,0,0,1,3.06-1c.4-1,.81-2.24,1.22-3.67Zm20-4.07a5.74,5.74,0,0,0-.82,2.65A10.63,10.63,0,0,1,66.5,9.5a12.43,12.43,0,0,1,3.87.41.73.73,0,0,1,.21-.41A16,16,0,0,0,71.8,5c-1.43.21-2.85.21-4.07.41Zm-4.08,9a30.75,30.75,0,0,0-2.24,3.05,4.16,4.16,0,0,0-.81,1.63,8.52,8.52,0,0,1,4.48.41,18,18,0,0,0,3.66-5.09Zm-2.44-3.87C60.39,12.35,59.58,14,59,15.2a17.56,17.56,0,0,1,4.68-.81A17.28,17.28,0,0,0,65.28,12a12.14,12.14,0,0,0,1-2.45A45.84,45.84,0,0,0,61.21,10.52ZM58.15,8.28a23.22,23.22,0,0,0-2,3.87c.81-.2,1.83-.41,2.65-.61l2.64-.82A37.3,37.3,0,0,0,63,6.45a1.54,1.54,0,0,0-1,.41C60.6,7.26,59.38,7.87,58.15,8.28Zm2,15.48a3.62,3.62,0,0,1-2,3.26,5.16,5.16,0,0,1,3.47.81A14.85,14.85,0,0,0,63.86,24a22.65,22.65,0,0,0-3.67-.2Zm.2-4.69a26.32,26.32,0,0,0-3.66,1l-.61.41a2.18,2.18,0,0,1-.21,1,14,14,0,0,1-.4,2.85c1.63-.2,3.05-.41,4.68-.61v-.41A30.74,30.74,0,0,1,60.39,19.07Zm-2-3.66a37.37,37.37,0,0,1-4.48,1.42,1.51,1.51,0,0,0-.21.82c-.2,1.22-.4,1.63-.81,3.46a8.41,8.41,0,0,0,3.26-.61c.41-2.65,1.63-2.85,2.85-4.89v-.2Zm-5.7-3.06a17,17,0,0,0-1.23,3.26A8.5,8.5,0,0,0,51,17a12.2,12.2,0,0,0,2.85-.21,32.59,32.59,0,0,1,2.24-4.68,21.33,21.33,0,0,1-3.46.2ZM52,24.78h0a10.66,10.66,0,0,1-2,3.66,9.56,9.56,0,0,0,3.46,0,8.64,8.64,0,0,0,2-4.07,20.53,20.53,0,0,1-3.47.41Zm-.61-16.3c-.4.62-1,1.63-1.83,2.86A9.54,9.54,0,0,0,49,12.76l1.22-.2,2.24-.21a23.3,23.3,0,0,1,2-3.87ZM49.19,24.57a11.33,11.33,0,0,0,2.65.21c.2-.82.41-1.43.61-2.24,0-.61.21-1,.21-1.43H50.21a6.88,6.88,0,0,1-1,3.46ZM49.4,17c-.41,0-1-.21-1.43-.21-.2.82-.41,1.84-.61,3.06a.75.75,0,0,1-.2.61l1,.2c.81.21,1.62.21,2.24.41V20.7A11.42,11.42,0,0,1,51,17,4.47,4.47,0,0,1,49.4,17Zm-3.06,7.13a15.68,15.68,0,0,1-1.63,3.25,13.9,13.9,0,0,1,2.85.41L49,25.39c.2-.21.2-.61.41-.82-1-.2-2-.2-3.06-.4Zm0-10.8c-.61,1.43-1.42,3.06-1.83,4.28A6.71,6.71,0,0,1,48,16.83a24.22,24.22,0,0,1,1-4.07c-.81.2-1.83.41-2.65.61Zm-2.65,7.54c-.2,1.22-.4,2.24-.61,3.26v.4a10.16,10.16,0,0,1,3.47-.2c.4-1.22.61-2.44,1-3.67a7.83,7.83,0,0,0-3.87.21ZM28.22,16.83a4.87,4.87,0,0,1,2.85-.4c-.61-1.43-1-2.45-1-2.45a8.11,8.11,0,0,0-2.24.21,10.44,10.44,0,0,1,.41,2.64Zm4.07,2.24a6.06,6.06,0,0,0-3.26.41c.41,1,.82,1.83,1.22,2.85,0,.21.21.41.21.61a8.91,8.91,0,0,1,3.26,0,14.18,14.18,0,0,0-1.43-3.87Zm.81,9.78h.21a15.69,15.69,0,0,0,3,.2,25.66,25.66,0,0,0-1-2.85,7.88,7.88,0,0,0-3.06,0c.2.61.41,1.63.81,2.65Zm-4.27-5.3a.64.64,0,0,1-.41.21c.41.81,1,1.83,1.43,2.65.81-.21,1.63-.41,2.64-.62-.4-1-1-2-1.42-3.25a3.3,3.3,0,0,0-2.24,1ZM27.61,27l-.41.2A12.6,12.6,0,0,1,28,29.87c.21,0,.61-.21.82-.21l1.83-.61a13.66,13.66,0,0,0-1-2.64ZM26,17.65a11.39,11.39,0,0,0,.61,2.85L29,19.28a13,13,0,0,1-.81-2.65,18.55,18.55,0,0,0-2.24,1Zm.61,2.85-.21.2a6.25,6.25,0,0,1-2,1,14,14,0,0,0,1.22,2.45,7.15,7.15,0,0,0,2.85-.62,25.09,25.09,0,0,1-1.22-2.44c-.41-.2-.41-.41-.61-.61Zm-1.22,3.67a8.46,8.46,0,0,0-2.24.2A12.33,12.33,0,0,1,24.35,26a3,3,0,0,1,.41,1.42,10.1,10.1,0,0,0,2.44-.2L26.59,26l-1.22-1.83Zm-1.23-8.35-.61.4v2.65l1.23-.61L26,17.65V14.8a8.27,8.27,0,0,0-1.84,1Zm-1.62,11.4h0a10.36,10.36,0,0,0,.4,2.44h0a7.15,7.15,0,0,0,2.24.41,10.47,10.47,0,0,1-.4-2.65A9.32,9.32,0,0,0,22.52,27.22Zm1-8.35a10.44,10.44,0,0,1-2.64.41,11.44,11.44,0,0,0,.81,2.85h.2a10,10,0,0,0,2.45-.41,5.76,5.76,0,0,1-.41-1.83A3.65,3.65,0,0,1,23.53,18.87Zm-3.87,3.67a22.57,22.57,0,0,0,1.23,2.24,4.61,4.61,0,0,1,1.63-.41h.61a8.57,8.57,0,0,1-1.43-2.24A7,7,0,0,0,19.66,22.54Zm1.23,2.24a6.9,6.9,0,0,0-1.84.81l.21.61a3.83,3.83,0,0,0,.61,1.63A11.09,11.09,0,0,1,22.31,27a6.2,6.2,0,0,0-1-2Zm-1-8.15a4.57,4.57,0,0,0-1.63.2,11.5,11.5,0,0,0,.41,2.65h0a4,4,0,0,1,2.24-.2,5.63,5.63,0,0,1,0-2.65ZM18.44,28.85c.82,1,1.22,1,1.43,1.63.81-.2,1-.82,1.63-1A9.64,9.64,0,0,1,20.07,28,6.39,6.39,0,0,0,18.44,28.85Zm0-9.57a14,14,0,0,0-2.65,1,4.66,4.66,0,0,0,1,1.63c.41.4.61.81,1,1.22l1.63-.61a14.71,14.71,0,0,1-1-2.65C18.65,19.69,18.44,19.48,18.44,19.28Zm-2.65,4.48a5.46,5.46,0,0,1,1.43,1.63,9.68,9.68,0,0,0,.2,1,5.24,5.24,0,0,0,1.43-.82,8.65,8.65,0,0,0-1-2.44C17.22,23.35,16.61,23.55,15.79,23.76ZM15,18.06a3.66,3.66,0,0,1-2,.81,7,7,0,0,1,.82,2.44,7.65,7.65,0,0,0,2.24-1,6,6,0,0,1-.41-2.65C15.39,17.65,15.18,17.85,15,18.06Z"/><path class="cls-8" d="M39.62,34.76c-6.11-13.65-8.76-21.39-8.76-21.39s-.81,0-.81.21,5.7,15.07,8.55,21.18Z"/><path class="cls-9" d="M62.43,6.45,63,6.24A9.32,9.32,0,0,1,65.28,6a22.1,22.1,0,0,1,2.24-.61l1-.2a19.62,19.62,0,0,0-3.67,2.24C64.06,8.08,63.25,7.06,62.43,6.45Zm-9.77,5.29c-2,1.43-1.23,2.45,1,1L58,8.48c-.2,0-.61.21-.81.21H54.69C55.1,9.5,54.28,10.72,52.66,11.74Zm6.72,1.84C54.9,14,48.79,17,49.6,18.06s3.67.61,6.52-.41,4.27,1.63,7.94,2h.41l.2-.21.2-.2a18,18,0,0,0,3.67-5.09l.2-.41a.73.73,0,0,1,.21-.41C66.3,14.8,63.25,13.37,59.38,13.58Zm3.87,11.6a11.68,11.68,0,0,1-9.78-3.05c-2.24-2.44-5.7-.82-10,1-2.44,1-3.26.4-3.05-1-.41,1.22-.61,2.24-1,3.26s-.41,1.83-1,3.46a11.42,11.42,0,0,1,2.85-1h0A4.68,4.68,0,0,1,45.94,25c2.24.2,3.86,2.85,7.33,3.26h0c.81-.21,1.42-.41,2.64-.82a7.45,7.45,0,0,1,2-.4,5.15,5.15,0,0,1,3.46.81C62,27,62.63,26,63.25,25.18ZM50.82,28.44a4.84,4.84,0,0,0,2.45,0ZM45.12,14c1.63-1.22,1.63-2.85,2-4.27a23.81,23.81,0,0,0-2.45,1.22,10.58,10.58,0,0,0-1.22,3.26c0,.2-.2.4-.2.81s-.21.41-.21.61A5.66,5.66,0,0,1,45.12,14Z"/><path class="cls-9" d="M18.24,16.63h2.85a4.1,4.1,0,0,0,2.65-.41h.2a10.2,10.2,0,0,0-.61,1.43c-1,2-3.06,1.42-4.07.2A5.5,5.5,0,0,0,18.24,16.63ZM35.14,26l-1.22-3.26c-.41-1.22-1-2.65-1.43-3.67s-1-2-1.22-2.85c-.61-1.42-1-2.44-1-2.44H29a5.72,5.72,0,0,1-.2,1.83c-.41,2-3.46,4.08-6.31,4.69s-4.49-.21-4.08.81a5.41,5.41,0,0,0,7.54,0h0c3.05-3.05,5.29-2.85,5.29-.41,0,1.63,0,2.65,1.63,3.26s.61,3.26-1.63,3.67-2.65-1-5.29-1.22-2,.81-4.69,2.44a18.11,18.11,0,0,1-2,1.22.65.65,0,0,1,.2.41c.81-.2,1-.82,1.63-1a1.78,1.78,0,0,1,1.43,0h0a7.39,7.39,0,0,0,2.24.41,12.2,12.2,0,0,0,2.85-.21c.2,0,.61-.2.81-.2l1.83-.61a10.84,10.84,0,0,1,2.24-.41h.21a14.91,14.91,0,0,0,3,.21A4.79,4.79,0,0,0,35.14,26Zm-14.46-.82c2.45-.4.41-2.24-2.85-2.44s-4.07-2.44-3.46-4.28a4.36,4.36,0,0,1-1.63.21,12.66,12.66,0,0,1,1,2.44l.61,1.22c.41.41,1,.82,1.42,1.22a5.46,5.46,0,0,1,1.43,1.63c0,.41.2.82.2,1.23a2.53,2.53,0,0,0,.21,1.22A3.51,3.51,0,0,1,20.68,25.18Z"/><path class="cls-10" d="M69.56,8.89c-.61,1.22-.2,3.87-1.22,3.87s.81-2.24-1-3-2.45,3-4.07,2.44a9.58,9.58,0,0,0-6.72,1.22c-1.84,1-2.86.61-3.26.41s2,0,3-1.43,4.07-1.42,6.52-3S68.54,4.82,70.17,6C71,6.86,70.37,7.67,69.56,8.89Zm-16.7,1.63c1.42-.81,1.22-1.83-.41-1.63-2,.21-4.48.41-5.29,2.85a7.23,7.23,0,0,1-2.85,4.08c-1,.61-1.63,1.62,0,1a8.42,8.42,0,0,0,3.87-3.66C48.38,12.35,51.43,11.54,52.86,10.52Zm10.59,9.37c-1.63-.41-4.07-1.63-5.5-1.83s-3.87,1-5.5,1.22-4.07-.41-4.27-1.22-2.65-1.63-4.89.81-.82,3.87,1.42,2.24,3.26-2,4.69-1.42,4.07-.41,6.92-.41,2.24,1.42,4.28,2.44S64.67,20.3,63.45,19.89ZM48.58,27.63c1.43.61,2.24.2,1.63,0a4.92,4.92,0,0,1-2.44-1.43,3.71,3.71,0,0,0-4.69.41C42.47,27.42,47.36,27,48.58,27.63Z"/><path class="cls-11" d="M26.38,15.2c-1,.21-1.62.62-2.85,3.26s-3.26,2-4.68,1.23-1.63-1.23-3.26-.41-1.63-.41-.2-1.22,3.66.4,4.88,1.22,2.45-.61,3.06-2a5.32,5.32,0,0,1,4.07-2.85C28.22,14.59,27.4,15,26.38,15.2Zm1,9.17a6.31,6.31,0,0,1-3.87-1.22c-1.42-.82-1.63.2-1.22.61s-.41,1.63-2,1.83S17.83,26.81,18,27.42s1,0,2-.81,2.85-.2,4.69-1.22,3.46-.21,5.7,0,1.22-1.84.61-1.84C29.85,23.15,29.44,24.37,27.4,24.37Zm3.06-3.87c.4-.61-1.43-1.43-2.45-.2s-2.24,2.44-3.66,2.44-.82.41.41.41a5.63,5.63,0,0,0,3.66-2C29.24,20.09,30.05,21.31,30.46,20.5Z"/><path class="cls-12" d="M89.31,50.64l.82,1a1.71,1.71,0,0,0,.81-2.24,6.24,6.24,0,0,0,.61-2.65c0-1.22-.2-1.42-.2-1.42Z"/><path class="cls-13" d="M90.13,51.66a1.71,1.71,0,0,0,.81-2.24,3.76,3.76,0,0,0,.41-1.63c-.2.2-.2.61-.41.81-.2.41,0,1.84-1,2.45l-.61-.82h0l-.2.41Z"/><path d="M71.39,58a15.37,15.37,0,0,1-1,5.3H67.32L59,67.54a19.13,19.13,0,0,1-.2-10.18c1.22-6.11,2.64-12.42,5.29-12.83C66.71,43.92,73.22,46.16,71.39,58Z"/><path d="M52.66,70.39a36.55,36.55,0,0,0,10.59.41c0-2.85-4.48-3.66-4.48-3.66Z"/><path class="cls-14" d="M68.54,58.38c-.41,5.5-2.65,9.77-4.89,9.77s-3.66-4.48-3.26-10S63,48.4,65.28,48.4,69,52.88,68.54,58.38Z"/><path class="cls-14" d="M68.54,58.38c-.41,5.5-2.65,9.77-4.89,9.77s-3.66-4.48-3.26-10S63,48.4,65.28,48.4,69,52.88,68.54,58.38Z"/><path class="cls-15" d="M64.47,58a.2.2,0,0,1-.21-.2.72.72,0,0,1,.21-.61.2.2,0,0,1,.2.2A.75.75,0,0,1,64.47,58Z"/><path class="cls-16" d="M63.65,60.62V60c0-.21.21,0,.21,0v.61C63.86,60.82,63.65,60.82,63.65,60.62Z"/><path class="cls-17" d="M62.43,60c0-.21.2-.21.2,0v.61c0,.2-.2.2-.2,0Z"/><path class="cls-18" d="M62.63,57v.61c0,.21-.2.41-.2.21v-.61C62.43,57,62.43,57,62.63,57Z"/><path class="cls-19" d="M63.86,55.73a.69.69,0,0,1-.21.41.7.7,0,0,1-.2-.41.74.74,0,0,1,.2-.41S63.86,55.32,63.86,55.73Z"/><path d="M68.54,58.38c-.41,5.5-2.65,9.77-4.89,9.77s-3.66-4.48-3.26-10S63,48.4,65.28,48.4,69,52.88,68.54,58.38Z"/><path class="cls-20" d="M65.28,48.4a2.49,2.49,0,0,0-2,1c1.42,1.22,2.24,4.68,2,8.76s-1.83,7.53-3.46,8.55A3,3,0,0,0,63.65,68c2.24,0,4.48-4.28,4.89-9.77S67.52,48.6,65.28,48.4Z"/><path class="cls-21" d="M64.06,58.18c0,1-.41,1.83-.81,1.83s-.62-.82-.62-1.83.41-1.84.82-1.84S64.26,57.36,64.06,58.18Z"/><path class="cls-22" d="M67.93,58l.2-2.85-.2-1.83h-.81c-1.23,1.42-3.06,3.26-3.47,2.85-.2-1,1.63-5.5,2-7.33l-1-1-1.22,1a29,29,0,0,1-1,7.33c-.61.41-1-2.24-1.63-3.46l-1,2.24-.2,2.85c.81,0,1.83,0,2,1.22A16.33,16.33,0,0,1,60,64.29l.4,2.44,1,.81c.41-1.83.41-6.31,1-6.72a19.71,19.71,0,0,1,1.83,5.91h1.43l.81-2.44c-.61-1.23-2.85-4.08-2.64-5.3S66.91,58,67.93,58Z"/><path class="cls-23" d="M68.54,58l.2-2.85-.4-2.24c-.82,1-3.67,3.87-4.08,3.26-.2-1,1.63-5.5,2-7.33l-1-1-1.22,1a29,29,0,0,1-1,7.33c-.61.61-1-2.24-1.63-3.46l-1,2.24-.2,2.85c.82,0,1.83,0,2,1.22a12.78,12.78,0,0,1-1.84,5.3l.41,2.44,1,.81c.41-1.83.41-6.31,1-6.72a19.32,19.32,0,0,1,1.83,6.72l1.22-.81.82-2.24c-.61-1.22-2.85-4.07-2.65-5.3S67.73,58,68.54,58Z"/><path class="cls-24" d="M64.06,56.34h-.61c-.41,0-.82.82-1,1.84S62.63,60,63,60h.61c.41,0,.82-.82,1-1.83S64.47,56.34,64.06,56.34Z"/><path class="cls-25" d="M64.67,58.18c0,1-.41,1.83-1,1.83S63,59.19,63,58.18s.41-1.84,1-1.84S64.87,57.16,64.67,58.18Z"/><path class="cls-26" d="M64.67,58.18c0,.81-.41,1.42-.81,1.42s-.61-.61-.41-1.42.41-1.43.81-1.43S64.67,57.36,64.67,58.18Z"/><path class="cls-27" d="M68.74,55.12l-.4-1.42-3.06,2.44c-.41.2-.41.61-.41,1s.21.81.41.81a15.1,15.1,0,0,1,3.26-.61Z"/><path class="cls-28" d="M66.3,66.73l.61-1.83a24.9,24.9,0,0,1-2-3.87c-.2-.41-.4-.82-.61-.41s0,1,0,1.63c.21,1.42,1,3.46,1.23,4.89Z"/><path class="cls-29" d="M61,66.53l.81.4c.2-1.63.41-3.46.61-5.09a1.32,1.32,0,0,0,0-1.22c-.2-.2-.41-.2-.61.41-.61,1.42-.81,3-1.22,3.87Z"/><path class="cls-30" d="M60.6,54.92v2c.61.21.41.21,1,.61.2.21.61,0,.81-.4a1.83,1.83,0,0,0-.2-1.43c-.61-.61-.41-1.63-1-2.24Z"/><path class="cls-31" d="M65.28,47.79l-.81,1a22.13,22.13,0,0,1-.61,5.09c0,.61,0,1,.2,1s.2-.41.41-1c.61-2.24,1.42-3.67,1.63-5.09Z"/><path class="cls-32" d="M65.49,45.75c-2.86,0-5.71,5.5-6.32,12.43S60.39,70.8,63.25,70.8s5.7-5.5,6.31-12.42S68.34,45.75,65.49,45.75Zm2.64,12.63c-.4,5.09-2.44,9-4.48,9s-3.46-4.07-3-9.16,2.44-9,4.48-9C67.32,49.21,68.54,53.29,68.13,58.38Z"/><path class="cls-33" d="M60.39,52.68c1.23-4.48,3.47-6.93,4.89-6.93s3.26,1.22,4.08,6.32c-.82-3.47-1.84-5.91-4.08-5.91S61,51.05,60.39,52.68Z"/><path class="cls-34" d="M65.69,47c-2.44,0-4.89,4.89-5.5,11.21s1,11.4,3.67,11.4,4.88-4.89,5.5-11.2S68.13,47,65.69,47Zm2.44,11.41c-.4,5.09-2.44,9-4.48,9s-3.46-4.07-3-9.16,2.44-9,4.48-9C67.32,49.21,68.54,53.29,68.13,58.38Z"/><path d="M89.31,50.64a.74.74,0,0,1-.61.2l-3.87-.2L83.41,38.22l3-1.22,2.85,1C89.11,38.22,91.15,45.75,89.31,50.64Z"/><path d="M87.07,39a33.51,33.51,0,0,0-4.48-.2s-3.46,14.05-2.44,17.11,4.07,0,4.07,0S88.7,39.44,87.07,39Z"/><path d="M77.3,57.16a53.43,53.43,0,0,0,7.94.81c0-2.44-3.67-3.26-3.67-3.26Z"/><path class="cls-35" d="M60.8,67.75a15.64,15.64,0,0,0-1.83.81c-1.22.41-12.83,5.5-14.87,6.11a62.21,62.21,0,0,1-12.42-.41c-.41-.2-1.22-1.83-1.22-1.83a118.09,118.09,0,0,0,14.66-.81c1.63-.41,7.94-3.06,14.26-5.71a9,9,0,0,1,1.42,1.23Z"/><path class="cls-36" d="M31.27,73.65c-.41-.2-.81-1.22-.81-1.22h0c.2.41.81,1.63,1.22,1.83a83.19,83.19,0,0,0,12.42.41c2-.41,13.65-5.5,14.87-6.11.41-.2,1.42-.61,1.83-.81v-.61C54.49,69.78,47,73.25,43.9,73.86A87.8,87.8,0,0,1,31.27,73.65Z"/><path class="cls-37" d="M34.94,33.53c-1.43-.4-1.83-1.42-1.63-2.24s3.46-1.22,4.28,0S36.16,33.94,34.94,33.53Z"/><path class="cls-38" d="M35.55,30.68c-1.22,0-2.65.41-1.63.82a5.23,5.23,0,0,0,3-.21C37,31.09,36.57,30.68,35.55,30.68Z"/><path class="cls-39" d="M75.87,28.65s7.94.81,12.43,1a3.52,3.52,0,0,0,1.42-.2c.82-.2,2-.61,2.65-.81.2,0,.81-1.23,0-1.23-4.07-.4-13.85-.61-16.7-.81S75.87,28.65,75.87,28.65Z"/><path class="cls-40" d="M88.3,29.66a3.52,3.52,0,0,0,1.42-.2c.82-.2,1.83-.61,2.44-.81.62-.62.41-1.23,0-1.23a21.69,21.69,0,0,1-3.46.82c-1.42.2-11.2-.61-11.2-.61l-.61.81A61.19,61.19,0,0,0,88.3,29.66Z"/><path class="cls-41" d="M93,37.81c-.2-.61-.2-.61-.82-.81a8.58,8.58,0,0,0-.4-3.26c0-.41-.21-.61-.61-.82a3.27,3.27,0,0,0-.82-1.42c-.2-.21-.41-.21-.61-.41a25.48,25.48,0,0,0-2.85-.61,12,12,0,0,0-7.13-4.69,123.1,123.1,0,0,0-14.87-1.62c-2.24,0-13.64.2-19.14,2-6.11,2-14.46,9.57-14.46,9.57C17.63,38.83,9.89,45.55,7.85,51.25c0,0-1.63,1-1.83,1.83a23.45,23.45,0,0,0-.41,12.43A48.16,48.16,0,0,0,19.05,72c3.87.82,18.74,1.84,26.07.41,0,0,6.11-2.44,12.22-5.09l2-.81a20.93,20.93,0,0,1-.41-8c.61-7.12,3.66-13,6.52-12.83,3.05,0,4.88,5.91,4.27,13.24-.2,1.22-.4,2.24-.61,3.46,5.09-2.44,10-5.9,13.24-7.53A28.57,28.57,0,0,1,82,47.79c.41-5.91,2.65-10.79,4.69-10.59s3.66,4.89,3,10.79a17.31,17.31,0,0,1-.41,3.26c.82-.61.41-1.42.82-2a27.26,27.26,0,0,0,2.24-4.88c.2-.82.2-1.43.41-2.24A10.7,10.7,0,0,0,93,37.81Z"/><path class="cls-42" d="M8.06,51.05c1.83,3.46,9.36,8.55,11.6,9.16a33.41,33.41,0,0,0,14.87,1C43.69,60,45.32,58,46.75,56.75s5.29-6.72,7.33-9C58,43.72,66.5,40.05,74.24,37.4c8.56-3,7.13-3,16.5-5.9-.2-.21-.41-.21-.61-.41a25.48,25.48,0,0,0-2.85-.61L69,37.2a6.92,6.92,0,0,1-4.08,0L31.48,35.57C17.63,38.62,9.89,45.14,8.06,51.05Z"/><path class="cls-43" d="M34.12,35.57A26.75,26.75,0,0,0,14.57,56.75a18.34,18.34,0,0,0,4.89,2.44,33.08,33.08,0,0,0,10,.21C43.9,40.25,62,37.2,62,37.2S44.31,33.13,34.12,35.57Z"/><path class="cls-44" d="M56.93,25.59A61.54,61.54,0,0,0,46.34,26a30,30,0,0,0-9,5.09c-3.05,2.44-4.89,4.48-3.66,4.68s6.51-.4,13,.21S60,37.61,61.82,37.61a4.32,4.32,0,0,0,3.67-1.23c1-1,5.9-7.73,6.31-8.35s.61-1-.61-1.22C66.5,26.2,61.62,25.79,56.93,25.59Z"/><path class="cls-45" d="M56.93,25.79a84.54,84.54,0,0,0-10.18.41,26.24,26.24,0,0,0-9,5.09c-2.85,2.45-4.69,4.28-3.67,4.48s6.32-.4,12.63.21,12.42,1.42,14,1.42a3.7,3.7,0,0,0,3.46-1.22c1-1,5.71-7.53,6.11-7.94s.61-1-.61-1.22Q63.35,26.11,56.93,25.79Z"/><path class="cls-46" d="M33.92,34.14c-1,1-1.22,1.43-.41,1.63,1.22.21,6.52-.4,13,.21S60,37.61,61.62,37.61a4.3,4.3,0,0,0,3.66-1.23l.41-.4A272.21,272.21,0,0,0,33.92,34.14Z"/><path class="cls-47" d="M44.92,26.81a12.64,12.64,0,0,0,1.63-.61,29.11,29.11,0,0,1,3.25-.41,63.84,63.84,0,0,0-10,9.58c-2.86,0-4.89.2-5.5.2A90.45,90.45,0,0,1,44.92,26.81Zm25.45.41L70,27a57.67,57.67,0,0,0-8.35-1,76.29,76.29,0,0,0-15.48,9.77H47c6.32.61,12.43,1.43,14.06,1.63h.81A58.74,58.74,0,0,1,70.37,27.22ZM57.14,26H52.86a29,29,0,0,0-6.11,7.13A40.8,40.8,0,0,1,57.14,26Z"/><path class="cls-46" d="M71,27a81.24,81.24,0,0,0-14.05-1.23,61.54,61.54,0,0,0-10.59.41,29.52,29.52,0,0,0-4.48,2,154.22,154.22,0,0,1,29.12,1L71.8,28C72.21,27.42,72.41,27.22,71,27Z"/><path class="cls-48" d="M11.11,67.75a5.2,5.2,0,0,1,2.24,1.42c-.41,0-3,.41-3,.41Z"/><path class="cls-49" d="M11.31,68a4.87,4.87,0,0,0-.61,1.43c0,.4-.4.4-1.22,0A35.16,35.16,0,0,1,5,66.53c-.2-.41.82-1.43.82-1.43H6Z"/><path class="cls-50" d="M11.31,68l-.4.2s-.41,1-.61.82a25.74,25.74,0,0,1-5.1-3.06.78.78,0,0,0-.2.62,26.58,26.58,0,0,0,4.48,2.64c.82.41,1,.41,1.22,0A7.64,7.64,0,0,1,11.31,68Z"/><path class="cls-51" d="M34.53,59c9.16-1.22,10.79-2,12-3.05a28.5,28.5,0,0,0,4.27-5.5h0c.82-1-.2-.41-2.24.4S39,53.9,37,54.51a8.15,8.15,0,0,0-4.07,1.83,12.42,12.42,0,0,0-2.44,3.26Z"/><path class="cls-52" d="M41.66,57.36c1.42-.41,2.85-1.63,2.85-2.44,0-.41-.2-.61-.41-1a2.12,2.12,0,0,1-1.22,2.65,48.26,48.26,0,0,1-7.74,1.83c-.2-.2-.61-.61-1-.41h-.81l-.61.21-.21.4c-.2.41,0,.21,1.23.21C36.16,58.38,39,58,41.66,57.36Z"/><path class="cls-53" d="M41.45,56.34a2.2,2.2,0,0,0,1.63-2.24,9.59,9.59,0,0,0-2.44.21Z"/><path class="cls-54" d="M41.66,55.73a1.33,1.33,0,0,1-2.65-.2,1.31,1.31,0,0,1,1.22-1.22,1.39,1.39,0,0,1,1.43,1.42Z"/><path class="cls-55" d="M39.21,55.73a1.14,1.14,0,0,0,1,1.22h.21a1.13,1.13,0,0,0,1-1.22c0-.2,0-.41-.2-.41a1.13,1.13,0,0,1-1.22,1A2.72,2.72,0,0,1,39.21,55.73Z"/><path class="cls-56" d="M37.38,57a1.57,1.57,0,0,0,1.43-1.63v-.2c-.61,0-1,.2-1.63.2h-.41Z"/><path class="cls-57" d="M38,56.55a1,1,0,1,1-1-1h0A1.08,1.08,0,0,1,38,56.55Z"/><path class="cls-58" d="M36.16,56.55a1,1,0,0,0,.81,1h.21c.41,0,.81-.61.81-1,0-.21,0-.21-.2-.41a.93.93,0,0,1-1,.81C36.36,56.75,36.16,56.75,36.16,56.55Z"/><path class="cls-59" d="M43.69,53.7a2.74,2.74,0,0,0-1.83,0,40.87,40.87,0,0,0-7.13,2,31.92,31.92,0,0,0-2.44,2.65.2.2,0,0,1-.2.2A5.68,5.68,0,0,0,34.33,57a3,3,0,0,1,1.83-1.22c.81-.2,4.68-1.42,5.91-1.83A4,4,0,0,0,43.69,53.7Z"/><path class="cls-60" d="M45.12,53.7a1.52,1.52,0,0,1,0,1.83c-.41.2.82.2,2-1.83.61-1.23.4-1-.41-.82S44.92,53.49,45.12,53.7Z"/><path class="cls-61" d="M44.92,53.7c.4-.41.81,0,.81.81s1.43-.41,1.83-1.63a4.62,4.62,0,0,1-2,3.06c-.61.2-.82,0-.21-.62s.21-1,0-1c-.4-.21-.61-.21-.4-.61Z"/><path class="cls-62" d="M31.48,59c1.42-2.24,2.64-3.46,4.07-3.87s8.14-2,10.39-3l4.27-1.84c.82-.4.41.21-1.42,2,.2-.81-1-.81-1.63.2a8.43,8.43,0,0,1-4.08,2.45,39.08,39.08,0,0,1-6.92,1.83,8,8,0,0,0-3.87,1.43Z"/><path d="M51.64,35.57a1.23,1.23,0,0,0-.82.2,109.64,109.64,0,0,0-14-1.42c-.2,0-.2.2,0,.2s8.35.82,13.85,1.83c0,0,0,.21.61.41a8.7,8.7,0,0,1,1.83.21c2.85.2,6.11.61,8.76.61A89.45,89.45,0,0,0,51.64,35.57Z"/><path class="cls-63" d="M59.17,37s-5.29-1-7.53-1.23c-1-.2-1,.61-1,.61s.2-.4,1-.4S57.54,37,59.17,37Z"/><path class="cls-64" d="M50.42,36A100.65,100.65,0,0,0,37,34.55c4.48.41,8.76.82,13.24,1.63A.2.2,0,0,0,50.42,36Z"/><path class="cls-65" d="M23.53,72.23A83.69,83.69,0,0,0,44.92,72a102.21,102.21,0,0,1,2-13.44s-.2.41-2,1a66,66,0,0,1-25.26,2.45c-4.27-.41-11.81-7.34-13.44-9.37h0l-.2.2a24.15,24.15,0,0,0-.41,12,45.79,45.79,0,0,0,13,6.51A24.23,24.23,0,0,0,23.53,72.23Z"/><path class="cls-66" d="M88.3,35.57a4.45,4.45,0,0,0,1-.61c.21,0,.41.2.21.61,0,.2-.21.41-.41.61a1.87,1.87,0,0,1-1-.2S87.89,35.77,88.3,35.57Z"/><path class="cls-67" d="M69.36,36.18a55.22,55.22,0,0,1,4.88-7.13,8.27,8.27,0,0,1,6.11-2,8.86,8.86,0,0,1,6.32,4.48A125.08,125.08,0,0,0,70,37.4C67.73,38.22,69,36.59,69.36,36.18Z"/><path class="cls-68" d="M70.37,35.16a33.4,33.4,0,0,1,4.28-6.11,7.49,7.49,0,0,1,5.7-1.83,8.42,8.42,0,0,1,5.7,4.07,130.16,130.16,0,0,0-14.86,5.09C69.15,37.2,70.17,35.57,70.37,35.16Z"/><path class="cls-69" d="M79.54,26.81a4.36,4.36,0,0,0-1.63.21,21,21,0,0,1,2.85,6.11l1.63-.61A16.82,16.82,0,0,0,79.54,26.81Z"/><path class="cls-70" d="M51.23,57.16a1.76,1.76,0,0,1,1.22-1.43c.82-.41,2.24-1,2.24-.81a1.23,1.23,0,0,1-.2.81,17.85,17.85,0,0,1-2,1.83C51.64,58.18,51,58.18,51.23,57.16Z"/><path class="cls-71" d="M54.69,55.94c.21-.21,0-.62,0-1s0,0-.2,0c.2.61-.21.61-1.22,1.42s-1.63,1-1.43.41,0-.81-.2-.61c-.41.41-.61.81-1,1.22-.2,1,1,1.22,1.83.61A5.43,5.43,0,0,0,54.69,55.94Z"/><path class="cls-72" d="M89.72,35.16a.54.54,0,0,1-.61.61c-.41,0-.81,0-.61-.2-.41.2-.61.61-.41.61a3.55,3.55,0,0,0,1.43.2,1,1,0,0,0,.4-.81A.74.74,0,0,0,89.72,35.16Z"/><path class="cls-73" d="M31.27,62.86A77.25,77.25,0,0,0,44.92,59.8c.4-.2.4,0,.2.82s-1,6.92-1.22,8.15-.61,1.62-1,1.62a90.17,90.17,0,0,1-10,1,.86.86,0,0,1-.81-.81,71.91,71.91,0,0,1-1.43-7.13C30.66,62.86,30.66,63.06,31.27,62.86Z"/><path class="cls-74" d="M31.07,70.8a40.61,40.61,0,0,0-1.22-6.11c-.21-.2-.21-1-.82-1-3.26,0-6.51-.2-9.57-.4a55.66,55.66,0,0,1-5.91-2.85c-.61-.21-.81.4-1,1s-1.43,4.48-1.43,4.48A43.72,43.72,0,0,0,19.26,70,80.51,80.51,0,0,0,31.07,70.8Z"/><path class="cls-75" d="M6.63,53.7a44.09,44.09,0,0,0,5.5,5.09c.61.4.61.81.41,1a47.89,47.89,0,0,0-1.84,5.71c-.2,1-.61.81-.81.81s-2.65-2-3.06-2.24a2.24,2.24,0,0,1-.61-1.42,51,51,0,0,1-.4-5.5C6,55.12,6.22,53.29,6.63,53.7Z"/><path class="cls-76" d="M28.22,64.29h-.61l-.21-.41.21-.21h.61l.2.41Z"/><path class="cls-77" d="M17.42,68.77H17l.4.2Z"/><path class="cls-78" d="M13.76,60.62l-.41-.2h-.2v.2Z"/><path class="cls-79" d="M10.5,65.91c0-.2.2-.2.2-.4l-.2.4Z"/><path class="cls-80" d="M7.65,63.47l-.41-.2h0l.2.2h.21v0Z"/><path class="cls-81" d="M6.63,54.31v.4l-.2.21h0v.2h0l.2-.41H7v.41l.4.2.21-.4h.2l-.2-.21-.21.21-.2.2v-.41l.2-.2H7l-.41-.2V54.1h0v.21Z"/><path class="cls-82" d="M8.87,55.94l-.41-.41v.2Z"/><path class="cls-83" d="M6.43,56.34l.2-.2H7v.41l.4.2.21-.41h.41v.41l.4.2.21-.4h.4V57l.41.21.2-.41h0V57h-.2v-.61H8.87v-.4h0l-.41-.21-.2.41H7.65v-.41l-.41-.2-.2.41H6.63v-.41h0v.41h0A.7.7,0,0,1,6.43,56.34Zm2-.2h.41v.41l-.2.2-.41-.2v-.41Zm-1.22-.2h.41v.4l-.21.21h-.2v-.61Z"/><path class="cls-84" d="M7.85,61.84H7.44v-.41l.21-.2h.41l-.21.61Zm1.22.41h-.4v-.41l.2-.2h.41v.2Zm1.23.2H9.89v-.4l.2-.21h.41v.41Z"/><path class="cls-85" d="M32.9,68.56h-.81l-.21-.2.21-.41h.81l.21.2Zm2.45-.2h-.82l-.2-.21.2-.2h.82l.2.2ZM36.57,68l.2-.41m1,.41-.2.41m2.24-.21H39l-.2-.2.2-.41h.82l.2.21Zm2.24-.2h-.82l-.2-.2.2-.41h.82l.2.2Z"/><path class="cls-86" d="M36.77,62.05h-.41l.21.2h.81l.41-.41h-.2Z"/><path class="cls-87" d="M35.14,62.25l-.81.2.81-.2Z"/><path class="cls-88" d="M44.51,60.21l-1,.41h.82Z"/><path class="cls-89" d="M40.44,64.69c.2-.81.2-1,.61-1a3.5,3.5,0,0,1,1.42-.2c.41,0,.61,0,.41.61s-.41,2.65-.61,3.26-.2.81-.61,1a5.75,5.75,0,0,1-1.83.2c-.41,0-.41-.2-.21-.81A16.53,16.53,0,0,0,40.44,64.69Z"/><path class="cls-90" d="M40.84,64.9c.21-.41.21-.61.41-.82a1.24,1.24,0,0,1,.82-.2c.4,0,.4,0,.4.41a8.88,8.88,0,0,1-.4,2.24c-.21.4-.21.61-.41.61s-.82.2-1,.2-.2-.2-.2-.61S40.84,65.3,40.84,64.9Z"/><path class="cls-89" d="M7.65,59.4c0-.61,0-.82-.21-1l-.61-.61c-.2-.21-.2,0-.2.41V61c0,.61,0,.81.2,1a1.08,1.08,0,0,0,.82.4.89.89,0,0,0,.2-.61C7.85,61.43,7.65,59.8,7.65,59.4Z"/><path class="cls-91" d="M7.65,59.4c0-.41,0-.61-.21-.61,0-.21-.2-.21-.4-.41-.21,0-.21,0-.21.41v2c0,.41,0,.61.21.61s.2,0,.4.21c0,0,.21,0,0-.41S7.65,59.8,7.65,59.4Z"/><path class="cls-92" d="M41.66,67.34c.41,0,.81-.61.81-1.43a3.82,3.82,0,0,1,.41-1.62c.2-.62,0-.82-.41-.82a1.45,1.45,0,0,0-1.22.61c1.22-.41,1-.2.82.41s-.41.81-.21,1.42c0,.62-.2,1-.81,1s-.41-.4-.41-.61.41-2,.41-2c-.21.61-.61,1-.61,1.42v.82c0,.2-.61,1,0,1.22s1,0,1.63-.41c.2.2,0,.2-.41,0Z"/><path class="cls-93" d="M7,61.23A1.34,1.34,0,0,1,6.83,60V58.58c0-.61,0-.61.21-.61a1.08,1.08,0,0,1,.4.82c-.4-.41-.61-.21-.4.2v1.22a.89.89,0,0,0,.2,1c.41.2.2-.61.2-1.22V59c0,.61.21,1.22.21,1.83v.82l-.41.2c-.2,0-.41-.2-.2-.61Z"/><path class="cls-94" d="M52.25,36.18a77.43,77.43,0,0,0-13.85-.81c-5.7.61-19.14,8.14-23,22a14.24,14.24,0,0,0,4.07,1.83,27.59,27.59,0,0,0,8.15.41c4.27-9,14.66-17.11,25.25-22.6C52.66,36.79,52.45,36.38,52.25,36.18Z"/><path class="cls-95" d="M52.25,36.18s-4.07-.61-8.35-.81c-15.07,6.51-22.2,17.51-23.63,24a31.44,31.44,0,0,0,7.54.2c4.28-9,14.66-17.11,25.25-22.6C52.66,36.79,52.45,36.38,52.25,36.18Z"/><path class="cls-96" d="M27.61,59.6C32.09,50.23,41.86,42.7,52.86,37a2.76,2.76,0,0,0-.61-.82C39.62,42.29,30.66,50.84,27.61,59.6Z"/><path class="cls-97" d="M20.27,59.4c1-6.11,7.54-16.91,23.22-23.63,4.28.21,7.94.61,7.94.61C36.36,41.27,25,50.44,20.27,59.4Z"/><path class="cls-98" d="M54.28,53.29c2.65-2,5.1-3.67,7.34-5.09a10.31,10.31,0,0,1,1.22-1.63Q58.57,49.62,54.28,53.29Z"/><path class="cls-99" d="M70.37,63.27A133.54,133.54,0,0,0,84,55.12a.73.73,0,0,0-.21-.61c-.4-.2-.61-.61-1-.81,0,0-11.82,6.72-13.24,7.33,0,.2-.2.2-.2.61A3.64,3.64,0,0,0,70.37,63.27Z"/><path class="cls-100" d="M70.37,63.27A133.54,133.54,0,0,0,84,55.12a.73.73,0,0,0-.21-.61c-5.9,3.87-13.23,7.74-13.23,7.74a5.29,5.29,0,0,0-1-1.22c0,.2-.2.4-.2.61A7.23,7.23,0,0,0,70.37,63.27Z"/><path class="cls-101" d="M59,58.18v-1c-4.28,2.85-8.76,6.51-13.44,10l-.61,3.46c4.68-3.06,9.36-6.11,13.85-9A18.91,18.91,0,0,1,59,58.18Z"/><path class="cls-102" d="M93,37.81c-.2-.61-.2-.61-.82-.81h0s-.4.81-2.85,2.24a20.26,20.26,0,0,1,.82,4.88,15.91,15.91,0,0,0,3.05-2.44A23.78,23.78,0,0,0,93,37.81Z"/><path class="cls-103" d="M82.19,47.18l.61-4.28c-3.67,2.24-8.15,4.89-13.24,8.15A33.75,33.75,0,0,1,70,55.53c4.48-2.65,8.55-4.89,12.22-6.93Z"/><path class="cls-104" d="M65.28,38.42A35.53,35.53,0,0,0,51,49.83C47,52.27,39.62,53.08,34.94,55.32,40.84,48.2,53.27,39.24,65.28,38.42Z"/><g class="cls-105"><path d="M23.53,59.8a28.18,28.18,0,0,1-4.07-.4C17.22,59,9.68,54.51,7.85,51.05h.21c1.83,3.46,9.16,7.74,11.6,8.14s5.91.82,14.87-.4,10.79-2,12-3.06a55.4,55.4,0,0,0,4.07-4.48c1.22-1.42,2.44-2.65,3.26-3.66a59.4,59.4,0,0,1,12.83-9.78V38a58.88,58.88,0,0,0-12.63,9.58c-.81,1-2,2.24-3.26,3.66a55.4,55.4,0,0,1-4.07,4.48C45.53,57,43.9,57.77,34.53,59A66.77,66.77,0,0,1,23.53,59.8Z"/><path d="M82.59,32.92A19.27,19.27,0,0,0,78.72,26l.21-.21a21.61,21.61,0,0,1,3.66,7.13Z"/><path d="M70.17,59.4v-.21a34.31,34.31,0,0,0-2.44-16.9c-.41-1.22-.82-2.65-1.23-3.87,0-.41.41-1.42,2-3.87l.82-1.22c2.64-4.28,5.29-6.52,8.35-7.13a5.72,5.72,0,0,1,1.83-.2,7.61,7.61,0,0,1,4.07,1.42,8.49,8.49,0,0,1,3.67,3.87v.21c0,.2-.41.2-.82.4h-.41a9.75,9.75,0,0,0-2.85,1c.41.21.82.61,1,2.24a5.33,5.33,0,0,1-.81,3.06,29.26,29.26,0,0,0-2,15.07h0a99.58,99.58,0,0,0-10.59,5.9h-.41Zm9.37-33.2a5.46,5.46,0,0,0-1.83.21c-2.86.61-5.5,2.85-8.15,7.12l-.82,1.23c-1.42,2-2,3.25-2,3.66.41,1.22.81,2.65,1.22,3.87a32.07,32.07,0,0,1,2.44,16.9c1-.61,6.93-3.87,10.39-5.7A29.69,29.69,0,0,1,83,38.42a4.89,4.89,0,0,0,.81-3.05,3,3,0,0,0-1-2.24l-.21-.21h.21s1-.4,3-1h.41a1.61,1.61,0,0,1,.61-.2h0a9.08,9.08,0,0,0-3.46-3.87,9.76,9.76,0,0,0-4.08-1.42Z"/><path d="M80.56,36.38h0a.43.43,0,0,1-.41-.4c0-.21,0-.41.2-.41a3,3,0,0,1,1.43-.41l.61-.2h0a.44.44,0,0,1,.41.41c0,.2,0,.2-.21.2l-2,.81Zm1.83-1.22h0l-.61.21-1.43.4V36a.2.2,0,0,0,.21.2h0l2-.81a.2.2,0,0,0-.2-.21c.2,0,0-.2,0,0Z"/><path d="M66.91,39.44h0A118.76,118.76,0,0,1,82.8,32.92v.21A151.32,151.32,0,0,0,66.91,39.44Z"/></g><path class="cls-106" d="M31.07,36.38A26.67,26.67,0,0,0,14,55.53c0-3.06-2-7.33,1.43-12.22S31.07,36.38,31.07,36.38Z"/><path class="cls-107" d="M6,65.1a46.7,46.7,0,0,0,12.83,6.11,106.13,106.13,0,0,0,25.46.61c.4,0,.4-.61.4-1.43s1.63-8.75,1.63-8.75c-.81,2.85-1.42,5.7-2,8.55-.21,1-.62,1.22-1.84,1.43A90.54,90.54,0,0,1,19.05,71C14.57,69.17,10.3,67.34,6,65.1Z"/><path class="cls-108" d="M66.1,37.4c3.66-5.9,6.51-10,9.57-11A8.87,8.87,0,0,1,79.74,26a85.45,85.45,0,0,0-31.36-.41c12.83-.81,22.4,1,23.22,1.63s.2,1-.62,2.24A32.17,32.17,0,0,0,66.1,37.4Z"/><path class="cls-109" d="M8.46,52.47A27.45,27.45,0,0,0,20.27,59.8c3.87.82,17.11.62,23.83-2,3.26-1.43,4.08-1.63,6.93-5.7a11.42,11.42,0,0,1-4.69,6.31C42.68,60,43.08,59,39.83,59.8s-10,.82-13.65,1-5.5,1.23-9-1-4.89-3.66-6.11-4.27S8.46,55.32,8.46,52.47Z"/><path class="cls-110" d="M88.09,33.13c1.63-1.23.41-1.84,2.24-1.63-.41-.41.21-.41-1.22-.82-.2.82-.2.61-9.37,3.67A60,60,0,0,0,51.43,52.88a14.57,14.57,0,0,1-3.66,6.72c3.66-3.87,4.68-3.26,6.11-6.31s9.37-7.54,13.85-10.39C75.67,37.81,86.46,34.35,88.09,33.13Z"/><path class="cls-111" d="M88.3,29.66h-.62a2.66,2.66,0,0,0-.2,1.23h.2c.41-.21.82-.21,1.23-.41a2.27,2.27,0,0,1,.2-1C88.91,29.66,88.7,29.66,88.3,29.66Z"/><path class="cls-112" d="M87.68,29.66a2.66,2.66,0,0,0-.2,1.23h.2c0-.41.21-.82.21-1.23Z"/><path class="cls-113" d="M92.16,37s0,.81-2.64,2.24c1.63,0,1.22-.41,2-.82s1-.81,1-1Z"/><path class="cls-114" d="M69.76,51.05l12.83-7.94c-.4.61-.2.81-.61.81s-.81.41-1.22.61c-.2.41-.81.61-2,1S72.61,49.83,69.76,51.05Z"/><path class="cls-115" d="M84.83,31.5c-1.63.4-3.26,1-4.88,1.42A33.69,33.69,0,0,1,83.2,28a10.91,10.91,0,0,1,2.24,2A9.14,9.14,0,0,1,84.83,31.5ZM77.5,27.42a4.58,4.58,0,0,0-2.65,1.63,20.9,20.9,0,0,0-4.27,6.11c-.21.41-1.22,2,.81,1l2.24-.81a29,29,0,0,1,3.87-7.95Zm4.07,0a2.6,2.6,0,0,0-1.22-.2H78.72a26.19,26.19,0,0,0-2.85,6.92,26.51,26.51,0,0,1,5.7-6.72Z"/><path class="cls-116" d="M86.87,36.38c-2.24,0-4.28,4.69-4.68,10.59s.81,10.8,3,10.8,4.28-4.69,4.68-10.59S89.11,36.38,86.87,36.38Zm2,10.8c-.41,4.28-1.84,7.74-3.47,7.74S83,51.46,83.2,47s1.84-7.53,3.47-7.53,2.64,3.46,2.24,7.74Z"/><path class="cls-117" d="M72.82,30.89a13.16,13.16,0,0,0-.21,4.88c-1.63,1-3.25,1-3.25.82C70.58,34.76,71.6,32.72,72.82,30.89Z"/><path class="cls-118" d="M71.6,34.35c1.42-.82,1.62-2.24,2.24-2.45,1-.4,3.87.41,3.87,1.23s-1.63,1.42-4.28,1.63c-2.24,0-1.83,1.42-1.83,1.42-.62.2-1,.61-1.63.61s.4-1.63,1.22-2.65C71.19,34.35,71.6,34.35,71.6,34.35Z"/><path class="cls-119" d="M75.67,31.9c-1.22-.2-2-.2-1.22.41a3.46,3.46,0,0,0,2.85.21A14.18,14.18,0,0,0,75.67,31.9Z"/><path class="cls-120" d="M89.11,47.18c-.41,4.48-2,8.14-3.67,8.14s-2.64-3.66-2.24-8.14,2-8.15,3.67-8.15S89.31,42.7,89.11,47.18Z"/><path class="cls-120" d="M89.11,47.18c-.41,4.48-2,8.14-3.67,8.14s-2.64-3.66-2.24-8.14,2-8.15,3.67-8.15S89.31,42.7,89.11,47.18Z"/><path class="cls-121" d="M86.26,46.77a.2.2,0,0,1-.21-.2c0-.21,0-.41.21-.41a.2.2,0,0,1,.2.2A.65.65,0,0,0,86.26,46.77Z"/><path class="cls-122" d="M85.65,49.21v-.4c0-.21.2,0,.2,0a.62.62,0,0,1-.2.4Z"/><path class="cls-123" d="M84.63,48.6h0a.77.77,0,0,1,.2.61c0,.21-.2.21-.2,0Z"/><path class="cls-124" d="M84.83,46.16v.41a.2.2,0,0,1-.2.2v-.41C84.63,46.16,84.63,46,84.83,46.16Z"/><path class="cls-125" d="M85.65,44.94c0,.2,0,.41-.21.41s0-.21.21-.41c0-.21-.21-.41,0-.41S85.65,44.73,85.65,44.94Z"/><path d="M89.11,47.18c-.41,4.48-2,8.14-3.67,8.14s-2.64-3.66-2.24-8.14,2-8.15,3.67-8.15S89.31,42.7,89.11,47.18Z"/><path class="cls-126" d="M86.67,39a1.53,1.53,0,0,0-1.43,1c1,1,1.63,3.87,1.43,7.13a11.22,11.22,0,0,1-2.45,7.13c.21.61.82.81,1.43,1,1.63,0,3.26-3.66,3.66-8.14S88.3,39,86.67,39Z"/><path class="cls-127" d="M85.85,47.18c0,.81-.41,1.42-.61,1.42s-.41-.61-.41-1.42.41-1.43.61-1.43S86.05,46.36,85.85,47.18Z"/><path class="cls-128" d="M88.5,46.77l.2-2.44V42.9h-.61c-.81,1-2.24,2.65-2.65,2.24A34.79,34.79,0,0,1,87.07,39l-.81-.81-.82.81a31.13,31.13,0,0,1-.81,6.11c-.41.41-.61-1.83-1-2.85L83,44.12l-.41,2.65c.61,0,1.43,0,1.43,1a15.2,15.2,0,0,1-1.22,4.28l.4,2,.82.61c0-1.83.41-3.66.61-5.7a21.35,21.35,0,0,1,1.22,4.89h1l.61-2c-.41-1-2-3.46-2-4.48S88.09,47,88.5,46.77Z"/><path class="cls-129" d="M89.11,47l.2-2.44-.4-1.83c-.61.81-2.65,3.26-2.86,2.85a34.56,34.56,0,0,1,1.63-6.11l-.81-.82-.82.82a21.05,21.05,0,0,1-.81,6.11c-.41.41-.61-2-1-2.85l-.61,1.83L83.41,47c.61,0,1.42,0,1.42,1a14.69,14.69,0,0,1-1.22,4.28l.41,2,.81.61a51.76,51.76,0,0,1,.82-5.5,13.48,13.48,0,0,1,1.22,5.5l.81-.61.62-2c-.41-1-2-3.46-2-4.48S88.5,47,89.11,47Z"/><path class="cls-130" d="M85.85,45.55h-.41c-.4,0-.61.61-.61,1.42s.21,1.63.41,1.63h.41c.4,0,.61-.61.61-1.42S86.26,45.55,85.85,45.55Z"/><path class="cls-131" d="M86.26,47.18c0,.81-.41,1.42-.61,1.42S85.24,48,85.24,47s.41-1.62.61-1.42A1.58,1.58,0,0,1,86.26,47.18Z"/><path class="cls-132" d="M86.26,47.18c0,.61-.21,1.22-.61,1.22s-.41-.61-.41-1.22.2-1.22.41-1.22A.94.94,0,0,1,86.26,47.18Z"/><path class="cls-133" d="M89.31,44.53l-.4-1.22a11.17,11.17,0,0,1-2.24,2,.88.88,0,0,0-.21,1c0,.41.21.82.41.61a10.64,10.64,0,0,1,2.24-.4Z"/><path class="cls-134" d="M87.28,54.1l.4-1.63a15.58,15.58,0,0,1-1.42-3.26c0-.4-.41-.61-.41-.4a1.74,1.74,0,0,0,0,1.42,29.48,29.48,0,0,1,.82,4.08Z"/><path class="cls-135" d="M83.61,54.1l.61.21A38.94,38.94,0,0,1,84.83,50a.89.89,0,0,0,0-1c0-.2-.2-.2-.4.2a33.32,33.32,0,0,1-1,3.26Z"/><path class="cls-136" d="M83.2,44.33V46a2.08,2.08,0,0,1,.82.61c.2.2.41,0,.61-.41a1.36,1.36,0,0,0-.2-1.22,6.6,6.6,0,0,1-.62-1.83Z"/><path class="cls-137" d="M86.67,38.42l-.62.82a28.18,28.18,0,0,1-.4,4.07v.81a2.19,2.19,0,0,0,.4-.81c.41-1.83,1-3.06,1.23-4.07Z"/><path class="cls-138" d="M86.87,36.79c-2,0-4.07,4.48-4.68,10.18s.81,10.39,3,10.39,4.07-4.48,4.68-10.18S89.11,36.79,86.87,36.79ZM88.7,47.18c-.4,4.07-1.83,7.53-3.26,7.33S83,51.05,83.41,47s1.83-7.33,3.26-7.33S89.11,43.11,88.7,47.18Z"/><path class="cls-139" d="M83.2,42.7C84,39,85.85,37,86.87,37s2.44,1,3,5.09c-.61-2.85-1.42-4.89-2.85-4.89S83.61,41.27,83.2,42.7Z"/><path class="cls-140" d="M87.07,37.81c-1.83,0-3.66,4.07-4.07,9.16s.81,9.37,2.44,9.37,3.67-4.07,4.08-9.16S88.91,37.81,87.07,37.81Zm1.63,9.37c-.4,4.07-1.83,7.53-3.26,7.33S83,51.05,83.41,47s1.83-7.33,3.26-7.33S89.11,43.11,88.7,47.18Z"/><path class="cls-141" d="M13.55,56.34a7.54,7.54,0,0,0-.61-4.27A15.19,15.19,0,0,1,10.3,47a11.4,11.4,0,0,0-2.24,4.08A19.4,19.4,0,0,0,13.55,56.34Z"/><path class="cls-142" d="M12.94,55.53c.41.2.41-.41.41-.61v-.21c-.41-.61-1,0-1.63-.61a16.54,16.54,0,0,1-2.65-2.64,4,4,0,0,1,.21-2.65,1.49,1.49,0,0,0-.41.81,3.26,3.26,0,0,0,.61,2.65A26.7,26.7,0,0,0,12.94,55.53Z"/><path class="cls-143" d="M10.5,51.86a6,6,0,0,0,1.22-.61,2.06,2.06,0,0,0-.81-1Z"/><path class="cls-144" d="M11.31,50.84c0,.82-.4,1.23-1,1.23s-1-.41-1-1.23.4-1.22,1-1.22A1.13,1.13,0,0,1,11.31,50.84Z"/><path class="cls-145" d="M11.93,53.49a1,1,0,0,0,.81-.41c0-.4-.61-.4-.61-.4Z"/><path class="cls-146" d="M12.54,52.68a.92.92,0,0,1-.61.81.91.91,0,0,1-.62-.81c0-.41.41-1,.62-1S12.54,52.07,12.54,52.68Z"/><path class="cls-147" d="M10.09,48.4a.2.2,0,0,0-.2-.2,5.52,5.52,0,0,0,1.63,3c.61.82,1,1.22,1,2a3.41,3.41,0,0,0,.61,2h0v-.4h0a6.85,6.85,0,0,0-1-3.46C11.52,50.64,10.7,49.42,10.09,48.4Z"/><path class="cls-148" d="M11.11,50.84c0,.82-.41,1.23-1,1.23s-1-1-.61-2C9.68,51.25,10.7,51.66,11.11,50.84Z"/><path class="cls-149" d="M12.33,52.68c0,.4-.2.81-.61.81s-.61-.61-.41-1.22C11.52,52.88,12.13,53.08,12.33,52.68Z"/><path class="cls-150" d="M9.89,47.59a4.78,4.78,0,0,0,1.83,3,6.6,6.6,0,0,1,1.63,3.87c-1.63-1.43-1.42-2.85-2.65-3.87S8.87,49.21,9.89,47.59Z"/><path class="cls-151" d="M84.83,23.76c-8.35,5.09-18.12,11.4-27.69,17.92A369.83,369.83,0,0,0,14.57,76.5a44,44,0,0,1-9-26.88A43.94,43.94,0,0,1,49.4,5.43,43.16,43.16,0,0,1,84.83,23.76Z"/><path class="cls-152" d="M21.09,26.81c-.61.41-.2,1.63.61,2.45s1.83,1.22,2.44.61.21-1.63-.61-2.45S21.5,26.2,21.09,26.81Z"/><path class="cls-153" d="M21.09,26.81c-.41.41-.2,1.63.61,2.45s1.83,1,2.24.61.2-1.63-.61-2.24S21.5,26.41,21.09,26.81Z"/><path class="cls-154" d="M21.09,26.81c-.41.41-.2,1.43.61,2.24s1.83,1,2.24.61.2-1.42-.61-2.24S21.7,26.41,21.09,26.81Z"/><path class="cls-155" d="M21.29,27c-.4.4-.2,1.42.61,2.24s1.63,1,2,.61.2-1.43-.61-2.24S21.7,26.41,21.29,27Z"/><path class="cls-156" d="M21.29,27c-.4.4-.2,1.42.41,2s1.63,1,2,.61.2-1.42-.41-2S21.7,26.61,21.29,27Z"/><path class="cls-157" d="M21.29,27c-.4.4-.2,1.22.41,2s1.63.82,1.83.41a2.05,2.05,0,0,0-.4-2C22.52,26.61,21.7,26.61,21.29,27Z"/><path class="cls-158" d="M21.29,27.22c-.4.41-.2,1.22.41,1.83s1.43.82,1.83.41.21-1.22-.4-1.83S21.7,26.81,21.29,27.22Z"/><path class="cls-159" d="M21.5,27.22c-.41.41-.21,1.22.4,1.83s1.43.82,1.84.41.2-1.22-.41-1.83S21.7,26.81,21.5,27.22Z"/><path class="cls-160" d="M21.5,27.22c-.41.41-.21,1,.4,1.63s1.23.81,1.63.41.21-1-.4-1.63S21.9,26.81,21.5,27.22Z"/><path class="cls-161" d="M21.5,27.22c-.41.41-.21,1,.4,1.63s1.23.81,1.63.41.21-1-.4-1.63A1.39,1.39,0,0,0,21.5,27.22Z"/><path class="cls-162" d="M21.7,27.42a1.12,1.12,0,0,0,.41,1.43c.61.41,1.22.61,1.42.41a1.1,1.1,0,0,0-.4-1.43C22.52,27.42,21.9,27,21.7,27.42Z"/><path class="cls-163" d="M21.7,27.42c-.2.21-.2.82.41,1.43s1,.61,1.42.41.21-.82-.4-1.43S21.9,27.22,21.7,27.42Z"/><path class="cls-164" d="M21.7,27.42c-.2.21-.2.82.41,1.23s1,.61,1.22.4.2-.81-.41-1.22S21.9,27.22,21.7,27.42Z"/><path class="cls-165" d="M21.7,27.42a1,1,0,0,0,.2,1.23c.41.4,1,.61,1.23.2a1.07,1.07,0,0,0-1.43-1.43Z"/><path class="cls-166" d="M21.9,27.63a1,1,0,0,0,.21,1.22c.41.41.81.41,1,.2a1,1,0,0,0-.21-1.22C22.52,27.42,22.11,27.42,21.9,27.63Z"/><path class="cls-167" d="M21.9,27.63c-.2.2,0,.61.21,1a.72.72,0,0,0,1,.2c.2-.2,0-.61-.21-1A.7.7,0,0,0,21.9,27.63Z"/><path class="cls-168" d="M21.9,27.63c-.2.2-.2.61.21,1s.81.4.81.2a1.27,1.27,0,0,0-.2-.82C22.52,27.83,22.11,27.42,21.9,27.63Z"/><path class="cls-169" d="M21.9,27.83c-.2.2,0,.61.21.82s.61.4.81.2,0-.61-.2-.82S22.11,27.63,21.9,27.83Z"/><path class="cls-170" d="M22.11,27.83c-.21.2,0,.41.2.82a.51.51,0,0,0,.82.2c.2-.2,0-.41-.21-.82A.5.5,0,0,0,22.11,27.83Z"/><path class="cls-171" d="M22.11,27.83c-.21.2,0,.41.2.61a.74.74,0,0,0,.61.21c.21,0,0-.41-.2-.62A.75.75,0,0,0,22.11,27.83Z"/><path class="cls-172" d="M22.11,28c-.21.21,0,.41.2.62a.77.77,0,0,0,.61.2c.21,0,0-.41-.2-.61S22.31,27.83,22.11,28Z"/><path class="cls-173" d="M22.31,28a.62.62,0,0,0,.21.41.61.61,0,0,0,.4.21.63.63,0,0,0-.2-.41C22.52,28,22.31,27.83,22.31,28Z"/><path class="cls-173" d="M39.42,78.74a5.38,5.38,0,0,1-1,1.84,3.16,3.16,0,0,1-1.63,1.22,3.91,3.91,0,0,1-1.63.41c-.61,0-1.22.2-1.63.2H30.86l1-3.46h-1l.21-1.22h1l.81-3.06h4.28a3.77,3.77,0,0,1,1.42.41,5.24,5.24,0,0,1,1,1.22A7.8,7.8,0,0,1,39.42,78.74Zm-2.24,0a1.32,1.32,0,0,0,0-1.22c0-.4-.41-.61-.61-.81a1.21,1.21,0,0,0-.82-.21H34.53l-.41,1.63H36l-.21,1.23h-2l-.62,2h1.23a1.57,1.57,0,0,0,1-.2,2.06,2.06,0,0,0,1-.82,6.09,6.09,0,0,0,.82-1.63Z"/><path class="cls-173" d="M43.08,82.82A3.56,3.56,0,0,1,40.64,82a2.23,2.23,0,0,1-.41-2.24l1.22-4.88h2.24l-1.22,4.68a1.32,1.32,0,0,0,0,1.22,1.22,1.22,0,0,0,1,.41,2.9,2.9,0,0,0,1.22-.41,1.74,1.74,0,0,0,.61-1.22l1.23-4.68h2.24l-1.23,4.88A5.2,5.2,0,0,1,46.14,82,5.78,5.78,0,0,1,43.08,82.82Z"/><path class="cls-173" d="M47.56,82.61l4.89-7.73H54.9l.81,7.73H53.47L53.27,81H50.62l-1,1.63Zm5.5-2.85-.2-2.44-1.63,2.44Z"/><path class="cls-173" d="M67.32,82.61H64.87l-1.22-2.44-2.24,2.44H59l3.87-3.87-1.63-3.86h2.44l1,2.24,2.24-2.24h2.45l-3.67,3.66Z"/><path class="cls-173" d="M68.13,82.61l2-7.73h5.7l-.41,1.42H71.8l-.41,1.43h3.46l-.4,1.42H71L70.58,81h3.66l-.4,1.43H68.13Z"/><path class="cls-173" d="M42.47,88.11c0,.41-.2.61-.4,1a1.64,1.64,0,0,1-.82.82l-.41.4-.61.21-.81.2h-2l-.61,2.44H34.53l2-7.73h3.26a2.64,2.64,0,0,1,1.22.2,1,1,0,0,1,.81.41,2.54,2.54,0,0,1,.61.81A1.26,1.26,0,0,1,42.47,88.11Zm-2.24,0V87.5c0-.2-.2-.2-.4-.41-.21,0-.41-.2-.62-.2h-1l-.41,2.44h1.63c.2,0,.2,0,.41-.2l.4-.41v-.61Z"/><path class="cls-173" d="M49.8,93.41H47.16l-1.63-3.06-.61.61-.61,2.65H42.07l2-7.74h2.24l-.81,3.46,3.66-3.46h2.45l-4.08,3.46Z"/><path class="cls-173" d="M56.53,93.41H50.82L51.23,92h1.83l1-4.07H52.25l.41-1.22h.81a.73.73,0,0,0,.61-.21c.2,0,.41-.2.61-.4a.64.64,0,0,0,.21-.41h1.83L55.1,92h1.83Z"/><path class="cls-173" d="M65.28,89.54a14.32,14.32,0,0,1-.61,1.63c-.2.4-.61.81-.81,1.22a4.14,4.14,0,0,1-1.23.81,4.31,4.31,0,0,1-1.62.21,3.39,3.39,0,0,1-1.43-.21,1.53,1.53,0,0,1-.81-.81,2.53,2.53,0,0,1-.21-1.22c0-.61.21-1.22.21-1.63l.61-1.83c.2-.41.61-.82.81-1.23a4.45,4.45,0,0,1,1.22-.81,4.05,4.05,0,0,1,1.63-.2,3.55,3.55,0,0,1,1.43.2,1.6,1.6,0,0,1,.81.81,2.54,2.54,0,0,1,.21,1.23A5.46,5.46,0,0,1,65.28,89.54Zm-2,0a3.59,3.59,0,0,0,.2-2c0-.41-.41-.61-.82-.61a1.11,1.11,0,0,0-1,.61,6.15,6.15,0,0,0-.82,2,3.48,3.48,0,0,0-.2,2,.66.66,0,0,0,.61.62h0a1.13,1.13,0,0,0,1-.62A10.16,10.16,0,0,0,63.25,89.54Z"/><ellipse class="cls-174" cx="87.48" cy="58.79" rx="12.02" ry="12.22"/><path class="cls-175" d="M94.61,57.36c-.41,1.22-1.63.82-2,0s0-2.44,1.22-2a1.44,1.44,0,0,1,.82,2m.61-3.46h0c-.2.81-1.22.41-1.63-.41s-.2-1.42.81-1a1.73,1.73,0,0,1,.82,1.43M96,58a2.43,2.43,0,0,0-.4-2.65c.2,0,.4,0,.4-.2,1-1-.61-3.87-2.64-4.07-1.23,0-2,1.22-.61,2.85h-.41c-1.63.41-2.65,3.46.41,5.09,2,1,2.85-.2,3.25-1m2.45,1-.21.81c-1.63,5.1-8.35,4.08-11.2-1.62s1.63-10.59,6.32-9A9.46,9.46,0,0,1,98.48,59m.2.61c1-4.68-3.26-12.42-8.76-11-6.72,1.43-6.31,11,.62,14.87,4.48,2,7.33-.41,8.14-3.87m0,.2c0,.41-.2.62-.2,1C96,66.73,88.3,65.3,85.24,58.18S88.09,46.57,93,48.4a11.25,11.25,0,0,1,5.7,11.4"/><path class="cls-176" d="M94.61,57.36A1.34,1.34,0,0,0,94,55.53c-.21-.21-.41-.21-.82-.21a1.46,1.46,0,0,0-.61,2l.61.61a1.34,1.34,0,0,0,1.43-.41v-.2m.61-3.46c0-.82-.41-1.43-1.22-1.43h-.21c-.61.21-.61,1.23.41,1.84.61.2.82-.21,1-.41M95.83,58c-.41,1.43-1.83,2.24-3.87.82s-1.83-4.69.61-4.89c-.2-.2-.41-.41-.41-.61-.4-1,0-2.65,1.84-2,.2,0,.4.21.81.21,1.43,1,2.24,3.46.82,3.66a2.83,2.83,0,0,1,.2,2.85"/><circle class="cls-177" cx="11.72" cy="34.96" r="6.31"/><path class="cls-178" d="M9.07,31.7a.59.59,0,0,0,.21,1c.81,0,1.22-1,.81-1.22s-.61-.41-1,.2m-.81,0a1.76,1.76,0,0,1,1.83-.81.9.9,0,0,1,.82,1.22v.2s-.61,2.24-1.63,2.85a1.06,1.06,0,0,1-1.63-.4,1.22,1.22,0,0,1-.21-.82l.62.2c0,.62.4.62.81.41.2-.2.41-.61.61-.81-1.42.61-2-.41-1.63-1.43l.41-.61m-1.63.41a3.11,3.11,0,0,0,1.22,4.48c.21.2.61.2.82.41,3.26.4,6.31-3.47,4.07-6.32-1.63-2-4.89-1-6.11,1.43m-.2,0a4.64,4.64,0,0,1,5.09-2.65c3.05,1,3.46,5.5-.21,7.54S5.2,35.57,6.22,32.72l.21-.61m0,0A3.93,3.93,0,0,0,7.85,37.4c.21.21.61.21.82.41,3.46.2,7.53-3.87,4.68-7.33-1.83-2.45-5.7-1-6.92,1.63"/><path class="cls-179" d="M9.07,31.7a1.59,1.59,0,0,1,.82-.41c.81.21.2,1.23-.21,1.43s-1,0-.81-.61c0-.21.2-.21.2-.41m-.81,0c-.82,1.22.2,2,1,1.83.2,0,.2,0,.4-.2h0c-.81,1.83-1.42.81-1.42.81v-.2l-.61-.2c0,.81.2,1.22,1,1.42.4,0,1,0,1.63-1.22.4-.81,1-2.24.4-2.85-.4-.61-1.42-.41-2,.2l-.41.41"/></g></g></svg>