<?xml version="1.0" encoding="utf-8"?>
<!-- Generator: Adobe Illustrator 26.1.0, SVG Export Plug-In . SVG Version: 6.00 Build 0)  -->
<svg version="1.1" id="Layer_2_00000131349980809567325930000000398765776033399191_"
	 xmlns="http://www.w3.org/2000/svg" xmlns:xlink="http://www.w3.org/1999/xlink" x="0px" y="0px" viewBox="0 0 1235.3 313"
	 style="enable-background:new 0 0 1235.3 313;" xml:space="preserve">
<style type="text/css">
	.st0{clip-path:url(#SVGID_00000051374115475413039280000006872150286232149433_);}
	.st1{fill:url(#SVGID_00000158712915780889702610000012835296228275314364_);}
	.st2{clip-path:url(#SVGID_00000039845548760733844990000005800308452731504055_);}
	.st3{fill:url(#SVGID_00000115516177956054984520000010515378048794642575_);}
	.st4{clip-path:url(#SVGID_00000120535836458679501900000017191119689961021340_);}
	.st5{fill:url(#SVGID_00000102512892708345818010000014403551596805592469_);}
	.st6{clip-path:url(#SVGID_00000109006340811842531480000011047898859934606241_);}
	.st7{fill:url(#SVGID_00000132810478728898626230000015918591207110093968_);}
	.st8{clip-path:url(#SVGID_00000045597108166530646810000005385487886323136418_);}
	.st9{fill:url(#SVGID_00000023245513854052487890000013560557513177106308_);}
	.st10{clip-path:url(#SVGID_00000104666579455220925700000005610804994662602174_);}
	.st11{fill:url(#SVGID_00000065772869084775491250000016330449447835816122_);}
	.st12{clip-path:url(#SVGID_00000045600224984199238580000006425642393016713615_);}
	.st13{fill:url(#SVGID_00000168088022357669079210000015532992821030857107_);}
	.st14{fill:#030403;}
	.st15{clip-path:url(#SVGID_00000062871681706098695960000004899094053647754636_);}
	.st16{fill:url(#SVGID_00000166648101928053124720000000375565637950418351_);filter:url(#Adobe_OpacityMaskFilter);}
	.st17{mask:url(#mask_00000183943327192656914840000016363791585112202394_);}
	.st18{fill:url(#SVGID_00000086652900001803274790000016878138028698789026_);}
	.st19{clip-path:url(#SVGID_00000127743451708656266870000017775285706953381561_);}
	
		.st20{fill:url(#SVGID_00000101782217794537692260000011803907603567003046_);filter:url(#Adobe_OpacityMaskFilter_00000164510952200110269300000003454581409550582153_);}
	.st21{mask:url(#mask-1_00000045613331682115062450000008118255626598078875_);}
	.st22{fill:url(#SVGID_00000103943870025765945630000000842839009566578851_);}
	.st23{clip-path:url(#SVGID_00000096765038046909099580000000145917413339825319_);}
	
		.st24{fill:url(#SVGID_00000037660517629655520650000014266978139745971076_);filter:url(#Adobe_OpacityMaskFilter_00000054262980680414655610000017666056698517252237_);}
	.st25{mask:url(#mask-2_00000104675066948814901620000016533638094908904837_);}
	.st26{fill:url(#SVGID_00000144318012588579144640000009365337427770964125_);}
	.st27{clip-path:url(#SVGID_00000062873056671693979820000015797644616556723895_);}
	.st28{fill:url(#SVGID_00000065040615311547060690000011232496486260963459_);}
	.st29{fill:#FFFFFF;}
	.st30{clip-path:url(#SVGID_00000027601725061628340210000009097678569425467534_);}
	.st31{fill:url(#SVGID_00000070840430649928138600000009798874543938062262_);}
	.st32{clip-path:url(#SVGID_00000057106163940018691400000011538011898873097890_);}
	.st33{fill:url(#SVGID_00000065046660556923010700000013989528537786566296_);}
	.st34{fill:#90949C;}
	.st35{clip-path:url(#SVGID_00000018234753572672082430000017553594050623620996_);}
	.st36{fill:url(#SVGID_00000091719106675378938500000008887439404405518720_);}
	.st37{clip-path:url(#SVGID_00000146498476008357326120000002960713631725553853_);}
	.st38{fill:url(#SVGID_00000022524790699767424350000007092458284000187010_);}
</style>
<g>
	<defs>
		<path id="SVGID_1_" d="M287.4,13.9L266.3,26c-2.2,1.3-3.6,3.7-3.6,6.2v24.4c0,2.6,1.4,5,3.6,6.3l21.1,12.2c1.1,0.6,2.4,1,3.6,1
			s2.5-0.3,3.6-1l21.1-12.2c2.2-1.3,3.6-3.7,3.6-6.3V32.3c0-2.6-1.4-5-3.6-6.2l-21.1-12.2c-1.1-0.6-2.3-1-3.6-1
			S288.5,13.2,287.4,13.9"/>
	</defs>
	<clipPath id="SVGID_00000084491747585313865470000015852514368045028775_">
		<use xlink:href="#SVGID_1_"  style="overflow:visible;"/>
	</clipPath>
	<g style="clip-path:url(#SVGID_00000084491747585313865470000015852514368045028775_);">
		
			<linearGradient id="SVGID_00000090255712501202004030000013857109380571628442_" gradientUnits="userSpaceOnUse" x1="-1557.9724" y1="-137.419" x2="-1553.9724" y2="-137.419" gradientTransform="matrix(9.3299 12.1766 -12.1766 9.3299 13134.5293 20272.6836)">
			<stop  offset="0" style="stop-color:#EDBB32"/>
			<stop  offset="1" style="stop-color:#CC2A2A"/>
		</linearGradient>
		<polygon style="fill:url(#SVGID_00000090255712501202004030000013857109380571628442_);" points="232.2,36.3 298.3,-14.4 
			349.8,52.7 283.6,103.4 		"/>
	</g>
</g>
<g>
	<defs>
		<path id="SVGID_00000077290810622005446220000008351993608565168812_" d="M50.9,154.9l-21.1,12.2c-2.2,1.3-3.6,3.7-3.6,6.2v24.4
			c0,2.6,1.4,5,3.6,6.2l21.1,12.2c1.1,0.6,2.3,1,3.6,1s2.5-0.3,3.6-1l21.1-12.2c2.2-1.3,3.6-3.7,3.6-6.2v-24.4c0-2.6-1.4-5-3.6-6.2
			l-21.1-12.2c-1.1-0.6-2.3-1-3.6-1S52,154.3,50.9,154.9"/>
	</defs>
	<clipPath id="SVGID_00000142858666653048393320000009969014938073187969_">
		<use xlink:href="#SVGID_00000077290810622005446220000008351993608565168812_"  style="overflow:visible;"/>
	</clipPath>
	<g style="clip-path:url(#SVGID_00000142858666653048393320000009969014938073187969_);">
		
			<linearGradient id="SVGID_00000116946111582506784550000012550177705222695318_" gradientUnits="userSpaceOnUse" x1="-1559.5323" y1="-124.0468" x2="-1555.5323" y2="-124.0468" gradientTransform="matrix(9.3299 12.1766 -12.1766 9.3299 13075.4258 20307.9199)">
			<stop  offset="0" style="stop-color:#EDBB32"/>
			<stop  offset="1" style="stop-color:#CC2A2A"/>
		</linearGradient>
		<polygon style="fill:url(#SVGID_00000116946111582506784550000012550177705222695318_);" points="-4.3,177.3 61.9,126.6 
			113.3,193.7 47.1,244.4 		"/>
	</g>
</g>
<g>
	<defs>
		<path id="SVGID_00000180361650494002918270000017917314836468981924_" d="M342.4,29.2l-12.3,7.1c-1.3,0.8-2.1,2.2-2.1,3.7v14.2
			c0,1.5,0.8,2.9,2.1,3.7l12.3,7.1c0.6,0.4,1.4,0.6,2.1,0.6s1.5-0.2,2.1-0.6l12.3-7.1c1.3-0.8,2.1-2.2,2.1-3.7V39.9
			c0-1.5-0.8-2.9-2.1-3.7l-12.3-7.1c-0.6-0.4-1.4-0.6-2.1-0.6S343.1,28.8,342.4,29.2"/>
	</defs>
	<clipPath id="SVGID_00000091736024337191472190000002389349403453600654_">
		<use xlink:href="#SVGID_00000180361650494002918270000017917314836468981924_"  style="overflow:visible;"/>
	</clipPath>
	<g style="clip-path:url(#SVGID_00000091736024337191472190000002389349403453600654_);">
		
			<linearGradient id="SVGID_00000052082871877042071500000015956637178726804116_" gradientUnits="userSpaceOnUse" x1="-1511.2289" y1="-205.64" x2="-1507.2389" y2="-205.64" gradientTransform="matrix(5.4435 7.1043 -7.1043 5.4435 7102.4951 11892.9893)">
			<stop  offset="0" style="stop-color:#EDBB32"/>
			<stop  offset="1" style="stop-color:#CC2A2A"/>
		</linearGradient>
		<polygon style="fill:url(#SVGID_00000052082871877042071500000015956637178726804116_);" points="310.2,42.3 348.9,12.7 
			378.9,51.8 340.2,81.4 		"/>
	</g>
</g>
<g>
	<defs>
		<path id="SVGID_00000096039782605243072060000005354251754940817076_" d="M11.4,210.5l-9.8,5.6c-1,0.6-1.7,1.7-1.7,2.9v11.3
			c0,1.2,0.6,2.3,1.7,2.9l9.8,5.6c0.5,0.3,1.1,0.4,1.7,0.4s1.2-0.2,1.7-0.4l9.8-5.6c1-0.6,1.7-1.7,1.7-2.9V219
			c0-1.2-0.6-2.3-1.7-2.9l-9.8-5.6c-0.5-0.3-1.1-0.4-1.7-0.4S11.9,210.2,11.4,210.5"/>
	</defs>
	<clipPath id="SVGID_00000147220808590291435610000008529488041475499162_">
		<use xlink:href="#SVGID_00000096039782605243072060000005354251754940817076_"  style="overflow:visible;"/>
	</clipPath>
	<g style="clip-path:url(#SVGID_00000147220808590291435610000008529488041475499162_);">
		
			<linearGradient id="SVGID_00000043420349343147872720000003777548822705327772_" gradientUnits="userSpaceOnUse" x1="-1489.126" y1="-207.7987" x2="-1485.126" y2="-207.7987" gradientTransform="matrix(4.3122 5.6279 -5.6279 4.3122 5255.9727 9489.5723)">
			<stop  offset="0" style="stop-color:#EDBB32"/>
			<stop  offset="1" style="stop-color:#CC2A2A"/>
		</linearGradient>
		<polygon style="fill:url(#SVGID_00000043420349343147872720000003777548822705327772_);" points="-14.1,220.9 16.5,197.4 
			40.3,228.5 9.7,251.9 		"/>
	</g>
</g>
<g>
	<defs>
		<path id="SVGID_00000093175013001081535830000002290094183457069965_" d="M45.7,225.2l-12.3,7.1c-1.3,0.8-2.1,2.1-2.1,3.6v14.2
			c0,1.5,0.8,2.9,2.1,3.6l12.3,7.1c0.6,0.4,1.4,0.6,2.1,0.6s1.5-0.2,2.1-0.6l12.3-7.1c1.3-0.8,2.1-2.1,2.1-3.6V236
			c0-1.5-0.8-2.9-2.1-3.6l-12.3-7.1c-0.6-0.4-1.4-0.6-2.1-0.6S46.3,224.9,45.7,225.2"/>
	</defs>
	<clipPath id="SVGID_00000062915021685807518100000005904686394254152868_">
		<use xlink:href="#SVGID_00000093175013001081535830000002290094183457069965_"  style="overflow:visible;"/>
	</clipPath>
	<g style="clip-path:url(#SVGID_00000062915021685807518100000005904686394254152868_);">
		
			<linearGradient id="SVGID_00000157301193421946983540000002579995273664813971_" gradientUnits="userSpaceOnUse" x1="-1513.3188" y1="-175.8478" x2="-1509.3188" y2="-175.8478" gradientTransform="matrix(5.4435 7.1043 -7.1043 5.4435 7028.8164 11941.7812)">
			<stop  offset="0" style="stop-color:#EDBB32"/>
			<stop  offset="1" style="stop-color:#CC2A2A"/>
		</linearGradient>
		<polygon style="fill:url(#SVGID_00000157301193421946983540000002579995273664813971_);" points="13.5,238.3 52.1,208.7 
			82.1,247.9 43.5,277.5 		"/>
	</g>
</g>
<g>
	<defs>
		<path id="SVGID_00000035492311547665024770000003530754014072724394_" d="M347.5,74.3l-16.6,9.6c-1.8,1-2.8,2.9-2.8,4.9v19.2
			c0,2,1.1,3.9,2.8,4.9l16.6,9.6c0.9,0.5,1.9,0.8,2.9,0.8s2-0.3,2.9-0.8l16.6-9.6c1.8-1,2.9-2.9,2.9-4.9V88.8c0-2-1.1-3.9-2.9-4.9
			l-16.6-9.6c-0.9-0.5-1.9-0.8-2.9-0.8S348.4,73.8,347.5,74.3"/>
	</defs>
	<clipPath id="SVGID_00000122694948216151254950000007939590819717708173_">
		<use xlink:href="#SVGID_00000035492311547665024770000003530754014072724394_"  style="overflow:visible;"/>
	</clipPath>
	<g style="clip-path:url(#SVGID_00000122694948216151254950000007939590819717708173_);">
		
			<linearGradient id="SVGID_00000178166280348129607050000010663400728259869064_" gradientUnits="userSpaceOnUse" x1="-1536.624" y1="-162.6783" x2="-1532.624" y2="-162.6783" gradientTransform="matrix(7.3593 9.6047 -9.6047 7.3593 10086.9453 16042.1797)">
			<stop  offset="0" style="stop-color:#EDBB32"/>
			<stop  offset="1" style="stop-color:#CC2A2A"/>
		</linearGradient>
		<polygon style="fill:url(#SVGID_00000178166280348129607050000010663400728259869064_);" points="304,92 356.2,52 396.8,104.9 
			344.5,144.9 		"/>
	</g>
</g>
<g>
	<defs>
		<path id="SVGID_00000006706101017895004570000014176122322694726075_" d="M176.9,4.8L72.4,65.2c-11,6.4-17.9,18.2-17.9,31v120.7
			c0,12.8,6.8,24.6,17.9,31l104.6,60.4c5.4,3.1,11.6,4.8,17.9,4.8s12.5-1.7,17.9-4.8l104.6-60.4c11-6.4,17.9-18.2,17.9-31V96.1
			c0-12.7-6.9-24.6-17.9-31L212.7,4.8C207.3,1.7,201.1,0,194.8,0S182.3,1.7,176.9,4.8"/>
	</defs>
	<clipPath id="SVGID_00000045606692374887790670000013035441844730162863_">
		<use xlink:href="#SVGID_00000006706101017895004570000014176122322694726075_"  style="overflow:visible;"/>
	</clipPath>
	<g style="clip-path:url(#SVGID_00000045606692374887790670000013035441844730162863_);">
		
			<linearGradient id="SVGID_00000016072649820903109640000018244558545640864644_" gradientUnits="userSpaceOnUse" x1="-1606.7701" y1="-63.8318" x2="-1602.7701" y2="-63.8318" gradientTransform="matrix(46.242 60.351 -60.351 46.242 70553.4844 99961.7812)">
			<stop  offset="0" style="stop-color:#EDBB32"/>
			<stop  offset="1" style="stop-color:#CC2A2A"/>
		</linearGradient>
		<polygon style="fill:url(#SVGID_00000016072649820903109640000018244558545640864644_);" points="-96.6,115.8 231.3,-135.5 
			486.2,197.2 158.3,448.5 		"/>
	</g>
</g>
<g>
	<path class="st14" d="M64.3,97.6v117.7c0,10.2,5.4,19.6,14.3,24.7l102,58.9c8.8,5.1,19.7,5.1,28.6,0L311,240.1
		c8.8-5.1,14.3-14.5,14.3-24.7V97.6c0-10.2-5.5-19.6-14.3-24.8L209.1,14c-8.8-5.1-19.7-5.1-28.6,0l-102,58.9
		C69.7,78,64.3,87.4,64.3,97.6"/>
	<path class="st14" d="M64.3,97.6v117.7c0,10.2,5.4,19.6,14.3,24.7l102,58.9c8.8,5.1,19.7,5.1,28.6,0L311,240.1
		c8.8-5.1,14.3-14.5,14.3-24.7V97.6c0-10.2-5.5-19.6-14.3-24.8L209.1,14c-8.8-5.1-19.7-5.1-28.6,0l-102,58.9
		C69.7,78,64.3,87.4,64.3,97.6"/>
</g>
<g>
	<defs>
		<path id="SVGID_00000150084028619224911630000014359586740029427124_" d="M181.7,17.8L78.2,78c-4.7,2.7-4.7,9.5,0,12.2l103.4,60.2
			c8.1,4.7,18.1,4.7,26.3,0l103.4-60.2c4.7-2.7,4.7-9.5,0-12.2L207.9,17.8c-4.1-2.4-8.6-3.5-13.1-3.5S185.7,15.5,181.7,17.8"/>
	</defs>
	<clipPath id="SVGID_00000132059707057721915740000014220698841605937307_">
		<use xlink:href="#SVGID_00000150084028619224911630000014359586740029427124_"  style="overflow:visible;"/>
	</clipPath>
	<g style="clip-path:url(#SVGID_00000132059707057721915740000014220698841605937307_);">
		<defs>
			<filter id="Adobe_OpacityMaskFilter" filterUnits="userSpaceOnUse" x="73.5" y="14.3" width="242.5" height="140.8">
				<feColorMatrix  type="matrix" values="1 0 0 0 0  0 1 0 0 0  0 0 1 0 0  0 0 0 1 0"/>
			</filter>
		</defs>
		
			<mask maskUnits="userSpaceOnUse" x="73.5" y="14.3" width="242.5" height="140.8" id="mask_00000183943327192656914840000016363791585112202394_">
			
				<linearGradient id="SVGID_00000043442907124977905770000009275332525725978500_" gradientUnits="userSpaceOnUse" x1="-1598.3571" y1="-47.8265" x2="-1594.3571" y2="-47.8265" gradientTransform="matrix(77.23 0 0 77.23 123513.9062 3778.3494)">
				<stop  offset="0" style="stop-color:#FFFFFF"/>
				<stop  offset="1" style="stop-color:#000000"/>
			</linearGradient>
			
				<rect x="73.5" y="14.3" style="fill:url(#SVGID_00000043442907124977905770000009275332525725978500_);filter:url(#Adobe_OpacityMaskFilter);" width="242.5" height="140.8"/>
		</mask>
		<g class="st17">
			
				<linearGradient id="SVGID_00000062903028209924693780000005778138154789576842_" gradientUnits="userSpaceOnUse" x1="-1598.3571" y1="-47.8265" x2="-1594.3571" y2="-47.8265" gradientTransform="matrix(77.23 0 0 77.23 123513.9062 3778.3494)">
				<stop  offset="0" style="stop-color:#3B3B3B"/>
				<stop  offset="1" style="stop-color:#3B3B3B"/>
			</linearGradient>
			
				<rect x="73.5" y="14.3" style="fill:url(#SVGID_00000062903028209924693780000005778138154789576842_);" width="242.5" height="140.8"/>
		</g>
	</g>
</g>
<g>
	<defs>
		<path id="SVGID_00000011730444878305268410000011882747721054995377_" d="M69.2,101.9v114.9c0,9,4.8,17.3,12.7,21.8l99.9,56.8
			c4.5,2.6,10.2-0.7,10.2-5.9V174.6c0-9-4.8-17.3-12.7-21.8L79.3,96c-1.1-0.6-2.2-0.9-3.3-0.9C72.4,95.1,69.2,97.9,69.2,101.9"/>
	</defs>
	<clipPath id="SVGID_00000093164314848081961500000014623498775651855274_">
		<use xlink:href="#SVGID_00000011730444878305268410000011882747721054995377_"  style="overflow:visible;"/>
	</clipPath>
	<g style="clip-path:url(#SVGID_00000093164314848081961500000014623498775651855274_);">
		<defs>
			
				<filter id="Adobe_OpacityMaskFilter_00000134961746283835365610000007571321090466821550_" filterUnits="userSpaceOnUse" x="69.2" y="95.1" width="122.7" height="202.9">
				<feColorMatrix  type="matrix" values="1 0 0 0 0  0 1 0 0 0  0 0 1 0 0  0 0 0 1 0"/>
			</filter>
		</defs>
		
			<mask maskUnits="userSpaceOnUse" x="69.2" y="95.1" width="122.7" height="202.9" id="mask-1_00000045613331682115062450000008118255626598078875_">
			
				<linearGradient id="SVGID_00000075863802086485517970000004974190979270931382_" gradientUnits="userSpaceOnUse" x1="-1579.7072" y1="-46.5238" x2="-1575.7072" y2="-46.5238" gradientTransform="matrix(39.45 0 0 39.45 62392.2266 2031.9095)">
				<stop  offset="0" style="stop-color:#FFFFFF"/>
				<stop  offset="1" style="stop-color:#000000"/>
			</linearGradient>
			
				<rect x="69.2" y="95.1" style="fill:url(#SVGID_00000075863802086485517970000004974190979270931382_);filter:url(#Adobe_OpacityMaskFilter_00000134961746283835365610000007571321090466821550_);" width="122.7" height="202.9"/>
		</mask>
		<g class="st21">
			
				<linearGradient id="SVGID_00000101799423921717601290000009200275944503859372_" gradientUnits="userSpaceOnUse" x1="-1579.7072" y1="-46.5221" x2="-1575.7072" y2="-46.5221" gradientTransform="matrix(39.45 0 0 39.45 62392.2734 2031.8402)">
				<stop  offset="0" style="stop-color:#3B3B3B"/>
				<stop  offset="1" style="stop-color:#3B3B3B"/>
			</linearGradient>
			
				<rect x="69.2" y="95.1" style="fill:url(#SVGID_00000101799423921717601290000009200275944503859372_);" width="122.7" height="202.9"/>
		</g>
	</g>
</g>
<g>
	<defs>
		<path id="SVGID_00000036939936164384364820000007176260461815374509_" d="M310.1,96l-99.9,56.8c-7.8,4.5-12.7,12.8-12.7,21.8
			v114.9c0,5.2,5.6,8.5,10.1,5.9l99.9-56.8c7.8-4.5,12.7-12.8,12.7-21.8V101.9c0-4-3.2-6.8-6.8-6.8C312.3,95.1,311.2,95.4,310.1,96"
			/>
	</defs>
	<clipPath id="SVGID_00000181062864733042714810000017858156473683685565_">
		<use xlink:href="#SVGID_00000036939936164384364820000007176260461815374509_"  style="overflow:visible;"/>
	</clipPath>
	<g style="clip-path:url(#SVGID_00000181062864733042714810000017858156473683685565_);">
		<defs>
			
				<filter id="Adobe_OpacityMaskFilter_00000168079385965109184800000005688652804555605139_" filterUnits="userSpaceOnUse" x="100.7" y="36.5" width="316.5" height="320.1">
				<feColorMatrix  type="matrix" values="1 0 0 0 0  0 1 0 0 0  0 0 1 0 0  0 0 0 1 0"/>
			</filter>
		</defs>
		
			<mask maskUnits="userSpaceOnUse" x="100.7" y="36.5" width="316.5" height="320.1" id="mask-2_00000104675066948814901620000016533638094908904837_">
			
				<linearGradient id="SVGID_00000137099337301101000160000001924077161703267205_" gradientUnits="userSpaceOnUse" x1="-1566.0765" y1="-86.6274" x2="-1562.0765" y2="-86.6274" gradientTransform="matrix(19.5665 14.4098 -14.4098 19.5665 29571.0723 24397.959)">
				<stop  offset="0" style="stop-color:#FFFFFF"/>
				<stop  offset="1" style="stop-color:#000000"/>
			</linearGradient>
			
				<polygon style="fill:url(#SVGID_00000137099337301101000160000001924077161703267205_);filter:url(#Adobe_OpacityMaskFilter_00000168079385965109184800000005688652804555605139_);" points="
				100.7,226.7 240.7,36.5 417.1,166.4 277.1,356.6 			"/>
		</mask>
		<g class="st25">
			
				<linearGradient id="SVGID_00000118360161808929757560000015549853551860186807_" gradientUnits="userSpaceOnUse" x1="-1566.0765" y1="-86.6266" x2="-1562.0765" y2="-86.6266" gradientTransform="matrix(19.5665 14.4098 -14.4098 19.5665 29571.125 24397.9727)">
				<stop  offset="0" style="stop-color:#CE3F2B"/>
				<stop  offset="1" style="stop-color:#CF412B"/>
			</linearGradient>
			<polygon style="fill:url(#SVGID_00000118360161808929757560000015549853551860186807_);" points="100.7,226.7 240.7,36.5 
				417.1,166.4 277.1,356.6 			"/>
		</g>
	</g>
</g>
<g>
	<defs>
		<path id="SVGID_00000002371229659656391570000011696568636466184843_" d="M310.4,99.5L281,117.2c-2.7,1.6-5.4,4.8-7.3,8.9
			l-13.7,28.2l-11.4-10.7c-2.9-2.7-6.8-2.9-10.9-0.4l-27.5,16.5c-3.9,2.3-7.3,8.2-8.4,14.8c-1,5.6,0.2,10.2,2.7,12.3l22.4,19.2
			c7.1,5.8,18.1-0.9,25-15.3l26.9-56.1c1-2.1,2.4-3.8,3.9-4.7l25.5-15.3c0.8-0.5,1.1,0.7,0.6,1.9l-30.7,63.6
			c-0.8,1.8-1.3,3.8-1.3,5.6c0,1.8,0.5,3.3,1.3,4l30.8,28.7c0.5,0.5,0.2,2.1-0.6,2.6l-24.7,14.8c-2,1.2-4,1.1-5.4-0.2l-26-24.2
			c-7.1-6.6-18.7,0.3-25.9,15.5l-22.3,47.5c-2.7,5.8-3.4,12.6-1.5,16.8c1.6,3.5,4.8,4.2,8.1,2.2l26.1-15.7c4.1-2.5,8-7.3,10.9-13.5
			l12.4-26.3l13.9,13c1.8,1.6,4.2,1.7,6.7,0.2l30-18c3.2-1.9,6.4-6.3,7.9-11.6c1.8-6.3,1.2-12.1-1.5-14.6l-29.6-27.6l29.5-61.2
			c2.7-5.7,3.3-12.3,1.5-16.4c-1-2.2-2.6-3.3-4.4-3.3C312.8,98.5,311.6,98.8,310.4,99.5"/>
	</defs>
	<clipPath id="SVGID_00000049197905140144885100000015966114553848515746_">
		<use xlink:href="#SVGID_00000002371229659656391570000011696568636466184843_"  style="overflow:visible;"/>
	</clipPath>
	<g style="clip-path:url(#SVGID_00000049197905140144885100000015966114553848515746_);">
		
			<linearGradient id="SVGID_00000021812388933769753780000009459499868149306045_" gradientUnits="userSpaceOnUse" x1="-1604.6786" y1="-86.5487" x2="-1600.6786" y2="-86.5487" gradientTransform="matrix(3.068965e-15 50.12 -41.78 18.769 -3355.7407 82121.2031)">
			<stop  offset="0" style="stop-color:#E8AC30"/>
			<stop  offset="0.26" style="stop-color:#E8AC30"/>
			<stop  offset="1" style="stop-color:#CF732F"/>
		</linearGradient>
		<polygon style="fill:url(#SVGID_00000021812388933769753780000009459499868149306045_);" points="320.1,44.7 320.1,295.4 
			200.4,349.2 200.4,98.5 		"/>
	</g>
</g>
<g>
	<path class="st29" d="M184.9,186.2c0,1.8-1.9,2.9-3.5,2c-12.3-7.2-54.5-32-75.6-44.5c-1.1-0.6-2.1-1.4-3.2-1.8
		c-2.6-1-4.4-0.1-4.5,2.8c-0.1,4.5-0.3,9.1,0.1,13.6c0.3,3.7,2.2,6.7,5.6,8.6c19.5,11.4,39.2,22.6,58.5,34.2
		c13.6,8.2,21.1,20.6,22.2,36.4c0.6,8.8,0.2,17.6,0.1,26.4c-0.1,15.4-9.3,20.7-22.7,12.9c-18.8-10.9-37.6-22-56.4-33.1
		c-8.9-5.2-17.7-10.5-26.6-15.6c-3-1.7-2.9-3.6-2.9-9.2v-13.7c0-2,1.8-3.1,3.3-2.2c12,7,54.7,32.2,76.4,44.9c1.7,1,3.5,2.8,5.6,1.7
		c2.2-1.1,1.6-3.6,1.6-5.6c0.2-16.8,0.4-16.4-14.2-24.8c-16.8-9.6-33.6-19.1-50.1-29C84.3,181.8,77,168.7,76.2,152
		c-0.4-8.5-0.1-17.1-0.1-25.6c0-1.4,0-2.8,0.2-4.1c1-8.9,8-13.4,16.5-10.6c2.3,0.8,4.6,1.9,6.7,3.1c24.1,14.1,71.9,42.1,83,48.7
		c1.5,0.9,2.4,2.4,2.4,4.1L184.9,186.2L184.9,186.2z"/>
	<path class="st29" d="M248.4,48.5c-9.7-5.6-19.5-11.2-29.4-16.6c-6.6-3.6-13.9-5.7-21.4-6.1c-9.2-0.5-17.7,2.2-25.6,6.6
		C151,44.4,101,73,86.8,81.2c-1.7,1-1.7,3.4,0,4.4L191,145.2c3,1.7,6.6,1.7,9.5,0l14-8.1c1.7-1,1.7-3.4,0-4.4l-31.9-18.8
		c0,0,45.2-26.3,65.8-38.2C262.4,67.6,262.4,56.6,248.4,48.5 M219,66.5c-19.3,11-60.7,34.6-60.7,34.6s-20.8-11.6-31-17.3
		c13.6-7.7,26.5-15.1,39.4-22.4c7.3-4.1,14.6-8.1,21.8-12.3c4.4-2.6,8.7-2.6,13.1-0.1c5.8,3.3,11.6,6.5,17.3,9.8
		C223.7,61.4,223.7,63.8,219,66.5"/>
</g>
<g>
	<defs>
		<path id="SVGID_00000035506786024321720050000013530822710465170851_" d="M559.4,74.1h-112c-18.7,0-31.1,8.1-37.2,24.3
			c-0.2,1.2-0.7,3.7-1.5,7.5s-1.5,7.7-2.3,11.8c-0.8,4-1.4,6.9-1.8,8.6l-0.2,1c0,0.2,0,0.3,0,0.3c-1.8,10.4,1.5,19.4,10.1,27.1
			c8.4,7.6,19,11.5,31.7,11.5h69.1h-0.1c1.7,0,3.1,0.6,4.2,1.7c1.2,1.1,1.5,2.3,1,3.7c-0.1,0.6-0.3,1.6-0.6,3.2
			c-0.3,1.5-0.6,3.2-0.9,5c-0.3,1.8-0.7,4-1.3,6.7c-0.8,2.2-2.5,3.2-5.1,3.2H392.3c-0.2,1.1-0.6,3.5-1.2,7.1
			c-0.7,3.6-1.4,7.5-2.2,11.8s-1.8,9.6-3,16h136.7c9.7,0,18-2.3,24.7-6.9c6.8-4.7,11-10.7,12.7-18c0.1-0.9,0.4-2.8,1-5.8
			c0.6-3,1.2-6.2,1.9-9.7c0.7-3.5,1.3-6.5,1.8-9.1s0.8-3.9,0.7-4.1c0.1-0.1,0.1-0.3,0.1-0.3c1.8-10.2-1.6-19.1-10-26.9
			c-8.5-7.9-19-11.8-31.6-11.8h-68.6c-1.7,0-3.1-0.5-4.2-1.6c-1.1-1-1.7-2.3-1.5-3.7c0.1-0.6,0.3-1.7,0.6-3.2s0.6-3.2,0.9-4.9
			c0.3-1.8,0.7-4,1.3-6.7c0.3-0.8,0.9-1.6,1.7-2.2c0.9-0.6,2-0.9,3.3-0.9h120.3c0.2-1.1,0.6-3.4,1.2-7c0.7-3.6,1.4-7.4,2.3-11.6
			c0.8-4.2,1.8-9.4,3-15.8L559.4,74.1L559.4,74.1z"/>
	</defs>
	<clipPath id="SVGID_00000167369620141359005250000014566987409199901572_">
		<use xlink:href="#SVGID_00000035506786024321720050000013530822710465170851_"  style="overflow:visible;"/>
	</clipPath>
	<g style="clip-path:url(#SVGID_00000167369620141359005250000014566987409199901572_);">
		
			<linearGradient id="SVGID_00000106845023165835403250000006878425385412886430_" gradientUnits="userSpaceOnUse" x1="-1620.1499" y1="-103.6348" x2="-1616.1499" y2="-103.6348" gradientTransform="matrix(1.969844e-15 32.17 -32.17 1.969844e-15 -2848.9004 52207.3711)">
			<stop  offset="0" style="stop-color:#E6AA31"/>
			<stop  offset="1" style="stop-color:#D07B30"/>
		</linearGradient>
		
			<rect x="385.9" y="74.1" style="fill:url(#SVGID_00000106845023165835403250000006878425385412886430_);" width="198.3" height="150.2"/>
	</g>
</g>
<g>
	<defs>
		<path id="SVGID_00000181785229754624702510000015891698690858938755_" d="M416.6,152.2c-7.7-6.9-10.7-14.9-9.1-24.2l0.1-0.4l0-0.3
			l0.1-0.4c0.4-1.7,1-4.6,1.8-8.6c0.8-4,1.6-7.9,2.3-11.8c0.7-3.6,1.2-6,1.4-7.2c5.7-14.8,16.9-22,34.2-22h133.1
			c-0.9,4.6-1.6,8.7-2.3,12c-0.8,4.2-1.6,8.1-2.3,11.7c-0.3,1.8-0.6,3.3-0.8,4.5H457.4c-2,0-3.6,0.5-5,1.4l-0.1,0.1l-0.1,0.1
			c-1.4,1.1-2.3,2.3-2.8,3.7l-0.1,0.2l0,0.2c-0.5,2.7-1,4.9-1.3,6.8c-0.3,1.8-0.6,3.4-0.9,4.9l0,0.2l-0.6,3l0,0.2l0,0.2
			c-0.2,2.4,0.7,4.6,2.5,6.2c1.7,1.6,3.9,2.4,6.3,2.4h68.6c11.9,0,21.5,3.6,29.5,11c7.6,7,10.6,14.8,9.1,23.9l-0.3,0.5l0.1,0.6
			c-0.1,0.4-0.2,1.3-0.7,3.5l-0.1,0.6c-0.5,2.4-1,5.2-1.7,8.4c-0.7,3.5-1.3,6.7-1.9,9.7c-0.8,3.7-1,5.2-1.1,5.9
			c-1.5,6.5-5.3,11.8-11.4,16c-6.2,4.2-14,6.4-23,6.4h-133c0.9-4.7,1.6-8.9,2.3-12.3c0.8-4.3,1.6-8.2,2.2-11.8
			c0.3-1.8,0.6-3.3,0.8-4.5h117.5c3.9,0,6.8-1.9,8-5.3l0.1-0.2l0-0.2c0.5-2.7,1-5,1.3-6.8c0.3-1.8,0.6-3.4,0.9-4.9
			c0.3-1.3,0.5-2.3,0.6-2.9c0.8-2.4,0.1-4.9-1.8-6.8c-1.7-1.7-4-2.5-6.4-2.5h-69C434.2,162.9,424.5,159.4,416.6,152.2 M559.4,74.1
			h-112c-18.7,0-31.1,8.1-37.2,24.3c-0.2,1.2-0.7,3.7-1.5,7.5s-1.5,7.7-2.3,11.8c-0.8,4-1.4,6.9-1.8,8.6l-0.2,1c0,0.2,0,0.3,0,0.3
			c-1.8,10.4,1.5,19.4,10.1,27.1c8.4,7.6,19,11.5,31.7,11.5h69l0.1,3.1l-0.1-3.1c1.7,0,3,0.6,4.2,1.7c1.2,1.1,1.5,2.3,1,3.7
			c-0.1,0.6-0.3,1.6-0.6,3.2c-0.3,1.5-0.6,3.2-0.9,5c-0.3,1.8-0.7,4-1.3,6.7c-0.8,2.2-2.5,3.2-5.1,3.2H392.4
			c-0.2,1.1-0.6,3.5-1.2,7.1c-0.7,3.6-1.4,7.5-2.2,11.8s-1.8,9.6-3,16h136.7c9.7,0,18-2.3,24.7-6.9c6.8-4.7,11-10.7,12.7-18
			c0.1-0.9,0.4-2.8,1-5.8c0.6-3,1.2-6.2,1.9-9.7c0.7-3.5,1.3-6.5,1.8-9.1s0.8-3.9,0.7-4.1c0.1-0.1,0.1-0.3,0.1-0.3
			c1.8-10.2-1.6-19.1-10-26.9c-8.5-7.9-19-11.8-31.6-11.8h-68.6c-1.7,0-3.1-0.5-4.2-1.6c-1.1-1-1.7-2.3-1.5-3.7
			c0.1-0.6,0.3-1.7,0.6-3.2s0.6-3.2,0.9-4.9c0.3-1.8,0.7-4,1.3-6.7c0.3-0.8,0.9-1.6,1.7-2.2c0.9-0.6,2-0.9,3.3-0.9h120.3
			c0.2-1.1,0.6-3.4,1.2-7c0.7-3.6,1.4-7.4,2.3-11.6c0.8-4.2,1.8-9.4,3-15.8L559.4,74.1L559.4,74.1z"/>
	</defs>
	<clipPath id="SVGID_00000179629197978062080570000000024128856671968934_">
		<use xlink:href="#SVGID_00000181785229754624702510000015891698690858938755_"  style="overflow:visible;"/>
	</clipPath>
	<g style="clip-path:url(#SVGID_00000179629197978062080570000000024128856671968934_);">
		
			<linearGradient id="SVGID_00000093875265005702894300000015846836868007032466_" gradientUnits="userSpaceOnUse" x1="-1582.7823" y1="-47.3086" x2="-1578.7827" y2="-47.3086" gradientTransform="matrix(49.58 0 0 49.58 78852.7188 2494.7393)">
			<stop  offset="0" style="stop-color:#E6AA31"/>
			<stop  offset="1" style="stop-color:#D07B30"/>
		</linearGradient>
		
			<rect x="385.9" y="74.1" style="fill:url(#SVGID_00000093875265005702894300000015846836868007032466_);" width="198.3" height="150.2"/>
	</g>
</g>
<g>
	<path class="st34" d="M565.9,264.6L587,155.5h42.8l-7.9,39.3h24.8c11.6-0.3,20.8-2.9,27.4-7.8c6.7-4.6,10.9-10.3,12.4-16.9
		c2.2-8.7,1.5-15.6-2.1-20.3c-3.9-5.1-11.2-7.8-21.7-7.9h-20.1l-1.4-0.1h-51.5l5.6-29.1l77.4,0.4c13.2,0.6,23.6,2.9,30.8,7
		c7.2,4,12.9,9.6,17.1,16.4c9.2,14.8,9.4,31.9,0.8,50.9c-12,21.7-34.9,33.6-67.8,35.2h-37.4l-8.6,42L565.9,264.6L565.9,264.6z"/>
	<path class="st34" d="M596.5,114.3l76,0.4c13.1,0.6,23.2,2.8,30.2,6.8c6.9,3.9,12.5,9.2,16.6,15.9c9,14.5,9.2,30.6,0.7,49.3
		c-11.8,21.2-34.2,32.8-66.3,34.4H615l-0.5,2.5l-8.1,39.5h-38.5l20.5-106h39.6l-7.2,35.6l-0.8,3.7h26.9c11.8-0.3,21.2-3,28.1-8
		c7-4.9,11.4-10.9,13-17.8c2.4-9.2,1.5-16.5-2.4-21.7c-4.2-5.5-11.9-8.3-22.9-8.5h-18.6v-0.1h-52.5L596.5,114.3 M594,111.1
		l-6.2,32.2h53.4v0.1h21.5c19.3,0.2,26.7,9,22.3,26.3c-1.5,6.2-5.4,11.6-11.8,16c-6.4,4.7-15.2,7.2-26.4,7.5h-23l7.9-39.3h-46
		l-21.7,112.2h44.9l8.6-42h36.2c33.7-1.6,56.7-13.7,69.1-36.1c8.9-19.5,8.6-37-0.8-52.3c-4.4-7.1-10.2-12.8-17.7-17
		c-7.4-4.2-18-6.6-31.6-7.2L594,111.1L594,111.1z"/>
	<path class="st34" d="M740,222.7l21.9-110.7H805l-21.4,110.7H740L740,222.7z M764.4,99.1l5-23.6h42.9l-5,23.6H764.4z"/>
	<path class="st34" d="M810.4,77.1L806,97.6h-39.8l4.4-20.5H810.4L810.4,77.1z M803.1,113.6l-20.8,107.6h-40.5l21.3-107.6H803.1
		 M814.2,74h-46.1l-5.7,26.7h46.1L814.2,74L814.2,74z M806.9,110.5h-46.3l-22.5,113.8h46.8L806.9,110.5L806.9,110.5z"/>
	<path class="st34" d="M897,222.7l14.9-72.9c0.1-2.6-0.8-4.7-2.5-6.4c-1.9-1.8-4.3-2.7-7.4-2.7h-35.5l-16,82.1h-42.8l21.4-110h56.7
		v-0.1h29.8c12,0,22.1,3.8,30,11.2c7.9,7.3,11,15.7,9.3,25.4l-15,73.5L897,222.7L897,222.7z"/>
	<path class="st34" d="M915.6,114.2c11.8,0,21.2,3.5,28.9,10.8c7.5,6.9,10.4,14.8,8.8,23.9l-14.8,72.3h-39.6l14.5-71.1l0-0.3v-0.3
		c0.1-2.8-1-5.3-3.1-7.4c-2.2-2.1-5-3.1-8.4-3.1h-36.8l-0.5,2.5l-15.5,79.5h-39.6l20.8-106.9H884l3.5-0.1L915.6,114.2 M915.6,111
		H884v0.1h-56.2l-22,113.1h46l16-82.1H902c2.6,0,4.7,0.7,6.3,2.2c1.5,1.4,2.2,3.1,2.1,5l-15.3,74.8h46l15.3-74.8
		c1.8-10.2-1.5-19.2-9.8-26.8C938.4,114.9,928.1,111,915.6,111"/>
	<path class="st34" d="M963.3,222.7l21.9-110.7h43.1L1007,222.7H963.3L963.3,222.7z M987.7,99.1l5-23.6h42.9l-5,23.6H987.7z"/>
	<path class="st34" d="M1033.8,77.1l-4.4,20.5h-39.8l4.4-20.5H1033.8L1033.8,77.1z M1026.4,113.6l-20.8,107.6h-40.5l21.3-107.6
		H1026.4 M1037.6,74h-46.1l-5.7,26.7h46.1L1037.6,74z M1030.2,110.5h-46.3l-22.5,113.8h46.8L1030.2,110.5z"/>
</g>
<g>
	<defs>
		<path id="SVGID_00000093153375725960577080000009267808952426636419_" d="M1175.3,74.1l-45.5,41.8L1100,74.1h-59.9
			c17,22.3,34.9,47.2,53.7,74.6l-82.5,75.6h60c9.2-8.1,24.4-22.1,45.6-42.1c13.7,20,23.6,34,29.7,42.1h59.9l-53.5-75.6
			c29.3-27.4,56.8-52.2,82.3-74.6H1175.3L1175.3,74.1z"/>
	</defs>
	<clipPath id="SVGID_00000017483472769002221770000013632905627293929146_">
		<use xlink:href="#SVGID_00000093153375725960577080000009267808952426636419_"  style="overflow:visible;"/>
	</clipPath>
	<g style="clip-path:url(#SVGID_00000017483472769002221770000013632905627293929146_);">
		
			<linearGradient id="SVGID_00000097491112783737827090000000439214315818551943_" gradientUnits="userSpaceOnUse" x1="-1620.1499" y1="-118.5163" x2="-1616.1499" y2="-118.5163" gradientTransform="matrix(1.969844e-15 32.17 -32.17 1.969844e-15 -2689.3506 52207.3711)">
			<stop  offset="0" style="stop-color:#E6AA31"/>
			<stop  offset="1" style="stop-color:#D07B30"/>
		</linearGradient>
		
			<rect x="1011.3" y="74.1" style="fill:url(#SVGID_00000097491112783737827090000000439214315818551943_);" width="224" height="150.2"/>
	</g>
</g>
<g>
	<defs>
		<path id="SVGID_00000064337418201301142550000011394536751849650082_" d="M1131.9,118.1l44.6-40.9h50.5
			c-23.8,20.9-49.3,44.2-76.2,69.2l-2,1.9l1.6,2.2l50,70.7h-52.3c-6.1-8.1-15.8-21.8-28.7-40.7l-2.1-3l-2.7,2.5
			c-20.4,19.2-35.4,33.1-44.6,41.2h-50.8l76.6-70.2l2-1.8l-1.5-2.2c-17.3-25.2-34.1-48.6-50-69.7h52l28.9,40.4l2.1,2.9L1131.9,118.1
			L1131.9,118.1z M1175.3,74.1l-45.5,41.8L1100,74.1h-59.9c17,22.3,34.9,47.2,53.7,74.6l-82.5,75.6h60c9.2-8.1,24.4-22.1,45.6-42.1
			c13.7,20,23.6,34,29.7,42.1h59.9l-53.5-75.6c29.3-27.4,56.8-52.2,82.3-74.6H1175.3L1175.3,74.1z"/>
	</defs>
	<clipPath id="SVGID_00000159433137847362390910000018236609733347746693_">
		<use xlink:href="#SVGID_00000064337418201301142550000011394536751849650082_"  style="overflow:visible;"/>
	</clipPath>
	<g style="clip-path:url(#SVGID_00000159433137847362390910000018236609733347746693_);">
		
			<linearGradient id="SVGID_00000106121016501237971070000012858095120541558957_" gradientUnits="userSpaceOnUse" x1="-1578.4351" y1="-47.2975" x2="-1574.4351" y2="-47.2975" gradientTransform="matrix(55.99 0 0 55.99 89390 2797.3689)">
			<stop  offset="0" style="stop-color:#E6AA31"/>
			<stop  offset="1" style="stop-color:#D07B30"/>
		</linearGradient>
		
			<rect x="1011.3" y="74.1" style="fill:url(#SVGID_00000106121016501237971070000012858095120541558957_);" width="224" height="150.2"/>
	</g>
</g>
</svg>
