<svg width="117" height="56" viewBox="0 0 117 56" fill="none" xmlns="http://www.w3.org/2000/svg">
<path fill-rule="evenodd" clip-rule="evenodd" d="M0.121826 34.2242V31.7769H6.48481V34.5913C6.48481 37.1609 7.46373 38.3846 9.42157 38.3846C11.3794 38.3846 12.3583 37.1609 12.3583 34.5913C12.3583 33.1229 11.9912 31.7769 11.1347 30.4308C10.2781 29.2072 9.2992 27.9835 8.07555 26.8823L4.89406 23.5784C3.54805 22.4771 2.44676 21.0087 1.59021 19.2956C0.733651 17.8272 0.366556 15.8694 0.366556 13.7892C0.366556 10.6077 1.22311 8.1604 2.93622 6.44729C4.52697 4.85655 6.72954 3.99999 9.6663 3.99999C12.6031 3.99999 14.6833 4.85655 16.274 6.56966C17.8648 8.28277 18.5989 10.7301 18.5989 13.9116V15.1352H12.7254V13.4221C12.7254 10.8524 11.7465 9.50642 9.6663 9.50642C7.58609 9.50642 6.48481 10.8524 6.48481 13.4221C6.48481 14.5234 6.72954 15.5023 7.219 16.4812C7.70846 17.4601 8.19792 18.3167 8.93211 19.1733C9.6663 19.9074 10.4005 20.764 11.257 21.4982C12.1136 22.2324 12.9702 23.0889 13.8267 23.9455C14.6833 24.802 15.4175 25.6586 16.1516 26.6375C16.8858 27.6164 17.4977 28.7177 17.8648 30.0637C18.3542 31.4098 18.5989 32.7558 18.5989 34.3465C18.5989 37.528 17.8648 39.9753 16.274 41.6884C14.6833 43.4015 12.4807 44.2581 9.54393 44.2581C6.60717 44.2581 4.4046 43.4015 2.69149 41.6884C0.978382 39.8529 0.121826 37.4057 0.121826 34.2242Z" fill="#ED334D"/>
<path fill-rule="evenodd" clip-rule="evenodd" d="M28.3891 23.3335H31.3258C32.3047 23.3335 33.0389 23.0887 33.6507 22.4769C34.1402 21.8651 34.3849 21.0085 34.3849 19.6625V13.789C34.3849 12.443 34.1402 11.4641 33.6507 10.9746C33.1613 10.3628 32.4271 10.1181 31.3258 10.1181H28.3891V23.3335ZM22.1484 43.6461V4.48926H31.2034C37.3217 4.48926 40.3808 7.67075 40.3808 14.1561V19.2954C40.3808 25.7808 37.3217 28.9623 31.2034 28.9623H28.2667V43.6461H22.1484Z" fill="#ED334D"/>
<path fill-rule="evenodd" clip-rule="evenodd" d="M49.5578 22.1098H52.0051C53.2287 22.1098 54.2076 21.7427 54.8195 21.1309C55.4313 20.5191 55.7984 19.4178 55.7984 17.9494V14.0337C55.7984 11.3417 54.8195 9.99568 52.6169 9.99568H49.6801V22.1098H49.5578ZM43.3171 43.6461V4.48926H52.6169C55.7984 4.48926 58.1233 5.22345 59.5917 6.69183C61.0601 8.16021 61.7943 10.4851 61.7943 13.5443V16.6034C61.7943 20.6414 60.4483 23.3335 57.7562 24.5571C60.4483 25.6584 61.9166 28.4728 61.9166 32.8779V38.8738V39.1186C61.9166 41.0764 62.1614 42.6671 62.5285 43.6461H56.2878C55.9207 42.5448 55.676 40.954 55.676 38.8738V32.7556C55.676 30.9201 55.3089 29.6964 54.6971 28.9623C54.0853 28.2281 52.984 27.861 51.638 27.861H49.4354V43.7684H43.3171V43.6461Z" fill="#ED334D"/>
<path fill-rule="evenodd" clip-rule="evenodd" d="M65.9543 43.6461H72.195V4.48926H65.9543V43.6461Z" fill="#ED334D"/>
<path fill-rule="evenodd" clip-rule="evenodd" d="M82.8414 38.0173H86.39C87.4913 38.0173 88.2254 37.7725 88.8373 37.1607C89.3267 36.5489 89.6938 35.57 89.6938 34.224V30.7977C89.6938 28.9623 89.3267 27.7386 88.7149 27.1268C88.1031 26.3926 87.1242 26.0255 85.6558 26.0255H82.8414V38.0173ZM82.8414 20.3967H85.2887C86.5123 20.3967 87.4913 20.0296 88.1031 19.4178C88.7149 18.806 89.082 17.7047 89.082 16.2363V14.0337C89.082 11.3417 88.1031 9.99568 85.9005 9.99568H82.8414V20.3967ZM76.7231 43.6461V4.48926H86.0229C89.2044 4.48926 91.5293 5.22345 92.9977 6.69183C94.4661 8.16021 95.2003 10.4851 95.2003 13.5443V14.8903C95.2003 18.9283 93.8542 21.498 91.1622 22.844C94.2213 24.0677 95.8121 26.882 95.8121 31.2872V34.4687C95.8121 37.5278 94.9555 39.8527 93.3648 41.4435C91.774 43.0342 89.4491 43.7684 86.39 43.7684H76.7231V43.6461Z" fill="#ED334D"/>
<path fill-rule="evenodd" clip-rule="evenodd" d="M99.4822 43.6461V4.48926H116.369V9.99569H105.723V21.0085H114.166V26.515H105.723V38.0173H116.369V43.6461H99.4822Z" fill="#ED334D"/>
<path fill-rule="evenodd" clip-rule="evenodd" d="M0 51.5999H116.492V46.2158H0V51.5999Z" fill="#ED334D"/>
</svg>
