<svg width="32" height="32" viewBox="0 0 32 32" fill="none" xmlns="http://www.w3.org/2000/svg">
<path fill-rule="evenodd" clip-rule="evenodd" d="M10.8482 19.3489V18.0264H14.2877V19.548C14.2877 20.9328 14.8174 21.5984 15.8759 21.5984C16.9344 21.5984 17.4633 20.9372 17.4633 19.548C17.4701 18.749 17.24 17.966 16.802 17.2977C16.3258 16.5972 15.7709 15.9537 15.148 15.3797L13.4282 13.5933C12.6767 12.9567 12.0679 12.1687 11.6418 11.2806C11.1693 10.3612 10.9424 9.33533 10.9832 8.30241C10.935 7.58166 11.0328 6.85859 11.2707 6.17654C11.5087 5.4945 11.8819 4.86751 12.368 4.33318C12.8524 3.87742 13.4245 3.52505 14.0494 3.29754C14.6744 3.07002 15.3391 2.97213 16.0031 3.00981C16.6635 2.96633 17.3253 3.06775 17.9424 3.30696C18.5594 3.54618 19.1166 3.9174 19.5751 4.39463C20.4872 5.50775 20.9371 6.92862 20.8318 8.36386V9.03031H17.6615V8.10335C17.6615 6.7142 17.1326 5.9863 16.0083 5.9863C14.884 5.9863 14.2877 6.7142 14.2877 8.10335C14.2854 8.67857 14.4217 9.24589 14.685 9.75734C14.9304 10.2798 15.2416 10.7687 15.6111 11.2123C16.0083 11.6095 16.4047 12.0726 16.8678 12.4699C17.3308 12.8671 17.7939 13.3293 18.2569 13.7924C18.7109 14.2463 19.1309 14.7328 19.5137 15.2481C19.939 15.8 20.2535 16.4289 20.4398 17.1003C20.7109 17.8418 20.8455 18.6262 20.837 19.4156C20.9423 20.8506 20.4924 22.2712 19.5803 23.384C19.1091 23.8622 18.5408 24.2338 17.9136 24.4734C17.2865 24.7131 16.6152 24.8153 15.9452 24.7731C15.2653 24.8094 14.5853 24.7047 13.9478 24.4657C13.3103 24.2266 12.7291 23.8583 12.2408 23.384C11.266 22.2733 10.766 20.8244 10.8482 19.3489Z" fill="#ED364E"/>
<path fill-rule="evenodd" clip-rule="evenodd" d="M10.7823 28.7423H20.837V25.8316H10.7823V28.7423Z" fill="#ED364E"/>
</svg>
