<svg width="120" height="32" viewBox="0 0 120 32" fill="none" xmlns="http://www.w3.org/2000/svg">
<g clip-path="url(#clip0_543_29689)">
<path d="M15.9291 32C24.7265 32 31.8582 24.8366 31.8582 16C31.8582 7.16344 24.7265 0 15.9291 0C7.1317 0 0 7.16344 0 16C0 24.8366 7.1317 32 15.9291 32Z" fill="#27A17C"/>
<path d="M23.421 7.20825H8.41357V10.9187H13.9675V25.4535H17.8907V10.9187H23.421V7.20825Z" fill="white"/>
<path d="M15.9291 18.6469C21.3981 18.6469 25.8316 17.6735 25.8316 16.4726C25.8316 15.2718 21.3981 14.2983 15.9291 14.2983C10.4601 14.2983 6.02661 15.2718 6.02661 16.4726C6.02661 17.6735 10.4601 18.6469 15.9291 18.6469Z" fill="white"/>
<path d="M24.65 16.3544C24.65 17.2761 20.7268 18.0088 15.8819 18.0088C11.037 18.0088 7.11377 17.2761 7.11377 16.3544C7.11377 15.4327 11.037 14.7001 15.8819 14.7001C20.7268 14.7001 24.65 15.4327 24.65 16.3544Z" fill="#27A17C"/>
<path d="M17.9144 17.7726C16.6145 17.7962 15.3146 17.7962 13.9675 17.7726V14.7002H17.9144V17.7726Z" fill="white"/>
<path d="M47.3383 11.3678L47.2674 14.9838L51.0252 15.0547L51.1197 17.7253H47.2674L47.1965 23.0428C47.4092 26.9897 50.5761 25.3353 50.9543 25.2644L51.6396 28.1477C51.1197 28.3368 49.4653 28.7149 48.3309 28.7149C47.0074 28.7149 45.8967 28.2659 45.2349 27.5805C44.4786 26.8006 44.1005 25.5244 44.1005 23.6573L44.1241 17.8198L41.359 17.9852L41.2881 14.9838H44.1241V11.3678H47.3383Z" fill="#5B5B5D"/>
<path d="M72.4845 11.3678L72.4136 14.9838L76.1714 15.0547L76.2659 17.7253H72.39L72.3191 23.0428C72.5318 26.9897 75.6987 25.3353 76.0768 25.2644L76.7622 28.1477C76.2423 28.3368 74.5879 28.7149 73.4535 28.7149C72.13 28.7149 71.0192 28.2659 70.3575 27.5805C69.6012 26.8006 69.2231 25.5244 69.2231 23.6573L69.2467 17.8198L66.4815 17.9852L66.4106 14.9838H69.2467V11.3678H72.4845Z" fill="#5B5B5D"/>
<path d="M55.9173 22.901C55.6337 24.2481 57.2881 25.9497 60.0296 25.7134C61.5894 25.5716 62.0857 25.477 63.4565 24.4135L65.8198 26.5406C64.4491 27.675 63.2201 28.5258 60.4077 28.7149C55.421 29.0457 52.5377 25.997 52.5377 21.6957C52.5377 18.1979 54.8538 14.3456 59.9823 14.3456C64.7563 14.3456 66.5525 17.8197 66.5525 21.223C66.5525 21.9556 66.458 22.5937 66.4107 22.9246L55.9173 22.901ZM63.291 19.9704C63.291 19.0014 62.6293 17.3707 59.746 17.3707C57.1227 17.3707 56.0355 18.9069 55.8937 19.9704H63.291Z" fill="#5B5B5D"/>
<path d="M96.0709 22.901C95.7873 24.2481 97.4416 25.9497 100.183 25.7134C101.743 25.5716 102.239 25.477 103.61 24.4135L105.973 26.5406C104.603 27.675 103.374 28.5258 100.561 28.7149C95.5746 29.0457 92.6913 25.997 92.6913 21.6957C92.6913 18.1979 95.0074 14.3456 100.136 14.3456C104.91 14.3456 106.706 17.8197 106.706 21.223C106.706 21.9556 106.612 22.5937 106.564 22.9246L96.0709 22.901ZM103.445 19.9704C103.445 19.0014 102.783 17.3707 99.8996 17.3707C97.2762 17.3707 96.1891 18.9069 96.0473 19.9704H103.445Z" fill="#5B5B5D"/>
<path d="M78.1566 9.12256L81.4181 9.19346V16.7562C81.4181 16.7562 82.3634 15.4328 83.356 15.031C84.4432 14.5819 85.3413 14.511 86.1921 14.6056C88.8863 14.9364 91.1551 16.5908 91.1551 20.5849V28.2895H87.8228L87.8464 20.4431C87.681 18.5524 86.1684 17.6543 84.5613 17.6543C83.4506 17.6543 81.4417 18.7178 81.5126 20.7267V28.2422L78.1566 28.2658V9.12256V9.12256Z" fill="#5B5B5D"/>
<path d="M108.691 18.9069C108.691 16.969 108.668 14.4638 108.715 14.5583L111.906 14.5347L111.929 16.969C111.929 16.969 112.284 14.8183 114.553 14.4165C117.814 13.8493 119.09 15.5509 119.445 15.8109C119.468 15.8345 119.468 15.8582 119.445 15.8818L117.956 18.6706C117.767 18.4106 117.247 17.5834 115.64 17.5834C114.127 17.5834 112.473 18.4579 112.189 19.7105C112.142 19.9704 112.166 20.8922 112.166 21.1994L112.189 28.2659H108.62L108.691 18.9069Z" fill="#5B5B5D"/>
</g>
<defs>
<clipPath id="clip0_543_29689">
<rect width="119.468" height="32" fill="white"/>
</clipPath>
</defs>
</svg>
