<svg width="40" height="40" viewBox="0 0 40 40" fill="none" xmlns="http://www.w3.org/2000/svg">
    <path d="m12.535 32.16.148-.371s-.423-.23-.823-.488a13.09 13.09 0 0 1-.77-.531l-.338.244c.282.019.547.137.745.333l-.949 1.315c-.151.2-.404.56-.548.594l.298.213c.146.106.306.205.306.205a2.56 2.56 0 0 1 .366-.668l.976-1.372c.303.18.535.302.59.527zM27.326 35.945l-.092.047-.092.045v.046c.01-.023.042-.04.071-.053l.09.177a.174.174 0 0 1 .029.081l.038-.017.04-.02c-.016 0-.04-.05-.056-.078l-.085-.161a.167.167 0 0 1 .08-.029l-.023-.038zM12.057 32.983a1.11 1.11 0 0 0 .023.638c.07.206.197.388.37.526a1.208 1.208 0 0 0 1.251.151c.202-.093.372-.239.492-.422a1.12 1.12 0 0 0-.001-1.224c-.12-.183-.29-.33-.492-.422a1.262 1.262 0 0 0-.993.024c-.155.071-.293.173-.405.298a1.18 1.18 0 0 0-.245.431zm1.551-.556c.434.2.269.757.012 1.28-.258.522-.602 1-1.034.8-.433-.2-.267-.76 0-1.283.266-.522.59-.997 1.026-.797h-.004zM15.106 35.557c-.06-.102.129-.638.165-.78l.475-1.55c.393.098.45.14.572.313l.04-.4s-.375-.082-.833-.208c-.505-.14-.77-.243-.77-.243l-.236.339c.195-.087.288-.078.694.053l-.476 1.56c-.057.26-.169.506-.327.722.114.043.232.079.35.108.214.059.346.086.346.086zM17.628 33.598c.445.055.509.103.679.248l-.019-.4s-.425-.038-.878-.103c-.452-.066-.81-.149-.81-.149l-.167.38c.182-.105.264-.135.651-.06l-.265 1.612c-.02.26-.093.515-.212.75 0 0 .133.028.349.058.215.03.365.046.365.046-.03-.264-.017-.53.04-.79l.267-1.592zM18.52 35.35c.01.253-.026.507-.107.749 0 0 .403.034.912.04h.788l.088-.487c-.182.245-.572.28-1.148.273l.034-1.063h.745c.07 0 .072-.037.072-.108 0-.071 0-.108-.07-.11h-.73l.028-.897a1.56 1.56 0 0 1 .97.177l-.064-.402s-.284.016-.786 0c-.385-.016-.332-.014-.75-.042.097.093.071.545.07.825l-.052 1.044zM22.302 36a.265.265 0 0 0 .183-.103c-.092-.052-.134-.332-.183-.72l-.126-1.044a2.299 2.299 0 0 1-.027-.781s-.06.012-.223.034l-.21.026c.104.239.165.492.182.75l.112.886-1.342-1.547-.4.014c.09.257.136.526.137.797l.063 1.048c.035.255.021.513-.038.764l.434-.02c-.094-.074-.11-.625-.126-.773l-.05-.927 1.31 1.46a.32.32 0 0 0 .304.136zM24.716 35.459l.334-.097c-.137-.09-.228-.555-.275-.736l-.252-1.026a2.434 2.434 0 0 1-.133-.755s-.099.035-.327.1l-.34.093c.133.211.222.446.263.69l.09.338-.82.193-.064-.331a2.415 2.415 0 0 1-.073-.755s-.115.032-.354.076l-.345.066c.112.056.205.55.241.744l.201 1.042c.059.249.075.505.048.759 0 0 .142-.022.345-.062l.365-.073c-.111-.066-.199-.603-.226-.762l-.094-.493.83-.198.125.485c.08.259.117.528.11.798 0 0 .24-.062.351-.096zM26.967 33.977l-1.19-1.433c-.137-.154-.215-.158-.401-.082-.114.05-.223.11-.326.177a.294.294 0 0 1 .089.103.691.691 0 0 1 .04.204l.072 2.05a.638.638 0 0 1-.056.335l.215-.065c.14-.044.225-.075.225-.075a.147.147 0 0 1-.071-.076 1.764 1.764 0 0 1-.054-.354l-.027-.433.812-.308.236.285c.083.1.158.206.224.318a.245.245 0 0 1 .015.177s.151-.057.38-.156l.35-.152a1.529 1.529 0 0 1-.533-.515zm-1.49.109-.05-1.22.73.971-.68.249zM29.429 32.466l-.646-.807a2.463 2.463 0 0 1-.438-.709s-.136.098-.283.194c-.148.095-.23.15-.23.15l.59 1.753-1.5-1.24s-.12.065-.258.13l-.316.15c.15.058.323.354.48.634l.52.946c.15.22.257.465.316.721l.183-.086c.117-.055.208-.103.208-.103-.148-.042-.365-.482-.482-.693l-.466-.835 1.33 1.064a.245.245 0 0 0 .32.01.455.455 0 0 0 .099-.111l-.564-1.746.701.886c.174.196.314.418.413.658l.284-.188c.164-.108.31-.22.31-.22-.179-.023-.434-.392-.571-.558zM27.412 35.9l-.042.022c.022 0 .046.04.06.065l.067.108c.01.016.042.064.038.087l.023-.012.026-.014c-.02-.01-.046-.055-.06-.08l-.06-.094.153.119a.026.026 0 0 0 .02.008.026.026 0 0 0 .02-.008l.013-.013-.065-.198.077.1c.02.023.038.049.048.077l.033-.021.037-.025a.281.281 0 0 1-.066-.068l-.073-.092a.175.175 0 0 1-.044-.083l-.035.023-.033.018.066.197-.17-.139-.033.023zM14.669 36.561s-.182-.06-.32-.11l-.35-.123a2.131 2.131 0 0 1-.217.769l-.124.301-.816-.326.128-.266c.1-.213.29-.686.425-.737a7.318 7.318 0 0 1-.354-.151c-.1-.04-.197-.087-.292-.138-.04.275-.132.54-.272.783l-.436.938c-.137.283-.243.565-.422.65 0 0 .057.03.31.144.216.097.366.154.366.154-.046-.122.142-.516.22-.691l.243-.5.834.338-.16.438c-.051.138-.212.69-.383.734.14.058.215.081.348.127l.347.12c-.053-.134.106-.502.199-.758l.348-.937c.075-.274.203-.532.378-.759z" fill="#90949C"/>
    <path d="M15.996 36.905a1.44 1.44 0 0 0-.837-.106 1.414 1.414 0 0 0-.747.38 1.348 1.348 0 0 0-.387.727c-.05.276-.01.56.112.812.122.253.322.463.571.602a1.437 1.437 0 0 0 1.603-.141c.22-.18.377-.423.45-.693a1.148 1.148 0 0 0-.325-1.345 1.223 1.223 0 0 0-.44-.236zm.207 1.438c-.148.549-.391 1.063-.855.951-.463-.111-.41-.687-.263-1.24.148-.553.39-1.064.855-.947.465.117.41.688.263 1.236zM17.892 37.26c-.365-.044-.662-.077-.797-.107l-.183.392c.183-.11.301-.14.73-.087l-.202 1.528a5.91 5.91 0 0 1-.108.615.37.37 0 0 1-.079.147c.073.012.24.04.366.053.126.012.266.027.354.037a2.095 2.095 0 0 1 .018-.785l.203-1.533c.365.027.527.044.686.223l-.024-.391s-.72-.064-.964-.092zM20.183 38.488c-.38-.206-.663-.34-.663-.59a.324.324 0 0 1 .107-.269.345.345 0 0 1 .282-.086c.13.008.257.046.368.113a.779.779 0 0 1 .27.268l.097-.399c-.23-.12-.486-.18-.747-.177-.477 0-.883.23-.883.682 0 .334.167.557.613.78.445.224.574.355.573.548a.431.431 0 0 1-.156.32.456.456 0 0 1-.349.105.812.812 0 0 1-.391-.156.78.78 0 0 1-.255-.33l-.096.437c.222.18.505.274.794.265.593.01.978-.324.972-.783-.005-.253-.104-.49-.536-.728zM22.875 37.809a.694.694 0 0 0-.284-.374 1.193 1.193 0 0 0-.79-.154c-.598.055-.913.1-.913.1.105.24.159.496.158.756l.122 1.24c.025.17.014.344-.03.51 0 0 .15 0 .342-.019.254-.02.388-.033.388-.033-.117-.101-.157-.592-.17-.732l-.159-1.584c0-.005 0-.01.002-.015a.038.038 0 0 1 .008-.013.04.04 0 0 1 .012-.008.599.599 0 0 1 .549.089.604.604 0 0 1 .221.451.707.707 0 0 1-.124.513.516.516 0 0 1-.345.177h-.03c-.028 0-.027.035-.027.035v.02c0 .085.037.122.161.113a1.06 1.06 0 0 0 .741-.292.75.75 0 0 0 .206-.445.89.89 0 0 0 0-.177.985.985 0 0 0-.038-.158zM25.087 37.47a2.05 2.05 0 0 1-.126-.786c-.073.024-.182.053-.343.1l-.343.093c.136.217.227.458.268.709l.29 1.063a.649.649 0 0 1-.013.46.372.372 0 0 1-.271.176.4.4 0 0 1-.309-.053.642.642 0 0 1-.224-.404l-.258-1.063a1.753 1.753 0 0 1-.068-.766s-.113.027-.355.07c-.243.042-.4.065-.4.065.152.227.248.485.281.753l.203.831c.055.245.209.458.427.593.217.135.48.18.733.126a.973.973 0 0 0 .61-.415.922.922 0 0 0 .13-.712l-.232-.84zM27.962 38.103a4.38 4.38 0 0 1-1.04-.627.845.845 0 0 0 .25-.264.638.638 0 0 0 .081-.45.695.695 0 0 0-.118-.282.596.596 0 0 0-.345-.241 1.291 1.291 0 0 0-.832.097c-.26.112-.526.209-.796.29.126.068.277.488.365.722l.336.971c.098.229.153.472.162.72 0 0 .128-.036.342-.11.213-.074.352-.127.352-.127-.125-.07-.261-.482-.34-.693l-.518-1.44c-.023-.063 0-.08 0-.08a.586.586 0 0 1 .128-.067.533.533 0 0 1 .364-.017.587.587 0 0 1 .333.335.546.546 0 0 1-.263.762l-.023.01a.018.018 0 0 0-.012.023c.324.33.705.604 1.125.809a.517.517 0 0 0 .536-.167.354.354 0 0 0 .096-.16.24.24 0 0 1-.183-.014zM15.541 26.943a.512.512 0 0 1-.29-.2 1.89 1.89 0 0 0-.384.74c-.07.271-.079.554-.025.828.296.97.884 1.83 1.688 2.472a5.298 5.298 0 0 0 2.823 1.13 5.932 5.932 0 0 1-2.65-1.947 5.675 5.675 0 0 1-1.162-3.023zM14.655 27.395c.094-.348.248-.679.456-.978-.04-.21-.036-.425.014-.633a2.875 2.875 0 0 1-.317-.244c-.14.5-.202 1.018-.183 1.536.009.107.019.213.03.32z" fill="#90949C"/>
    <path d="M20.979 31.816a5.298 5.298 0 0 0 2.184-1.036 5.095 5.095 0 0 0 1.466-1.882 1.82 1.82 0 0 1-.258.025c-.069.325-.259.614-.534.81a1.41 1.41 0 0 1-.957.253 7.793 7.793 0 0 1-1.29-.248 1.223 1.223 0 0 1-.805-1.105c-.004-.131.01-.262.042-.389a27.671 27.671 0 0 1-4.526-1.763c-.04.073-.09.142-.145.205a.777.777 0 0 1-.293.222c.116.974.46 1.909 1.005 2.733a4.678 4.678 0 0 0 2.793 2.075 3.23 3.23 0 0 0 1.317.1zM15.226 25.486c.05-.116.118-.224.2-.322a.942.942 0 0 1 .207-.177 4.548 4.548 0 0 1 1.192-2.251 5.104 5.104 0 0 0-1.919 2.49c.095.1.202.187.32.26zM15.62 26.708a.396.396 0 0 0 .34-.178 1.28 1.28 0 0 0 .233-1.141c-.05-.138-.13-.225-.229-.243a.385.385 0 0 0-.35.137 1.254 1.254 0 0 0-.308.934c.003.08.019.16.047.236a.404.404 0 0 0 .266.255z" fill="#90949C"/>
    <path d="M24.045 27.95a.684.684 0 0 0-.444-.33l-.202-.042a19.47 19.47 0 0 1-.873-.19 1.108 1.108 0 0 0-.778.086c-.24.123-.423.328-.514.575.27.077.535.148.794.212.025-.111.042-.223.051-.336a.153.153 0 0 1 .054-.106.164.164 0 0 1 .224.014c.028.03.042.07.04.112-.012.13-.031.26-.06.388l.153.035.153.032c.046-.216.075-.4.077-.404a.153.153 0 0 1 .063-.098.163.163 0 0 1 .22.032.15.15 0 0 1 .03.112c0 .015-.032.199-.078.42l.303.053c.021-.11.036-.223.044-.336a.151.151 0 0 1 .052-.107.16.16 0 0 1 .114-.04.16.16 0 0 1 .11.05.151.151 0 0 1 .04.111 3.05 3.05 0 0 1-.046.369c.219.03.404.046.557.053a.905.905 0 0 0-.084-.665zM20.897 17.416a5.516 5.516 0 0 1-1.188 3.53c-1.35 1.308-2.46.355-2.473 1.668a4.34 4.34 0 0 0-1.268 2.29h.04a.51.51 0 0 1 .319.203 8.167 8.167 0 0 1 3.003-1.47 8.306 8.306 0 0 1 3.359-.153 3.587 3.587 0 0 1 1.595.721 5.196 5.196 0 0 0-2.68-2.11c-.267-.093-.732-.2-.732-1.036 0-1.56 1.758-.354 2.92-2.046.057-.084-.024-.156-.092-.09a2.976 2.976 0 0 1-1.666.573 1.366 1.366 0 0 1-.629-.1c.283-.536.606-1.05.966-1.539-1.074-1.044.73-6.786 5.525-6.786.01-1.056-.097-2.11-.32-3.142-.116.026-1.018.234-1.058.05-.04-.185.665-.518.913-.633a5.12 5.12 0 0 0-.472-1.17c-4.103 1.257-3.285 4.555-4.277 4.555-.52-.048-1.001-.287-1.345-.668-2.451-2.38-1.31-3.956-1.31-7.12 0-2.126-.852-2.927-2.425-2.927a2.85 2.85 0 0 0-1.14.11 2.792 2.792 0 0 0-.997.55c.295.01.586.076.855.196.27.119.51.29.712.5.2.21.356.458.458.728.1.27.146.557.132.844 0 2.303-2.67 2.938-2.67 5.859-.018 4.866 5.945 4.776 5.945 8.613zM18.053 2.949a3.207 3.207 0 0 0-.088-.766.54.54 0 0 0 .36-.194.511.511 0 0 0 .11-.385.838.838 0 0 0-.093-.437.867.867 0 0 0-.305-.333c-.068 0-.086.071-.232.071-.365 0-.385-.444-.385-.444h.164c1.026 0 1.975.303 1.975 2.491a19.351 19.351 0 0 1-.148 2.168c-.08.59-.119 1.185-.115 1.781 0 0-1.787-.204-1.787-1.51 0-.85.544-1.056.544-2.442zM21.95 28.558a19.566 19.566 0 0 1-.822-.218.961.961 0 0 0 .06.65c.098.213.279.38.502.465.4.11.807.188 1.22.232.25.022.5-.043.706-.184a1.03 1.03 0 0 0 .415-.585 6.867 6.867 0 0 1-.534-.053c-.035.11-.08.217-.138.319a.157.157 0 0 1-.097.071.159.159 0 0 1-.12-.015.159.159 0 0 1-.073-.093.15.15 0 0 1 .016-.116 1.38 1.38 0 0 0 .094-.214c-.098-.016-.197-.036-.295-.054a2.31 2.31 0 0 1-.114.34.153.153 0 0 1-.086.083.16.16 0 0 1-.206-.088.151.151 0 0 1 .003-.118c.037-.09.068-.184.092-.279l-.153-.033-.162-.037c-.03.09-.062.177-.102.276a.156.156 0 0 1-.087.082.162.162 0 0 1-.121 0 .158.158 0 0 1-.087-.083.147.147 0 0 1-.011-.06c0-.02.003-.04.011-.058a2.85 2.85 0 0 0 .089-.23z" fill="#90949C"/>
    <path d="M20.928 27.96c.114-.323.35-.593.661-.755.31-.162.673-.203 1.014-.116.407.099.668.15.86.188l.21.042a1.03 1.03 0 0 1 .648.479c.14.248.187.538.13.817a.61.61 0 0 0 .317-.07 4.956 4.956 0 0 0-.047-3.478 2.734 2.734 0 0 0-.896-.88 2.83 2.83 0 0 0-1.206-.398 7.95 7.95 0 0 0-3.259.161 7.816 7.816 0 0 0-2.9 1.453c.06.265.047.542-.04.8a27.097 27.097 0 0 0 4.508 1.758z" fill="#90949C"/>
</svg>
