<svg xmlns="http://www.w3.org/2000/svg" width="32" height="33" fill="none" xmlns:v="https://vecta.io/nano"><g fill="#a7a9b0"><path d="M25.3 15.927h.1v-.2h-.1v-.4h.1v.3c.2 0 .2 0 .2.2v1.4h-.1v.4h.3v1h-.2v.9c-.1 0-.1.1-.1.2v.6h-.2v-.3l-.2.3.2.2v.2c-.2.1-.2 0-.2-.1h-.3c.067.2.167.3.3.3v.4H25c-.1.2.1.4-.2.5v.2l-.3.3v.2c-.2 0-.1.2-.1.3l-.3.2c-.1.1.1.3-.2.3v.2l-.3.3v.2h-.2l-.2-.3v-.2H23l-.5-.5v-.2h-.2c0-.1-.1 0-.2-.2l-.2-.2v-.4h-.2v-.4h.2v-.3l.2-.2v-.2h.2v-.4c.2 0 .1-.2.2-.3h.1v-.2c.3-.1.1-.3.2-.5s.1 0 .1-.2v-.5h.1v-2.4h-.1v-.6c0-.1 0-.1-.1-.2h-.1v-.4c-.2 0-.1-.2-.1-.3h-.2v-.6h-.3v-.4l-.2-.2v-.3h-.2c-.1 0-.1-.1-.1-.2h-.2v-.3l-.5-.4h-.4l-.2-.3h-.2v.3h.1v.3H20a.3.3 0 0 1 0 .4c0 .1.1.2-.1.2v.3l-.3.2v.2h-.3l-.2.3h.1c-.1 0-.1.1-.1.2h-.2l-.2.2h.4v-.3h.4v.5h.3v.3h.2c.1.3.3.1.5.2H19c0 .2-.2.1-.3.1v-.3h-.2l.3.3h.4l.2.2h.1v-.3h.8c0 .2.1.1.2.1v.2h-1v-.2h-1l.3.3h-.4v1.8c0 .1 0 .2-.1.2v.4l.3-.2v.5c-.1 0-.2-.1-.2.1h.3v.6h.1v1.4l.3.3v-1h-.2v-.7h-.1v-.4h.2l.3.3h.1v.7h-.1v.3h.2v1.2h-.2l.2.2h-.2v.3h.2v1h.1v.5h.2v-.3l.3.3h.2l.2.2.4.4h.1v.2h-.2v.5c-.2-.1-.1-.3-.2-.4h-.2l-.2-.3h-.1c-.1.3-.1.3-.2.3v-.7h-.1v.3h-.2v-.2h-.3v-.2h-.2v-.2h-1v.7c0 .1 0 .2-.2.2v.4h.6v.3a.1.1 0 0 1-.1.1c-.1 0-.1 0-.1-.1h-.2v.3H18c-.1.1.1.1.1.1v.2h.2v-.5h.3l.2.2v.4h.5v-.2h.3v.2l.3.3v-.4l-.2-.2h.4v.3h.1c0-.2 0-.2.1-.1l.2.2v-.4h.2v.3h.3v.6h.4c0 .3 0 .3.2.3v-.3h.2l.2-.2v-.2h.6c0 .1 0 .2.1.1s.1-.3.2-.2v.3h.2v-.2l.3.3h.4l.2.3h.1v-.3h.7v-.3h.3v.2c-.1-.1-.2 0-.2.1h-.2l-.2.2c-.1 0-.2-.1-.2.1h-.4c.1.2-.2.1-.1.3h.3c.1-.1.3.1.3-.2h.3c.1-.2.3 0 .4-.1v-.2h.2l.2-.2.2-.2c0-.1.2.1.2-.2h.4l.2-.3h.2l.3-.2.4-.5h.2l.2-.2v-.3h-.1l-.2.3c-.1.1-.3 0-.3.2H27l-.5.5v.2h-.3c0 .2-.2.1-.3.2s-.2 0-.2.1h-.2v.2h-.3v-.3h-.3v-.3h-1.2c-.1-.2-.3 0-.5-.1v-.2h-.3v.2h-.3v-.2h-1.1l-.2-.2H21v-.3c.1 0 .1 0 .1.2h.7c.1.2.3 0 .5.1v.2h2.9l.2-.2h.8l.2-.2h.2v-.2h.4l.3-.3h.2l.4-.5h.2v-.3h.2c0-.2 0-.3.2-.3l.2-.2h.1c.067.2.167.3.3.3l.2.3.4.3v.2l.3.3-.3.2c0 .1-.1.1-.2.2l-.3.3c-.1 0 0 .1 0 .1s-.3 0-.2.2h-.3v.3l.2.3c.1 0 .1.1 0 .2h-.6v.3h-.5v.3h.1l.4-.3h.7v.4l-.5.4h-.2v.2h-.5l-.2.3h-.2l-.3.3v.7h-.6l-.2.4h-.2c0 .2-.2.1-.3.1h-.1l-.2.2H25v.2h-.6v.2c-.1 0-.3-.1-.3.1h-.3v.2h-.3c-.1.2-.3 0-.4.2h-.3c0 .2-.2.1-.3.1s-.2-.1-.2.2H22c-.2.1-.5-.1-.7.2H21c-.1.2-.3 0-.5.1v.2h-2.1v.1H16c0 .3-.3.1-.4.1h-.3v-.4H19v-.2h2.2c0-.2.2-.2.3-.2s.2.1.2-.1h.4c0-.1 0-.1.1-.2s.3.1.5-.1h.2v.1h.3c0-.2.2-.1.2-.1s.3 0 .2-.1h.3v-.2h.2v-.2h.4v-.2h.3c.1 0 .3.1.3-.1h.3v-.2h.6l.2-.2h.2v-.2h.2v-.3h-.2l-.2.2h-.8v.3h-.3l-.3.3c-.1.1-.3-.1-.3.2h-.2l-.3.3h-.6l-.3.3h-.3c-.1.3-.2.2-.3.2v-.3c-.2 0-.1-.2-.1-.3h-.2v-.4l-.3-.2v-.5c.1-.1.3 0 .3-.2h-.4l-.3.2h-.7v.2h-.5c-.1.1-.4 0-.6.2h-1.1v.2h-6.9v-.2H11c0-.2-.2-.1-.3-.1s-.2 0-.2-.1h-.7v-.2h-.4c-.1-.3-.3-.1-.5-.2h-.3c0-.2-.1-.2-.2-.2h-.7l-.2-.2c-.1 0-.2.1-.2-.1h-.5v-.2c-.1-.1-.3.1-.3-.2h-.3l-.2-.2h-.5v.2h.3l.3.3h.2v.2c.1 0 .3-.1.3.1h.2c0 .2.2.1.3.2h.8c0 .3.1.2.3.2h.4c0 .3.2.1.3.2v.7h-.2v.9c-.2 0-.1.2-.1.3h-.3l.2.2h.2c.1.3.3.1.4.2H11v.2h1c0 .1.1.1.2.1h.8c-.1-.2-.3 0-.5-.1H12v-.2H9.7v-.2H8.2c-.1-.1-.3.1-.4-.2s-.3.1-.3-.1h-.2v-.2h-.8c-.1 0-.3.1-.3-.1h-.3l-.2-.3h-.3l-.3-.3h-.2v-.2h-.6l-.3-.4v-.5h.1v.3h.5v.2h.2c.1.1 0 .2.2.1v-.2h-.4v-.2h-.3v-.3h-.2l-.3-.3h-.3v-.2h-.4l-.2-.3h-.2l-.3-.4h-.1v-.7l.3-.2c-.1 0-.1-.1-.1-.2l-.3-.2-.2-.6h-.2l-.3-.3h-.1l-.2-.2v-.3H1v-.4h.2c.1 0 .1-.1.1-.2s.1 0 .1-.1v-.2h.2l.3-.4.3-.3h.2l.2.2v.3h.2v.5h.3l.2.4h.3c0 .2.2.1.2.1l.4.4h.2l.2.3h.5l.2.3h.6l.2.2v.2c-.2 0-.1.2-.1.3h1.2c.1.2.1.2.2 0h1.3v-.2h.6c.1-.2.3-.1.5-.1v-.3h-.5s-.2.1-.1-.1h-.3l-.2-.2h-.2v-.3h-.3l-.2-.3h-.2l-.4-.3v-.3l-.2-.2-.3-.3h-.1v-.2h-.1v-.2h.1v-.2h-.1v.2h-.2v-.3h-.1v-.2h-.3v-.3h-.2v-.3c-.2 0-.1-.1-.1-.2s0-.2-.1-.2v-.6h-.2v-4.4c0-.1 0-.1.1-.2v-.5h.1c.1-.2-.1-.5.2-.6v-.3c.3 0 .1-.3.2-.4h.1v-.4l.3-.2v-.4h.1l.3-.3v-.2l.3-.2v-.3c.2 0 .3-.1.3-.2l.2-.2c.1 0 .1-.2.2-.2h.3v-.2l.2-.2.3-.3H9l.2-.3h.4l.3-.2c0-.1.2 0 .2-.2h.3v-1.2h.2v-1.8h-.2v1.1h-.1v-2.7c.2 0 .1-.2.1-.3l.3-.3h.2v-.2l.3-.4.3-.2v-1.4c.1-.1.1 0 .1.1v1h.2v1.2c.1 0 .1.1.1.2v1.9h-.2v-1h-.1v-.2h-.1a.2.2 0 0 1-.2.2l-.2.2v1.2h.2v.3c.3.2.1.4.1.6l.2.2h.4v-.3h1.8l-.2.3h-.1c0 .3 0 .3-.1.3v-.3h-.9c0 .2-.2.1-.3.2v.4l.2-.2h.3v.2h.6v.4c-.1 0-.1.1-.1.2h.1v.5l.3.2v.3l.2.2h.1v1h-.3v-1.2h-1l-.3.3v.5h-.1v-1.1H12v.8h-.7v.2H11l-.2.3h-.2l-1.1 1-.2.3-.3.3h-.1v-.2h-.2v.2h.2v.4h-.1l-.2.2v.2h-.1v.3h-.2c0 .1.1.3-.1.3v.3c-.3.1-.1.3-.2.5h-.1v.5h-.1v2.4c0 .1 0 .2.1.2H8v.4h.1v.4c0 .1.1.1.1.2h.1v.2l.3.3v.2h.2v.2l.3.2v.2l.3.2.2.3h.4v.2l.3.2c-.1-.1.2-.3-.1-.4v-.7H10v-1.5h.2v.4l.3.2v-1.4c0-.1.1-.1.1-.2h.2c0 .2.1.1.1.1v-.2c.3 0 .1-.2.2-.3h.1v.2h.1v-.2h-.2v-.3h.3v-.2h-.7v.3h-.1v-.3h-.1v.3h-.1l-.3-.3h.4l.2-.2h.8c0-.013-.003-.026-.008-.038a.1.1 0 0 0-.054-.054c-.012-.005-.025-.008-.038-.008h.2v-.2h.4v-.3h.2v-.3h.2v.3h.3v.2c-.2 0-.1.1-.1.2h-.2c-.1.2.1.4-.1.5v.2H12v.6h.2v-.2c.2-.2 0-.4.1-.5h.3v.2l-.2.2h.4v-.8h-.2v-1.3h.2v.3h.1l.2-.3.3-.2v-2.6h.1v-.5h.2v.7h-.1v1l.3.4h1.4v-.2l.3.3v-.2c.2-.1.2 0 .2.1h1.3v-.3h.7l.2-.2h-.5l.3-.3v-.8h.2v.7l.3-.2v.3h.3l.3-.3v-.5h.1l.2-.2v-.2h-.5l.2-.2v-.8h-.5v-.2h.2v-.8h-.3v-.5c0-.1 0-.2-.1-.1v.9H18v-.2h-.3v.2h-.1v-.2h-.3l-.2.2v1c-.1 0-.2 0-.1.1h.7v.2h.2v.3h-.2l-.2-.2v-.2H17v.6h-2.6v-.2c-.2 0-.1-.1-.1-.1h.7v-.7h-.1v-.4h-.6v-.2h.4.1l.2-.2v-.4h.3v.2l.3.3v.7h.1v-.2h.1v.6h.5v-.7h-.4v-.5l.3.3h.7v-.5h.1v-.3h.2v-1h.2v.3c.2 0 .2-.1.1-.3h-.3v-.9h-.1v.3H17v-.6h-.2v.3h-.2l-.4.3v.3H16v.6h-.4v.7h-.1v-.9h.4c0-.1 0-.1-.1-.1h-.3v-.4h-.2v-.2h.2v-.3h-.2v.2h-.1v-.2h-.7l-.2-.4v-.9l.4-.3c0-.1 0-.2-.1-.2h-.2v-.4l-.2-.2h.1v-.6c.1-.1.4.1.5-.1h.8c0 .3.2.1.3.2h.1v-.8h-.2v-.2h-1.1v.2h-.6v-.6c.2 0 .2 0 .2.3h.3c0-.2.1-.1.2-.2h.1v-.2h.5v-.2c.1 0 .1 0 .1.3l.3-.2v.3h.5v-.7H16l-.3.3v-.8h-.5l-.2-.2c0-.1-.1-.1-.1-.2h-.1v-.4l-.3-.3v-.2h-.2v-.3l.3.2v.2l.3.2c.1.1-.1.3.1.3v-.6c-.1 0-.1-.1-.1-.2v-.4c.3 0 .1.2.2.3h.1v.6c.2 0 .2-.1.2-.1v-1.5c0-.1 0-.2.1-.2v1.2h.1c.1 0 0-.2.2-.2v-.2c.2 0 .2-.1.1-.2v-.3h.3l.2.2h-.1v.3h-.1c0 .1.2.3-.1.4v.4H16v.3s.1.1.1-.1l.3-.2v.8l-.3.2v.2h.4l.3.3h.2l.3.4c.1.1-.1.3.2.4v.3c-.2 0-.2 0-.2.1v.4h-.1v1c-.3 0-.2.2-.2.3l-.5.4h-.1v.4h.2v.3c.1.1.4-.1.4.2h.3c.1.2.3 0 .5.1v.2h1.6v.2h.3c0 .2.1.1.2.1s.3 0 .3.2h.5l.4.4h.2l.2.3h.2l.4.4.3.2h-.2l.2.3h.6l.4.5.4.3v.2l.3.3v.2l.3.2c.1.1-.1.2.1.3v.4h.2v.7l.4.2v.3h-.2v1.1h.3v.8c-.1 0 0 .1 0 .2h.3v-.3l-.2.2h0zm-1 11.5h.4v-.3h.4v-.3c.2-.1.3.1.4-.2h.4v-.3h-.3v.2h-.4c-.1 0-.1.1-.1.2h-.4v.3h-.4v.2h-.4c.1.2.2.1.4.1v.1zm.1-13.1c-.3-.1-.3-.1-.3.1h.3v.3h.3v-.3l-.3-.1zm-.3 6.8h.5l-.3-.3h-.4c-.1 0-.1.1-.1.2h.3v.1zm-21.9 3.6v.2h.2v-.2h-.2v-.4h-.1v.2h-.2v.3l.3-.1zm9.4-6.1h.1l.2-.2v-.4h-.1a.4.4 0 0 0-.1.3h-.1v.3h-.2v.6h.2v-.6zm11.3-3.9v.3h.3l-.2-.3h-.1v-.6h-.3v.6h.3zm-4.6 6.6c-.3-.1-.3-.1-.3.1h.3l.2.3h.2l.2.2v-.4h-.3v-.3h-.3v.1zm-7.3-2.5h-.2v.2h-.1v1l-.2.2h.2v.8l.3-.2a.1.1 0 0 0-.1-.1h.1v-.7c0-.1 0-.1.1-.2v-1.1h.1c0-.4 0-.4-.1-.4v.4l-.1.1zm1.6 8h.5c.3 0 .3 0 .3-.1h-.8v-.2h-.3v.2h-.4c-.133.2-.233.3-.3.3 0-.3 0-.3-.2-.3v.4H11v.3h-.1v-.2h-.7v-.4h.4v-.6h.5v-.3h.4c0-.2.2 0 .3-.1h.4l.2.2v-2.4l-.2-.2H12v.7c-.3 0-.1-.2-.2-.3h-.1v.3h-.5v.5c-.1.1-.4-.1-.5.2h-.2v.5c-.3-.1-.1-.3-.2-.3H10v.2h-.2v.3h-.6c0 .1 0 .2-.2.1v-.2h.2c-.1 0-.1-.1-.2-.2v.2h-.3c0-.1.1-.2-.1-.1v.2h-.4v.3l-.3-.2v.6c-.2 0-.2.1-.2.2H8v-.4h.1c0 .1.1.1.1.2v.4h.2c.1.1.1.1.1.2v.7h.2v-.7h.2c0 .3 0 .3.1.2v-.7h.2v.4l.3-.2h.4v.7h-.3l.2.2h.4c0-.3 0-.3.1-.2v.8c.2-.1.2 0 .2.1h.2v-.1h.4l.3-.3h.2v-.3a.1.1 0 0 1 .1.1h.2l-.2.2h-.2l-.3.4H11v.2h.4c0-.1 0-.1.1-.2h.7c0-.3.3-.1.4-.2v-.3h.3v-.6h-.3v-.2zm4.2.1h.1l.2-.2v-.2c.1 0 .1-.1.1-.2v-1.2h.2v-2.2h-.2c0 .3 0 .3-.1.3v-.4c.1 0 .1-.1.1-.2h-.3v.9h-.1v3.4h-.2v.3c-.1 0-.2 0-.1.2h.3v-.5h0zm.6-7h.1v-1.3c0-.1 0-.2.2-.2v-1h.3v-.4h-.3v-.7h-.1c0 .1-.1.1-.1.2v.7h-.1v.8h-.3v.3l-.3-.2v2.8h.2v.5c.2-.1 0-.2.1-.3s.1 0 .1.1h.2c0-.1-.1-.3.1-.3v-.4c-.1 0-.1-.1-.1-.2v-.3-.1zm-4 .4v.2h.1v.3h.2v-1.4h.4v-.2c-.1 0-.2-.1-.1-.2h.1v-.7l.3-.2v-.7h-.1v-.4c-.2 0-.2-.1-.2-.2v-1.5h-.2c0 .1-.2 0-.2.2h.2v.4h.2v.5h-.3v.6h-.2v.7h-.3v2.6h.1zm2.6.1h.2v-.3h-.3l-.2-.2h-.1c0 .3 0 .3-.2.2v-.4h-.5c-.1.2 0 .4-.2.4s.1.3-.1.3v.2h-.2c0 .3 0 .3-.1.4v.3l-.2.2v.5h.3l.3-.2h.3v-.2h1v.2l.4.4v-.2h.4c.1.2.1.2.2.2v-.3h-.3v-.2h-.3v-.5l-.3-.3h-.2l.1-.5zm0-3.6v.8h.2v-.8h.2v.6l.2.2h.2c.1-.2 0-.3.2-.4v-.2h.1v-.2c0-.1.1-.3-.1-.3v-.6c-.3 0-.1-.2-.2-.3h-.2c.3 0 .3 0 .2-.1h-.4v.2h-.6v.3h-.1v-.3h-1v.3c-.2 0-.1-.1-.1-.2v-.2h-.2v1h.2v.4h.1v.2l.2.2h.4c0-.2 0-.2.1-.2v.2h.3v-.4l.3-.2zm-5 4.9v.2l-.4.3v.6h.3c.1 0 .2 0 .2.2h.6v-.3h.1l.2-.3h.2l.2-.3h.1v-.2l.2.2h.3c.1.3.1.3.2.2v-1.5h-.1v-1.3l-.4.2v2h-.1v-.7H12c.1 0 .2 0 .1-.2h.2v-.2h.3v-.2c-.1 0-.3-.1-.3.1h-.6v.2h-.3v.3h-.3v.8l-.1-.1zm7.9 4.4h-.1l-.2-.2v.3h-.3v.2h-.8v1h.3v.4h.1v.2c.1 0 .2 0 .2.1h.2c0 .3.2.1.3.2h.4v.2h.3v.4l.2.2h.1v-.4h.3v-.7h.4c.2 0 .2 0 .2-.2h-.4v-.5l.2.2h.7v.3h.4l.2.2v.2h.6v-.2h.1v-.7h-.2v.5l-.2-.3h-1.1v-.3h-.4c-.2-.1-.3.1-.4-.1h-.4v-.4H19l.2-.3H19v-.2l-.1-.1zm-4.9-1.4v.6h.1v-.3h.5c0-.3 0-.3.1-.3v.6c.2.1.1-.1.2-.2h.1v.2h.5v-.2h.1v-.5h.2v.2l.2-.2h.2c0 .1 0 .1.1.1v-1.9H16v.2h-.4c-.1.1 0 .3-.2.2v-.4h-.6v.2l-.2-.2h-.5c-.1.2.1.1.1.2v.6h-.1v.4c-.3 0-.1.2-.2.3h-.1l.3.2-.1.2zm1.2 2.8v.3h.3v-.5h.7c0-.1.1-.1.1-.2s.1-.1.1-.2h.1v-.9h-.6a.1.1 0 0 0-.1-.1h-.4v-.2h-.2-.2v.2l-.3-.3h-.4v.3l-.3-.2v1.1h.2v.8h.2v-.3h.6c.1-.1-.1-.3.2-.3v.5zm-2.3-1.9h.2v-1.9h-.2v.3h-.2l-.2.2v.8c-.1 0-.1.1-.1.2v.4h.1v.2l.2.2h.3c-.1-.1.1-.3-.2-.3v-.1h.1zm.6 2h-.1v.2h.3c0-.1-.1-.2.1-.1v.6h.2v-1c-.1 0-.1-.1-.1-.2h-.1v-.8c-.1 0-.1-.1-.1-.2v-.9h-.2v1.5c.013 0 .026.003.038.008a.1.1 0 0 1 .054.054c.005.012.008.025.008.038h0v.2a.1.1 0 0 1 .1.1h-.1l-.1.5zm-6.1-.2c0 .1.1.2.5.1s-.3-.1-.3-.2H7l-.2-.3h-.2c-.1-.3-.3-.1-.3-.2l-.3-.3h-.2v.5h.5v.2h.3c.1.1.3-.1.3.2h.5zm7.4-21h.5c.2 0 .3-.1.3.1h.3v-.4c-.1 0-.3.1-.3-.1h-.9c0 .2-.2 0-.3.1v.3h.2c0-.1 0-.1.1-.1l.1.1zm.1 1.9l.2.2v-.3h.2v.3h.1v-.2h.4v-.4c.2 0 .2-.1.1-.2h-.2v.2h-1v.3c.2-.1.1.1.2.1h0zm4.3 14.3v-.4h-.3l-.2-.3h-.3l-.3-.4H18v.5c.1-.1.1 0 .2.1h.2v.2h.3a.7.7 0 0 0 .5.4v-.1zm-.8-2.7v.5h.2v-.8l-.3-.2v.3h-.1v.3l.2-.2v.1zm-6.7-10.8h-.3v.3h.5c0 .3 0 .3.1.3v-.6h-.2-.1zm6.6-.2h-.5l.2.3h.1v.5a.3.3 0 0 0 .3-.3h-.1v-.5zm-8.1 11.9v.8h.2v-1.3c-.2 0-.2 0-.2.2h-.1c0 .1.1.1.1.2v.1zm4.6-13.6h.5v-.3h-.1c-.1 0 0-.2-.2-.3v.3h-.2v.2.1zm2.7 20.8v-.3h-.4v.2l.4.4v-.3zm-2-20.7h.4v-.4h-.3v.4h-.1zm-2.1 9.8v-.7c-.2-.1-.2 0-.2.1s-.1 0-.1.1h.1v.4l.2.1zm-8.8 8.5c0 .2 0 .2.3.1h-.2v-.2h-.4v.3l.3-.2zm18 2.4h.6v-.3h-.3c0 .3-.2.1-.3.2v.1zm5.8-4.4l.3.2c0 .1 0 .2.2.2v-.3h-.1v-.2l-.3-.2-.1.3zm-2.8-5.2v-.4h-.3v.4h.3zm-2.4-2.4h.3v-.4h-.3v.4zm1.8.7v-.4l-.3.2v.5c.1 0 .1-.1.1-.2s0-.2.2-.1zm-.8-1.1v-.4h-.3l.2.2v.2h.1zm-6.6 6.1h-.2v.2h.4v-.4l-.2.2zm-12.3 4.3v-.1.1zm18.9-11v-.4h-.3l.2.2v.2h.1zm-6.2 5.4v.3h.1l.2-.2v-.3l-.3.2zm7.3-1.6c-.2 0-.2-.3-.3-.2v.3h.1c0 .1 0 .2.2.1v-.2h0zm-6.3-6.5l.3-.3v-.3l-.3.2v.4zm-2.7-6.5v-.5h-.1v.5h.1zm7.9 16.4h-.3a.1.1 0 0 1 .1.1h.2v-.1zM19 9.527v-.4h-.1v.4h.1zm.8-.1h-.2v.4h.2v-.4zm-2 13.2v-.4h-.1v.4h.1zm.6 6.4h.1c.1 0 .1 0 .1-.1s.1-.1.1-.2h-.3v.3h0zm5.5-12.6h.4v-.3h-.2l-.2.3zm.8-2.5h-.3l.2.2h.1v-.2zm-1 1.3h.2v-.2h-.3l.1.2zm1 0c0 .1.2.3.3.2v-.2h-.3zm-15.3 12.3h-.2v.2l.2-.2zm-3.2-9.2v-.5c-.2.1-.1.3-.1.4s0 .1.1.1zm-.1-1.6c.1 0 .1-.1.1-.5s-.1 0-.1.5zm18.4 1v-.4c-.1 0-.1 0-.1.3l.1.1zm-18.7 1.5c0-.4 0-.5-.1-.4s-.1.4.1.4zm18.5-2.7v.3h.2v-.3h-.2zm-.4 1c.1-.4.1-.4-.1-.4s0 .4.1.4zm-4.1-6.8h-.2v.3h.2v-.3zm9.2 13.4v.3h.2v-.3H29zm-11.6-1.9h-.2v.3h.2v-.3zm6.4-4h-.2v.2h.2v-.2zm.7 3.9v.2h.2v-.3l-.2.1zm-17.6-5.4v-.2h-.2v.2h.2zm17.3 5.3v-.3h-.1v.3h.1zm.3-.4v.3h.2v-.3h-.2zm-17.4-3.5v.3h.2v-.3h-.2zm17 3.5h.3v-.2h-.3v.2zm-8.5-2.1h.2v-.3h-.2v.3zm9.8 0v-.3h-.1v.3h.1zm-21.9 5.2v.3h.2v-.3h-.2zm20.1-8.3v.3h.2v-.3h-.2zm-9.5 9.3H14v.3h.1v-.3zm-8.2-5.6v.3h.2v-.3h-.2zm8.5-12.5v.3h.2v-.3h-.2zm9.4 8.3v-.3h-.2v.3h.2zm-4.3-6.4v-.3h-.2v.3h.2zm-3.5 8.6h.2v-.2H16v.2zm5.3-6.2h.1v-.3h-.1v.3zm1.6.9h-.3v.2h.3v-.2zm-5.4 2.2v.3c.2.1.2 0 .2-.1s0-.2-.2-.2h0zm-11.3 14.4h-.3c0 .1 0 .1.3 0zm12.5-20.5v-.3c-.1 0-.1 0-.1.2s-.1.2.1.1h0zm6.8 7.5c-.1.3-.1.3.1.2s0-.2-.1-.2zM7 19.327c.3.1.3.1.3-.1s-.3 0-.3.1zm13.4-9.9v.3c.1 0 .1-.1.1-.2s0-.2-.1-.1h0zm-7.6 18.7c0 .2 0 .2.2.2s.1-.1.1-.2h-.3zm-6.5-14.1c-.1 0-.1 0-.1.2s0 .1.1.1v-.3zm9 5c.2 0 .2 0 .2-.1s-.1-.2-.2-.1v.2zm8.5-5.1c0 .3 0 .3.1.2s0-.2-.1-.2zm-16.3 12c-.2 0-.1.1-.1.2h.1v-.3.1zm13.2-16.4c0 .3 0 .3.1.3s.1-.3-.1-.3zm-13.9 16.5c.2 0 .1-.1.2-.2s-.1 0-.1-.1h-.1v.3zm3.3-3.1c.2 0 .1-.2.1-.3s-.1 0-.1.3zm3.7.3c0-.3 0-.3-.1-.3s0 .3.1.3zm9.1-7.7h.3c0-.1 0-.2-.1-.2s-.2 0-.2.2zm-10.3 7.8c.2 0 .2 0 .1-.2s-.1 0-.1.2zm-4.9 3.5c.3 0 .3 0 .3-.2s-.3 0-.3.2zm14.2-14.3c-.3 0-.3 0-.3.2s.2 0 .3-.2zm-10.6-7.7c0 .3 0 .3.1.3s0-.3-.1-.3zm-1.5 19.3c.1 0 .1 0 .1-.2h-.1v.2zm13.4-7.3c.3 0 .3 0 .3-.1s-.3 0-.3.1zm-3.9 11.9c0-.3 0-.3-.1-.3s0 .3.1.3zm-5.4.3v-.3c-.1 0-.1 0-.1.1s0 .2.1.2zm1.9-11c-.1.3-.1.3.1.3s.1-.3-.1-.3zm5.3-7.3v-.3c-.1 0-.1.1-.1.2l.1.1zm-.3-.7c-.1 0-.1 0-.1.2s.1.1.1-.2zm-8.2.3c0-.3 0-.3-.1-.3s-.1.2.1.3zm10 3.5c.3 0 .3 0 .3-.1s-.3-.1-.3.1zm1.3 5.1c.2 0 .2-.1.2-.2h-.2v.2zm-5.7.4c.2 0 .1-.1.1-.2s-.1.1-.1.2zm-6.2 6.9c-.1 0-.2-.1-.2.1s.2.1.2-.1zm.9-3.4v-.2h-.1v.2h.1zm-4.6-.2v.2h.2v-.2h-.2zm3.4-2.4c.1-.1 0-.1-.1-.1h.1v.1zm13.3-.4c-.1.1 0 .2.1.1H25v-.1zm-9.4 7.7v.2h.1v-.2h-.1zm8.2 0h-.2v.2h.2v-.2zm-11.6-8v-.2H12v.2h.2zm-6.3-.2v.2h.2v-.2h-.2zm17.6-.4h-.2v.2h.2v-.2zm-7.9 0v.2h.2v-.2h-.2zm-6.1 9.7h.2v-.2h-.1l-.1.2zm15.5-10.5c-.1.2 0 .2.1.2v-.2H25zm-1.5-2.9c-.1-.1-.2 0-.1.1h.1v-.1zm0-.3v-.2h-.2v.2h.2zm-.2-1.8v.2h.2v-.2h-.2zm-1.6-.3c0 .1 0 .2.2.1h-.2v-.1zm-12.8.2v-.2h-.2v.2h.2zm12.4-2.1h.1v-.2h-.1v.2zm-12-.2c-.1 0-.2 0-.1.2h.1v-.2zm12.4-.3c.2.1.2 0 .2-.1h-.2v.1zm-8.8 0c.1-.1 0-.2-.1-.1h.1v.1zm-2.4-3.4c-.1 0-.1 0-.1.2h.1v-.2zm5.5-.3c.2 0 .2 0 .2-.1H16v.1z"/><path d="M20.5 15.927h.2v-.2h.4c0-.2.2-.1.3-.1v-.2h-.3c0-.1-.1-.2.1-.2h.3l.3.3v.2h-.1v.5h.1v-.6h.1c.1.1 0 .3.2.3v2.3c0 .1 0 .2-.1.2v.7c-.3.1-.1.3-.2.4h-.1v.5h-.1v.2h-.1v.3l-.3.2v.2c-.2.2-.4.2-.5.5h-.1v.2l-.4.4v.2h-.1v.3c-.2.1 0 .4-.2.5h-.1v-.6h.2v-.8h.1v-.2H20v-.6h-.2c0-.1.1-.2-.1-.2v-.2h.4l.2-.2v-.2l.3-.2v-.3c.2 0 0-.2.1-.3h.2v-.3h.1v-.4h.2v-.4c.1 0 .1-.1.1-.2v-.2c0-.1 0-.2.1-.2v-1.7h-.9v.1zm1 2.4h-.1v.7a.1.1 0 0 1 .1.1c0-.3.1-.5 0-.7s0-.1 0-.1zm.5-1v-.5c0-.2-.1-.1-.2-.1v.3h-.1l.2.2c0 .1 0 .1.1.1zm-.1.1c-.1.5-.1.5.1.5s0-.5-.1-.5zm-2 3.6c.2 0 .1-.1.2-.2s-.1-.1-.2-.1v.3zm1.7-3.6c-.3.1-.1.2-.2.3l.2-.3zm.1.7v.2h.2v-.2h-.2zm-2.2 11.9c.1-.1.3.1.3-.1h.5v-.2h1.1v.5h-.1v.3H21v-.3l-.2.2h-.9v.2l-.2-.2h-.4c0 .1-.1.1-.2.1h-.5v-.3h-.2v.4h-.5v-.7h.6c0-.1.1-.1.1-.2h.5c.1 0 .2-.1.2.1h.2v.3c.1 0 .1 0 .1-.3l-.1.2zm-.8.2c0 .4 0 .5.2.4s0-.4-.2-.4z"/><path d="M11.5 30.227v-.2h.1v.2h.3c.1.3 0 .6-.1.6v.4h-.5v-.2h-.5c0-.2-.2-.1-.3-.1v-.2h-.1c-.2.1-.2.1-.3-.1h-.7v-.5h.2v-.4h.2c0 .1.1.2-.1.3v.4h.4v-.2h.9c0 .2.2.1.3.2h.1l.1-.2zm5.6.2v-.3h.3c.1.1-.1.4.1.6v.2c-.1.1-.3-.1-.3.2h-.5l-.2-.2c-.1 0 .1-.2-.2-.3v.5h-.7c0-.2-.2-.1-.3-.1v.2h-.1v.2h-.1v-.4h-.2v-.5h2.2v-.1z"/><path d="M12.3 30.527h.2v-.5h.6v.5c.1.1.1-.1.1-.1h1c.1-.1-.1-.3.2-.4v1.1h-1.1l-.2-.2v.2c-.1-.1-.3.1-.4-.2h-.4v-.4h0zm1.9.5c.1-.3.1-.3-.1-.3s-.1.2.1.3zm-1.6-.8c0 .1 0 .1.1.1h-.1v-.1zm.9.5c-.1 0-.1 0-.1.3s.1-.1.1-.3zm-2.2-29.3v-.2h-.2v-.3c-.2 0-.1-.2-.1-.3v-.4h.3c0-.1 0-.3.1-.2v.3c-.2.1-.1.3-.1.5h.1v.5l-.1.1z"/><path d="M11.3 1.427v.2c.1.1.1.1.1.2v.8c0 .1 0 .1-.1.1v-.7h-.2v-.6h.2zm8.5 13.2l.2-.2c.1-.1.1-.2.2-.1v-.3h.3v.3h-.4v.2l-.3.1zm-6 17.1h.2v.3h-.1v-.3h-.1zm6.4-17h.1v-.2h.4v.2h-.5zm-8.3-7.4h.1v1h-.1v-1zm3.6 2.5h-.3v-.6h.1v.5h.2v.1zm5.5 4.5v-.2h.6c-.2.1-.3-.1-.4.2H21z"/></g><path d="M25.1 14.927H25v.2h-.1v-.4h.3v.2h-.1z" fill="#fff"/><g fill="#a7a9b0"><path d="M20.2 14.727v.3h-.1v.2H20v-.2h.3l-.1-.3zm1.2-.1v-.3h.3l-.3.3zm-4.9-3.7v-.3h.1v.3h-.1zm-1.5 20.8v.3h-.1v-.3h.1zm4.5-15.9h-.3v-.2h.3v.2z"/><path d="M14.1 4.027c.2 0 .2.1.2.2s0 .2-.2.1v-.3zm6.4 11.2h-.3v-.2h.3v.2zm6 8.8v-.2h.1v.2h-.1zm-22.7-.3v-.2H4v.2h-.2zm5.1-7.2h-.6c-.1-.2.1-.1.2-.2v-.4h.4v-.3h-.5c-.1 0-.1 0-.1-.2H9l.2-.3h.2l.2.2v.3h.1l.3-.3h.1v.3h.2v.3h.2v-.2h.2v.2h.3v.3h.3v-.3h.2v.3h.3v.5h-1.1c0 .1 0 .2-.2.2v-.5h-.1v.6h-.9v-.4l.3.2v-.3h.3l-.2.2h.3v-.6c-.1 0-.2-.1-.3.2h-.5c-.1.2-.3.1-.5.1v.1zm2.1 0h-.3v.2h.3v-.2h.3c-.1-.2-.2-.1-.3-.1v.1zm-1.7-.5h.2v-.6h-.3v.2h.1v.4zm.6-.2h.2c0 .1-.1.3.1.3v-.5h-.3v.2zm.5.1v.3h.1v-.3h-.1zm1.9-4.1h.2v.8c0 .1 0 .2.1.2v1.6c-.1.1-.1 0-.1-.1v-1.3h-.2v-1.2z"/><path d="M11.9 15.927c-.1 0-.2.1-.2-.1s-.1 0-.1-.1l-.3-.3h.6v.5z"/><path d="M10.7 15.627h-.1v-.2h.1v.3h.3v.3h-.1v-.3l-.2-.1zm2 .3h-.1v-1h.2v1.1l-.1-.1zm-3.8.6v.2h-.4v-.2h.4zm3-.6h.3v.3h-.3v-.2-.1zm-1.8 3.6v-.4c.2 0 .2 0 .1.4h-.1zm9.4-3.1c-.1 0-.3.1-.3-.1l.3.1zm-.6 2.8h-.2v-.2a.1.1 0 0 1 .1-.1h.1v.3zm-6.6 7.3h.2v.3h-.1v.3h-.1v-.6zm-3.8 0h-.2v-.2h.2v.2zm16.3-.9c-.1 0-.1 0-.1.2h-.2v-.3l.3.1zm-12.9-4.8c0 .1 0 .2-.1.2h.2v.2h-.4l-.2-.3.2-.2.3.1zm-.9.9h.1v-.2h.1v.3l-.2-.1zm7.1-10.6h.3v.3h-.2l-.1-.3zm.5 2c.1 0 .1 0 .1.3s-.1 0-.1-.3zm-1.2-.8c0-.1-.1-.2.1-.2s.1.2-.1.2zm-3.6 4.5h.2c-.1.1 0 .3-.2.3v-.3zm3.6 3.1h-.2v-.2h.2v.3-.1z"/></g><g fill="#fff"><path d="M9.3 16.127v-.3h-.1v-.2h.3v.6h-.2v-.1zm.6-.3v-.2h.3v.5c-.2 0-.1-.2-.1-.3h-.2zm.8-.2h.3v.3h-.3v-.3z"/><path d="M11 15.928h.3v.3h-.1l-.2-.3zm0 .6v.2h-.3v-.2h.3z"/><path d="M10.4 15.928h.1v.3h-.1v-.3zm.6.6c.1 0 .2-.1.3.1l-.3-.1z"/></g></svg>