<?xml version="1.0" encoding="utf-8"?>
<!-- Generator: Adobe Illustrator 26.1.0, SVG Export Plug-In . SVG Version: 6.00 Build 0)  -->
<svg version="1.1" id="Layer_1" xmlns="http://www.w3.org/2000/svg" xmlns:xlink="http://www.w3.org/1999/xlink" x="0px" y="0px"
	 viewBox="0 0 25 24" style="enable-background:new 0 0 25 24;" xml:space="preserve">
<style type="text/css">
	.st0{fill:#ED1B32;}
</style>
<g>
	<path class="st0" d="M24,12v6.1c0,0.7-0.1,1.4-0.3,2.1c-0.2,0.8-0.6,1.5-1.2,2.1c-0.5,0.5-1.1,1-1.9,1.2c-0.4,0.2-0.9,0.3-1.3,0.3
		C18.6,24,17.7,24,16.9,24H5.7c-0.9,0-1.9-0.2-2.7-0.5c-1.2-0.5-2.1-1.5-2.6-2.7c-0.2-0.4-0.3-0.9-0.3-1.4c0-0.5-0.1-1-0.1-1.5V5.7
		C0,5,0.1,4.2,0.3,3.5C0.8,2,1.9,0.9,3.4,0.3C3.9,0.1,4.5,0,5,0h13.2c0.9,0,1.8,0.2,2.6,0.5c0.5,0.2,1,0.5,1.4,0.9
		c0.6,0.5,1,1.1,1.3,1.9c0.1,0.4,0.2,0.8,0.3,1.2C24,5,24,5.7,24,6.3L24,12L24,12z M19.7,11.2c0-0.2-0.1-0.5-0.2-0.7
		c0-0.1,0-0.2,0-0.3l1-1.9c0.4-0.8,0.1-1.7-0.7-2.1C19.6,6,19.3,6,19,6c-0.4,0-0.8,0.1-1.2,0.2l-3.6,0.5c-0.1,0-0.3,0-0.4-0.1
		L9.7,4.3C8.8,3.8,7.7,4.1,7.2,4.9C7,5.3,6.9,5.7,7,6.1c0.1,0.5,0.1,1,0.2,1.5c0,0.1,0,0.2-0.1,0.2L4.6,8.1c-0.4,0-0.7,0.2-0.9,0.5
		c-0.6,0.6-0.5,1.6,0.1,2.1l4,4c0.1,0.1,0.1,0.2,0.1,0.2c0.1,0.6,0.1,1.3,0.2,1.9c0.1,0.5,0.1,0.9,0.2,1.4c0.2,1.2,1.3,1.9,2.5,1.7
		c0.2,0,0.3-0.1,0.5-0.2c0.3-0.2,0.5-0.3,0.8-0.6c0.1-0.1,0.1-0.1,0.2,0l0.3,0.3c0.6,0.6,1.6,0.6,2.2,0c0.1-0.1,0.2-0.2,0.3-0.4
		c0.8-1.6,1.6-3.2,2.4-4.7c0.1-0.1,0.2-0.3,0.3-0.4l1.3-1.2C19.4,12.4,19.7,11.8,19.7,11.2L19.7,11.2z"/>
	<path class="st0" d="M9.1,13.4c0,0.1,0,0.1,0,0.2v1c0,0.2-0.1,0.2-0.2,0.2c-0.1,0-0.2-0.1-0.2-0.2v-3.4c0-0.2,0.1-0.2,0.2-0.2
		c0.1,0,0.2,0.1,0.2,0.2c0,0,0,0.1,0,0.1l0.1-0.1c0.6-0.5,1.5-0.4,2,0.2c0.5,0.6,0.4,1.5-0.2,2c-0.3,0.2-0.6,0.3-1,0.3
		c-0.3,0-0.6-0.1-0.8-0.3L9.1,13.4z M10.1,11.3c-0.6,0-1,0.5-1,1c0,0.6,0.5,1,1,1c0.6,0,1-0.5,1-1C11.1,11.8,10.7,11.3,10.1,11.3
		C10.1,11.3,10.1,11.3,10.1,11.3z"/>
	<path class="st0" d="M14.3,11.3c0,0,0-0.1,0-0.2c0-0.1,0.1-0.2,0.2-0.2c0.1,0,0.2,0.1,0.2,0.2v2.4c0,0.1,0,0.2-0.2,0.2
		c-0.1,0-0.2,0-0.2-0.1c0,0,0,0,0-0.1v-0.1l-0.1,0.1c-0.6,0.5-1.5,0.3-2-0.3c-0.5-0.6-0.3-1.5,0.3-2c0.5-0.4,1.2-0.4,1.7,0
		L14.3,11.3L14.3,11.3z M13.3,13.3c0.6,0,1-0.5,1-1s-0.5-1-1-1h0c-0.6-0.1-1.1,0.3-1.1,0.9c-0.1,0.6,0.3,1.1,0.9,1.1
		C13.1,13.3,13.2,13.3,13.3,13.3L13.3,13.3L13.3,13.3z"/>
	<path class="st0" d="M7.8,14.5l-0.1-0.1l-3.8-3.8C3.3,10,3.3,9.2,3.8,8.6C4,8.4,4.2,8.3,4.5,8.2C4.7,8.2,5,8.1,5.3,8.1l1.6-0.2H7
		c0.1,0,0.1,0,0.1,0.1c0,0.1,0,0.1-0.1,0.1L5.9,8.3c-0.4,0-0.7,0.1-1.1,0.2C4.4,8.5,4,8.8,3.9,9.3c-0.2,0.5-0.1,1,0.3,1.3
		c0.9,0.9,1.8,1.9,2.8,2.8c0.2,0.2,0.5,0.5,0.7,0.7C7.8,14.2,7.8,14.3,7.8,14.5L7.8,14.5z"/>
	<path class="st0" d="M16.4,12.7l0.3-0.4l0.7-1.2c0,0,0-0.1,0.1-0.1c0.1-0.1,0.2-0.1,0.2,0c0.1,0.1,0.1,0.1,0.1,0.2c0,0,0,0.1,0,0.1
		L16,14.6c0,0,0,0,0,0.1c-0.1,0.1-0.2,0.1-0.3,0.1c-0.1-0.1-0.1-0.2-0.1-0.3v0c0.1-0.2,0.2-0.4,0.4-0.6c0.1-0.2,0.2-0.4,0.3-0.5
		c0.1-0.1,0.1-0.2,0-0.2l-1-1.8v-0.1c-0.1-0.1,0-0.2,0.1-0.3h0c0.1-0.1,0.2-0.1,0.2,0c0,0,0,0,0,0c0.1,0.1,0.2,0.2,0.2,0.4l0.7,1.2
		L16.4,12.7L16.4,12.7z"/>
	<path class="st0" d="M14.3,6.9L15,6.8l2.2-0.3c0.6-0.1,1.3-0.2,1.9-0.3c0.7-0.1,1.4,0.5,1.5,1.2c0,0.2,0,0.5-0.1,0.7
		c-0.3,0.6-0.6,1.2-1,1.9c0,0,0,0,0,0.1c-0.2-0.1-0.2-0.2-0.1-0.3l0.8-1.5c0.3-0.6,0.1-1.4-0.5-1.7c-0.2-0.1-0.4-0.2-0.6-0.1
		c-0.5,0-1,0.1-1.5,0.2L15.1,7h-0.4C14.6,7,14.5,6.9,14.3,6.9L14.3,6.9L14.3,6.9z"/>
	<path class="st0" d="M7.7,13.8l-0.1-0.1l-3.3-3.3c-0.4-0.4-0.4-1.1,0-1.5c0.1-0.1,0.3-0.2,0.4-0.3C5,8.6,5.3,8.5,5.6,8.5
		C6,8.4,6.5,8.4,7,8.3c0.1,0,0.2,0,0.2,0.1c0,0.1,0,0.1-0.1,0.2L5.4,8.8C4.8,8.8,4.4,9.3,4.5,9.9c0,0.2,0.1,0.4,0.3,0.6l2.8,2.8
		C7.7,13.5,7.8,13.6,7.7,13.8L7.7,13.8z"/>
	<path class="st0" d="M19.1,9.7c-0.2-0.1-0.2-0.1-0.1-0.3l0.5-1c0.2-0.3,0.2-0.8,0-1.1c-0.2-0.3-0.6-0.5-1-0.4l-2.7,0.4l-0.3,0.1
		c-0.2,0-0.4,0-0.5-0.2l0.6-0.1l3.2-0.5c0.6-0.1,1.2,0.2,1.3,0.8c0,0.1,0,0.2,0,0.3c0,0.2-0.1,0.5-0.2,0.7
		C19.6,8.9,19.4,9.3,19.1,9.7C19.1,9.7,19.1,9.7,19.1,9.7L19.1,9.7z"/>
	<path class="st0" d="M17.1,14.6l-0.7,1.3L14.8,19c-0.3,0.7-1.1,0.9-1.8,0.6c-0.2-0.1-0.3-0.2-0.4-0.3c-0.1-0.1-0.2-0.2-0.3-0.3
		s-0.1-0.1,0-0.2c0.1,0,0.1-0.1,0.2,0l0.1,0.1c0.5,0.5,1.2,0.6,1.8,0.1c0.1-0.1,0.2-0.3,0.3-0.4l1.6-3c0.1-0.2,0.2-0.4,0.3-0.6
		C16.7,14.9,16.9,14.7,17.1,14.6L17.1,14.6L17.1,14.6z"/>
	<path class="st0" d="M7.7,13.1L7.5,13l-2.7-2.7c-0.3-0.3-0.3-0.8,0-1.2C4.9,9.1,5,9.1,5.1,9C5.2,9,5.4,8.9,5.6,8.9
		c0.5-0.1,1-0.2,1.5-0.2c0,0,0.1,0,0.1,0c0,0.1,0,0.2-0.1,0.2L5.9,9c-0.2,0-0.3,0-0.5,0.1C5.1,9.2,4.9,9.6,5,10
		c0,0.2,0.1,0.3,0.3,0.4l1.9,1.9c0.1,0.1,0.2,0.3,0.4,0.4C7.6,12.8,7.7,12.9,7.7,13.1L7.7,13.1z"/>
	<path class="st0" d="M15.6,7.6l0.7-0.1l2.3-0.3c0.5-0.1,0.9,0.2,1,0.7c0,0.2,0,0.3-0.1,0.5l-0.5,1c0,0-0.1,0.1-0.2,0.1
		c-0.1-0.1-0.1-0.1-0.1-0.2l0.4-0.7c0.2-0.2,0.2-0.6,0-0.8c-0.2-0.2-0.5-0.3-0.8-0.3l-2.2,0.3C15.9,7.8,15.7,7.7,15.6,7.6L15.6,7.6z
		"/>
	<path class="st0" d="M16.2,15.4l-0.3,0.5l-1.4,2.7c-0.3,0.5-0.9,0.8-1.4,0.5c-0.1-0.1-0.2-0.1-0.3-0.2l-0.1-0.1c0,0-0.1-0.1,0-0.2
		s0.1-0.1,0.2,0c0.4,0.4,1.1,0.3,1.4-0.1c0.1-0.1,0.1-0.2,0.2-0.3c0.4-0.8,0.8-1.6,1.2-2.4C15.8,15.7,16,15.5,16.2,15.4L16.2,15.4
		L16.2,15.4z"/>
	<path class="st0" d="M7.6,12.5L7.6,12.5l-2.2-2.2c-0.2-0.2-0.2-0.4-0.1-0.6c0.1-0.2,0.2-0.3,0.5-0.3l1.4-0.2c0.1,0,0.2,0,0.2,0.1
		c0,0.1,0,0.2-0.1,0.2L6,9.5c-0.2,0-0.3,0.1-0.4,0.3c-0.1,0.2,0,0.4,0.1,0.5L7.5,12C7.6,12.2,7.6,12.3,7.6,12.5L7.6,12.5z"/>
	<path class="st0" d="M16.1,7.9l0.6-0.1l1.6-0.2c0.3,0,0.6,0.2,0.6,0.5c0,0.1,0,0.2,0,0.3c-0.1,0.3-0.3,0.5-0.4,0.8
		c0,0.1-0.1,0.1-0.2,0c-0.1-0.1-0.1-0.1,0-0.2c0.1-0.1,0.2-0.3,0.3-0.5c0.1-0.2,0-0.5-0.2-0.6c-0.1,0-0.2,0-0.2,0L17,8
		c-0.1,0-0.3,0-0.4,0C16.5,8,16.3,7.9,16.1,7.9L16.1,7.9L16.1,7.9z"/>
	<path class="st0" d="M7.5,11.8l-0.6-0.6L6,10.3C5.9,10.2,5.8,10,5.8,9.9c0-0.1,0.1-0.2,0.3-0.2l1.1-0.2c0.1,0,0.2,0,0.2,0.1
		c0,0.1,0,0.1-0.1,0.1L6.7,9.9c-0.1,0-0.2,0.1-0.2,0.2c0,0.1,0,0.3,0.1,0.3l0.9,0.9C7.5,11.5,7.6,11.7,7.5,11.8L7.5,11.8z"/>
	<path class="st0" d="M15.3,16.2l-0.2,0.4c-0.3,0.5-0.5,1.1-0.8,1.6c-0.2,0.4-0.7,0.6-1.1,0.4c-0.1,0-0.1-0.1-0.2-0.1
		c0,0-0.1-0.1-0.1-0.2c0,0,0.1-0.2,0.2-0.1c0.2,0.1,0.4,0.1,0.6,0c0.2-0.1,0.3-0.2,0.4-0.4c0.2-0.4,0.4-0.8,0.6-1.2
		C14.9,16.5,15,16.4,15.3,16.2L15.3,16.2L15.3,16.2z"/>
	<path class="st0" d="M12.8,9.9c0-0.4,0-0.3-0.3-0.3h-0.2c-0.1,0-0.1,0-0.1,0.1c0,0.1,0,0.2,0,0.2c0,0.2,0,0.3,0.3,0.3l0.1,0.1
		c0.1,0.1,0,0-0.1,0.1c-0.1,0-0.2,0-0.3,0c-0.1,0-0.2-0.1-0.2-0.3V9.8c0-0.1,0-0.2-0.1-0.2 M11.8,9.5c0.1,0,0.1-0.1,0.1-0.2
		c0-0.1,0.1-0.1,0.1-0.1c0,0,0.1,0,0.1,0.1c0,0.1,0,0.1,0.2,0.1h0.2c0.1,0,0.2,0,0.2-0.2c0-0.2,0.1-0.1,0.1,0C13,9.3,13,9.3,13,9.3
		s0.1,0.2,0.2,0.2c0.1,0,0.1,0,0.1,0.1l-0.1-0.1c0,0-0.2,0-0.2,0.2v0.2c0,0.2,0,0.2,0.2,0.3c0,0,0.1,0,0.1,0.1c0,0.1,0,0-0.1,0.1
		h-0.2c-0.2,0-0.3-0.1-0.3-0.3L11.8,9.5L11.8,9.5z"/>
	<path class="st0" d="M11.2,10.4h-0.3c-0.1,0-0.1,0-0.2,0c-0.2-0.1-0.2-0.4-0.2-0.6c0-0.2,0.2-0.3,0.3-0.3c0.2,0,0.4,0,0.6,0
		c0.2,0,0.3,0.1,0.3,0.3c0,0.2,0,0.2-0.2,0.2H11c-0.1,0-0.2,0-0.2,0.1c0,0.1,0.1,0.1,0.1,0.2c0.1,0,0.2,0,0.2,0h0.4
		c0,0,0.1,0,0.1,0.1c0,0-0.1,0.1-0.1,0.1L11.2,10.4L11.2,10.4z M10.8,9.9h0.5c0,0,0.1,0,0.1-0.1c0,0,0-0.1-0.1-0.2
		c-0.1,0-0.3,0-0.4,0C10.8,9.6,10.7,9.7,10.8,9.9z"/>
	<path class="st0" d="M14.1,10.4h-0.3c-0.2,0-0.3-0.1-0.3-0.3c0-0.1,0-0.2,0-0.3c0-0.2,0.1-0.3,0.3-0.3c0.2,0,0.4,0,0.6,0
		c0.1,0,0.2,0.1,0.2,0.2c0.1,0.1,0.1,0.2,0,0.3C14.5,10,14.5,10,14.4,10h-0.5c-0.1,0-0.2,0-0.2,0.1c0,0.1,0.1,0.2,0.1,0.2
		c0.1,0,0.2,0,0.3,0h0.3c0,0,0.1,0,0.1,0.1c0,0.1-0.1,0-0.1,0L14.1,10.4L14.1,10.4z M13.7,9.9h0.5c0,0,0.1-0.1,0.1-0.1
		c0,0-0.1-0.1-0.1-0.2c-0.1,0-0.3,0-0.4,0C13.7,9.6,13.7,9.7,13.7,9.9z"/>
	<path class="st0" d="M16.7,8.2l0.6-0.1c0.2,0,0.4-0.1,0.7-0.1c0.1,0,0.2,0,0.3,0.1c0.1,0.1,0.1,0.2,0,0.3l-0.2,0.5
		C18.1,9,18,9,17.9,9c-0.1-0.1,0-0.1,0-0.2c0.1-0.2,0-0.4-0.2-0.4c-0.1,0-0.1,0-0.2,0c-0.1,0-0.3,0-0.4,0C17,8.4,16.9,8.3,16.7,8.2
		L16.7,8.2L16.7,8.2z"/>
	<path class="st0" d="M7.5,11.2L7.5,11.2l-0.8-0.8c0,0-0.1-0.1-0.1-0.2c0-0.1,0.1-0.1,0.2-0.1L7.3,10c0,0,0.1,0,0.1,0.1
		C7.4,10.4,7.4,10.8,7.5,11.2L7.5,11.2z"/>
	<path class="st0" d="M8.7,9.5c0.2,0,0.2,0,0.3,0.1l0.2,0.5c0,0.1,0.1,0.1,0.1,0.2c0-0.1,0.1-0.1,0.1-0.2c0,0,0.2-0.3,0.2-0.5
		c0.1-0.2,0.1-0.2,0.3-0.1L9.7,9.9c-0.1,0.2-0.2,0.3-0.2,0.5c-0.1,0.1-0.2,0.1-0.3,0.1c0,0,0,0-0.1-0.1C8.9,10.1,8.8,9.8,8.7,9.5
		L8.7,9.5z"/>
	<path class="st0" d="M14.3,17.1c-0.2,0.3-0.3,0.6-0.5,0.9c-0.1,0.2-0.4,0.3-0.6,0.1c0,0,0,0,0,0l0.3-0.2c0.1-0.1,0.2-0.2,0.3-0.2
		C13.9,17.5,14.1,17.2,14.3,17.1L14.3,17.1L14.3,17.1z"/>
	<path class="st0" d="M14.8,9.7V9.3c0-0.1,0-0.1,0.1-0.1c0.1,0,0.1,0,0.1,0.2V10c0,0.2,0,0.2,0.2,0.3c0.2,0,0.1,0,0.1,0.1l-0.1,0.1
		h-0.2c-0.2,0-0.3-0.1-0.3-0.3V9.7L14.8,9.7z"/>
	<path class="st0" d="M10.3,9.9v0.3c0,0.1,0,0.1-0.1,0.1h0c-0.1,0-0.1,0-0.1-0.1V9.5c0-0.1,0-0.1,0.1-0.1h0c0.1,0,0.1,0,0.1,0.1V9.9
		z"/>
	<path class="st0" d="M17.3,8.6h0.2c0,0,0.1,0,0.1,0.1c0,0,0,0.1,0,0.1h-0.1L17.3,8.6L17.3,8.6L17.3,8.6z"/>
	<path class="st0" d="M10.1,9.4c0,0-0.1-0.1,0-0.1s0.1-0.1,0.1-0.1c0.1,0,0.1,0,0.1,0.1L10.1,9.4L10.1,9.4z"/>
	<path class="st0" d="M13.6,12.3l-0.3,0.3l-0.4-0.4l-0.1,0.1l0.4-0.4L13.6,12.3z"/>
</g>
</svg>
