<svg id="Layer_1" data-name="Layer 1" xmlns="http://www.w3.org/2000/svg" xmlns:xlink="http://www.w3.org/1999/xlink" viewBox="0 0 100 100"><defs><style>.cls-1{fill:url(#linear-gradient);}.cls-2{fill:url(#linear-gradient-2);}.cls-3{fill:url(#linear-gradient-3);}.cls-4{fill:url(#linear-gradient-4);}.cls-5{fill:#523104;opacity:0.24;}.cls-6{fill:#f4df00;}.cls-7{fill:#fffa99;}.cls-8{opacity:0.46;fill:url(#linear-gradient-5);}</style><linearGradient id="linear-gradient" x1="0.27" y1="50.37" x2="100.19" y2="50.37" gradientUnits="userSpaceOnUse"><stop offset="0" stop-color="#db0000"/><stop offset="1" stop-color="#9f0f20"/></linearGradient><linearGradient id="linear-gradient-2" x1="19.61" y1="17.47" x2="80.79" y2="83.07" gradientUnits="userSpaceOnUse"><stop offset="0" stop-color="#e65825"/><stop offset="1" stop-color="#ce2608"/></linearGradient><linearGradient id="linear-gradient-3" x1="34.02" y1="92.26" x2="66.17" y2="8.49" gradientUnits="userSpaceOnUse"><stop offset="0" stop-color="#d50010"/><stop offset="1" stop-color="#ce2608" stop-opacity="0"/></linearGradient><linearGradient id="linear-gradient-4" x1="59.01" y1="61.77" x2="59.01" y2="95.17" gradientUnits="userSpaceOnUse"><stop offset="0" stop-color="#ffa703"/><stop offset="1" stop-color="#ff8000"/></linearGradient><linearGradient id="linear-gradient-5" x1="56.59" y1="55.68" x2="14.5" y2="15.03" gradientUnits="userSpaceOnUse"><stop offset="0" stop-color="#fff" stop-opacity="0.4"/><stop offset="0.05" stop-color="#fff" stop-opacity="0.36"/><stop offset="0.22" stop-color="#fff" stop-opacity="0.23"/><stop offset="0.4" stop-color="#fff" stop-opacity="0.13"/><stop offset="0.59" stop-color="#fff" stop-opacity="0.06"/><stop offset="0.78" stop-color="#fff" stop-opacity="0.01"/><stop offset="1" stop-color="#fff" stop-opacity="0"/></linearGradient></defs><circle class="cls-1" cx="50.23" cy="50.37" r="49.96"/><circle class="cls-2" cx="50.2" cy="50.27" r="44.85"/><circle class="cls-3" cx="50.09" cy="50.37" r="44.85"/><rect class="cls-4" x="22.29" y="61.77" width="73.45" height="33.41" rx="15.6"/><path class="cls-5" d="M51.65,19.08,57,35.43a.62.62,0,0,0,.59.43H74.74A.62.62,0,0,1,75.1,37L61.21,47.1a.63.63,0,0,0-.22.7l5.3,16.33a.63.63,0,0,1-1,.7L51.42,54.75a.62.62,0,0,0-.73,0L36.79,64.83a.63.63,0,0,1-1-.7L41.12,47.8a.61.61,0,0,0-.22-.7L27,37a.62.62,0,0,1,.37-1.13H44.55a.62.62,0,0,0,.59-.43l5.32-16.35A.63.63,0,0,1,51.65,19.08Z"/><path class="cls-6" d="M50.79,17.8l5.32,16.34a.61.61,0,0,0,.59.43H73.88a.63.63,0,0,1,.37,1.13L60.36,45.82a.62.62,0,0,0-.23.69l5.3,16.33a.62.62,0,0,1-1,.7L50.57,53.46a.63.63,0,0,0-.74,0L35.93,63.54a.62.62,0,0,1-1-.7l5.3-16.33a.62.62,0,0,0-.23-.69L26.15,35.7a.62.62,0,0,1,.37-1.13H43.69a.63.63,0,0,0,.6-.43L49.6,17.8A.62.62,0,0,1,50.79,17.8Z"/><path class="cls-7" d="M50.14,76.65H48l-.68-2.53-2.17,2.52h-2l3.54-4-1.15-3.93h2.14l.63,2.39,2.05-2.38h2l-3.42,3.83Z"/><path class="cls-7" d="M58.68,72.73a6.09,6.09,0,0,1-1.83,3,4.29,4.29,0,0,1-2.93,1.08,2.41,2.41,0,0,1-2.29-1.12,3.91,3.91,0,0,1-.07-3,6.17,6.17,0,0,1,1.82-3,4.31,4.31,0,0,1,2.93-1.1,2.42,2.42,0,0,1,2.29,1.12A3.88,3.88,0,0,1,58.68,72.73Zm-1.9,0A5.21,5.21,0,0,0,57,71.51a2.08,2.08,0,0,0-.13-.81.9.9,0,0,0-.4-.47,1.11,1.11,0,0,0-.58-.14,1.63,1.63,0,0,0-.65.12,2.29,2.29,0,0,0-.67.47,3.41,3.41,0,0,0-.6.81,5.53,5.53,0,0,0-.5,1.22,4.51,4.51,0,0,0-.21,1.21,1.75,1.75,0,0,0,.13.8.92.92,0,0,0,.4.48,1.21,1.21,0,0,0,.58.14,1.66,1.66,0,0,0,.67-.15,2,2,0,0,0,.67-.47,4.18,4.18,0,0,0,.6-.8A6.48,6.48,0,0,0,56.78,72.72ZM58.58,68H57.3l-.55-.91-1.07.9H54.42l2-1.76H57.6Zm2.15-1.36a1.16,1.16,0,0,1-.36.58,1.72,1.72,0,0,1-.55.3l-.09.31h-.88l.17-.6a1,1,0,0,0,.41-.19.63.63,0,0,0,.21-.33.19.19,0,0,0,0-.21.33.33,0,0,0-.24-.08.9.9,0,0,0-.25,0l-.23.07h0l.18-.61a1.94,1.94,0,0,1,.3-.07,2.73,2.73,0,0,1,.41,0,1.14,1.14,0,0,1,.82.25A.57.57,0,0,1,60.73,66.62Z"/><path class="cls-7" d="M63.81,76.86a5.3,5.3,0,0,1-1.43-.18,5.12,5.12,0,0,1-1.06-.45l.54-1.88H62a2.82,2.82,0,0,0,1,.79,2.92,2.92,0,0,0,1.22.27l.43,0a1.62,1.62,0,0,0,.45-.12,1.41,1.41,0,0,0,.4-.25.89.89,0,0,0,.25-.42.49.49,0,0,0-.07-.49.94.94,0,0,0-.44-.27l-.75-.21a3.8,3.8,0,0,1-.72-.24,1.68,1.68,0,0,1-1-.87,2.18,2.18,0,0,1,0-1.38,3.14,3.14,0,0,1,1.4-1.79,4.29,4.29,0,0,1,2.38-.68,5.18,5.18,0,0,1,1.26.15,3.9,3.9,0,0,1,1.05.4L68.41,71h-.17a2.55,2.55,0,0,0-1.94-.91,2.09,2.09,0,0,0-.45,0,1.9,1.9,0,0,0-.45.14,1.42,1.42,0,0,0-.37.25.92.92,0,0,0-.23.37.51.51,0,0,0,.06.49,1.41,1.41,0,0,0,.68.32l.66.18a5.34,5.34,0,0,1,.66.24,1.66,1.66,0,0,1,.91.8,1.94,1.94,0,0,1,0,1.33,3.3,3.3,0,0,1-1.42,1.89A4.4,4.4,0,0,1,63.81,76.86Z"/><path class="cls-7" d="M75.82,72.81a6.09,6.09,0,0,1-1.83,3,4.29,4.29,0,0,1-2.93,1.08,2.41,2.41,0,0,1-2.29-1.12,3.91,3.91,0,0,1-.07-3,6.17,6.17,0,0,1,1.82-3,4.33,4.33,0,0,1,2.93-1.1,2.42,2.42,0,0,1,2.29,1.12A3.83,3.83,0,0,1,75.82,72.81Zm-1.9,0a5.21,5.21,0,0,0,.21-1.21,1.91,1.91,0,0,0-.13-.81.86.86,0,0,0-.4-.47,1.2,1.2,0,0,0-.57-.14,1.84,1.84,0,0,0-.66.12,2.29,2.29,0,0,0-.67.47,3.41,3.41,0,0,0-.6.81,6.06,6.06,0,0,0-.5,1.22A4.51,4.51,0,0,0,70.39,74a1.89,1.89,0,0,0,.13.8,1,1,0,0,0,.4.48,1.24,1.24,0,0,0,.58.14,1.66,1.66,0,0,0,.67-.15,2,2,0,0,0,.67-.47,3.89,3.89,0,0,0,.6-.8A6.2,6.2,0,0,0,73.92,72.8ZM75.75,68H74.47L74,66.82,72.85,68H71.59l2.09-2.08h1.19Zm2.36-2.08-1.43,1.41h-.84l1-1.42Z"/><path class="cls-7" d="M39.3,89.67H37.47L39,84.42,36.67,87.8H35.41l-.35-3.39-1.53,5.25H31.8l2.29-7.91h2.13l.49,3.91,2.76-3.9H41.6Z"/><path class="cls-7" d="M44.48,89.7l-4,0,.41-1.38h1l1.5-5.14H42.42l.4-1.38,4,0-.4,1.38H45.32l-1.49,5.15h1.05Z"/><path class="cls-7" d="M45.71,89.7,48,81.79l5,0-.44,1.51-3.13,0L49,84.7h2.88l-.43,1.51H48.56l-.58,2,3.13,0-.44,1.51ZM49,80.23h-.83l-.62-1.42h1.25Zm3.87.7H51.57l-.48-1.13L50,80.91H48.69l2.09-2.08H52Z"/><path class="cls-7" d="M58.22,89.76H56.44l-1.23-5.52-1.6,5.51H51.92l2.3-7.91h2.26l1,4.55,1.32-4.54h1.69Z"/><path class="cls-7" d="M69.25,87.39a3.31,3.31,0,0,1-.51,1,3,3,0,0,1-.77.74,3.78,3.78,0,0,1-1.06.5,5.38,5.38,0,0,1-1.3.14l-2.94,0L65,81.87l2.59,0a7.28,7.28,0,0,1,1.21.07,1.67,1.67,0,0,1,.7.28,1,1,0,0,1,.41.61,1.74,1.74,0,0,1-.06.89,2.62,2.62,0,0,1-.57,1,2.41,2.41,0,0,1-.93.66l0,0a1.35,1.35,0,0,1,.91.63A1.69,1.69,0,0,1,69.25,87.39Zm-1.89,0a1,1,0,0,0,0-.57.55.55,0,0,0-.33-.32,1.31,1.31,0,0,0-.43-.08H65.5l-.57,2H66a2.13,2.13,0,0,0,.61-.14,1.13,1.13,0,0,0,.46-.34A1.44,1.44,0,0,0,67.36,87.34Zm.47-3.21a.9.9,0,0,0,0-.4.38.38,0,0,0-.2-.29.9.9,0,0,0-.4-.1h-.87L65.89,85h.9a1.3,1.3,0,0,0,.43-.11.87.87,0,0,0,.39-.31A1.35,1.35,0,0,0,67.83,84.13Z"/><path class="cls-7" d="M68.81,89.81l4.78-7.9h2l.19,7.93h-1.9V88.22H71.59l-.93,1.61Zm5.1-3V84.17l-1.51,2.61ZM77,80a1.93,1.93,0,0,1-.71.92,2.37,2.37,0,0,1-1.52.46,1.38,1.38,0,0,1-1.24-.47,1.06,1.06,0,0,1-.17-.93h1a.57.57,0,0,0,.07.41c.08.14.28.21.58.21a1,1,0,0,0,.7-.21A.89.89,0,0,0,76,80Zm-.26-1-1.26,1.14h-.79l.8-1.15Z"/><path class="cls-7" d="M79.64,90a2.51,2.51,0,0,1-2.31-1.09,3.75,3.75,0,0,1-.09-3,6,6,0,0,1,1.84-3,4.33,4.33,0,0,1,3-1.11,4.5,4.5,0,0,1,.78.06,3.19,3.19,0,0,1,1.11.37,4.11,4.11,0,0,1,.41.24l-.55,1.89h-.19a3.83,3.83,0,0,0-.24-.31A2.4,2.4,0,0,0,83,83.7a1.92,1.92,0,0,0-.48-.29,1.36,1.36,0,0,0-.61-.13,2.19,2.19,0,0,0-.77.14,2.34,2.34,0,0,0-.77.46,3.18,3.18,0,0,0-.69.82,4.47,4.47,0,0,0-.53,1.21A3.9,3.9,0,0,0,79,87.16a1.84,1.84,0,0,0,.24.81,1.2,1.2,0,0,0,.52.43,1.66,1.66,0,0,0,.66.14,2.14,2.14,0,0,0,.74-.13,3.16,3.16,0,0,0,.64-.29c.19-.11.37-.22.53-.33l.41-.3h.17l-.54,1.86-.54.23a4.44,4.44,0,0,1-.61.22,5.58,5.58,0,0,1-.69.16A4.88,4.88,0,0,1,79.64,90Z"/><path class="cls-8" d="M90.34,20.74c-9.55,5.74-20.7,12.69-31.63,20.05C39.93,53.44,21,69.87,10.32,79.54A48.87,48.87,0,0,1,.19,49.69,49.89,49.89,0,0,1,90.34,20.74Z"/></svg>