<?xml version="1.0" encoding="utf-8"?>
<!-- Generator: Adobe Illustrator 28.0.0, SVG Export Plug-In . SVG Version: 6.00 Build 0)  -->
<svg version="1.1" id="Layer_1" xmlns:v="https://vecta.io/nano"
	 xmlns="http://www.w3.org/2000/svg" xmlns:xlink="http://www.w3.org/1999/xlink" x="0px" y="0px" viewBox="0 0 77.2 56"
	 style="enable-background:new 0 0 77.2 56;" xml:space="preserve">
<style type="text/css">
	.st0{fill:#D82E2C;}
	.st1{fill:#FFFFFF;}
	.st2{fill:#D82D2E;}
	.st3{fill:#EC9897;}
	.st4{fill:#DA2D2E;}
	.st5{fill:#D8302D;}
</style>
<g>
	<circle class="st0" cx="37" cy="26.9" r="26.9"/>
	<circle class="st1" cx="37" cy="26.9" r="26.1"/>
	<g>
		<g>
			<path class="st2" d="M37,51.9c-6.7,0-13-2.6-17.7-7.3c-4.7-4.7-7.3-11-7.3-17.7c0-6.7,2.6-13,7.3-17.7C24,4.4,30.3,1.8,37,1.8
				s13,2.6,17.7,7.3c4.7,4.7,7.3,11,7.3,17.7c0,6.7-2.6,13-7.3,17.7C49.9,49.3,43.6,51.9,37,51.9z M37,7C26,7,17.2,15.9,17.2,26.9
				S26,46.7,37,46.7s19.8-8.9,19.8-19.8S47.9,7,37,7z"/>
		</g>
	</g>
	<g>
		<path class="st2" d="M37,42.8c-8.8,0-16-7.2-16-16c0-8.8,7.2-16,16-16c8.8,0,16,7.2,16,16C52.9,35.7,45.8,42.8,37,42.8z M37,17.1
			c-5.4,0-9.8,4.4-9.8,9.8s4.4,9.8,9.8,9.8s9.8-4.4,9.8-9.8S42.3,17.1,37,17.1z"/>
	</g>
	<g>
		<polygon class="st1" points="45.8,33.9 46.3,35.4 47.8,35.4 46.6,36.4 47.1,37.9 45.8,36.9 44.5,37.9 44.9,36.4 43.7,35.4 
			45.2,35.4 		"/>
		<polygon class="st1" points="41.5,36.6 42.1,38.1 43.6,38.1 42.4,39.1 42.8,40.5 41.5,39.6 40.3,40.5 40.7,39.1 39.5,38.1 
			41,38.1 		"/>
		<polygon class="st1" points="36.9,37.6 37.5,39.1 39,39.1 37.7,40.1 38.2,41.5 36.9,40.6 35.6,41.5 36.1,40.1 34.8,39.1 
			36.4,39.1 		"/>
		<polygon class="st1" points="28.1,33.9 27.6,35.4 26.1,35.4 27.3,36.4 26.9,37.9 28.1,36.9 29.4,37.9 29,36.4 30.2,35.4 
			28.7,35.4 		"/>
		<polygon class="st1" points="32.3,36.6 31.7,38.1 30.2,38.1 31.4,39.1 31,40.5 32.3,39.6 33.6,40.5 33.1,39.1 34.3,38.1 
			32.8,38.1 		"/>
	</g>
	<g>
		<g>
			<path class="st3" d="M16.4,20.3l-1.8-0.4l0.3-0.7l1.2,0.3l0-0.1l-1-0.6l0.3-0.8l1.1,0.3l0-0.1l-1.1-0.5l0.3-0.7l1.6,0.9L16.9,19
				l-1.1-0.3l0,0l1,0.5L16.4,20.3z"/>
			<path class="st3" d="M17.5,17.6l-1.6-0.8l0.3-0.7l1.6,0.8L17.5,17.6z"/>
			<path class="st3" d="M18,16.6l-1.6-0.9l0.4-0.7l0.9-0.1l0,0l-0.6-0.4l0.4-0.7l1.6,0.9l-0.4,0.7l-0.9,0.1l0,0l0.6,0.4L18,16.6z"/>
			<path class="st3" d="M19.2,14.6l-1.5-1.1l1-1.3l0.4,0.3l-0.5,0.7l0.2,0.2l0.4-0.5l0.4,0.3l-0.4,0.5l0.4,0.3L19.2,14.6z"/>
			<path class="st3" d="M20.1,13.4l-1-1.6l0.8-0.9l1.7,0.8l-0.5,0.6l-0.2-0.1l-0.3,0.4l0.1,0.2L20.1,13.4z M19.8,11.7l0.4,0.5
				l0.2-0.3L19.8,11.7L19.8,11.7z"/>
			<path class="st3" d="M22.1,9.5c-0.3,0.2-0.4,0.3-0.5,0.4c-0.1,0.1-0.2,0.2-0.2,0.2c0,0,0,0,0,0.1c0,0,0,0,0.1,0s0.1-0.1,0.2-0.1
				c0.1-0.1,0.2-0.1,0.3-0.2c0.1,0,0.2-0.1,0.3-0.1c0.1,0,0.2,0,0.2,0c0.1,0,0.1,0.1,0.2,0.2c0.2,0.2,0.2,0.3,0.2,0.5
				c0,0.2-0.2,0.4-0.4,0.6c-0.1,0.1-0.2,0.2-0.4,0.3c-0.1,0.1-0.2,0.2-0.3,0.2l-0.1,0.1l-0.3-0.4c0.3-0.2,0.5-0.4,0.7-0.5
				c0.1-0.1,0.1-0.1,0.1-0.2c0,0,0,0-0.1,0c0,0-0.1,0.1-0.2,0.1c-0.3,0.2-0.5,0.3-0.6,0.3c-0.1,0-0.3,0-0.4-0.2
				c-0.2-0.2-0.2-0.4-0.2-0.5c0-0.2,0.2-0.4,0.4-0.6c0.2-0.1,0.4-0.3,0.6-0.5l0.1-0.1L22.1,9.5z"/>
			<path class="st3" d="M22.3,9.3L22,8.9l1.3-1l0.3,0.4l-0.3,0.3l0.8,1L23.5,10l-0.8-1L22.3,9.3z"/>
			<path class="st3" d="M25.3,8.7l-1-1.5L25,6.7l1,1.5L25.3,8.7z"/>
			<path class="st3" d="M26.1,8.1l-0.8-1.6L26,6.2l0.8,0.4l0,0l-0.3-0.6l0.7-0.4L28,7.2l-0.7,0.4l-0.8-0.4l0,0l0.3,0.7L26.1,8.1z"/>
			<path class="st3" d="M27.7,5.9l-0.2-0.5l1.6-0.6l0.2,0.5l-0.4,0.2l0.5,1.2l-0.7,0.3l-0.5-1.2L27.7,5.9z"/>
			<path class="st3" d="M30,6.4l-0.5-1.7l1.6-0.5l0.1,0.5l-0.9,0.3l0,0.1l0.7-0.2l0.1,0.5l-0.7,0.2l0,0.2l0.9-0.3l0.1,0.5L30,6.4z"
				/>
			<path class="st3" d="M32.7,5.2l-0.2,0l0.1,0.5l-0.8,0.2L31.4,4l0.9-0.2c0.3-0.1,0.6-0.1,0.8,0c0.2,0.1,0.3,0.2,0.3,0.5
				c0.1,0.2,0,0.4-0.1,0.6l0.3,0.6l-0.8,0.2L32.7,5.2z M32.6,4.7c0.1,0,0.2-0.1,0.1-0.2c0-0.1-0.1-0.2-0.2-0.1l-0.2,0l0.1,0.3
				L32.6,4.7z"/>
			<path class="st3" d="M33.9,5.4l-0.2-1.8l0.8-0.1l0.6,0.6l0,0l-0.1-0.7l0.8-0.1L36,5.2l-0.8,0.1l-0.6-0.7l-0.1,0l0.1,0.7L33.9,5.4
				z"/>
			<path class="st3" d="M36.2,5.2l0.5-1.8l1.2,0l0.5,1.8l-0.8,0L37.5,5L37,5l-0.1,0.2L36.2,5.2z M37.2,3.9l-0.1,0.6l0.3,0L37.2,3.9
				L37.2,3.9z"/>
			<path class="st3" d="M38.4,3.9l0-0.5l1.7,0.2l0,0.5l-0.4,0l-0.1,1.3l-0.8-0.1L38.8,4L38.4,3.9z"/>
			<path class="st3" d="M40.1,5.4l0.3-1.8l0.8,0.1l-0.3,1.8L40.1,5.4z"/>
			<path class="st3" d="M43.4,5.2c-0.1,0.3-0.2,0.5-0.4,0.6c-0.2,0.1-0.5,0.1-0.9,0c-0.4-0.1-0.6-0.2-0.8-0.4
				c-0.1-0.2-0.2-0.4-0.1-0.8c0.1-0.3,0.2-0.5,0.4-0.6c0.2-0.1,0.5-0.1,0.9,0c0.4,0.1,0.6,0.2,0.8,0.4C43.5,4.6,43.5,4.9,43.4,5.2z
				 M42.1,4.9c0,0.2,0,0.3,0,0.3c0,0.1,0.1,0.1,0.2,0.2c0.1,0,0.2,0,0.3,0c0.1-0.1,0.1-0.2,0.1-0.3c0-0.2,0-0.3,0-0.3
				c0-0.1-0.1-0.1-0.2-0.1c-0.1,0-0.2,0-0.3,0C42.2,4.6,42.1,4.7,42.1,4.9z"/>
			<path class="st3" d="M43.4,6.1L44,4.4l0.7,0.3L45,5.5l0,0l0.2-0.7L46,5.2l-0.6,1.7l-0.7-0.3l-0.2-0.9l0,0l-0.3,0.7L43.4,6.1z"/>
			<path class="st3" d="M45.5,6.9l1.3-1.4L47.9,6l-0.3,1.9l-0.7-0.4l0-0.2l-0.5-0.2l-0.1,0.2L45.5,6.9z M47.1,6.2l-0.4,0.5L47,6.9
				L47.1,6.2L47.1,6.2z"/>
			<path class="st3" d="M48.9,8.8L47.6,8l0.9-1.6l0.7,0.4l-0.7,1.1l0.6,0.4L48.9,8.8z"/>
			<path class="st3" d="M50.5,8.3l0.3-0.4l1.3,1.1l-0.3,0.4L51.5,9l-0.8,1l-0.6-0.5l0.8-1L50.5,8.3z"/>
			<path class="st3" d="M52.2,10.8l-0.1-0.1L51.8,11l-0.6-0.5l1.3-1.3l0.7,0.7c0.3,0.2,0.4,0.4,0.5,0.6c0,0.2,0,0.4-0.2,0.5
				c-0.2,0.2-0.4,0.3-0.6,0.2l-0.3,0.6L52,11.2L52.2,10.8z M52.6,10.4c0.1,0.1,0.2,0.1,0.2,0c0.1-0.1,0.1-0.2,0-0.3L52.7,10
				l-0.2,0.3L52.6,10.4z"/>
			<path class="st3" d="M52.6,11.8l1.7-0.8l0.8,0.9l-1,1.6l-0.5-0.6l0.1-0.2l-0.3-0.4l-0.2,0.1L52.6,11.8z M54.3,11.8l-0.6,0.3
				l0.2,0.3L54.3,11.8L54.3,11.8z"/>
			<path class="st3" d="M54.7,14.4l-0.6-0.8l1.5-1l0.6,0.8c0.2,0.3,0.3,0.6,0.3,0.8c0,0.2-0.2,0.4-0.4,0.6C55.8,15,55.6,15,55.4,15
				C55.2,14.9,54.9,14.8,54.7,14.4z M55.6,14.1c0.1-0.1,0.2-0.2,0.2-0.2c0-0.1,0-0.2-0.1-0.3l-0.1-0.1L55,14l0.1,0.1
				c0.1,0.1,0.1,0.2,0.2,0.2C55.4,14.3,55.5,14.2,55.6,14.1z"/>
			<path class="st3" d="M55.4,15.5l1.6-0.9l0.4,0.7l-1.6,0.9L55.4,15.5z"/>
			<path class="st3" d="M56,16.4l1.6-0.8l0.3,0.7l-0.4,0.8l0,0l0.6-0.3l0.3,0.7l-1.6,0.8l-0.3-0.7l0.4-0.8l0,0l-0.7,0.3L56,16.4z"/>
			<path class="st3" d="M58.7,20l-1,0.3c-0.2-0.4-0.3-0.6-0.4-0.8c-0.1-0.2-0.1-0.4-0.1-0.5c0-0.1,0-0.3,0.1-0.4
				c0-0.1,0.1-0.2,0.2-0.3c0.1-0.1,0.2-0.1,0.4-0.2c0.3-0.1,0.6-0.1,0.8,0c0.2,0.1,0.3,0.3,0.5,0.7c0,0.1,0.1,0.2,0.1,0.4
				c0,0.1,0.1,0.3,0.1,0.3l0,0.1l-0.4,0.2c-0.1-0.3-0.2-0.5-0.2-0.7S58.6,19,58.6,19c0,0,0-0.1-0.1-0.1c0,0-0.1,0-0.1,0
				c-0.1,0-0.2,0-0.3,0.1c-0.1,0-0.2,0.1-0.3,0.2c0,0.1,0,0.1,0,0.3l0,0.1l0.1,0l0-0.1l0.4-0.2L58.7,20z"/>
		</g>
	</g>
	<g>
		<g>
			<path class="st3" d="M14.8,35.3l1.5-1l0.3,0.7l-1,0.6l0,0.1l1.1-0.4l0.4,0.8l-1,0.6l0,0.1l1.1-0.4l0.3,0.7l-1.8,0.5l-0.5-1l1-0.6
				l0,0l-1.1,0.4L14.8,35.3z"/>
			<path class="st3" d="M16.2,38.1l1.6-0.9l0.4,0.7l-1.6,0.9L16.2,38.1z"/>
			<path class="st3" d="M16.7,39.1l1.5-1l0.4,0.6l-0.3,0.8l0,0l0.6-0.4l0.4,0.7l-1.5,1l-0.4-0.6l0.3-0.8l0,0l-0.6,0.4L16.7,39.1z"/>
			<path class="st3" d="M18.1,41.1l1.4-1.1l1,1.3l-0.4,0.3l-0.5-0.7l-0.2,0.2l0.4,0.5l-0.4,0.3L19,41.4l-0.4,0.3L18.1,41.1z"/>
			<path class="st3" d="M19.1,42.4l1.7-0.9l0.8,0.9l-1,1.6l-0.5-0.6l0.1-0.2l-0.4-0.4l-0.2,0.1L19.1,42.4z M20.8,42.2l-0.6,0.3
				l0.2,0.2L20.8,42.2L20.8,42.2z"/>
			<path class="st3" d="M23,44.3c-0.2-0.2-0.4-0.4-0.5-0.5c-0.1-0.1-0.2-0.1-0.2-0.2s0,0-0.1,0c0,0,0,0,0,0.1c0,0,0.1,0.1,0.2,0.2
				c0.1,0.1,0.2,0.2,0.2,0.3c0.1,0.1,0.1,0.2,0.1,0.2c0,0.1,0,0.2,0,0.2s-0.1,0.1-0.1,0.2c-0.1,0.2-0.3,0.2-0.5,0.2
				c-0.2,0-0.4-0.1-0.6-0.3c-0.1-0.1-0.2-0.2-0.3-0.3c-0.1-0.1-0.2-0.2-0.2-0.3l-0.1-0.1l0.3-0.3c0.2,0.3,0.4,0.5,0.6,0.6
				c0.1,0.1,0.1,0.1,0.2,0.1c0,0,0,0,0-0.1c0,0-0.1-0.1-0.1-0.2c-0.2-0.2-0.3-0.4-0.4-0.6c0-0.1,0-0.3,0.1-0.4
				c0.2-0.2,0.3-0.3,0.5-0.2c0.2,0,0.4,0.1,0.6,0.3c0.2,0.1,0.3,0.3,0.5,0.5l0.1,0.1L23,44.3z"/>
			<path class="st3" d="M23.1,44.4l0.3-0.4l1.4,1l-0.3,0.4l-0.4-0.3l-0.8,1.1l-0.6-0.5l0.8-1.1L23.1,44.4z"/>
			<path class="st3" d="M24.6,47l0.9-1.6l0.7,0.4l-0.9,1.6L24.6,47z"/>
			<path class="st3" d="M25.6,47.6l0.8-1.6l0.7,0.3l0.2,0.9l0,0l0.3-0.6l0.7,0.3l-0.8,1.6l-0.7-0.3l-0.1-0.9l0,0l-0.3,0.7L25.6,47.6
				z"/>
			<path class="st3" d="M28.3,47.4l0.2-0.5l1.6,0.6L29.9,48l-0.4-0.2L29,49l-0.7-0.3l0.4-1.2L28.3,47.4z"/>
			<path class="st3" d="M29.7,49.3l0.5-1.8l1.7,0.4l-0.1,0.5l-0.9-0.2l0,0.1l0.7,0.2L31.3,49l-0.7-0.2l0,0.2l0.9,0.2l-0.1,0.5
				L29.7,49.3z"/>
			<path class="st3" d="M32.7,49.5l-0.2,0l-0.1,0.5l-0.8-0.1l0.3-1.8l0.9,0.2c0.3,0.1,0.6,0.2,0.7,0.3c0.1,0.1,0.2,0.3,0.1,0.6
				c0,0.2-0.2,0.4-0.3,0.5l0.1,0.7L32.7,50L32.7,49.5z M32.7,49c0.1,0,0.2,0,0.2-0.1c0-0.1,0-0.2-0.2-0.2l-0.2,0L32.6,49L32.7,49z"
				/>
			<path class="st3" d="M33.8,50.2l0.2-1.8l0.8,0.1l0.5,0.7l0,0l0.1-0.7l0.8,0.1L36,50.4l-0.8-0.1l-0.4-0.8l-0.1,0l-0.1,0.7
				L33.8,50.2z"/>
			<path class="st3" d="M36.2,50.4l0.5-1.8l1.2,0l0.5,1.8l-0.8,0l-0.1-0.2l-0.5,0L37,50.4L36.2,50.4z M37.2,49.1l-0.1,0.6l0.3,0
				L37.2,49.1L37.2,49.1z"/>
			<path class="st3" d="M38.2,49.1l0-0.5l1.7-0.1l0,0.5l-0.4,0l0.1,1.3l-0.8,0.1L38.7,49L38.2,49.1z"/>
			<path class="st3" d="M40.3,50.2L40,48.4l0.8-0.1l0.3,1.8L40.3,50.2z"/>
			<path class="st3" d="M43.3,48.6c0.1,0.3,0.1,0.6-0.1,0.8s-0.4,0.3-0.7,0.4c-0.4,0.1-0.7,0.1-0.9,0c-0.2-0.1-0.3-0.3-0.4-0.6
				c-0.1-0.3-0.1-0.6,0.1-0.8c0.1-0.2,0.4-0.3,0.8-0.4c0.4-0.1,0.7-0.1,0.9,0C43.1,48.1,43.2,48.3,43.3,48.6z M41.9,49
				c0,0.2,0.1,0.3,0.1,0.3s0.1,0.1,0.3,0c0.1,0,0.2-0.1,0.2-0.2c0-0.1,0-0.2,0-0.3c0-0.2-0.1-0.3-0.1-0.3c0-0.1-0.1-0.1-0.3,0
				c-0.1,0-0.2,0.1-0.2,0.2C41.9,48.7,41.9,48.8,41.9,49z"/>
			<path class="st3" d="M43.8,49.4l-0.6-1.7l0.7-0.3l0.7,0.5l0,0l-0.2-0.6l0.7-0.3l0.6,1.7L45.1,49l-0.7-0.5l0,0l0.3,0.7L43.8,49.4z
				"/>
			<path class="st3" d="M46.1,48.6l-0.4-1.9l1.1-0.5l1.3,1.4l-0.7,0.4l-0.2-0.2L46.7,48l0,0.2L46.1,48.6z M46.4,46.9l0.2,0.6
				l0.3-0.2L46.4,46.9L46.4,46.9z"/>
			<path class="st3" d="M49.5,46.6l-1.3,0.8l-1-1.5l0.7-0.4l0.7,1.1l0.6-0.4L49.5,46.6z"/>
			<path class="st3" d="M49.5,45l-0.3-0.4l1.3-1.1l0.3,0.4l-0.3,0.3l0.8,1l-0.6,0.5l-0.8-1L49.5,45z"/>
			<path class="st3" d="M52.3,43.8l-0.1,0.1l0.3,0.3l-0.6,0.5l-1.3-1.3l0.7-0.7c0.3-0.2,0.5-0.4,0.6-0.4c0.2,0,0.3,0,0.5,0.2
				c0.2,0.2,0.2,0.4,0.2,0.6l0.6,0.3L52.7,44L52.3,43.8z M51.9,43.4c0.1-0.1,0.1-0.2,0-0.2c-0.1-0.1-0.2-0.1-0.3,0l-0.1,0.1l0.2,0.3
				L51.9,43.4z"/>
			<path class="st3" d="M53.4,43.3l-1-1.6l0.8-0.9l1.7,0.8l-0.5,0.6l-0.2-0.1l-0.3,0.4l0.1,0.2L53.4,43.3z M53.1,41.7l0.4,0.5
				l0.2-0.3L53.1,41.7L53.1,41.7z"/>
			<path class="st3" d="M55.6,40.7L55,41.5l-1.4-1.1l0.6-0.8c0.2-0.3,0.5-0.5,0.7-0.5c0.2-0.1,0.4,0,0.7,0.2
				c0.2,0.2,0.4,0.4,0.4,0.6C56,40.2,55.8,40.4,55.6,40.7z M55.1,40c-0.1-0.1-0.2-0.1-0.3-0.1c-0.1,0-0.1,0.1-0.2,0.2l-0.1,0.1
				l0.6,0.5l0.1-0.1c0.1-0.1,0.1-0.2,0.1-0.3C55.3,40.2,55.2,40.1,55.1,40z"/>
			<path class="st3" d="M56.4,39.7l-1.5-1l0.4-0.7l1.5,1L56.4,39.7z"/>
			<path class="st3" d="M57,38.8l-1.6-1l0.4-0.7l0.9-0.1l0,0l-0.6-0.4l0.4-0.7l1.6,1l-0.4,0.7l-0.9,0.1l0,0l0.6,0.4L57,38.8z"/>
			<path class="st3" d="M58.2,34.5l0.9,0.5c-0.1,0.4-0.3,0.7-0.3,0.8c-0.1,0.2-0.2,0.3-0.3,0.4c-0.1,0.1-0.2,0.2-0.3,0.2
				s-0.2,0-0.3,0c-0.1,0-0.2-0.1-0.4-0.2c-0.3-0.2-0.5-0.3-0.5-0.6c0-0.2,0-0.5,0.2-0.8c0.1-0.1,0.1-0.2,0.2-0.3
				c0.1-0.1,0.1-0.2,0.2-0.3l0.1-0.1l0.4,0.2c-0.2,0.3-0.3,0.5-0.3,0.6c-0.1,0.1-0.1,0.2-0.1,0.2c0,0,0,0.1,0,0.1c0,0,0,0.1,0,0.1
				c0,0,0.1,0.1,0.3,0.2c0.1,0.1,0.2,0.1,0.3,0.1c0.1,0,0.1-0.1,0.2-0.2l0.1-0.1l-0.1-0.1l0,0.1l-0.4-0.2L58.2,34.5z"/>
		</g>
	</g>
	<g>
		<g>
			<g>
				<polygon class="st1" points="22.6,19.2 22.6,14.8 26.2,14.8 26.2,16.6 26,16.6 26,17.4 26.2,17.4 26.2,19.2 				"/>
			</g>
			<g>
				<path class="st1" d="M27.2,19.2c-0.3,0-0.5,0-0.7-0.1c-0.2-0.1-0.4-0.2-0.5-0.4c-0.1-0.2-0.2-0.4-0.2-0.6c0-0.2,0.1-0.4,0.2-0.6
					c0,0,0-0.1,0.1-0.1h-0.1l0-0.3c0-0.1,0-0.1,0-0.2c0-0.3,0.1-0.5,0.2-0.7c0.1-0.2,0.4-0.3,0.6-0.4c0.3-0.1,0.6-0.1,0.9-0.1
					c0.4,0,0.7,0.1,1,0.2c0.3,0.1,0.5,0.3,0.7,0.5c0.1,0.2,0.2,0.5,0.2,0.8v2h-1.8l0,0C27.5,19.2,27.4,19.2,27.2,19.2z"/>
			</g>
			<g>
				<path class="st1" d="M30.9,19.3c-0.4,0-0.7-0.1-1-0.2c-0.3-0.1-0.5-0.3-0.6-0.5c-0.1-0.2-0.2-0.4-0.2-0.7v-0.3h0.2c0,0,0,0,0,0
					c-0.1-0.2-0.2-0.4-0.2-0.6c0-0.3,0.1-0.5,0.3-0.7c0.2-0.2,0.4-0.3,0.7-0.4c0.3-0.1,0.6-0.1,0.9-0.1c0.4,0,0.7,0,0.9,0.1
					c0.3,0.1,0.5,0.3,0.6,0.5c0.1,0.2,0.2,0.4,0.2,0.7v0.3h-0.1c0,0,0,0,0,0c0.1,0.2,0.2,0.4,0.2,0.6c0,0.3-0.1,0.5-0.2,0.7
					c-0.1,0.2-0.4,0.3-0.7,0.4C31.7,19.2,31.3,19.3,30.9,19.3z"/>
			</g>
			<g>
				<path class="st1" d="M33.4,19.8c-0.1,0-0.1,0-0.2,0l-0.1,0c-0.1,0-0.5,0-0.6-0.1l-0.2-0.1L32.1,18l0.5,0.1c0,0,0.1,0,0.1,0
					c0,0,0.1,0,0.1,0c0,0,0-0.1,0-0.1L32,15.9h4l-0.7,2.7l0,0c-0.1,0.3-0.2,0.6-0.5,0.8c-0.2,0.1-0.3,0.2-0.5,0.3
					c-0.2,0.1-0.4,0.1-0.6,0.1C33.6,19.8,33.5,19.8,33.4,19.8z"/>
			</g>
			<g>
				<polygon class="st1" points="40.7,19.1 40.7,14.5 44.4,14.5 44.4,16.5 44.2,16.5 44.2,18 42.9,18 42.9,19.1 				"/>
			</g>
			<g>
				<path class="st1" d="M45.3,19.2c-0.3,0-0.5-0.1-0.7-0.2c-0.2-0.1-0.4-0.3-0.5-0.5c-0.1-0.2-0.2-0.5-0.2-0.8v-2h3.9v3.5h-1.9l0,0
					c0,0-0.1,0-0.1,0C45.7,19.2,45.5,19.2,45.3,19.2L45.3,19.2z"/>
			</g>
			<g>
				<path class="st1" d="M47.6,19.1v-3.5h1.9l0,0.1c0.1-0.1,0.3-0.1,0.6-0.1c0.4,0,0.7,0.1,1,0.4c0.2,0.2,0.4,0.6,0.4,1v2.1H47.6z"
					/>
			</g>
		</g>
		<g>
			<g>
				<path class="st2" d="M22.9,15.1h3.1v1.2h-1.5v0.2h1.3v1h-1.3v0.2h1.5v1.3h-3.1V15.1z"/>
				<path class="st2" d="M27.7,16.9c-0.3,0-0.3,0.2-0.3,0.2h-1.2c0-0.1,0-0.1,0-0.2c0-0.2,0.1-0.4,0.2-0.5c0.1-0.1,0.3-0.3,0.5-0.3
					c0.2-0.1,0.5-0.1,0.8-0.1c0.3,0,0.6,0,0.9,0.1c0.2,0.1,0.4,0.2,0.5,0.4c0.1,0.2,0.2,0.4,0.2,0.7v1.7H28c0-0.1,0-0.2,0-0.3
					c0-0.1,0-0.2,0-0.3h0c0,0.1-0.1,0.2-0.2,0.3c-0.1,0.1-0.2,0.2-0.3,0.2c-0.1,0.1-0.3,0.1-0.5,0.1c-0.2,0-0.4,0-0.6-0.1
					c-0.2-0.1-0.3-0.2-0.4-0.3c-0.1-0.1-0.1-0.3-0.1-0.4c0-0.2,0-0.3,0.1-0.4c0.1-0.1,0.2-0.2,0.3-0.3c0.2-0.1,0.3-0.1,0.6-0.1H28
					C28.1,17.2,28,16.9,27.7,16.9z M27.7,18.2c0.2,0,0.3-0.1,0.3-0.1v-0.3h-0.1C27.3,17.7,27.4,18.2,27.7,18.2z"/>
				<path class="st2" d="M30.5,17.8c-0.2,0-0.4-0.1-0.6-0.2c-0.2-0.1-0.3-0.2-0.3-0.3c-0.1-0.1-0.1-0.2-0.1-0.4
					c0-0.2,0.1-0.4,0.2-0.5c0.1-0.2,0.3-0.3,0.5-0.3c0.2-0.1,0.5-0.1,0.8-0.1c0.3,0,0.6,0,0.8,0.1c0.2,0.1,0.4,0.2,0.5,0.4
					c0.1,0.2,0.1,0.3,0.1,0.6h-1c0,0,0-0.2-0.2-0.2c-0.2,0-0.3,0-0.4,0c-0.1,0-0.2,0.1-0.1,0.2c0,0.1,0.1,0.1,0.2,0.1
					c0.1,0,0.2,0.1,0.5,0.1c0.3,0,0.5,0.1,0.6,0.1c0.2,0,0.3,0.1,0.4,0.2c0.1,0.1,0.1,0.3,0.1,0.4c0,0.2-0.1,0.4-0.2,0.5
					c-0.1,0.1-0.3,0.3-0.5,0.3c-0.2,0.1-0.5,0.1-0.9,0.1c-0.4,0-0.7,0-0.9-0.1c-0.2-0.1-0.4-0.2-0.5-0.4c-0.1-0.2-0.1-0.3-0.1-0.5h1
					c0,0.1,0,0.2,0,0.2c0,0.1,0.1,0.1,0.1,0.1c0.1,0,0.2,0,0.3,0c0.2-0.1,0-0.3-0.2-0.4C30.7,17.8,30.5,17.8,30.5,17.8z"/>
				<path class="st2" d="M33.1,18l-0.6-1.8h1.3l0.2,1.5l0.1,0l0.1-1.5h1.4L35,18.5c-0.1,0.3-0.2,0.5-0.4,0.7
					c-0.2,0.1-0.3,0.2-0.4,0.3c-0.2,0.1-0.3,0.1-0.5,0.1c-0.2,0-0.2,0-0.4,0c-0.1,0-0.5,0-0.5-0.1l-0.2-1c0.1,0,0.1,0,0.2,0
					c0.1,0,0.1,0,0.2,0c0.1,0,0.2,0,0.2,0C33.2,18.4,33.1,18,33.1,18z"/>
				<path class="st2" d="M41,14.8h3.1v1.4h-1.4v0.3h1.2v1.2h-1.2v1.1H41V14.8z"/>
				<path class="st2" d="M46,17.2V16h1.5v2.9h-1.3c0-0.3,0-0.5,0-0.8h0c0,0.2-0.1,0.4-0.2,0.5c-0.1,0.1-0.2,0.2-0.3,0.2
					c-0.1,0-0.3,0-0.5,0c-0.2,0-0.4,0-0.5-0.1c-0.2-0.1-0.3-0.2-0.4-0.4c-0.1-0.2-0.1-0.4-0.1-0.7V16h1.5v1.5c0,0,0,0.3,0.2,0.3
					c0.2,0,0.2-0.4,0.2-0.4L46,17.2z"/>
				<path class="st2" d="M49.6,17.2c0,0,0-0.2-0.2-0.2c-0.2,0-0.2,0.3-0.2,0.3v0.2v1.3h-1.3V16h1.2l0,0.8l0-0.3
					c0.1-0.2,0.2-0.3,0.4-0.4c0.1-0.1,0.2-0.1,0.6-0.1c0.4,0,0.6,0.1,0.8,0.3c0.2,0.2,0.3,0.5,0.3,0.8v1.8h-1.5v-1.5L49.6,17.2z"/>
			</g>
		</g>
		<g>
			<g>
				<g>
					<circle class="st1" cx="38.2" cy="17.7" r="2.1"/>
				</g>
				<g>
					<path class="st4" d="M38.2,19.9c-1.2,0-2.2-1-2.2-2.2c0-1.2,1-2.2,2.2-2.2c1.2,0,2.2,1,2.2,2.2C40.4,18.9,39.5,19.9,38.2,19.9z
						 M38.2,15.7c-1.1,0-2,0.9-2,2c0,1.1,0.9,2,2,2c1.1,0,2-0.9,2-2C40.2,16.6,39.3,15.7,38.2,15.7z"/>
				</g>
			</g>
			<g>
				<g>
					<path class="st5" d="M38.7,17.9c0.1-0.1,0.2-0.2,0.3-0.3l0.3,0.3c0,0-0.1,0.1-0.1,0.1c0,0-0.1,0.1-0.1,0.1l0,0l0.4,0.5h-0.6
						l-0.2-0.2c-0.2,0.2-0.5,0.2-0.7,0.2c-0.1,0-0.2,0-0.2,0c-0.1,0-0.1-0.1-0.2-0.1c-0.1,0-0.1-0.1-0.1-0.2c0-0.1,0-0.1,0-0.2
						c0-0.1,0-0.1,0-0.2c0-0.1,0.1-0.1,0.1-0.2c0,0,0.1-0.1,0.1-0.1c0,0,0.1-0.1,0.2-0.1l0.1,0l0,0c-0.1-0.1-0.1-0.2-0.1-0.4
						c0-0.1,0-0.1,0-0.2c0-0.1,0.1-0.1,0.1-0.2c0.1,0,0.1-0.1,0.2-0.1c0.1,0,0.2,0,0.2,0c0.1,0,0.2,0,0.2,0c0.1,0,0.1,0.1,0.2,0.1
						c0.1,0,0.1,0.1,0.1,0.2c0,0.1,0,0.1,0,0.2c0,0.1,0,0.1,0,0.1c0,0,0,0.1-0.1,0.1c0,0-0.1,0.1-0.1,0.1c0,0-0.1,0.1-0.2,0.1
						L38.7,17.9z M38,17.8c-0.1,0.1-0.2,0.2-0.2,0.2c0,0,0,0.1,0,0.1c0,0,0,0,0,0.1c0,0,0,0,0.1,0c0,0,0.1,0,0.1,0
						c0.1,0,0.2,0,0.3-0.1L38,17.8z M38.2,17.4c0.1-0.1,0.2-0.2,0.2-0.2c0,0,0-0.1,0-0.1c0,0-0.1-0.1-0.1-0.1c0,0-0.1,0-0.1,0
						c0,0,0,0.1,0,0.1C38.1,17.2,38.1,17.3,38.2,17.4z"/>
				</g>
			</g>
		</g>
	</g>
	<g>
		<g>
			<g>
				<polygon class="st1" points="7.7,33.5 7.7,33.2 7.7,33.5 2.1,33.5 0,21.4 5.3,21.4 5.3,21.4 9.9,21.4 9.9,21.4 15.2,21.4 
					13.3,33.5 				"/>
			</g>
			<g>
				<rect x="15.1" y="21.4" class="st1" width="5.7" height="12.2"/>
			</g>
			<g>
				<polygon class="st1" points="26.5,33.5 26.1,32 26.2,33.5 21,33.5 21,21.4 26.9,21.4 27.3,23 27.2,21.4 32.4,21.4 32.4,33.5 
									"/>
			</g>
			<g>
				<polygon class="st1" points="33.5,33.5 33.5,21.4 43.1,21.4 43.1,26.3 42.4,26.3 42.4,30.5 39.1,30.5 39.1,33.5 				"/>
			</g>
			<g>
				<polygon class="st1" points="48.7,33.5 48.3,32.1 47.1,32.1 46.8,33.5 41.2,33.5 44.6,21.4 51,21.4 54.3,33.5 				"/>
			</g>
			<g>
				<path class="st1" d="M58.2,33.8c-1.8,0-3.2-0.5-4.2-1.6c-0.7-0.8-1.2-2-1.2-3.2v-0.4l2,0c-0.2-0.1-0.3-0.2-0.5-0.3
					c-0.7-0.5-1.5-2-1.5-3.2c0-1.3,0.5-2.3,1.5-3.1c0.9-0.7,2.2-1.1,3.8-1.1c1.7,0,3,0.5,3.9,1.4c0.8,0.8,1.2,1.9,1.2,3.3V26h-2.2
					c0.4,0.1,0.6,0.3,0.9,0.5l0.1,0.1c0.7,0.5,1.4,1.5,1.4,2.9c0,1.4-0.4,2.5-1.3,3.2C61.5,33.4,60.2,33.8,58.2,33.8z M58,29.3
					c0.1,0,0.1,0,0.2,0C58.1,29.3,58,29.3,58,29.3z"/>
			</g>
			<g>
				<polygon class="st1" points="66,33.5 66,26.4 63.5,26.4 63.5,21.4 74,21.4 74,26.4 71.5,26.4 71.5,33.5 				"/>
			</g>
		</g>
		<g>
			<g>
				<path d="M0.4,21.8h4.5l0.4,5.7h0l0.2-5.6h4.1l0.3,5.6h0l0.3-5.7h4.5l-1.8,11.3H8.1L7.6,28H7.6l-0.3,5.1H2.5L0.4,21.8z"/>
				<path d="M15.5,21.8h4.9v11.4h-4.9V21.8z"/>
				<path d="M21.4,21.8h5.1l1.3,5.2l0,0l-0.3-5.2H32v11.4h-5.2l-1.3-5.2l0,0l0.3,5.2h-4.3V21.8z"/>
				<path d="M33.9,21.8h8.8v4.1h-4v0.5H42v3.7h-3.4v3.1h-4.8V21.8z"/>
				<path d="M48.7,31.7h-1.9l-0.4,1.4h-4.7l3.1-11.4h5.8l3.1,11.4H49L48.7,31.7z M48.2,28l-0.4-2.2l0,0L47.4,28L48.2,28z"/>
				<path d="M53.3,29l4.1,0c0,0.3,0.2,0.7,0.9,0.7c0.4,0,0.7-0.1,0.7-0.3c0-0.2-0.2-0.3-0.3-0.4c-0.3-0.1-1-0.2-1.6-0.3
					c-0.7-0.1-1.6-0.2-2.2-0.7c-0.6-0.4-1.4-1.7-1.4-2.9c0-2.3,1.9-3.7,4.9-3.7c3.4,0,4.8,1.9,4.8,4.2h-3.9C59.1,25,58.4,25,58.3,25
					c-0.2,0-0.6,0.1-0.6,0.3c0,0.3,0.4,0.3,0.6,0.4c0.4,0.1,0.9,0.2,1.8,0.4c1,0.2,1.3,0.4,1.9,0.8c0.7,0.5,1.3,1.4,1.3,2.5
					c0,2.5-1.3,3.9-5,3.9C54.5,33.4,53.3,31,53.3,29z"/>
				<path d="M66.4,26h-2.5v-4.2h9.7V26h-2.5v7.1h-4.7V26z"/>
			</g>
		</g>
	</g>
</g>
</svg>
